<svg width="32" height="32" viewBox="0 0 32 32" fill="none" xmlns="http://www.w3.org/2000/svg">
<path d="M12.0005 12C12.0006 11.2667 12.2023 10.5475 12.5836 9.92113C12.9648 9.29473 13.5109 8.78518 14.1622 8.44818C14.8135 8.11117 15.5448 7.95968 16.2764 8.01026C17.0079 8.06084 17.7115 8.31154 18.3102 8.73497C18.9089 9.15839 19.3797 9.73825 19.6711 10.4112C19.9625 11.0841 20.0633 11.8241 19.9625 12.5505C19.8618 13.2768 19.5632 13.9615 19.0996 14.5296C18.636 15.0978 18.0252 15.5275 17.3338 15.772C16.9437 15.9099 16.606 16.1654 16.3672 16.5033C16.1284 16.8412 16.0003 17.2449 16.0005 17.6586V19.3333" stroke="#47474F" stroke-width="2" stroke-linecap="round" stroke-linejoin="round"/>
<path d="M16.0005 24V24.6667" stroke="#47474F" stroke-width="2" stroke-linecap="round" stroke-linejoin="round"/>
<path d="M16.0005 31C24.2848 31 31.0005 24.2843 31.0005 16C31.0005 7.71573 24.2848 1 16.0005 1C7.71622 1 1.00049 7.71573 1.00049 16C1.00049 24.2843 7.71622 31 16.0005 31Z" stroke="#47474F" stroke-width="2" stroke-miterlimit="10"/>
</svg>
