<svg width="32" height="32" viewBox="0 0 32 32" fill="none" xmlns="http://www.w3.org/2000/svg">
  <path d="M23.65 12.004c0 .29-.119.841-.193 1.247-.064.348-.152.819-.712.819-1.152 0-.994-1.557-1.931-1.557-.387 0-.616.307-.616.69 0 .287.165.554.419.753l.932.744c.778.57 1.095 1.326 1.095 1.912 0 1.101-.905 1.924-1.997 1.924h-2.314c-.873 0-1.314-.282-1.566-.943-.067-.198-.425-1.17-.425-1.511 0-.516.336-.914.848-.914.986 0 1.416 1.556 2.227 1.556.318 0 .555-.293.555-.596 0-.226-.138-.47-.391-.668l-.81-.678c-.678-.545-1.064-1.173-1.064-1.842 0-1.227.913-2.338 2.329-2.338h2.326c.748 0 1.288.703 1.288 1.402Zm-8.073 3.687c0 .533.236 1.14.236 1.686 0 .595-.447 1.158-1.105 1.158-.824 0-.822-.83-1.275-.83-.454 0-.486.931-1.921.931-1.434 0-3.02-1.617-3.02-3.799s1.357-4.135 3.462-4.135c1.204 0 1.642.778 2.057.778.54 0 .546-.98 1.522-.98.61 0 1.092.538 1.092 1.175 0 1.016-1.048 2.545-1.048 4.016Zm-1.984-1.022c0-.844-.645-1.528-1.441-1.528-.797 0-1.442.684-1.442 1.528 0 .845.645 1.529 1.441 1.529.797 0 1.442-.684 1.442-1.529Zm17.36 1.022c0 .533.235 1.14.235 1.686 0 .595-.447 1.159-1.104 1.159-.825 0-.823-.83-1.276-.83-.454 0-.486.93-1.921.93-1.434 0-3.02-1.616-3.02-3.799 0-2.182 1.357-4.135 3.462-4.135 1.204 0 1.642.778 2.057.778.54 0 .546-.98 1.521-.98.611 0 1.093.538 1.093 1.175 0 1.016-1.048 2.545-1.048 4.016Zm-1.985-1.021c0-.845-.645-1.529-1.442-1.529-.796 0-1.441.684-1.441 1.529 0 .844.645 1.528 1.441 1.528.797 0 1.442-.684 1.442-1.528ZM8.31 11.69c0 .52-.3 1.311-.698 2.993-.396 1.681-.626 2.587-.626 3.42 0 .832.366 1.352.366 2.078 0 .725-.558 1.319-1.105 1.319H5.29c-.62 0-1.088-.706-1.088-1.32 0-1.06 1.078-1.38 1.078-2.05 0-.281-.186-.526-.456-.526-.511 0-.628.73-1.784.73-1.44 0-3.039-1.47-3.039-3.7 0-2.23 1.7-3.932 3.493-3.932 1.295 0 1.618.778 2.142.778.558 0 .63-.98 1.552-.98.565 0 1.123.484 1.123 1.19Zm-3.03 2.98c0-.845-.645-1.53-1.441-1.53s-1.441.685-1.441 1.53c0 .844.645 1.528 1.441 1.528s1.441-.684 1.441-1.529Z" fill="#342620"/>
</svg>
