<svg width="122" height="33" viewBox="0 0 122 33" fill="none" xmlns="http://www.w3.org/2000/svg">
<path fill-rule="evenodd" clip-rule="evenodd" d="M105.206 0.0732422H0V32.0732H105.206H105.208L121.111 16.0753V16.073L105.208 0.0746636V0.0732422H105.206Z" fill="white"/>
<path fill-rule="evenodd" clip-rule="evenodd" d="M29.4305 23.2007H32.5128V8.94714H29.4305V23.2007Z" fill="#202020"/>
<path fill-rule="evenodd" clip-rule="evenodd" d="M43.7157 23.2255L38.7435 18.2237L38.7088 18.2586L38.6759 18.2253V23.206H35.5952V8.9525H38.6759V13.9074L43.6315 8.92224H47.9899L40.9219 16.0309L48.0739 23.2255H43.7157Z" fill="#202020"/>
<path fill-rule="evenodd" clip-rule="evenodd" d="M74.3029 12.047H70.218V23.2001H67.1357V12.047H62.9877V8.94653H74.3029V12.047Z" fill="#202020"/>
<path fill-rule="evenodd" clip-rule="evenodd" d="M77.3846 23.2007H80.4653V8.94714H77.3846V23.2007Z" fill="#202020"/>
<path fill-rule="evenodd" clip-rule="evenodd" d="M93.2872 12.047H86.6636V14.4152H93.2872V17.5156H86.6636V20.1011H93.2872V23.2001H83.5485V8.94653H93.2872V12.047Z" fill="#202020"/>
<path fill-rule="evenodd" clip-rule="evenodd" d="M19.3625 12.1474C17.2065 12.1474 15.4591 13.9052 15.4591 16.074C15.4591 18.2426 17.2065 20.0005 19.3625 20.0005C21.5183 20.0005 23.2657 18.2426 23.2657 16.074C23.2657 13.9052 21.5183 12.1474 19.3625 12.1474ZM19.3625 23.2349C15.4307 23.2349 12.2434 20.0287 12.2434 16.0736C12.2434 12.1183 15.4307 8.91211 19.3625 8.91211C23.2944 8.91211 26.4816 12.1183 26.4816 16.0736C26.4816 20.0287 23.2944 23.2349 19.3625 23.2349Z" fill="#202020"/>
<path fill-rule="evenodd" clip-rule="evenodd" d="M54.8041 12.1474C52.6483 12.1474 50.9008 13.9052 50.9008 16.074C50.9008 18.2426 52.6483 20.0005 54.8041 20.0005C56.9598 20.0005 58.7073 18.2426 58.7073 16.074C58.7073 13.9052 56.9598 12.1474 54.8041 12.1474ZM54.8041 23.2349C50.8722 23.2349 47.6849 20.0287 47.6849 16.0736C47.6849 12.1183 50.8722 8.91211 54.8041 8.91211C58.7359 8.91211 61.9232 12.1183 61.9232 16.0736C61.9232 20.0287 58.7359 23.2349 54.8041 23.2349Z" fill="#202020"/>
</svg>
