<svg width="122" height="32" viewBox="0 0 122 32" fill="none" xmlns="http://www.w3.org/2000/svg">
  <path fill-rule="evenodd" clip-rule="evenodd" d="M105.206 0H0v32h105.208l15.903-15.998V16L105.208 0V0h-.002Z" fill="#fff"/>
  <path fill-rule="evenodd" clip-rule="evenodd" d="M29.43 23.128h3.083V8.874H29.43v14.254ZM43.716 23.152l-4.973-5.001-.034.035-.033-.034v4.98h-3.08V8.88h3.08v4.955l4.956-4.985h4.358l-7.068 7.109 7.152 7.194h-4.358ZM73.315 12.1H69.23v11.153h-3.082V12.1H62V9h11.315v3.1ZM77.385 23.128h3.08V8.874h-3.08v14.254ZM93.287 11.974h-6.623v2.368h6.623v3.1h-6.623v2.586h6.623v3.099h-9.739V8.873h9.74v3.1ZM19.363 12.074c-2.157 0-3.904 1.758-3.904 3.927 0 2.168 1.747 3.926 3.904 3.926 2.155 0 3.903-1.758 3.903-3.926 0-2.169-1.748-3.927-3.903-3.927Zm0 11.088c-3.932 0-7.12-3.207-7.12-7.162s3.188-7.161 7.12-7.161c3.931 0 7.119 3.206 7.119 7.161 0 3.955-3.188 7.162-7.12 7.162Z" fill="#202020"/>
  <path fill-rule="evenodd" clip-rule="evenodd" d="M54.804 12.074c-2.156 0-3.903 1.758-3.903 3.927 0 2.168 1.747 3.926 3.903 3.926 2.156 0 3.903-1.758 3.903-3.926 0-2.169-1.747-3.927-3.903-3.927Zm0 11.088c-3.932 0-7.12-3.207-7.12-7.162s3.188-7.161 7.12-7.161 7.12 3.206 7.12 7.161c0 3.955-3.188 7.162-7.12 7.162Z" fill="#202020"/>
</svg>
