<svg width="24" height="24" viewBox="0 0 24 24" fill="none" xmlns="http://www.w3.org/2000/svg">
  <path d="M9.138 3.75H4.424a.674.674 0 0 0-.674.674v4.714c0 .372.302.674.674.674h4.714a.674.674 0 0 0 .674-.674V4.424a.674.674 0 0 0-.674-.674ZM16.884 9.812a3.03 3.03 0 1 0 0-6.062 3.03 3.03 0 0 0 0 6.062ZM17.244 14.001a.598.598 0 0 0-1.06 0l-2.92 5.258a.69.69 0 0 0-.005.658.61.61 0 0 0 .534.33h5.842a.61.61 0 0 0 .534-.33.692.692 0 0 0-.005-.658l-2.92-5.258ZM7.186 13.368a.524.524 0 0 0-.808 0l-2.5 2.988a.557.557 0 0 0 0 .713l2.498 2.988a.523.523 0 0 0 .808 0l2.498-2.988a.557.557 0 0 0 0-.713l-2.496-2.988Z" stroke="#1B1B1F" stroke-width="1.5" stroke-linecap="round" stroke-linejoin="round"/>
</svg>
