<svg width="32" height="32" viewBox="0 0 32 32" fill="none" xmlns="http://www.w3.org/2000/svg">
<path d="M27.9264 2.6665H4.07388C3.85134 2.66647 3.63542 2.74397 3.46171 2.88624C3.288 3.02851 3.16686 3.22706 3.11827 3.44917L1.3335 10.3332C1.3335 11.1288 1.64254 11.8919 2.19265 12.4545C2.74276 13.0171 3.48886 13.3332 4.26683 13.3332C5.0448 13.3332 5.7909 13.0171 6.34101 12.4545C6.89112 11.8919 7.20016 11.1288 7.20016 10.3332C7.20016 11.1288 7.50921 11.8919 8.05932 12.4545C8.60942 13.0171 9.35553 13.3332 10.1335 13.3332C10.9115 13.3332 11.6576 13.0171 12.2077 12.4545C12.7578 11.8919 13.0668 11.1288 13.0668 10.3332C13.0668 11.1288 13.3759 11.8919 13.926 12.4545C14.4761 13.0171 15.2222 13.3332 16.0002 13.3332C16.7781 13.3332 17.5242 13.0171 18.0743 12.4545C18.6244 11.8919 18.9335 11.1288 18.9335 10.3332C18.9335 11.1288 19.2425 11.8919 19.7927 12.4545C20.3428 13.0171 21.0889 13.3332 21.8668 13.3332C22.6448 13.3332 23.3909 13.0171 23.941 12.4545C24.4911 11.8919 24.8002 11.1288 24.8002 10.3332C24.8002 11.1288 25.1092 11.8919 25.6593 12.4545C26.2094 13.0171 26.9555 13.3332 27.7335 13.3332C28.5115 13.3332 29.2576 13.0171 29.8077 12.4545C30.3578 11.8919 30.6668 11.1288 30.6668 10.3332L28.8808 3.44917C28.8326 3.22705 28.7118 3.0284 28.5383 2.88607C28.3647 2.74374 28.1489 2.66628 27.9264 2.6665Z" stroke="#47474F" stroke-width="2" stroke-linecap="round" stroke-linejoin="round"/>
<path d="M2.6665 17.3333V26.6666C2.6665 28.1393 3.86041 29.3333 5.33317 29.3333H26.6665C28.1393 29.3333 29.3332 28.1393 29.3332 26.6666V17.3333" stroke="#47474F" stroke-width="2" stroke-linecap="round" stroke-linejoin="round"/>
<rect x="8" y="18.6665" width="5.33333" height="5.33333" rx="0.666667" stroke="#47474F" stroke-width="2"/>
<path d="M23.9998 29.3333V20.6667C23.9998 20.2985 23.7014 20 23.3332 20H19.3332C18.965 20 18.6665 20.2985 18.6665 20.6667V29.3333" stroke="#47474F" stroke-width="2"/>
</svg>
