<svg width="32" height="32" viewBox="0 0 32 32" fill="none" xmlns="http://www.w3.org/2000/svg">
<path d="M8.99951 9.00024C10.0604 9.00024 11.0778 8.57882 11.8279 7.82867C12.5781 7.07853 12.9995 6.06111 12.9995 5.00024C12.9995 3.93938 12.5781 2.92196 11.8279 2.17182C11.0778 1.42167 10.0604 1.00024 8.99951 1.00024H5.99951V9.00024H8.99951Z" stroke="#47474F" stroke-width="2" stroke-linecap="round" stroke-linejoin="round"/>
<path d="M5.99951 3.00024H1.99951" stroke="#47474F" stroke-width="2" stroke-linecap="round" stroke-linejoin="round"/>
<path d="M5.99951 7.00024H1.99951" stroke="#47474F" stroke-width="2" stroke-linecap="round" stroke-linejoin="round"/>
<path d="M12.9995 5.00024H23.9995C25.5908 5.00024 27.1169 5.63239 28.2422 6.7576C29.3674 7.88282 29.9995 9.40895 29.9995 11.0002C29.9995 12.5915 29.3674 14.1177 28.2422 15.2429C27.1169 16.3681 25.5908 17.0002 23.9995 17.0002H8.99951C7.67343 17.0002 6.40166 17.527 5.46398 18.4647C4.5263 19.4024 3.99951 20.6742 3.99951 22.0002C3.99951 23.3263 4.5263 24.5981 5.46398 25.5358C6.40166 26.4735 7.67343 27.0002 8.99951 27.0002H22.6979" stroke="#47474F" stroke-width="2" stroke-linecap="round" stroke-linejoin="round"/>
<path d="M18.7991 30.9998C18.2173 31 17.6425 30.8732 17.1147 30.6284C16.5869 30.3836 16.1188 30.0266 15.7432 29.5823C15.3676 29.138 15.0934 28.6171 14.9398 28.0559C14.7862 27.4947 14.7568 26.9068 14.8538 26.3331C15.0452 25.3774 15.5671 24.5196 16.3277 23.9101C17.0884 23.3006 18.0393 22.9783 19.0138 22.9998H22.3765C23.9563 22.9997 25.5007 23.4674 26.8151 24.3438L29.5511 26.1678C29.6881 26.2591 29.8004 26.3828 29.8781 26.528C29.9557 26.6731 29.9964 26.8352 29.9964 26.9998C29.9964 27.1644 29.9557 27.3265 29.8781 27.4716C29.8004 27.6167 29.6881 27.7405 29.5511 27.8318L26.8151 29.6558C25.5007 30.5322 23.9563 30.9999 22.3765 30.9998H18.7991Z" stroke="#47474F" stroke-width="2" stroke-linecap="round" stroke-linejoin="round"/>
</svg>
