<svg width="32" height="32" viewBox="0 0 32 32" fill="none" xmlns="http://www.w3.org/2000/svg">
<path d="M16.0002 14.6668C19.6821 14.6668 22.6668 11.6821 22.6668 8.00016C22.6668 4.31826 19.6821 1.3335 16.0002 1.3335C12.3183 1.3335 9.3335 4.31826 9.3335 8.00016C9.3335 11.6821 12.3183 14.6668 16.0002 14.6668Z" stroke="#47474F" stroke-width="2" stroke-linecap="round" stroke-linejoin="round"/>
<path d="M5 31.0002C3.89543 31.0002 2.98424 30.0996 3.1535 29.008C3.57377 26.2979 4.84426 23.7712 6.80761 21.8079C9.24559 19.3699 12.5522 18.0002 16 18.0002C19.4478 18.0002 22.7544 19.3699 25.1924 21.8079C27.1557 23.7712 28.4262 26.2979 28.8465 29.008" stroke="#47474F" stroke-width="2" stroke-linecap="round" stroke-linejoin="round"/>
<path d="M10 4.6667C9.11111 3.77781 6.23836 2.87508 4.90503 5.17793C3.39332 7.78886 4.90503 13.8446 6.23836 15.8446L9.33333 10" stroke="#47474F" stroke-width="2" stroke-linecap="round" stroke-linejoin="round"/>
<path d="M22 4.6667C22.8889 3.77781 25.7616 2.87508 27.095 5.17793C28.6067 7.78886 27.095 13.8446 25.7616 15.8446L22.6667 10" stroke="#47474F" stroke-width="2" stroke-linecap="round" stroke-linejoin="round"/>
<path d="M16 5.3335C15.7778 6.44461 14.6667 8.66683 9.86667 8.66683" stroke="#47474F" stroke-width="2" stroke-linecap="round" stroke-linejoin="round"/>
<path d="M16 5.3335C16.2222 6.44461 17.3333 8.66683 22.1333 8.66683" stroke="#47474F" stroke-width="2" stroke-linecap="round" stroke-linejoin="round"/>
<path d="M22 20.0002C21.3333 21.5558 19.2 23.3336 16 23.3336C12.8 23.3336 10.6667 21.5558 10 20.0002" stroke="#47474F" stroke-width="2" stroke-linecap="round" stroke-linejoin="round"/>
</svg>
