<svg width="24" height="24" viewBox="0 0 24 24" fill="none" xmlns="http://www.w3.org/2000/svg"><path d="M6.127 12.119A2.467 2.467 0 0 0 5.329 12c-1.937 0-2.75 4.837 1.482 6.084m-.684-5.965C7.767 12.676 7.27 15 7.923 15h8.154c.703 0 .071-2.702 2.223-2.977m-12.173.096.684-5.744c0-.75.741-1.875 1.853-1.875h6.671c1.483 0 2.224 1.125 2.224 1.875l.741 5.648m0 0c.116-.015.239-.023.371-.023 1.937 0 2.75 4.837-1.482 6.084m-10.378 0c.627.185 1.364.291 2.224.291h5.93c.86 0 1.597-.106 2.224-.29m-10.378 0L6.07 19.5m11.119-1.416.74 1.416m-8.524-6.375V12c0-.375.371-.75.742-.75h3.706c.37 0 .741.375.741.75v1.125" stroke="#1B1B1F" stroke-width="1.5" stroke-linecap="round"/></svg>