<svg width="42" height="28" viewBox="0 0 42 28" fill="none" xmlns="http://www.w3.org/2000/svg">
<path d="M26.2 24.7456H15.8C13.732 24.7434 11.7493 23.9109 10.2869 22.4308C8.82461 20.9508 8.00214 18.944 8 16.8508C8 16.1529 8.27393 15.4835 8.76152 14.99C9.24912 14.4965 9.91044 14.2192 10.6 14.2192C11.2896 14.2192 11.9509 14.4965 12.4385 14.99C12.9261 15.4835 13.2 16.1529 13.2 16.8508C13.2006 17.5486 13.4747 18.2176 13.9622 18.7109C14.4497 19.2043 15.1106 19.4818 15.8 19.4824H26.2C26.8894 19.4818 27.5503 19.2043 28.0378 18.7109C28.5253 18.2176 28.7994 17.5486 28.8 16.8508C28.8 16.1529 29.0739 15.4835 29.5615 14.99C30.0491 14.4965 30.7104 14.2192 31.4 14.2192C32.0896 14.2192 32.7509 14.4965 33.2385 14.99C33.7261 15.4835 34 16.1529 34 16.8508C33.9979 18.944 33.1754 20.9508 31.7131 22.4308C30.2507 23.9109 28.268 24.7434 26.2 24.7456Z" stroke="#47474F" stroke-width="2" stroke-linecap="round" stroke-linejoin="round"/>
<path d="M11.4668 26.5001L12.664 24.0779" stroke="#47474F" stroke-width="2" stroke-linecap="round" stroke-linejoin="round"/>
<path d="M30.5336 26.5001L29.3364 24.0779" stroke="#47474F" stroke-width="2" stroke-linecap="round" stroke-linejoin="round"/>
<path d="M30.1797 14.5281L29.2552 4.47544C29.1293 3.64685 28.7145 2.89127 28.0858 2.34547C27.4571 1.79968 26.6561 1.49976 25.8279 1.5H16.1743C15.3463 1.50004 14.5456 1.80009 13.9171 2.34586C13.2887 2.89162 12.874 3.64705 12.7481 4.47544L11.8237 14.5281" stroke="#47474F" stroke-width="2" stroke-linecap="round" stroke-linejoin="round"/>
<path d="M25.3332 15.9736V14.2192C25.3332 13.7539 25.1506 13.3077 24.8255 12.9787C24.5004 12.6497 24.0595 12.4648 23.5998 12.4648H18.3998C17.9401 12.4648 17.4992 12.6497 17.1742 12.9787C16.8491 13.3077 16.6665 13.7539 16.6665 14.2192V15.9736" stroke="#47474F" stroke-width="2" stroke-linecap="round" stroke-linejoin="round"/>
</svg>
