<svg width="24" height="24" viewBox="0 0 24 24" fill="none" xmlns="http://www.w3.org/2000/svg"><path d="M9 16.875H6.75v2.25a.75.75 0 0 1-.75.75H3.75a.75.75 0 0 1-.75-.75v-8.25m3 3h1.5m12-5.625-1.302-3.68a.75.75 0 0 0-.686-.445H6.489a.75.75 0 0 0-.686.445L3 10.875m0 0h7.5m7.86 4.497a1.862 1.862 0 1 1-3.723 0 1.862 1.862 0 0 1 3.723 0Zm-5.891 2.331a4.612 4.612 0 0 1-.469-1.13l.781-.977c-.009-.15-.009-.3 0-.449l-.78-.977c.105-.396.262-.776.467-1.131l1.243-.14c.1-.111.206-.217.317-.316l.14-1.243c.354-.204.734-.36 1.13-.465l.977.78c.15-.008.299-.008.448 0l.978-.78c.396.106.776.263 1.13.468l.14 1.243c.112.1.218.205.317.317l1.243.14c.206.354.364.734.469 1.13l-.781.977c.009.15.009.3 0 .45l.78.976c-.104.396-.26.776-.465 1.131l-1.243.14c-.1.112-.205.217-.317.317l-.14 1.242a4.612 4.612 0 0 1-1.13.469l-.978-.78c-.15.008-.3.008-.448 0l-.978.78a4.63 4.63 0 0 1-1.131-.466l-.14-1.243a3.762 3.762 0 0 1-.317-.317l-1.243-.146Z" stroke="#1B1B1F" stroke-width="1.5" stroke-linecap="round" stroke-linejoin="round"/></svg>