<svg width="42" height="28" viewBox="0 0 42 28" fill="none" xmlns="http://www.w3.org/2000/svg">
<mask id="mask0_6664_346" style="mask-type:luminance" maskUnits="userSpaceOnUse" x="0" y="0" width="42" height="28">
<path d="M42 0H0V28H42V0Z" fill="white"/>
</mask>
<g mask="url(#mask0_6664_346)">
<path d="M27.0693 21.0002C28.0358 21.0002 28.8193 20.2167 28.8193 19.2502C28.8193 18.2837 28.0358 17.5002 27.0693 17.5002C26.1028 17.5002 25.3193 18.2837 25.3193 19.2502C25.3193 20.2167 26.1028 21.0002 27.0693 21.0002Z" stroke="#47474F" stroke-width="2" stroke-linecap="round" stroke-linejoin="round"/>
<path d="M28.5557 12.4799L29.0714 14.1739C29.1563 14.4555 29.3449 14.6943 29.5992 14.842C29.8535 14.9898 30.1544 15.0354 30.4411 14.9696L32.1584 14.5706C32.484 14.4972 32.8246 14.5301 33.1302 14.6644C33.4358 14.7987 33.6903 15.0273 33.8565 15.3168C34.0227 15.6062 34.0918 15.9413 34.0537 16.2729C34.0156 16.6045 33.8723 16.9152 33.6447 17.1594L32.4431 18.4556C32.2423 18.6715 32.1307 18.9553 32.1307 19.2501C32.1307 19.5449 32.2423 19.8287 32.4431 20.0446L33.6447 21.3408C33.8726 21.5848 34.0162 21.8955 34.0545 22.2272C34.0928 22.5589 34.0237 22.8941 33.8574 23.1836C33.6911 23.4731 33.4363 23.7017 33.1305 23.8358C32.8248 23.9698 32.484 24.0023 32.1584 23.9284L30.4411 23.5306C30.1546 23.4645 29.8537 23.5098 29.5993 23.6573C29.345 23.8049 29.1563 24.0436 29.0714 24.3251L28.5557 26.0191C28.4599 26.3388 28.2635 26.6191 27.9958 26.8184C27.728 27.0176 27.4032 27.1253 27.0694 27.1253C26.7356 27.1253 26.4108 27.0176 26.143 26.8184C25.8753 26.6191 25.6789 26.3388 25.5831 26.0191L25.0662 24.3251C24.9816 24.0437 24.7931 23.805 24.539 23.6574C24.2848 23.5099 23.9841 23.4645 23.6977 23.5306L21.9792 23.9284C21.6538 24.0014 21.3136 23.9684 21.0083 23.8341C20.7031 23.6999 20.4488 23.4714 20.2827 23.1822C20.1166 22.893 20.0474 22.5583 20.0852 22.2269C20.123 21.8956 20.2659 21.5851 20.4929 21.3408L21.6946 20.0446C21.8953 19.8287 22.0069 19.5449 22.0069 19.2501C22.0069 18.9553 21.8953 18.6715 21.6946 18.4556L20.4929 17.1594C20.2654 16.9152 20.1221 16.6045 20.084 16.2729C20.0458 15.9413 20.1149 15.6062 20.2811 15.3168C20.4473 15.0273 20.7019 14.7987 21.0075 14.6644C21.3131 14.5301 21.6536 14.4972 21.9792 14.5706L23.6977 14.9696C23.9842 15.0353 24.285 14.9897 24.5391 14.842C24.7932 14.6942 24.9816 14.4554 25.0662 14.1739L25.5831 12.4799C25.6789 12.1602 25.8753 11.8799 26.143 11.6807C26.4108 11.4814 26.7356 11.3738 27.0694 11.3738C27.4032 11.3738 27.728 11.4814 27.9958 11.6807C28.2635 11.8799 28.4599 12.1602 28.5557 12.4799Z" stroke="#47474F" stroke-width="2" stroke-linecap="round" stroke-linejoin="round"/>
<path d="M10.3833 8.87614L12.4262 4.32614C12.6138 3.82575 12.9497 3.39455 13.389 3.09018C13.8282 2.7858 14.3499 2.62274 14.8843 2.6228H25.2467C25.781 2.62265 26.3025 2.78569 26.7416 3.09009C27.1807 3.3945 27.5164 3.82575 27.7037 4.32614L29.75 8.87497" stroke="#47474F" stroke-width="2" stroke-linecap="round" stroke-linejoin="round"/>
<path d="M8.69434 16.3906V18.374C8.69434 18.8381 8.87871 19.2832 9.2069 19.6114C9.53509 19.9396 9.98021 20.124 10.4443 20.124C10.9084 20.124 11.3535 19.9396 11.6817 19.6114C12.0099 19.2832 12.1943 18.8381 12.1943 18.374V16.624" stroke="#47474F" stroke-width="2" stroke-linecap="round" stroke-linejoin="round"/>
<path d="M11.7568 12.2502C11.6408 12.2502 11.5295 12.2963 11.4474 12.3784C11.3654 12.4604 11.3193 12.5717 11.3193 12.6877" stroke="#47474F" stroke-width="2" stroke-linecap="round" stroke-linejoin="round"/>
<path d="M12.1943 12.6877C12.1943 12.5717 12.1482 12.4604 12.0662 12.3784C11.9841 12.2963 11.8728 12.2502 11.7568 12.2502" stroke="#47474F" stroke-width="2" stroke-linecap="round" stroke-linejoin="round"/>
<path d="M11.7568 13.1252C11.8728 13.1252 11.9841 13.0792 12.0662 12.9971C12.1482 12.9151 12.1943 12.8038 12.1943 12.6877" stroke="#47474F" stroke-width="2" stroke-linecap="round" stroke-linejoin="round"/>
<path d="M11.3169 12.6877C11.3169 12.8038 11.363 12.9151 11.445 12.9971C11.5271 13.0792 11.6383 13.1252 11.7544 13.1252" stroke="#47474F" stroke-width="2" stroke-linecap="round" stroke-linejoin="round"/>
<path d="M31.8502 10.499C31.5428 9.96663 31.1006 9.52458 30.5681 9.21737C30.0356 8.91016 29.4316 8.74863 28.8169 8.74902H11.3169C10.3886 8.74902 9.49839 9.11777 8.84201 9.77415C8.18563 10.4305 7.81689 11.3208 7.81689 12.249V14.874C7.81689 15.3382 8.00126 15.7833 8.32945 16.1115C8.65764 16.4396 9.10276 16.624 9.5669 16.624H16.5669" stroke="#47474F" stroke-width="2" stroke-linecap="round" stroke-linejoin="round"/>
</g>
</svg>
