<svg width="42" height="28" viewBox="0 0 42 28" fill="none" xmlns="http://www.w3.org/2000/svg">
<path d="M17.8574 20.1428H28.1431" stroke="#47474F" stroke-width="2" stroke-linecap="round" stroke-linejoin="round"/>
<path d="M17.8572 17.9999C17.8572 18.8441 17.6909 19.6801 17.3678 20.46C17.0448 21.24 16.5713 21.9487 15.9743 22.5456C15.3774 23.1426 14.6687 23.6161 13.8887 23.9391C13.1088 24.2622 12.2728 24.4285 11.4286 24.4285C10.5844 24.4285 9.74841 24.2622 8.96846 23.9391C8.18851 23.6161 7.47983 23.1426 6.88288 22.5456C6.28593 21.9487 5.81241 21.24 5.48934 20.46C5.16628 19.6801 5 18.8441 5 17.9999C5 17.1557 5.16628 16.3198 5.48934 15.5398C5.81241 14.7599 6.28593 14.0512 6.88288 13.4542C7.47983 12.8573 8.18851 12.3838 8.96846 12.0607C9.74841 11.7376 10.5844 11.5713 11.4286 11.5713C12.2728 11.5713 13.1088 11.7376 13.8887 12.0607C14.6687 12.3838 15.3774 12.8573 15.9743 13.4542C16.5713 14.0512 17.0448 14.7599 17.3678 15.5398C17.6909 16.3198 17.8572 17.1557 17.8572 17.9999Z" stroke="#47474F" stroke-width="2" stroke-linecap="round" stroke-linejoin="round"/>
<path d="M37.5716 19.7142C37.5716 20.3333 37.4497 20.9464 37.2128 21.5183C36.9759 22.0903 36.6286 22.61 36.1909 23.0477C35.7531 23.4855 35.2334 23.8328 34.6614 24.0697C34.0895 24.3066 33.4764 24.4285 32.8573 24.4285C32.2383 24.4285 31.6252 24.3066 31.0533 24.0697C30.4813 23.8328 29.9616 23.4855 29.5238 23.0477C29.0861 22.61 28.7388 22.0903 28.5019 21.5183C28.265 20.9464 28.1431 20.3333 28.1431 19.7142C28.1431 19.0952 28.265 18.4821 28.5019 17.9102C28.7388 17.3382 29.0861 16.8185 29.5238 16.3807C29.9616 15.943 30.4813 15.5957 31.0533 15.3588C31.6252 15.1219 32.2383 15 32.8573 15C33.4764 15 34.0895 15.1219 34.6614 15.3588C35.2334 15.5957 35.7531 15.943 36.1909 16.3807C36.6286 16.8185 36.9759 17.3382 37.2128 17.9102C37.4497 18.4821 37.5716 19.0952 37.5716 19.7142Z" stroke="#47474F" stroke-width="2" stroke-linecap="round" stroke-linejoin="round"/>
<path d="M28.5708 7.71428V3H30.6869" stroke="#47474F" stroke-width="2" stroke-linecap="round" stroke-linejoin="round"/>
<path d="M8.42822 12V5C8.42822 3.89543 9.32365 3 10.4282 3H13.7853H19.4152C20.2761 3 21.0404 3.55086 21.3126 4.36754L23.4282 10.7142" stroke="#47474F" stroke-width="2" stroke-linecap="round"/>
<path d="M35.4283 15.4284L34.732 11.9465C34.6385 11.4791 34.2281 11.1426 33.7514 11.1426H19.1426L17.8569 7.71411" stroke="#47474F" stroke-width="2" stroke-linecap="round"/>
<path d="M26.4282 10.7141V7.71411H30.7139V10.7141" stroke="#47474F" stroke-width="2" stroke-linecap="round" stroke-linejoin="round"/>
</svg>
