<svg width="24" height="24" viewBox="0 0 24 24" fill="none" xmlns="http://www.w3.org/2000/svg">
  <path d="m16.125 12 .398.636a.75.75 0 0 0 0-1.272l-.398.636Zm-6-3.75.398-.636a.75.75 0 0 0-1.148.636h.75Zm0 7.5h-.75a.75.75 0 0 0 1.148.636l-.398-.636ZM21 12h-.75A8.25 8.25 0 0 1 12 20.25v1.5c5.385 0 9.75-4.365 9.75-9.75H21Zm-9 9v-.75A8.25 8.25 0 0 1 3.75 12h-1.5c0 5.385 4.365 9.75 9.75 9.75V21Zm-9-9h.75A8.25 8.25 0 0 1 12 3.75v-1.5c-5.385 0-9.75 4.365-9.75 9.75H3Zm9-9v.75A8.25 8.25 0 0 1 20.25 12h1.5c0-5.385-4.365-9.75-9.75-9.75V3Zm4.125 9 .398-.636-6-3.75-.398.636-.398.636 6 3.75.398-.636Zm-6-3.75h-.75v7.5h1.5v-7.5h-.75Zm0 7.5.398.636 6-3.75-.398-.636-.398-.636-6 3.75.398.636Z" fill="#1B1B1F"/>
</svg>
