<svg width="32" height="32" fill="none" xmlns="http://www.w3.org/2000/svg"><path d="M18 17.332h7.764a2 2 0 0 0 1.789-1.105l2.085-4.17a.5.5 0 0 0-.447-.725H2.809a.5.5 0 0 0-.447.724l2.085 4.17a2 2 0 0 0 1.79 1.107H7.5" stroke="#47474F" stroke-width="2" stroke-linecap="round" stroke-linejoin="round"/><path d="M17.719 6 14 14.666m0 0L14.402 19l-.619 1.741a1.333 1.333 0 0 1-1.705.81l-1.146-.41a1.333 1.333 0 0 1-.78-1.774l.716-1.7 3.133-3ZM30 26.946a6.592 6.592 0 0 1-3.011-.313A6.81 6.81 0 0 1 24.4 25a5.678 5.678 0 0 1-1.902 1.436 5.467 5.467 0 0 1-2.298.508 5.467 5.467 0 0 1-2.298-.508A5.678 5.678 0 0 1 16 25a5.678 5.678 0 0 1-1.902 1.436 5.467 5.467 0 0 1-2.298.508 5.467 5.467 0 0 1-2.298-.508A5.678 5.678 0 0 1 7.6 25a6.81 6.81 0 0 1-2.589 1.633A6.592 6.592 0 0 1 2 26.946" stroke="#47474F" stroke-width="2" stroke-linecap="round" stroke-linejoin="round"/></svg>