<svg width="189" height="32" viewBox="0 0 189 32" fill="none" xmlns="http://www.w3.org/2000/svg">
  <path d="M2.998 28.484a10.1 10.1 0 0 1 7.022-17.278 10.081 10.081 0 0 1 9.355 6.174A10.106 10.106 0 0 1 14 30.604a10.081 10.081 0 0 1-11.006-2.127v.007h.005Zm40.574-.161a10.1 10.1 0 0 1 7.022-17.283 10.078 10.078 0 0 1 9.355 6.175 10.1 10.1 0 0 1-2.117 11.012 10.088 10.088 0 0 1-10.979 2.26 10.046 10.046 0 0 1-3.286-2.171v.007h.005Z" fill="#FFFAF0"/>
  <path d="M50.666 21.052C50.594 9.849 41.44.79 30.255.858 19.07.927 10.017 10.098 10.09 21.305l40.576-.249v-.004Z" fill="#FF843D"/>
  <path d="M117.591 24.455c-.785 4.052-4.163 6.606-9.156 6.606-5.853 0-10.097-3.973-10.097-10.027 0-6.485 4.481-10.422 9.901-10.422 4.834 0 9.315 3.067 9.315 10.107 0 .474-.037.907-.079 1.455h-14.153c.195 2.835 2.041 4.876 5.109 4.876 2.199 0 3.772-.907 4.322-2.595h4.838Zm-14.228-5.663h9.394c-.116-2.438-1.926-4.17-4.518-4.17-2.591 0-4.517 1.81-4.871 4.17h-.005Zm37.967-3.816v9.674c0 1.102.275 2.438 2.633 2.438a8.205 8.205 0 0 0 1.926-.275v3.815a15.38 15.38 0 0 1-3.456.433c-5.5 0-6.133-3.578-6.133-5.742V14.976h-8.254v9.674c0 1.102.275 2.438 2.633 2.438a8.155 8.155 0 0 0 1.926-.275v3.815a15.366 15.366 0 0 1-3.456.433c-5.504 0-6.132-3.578-6.132-5.742V14.976h-4.209v-3.973h1.336c2.396 0 3.341-.865 3.341-2.986v-2.36h4.56v5.346h5.383c2.396 0 3.341-.865 3.341-2.986v-2.36h4.559v5.346h5.147v3.973h-5.145Zm28.14 5.826c0 6.253-3.969 10.264-9.236 10.264-3.066 0-4.912-1.457-5.857-2.713h-.354l-.433 2.322h-4.085V2.749h5.03v10.104c1.06-1.18 3.024-2.241 5.699-2.241 5.147 0 9.236 3.774 9.236 10.191v-.001Zm-5.034 0c0-3.458-2.005-5.82-4.993-5.82-2.987 0-4.914 2.354-4.914 5.82s1.927 5.9 4.914 5.9c2.988 0 4.993-2.365 4.993-5.9Zm8.096-15.346c0-1.73 1.451-3.066 3.103-3.066.807.007 1.579.33 2.15.902a3.045 3.045 0 0 1 .874 2.166c0 1.614-1.377 3.028-3.024 3.028s-3.103-1.414-3.103-3.03Zm.591 5.547h5.03v19.663h-5.03V11.003Zm9.393-8.254h5.03V30.67h-5.03V2.75ZM75.6 11.003h4.9l.46 2.322h.335c1.256-1.536 3.015-2.713 6.155-2.713 4.984 0 8.166 2.987 8.166 8.138v11.916h-5.361V19.774c0-3.225-1.969-4.798-4.481-4.798-2.512 0-4.815 1.535-4.815 5.035v10.655H75.6V11.003Z" fill="#FFFAF0"/>
</svg>
