<svg width="88" height="38" viewBox="0 0 88 38" fill="none" xmlns="http://www.w3.org/2000/svg">
<path d="M61.0145 3.39203H60.9927C57.5775 3.39203 55.7634 5.50347 55.7634 8.9172L55.7417 15.6795H58.7732V6.27241H63.1913V15.6795H66.202V8.9172C66.202 5.48275 64.4517 3.39203 61.0145 3.39203Z" fill="white"/>
<path d="M49.3165 3.39203C46.0077 3.39203 43.8731 5.73881 43.8731 9.55688C43.8731 13.4396 45.9435 15.9783 49.3589 15.9783C51.2802 15.9783 53.6279 15.3167 54.3116 12.33L51.6 11.5837C51.3012 13.0345 50.4897 13.5244 49.3372 13.5244C47.7499 13.5244 47.0668 12.5522 46.9307 10.3463H54.4181V9.3647C54.4181 5.31203 52.2405 3.39203 49.3165 3.39203ZM51.2357 8.34167H46.9621C47.1762 6.46384 47.9872 5.82392 49.1881 5.82392C50.5974 5.82392 51.2377 6.76259 51.2377 8.10706C51.2377 8.18601 51.2367 8.26396 51.2357 8.34167Z" fill="white"/>
<path d="M75.9363 0V5.69244C75.4194 4.22486 74.1699 3.39203 72.6058 3.39203C69.8731 3.39203 67.6963 5.46104 67.6963 9.68516C67.6963 13.9093 69.8731 16 72.6058 16C74.1699 16 75.4194 15.1541 75.9363 13.6806V15.6795H78.946V0H75.9363ZM73.4384 13.3967C71.6454 13.3967 70.7268 11.989 70.7268 9.68516C70.7268 7.38129 71.6454 5.97367 73.4384 5.97367C75.1673 5.97367 75.936 7.50957 75.936 9.68516C75.936 11.8607 75.1673 13.3967 73.4384 13.3967Z" fill="white"/>
<path d="M41.3962 0.747245L38.0319 12.6924L34.608 0.747245H31.3631L35.9531 15.6796H40.1156L44.6411 0.747245H41.3962Z" fill="white"/>
<path d="M14.9258 15.6867H17.9153L17.9155 9.70735H14.9258V15.6867Z" fill="white"/>
<path d="M20.9053 0.747245H11.9358C10.2847 0.747245 8.94604 2.08432 8.94604 3.73395V15.6867H11.9353V15.681H11.9358V10.4541C11.9358 10.3014 11.9437 10.1504 11.9588 10.0014C12.1892 7.75702 14.0988 5.97639 16.4208 5.97639C18.7428 5.97639 20.6524 7.75727 20.8826 10.0019C20.8974 10.1507 20.9055 10.3017 20.9055 10.4544V15.6813H20.906V15.687H23.8953V3.73395C23.8953 2.08432 22.5564 0.747245 20.9053 0.747245Z" fill="white"/>
<path d="M84.9427 33.4441C83.4307 33.4441 83.0347 32.9521 83.0347 31.5961V28.1041H81.9787V26.7241H83.0347V24.9961H84.6547V26.7241H86.1187V28.1041H84.6547V31.4281C84.6547 31.8961 84.8227 32.0641 85.2427 32.0641H86.1187V33.4441H84.9427Z" fill="white"/>
<path d="M79.6686 28.9081C79.6686 28.2121 79.2366 27.9121 78.6006 27.9121C77.8806 27.9121 77.2446 28.3441 76.9566 28.8241L75.9246 27.7681C76.5966 26.9281 77.6646 26.5441 78.7086 26.5441C80.3766 26.5441 81.3006 27.2521 81.3006 28.9681V33.4441H79.6686V32.2321C79.4886 33.0961 78.8646 33.5761 77.8566 33.5761C76.5606 33.5761 75.8286 32.7961 75.8286 31.6201C75.8286 30.4081 76.6206 29.7121 78.2646 29.4121L79.6686 29.1481V28.9081ZM77.4726 31.5121C77.4726 32.0881 77.8686 32.3161 78.3726 32.3161C79.1886 32.3161 79.6686 31.6921 79.6686 30.5401V30.3361L78.4806 30.5641C77.7966 30.7081 77.4726 31.0081 77.4726 31.5121Z" fill="white"/>
<path d="M73.5132 33.4441L71.2812 30.2761V33.4441H69.6612V24.3241H71.2812V29.2801L73.2852 26.7241H75.2652L72.7212 29.7241L75.5652 33.4441H73.5132Z" fill="white"/>
<path d="M66.6026 33.4441V26.7241H68.2226V33.4441H66.6026ZM67.3946 25.8601C66.7946 25.8601 66.3986 25.4401 66.3986 24.9121C66.3986 24.4081 66.7946 23.9761 67.3946 23.9761C67.9946 23.9761 68.4026 24.4081 68.4026 24.9121C68.4026 25.4401 67.9946 25.8601 67.3946 25.8601Z" fill="white"/>
<path d="M63.567 28.9081C63.567 28.2121 63.135 27.9121 62.499 27.9121C61.779 27.9121 61.143 28.3441 60.855 28.8241L59.823 27.7681C60.495 26.9281 61.563 26.5441 62.607 26.5441C64.275 26.5441 65.199 27.2521 65.199 28.9681V33.4441H63.567V32.2321C63.387 33.0961 62.763 33.5761 61.755 33.5761C60.459 33.5761 59.727 32.7961 59.727 31.6201C59.727 30.4081 60.519 29.7121 62.163 29.4121L63.567 29.1481V28.9081ZM61.371 31.5121C61.371 32.0881 61.767 32.3161 62.271 32.3161C63.087 32.3161 63.567 31.6921 63.567 30.5401V30.3361L62.379 30.5641C61.695 30.7081 61.371 31.0081 61.371 31.5121Z" fill="white"/>
<path d="M56.2788 33.6241C55.3908 33.6241 54.6708 33.1441 54.3708 32.3281V36.0241H52.7508V26.7241H54.3708V27.8401C54.6828 27.0001 55.3908 26.5441 56.2788 26.5441C57.8028 26.5441 59.0268 27.7081 59.0268 30.0721C59.0268 32.4481 57.8028 33.6241 56.2788 33.6241ZM55.8348 32.2081C56.8548 32.2081 57.3948 31.4041 57.3948 30.0721C57.3948 28.7521 56.8548 27.9481 55.8348 27.9481C54.8268 27.9481 54.3828 28.8361 54.3828 30.0721C54.3828 31.3201 54.8268 32.2081 55.8348 32.2081Z" fill="white"/>
<path d="M49.7272 28.9081C49.7272 28.2121 49.2952 27.9121 48.6592 27.9121C47.9392 27.9121 47.3032 28.3441 47.0152 28.8241L45.9832 27.7681C46.6552 26.9281 47.7232 26.5441 48.7672 26.5441C50.4352 26.5441 51.3592 27.2521 51.3592 28.9681V33.4441H49.7272V32.2321C49.5472 33.0961 48.9232 33.5761 47.9152 33.5761C46.6192 33.5761 45.8872 32.7961 45.8872 31.6201C45.8872 30.4081 46.6792 29.7121 48.3232 29.4121L49.7272 29.1481V28.9081ZM47.5312 31.5121C47.5312 32.0881 47.9272 32.3161 48.4312 32.3161C49.2472 32.3161 49.7272 31.6921 49.7272 30.5401V30.3361L48.5392 30.5641C47.8552 30.7081 47.5312 31.0081 47.5312 31.5121Z" fill="white"/>
<path d="M43.2773 29.448C43.2773 28.464 42.8573 27.96 42.0053 27.96C41.1293 27.96 40.6133 28.536 40.6133 29.64V33.444H38.9933V26.724H40.6133V27.912C40.8293 27.072 41.5853 26.58 42.6173 26.58C44.1773 26.58 44.8973 27.54 44.8973 29.136V33.444H43.2773V29.448Z" fill="white"/>
<path d="M35.9347 33.4441V26.7241H37.5547V33.4441H35.9347ZM36.7267 25.8601C36.1267 25.8601 35.7307 25.4401 35.7307 24.9121C35.7307 24.4081 36.1267 23.9761 36.7267 23.9761C37.3267 23.9761 37.7347 24.4081 37.7347 24.9121C37.7347 25.4401 37.3267 25.8601 36.7267 25.8601Z" fill="white"/>
<path d="M33.1304 33.4441L30.8984 30.2761V33.4441H29.2784V24.3241H30.8984V29.2801L32.9024 26.7241H34.8824L32.3384 29.7241L35.1824 33.4441H33.1304Z" fill="white"/>
<path d="M26.4742 33.4441L24.2422 30.2761V33.4441H22.6222V24.3241H24.2422V29.2801L26.2462 26.7241H28.2262L25.6822 29.7241L28.5262 33.4441H26.4742Z" fill="white"/>
<path d="M18.005 33.444V26.724H19.625V27.912C19.793 27.096 20.261 26.688 21.161 26.688H21.761V28.26H21.029C19.997 28.26 19.625 28.728 19.625 30.096V33.444H18.005Z" fill="white"/>
<path d="M14.9694 28.9081C14.9694 28.2121 14.5374 27.9121 13.9014 27.9121C13.1814 27.9121 12.5454 28.3441 12.2574 28.8241L11.2254 27.7681C11.8974 26.9281 12.9654 26.5441 14.0094 26.5441C15.6774 26.5441 16.6014 27.2521 16.6014 28.9681V33.4441H14.9694V32.2321C14.7894 33.0961 14.1654 33.5761 13.1574 33.5761C11.8614 33.5761 11.1294 32.7961 11.1294 31.6201C11.1294 30.4081 11.9214 29.7121 13.5654 29.4121L14.9694 29.1481V28.9081ZM12.7734 31.5121C12.7734 32.0881 13.1694 32.3161 13.6734 32.3161C14.4894 32.3161 14.9694 31.6921 14.9694 30.5401V30.3361L13.7814 30.5641C13.0974 30.7081 12.7734 31.0081 12.7734 31.5121Z" fill="white"/>
<path d="M1.8811 33.4441V25.0441H4.4011L5.9611 29.7721L7.5211 25.0441H10.0531V33.4441H8.4211V27.1441L6.7171 32.0881H5.1931L3.5251 27.2281V33.4441H1.8811Z" fill="white"/>
</svg>
