<svg width="32" height="32" viewBox="0 0 32 32" fill="none" xmlns="http://www.w3.org/2000/svg">
<path d="M29.8866 6.70153C29.3547 5.66451 28.5848 4.76713 27.6395 4.08227C26.6942 3.3974 25.6002 2.94436 24.4462 2.75994C23.2923 2.57552 22.1109 2.66492 20.9982 3.02087C19.8854 3.37682 18.8725 3.98929 18.0419 4.80855L16.0002 6.66515L13.9585 4.80855C13.1275 3.98944 12.1144 3.37719 11.0015 3.02153C9.8885 2.66587 8.70705 2.57682 7.55306 2.76163C6.39907 2.94643 5.3051 3.39988 4.35999 4.08513C3.41489 4.77038 2.6453 5.66812 2.11375 6.70543C1.41987 8.07538 1.18021 9.62944 1.42927 11.1438C1.67832 12.6582 2.40325 14.0547 3.49965 15.1322L16.0002 27.9998L28.5007 15.1283C29.5971 14.0508 30.322 12.6543 30.5711 11.1399C30.8201 9.62554 30.5805 8.07148 29.8866 6.70153Z" stroke="#47474F" stroke-width="2" stroke-linecap="round" stroke-linejoin="round"/>
<path d="M8.00049 13.3333H12.0005L14.4374 18.2072C14.534 18.4004 14.8083 18.4046 14.9107 18.2143L19.1116 10.4128C19.2096 10.2307 19.4686 10.2247 19.575 10.402L21.3338 13.3333H25.3338" stroke="#47474F" stroke-width="2" stroke-linecap="round" stroke-linejoin="round"/>
</svg>
