<svg width="24" height="24" viewBox="0 0 24 24" fill="none" xmlns="http://www.w3.org/2000/svg">
  <path d="M12 2.25a.75.75 0 0 0 0 1.5v-1.5Zm-8.903 8.422.742.11-.742-.11Zm1.51-3.806-.615-.428.615.428Zm2.298-1.46a.75.75 0 0 0-1.06-1.061l1.06 1.06ZM13.5 6.75l.736.147a.75.75 0 0 0-1.284-.659l.548.512Zm-.75 3.75-.735-.147a.75.75 0 0 0 .472.85l.263-.703Zm3 1.125.549.512a.75.75 0 0 0-.285-1.214l-.264.702ZM10.5 17.25l-.735-.147a.75.75 0 0 0 1.284.659l-.549-.512Zm.75-3.75.736.147a.75.75 0 0 0-.473-.85l-.263.703Zm-3-1.125-.548-.512a.75.75 0 0 0 .285 1.214l.263-.702ZM3.75 8.25l-.595.457a.75.75 0 0 0 .285.226l.31-.683Zm4.692-5.91.738-.13a.75.75 0 0 0-.78-.62l.042.75ZM21 12h-.75A8.25 8.25 0 0 1 12 20.25v1.5c5.385 0 9.75-4.365 9.75-9.75H21Zm-9 9v-.75A8.25 8.25 0 0 1 3.75 12h-1.5c0 5.385 4.365 9.75 9.75 9.75V21Zm0-18v.75A8.25 8.25 0 0 1 20.25 12h1.5c0-5.385-4.365-9.75-9.75-9.75V3Zm-9 9h.75c0-.414.03-.821.09-1.218l-.743-.11-.741-.11c-.07.47-.106.95-.106 1.438H3Zm.097-1.328.742.11a8.2 8.2 0 0 1 1.384-3.488l-.616-.428-.615-.428a9.7 9.7 0 0 0-1.636 4.124l.741.11Zm1.51-3.806.616.428c.084-.12.582-.788 1.683-1.889l-.53-.53-.531-.53c-1.15 1.149-1.709 1.884-1.853 2.093l.615.428ZM13.5 6.75l-.735-.147-.75 3.75.735.147.736.147.75-3.75-.736-.147Zm-.75 3.75-.263.702 3 1.125.263-.702.264-.702-3-1.125-.264.702Zm3 1.125-.548-.512-5.25 5.625.548.512.549.512 5.25-5.625-.549-.512ZM10.5 17.25l.736.147.75-3.75-.736-.147-.735-.147-.75 3.75.735.147Zm.75-3.75.264-.702-3-1.125-.264.702-.263.702 3 1.125.263-.702Zm-3-1.125.548.512 5.25-5.625-.548-.512-.548-.512-5.25 5.625.548.512ZM3.75 8.25l.595-.457c-.818-1.065-.789-2.107-.184-2.927.646-.877 2.066-1.652 4.322-1.778l-.041-.749-.042-.748c-2.517.14-4.441 1.021-5.446 2.384-1.046 1.42-.976 3.2.201 4.732l.595-.457Zm4.692-5.91-.74.129c.39 2.227-.042 3.785-.749 4.613-.662.775-1.67 1.04-2.893.485l-.31.683-.31.683c1.76.798 3.51.464 4.654-.877 1.1-1.288 1.521-3.362 1.086-5.846l-.738.13Z" fill="#1B1B1F"/>
</svg>
