<svg width="32" height="32" viewBox="0 0 32 32" fill="none" xmlns="http://www.w3.org/2000/svg">
<path d="M16.0005 14C18.2096 14 20.0005 12.2091 20.0005 10C20.0005 7.79086 18.2096 6 16.0005 6C13.7913 6 12.0005 7.79086 12.0005 10C12.0005 12.2091 13.7913 14 16.0005 14Z" stroke="#47474F" stroke-width="2" stroke-linecap="round" stroke-linejoin="round"/>
<path d="M16.0005 1C18.3874 1 20.6766 1.94821 22.3644 3.63604C24.0523 5.32387 25.0005 7.61305 25.0005 10C25.0005 14.3347 18.1578 24.036 16.4058 26.4493C16.3591 26.513 16.2981 26.5648 16.2277 26.6004C16.1573 26.6361 16.0794 26.6547 16.0005 26.6547C15.9215 26.6547 15.8437 26.6361 15.7733 26.6004C15.7029 26.5648 15.6418 26.513 15.5952 26.4493C13.8432 24.036 7.00049 14.3347 7.00049 10C7.00049 7.61305 7.9487 5.32387 9.63653 3.63604C11.3244 1.94821 13.6135 1 16.0005 1V1Z" stroke="#47474F" stroke-width="2" stroke-linecap="round" stroke-linejoin="round"/>
<path d="M24.1759 23.7529C27.7037 24.4784 30.0005 25.6627 30.0005 26.9999C30.0005 29.2092 23.7338 30.9999 16.0005 30.9999C8.26715 30.9999 2.00049 29.2092 2.00049 26.9999C2.00049 25.6629 4.29555 24.4792 7.81771 23.7529" stroke="#47474F" stroke-width="2" stroke-linecap="round" stroke-linejoin="round"/>
</svg>
