<svg width="32" height="32" viewBox="0 0 32 32" fill="none" xmlns="http://www.w3.org/2000/svg">
<path d="M16.0007 7.00161C10.6261 6.91094 5.06741 10.6669 1.57275 14.5136C1.20592 14.9208 1.00293 15.4495 1.00293 15.9976C1.00293 16.5457 1.20592 17.0744 1.57275 17.4816C4.99141 21.2469 10.5341 25.0896 16.0007 24.9976C21.4674 25.0896 27.0114 21.2469 30.4327 17.4816C30.7996 17.0744 31.0026 16.5457 31.0026 15.9976C31.0026 15.4495 30.7996 14.9208 30.4327 14.5136C26.9341 10.6669 21.3754 6.91094 16.0007 7.00161Z" stroke="#47474F" stroke-width="2" stroke-linecap="round" stroke-linejoin="round"/>
<path d="M21.0005 16.0001C21.0002 16.989 20.7068 17.9555 20.1572 18.7776C19.6076 19.5997 18.8266 20.2403 17.913 20.6186C16.9993 20.9968 15.994 21.0956 15.0242 20.9025C14.0544 20.7095 13.1636 20.2332 12.4645 19.5338C11.7654 18.8345 11.2893 17.9436 11.0965 16.9737C10.9036 16.0039 11.0027 14.9986 11.3812 14.0851C11.7597 13.1715 12.4006 12.3907 13.2228 11.8413C14.045 11.292 15.0116 10.9988 16.0005 10.9988C16.6573 10.9986 17.3076 11.1279 17.9144 11.3792C18.5212 11.6304 19.0725 11.9989 19.5369 12.4633C20.0012 12.9278 20.3695 13.4792 20.6206 14.0861C20.8718 14.6929 21.0008 15.3433 21.0005 16.0001Z" stroke="#47474F" stroke-width="2" stroke-linecap="round" stroke-linejoin="round"/>
</svg>
