<svg width="24" height="24" viewBox="0 0 24 24" fill="none" xmlns="http://www.w3.org/2000/svg">
  <path d="M16.812 6.375H7.25M12 17.625V6.375m6.187 11.25H5.812M13.375 3.75h-2.75m2.75 16.5h-2.75M19.5 9h-1.938a.75.75 0 0 1-.75-.75V4.5a.75.75 0 0 1 .75-.75H19.5a.75.75 0 0 1 .75.75v3.75a.75.75 0 0 1-.75.75Zm-13 0h-2a.75.75 0 0 1-.75-.75V4.5a.75.75 0 0 1 .75-.75h2a.75.75 0 0 1 .75.75v3.75A.75.75 0 0 1 6.5 9Z" stroke="#1B1B1F" stroke-width="1.5" stroke-linecap="round" stroke-linejoin="round"/>
</svg>
