<svg width="24" height="24" viewBox="0 0 24 24" fill="none" xmlns="http://www.w3.org/2000/svg"><path d="M16.667 6.545H7.394M12 17.455V6.544m6 10.91H6M13.333 4h-2.666m2.666 16h-2.666m8.606-10.91h-1.88a.727.727 0 0 1-.726-.726V4.727c0-.401.325-.727.727-.727h1.879c.401 0 .727.326.727.727v3.637a.727.727 0 0 1-.727.727Zm-12.606 0h-1.94A.727.727 0 0 1 4 8.365V4.727C4 4.326 4.326 4 4.727 4h1.94c.401 0 .727.326.727.727v3.637a.727.727 0 0 1-.727.727Z" stroke="#1B1B1F" stroke-width="1.5" stroke-linecap="round" stroke-linejoin="round"/></svg>