<svg width="24" height="24" viewBox="0 0 24 24" fill="none" xmlns="http://www.w3.org/2000/svg">
  <path d="M3.75 4.5H3h.75Zm0 4.5H3c0 .414.336.75.75.75V9Zm0 10.5a.75.75 0 0 0 0 1.5v-1.5Zm3.75-2.25a.75.75 0 0 0 1.5 0H7.5Zm-3-13.5v.75h15V3h-15v.75Zm15 0v.75H21A1.5 1.5 0 0 0 19.5 3v.75Zm.75.75h-.75v15H21v-15h-.75Zm0 15h-.75V21a1.5 1.5 0 0 0 1.5-1.5h-.75Zm-16.5-15h.75V3A1.5 1.5 0 0 0 3 4.5h.75Zm0 0H3V9h1.5V4.5h-.75Zm7.5 4.5v.75c.131 0 .325.073.5.25.177.175.25.369.25.5h1.5c0-.619-.302-1.175-.688-1.562-.387-.386-.943-.688-1.562-.688V9Zm8.25 11.25v-.75h-6.75V21h6.75v-.75Zm-6.75 0v-.75h-9V21h9v-.75Zm0-9.75H12v9.75h1.5V10.5h-.75Zm-9-1.5v.75h4.5v-1.5h-4.5V9Zm4.5 0v.75h3v-1.5h-3V9Zm0 0H7.5v2.25H9V9h-.75Zm0 2.25H7.5v5.25H9v-5.25h-.75Zm0 5.25H7.5v.75H9v-.75h-.75Zm0-5.25v-.75h-1.5V12h1.5v-.75Zm-1.5 0v-.75c-.17 0-.36-.001-.516.016a1.093 1.093 0 0 0-.67.297c-.233.233-.28.52-.298.67-.017.157-.016.348-.016.517h1.5v-.129a6.541 6.541 0 0 1 .004-.179.784.784 0 0 1 .003-.043c.001-.008.002-.009 0-.003a.475.475 0 0 1-.088.178.556.556 0 0 1-.232.171.316.316 0 0 1-.042.012c-.005.002-.005.001.004 0a.867.867 0 0 1 .119-.006h.103L6.75 12v-.75ZM6 12h-.75v3.75h1.5V12H6Zm0 3.75h-.75c0 .17-.001.36.016.516.017.152.065.438.297.67.233.233.52.28.67.298.157.017.348.016.517.016v-1.5h-.129a6.008 6.008 0 0 1-.222-.007c-.009-.001-.009-.002-.004 0a.479.479 0 0 1 .229.133.556.556 0 0 1 .121.187.313.313 0 0 1 .012.042c.002.005.001.005 0-.004a2.326 2.326 0 0 1-.007-.222v-.129H6Zm.75.75v.75h1.5v-1.5h-1.5v.75Zm1.5 0v.75h1.5v-1.5h-1.5v.75Zm1.5 0v.75c.17 0 .36.001.516-.016.152-.017.438-.065.67-.297.233-.233.28-.52.298-.67.017-.157.016-.348.016-.517h-1.5v.129a6.541 6.541 0 0 1-.004.179.784.784 0 0 1-.003.043c-.001.009-.002.009 0 .004a.475.475 0 0 1 .088-.178.556.556 0 0 1 .232-.172.315.315 0 0 1 .041-.012c.006-.002.006-.001-.003 0a.868.868 0 0 1-.119.006H9.88l-.129.001v.75Zm.75-.75h.75V12h-1.5v3.75h.75Zm0-3.75h.75c0-.17.001-.36-.016-.516a1.093 1.093 0 0 0-.297-.67 1.093 1.093 0 0 0-.67-.298c-.157-.017-.348-.016-.517-.016V12a25.922 25.922 0 0 1 .308.004l.043.003c.008.001.009.002.003 0a.477.477 0 0 1-.229-.133.556.556 0 0 1-.12-.187.31.31 0 0 1-.012-.041c-.002-.006-.001-.006 0 .003a2.326 2.326 0 0 1 .007.222V12h.75Zm-.75-.75v-.75h-1.5V12h1.5v-.75Zm8.25 4.5h-.75a.75.75 0 0 1-.75.75V18a2.25 2.25 0 0 0 2.25-2.25H18Zm-1.5 1.5v-.75a.75.75 0 0 1-.75-.75h-1.5A2.25 2.25 0 0 0 16.5 18v-.75Zm-1.5-1.5h.75a.75.75 0 0 1 .75-.75v-1.5a2.25 2.25 0 0 0-2.25 2.25H15Zm1.5-1.5V15a.75.75 0 0 1 .75.75h1.5a2.25 2.25 0 0 0-2.25-2.25v.75Z" fill="#1B1B1F"/>
</svg>
