<svg width="32" height="32" viewBox="0 0 32 32" fill="none" xmlns="http://www.w3.org/2000/svg">
<path d="M1.00049 19.0054V31.0054" stroke="#47474F" stroke-width="2" stroke-linecap="round" stroke-linejoin="round"/>
<path d="M1.00049 21.0054H8.00049C9.06135 21.0054 10.0788 21.4268 10.8289 22.1769C11.5791 22.9271 12.0005 23.9445 12.0005 25.0054H17.0005C18.0614 25.0054 19.0788 25.4268 19.8289 26.1769C20.5791 26.9271 21.0005 27.9445 21.0005 29.0054H1.00049" stroke="#47474F" stroke-width="2" stroke-linecap="round" stroke-linejoin="round"/>
<path d="M8.00049 25.0054H12.0005" stroke="#47474F" stroke-width="2" stroke-linecap="round" stroke-linejoin="round"/>
<path d="M3.00049 15.0054H31.0005" stroke="#47474F" stroke-width="2" stroke-linecap="round" stroke-linejoin="round"/>
<path d="M17.0005 1.00537V3.00537" stroke="#47474F" stroke-width="2" stroke-linecap="round" stroke-linejoin="round"/>
<path d="M29.0005 15.0054C29.0005 11.8228 27.7362 8.77053 25.4858 6.52009C23.2353 4.26965 20.1831 3.00537 17.0005 3.00537C13.8179 3.00537 10.7656 4.26965 8.51521 6.52009C6.26477 8.77053 5.00049 11.8228 5.00049 15.0054" stroke="#47474F" stroke-width="2" stroke-linecap="round" stroke-linejoin="round"/>
<path d="M15.0005 19.0053H24.5338C25.2751 19.0048 26.0016 18.7983 26.6324 18.4089C27.2631 18.0195 27.7732 17.4624 28.1058 16.8L28.9491 15.1084" stroke="#47474F" stroke-width="2" stroke-linecap="round" stroke-linejoin="round"/>
</svg>
