<svg width="32" height="32" viewBox="0 0 32 32" fill="none" xmlns="http://www.w3.org/2000/svg">
<path d="M26 14.9268C27.933 14.9268 29.5 13.3598 29.5 11.4268C29.5 9.49376 27.933 7.92676 26 7.92676C24.067 7.92676 22.5 9.49376 22.5 11.4268C22.5 13.3598 24.067 14.9268 26 14.9268Z" stroke="#47474F" stroke-width="2" stroke-linecap="round" stroke-linejoin="round"/>
<path d="M9.83838 18.6667L14.9464 15.4667L11.1997 11.192C10.7971 10.732 10.5053 10.1857 10.3467 9.59531C10.1881 9.00489 10.167 8.38597 10.285 7.7861C10.4029 7.18624 10.6568 6.62139 11.0271 6.13494C11.3974 5.6485 11.8742 5.25341 12.421 4.98001L18.105 2.13335C18.3402 2.01343 18.5967 1.94125 18.8599 1.92096C19.1231 1.90067 19.3877 1.93267 19.6384 2.01513C19.8892 2.09758 20.1211 2.22886 20.3209 2.40139C20.5207 2.57391 20.6843 2.78427 20.8024 3.02035C20.9205 3.25642 20.9906 3.51353 21.0089 3.77685C21.0271 4.04018 20.993 4.30451 20.9086 4.5546C20.8242 4.8047 20.6912 5.03561 20.5171 5.23403C20.343 5.43245 20.1314 5.59445 19.8944 5.71068L15.361 7.97735C15.2251 8.04684 15.1068 8.14651 15.0153 8.26873C14.9237 8.39095 14.8614 8.53248 14.8329 8.68251C14.8045 8.83253 14.8107 8.98708 14.8512 9.13432C14.8917 9.28155 14.9653 9.41759 15.0664 9.53201L22.1995 17.684" stroke="#47474F" stroke-width="2" stroke-linecap="round" stroke-linejoin="round"/>
<path d="M31.0001 22.6665C29.0001 22.6665 28.0001 24.6665 26.0001 24.6665C24.0001 24.6665 23.0001 22.6665 21.0001 22.6665C19.0001 22.6665 18.0001 24.6665 16.0001 24.6665C14.0001 24.6665 13.0001 22.6665 11.0001 22.6665C9.0001 22.6665 8.0001 24.6665 6.0001 24.6665C4.01231 24.6665 3.01235 22.6908 1.03662 22.6667" stroke="#47474F" stroke-width="2" stroke-linecap="round" stroke-linejoin="round"/>
<path d="M1 28C3 28 4 30 6 30C8 30 9 28 11 28C13 28 14 30 16 30C18 30 19 28 21 28C23 28 24 30 26 30C27.9895 30 28.9895 28.0209 30.9686 28.0002" stroke="#47474F" stroke-width="2" stroke-linecap="round" stroke-linejoin="round"/>
</svg>
