<svg width="155" height="33" viewBox="0 0 155 33" fill="none" xmlns="http://www.w3.org/2000/svg">
<g clip-path="url(#clip0_15001_5902)">
<path d="M24.6049 31.5884H30.246V10.7399H24.6049V31.5884Z" fill="#FF4B00"/>
<mask id="mask0_15001_5902" style="mask-type:luminance" maskUnits="userSpaceOnUse" x="23" y="0" width="9" height="8">
<path fill-rule="evenodd" clip-rule="evenodd" d="M23.5701 0.0775146H31.387V7.96937H23.5701V0.0775146Z" fill="white"/>
</mask>
<g mask="url(#mask0_15001_5902)">
<path d="M27.4571 0.0769043C26.392 0.0769043 25.4684 0.464239 24.7111 1.22876C23.9538 1.99421 23.5701 2.94134 23.5701 4.04432C23.5701 5.11963 23.9538 6.05293 24.7111 6.81653C25.4684 7.58106 26.392 7.96931 27.4571 7.96931C28.5506 7.96931 29.4887 7.58106 30.246 6.81653C31.0033 6.052 31.387 5.11963 31.387 4.04432C31.387 2.94134 31.0033 1.99513 30.246 1.22876C29.4887 0.464239 28.5497 0.0769043 27.4571 0.0769043Z" fill="#FF4B00"/>
</g>
<mask id="mask1_15001_5902" style="mask-type:luminance" maskUnits="userSpaceOnUse" x="0" y="0" width="155" height="33">
<path fill-rule="evenodd" clip-rule="evenodd" d="M0 32.0732H154.797V0.0775146H0V32.0732Z" fill="white"/>
</mask>
<g mask="url(#mask1_15001_5902)">
<path d="M34.7845 31.5642H40.4154V0.798706H34.7845V31.5642Z" fill="#FF4B00"/>
</g>
<mask id="mask2_15001_5902" style="mask-type:luminance" maskUnits="userSpaceOnUse" x="0" y="0" width="155" height="33">
<path fill-rule="evenodd" clip-rule="evenodd" d="M0 32.0732H154.797V0.0775146H0V32.0732Z" fill="white"/>
</mask>
<g mask="url(#mask2_15001_5902)">
<path d="M108.429 21.334C107.888 20.8784 107.266 20.4948 106.579 20.1942C105.925 19.9073 105.259 19.6353 104.577 19.3761C103.677 19.0349 102.89 18.7444 102.214 18.5037C101.564 18.2713 101.014 18.0491 100.581 17.8443C100.203 17.6663 99.9239 17.4708 99.7512 17.2615C99.6078 17.0899 99.5384 16.8612 99.5384 16.5633C99.5384 16.0321 99.7247 15.6605 100.125 15.3912C100.581 15.0841 101.153 14.9292 101.829 14.9292C102.79 14.9292 103.472 15.1477 103.856 15.5803C104.259 16.0349 104.456 16.6482 104.456 17.4533V17.9845H109.963V17.4533C109.963 16.4167 109.748 15.4401 109.322 14.5501C108.9 13.6694 108.32 12.8993 107.597 12.2602C106.88 11.6258 106.026 11.1213 105.06 10.7616C103.167 10.0561 100.872 10.0829 98.983 10.5993C98.0411 10.8548 97.1989 11.2532 96.4754 11.7853C95.7446 12.3239 95.1572 12.9888 94.7306 13.7579C94.2948 14.54 94.0738 15.4558 94.0738 16.4785C94.0738 17.3906 94.1989 18.1819 94.4447 18.8311C94.6968 19.4979 95.0668 20.065 95.5445 20.5151C95.9976 20.943 96.5384 21.3202 97.155 21.6393C97.7452 21.9445 98.3928 22.2313 99.0789 22.4905C100.123 22.8907 101.026 23.2172 101.789 23.4736C102.518 23.7189 103.136 23.9614 103.624 24.1938C104.061 24.4023 104.387 24.6236 104.592 24.8523C104.755 25.0377 104.836 25.2821 104.836 25.6021C104.836 26.4607 104.463 26.765 104.184 26.919C103.649 27.2141 102.969 27.3645 102.167 27.3645C101.19 27.3645 100.382 27.1339 99.7631 26.6802C99.1876 26.2578 98.9071 25.5025 98.9071 24.3709V23.8406H93.4014V24.3709C93.4014 25.6085 93.6399 26.7226 94.1067 27.6817C94.5744 28.639 95.2157 29.4561 96.0131 30.1081C96.8024 30.7564 97.7159 31.2526 98.7253 31.5799C99.7247 31.9073 100.796 32.0733 101.914 32.0733C103.011 32.0733 104.073 31.947 105.068 31.6971C106.075 31.4425 106.974 31.0451 107.738 30.5157C108.518 29.9753 109.139 29.2772 109.585 28.4416C110.031 27.6033 110.257 26.6184 110.257 25.5172C110.257 24.5332 110.09 23.6958 109.761 23.0309C109.435 22.3752 108.987 21.8034 108.429 21.334Z" fill="#FF4B00"/>
</g>
<mask id="mask3_15001_5902" style="mask-type:luminance" maskUnits="userSpaceOnUse" x="0" y="0" width="155" height="33">
<path fill-rule="evenodd" clip-rule="evenodd" d="M0 32.0732H154.797V0.0775146H0V32.0732Z" fill="white"/>
</mask>
<g mask="url(#mask3_15001_5902)">
<path d="M150.952 10.9955C151.996 11.5138 152.833 12.2294 153.443 13.1222C153.961 13.9208 154.319 14.8108 154.514 15.7791C154.702 16.7152 154.797 17.8928 154.797 19.2789V31.5639H149.165V20.8071C149.165 19.9992 149.098 19.2328 148.964 18.5292C148.837 17.8633 148.628 17.2879 148.341 16.8221C148.064 16.3721 147.698 16.0207 147.226 15.7514C146.763 15.4867 146.164 15.353 145.445 15.353C144.02 15.353 142.999 15.84 142.327 16.8406C141.621 17.891 141.263 19.2245 141.263 20.8071V31.5639H135.631V10.7281H141.263V12.8031C141.263 12.8031 142.695 10.219 147.127 10.219C149.592 10.219 150.952 10.9955 150.952 10.9955Z" fill="#FF4B00"/>
</g>
<mask id="mask4_15001_5902" style="mask-type:luminance" maskUnits="userSpaceOnUse" x="0" y="0" width="155" height="33">
<path fill-rule="evenodd" clip-rule="evenodd" d="M0 32.0732H154.797V0.0775146H0V32.0732Z" fill="white"/>
</mask>
<g mask="url(#mask4_15001_5902)">
<path fill-rule="evenodd" clip-rule="evenodd" d="M18.6052 17.2403C19.2053 17.8315 19.7205 18.5803 20.1389 19.4666C20.5628 20.3685 20.7766 21.4346 20.7766 22.6372C20.7766 23.4423 20.6441 24.3645 20.3819 25.3771C20.1124 26.4211 19.5981 27.4152 18.8536 28.331C18.1064 29.2523 17.0549 30.0288 15.7285 30.6384C14.4067 31.2462 12.6811 31.5542 10.5983 31.5542H-0.000244141V0.816406H10.5572C12.6354 0.816406 14.3464 1.1106 15.639 1.68883C16.9362 2.26891 17.9657 2.99931 18.6992 3.86067C19.4346 4.7248 19.9316 5.67469 20.1736 6.68453C20.4066 7.65471 20.5253 8.55203 20.5253 9.35253C20.5253 10.3485 20.3563 11.2652 20.0229 12.074C19.6941 12.8736 19.2601 13.58 18.734 14.1721C18.2087 14.7632 17.6067 15.2548 16.9462 15.6338C16.8229 15.7048 16.6996 15.7721 16.5753 15.8348C16.5949 15.8436 16.6148 15.8526 16.6346 15.8615C16.6545 15.8706 16.6744 15.8796 16.6941 15.8883C17.3637 16.1954 18.0059 16.6501 18.6052 17.2403ZM14.519 10.9074C14.4259 11.2966 14.234 11.6701 13.9481 12.0168C13.6631 12.3664 13.2483 12.6698 12.7176 12.9188C12.185 13.1687 11.4579 13.296 10.5572 13.296H5.85077V6.21512H10.5572C11.457 6.21512 12.185 6.34146 12.7176 6.59138C13.2456 6.83946 13.6585 7.14841 13.9435 7.50715C14.2313 7.87051 14.4249 8.25324 14.519 8.64518C14.6213 9.07125 14.6734 9.45213 14.6734 9.77675C14.6734 10.1005 14.6213 10.4813 14.519 10.9074ZM14.1957 24.9059C13.9125 25.2637 13.5023 25.5634 12.9789 25.7977C12.4445 26.0365 11.7137 26.1564 10.8084 26.1564H5.85077V18.6938H10.8504C11.6881 18.6938 12.3723 18.8312 12.8848 19.1014C13.4091 19.3799 13.8293 19.7137 14.1335 20.0946C14.4368 20.4736 14.6451 20.8803 14.752 21.3C14.8671 21.7528 14.9255 22.1447 14.9255 22.4675C14.9255 22.8502 14.8726 23.2754 14.7703 23.7328C14.6752 24.1496 14.4825 24.5443 14.1957 24.9059Z" fill="#FF4B00"/>
</g>
<mask id="mask5_15001_5902" style="mask-type:luminance" maskUnits="userSpaceOnUse" x="0" y="0" width="155" height="33">
<path fill-rule="evenodd" clip-rule="evenodd" d="M0 32.0732H154.797V0.0775146H0V32.0732Z" fill="white"/>
</mask>
<g mask="url(#mask5_15001_5902)">
<path fill-rule="evenodd" clip-rule="evenodd" d="M84.6161 12.8037V10.7287H90.2478V21.1461V31.5636H84.6161V29.4886C84.0634 30.349 83.0439 31.0969 81.8162 31.5636C80.9767 31.8827 80.0421 32.0727 79.0893 32.0727C77.9064 32.0727 76.7873 31.9011 75.7487 31.5636C75.4244 31.4585 75.1065 31.3367 74.7986 31.2002C73.5069 30.622 72.3806 29.816 71.4524 28.8043C70.5298 27.7991 69.8017 26.6223 69.2892 25.3072C68.7768 23.994 68.5173 22.594 68.5173 21.1461C68.5173 19.6982 68.7768 18.2983 69.2892 16.9841C69.8017 15.67 70.5298 14.4932 71.4524 13.487C72.3806 12.4763 73.5069 11.6703 74.7986 11.092C75.1065 10.9546 75.4244 10.8338 75.7487 10.7287C76.7873 10.3911 77.9064 10.2196 79.0893 10.2196C80.0421 10.2196 80.9767 10.4087 81.8162 10.7287C83.0439 11.1953 84.0634 11.9432 84.6161 12.8037ZM83.1545 25.2048C83.6121 24.6921 83.9739 24.0779 84.2287 23.3807C84.4873 22.6798 84.6161 21.9273 84.6161 21.1461C84.6161 20.365 84.4873 19.6125 84.2287 18.9107C83.9739 18.2135 83.6121 17.6002 83.1545 17.0874C82.6977 16.5765 82.1395 16.1615 81.4919 15.8544C80.8515 15.5491 80.1289 15.3951 79.3415 15.3951C78.5549 15.3951 77.8388 15.5491 77.2139 15.8535C76.579 16.1597 76.0264 16.5756 75.5696 17.0874C75.1138 17.5983 74.7602 18.2098 74.5182 18.9033C74.2733 19.6051 74.1491 20.3595 74.1491 21.1461C74.1491 21.9328 74.2733 22.6872 74.5182 23.389C74.7602 24.0825 75.1138 24.693 75.5696 25.2048C76.0264 25.7167 76.579 26.1326 77.2139 26.4388C77.8388 26.7422 78.5549 26.8971 79.3415 26.8971C80.1289 26.8971 80.8515 26.7422 81.4919 26.4379C82.1395 26.1298 82.6977 25.7158 83.1545 25.2048Z" fill="#FF4B00"/>
</g>
<mask id="mask6_15001_5902" style="mask-type:luminance" maskUnits="userSpaceOnUse" x="0" y="0" width="155" height="33">
<path fill-rule="evenodd" clip-rule="evenodd" d="M0 32.0732H154.797V0.0775146H0V32.0732Z" fill="white"/>
</mask>
<g mask="url(#mask6_15001_5902)">
<path fill-rule="evenodd" clip-rule="evenodd" d="M50.5038 31.5639H44.8729V0.798462H50.5038V12.804C51.0565 11.9426 52.0768 11.1956 53.3037 10.7281C54.1432 10.409 55.0786 10.219 56.0314 10.219C57.2135 10.219 58.3325 10.3915 59.3712 10.7281C59.6964 10.8332 60.0134 10.9549 60.3222 11.0923C61.6129 11.6697 62.7393 12.4757 63.6674 13.4874C64.591 14.4926 65.319 15.6703 65.8306 16.9844C66.344 18.2977 66.6034 19.6986 66.6034 21.1455C66.6034 22.5943 66.344 23.9943 65.8306 25.3085C65.319 26.6226 64.591 27.7994 63.6674 28.8046C62.7393 29.8154 61.6129 30.6214 60.3222 31.1996C60.0134 31.338 59.6964 31.4579 59.3712 31.5639C58.3325 31.9014 57.2135 32.073 56.0314 32.073C55.0786 32.073 54.1432 31.883 53.3037 31.5639C52.0768 31.0963 51.0565 30.3493 50.5038 29.4889V31.5639ZM51.9663 17.0877C51.5086 17.6005 51.146 18.2138 50.8911 18.911C50.6326 19.6119 50.5038 20.3653 50.5038 21.1455C50.5038 21.9276 50.6326 22.6792 50.8911 23.381C51.146 24.0782 51.5086 24.6924 51.9663 25.2042C52.4231 25.7152 52.9803 26.1302 53.6289 26.4382C54.2683 26.7425 54.9918 26.8965 55.7793 26.8965C56.5658 26.8965 57.2811 26.7425 57.9068 26.4391C58.5408 26.1329 59.0944 25.717 59.5512 25.2042C60.007 24.6933 60.3605 24.0828 60.6017 23.3884C60.8465 22.6875 60.9717 21.9331 60.9717 21.1455C60.9717 20.3598 60.8465 19.6054 60.6017 18.9036C60.3605 18.2101 60.007 17.5986 59.5512 17.0877C59.0944 16.5759 58.5408 16.16 57.9068 15.8538C57.2811 15.5495 56.5658 15.3955 55.7793 15.3955C54.9918 15.3955 54.2683 15.5495 53.6289 15.8547C52.9803 16.1618 52.4231 16.5768 51.9663 17.0877Z" fill="#FF4B00"/>
</g>
<mask id="mask7_15001_5902" style="mask-type:luminance" maskUnits="userSpaceOnUse" x="0" y="0" width="155" height="33">
<path fill-rule="evenodd" clip-rule="evenodd" d="M0 32.0732H154.797V0.0775146H0V32.0732Z" fill="white"/>
</mask>
<g mask="url(#mask7_15001_5902)">
<path fill-rule="evenodd" clip-rule="evenodd" d="M129.515 12.9362C130.386 13.7875 131.039 14.8111 131.565 15.9279C132.529 17.9716 132.469 20.8674 132.088 22.8705H118.155C118.219 23.5317 118.316 23.9688 118.447 24.3811C118.62 24.9307 118.887 25.4158 119.244 25.8262C119.595 26.2283 120.061 26.552 120.627 26.789C121.205 27.0297 121.944 27.1523 122.823 27.1523C124.006 27.1523 124.852 26.9375 125.339 26.516C125.82 26.101 126.173 25.5966 126.421 25.034H132.151L132.127 25.1806C131.975 26.0909 131.649 26.9753 131.155 27.8053C130.661 28.6362 130.002 29.3777 129.199 30.0094C128.4 30.6365 127.458 31.1428 126.4 31.5136C125.339 31.8852 124.136 32.0733 122.823 32.0733C121.105 32.0733 119.585 31.7875 118.304 31.2231C117.02 30.6559 115.933 29.8692 115.073 28.8806C114.216 27.8975 113.565 26.7198 113.139 25.3826C112.717 24.0638 112.504 22.639 112.504 21.1459C112.504 19.6215 112.734 18.1782 113.184 16.8566C113.639 15.524 114.301 14.3519 115.156 13.3706C116.016 12.382 117.098 11.6009 118.369 11.0484C119.635 10.4979 121.091 10.2194 122.697 10.2194C124.018 10.2194 125.281 10.461 126.446 10.9369C127.612 11.4146 128.643 12.0859 129.515 12.9362ZM122.571 14.7595C121.259 14.7595 120.2 15.121 119.339 15.8625C118.605 16.4942 118.202 17.386 118.114 18.7647H126.775C126.69 17.4496 126.312 16.5707 125.631 15.904C124.844 15.1339 123.841 14.7595 122.571 14.7595Z" fill="#FF4B00"/>
</g>
</g>
<defs>
<clipPath id="clip0_15001_5902">
<rect width="154.831" height="32" fill="white" transform="translate(0 0.0732422)"/>
</clipPath>
</defs>
</svg>
