<svg width="155" height="32" viewBox="0 0 155 32" fill="none" xmlns="http://www.w3.org/2000/svg">
  <g clip-path="url(#a)">
    <path d="M24.605 31.515h5.641V10.667h-5.641v20.848Z" fill="#FF4B00"/>
    <mask id="b" style="mask-type:luminance" maskUnits="userSpaceOnUse" x="23" y="0" width="9" height="8">
      <path fill-rule="evenodd" clip-rule="evenodd" d="M23.57.004h7.817v7.892H23.57V.004Z" fill="#fff"/>
    </mask>
    <g mask="url(#b)">
      <path d="M27.457.004c-1.065 0-1.989.387-2.746 1.152-.757.765-1.14 1.712-1.14 2.815 0 1.076.383 2.009 1.14 2.773.757.764 1.681 1.152 2.746 1.152 1.094 0 2.032-.388 2.789-1.152a3.813 3.813 0 0 0 1.141-2.773c0-1.103-.384-2.049-1.141-2.815C29.489.39 28.55.004 27.457.004Z" fill="#FF4B00"/>
    </g>
    <mask id="c" style="mask-type:luminance" maskUnits="userSpaceOnUse" x="0" y="0" width="155" height="32">
      <path fill-rule="evenodd" clip-rule="evenodd" d="M0 32h154.797V.004H0V32Z" fill="#fff"/>
    </mask>
    <g mask="url(#c)">
      <path d="M34.785 31.491h5.63V.726h-5.63V31.49Z" fill="#FF4B00"/>
    </g>
    <mask id="d" style="mask-type:luminance" maskUnits="userSpaceOnUse" x="0" y="0" width="155" height="32">
      <path fill-rule="evenodd" clip-rule="evenodd" d="M0 32h154.797V.004H0V32Z" fill="#fff"/>
    </mask>
    <g mask="url(#d)">
      <path d="M108.429 21.26a7.588 7.588 0 0 0-1.85-1.139 43.144 43.144 0 0 0-2.002-.818c-.9-.341-1.687-.632-2.363-.872-.65-.233-1.2-.455-1.633-.66-.378-.178-.657-.373-.83-.583-.143-.171-.213-.4-.213-.698 0-.531.187-.903.587-1.172.456-.307 1.028-.462 1.704-.462.961 0 1.643.219 2.027.651.403.455.6 1.068.6 1.873v.531h5.507v-.53a6.666 6.666 0 0 0-.641-2.904 7.174 7.174 0 0 0-1.725-2.29 8.033 8.033 0 0 0-2.537-1.498c-1.893-.706-4.188-.68-6.077-.163a7.53 7.53 0 0 0-2.508 1.186 6.146 6.146 0 0 0-1.744 1.973c-.436.782-.657 1.698-.657 2.72 0 .912.125 1.704.37 2.353a4.443 4.443 0 0 0 1.1 1.684c.454.428.994.805 1.611 1.124.59.305 1.238.592 1.924.851 1.044.4 1.947.727 2.71.983a16.92 16.92 0 0 1 1.835.72c.437.21.763.43.968.66.163.185.244.429.244.749 0 .859-.373 1.163-.652 1.317-.535.295-1.215.445-2.017.445-.977 0-1.785-.23-2.404-.684-.575-.422-.856-1.178-.856-2.31v-.53h-5.506v.53c0 1.238.239 2.352.706 3.312a7.171 7.171 0 0 0 1.906 2.426 8.273 8.273 0 0 0 2.712 1.472c1 .327 2.071.493 3.189.493 1.097 0 2.159-.126 3.154-.376 1.007-.255 1.906-.652 2.67-1.181a5.852 5.852 0 0 0 1.847-2.075c.446-.838.672-1.823.672-2.924 0-.984-.167-1.821-.496-2.486a5.27 5.27 0 0 0-1.332-1.697Z" fill="#FF4B00"/>
    </g>
    <mask id="e" style="mask-type:luminance" maskUnits="userSpaceOnUse" x="0" y="0" width="155" height="32">
      <path fill-rule="evenodd" clip-rule="evenodd" d="M0 32h154.797V.004H0V32Z" fill="#fff"/>
    </mask>
    <g mask="url(#e)">
      <path d="M150.952 10.922c1.044.519 1.881 1.234 2.491 2.127a7.603 7.603 0 0 1 1.071 2.657c.188.936.283 2.114.283 3.5V31.49h-5.632V20.734c0-.808-.067-1.574-.201-2.278-.127-.666-.336-1.241-.623-1.707a3.05 3.05 0 0 0-1.115-1.07c-.463-.265-1.062-.4-1.781-.4-1.425 0-2.446.488-3.118 1.488-.706 1.05-1.064 2.384-1.064 3.967V31.49h-5.632V10.655h5.632v2.075s1.432-2.584 5.864-2.584c2.465 0 3.825.776 3.825.776Z" fill="#FF4B00"/>
    </g>
    <mask id="f" style="mask-type:luminance" maskUnits="userSpaceOnUse" x="0" y="0" width="155" height="32">
      <path fill-rule="evenodd" clip-rule="evenodd" d="M0 32h154.797V.004H0V32Z" fill="#fff"/>
    </mask>
    <g mask="url(#f)">
      <path fill-rule="evenodd" clip-rule="evenodd" d="M18.605 17.167c.6.591 1.116 1.34 1.534 2.226.424.902.638 1.968.638 3.17 0 .806-.133 1.728-.395 2.74-.27 1.045-.784 2.039-1.528 2.955-.748.921-1.8 1.698-3.125 2.307-1.322.608-3.048.916-5.13.916h-10.6V.743h10.558c2.078 0 3.79.294 5.082.873 1.297.58 2.327 1.31 3.06 2.171.736.865 1.233 1.814 1.475 2.824.233.97.351 1.868.351 2.668 0 .996-.169 1.913-.502 2.722a7.351 7.351 0 0 1-1.289 2.098 7.163 7.163 0 0 1-2.159 1.663l.06.026.06.027c.669.307 1.31.762 1.91 1.352Zm-4.086-6.333c-.093.39-.285.763-.57 1.11-.286.35-.7.652-1.231.901-.533.25-1.26.378-2.16.378H5.85V6.142h4.706c.9 0 1.628.126 2.16.376.529.248.941.557 1.226.916.288.363.482.746.576 1.138.102.426.154.807.154 1.132 0 .323-.052.704-.154 1.13Zm-.323 13.999c-.284.357-.694.657-1.217.891-.534.24-1.265.36-2.17.36H5.85V18.62h5c.837 0 1.521.137 2.034.407.524.279.944.613 1.248.993.304.38.512.786.619 1.206.115.453.173.845.173 1.167 0 .383-.052.808-.155 1.266a2.93 2.93 0 0 1-.574 1.173Z" fill="#FF4B00"/>
    </g>
    <mask id="g" style="mask-type:luminance" maskUnits="userSpaceOnUse" x="0" y="0" width="155" height="32">
      <path fill-rule="evenodd" clip-rule="evenodd" d="M0 32h154.797V.004H0V32Z" fill="#fff"/>
    </mask>
    <g mask="url(#g)">
      <path fill-rule="evenodd" clip-rule="evenodd" d="M84.616 12.73v-2.074h5.632V31.49h-5.632v-2.075c-.553.86-1.572 1.608-2.8 2.075A7.73 7.73 0 0 1 79.09 32c-1.183 0-2.302-.172-3.34-.51a10.114 10.114 0 0 1-4.296-2.76 11.11 11.11 0 0 1-2.164-3.496 11.398 11.398 0 0 1-.772-4.161c0-1.448.26-2.848.772-4.162a11.13 11.13 0 0 1 2.163-3.497 10.126 10.126 0 0 1 4.297-2.758 10.77 10.77 0 0 1 3.34-.51c.953 0 1.888.19 2.727.51 1.228.466 2.247 1.214 2.8 2.075Zm-1.462 12.402a5.614 5.614 0 0 0 1.075-1.824c.258-.701.387-1.454.387-2.235 0-.781-.129-1.534-.387-2.236a5.61 5.61 0 0 0-1.075-1.823 5.2 5.2 0 0 0-1.662-1.233c-.64-.305-1.363-.459-2.15-.459-.787 0-1.503.154-2.128.458a5.24 5.24 0 0 0-1.644 1.234 5.357 5.357 0 0 0-1.052 1.816 6.789 6.789 0 0 0-.369 2.243c0 .787.124 1.541.37 2.243a5.366 5.366 0 0 0 1.05 1.816c.457.512 1.01.927 1.645 1.234.625.303 1.34.458 2.127.458.788 0 1.51-.155 2.15-.46a5.214 5.214 0 0 0 1.663-1.232Z" fill="#FF4B00"/>
    </g>
    <mask id="h" style="mask-type:luminance" maskUnits="userSpaceOnUse" x="0" y="0" width="155" height="32">
      <path fill-rule="evenodd" clip-rule="evenodd" d="M0 32h154.797V.004H0V32Z" fill="#fff"/>
    </mask>
    <g mask="url(#h)">
      <path fill-rule="evenodd" clip-rule="evenodd" d="M50.504 31.49h-5.631V.726h5.63v12.006c.553-.861 1.574-1.608 2.8-2.076a7.737 7.737 0 0 1 2.728-.51c1.183 0 2.302.173 3.34.51a10.105 10.105 0 0 1 4.296 2.76 11.086 11.086 0 0 1 2.164 3.496c.513 1.314.772 2.714.772 4.161 0 1.45-.259 2.85-.772 4.163a11.08 11.08 0 0 1-2.164 3.497 10.13 10.13 0 0 1-4.296 2.759c-1.038.337-2.157.509-3.34.509-.952 0-1.888-.19-2.727-.51-1.227-.467-2.248-1.214-2.8-2.074v2.075Zm1.462-14.475a5.614 5.614 0 0 0-1.075 1.823 6.44 6.44 0 0 0-.387 2.234c0 .783.129 1.534.387 2.236a5.603 5.603 0 0 0 1.075 1.823c.457.511 1.014.926 1.663 1.234.64.304 1.363.458 2.15.458.787 0 1.502-.154 2.128-.457a5.24 5.24 0 0 0 1.644-1.235c.456-.51.81-1.121 1.05-1.816.245-.7.37-1.455.37-2.243a6.79 6.79 0 0 0-.37-2.241 5.343 5.343 0 0 0-1.05-1.816 5.253 5.253 0 0 0-1.644-1.234c-.626-.305-1.341-.459-2.128-.459-.787 0-1.51.154-2.15.46a5.19 5.19 0 0 0-1.663 1.233Z" fill="#FF4B00"/>
    </g>
    <mask id="i" style="mask-type:luminance" maskUnits="userSpaceOnUse" x="0" y="0" width="155" height="32">
      <path fill-rule="evenodd" clip-rule="evenodd" d="M0 32h154.797V.004H0V32Z" fill="#fff"/>
    </mask>
    <g mask="url(#i)">
      <path fill-rule="evenodd" clip-rule="evenodd" d="M129.515 12.863c.871.851 1.524 1.875 2.05 2.992.964 2.043.904 4.94.523 6.942h-13.933c.064.662.161 1.099.292 1.51.173.55.44 1.036.797 1.446.351.402.817.726 1.383.963.578.24 1.317.363 2.196.363 1.183 0 2.029-.215 2.516-.636a4.13 4.13 0 0 0 1.082-1.482h5.73l-.024.147a7.556 7.556 0 0 1-.972 2.624 8.033 8.033 0 0 1-1.956 2.204c-.799.627-1.741 1.134-2.799 1.504-1.061.372-2.264.56-3.577.56-1.718 0-3.238-.286-4.519-.85-1.284-.567-2.371-1.354-3.231-2.342-.857-.984-1.508-2.161-1.934-3.498-.422-1.32-.635-2.744-.635-4.237 0-1.525.23-2.968.68-4.29.455-1.332 1.117-2.504 1.972-3.486.86-.988 1.942-1.77 3.213-2.322 1.266-.55 2.722-.829 4.328-.829a9.87 9.87 0 0 1 3.749.718 9.55 9.55 0 0 1 3.069 2Zm-6.944 1.823c-1.312 0-2.371.362-3.232 1.103-.734.632-1.137 1.524-1.225 2.903h8.661c-.085-1.316-.463-2.194-1.144-2.861-.787-.77-1.79-1.145-3.06-1.145Z" fill="#FF4B00"/>
    </g>
  </g>
  <defs>
    <clipPath id="a">
      <path fill="#fff" d="M0 0h154.831v32H0z"/>
    </clipPath>
  </defs>
</svg>
