<svg width="32" height="32" viewBox="0 0 32 32" fill="none" xmlns="http://www.w3.org/2000/svg">
<path d="M26.9951 11.9997V10.9971C26.9951 9.9362 26.5737 8.91879 25.8235 8.16864C25.0734 7.4185 24.056 6.99707 22.9951 6.99707H4.99512C3.93425 6.99707 2.91684 7.4185 2.16669 8.16864C1.41654 8.91879 0.995117 9.9362 0.995117 10.9971V22.9971C0.995117 24.0579 1.41654 25.0754 2.16669 25.8255C2.91684 26.5756 3.93425 26.9971 4.99512 26.9971H11.9731" stroke="#47474F" stroke-width="2" stroke-linecap="round" stroke-linejoin="round"/>
<path d="M7.99512 6.99707V26.9971" stroke="#47474F" stroke-width="2" stroke-linecap="round" stroke-linejoin="round"/>
<path d="M19.9951 6.99707V11.9984" stroke="#47474F" stroke-width="2" stroke-linecap="round" stroke-linejoin="round"/>
<path d="M10.0005 6.99707V2.99707C10.0005 2.46664 10.2112 1.95793 10.5863 1.58286C10.9613 1.20778 11.4701 0.99707 12.0005 0.99707H16.0005C16.2631 0.99707 16.5232 1.0488 16.7659 1.14931C17.0085 1.24982 17.229 1.39714 17.4147 1.58286C17.6004 1.76857 17.7477 1.98905 17.8482 2.2317C17.9488 2.47435 18.0005 2.73443 18.0005 2.99707V6.93724" stroke="#47474F" stroke-width="2" stroke-linecap="round" stroke-linejoin="round"/>
<path d="M22.9951 30.9971C27.4134 30.9971 30.9951 27.4153 30.9951 22.9971C30.9951 18.5788 27.4134 14.9971 22.9951 14.9971C18.5768 14.9971 14.9951 18.5788 14.9951 22.9971C14.9951 27.4153 18.5768 30.9971 22.9951 30.9971Z" stroke="#47474F" stroke-width="2" stroke-linecap="round" stroke-linejoin="round"/>
<path d="M15.5771 26.0002H17.9998C18.5302 26.0002 19.039 25.7894 19.414 25.4144C19.7891 25.0393 19.9998 24.5306 19.9998 24.0002V22.9975L22.3998 21.2002C22.6099 21.0426 22.7869 20.8451 22.9208 20.6191C23.0546 20.3931 23.1426 20.143 23.1797 19.883C23.2169 19.623 23.2024 19.3582 23.1372 19.1038C23.0721 18.8494 22.9574 18.6103 22.7998 18.4002L20.6011 15.4634" stroke="#47474F" stroke-width="2" stroke-linecap="round" stroke-linejoin="round"/>
<path d="M27.2125 29.7958L26.3845 26.5545C26.274 26.1128 26.3175 25.6467 26.5078 25.2331C26.6981 24.8195 27.0239 24.4832 27.4312 24.2798L30.8692 22.5498" stroke="#47474F" stroke-width="2" stroke-linecap="round" stroke-linejoin="round"/>
</svg>
