<svg width="24" height="24" viewBox="0 0 24 24" fill="none" xmlns="http://www.w3.org/2000/svg">
<path fill-rule="evenodd" clip-rule="evenodd" d="M7.06773 20.3456C7.25397 20.1966 7.49995 20.1451 7.73031 20.2068L11.5801 21.2383C11.8104 21.3001 11.9977 21.4677 12.0845 21.6898C12.1713 21.9119 12.1473 22.1621 12.0198 22.3637C11.3626 23.403 10.0787 23.9078 8.88726 23.5885C7.69581 23.2693 6.83635 22.1902 6.7868 20.9615C6.7772 20.7232 6.88149 20.4945 7.06773 20.3456Z" fill="#3F3F46"/>
<path fill-rule="evenodd" clip-rule="evenodd" d="M15.636 1.32736C15.7432 0.927257 15.5058 0.516005 15.1057 0.408798C14.7056 0.301592 14.2943 0.539029 14.1871 0.939129L13.7898 2.42193C9.61771 1.71376 5.48753 4.42867 4.38837 8.53079C3.57052 11.583 2.69104 13.4419 2.03774 14.5207C1.71124 15.0599 1.44126 15.4042 1.26351 15.6056C1.1746 15.7064 1.10858 15.7716 1.06987 15.8078C1.0505 15.8259 1.03792 15.8368 1.03269 15.8412L1.03095 15.8427C0.809601 16.0168 0.704257 16.3007 0.759034 16.5776C0.814508 16.858 1.02455 17.0825 1.30066 17.1565L18.6873 21.8152C18.9937 21.8973 19.3187 21.7778 19.4988 21.5166C19.671 21.267 19.6752 20.9397 19.5132 20.6866L19.5113 20.6828C19.5022 20.6639 19.4792 20.6126 19.4513 20.5203C19.3954 20.3354 19.3198 19.9871 19.2962 19.411C19.2488 18.2547 19.4119 16.2133 20.3261 12.8013C21.4325 8.67216 19.234 4.28444 15.2389 2.80948L15.636 1.32736Z" fill="#3F3F46"/>
</svg>
