<svg width="24" height="24" viewBox="0 0 24 24" fill="none" xmlns="http://www.w3.org/2000/svg"><path d="M2.331 20.378a.75.75 0 0 0 1.338.68l-1.338-.68Zm5.947-2.9v-.75.75Zm4.609 3.58a.75.75 0 0 0 1.337-.68l-1.337.68Zm-1.321-6.865h-.75a2.538 2.538 0 0 1-2.538 2.539v1.5a4.038 4.038 0 0 0 4.038-4.039h-.75Zm-3.288 3.289v-.75a2.538 2.538 0 0 1-2.539-2.539h-1.5a4.038 4.038 0 0 0 4.039 4.039v-.75Zm-3.289-3.289h.75a2.538 2.538 0 0 1 2.539-2.538v-1.5a4.038 4.038 0 0 0-4.039 4.038h.75Zm3.289-3.288v.75a2.538 2.538 0 0 1 2.538 2.538h1.5a4.038 4.038 0 0 0-4.038-4.038v.75ZM3 20.718l.669.34a5.168 5.168 0 0 1 1.905-2.066l-.393-.639-.392-.64a6.669 6.669 0 0 0-2.458 2.665l.669.34Zm2.181-2.365.393.64c.813-.5 1.75-.764 2.704-.764v-1.5a6.668 6.668 0 0 0-3.489.985l.392.639Zm3.097-.875v.75c.954 0 1.89.265 2.704.764l.392-.639.392-.64a6.669 6.669 0 0 0-3.488-.985v.75Zm3.096.875-.392.64a5.168 5.168 0 0 1 1.905 2.065l.668-.34.67-.34a6.668 6.668 0 0 0-2.459-2.664l-.392.639ZM21 7.523h-.75a3.774 3.774 0 0 1-3.774 3.774v1.5a5.274 5.274 0 0 0 5.274-5.273H21Zm-4.524 4.524v-.75a3.774 3.774 0 0 1-3.773-3.773h-1.5a5.274 5.274 0 0 0 5.273 5.273v-.75Zm-4.523-4.523h.75a3.774 3.774 0 0 1 3.773-3.774v-1.5a5.274 5.274 0 0 0-5.273 5.274h.75ZM16.476 3v.75a3.774 3.774 0 0 1 3.774 3.774h1.5a5.274 5.274 0 0 0-5.274-5.274V3Zm3.71 1.935-.433-.612-7.385 5.227.434.613.433.612 7.385-5.227-.433-.613Z" fill="#1B1B1F"/></svg>