<svg width="32" height="32" viewBox="0 0 32 32" fill="none" xmlns="http://www.w3.org/2000/svg">
<path d="M30.0005 21.5C30.0005 26.1944 26.1949 30 21.5005 30C16.8061 30 13.0005 26.1944 13.0005 21.5C13.0005 16.8056 16.8061 13 21.5005 13C26.1949 13 30.0005 16.8056 30.0005 21.5Z" stroke="#47474F" stroke-width="2"/>
<path d="M2.00049 17.3335C2.59753 13.9355 5.9519 11.3335 10.0005 11.3335C11.4554 11.3335 12.8206 11.6695 14.0005 12.2578" stroke="#47474F" stroke-width="2" stroke-linecap="round"/>
<path d="M14.0005 6C14.0005 8.20914 12.2096 10 10.0005 10C7.79135 10 6.00049 8.20914 6.00049 6C6.00049 3.79086 7.79135 2 10.0005 2C12.2096 2 14.0005 3.79086 14.0005 6Z" stroke="#47474F" stroke-width="2"/>
<path d="M29.0005 17L14.0005 26" stroke="#47474F" stroke-width="2"/>
</svg>
