<svg width="32" height="32" viewBox="0 0 32 32" fill="none" xmlns="http://www.w3.org/2000/svg">
<path d="M1.05127 30.0947H31.0006" stroke="#47474F" stroke-width="2" stroke-linecap="round" stroke-linejoin="round"/>
<path d="M13.031 30.0001V9.78809L3.04834 11.7841V30.0001" stroke="#47474F" stroke-width="2" stroke-linecap="round" stroke-linejoin="round"/>
<path d="M29.0051 29.9999V9.78794L13.0317 2.80127V29.9999" stroke="#47474F" stroke-width="2" stroke-linecap="round" stroke-linejoin="round"/>
<path d="M25.0106 30.0001L25.0239 21.4387C25.0239 20.9083 24.8132 20.3996 24.4381 20.0245C24.0631 19.6494 23.5544 19.4387 23.0239 19.4387H19.0239C18.4935 19.4387 17.9848 19.6494 17.6097 20.0245C17.2346 20.3996 17.0239 20.9083 17.0239 21.4387V30.0001" stroke="#47474F" stroke-width="2" stroke-linecap="round" stroke-linejoin="round"/>
<path d="M1.00049 12.1948L13.0312 9.78809" stroke="#47474F" stroke-width="2" stroke-linecap="round" stroke-linejoin="round"/>
<path d="M10.9849 1.90527L30.9955 10.6586" stroke="#47474F" stroke-width="2" stroke-linecap="round" stroke-linejoin="round"/>
<path d="M29.0041 9.78794V2.80127H25.0107V7.83327" stroke="#47474F" stroke-width="2" stroke-linecap="round" stroke-linejoin="round"/>
<path d="M17.3335 10.6665H20.0002" stroke="#47474F" stroke-width="2" stroke-linecap="round" stroke-linejoin="round"/>
</svg>
