<svg width="32" height="32" fill="none" xmlns="http://www.w3.org/2000/svg"><path d="M25.383 29.333a4.444 4.444 0 1 0 0-8.889 4.444 4.444 0 0 0 0 8.89ZM10.898 29.333a4.444 4.444 0 1 0 0-8.889 4.444 4.444 0 0 0 0 8.89ZM20.667 25h-5.334" stroke="#47474F" stroke-width="2" stroke-linecap="round" stroke-linejoin="round"/><path d="M6.348 25.383h-4.67l1.976-4.939V16H30.32v3.377a.496.496 0 0 1-.025.156l-.963 2.887M12.05 16V2.667H2.173l1.482 5.432V16" stroke="#47474F" stroke-width="2" stroke-linecap="round" stroke-linejoin="round"/><path d="M12.05 7.934h5.431l1.482 1.976h9.876c.819 0 1.482.663 1.482 1.481v4.61M8.1 2.667v7.407c0 1.091-.885 1.976-1.976 1.976h-2.47M27.358 6.617l-1.975-1.975H12.049M16.988 14.519V16M20.939 14.519V16M24.89 14.519V16" stroke="#47474F" stroke-width="2" stroke-linecap="round" stroke-linejoin="round"/></svg>