<svg width="24" height="24" viewBox="0 0 24 24" fill="none" xmlns="http://www.w3.org/2000/svg"><path d="M3.375 9.75h17.25m-17.25 3.375v7.5c0 .414.33.75.745.75h15.762a.744.744 0 0 0 .743-.75v-7.5m-17.25 0v-9.75c0-.414.328-.75.742-.75h15.764c.414 0 .744.336.744.75v9.75m-17.25 0h17.25M14.864 6h2.454c.678 0 1.227.56 1.227 1.25v2.5h-4.908v-2.5c0-.69.549-1.25 1.227-1.25ZM6.682 6h2.455c.678 0 1.227.56 1.227 1.25v2.5H5.455v-2.5c0-.69.55-1.25 1.227-1.25Z" stroke="#1B1B1F" stroke-width="1.5" stroke-linecap="round" stroke-linejoin="round"/></svg>