<svg width="32" height="32" viewBox="0 0 32 32" fill="none" xmlns="http://www.w3.org/2000/svg">
<path d="M27.9995 1H3.99951C2.89494 1 1.99951 1.89543 1.99951 3V29C1.99951 30.1046 2.89494 31 3.99951 31H27.9995C29.1041 31 29.9995 30.1046 29.9995 29V3C29.9995 1.89543 29.1041 1 27.9995 1Z" stroke="#47474F" stroke-width="2" stroke-linecap="round" stroke-linejoin="round"/>
<path d="M11.9995 5H7.99951C6.89494 5 5.99951 5.89543 5.99951 7V9C5.99951 10.1046 6.89494 11 7.99951 11H11.9995C13.1041 11 13.9995 10.1046 13.9995 9V7C13.9995 5.89543 13.1041 5 11.9995 5Z" stroke="#47474F" stroke-width="2" stroke-linecap="round" stroke-linejoin="round"/>
<path d="M23.9995 5H19.9995C18.8949 5 17.9995 5.89543 17.9995 7V9C17.9995 10.1046 18.8949 11 19.9995 11H23.9995C25.1041 11 25.9995 10.1046 25.9995 9V7C25.9995 5.89543 25.1041 5 23.9995 5Z" stroke="#47474F" stroke-width="2" stroke-linecap="round" stroke-linejoin="round"/>
<path d="M1.99951 11H29.9995" stroke="#47474F" stroke-width="2" stroke-linecap="round" stroke-linejoin="round"/>
<path d="M1.99951 17H29.9995" stroke="#47474F" stroke-width="2" stroke-linecap="round" stroke-linejoin="round"/>
</svg>
