<svg width="32" height="32" viewBox="0 0 32 32" fill="none" xmlns="http://www.w3.org/2000/svg">
<path d="M25.6668 30.6666C24.1941 30.6666 23.0002 29.4727 23.0002 27.9999C23.0002 26.5272 24.1941 25.3333 25.6668 25.3333C27.1396 25.3333 28.3335 26.5272 28.3335 27.9999C28.3335 29.4727 27.1396 30.6666 25.6668 30.6666Z" stroke="#47474F" stroke-width="2" stroke-linecap="round" stroke-linejoin="round"/>
<path d="M12.3333 30.6666C10.8606 30.6666 9.66667 29.4727 9.66667 27.9999C9.66667 26.5272 10.8606 25.3333 12.3333 25.3333C13.8061 25.3333 15 26.5272 15 27.9999C15 29.4727 13.8061 30.6666 12.3333 30.6666Z" stroke="#47474F" stroke-width="2" stroke-linecap="round" stroke-linejoin="round"/>
<path d="M1.33291 1.54126H2.71691C3.37793 1.54102 4.02051 1.75921 4.54472 2.16189C5.06893 2.56457 5.4454 3.12919 5.61557 3.76793L9.97158 19.8493C10.0855 20.2757 10.3372 20.6526 10.6877 20.921C11.0381 21.1894 11.4675 21.3344 11.9089 21.3333H26.3329C26.7736 21.3335 27.2021 21.1881 27.5517 20.9198C27.9014 20.6514 28.1525 20.2751 28.2662 19.8493L30.6548 9.38346" stroke="#47474F" stroke-width="2" stroke-linecap="round" stroke-linejoin="round"/>
<path d="M30.6665 9.33325H7.6665" stroke="#47474F" stroke-width="2" stroke-linecap="round" stroke-linejoin="round"/>
</svg>
