<svg width="42" height="28" viewBox="0 0 42 28" fill="none" xmlns="http://www.w3.org/2000/svg">
<path d="M18.3267 3.82764L20.0955 5.6429L21.8642 3.82764" stroke="#47474F" stroke-width="2" stroke-linecap="round" stroke-linejoin="round"/>
<path d="M2.90479 26.0713H39.0952" stroke="#47474F" stroke-width="2" stroke-linecap="round" stroke-linejoin="round"/>
<path d="M5.61914 14V26.0714" stroke="#47474F" stroke-width="2" stroke-linecap="round" stroke-linejoin="round"/>
<path d="M20.0952 14V26.0714" stroke="#47474F" stroke-width="2" stroke-linecap="round" stroke-linejoin="round"/>
<path d="M15.5716 26.0714V19.5714C15.5716 19.0586 15.1665 18.6428 14.6669 18.6428H11.0478C10.5481 18.6428 10.1431 19.0586 10.1431 19.5714V26.0714" stroke="#47474F" stroke-width="2" stroke-linecap="round" stroke-linejoin="round"/>
<path d="M2.90479 15.8571L12.8571 7.5L22.8095 15.8571" stroke="#47474F" stroke-width="2" stroke-linecap="round" stroke-linejoin="round"/>
<path d="M34.5715 14.4642L37.2858 19.5713H26.4287L29.143 14.4642H26.4287L29.7763 8.89275H27.062L31.8573 1.92847L36.8335 8.89275H34.1192L37.2858 14.4642H34.5715Z" stroke="#47474F" stroke-width="2" stroke-linecap="round" stroke-linejoin="round"/>
<path d="M31.8569 19.5713V26.0713" stroke="#47474F" stroke-width="2" stroke-linecap="round" stroke-linejoin="round"/>
</svg>
