<svg width="24" height="24" viewBox="0 0 24 24" fill="none" xmlns="http://www.w3.org/2000/svg">
<path d="M9 5V11.5M2 11.5L15.3787 11.5C16.7369 11.5 18.0396 12.0396 19 13M22.0608 13.5608C21.6629 13.5608 21.2814 13.7188 21.0001 14.0001C20.7188 14.2814 20.5608 14.6629 20.5608 15.0608V18.0608C20.5608 18.4586 20.7188 18.8401 21.0001 19.1214C21.2814 19.4027 21.6629 19.5608 22.0608 19.5608M5 11.5V6C5 5.44772 5.44772 5 6 5H11.4227C11.7799 5 12.11 5.1906 12.2887 5.5L15.761 11.5143M18 16.5H20.5608M18 16.5C18 17.8807 16.8807 19 15.5 19H4.5C3.11929 19 2 17.8807 2 16.5C2 15.1193 3.11929 14 4.5 14H15.5C16.8807 14 18 15.1193 18 16.5Z" stroke="#1B1B1F" stroke-width="1.5" stroke-linecap="round" stroke-linejoin="round"/>
</svg>
