<svg width="32" height="32" viewBox="0 0 32 32" fill="none" xmlns="http://www.w3.org/2000/svg">
<path d="M16.0002 1.3335C18.8291 1.3335 21.5422 2.54716 23.5426 4.70749C25.543 6.86783 26.6668 9.79787 26.6668 12.853C26.6668 17.5394 20.88 25.7379 17.8317 29.733C17.6093 30.025 17.3298 30.2602 17.0133 30.4216C16.6967 30.5831 16.351 30.6668 16.001 30.6668C15.6509 30.6668 15.3052 30.5831 14.9886 30.4216C14.6721 30.2602 14.3926 30.025 14.1702 29.733C11.1219 25.7413 5.3335 17.5394 5.3335 12.853C5.3335 9.79787 6.4573 6.86783 8.45769 4.70749C10.4581 2.54716 13.1712 1.3335 16.0002 1.3335Z" stroke="#47474F" stroke-width="2" stroke-linecap="round" stroke-linejoin="round"/>
<path d="M16.0005 16C18.2096 16 20.0005 14.2091 20.0005 12C20.0005 9.79086 18.2096 8 16.0005 8C13.7913 8 12.0005 9.79086 12.0005 12C12.0005 14.2091 13.7913 16 16.0005 16Z" stroke="#47474F" stroke-width="2" stroke-linecap="round" stroke-linejoin="round"/>
</svg>
