<svg width="32" height="32" viewBox="0 0 32 32" fill="none" xmlns="http://www.w3.org/2000/svg">
<path d="M29 24.0002V28.0002C29 28.5307 28.7893 29.0394 28.4142 29.4145C28.0391 29.7895 27.5304 30.0002 27 30.0002H4C3.20435 30.0002 2.44129 29.6842 1.87868 29.1216C1.31607 28.559 1 27.7959 1 27.0002V5.00024C1 4.20459 1.31607 3.44153 1.87868 2.87892C2.44129 2.31631 3.20435 2.00024 4 2.00024H25C25.5304 2.00024 26.0391 2.21096 26.4142 2.58603C26.7893 2.9611 27 3.46981 27 4.00024V6.66691" stroke="#47474F" stroke-width="2" stroke-linecap="round" stroke-linejoin="round"/>
<path d="M29 24.0002C29.5304 24.0002 30.0391 23.7895 30.4142 23.4145C30.7893 23.0394 31 22.5307 31 22.0002V16.0002C31 15.4698 30.7893 14.9611 30.4142 14.586C30.0391 14.211 29.5304 14.0002 29 14.0002H24C22.6739 14.0002 21.4021 14.527 20.4645 15.4647C19.5268 16.4024 19 17.6742 19 19.0002C19 20.3263 19.5268 21.5981 20.4645 22.5358C21.4021 23.4735 22.6739 24.0002 24 24.0002H29Z" stroke="#47474F" stroke-width="2" stroke-linecap="round" stroke-linejoin="round"/>
<path d="M5.34766 5.80688C5.56027 6.18592 5.87418 6.4983 6.25424 6.70906C6.63431 6.91982 7.06554 7.02063 7.49966 7.00022H26.9997C27.5301 7.00022 28.0388 7.21093 28.4139 7.586C28.7889 7.96108 28.9997 8.46979 28.9997 9.00022V13.7554" stroke="#47474F" stroke-width="2" stroke-linecap="round" stroke-linejoin="round"/>
<path d="M19 19.0002H22.6667" stroke="#47474F" stroke-width="2" stroke-linecap="round" stroke-linejoin="round"/>
</svg>
