<svg width="24" height="24" viewBox="0 0 24 24" fill="none" xmlns="http://www.w3.org/2000/svg">
  <path d="M12 17.667V21M5.25 5l13.5 14.667m-3.01-3.271a6.14 6.14 0 0 1-6.403.664 6.05 6.05 0 0 1-2.49-2.214 5.945 5.945 0 0 1-.922-3.18m12.15 0a5.914 5.914 0 0 1-.615 2.635m-3.546.116A3.385 3.385 0 0 1 12 15a3.397 3.397 0 0 1-2.386-.976 3.313 3.313 0 0 1-.989-2.357v-3m.278-3.662a3.344 3.344 0 0 1 1.245-1.46 3.405 3.405 0 0 1 4.239.431c.632.625.988 1.473.988 2.357v5.334c0 .116-.006.233-.019.349" stroke="#1B1B1F" stroke-width="1.5" stroke-linecap="round" stroke-linejoin="round"/>
</svg>
