<svg width="215" height="33" viewBox="0 0 215 33" fill="none" xmlns="http://www.w3.org/2000/svg">
<path fill-rule="evenodd" clip-rule="evenodd" d="M11.252 2.16101H3.02281C2.50962 2.16101 2.09222 2.57774 2.09222 3.08988V29.0566C2.09222 29.5688 2.50962 29.9855 3.02281 29.9855H29.9738V20.8443C29.9738 10.5423 21.5753 2.16101 11.252 2.16101Z" fill="#0063FB"/>
<path fill-rule="evenodd" clip-rule="evenodd" d="M88.9772 2.16101H32.9965C32.4833 2.16101 32.0657 2.57774 32.0657 3.08988V29.9853H88.9772C89.4904 29.9853 89.9079 29.5688 89.9079 29.0566V3.08988C89.9079 2.57774 89.4904 2.16101 88.9772 2.16101Z" fill="#06BEFB"/>
<path fill-rule="evenodd" clip-rule="evenodd" d="M2.09214 29.0567V3.08996C2.09214 2.57782 2.50973 2.16109 3.02292 2.16109H11.2519C21.5752 2.16109 29.9737 10.5424 29.9737 20.8444V29.9854H3.02292C2.50973 29.9854 2.09214 29.5689 2.09214 29.0567ZM89.9079 29.0567C89.9079 29.5689 89.4903 29.9854 88.9771 29.9854H32.0658V3.08996C32.0658 2.57782 32.4834 2.16109 32.9966 2.16109H88.9771C89.4903 2.16109 89.9079 2.57782 89.9079 3.08996V29.0567ZM88.9771 0.0732422H32.9966C31.3297 0.0732422 29.9737 1.4265 29.9737 3.08996V11.7742C26.5933 4.85343 19.4719 0.0732422 11.2519 0.0732422H3.02292C1.35604 0.0732422 0 1.4265 0 3.08996V29.0567C0 30.72 1.35604 32.0732 3.02292 32.0732H88.9771C90.644 32.0732 92 30.72 92 29.0567V3.08996C92 1.4265 90.644 0.0732422 88.9771 0.0732422Z" fill="white"/>
<path fill-rule="evenodd" clip-rule="evenodd" d="M41.5072 10.6482H49.0454C49.3729 10.6482 49.6385 10.9132 49.6385 11.24V13.0962C49.6385 13.4231 49.3729 13.6881 49.0454 13.6881H44.2116V16.1371H48.0603C48.3878 16.1371 48.6534 16.4021 48.6534 16.729V18.3093C48.6534 18.6361 48.3878 18.9011 48.0603 18.9011H44.2116V20.9066C44.2116 21.2334 43.9461 21.4982 43.6185 21.4982H41.5072C41.1796 21.4982 40.9141 21.2334 40.9141 20.9066V11.24C40.9141 10.9132 41.1796 10.6482 41.5072 10.6482ZM52.9221 10.6482H55.0334C55.361 10.6482 55.6265 10.9132 55.6265 11.24V20.9066C55.6265 21.2334 55.361 21.4984 55.0334 21.4984H52.9221C52.5945 21.4984 52.329 21.2334 52.329 20.9066V11.24C52.329 10.9132 52.5945 10.6482 52.9221 10.6482ZM80.4665 10.6482H78.355C78.0277 10.6482 77.7621 10.9132 77.7621 11.24V15.98L74.4606 11.0017C74.3141 10.781 74.0665 10.6482 73.8011 10.6482H72.1792C71.8517 10.6482 71.5861 10.9132 71.5861 11.24V20.9066C71.5861 21.2334 71.8517 21.4982 72.1792 21.4982H74.2907C74.6183 21.4982 74.8836 21.2334 74.8836 20.9066V16.2214L78.1129 21.1415C78.259 21.3641 78.5076 21.4982 78.7743 21.4982H80.4665C80.7941 21.4982 81.0596 21.2334 81.0596 20.9066V11.24C81.0596 10.9132 80.7941 10.6482 80.4665 10.6482ZM65.6385 10.6482H67.75C68.0776 10.6482 68.3431 10.9132 68.3431 11.24V20.9066C68.3431 21.2334 68.0776 21.4982 67.75 21.4982H66.0578C65.7911 21.4982 65.5425 21.3641 65.3964 21.1415L62.1671 16.2214V20.9066C62.1671 21.2334 61.9015 21.4982 61.5742 21.4982H59.4627C59.1351 21.4982 58.8696 21.2334 58.8696 20.9066V11.24C58.8696 10.9132 59.1351 10.6482 59.4627 10.6482H61.0846C61.35 10.6482 61.5976 10.781 61.7441 11.0017L65.0454 15.98V11.24C65.0454 10.9132 65.3109 10.6482 65.6385 10.6482Z" fill="white"/>
<path d="M107.452 11.9012C107.524 11.6692 107.684 11.5532 107.932 11.5532H109.3C109.436 11.5532 109.54 11.5892 109.612 11.6612C109.684 11.7332 109.72 11.8372 109.72 11.9732V19.6532C109.72 19.7812 109.684 19.8852 109.612 19.9652C109.54 20.0372 109.436 20.0732 109.3 20.0732H108.808C108.68 20.0732 108.576 20.0372 108.496 19.9652C108.424 19.8852 108.388 19.7812 108.388 19.6532V15.7892C108.388 15.3092 108.396 14.5892 108.412 13.6292L108.424 12.5852C108.328 12.8892 108.1 13.5812 107.74 14.6612L107.368 15.7892L106.048 19.7252C105.976 19.9572 105.816 20.0732 105.568 20.0732H105.1C104.852 20.0732 104.692 19.9612 104.62 19.7372L103.276 15.7892C102.804 14.4292 102.448 13.3612 102.208 12.5852C102.224 13.9932 102.232 15.0612 102.232 15.7892V19.6532C102.232 19.7812 102.196 19.8852 102.124 19.9652C102.052 20.0372 101.948 20.0732 101.812 20.0732H101.344C101.216 20.0732 101.112 20.0372 101.032 19.9652C100.96 19.8852 100.924 19.7812 100.924 19.6532V11.9732C100.924 11.8372 100.96 11.7332 101.032 11.6612C101.112 11.5892 101.216 11.5532 101.344 11.5532H102.736C102.984 11.5532 103.144 11.6652 103.216 11.8892L104.332 15.1772C104.804 16.5852 105.14 17.6532 105.34 18.3812C105.596 17.4852 105.932 16.4172 106.348 15.1772L107.452 11.9012ZM115.129 14.5772C115.129 14.4412 115.165 14.3372 115.237 14.2652C115.317 14.1932 115.421 14.1572 115.549 14.1572H115.981C116.117 14.1572 116.221 14.1932 116.293 14.2652C116.365 14.3372 116.401 14.4412 116.401 14.5772V19.6532C116.401 19.7812 116.365 19.8852 116.293 19.9652C116.221 20.0372 116.117 20.0732 115.981 20.0732H115.657C115.529 20.0732 115.425 20.0372 115.345 19.9652C115.273 19.8852 115.237 19.7812 115.237 19.6532V19.3772C115.077 19.6492 114.845 19.8652 114.541 20.0252C114.237 20.1772 113.877 20.2532 113.461 20.2532C112.757 20.2532 112.233 20.0812 111.889 19.7372C111.545 19.3852 111.373 18.9212 111.373 18.3452V14.5772C111.373 14.4412 111.409 14.3372 111.481 14.2652C111.561 14.1932 111.665 14.1572 111.793 14.1572H112.225C112.361 14.1572 112.465 14.1932 112.537 14.2652C112.609 14.3372 112.645 14.4412 112.645 14.5772V18.0092C112.645 18.3772 112.737 18.6612 112.921 18.8612C113.113 19.0532 113.389 19.1492 113.749 19.1492C114.165 19.1492 114.497 19.0292 114.745 18.7892C115.001 18.5492 115.129 18.2012 115.129 17.7452V14.5772ZM118.333 20.0732C118.205 20.0732 118.101 20.0372 118.021 19.9652C117.949 19.8852 117.913 19.7812 117.913 19.6532V11.9732C117.913 11.8372 117.949 11.7332 118.021 11.6612C118.101 11.5892 118.205 11.5532 118.333 11.5532H118.765C118.901 11.5532 119.005 11.5892 119.077 11.6612C119.149 11.7332 119.185 11.8372 119.185 11.9732V19.6532C119.185 19.7812 119.149 19.8852 119.077 19.9652C119.005 20.0372 118.901 20.0732 118.765 20.0732H118.333ZM121.349 13.0052C121.117 13.0052 120.921 12.9292 120.761 12.7772C120.601 12.6172 120.521 12.4292 120.521 12.2132C120.521 11.9892 120.601 11.8012 120.761 11.6492C120.921 11.4972 121.117 11.4212 121.349 11.4212C121.581 11.4212 121.777 11.4972 121.937 11.6492C122.097 11.8012 122.177 11.9892 122.177 12.2132C122.177 12.4292 122.097 12.6172 121.937 12.7772C121.777 12.9292 121.581 13.0052 121.349 13.0052ZM121.121 20.0732C120.993 20.0732 120.889 20.0372 120.809 19.9652C120.737 19.8852 120.701 19.7812 120.701 19.6532V14.5772C120.701 14.4412 120.737 14.3372 120.809 14.2652C120.889 14.1932 120.993 14.1572 121.121 14.1572H121.553C121.689 14.1572 121.793 14.1932 121.865 14.2652C121.937 14.3372 121.973 14.4412 121.973 14.5772V19.6532C121.973 19.7812 121.937 19.8852 121.865 19.9652C121.793 20.0372 121.689 20.0732 121.553 20.0732H121.121ZM127.607 14.5412C127.607 14.4212 127.643 14.3292 127.715 14.2652C127.795 14.1932 127.899 14.1572 128.027 14.1572H128.363C128.499 14.1572 128.603 14.1932 128.675 14.2652C128.747 14.3372 128.783 14.4412 128.783 14.5772V19.8572C128.783 20.6492 128.527 21.2652 128.015 21.7052C127.511 22.1452 126.839 22.3652 125.999 22.3652C125.159 22.3652 124.367 22.1492 123.623 21.7172C123.471 21.6372 123.395 21.5292 123.395 21.3932C123.395 21.3212 123.427 21.2332 123.491 21.1292L123.647 20.9012C123.735 20.7652 123.843 20.6972 123.971 20.6972C124.059 20.6972 124.147 20.7252 124.235 20.7812C124.555 20.9652 124.851 21.0972 125.123 21.1772C125.395 21.2652 125.683 21.3092 125.987 21.3092C126.451 21.3092 126.823 21.1812 127.103 20.9252C127.391 20.6772 127.535 20.2852 127.535 19.7492V19.1132C127.135 19.6812 126.535 19.9652 125.735 19.9652C125.239 19.9652 124.791 19.8412 124.391 19.5932C123.999 19.3372 123.691 18.9852 123.467 18.5372C123.251 18.0812 123.143 17.5612 123.143 16.9772C123.143 16.3932 123.251 15.8772 123.467 15.4292C123.691 14.9732 123.999 14.6172 124.391 14.3612C124.791 14.1052 125.239 13.9772 125.735 13.9772C126.583 13.9772 127.207 14.2932 127.607 14.9252V14.5412ZM125.987 18.8972C126.451 18.8972 126.831 18.7212 127.127 18.3692C127.423 18.0092 127.571 17.5452 127.571 16.9772C127.571 16.4172 127.423 15.9612 127.127 15.6092C126.839 15.2492 126.459 15.0692 125.987 15.0692C125.507 15.0692 125.127 15.2452 124.847 15.5972C124.567 15.9492 124.427 16.4092 124.427 16.9772C124.427 17.5532 124.567 18.0172 124.847 18.3692C125.127 18.7212 125.507 18.8972 125.987 18.8972ZM133.264 13.9772C133.944 13.9772 134.464 14.1692 134.824 14.5532C135.192 14.9292 135.376 15.4172 135.376 16.0172V19.6532C135.376 19.7812 135.34 19.8852 135.268 19.9652C135.196 20.0372 135.092 20.0732 134.956 20.0732H134.524C134.396 20.0732 134.292 20.0372 134.212 19.9652C134.14 19.8852 134.104 19.7812 134.104 19.6532V16.4132C134.104 15.9812 133.996 15.6492 133.78 15.4172C133.572 15.1852 133.272 15.0692 132.88 15.0692C132.496 15.0692 132.172 15.2012 131.908 15.4652C131.652 15.7292 131.524 16.0612 131.524 16.4612V19.6532C131.524 19.7812 131.488 19.8852 131.416 19.9652C131.344 20.0372 131.24 20.0732 131.104 20.0732H130.672C130.544 20.0732 130.44 20.0372 130.36 19.9652C130.288 19.8852 130.252 19.7812 130.252 19.6532V11.9732C130.252 11.8372 130.288 11.7332 130.36 11.6612C130.44 11.5892 130.544 11.5532 130.672 11.5532H131.104C131.24 11.5532 131.344 11.5892 131.416 11.6612C131.488 11.7332 131.524 11.8372 131.524 11.9732V14.7692C131.716 14.5132 131.96 14.3172 132.256 14.1812C132.56 14.0452 132.896 13.9772 133.264 13.9772ZM141.073 18.5612C141.177 18.4732 141.277 18.4292 141.373 18.4292C141.469 18.4292 141.569 18.4812 141.673 18.5852L141.841 18.7652C141.929 18.8692 141.973 18.9692 141.973 19.0652C141.973 19.1692 141.921 19.2692 141.817 19.3652C141.449 19.6852 141.081 19.9132 140.713 20.0492C140.353 20.1852 139.953 20.2532 139.513 20.2532C138.897 20.2532 138.361 20.1252 137.905 19.8692C137.457 19.6132 137.109 19.2532 136.861 18.7892C136.621 18.3172 136.501 17.7732 136.501 17.1572C136.501 16.5492 136.617 16.0052 136.849 15.5252C137.089 15.0372 137.425 14.6572 137.857 14.3852C138.297 14.1132 138.809 13.9772 139.393 13.9772C140.265 13.9772 140.937 14.2372 141.409 14.7572C141.881 15.2692 142.117 15.9772 142.117 16.8812V16.9892C142.109 17.1172 142.069 17.2172 141.997 17.2892C141.925 17.3612 141.821 17.3972 141.685 17.3972H137.749C137.797 17.9252 137.969 18.3572 138.265 18.6932C138.569 19.0212 138.993 19.1852 139.537 19.1852C139.833 19.1852 140.093 19.1412 140.317 19.0532C140.541 18.9572 140.793 18.7932 141.073 18.5612ZM139.369 14.9852C138.929 14.9852 138.573 15.1172 138.301 15.3812C138.037 15.6372 137.865 16.0012 137.785 16.4732H140.869C140.837 16.0092 140.693 15.6452 140.437 15.3812C140.181 15.1172 139.825 14.9852 139.369 14.9852ZM146.068 19.0652C146.092 19.0572 146.128 19.0532 146.176 19.0532C146.376 19.0532 146.496 19.1692 146.536 19.4012L146.572 19.5932C146.58 19.6172 146.584 19.6572 146.584 19.7132C146.584 19.9132 146.472 20.0412 146.248 20.0972C145.928 20.1692 145.636 20.2052 145.372 20.2052C144.804 20.2052 144.392 20.0732 144.136 19.8092C143.888 19.5452 143.764 19.1492 143.764 18.6212V15.1292H143.104C142.976 15.1292 142.872 15.0932 142.792 15.0212C142.72 14.9412 142.684 14.8372 142.684 14.7092V14.5772C142.684 14.4412 142.72 14.3372 142.792 14.2652C142.872 14.1932 142.976 14.1572 143.104 14.1572H143.764V12.6692C143.764 12.5332 143.8 12.4292 143.872 12.3572C143.952 12.2852 144.056 12.2492 144.184 12.2492H144.616C144.752 12.2492 144.856 12.2852 144.928 12.3572C145 12.4292 145.036 12.5332 145.036 12.6692V14.1572H146.116C146.252 14.1572 146.356 14.1932 146.428 14.2652C146.5 14.3372 146.536 14.4412 146.536 14.5772V14.7092C146.536 14.8372 146.5 14.9412 146.428 15.0212C146.356 15.0932 146.252 15.1292 146.116 15.1292H145.036V18.4652C145.036 18.6972 145.084 18.8612 145.18 18.9572C145.284 19.0532 145.448 19.1012 145.672 19.1012C145.768 19.1012 145.9 19.0892 146.068 19.0652ZM151.632 18.5612C151.736 18.4732 151.836 18.4292 151.932 18.4292C152.028 18.4292 152.128 18.4812 152.232 18.5852L152.4 18.7652C152.488 18.8692 152.532 18.9692 152.532 19.0652C152.532 19.1692 152.48 19.2692 152.376 19.3652C152.008 19.6852 151.64 19.9132 151.272 20.0492C150.912 20.1852 150.512 20.2532 150.072 20.2532C149.456 20.2532 148.92 20.1252 148.464 19.8692C148.016 19.6132 147.668 19.2532 147.42 18.7892C147.18 18.3172 147.06 17.7732 147.06 17.1572C147.06 16.5492 147.176 16.0052 147.408 15.5252C147.648 15.0372 147.984 14.6572 148.416 14.3852C148.856 14.1132 149.368 13.9772 149.952 13.9772C150.824 13.9772 151.496 14.2372 151.968 14.7572C152.44 15.2692 152.676 15.9772 152.676 16.8812V16.9892C152.668 17.1172 152.628 17.2172 152.556 17.2892C152.484 17.3612 152.38 17.3972 152.244 17.3972H148.308C148.356 17.9252 148.528 18.3572 148.824 18.6932C149.128 19.0212 149.552 19.1852 150.096 19.1852C150.392 19.1852 150.652 19.1412 150.876 19.0532C151.1 18.9572 151.352 18.7932 151.632 18.5612ZM149.928 14.9852C149.488 14.9852 149.132 15.1172 148.86 15.3812C148.596 15.6372 148.424 16.0012 148.344 16.4732H151.428C151.396 16.0092 151.252 15.6452 150.996 15.3812C150.74 15.1172 150.384 14.9852 149.928 14.9852ZM156.853 13.9772C157.533 13.9772 158.053 14.1692 158.413 14.5532C158.781 14.9292 158.965 15.4172 158.965 16.0172V19.6532C158.965 19.7812 158.929 19.8852 158.857 19.9652C158.785 20.0372 158.681 20.0732 158.545 20.0732H158.113C157.985 20.0732 157.881 20.0372 157.801 19.9652C157.729 19.8852 157.693 19.7812 157.693 19.6532V16.4132C157.693 15.9812 157.585 15.6492 157.369 15.4172C157.161 15.1852 156.861 15.0692 156.469 15.0692C156.085 15.0692 155.761 15.2012 155.497 15.4652C155.241 15.7292 155.113 16.0612 155.113 16.4612V19.6532C155.113 19.7812 155.077 19.8852 155.005 19.9652C154.933 20.0372 154.829 20.0732 154.693 20.0732H154.261C154.133 20.0732 154.029 20.0372 153.949 19.9652C153.877 19.8852 153.841 19.7812 153.841 19.6532V14.5772C153.841 14.4412 153.877 14.3372 153.949 14.2652C154.029 14.1932 154.133 14.1572 154.261 14.1572H154.609C154.745 14.1572 154.849 14.1932 154.921 14.2652C154.993 14.3372 155.029 14.4412 155.029 14.5772V14.8892C155.221 14.5932 155.473 14.3692 155.785 14.2172C156.097 14.0572 156.453 13.9772 156.853 13.9772ZM164.663 18.5612C164.767 18.4732 164.867 18.4292 164.963 18.4292C165.059 18.4292 165.159 18.4812 165.263 18.5852L165.431 18.7652C165.519 18.8692 165.563 18.9692 165.563 19.0652C165.563 19.1692 165.511 19.2692 165.407 19.3652C165.039 19.6852 164.671 19.9132 164.303 20.0492C163.943 20.1852 163.543 20.2532 163.103 20.2532C162.487 20.2532 161.951 20.1252 161.495 19.8692C161.047 19.6132 160.699 19.2532 160.451 18.7892C160.211 18.3172 160.091 17.7732 160.091 17.1572C160.091 16.5492 160.207 16.0052 160.439 15.5252C160.679 15.0372 161.015 14.6572 161.447 14.3852C161.887 14.1132 162.399 13.9772 162.983 13.9772C163.855 13.9772 164.527 14.2372 164.999 14.7572C165.471 15.2692 165.707 15.9772 165.707 16.8812V16.9892C165.699 17.1172 165.659 17.2172 165.587 17.2892C165.515 17.3612 165.411 17.3972 165.275 17.3972H161.339C161.387 17.9252 161.559 18.3572 161.855 18.6932C162.159 19.0212 162.583 19.1852 163.127 19.1852C163.423 19.1852 163.683 19.1412 163.907 19.0532C164.131 18.9572 164.383 18.7932 164.663 18.5612ZM162.959 14.9852C162.519 14.9852 162.163 15.1172 161.891 15.3812C161.627 15.6372 161.455 16.0012 161.375 16.4732H164.459C164.427 16.0092 164.283 15.6452 164.027 15.3812C163.771 15.1172 163.415 14.9852 162.959 14.9852ZM169.176 20.2532C168.688 20.2532 168.252 20.1932 167.868 20.0732C167.492 19.9452 167.108 19.7252 166.716 19.4132C166.596 19.3252 166.536 19.2252 166.536 19.1132C166.536 19.0252 166.58 18.9292 166.668 18.8252L166.848 18.6212C166.944 18.5092 167.048 18.4532 167.16 18.4532C167.248 18.4532 167.344 18.4932 167.448 18.5732C167.784 18.8212 168.08 18.9932 168.336 19.0892C168.592 19.1772 168.88 19.2212 169.2 19.2212C169.544 19.2212 169.824 19.1532 170.04 19.0172C170.264 18.8732 170.376 18.6812 170.376 18.4412C170.376 18.2572 170.312 18.1132 170.184 18.0092C170.064 17.8972 169.904 17.8132 169.704 17.7572C169.504 17.6932 169.208 17.6212 168.816 17.5412C168.264 17.4212 167.832 17.2932 167.52 17.1572C167.216 17.0132 166.996 16.8332 166.86 16.6172C166.724 16.4012 166.656 16.1252 166.656 15.7892C166.656 15.4452 166.752 15.1372 166.944 14.8652C167.144 14.5932 167.42 14.3772 167.772 14.2172C168.132 14.0572 168.552 13.9772 169.032 13.9772C169.464 13.9772 169.848 14.0252 170.184 14.1212C170.528 14.2172 170.864 14.3812 171.192 14.6132C171.32 14.7092 171.384 14.8172 171.384 14.9372C171.384 15.0172 171.344 15.1092 171.264 15.2132L171.108 15.4052C171.02 15.5172 170.912 15.5732 170.784 15.5732C170.688 15.5732 170.596 15.5412 170.508 15.4772C170.244 15.3012 170 15.1812 169.776 15.1172C169.552 15.0452 169.3 15.0092 169.02 15.0092C168.676 15.0092 168.4 15.0772 168.192 15.2132C167.984 15.3492 167.88 15.5252 167.88 15.7412C167.88 15.8852 167.928 16.0012 168.024 16.0892C168.128 16.1692 168.272 16.2412 168.456 16.3052C168.648 16.3612 168.948 16.4332 169.356 16.5212C169.908 16.6412 170.344 16.7772 170.664 16.9292C170.992 17.0732 171.232 17.2612 171.384 17.4932C171.544 17.7172 171.624 18.0092 171.624 18.3692C171.624 18.9292 171.4 19.3852 170.952 19.7372C170.512 20.0812 169.92 20.2532 169.176 20.2532ZM181.752 13.9772C182.384 13.9772 182.872 14.1572 183.216 14.5172C183.56 14.8692 183.732 15.3452 183.732 15.9452V19.6532C183.732 19.7812 183.696 19.8852 183.624 19.9652C183.552 20.0372 183.448 20.0732 183.312 20.0732H182.88C182.752 20.0732 182.648 20.0372 182.568 19.9652C182.496 19.8852 182.46 19.7812 182.46 19.6532V16.3292C182.46 15.9372 182.372 15.6292 182.196 15.4052C182.02 15.1812 181.752 15.0692 181.392 15.0692C181.024 15.0692 180.732 15.1932 180.516 15.4412C180.308 15.6892 180.204 16.0092 180.204 16.4012V19.6532C180.204 19.7812 180.168 19.8852 180.096 19.9652C180.024 20.0372 179.92 20.0732 179.784 20.0732H179.352C179.224 20.0732 179.12 20.0372 179.04 19.9652C178.968 19.8852 178.932 19.7812 178.932 19.6532V16.3292C178.932 15.9372 178.844 15.6292 178.668 15.4052C178.5 15.1812 178.236 15.0692 177.876 15.0692C177.524 15.0692 177.24 15.1852 177.024 15.4172C176.808 15.6492 176.692 15.9492 176.676 16.3172V19.6532C176.676 19.7812 176.64 19.8852 176.568 19.9652C176.496 20.0372 176.392 20.0732 176.256 20.0732H175.824C175.696 20.0732 175.592 20.0372 175.512 19.9652C175.44 19.8852 175.404 19.7812 175.404 19.6532V14.5772C175.404 14.4412 175.44 14.3372 175.512 14.2652C175.592 14.1932 175.696 14.1572 175.824 14.1572H176.172C176.308 14.1572 176.412 14.1932 176.484 14.2652C176.556 14.3372 176.592 14.4412 176.592 14.5772V14.8412C176.96 14.2652 177.528 13.9772 178.296 13.9772C178.68 13.9772 179.016 14.0572 179.304 14.2172C179.592 14.3772 179.812 14.6012 179.964 14.8892C180.372 14.2812 180.968 13.9772 181.752 13.9772ZM187.685 13.9772C188.485 13.9772 189.101 14.1652 189.533 14.5412C189.965 14.9092 190.181 15.4012 190.181 16.0172V19.6532C190.181 19.7812 190.145 19.8852 190.073 19.9652C190.001 20.0372 189.897 20.0732 189.761 20.0732H189.449C189.321 20.0732 189.217 20.0372 189.137 19.9652C189.065 19.8852 189.029 19.7812 189.029 19.6532V19.3892C188.837 19.6692 188.573 19.8852 188.237 20.0372C187.901 20.1892 187.509 20.2652 187.061 20.2652C186.445 20.2652 185.937 20.1292 185.537 19.8572C185.145 19.5772 184.949 19.1572 184.949 18.5972C184.949 17.9732 185.181 17.5132 185.645 17.2172C186.117 16.9132 186.769 16.6852 187.601 16.5332L188.957 16.2812V16.0652C188.957 15.7372 188.841 15.4852 188.609 15.3092C188.385 15.1252 188.085 15.0332 187.709 15.0332C187.389 15.0332 187.109 15.0892 186.869 15.2012C186.637 15.3052 186.385 15.4812 186.113 15.7292C186.009 15.8172 185.909 15.8612 185.813 15.8612C185.717 15.8612 185.617 15.8172 185.513 15.7292L185.321 15.5612C185.217 15.4652 185.165 15.3612 185.165 15.2492C185.165 15.1452 185.213 15.0452 185.309 14.9492C185.653 14.6212 186.017 14.3772 186.401 14.2172C186.785 14.0572 187.213 13.9772 187.685 13.9772ZM187.241 19.2452C187.721 19.2452 188.125 19.1172 188.453 18.8612C188.789 18.6052 188.957 18.2372 188.957 17.7572V17.2052L187.913 17.4212C187.329 17.5412 186.897 17.6772 186.617 17.8292C186.337 17.9812 186.197 18.2132 186.197 18.5252C186.197 18.7492 186.289 18.9252 186.473 19.0532C186.657 19.1812 186.913 19.2452 187.241 19.2452ZM194.298 14.0972C194.474 14.0972 194.654 14.1172 194.838 14.1572C195.054 14.2052 195.162 14.3332 195.162 14.5412C195.162 14.5972 195.158 14.6372 195.15 14.6612L195.09 14.9492C195.042 15.1732 194.922 15.2852 194.73 15.2852L194.622 15.2732C194.478 15.2492 194.35 15.2372 194.238 15.2372C193.838 15.2372 193.514 15.3972 193.266 15.7172C193.026 16.0292 192.906 16.4652 192.906 17.0252V19.6532C192.906 19.7812 192.87 19.8852 192.798 19.9652C192.726 20.0372 192.622 20.0732 192.486 20.0732H192.054C191.926 20.0732 191.822 20.0372 191.742 19.9652C191.67 19.8852 191.634 19.7812 191.634 19.6532V14.5772C191.634 14.4412 191.67 14.3372 191.742 14.2652C191.822 14.1932 191.926 14.1572 192.054 14.1572H192.402C192.538 14.1572 192.642 14.1932 192.714 14.2652C192.786 14.3372 192.822 14.4412 192.822 14.5772V15.0452C192.966 14.7492 193.162 14.5172 193.41 14.3492C193.658 14.1812 193.954 14.0972 194.298 14.0972ZM200.467 20.0732C200.243 20.0732 200.075 19.9812 199.963 19.7972L198.307 17.2292L197.359 18.1892V19.6532C197.359 19.7812 197.323 19.8852 197.251 19.9652C197.179 20.0372 197.075 20.0732 196.939 20.0732H196.507C196.379 20.0732 196.275 20.0372 196.195 19.9652C196.123 19.8852 196.087 19.7812 196.087 19.6532V11.9732C196.087 11.8372 196.123 11.7332 196.195 11.6612C196.275 11.5892 196.379 11.5532 196.507 11.5532H196.939C197.075 11.5532 197.179 11.5892 197.251 11.6612C197.323 11.7332 197.359 11.8372 197.359 11.9732V16.7852L199.627 14.3852C199.771 14.2332 199.947 14.1572 200.155 14.1572H200.611C200.731 14.1572 200.819 14.1812 200.875 14.2292C200.939 14.2692 200.971 14.3252 200.971 14.3972C200.971 14.4932 200.927 14.5852 200.839 14.6732L199.183 16.4012L201.223 19.5692C201.279 19.6572 201.307 19.7372 201.307 19.8092C201.307 19.8892 201.275 19.9532 201.211 20.0012C201.147 20.0492 201.059 20.0732 200.947 20.0732H200.467ZM206.335 18.5612C206.439 18.4732 206.539 18.4292 206.635 18.4292C206.731 18.4292 206.831 18.4812 206.935 18.5852L207.103 18.7652C207.191 18.8692 207.235 18.9692 207.235 19.0652C207.235 19.1692 207.183 19.2692 207.079 19.3652C206.711 19.6852 206.343 19.9132 205.975 20.0492C205.615 20.1852 205.215 20.2532 204.775 20.2532C204.159 20.2532 203.623 20.1252 203.167 19.8692C202.719 19.6132 202.371 19.2532 202.123 18.7892C201.883 18.3172 201.763 17.7732 201.763 17.1572C201.763 16.5492 201.879 16.0052 202.111 15.5252C202.351 15.0372 202.687 14.6572 203.119 14.3852C203.559 14.1132 204.071 13.9772 204.655 13.9772C205.527 13.9772 206.199 14.2372 206.671 14.7572C207.143 15.2692 207.379 15.9772 207.379 16.8812V16.9892C207.371 17.1172 207.331 17.2172 207.259 17.2892C207.187 17.3612 207.083 17.3972 206.947 17.3972H203.011C203.059 17.9252 203.231 18.3572 203.527 18.6932C203.831 19.0212 204.255 19.1852 204.799 19.1852C205.095 19.1852 205.355 19.1412 205.579 19.0532C205.803 18.9572 206.055 18.7932 206.335 18.5612ZM204.631 14.9852C204.191 14.9852 203.835 15.1172 203.563 15.3812C203.299 15.6372 203.127 16.0012 203.047 16.4732H206.131C206.099 16.0092 205.955 15.6452 205.699 15.3812C205.443 15.1172 205.087 14.9852 204.631 14.9852ZM212.732 11.9612C212.732 11.8252 212.768 11.7212 212.84 11.6492C212.92 11.5772 213.024 11.5412 213.152 11.5412H213.584C213.72 11.5412 213.824 11.5772 213.896 11.6492C213.968 11.7212 214.004 11.8252 214.004 11.9612V19.6532C214.004 19.7812 213.968 19.8852 213.896 19.9652C213.824 20.0372 213.72 20.0732 213.584 20.0732H213.236C213.108 20.0732 213.004 20.0372 212.924 19.9652C212.852 19.8852 212.816 19.7812 212.816 19.6532V19.2332C212.4 19.9052 211.748 20.2412 210.86 20.2412C210.364 20.2412 209.916 20.1132 209.516 19.8572C209.124 19.6012 208.816 19.2372 208.592 18.7652C208.368 18.2932 208.256 17.7452 208.256 17.1212C208.256 16.5052 208.368 15.9612 208.592 15.4892C208.824 15.0172 209.14 14.6532 209.54 14.3972C209.94 14.1412 210.388 14.0132 210.884 14.0132C211.7 14.0132 212.316 14.2972 212.732 14.8652V11.9612ZM211.124 19.1492C211.612 19.1492 212.012 18.9692 212.324 18.6092C212.636 18.2412 212.792 17.7452 212.792 17.1212C212.792 16.4972 212.636 16.0052 212.324 15.6452C212.012 15.2852 211.612 15.1052 211.124 15.1052C210.652 15.1052 210.272 15.2892 209.984 15.6572C209.696 16.0252 209.552 16.5132 209.552 17.1212C209.552 17.7372 209.692 18.2292 209.972 18.5972C210.26 18.9652 210.644 19.1492 211.124 19.1492Z" fill="#1B1B1F"/>
</svg>
