<svg xmlns="http://www.w3.org/2000/svg" width="24" height="24" fill="none" viewBox="0 0 24 24"><path fill="currentColor" d="M22.5 15.25a.75.75 0 1 0 0-1.5zm-2.25 3.25a.75.75 0 0 0 1.5 0zm-6.5-2v-.75zM18.5 8h-.75zM3 16.5v-.75zm6 0h-.75c0 .69-.56 1.25-1.25 1.25v1.5a2.75 2.75 0 0 0 2.75-2.75zm-2 2v-.75c-.69 0-1.25-.56-1.25-1.25h-1.5A2.75 2.75 0 0 0 7 19.25zm-2-2h.75c0-.69.56-1.25 1.25-1.25v-1.5a2.75 2.75 0 0 0-2.75 2.75zm2-2v.75c.69 0 1.25.56 1.25 1.25h1.5A2.75 2.75 0 0 0 7 13.75zm-2 2v-.75H3v1.5h2zm17.5-2v-.75h-4v1.5h4zm-1.5 4h.75v-3.866h-1.5V18.5zM18.5 8h-.75v6.5h1.5V8zM2 15.5h.75V8h-1.5v7.502zm16.5-1h-.75v1h1.5v-1zM3 7v.75h14.5v-1.5H3zm14.5 9.5v-.75h-3.75v1.5h3.75zm-3.75 0v-.75H9v1.5h4.75zm4.75-1h-.75a.25.25 0 0 1-.25.25v1.5a1.75 1.75 0 0 0 1.75-1.75zm0-7.5h.75a1.75 1.75 0 0 0-1.75-1.75v1.5a.25.25 0 0 1 .25.25zM2 8h.75A.25.25 0 0 1 3 7.75v-1.5A1.75 1.75 0 0 0 1.25 8zm1 8.5v-.75a.25.25 0 0 1-.25-.249h-1.5A1.75 1.75 0 0 0 3 17.25z"/></svg>