<svg width="32" height="32" viewBox="0 0 32 32" fill="none" xmlns="http://www.w3.org/2000/svg">
<path d="M16 31C24.2843 31 31 24.2843 31 16C31 7.71573 24.2843 1 16 1C7.71573 1 1 7.71573 1 16C1 24.2843 7.71573 31 16 31Z" stroke="#47474F" stroke-width="2" stroke-linecap="round" stroke-linejoin="round"/>
<path d="M10 21H22" stroke="#47474F" stroke-width="2" stroke-linecap="round" stroke-linejoin="round"/>
<path d="M24.9996 12C24.7929 12.5851 24.4099 13.0916 23.9033 13.45C23.3967 13.8083 22.7915 14.0007 22.171 14.0007C21.5504 14.0007 20.9452 13.8083 20.4386 13.45C19.932 13.0916 19.549 12.5851 19.3423 12" stroke="#47474F" stroke-width="2" stroke-linecap="round" stroke-linejoin="round"/>
<path d="M12.6573 12C12.4506 12.5851 12.0676 13.0916 11.561 13.45C11.0544 13.8083 10.4492 14.0007 9.82867 14.0007C9.20816 14.0007 8.60292 13.8083 8.09632 13.45C7.58972 13.0916 7.2067 12.5851 7 12" stroke="#47474F" stroke-width="2" stroke-linecap="round" stroke-linejoin="round"/>
<path d="M19.3569 12.0393C19.5667 12.6077 19.9438 13.0995 20.439 13.4498C20.9456 13.8081 21.5508 14.0005 22.1713 14.0005C22.7918 14.0005 23.3971 13.8081 23.9037 13.4498C24.3988 13.0995 24.7759 12.6077 24.9857 12.0393" stroke="#47474F" stroke-width="2" stroke-linecap="round" stroke-linejoin="round"/>
<path d="M7.02295 12.0618C7.2343 12.6207 7.608 13.1043 8.0967 13.45C8.6033 13.8083 9.20854 14.0007 9.82904 14.0007C10.4495 14.0007 11.0548 13.8083 11.5614 13.45C12.0501 13.1043 12.4238 12.6207 12.6351 12.0618" stroke="#47474F" stroke-width="2" stroke-linecap="round" stroke-linejoin="round"/>
</svg>
