<svg width="32" height="32" viewBox="0 0 32 32" fill="none" xmlns="http://www.w3.org/2000/svg">
<path fill-rule="evenodd" clip-rule="evenodd" d="M9.95263 1.42176C11.5169 1.35038 12.0164 1.3335 15.9996 1.3335C19.9829 1.3335 20.4823 1.35038 22.0467 1.42176C23.6078 1.49296 24.6739 1.74092 25.6069 2.10351C26.5714 2.47826 27.3893 2.97977 28.2046 3.79513C29.0201 4.61055 29.5215 5.42848 29.8963 6.39288C30.2589 7.32585 30.5069 8.39196 30.5781 9.95312C30.6495 11.5175 30.6663 12.0169 30.6663 16.0001C30.6663 19.9834 30.6495 20.4829 30.5781 22.0472C30.5069 23.6083 30.2589 24.6745 29.8963 25.6074C29.5215 26.5718 29.0201 27.3898 28.2046 28.2051C27.3893 29.0206 26.5714 29.522 25.6069 29.8969C24.6739 30.2594 23.6078 30.5074 22.0467 30.5786C20.4823 30.6499 19.9829 30.6668 15.9996 30.6668C12.0164 30.6668 11.5169 30.6499 9.95263 30.5786C8.39147 30.5074 7.32536 30.2594 6.39239 29.8969C5.42799 29.522 4.61 29.0206 3.79464 28.2051C2.97922 27.3898 2.47778 26.5718 2.10296 25.6074C1.74037 24.6745 1.49247 23.6083 1.42121 22.0472C1.34983 20.4829 1.33301 19.9834 1.33301 16.0001C1.33301 12.0169 1.34983 11.5175 1.42121 9.95312C1.49247 8.39196 1.74037 7.32585 2.10296 6.39288C2.47778 5.42848 2.97922 4.61055 3.79464 3.79513C4.61 2.97977 5.42799 2.47826 6.39239 2.10351C7.32536 1.74092 8.39147 1.49296 9.95263 1.42176ZM21.9261 4.06154C20.3796 3.99098 19.9158 3.97607 15.9996 3.97607C12.0834 3.97607 11.6196 3.99098 10.073 4.06154C8.64304 4.1268 7.86639 4.36574 7.34958 4.56659C6.66503 4.83266 6.1764 5.15048 5.66319 5.66374C5.14999 6.17694 4.83211 6.66552 4.56605 7.35012C4.36525 7.86694 4.12632 8.64353 4.06105 10.0735C3.99049 11.6201 3.97559 12.0839 3.97559 16.0001C3.97559 19.9163 3.99049 20.3802 4.06105 21.9267C4.12632 23.3567 4.36525 24.1333 4.56605 24.6501C4.83211 25.3346 5.14999 25.8233 5.66319 26.3365C6.1764 26.8497 6.66503 27.1675 7.34958 27.4336C7.86639 27.6344 8.64304 27.8734 10.073 27.9386C11.6193 28.0092 12.0831 28.0241 15.9996 28.0241C19.9161 28.0241 20.3798 28.0092 21.9261 27.9386C23.3561 27.8734 24.1327 27.6344 24.6495 27.4336C25.3341 27.1675 25.8228 26.8497 26.336 26.3365C26.8492 25.8233 27.167 25.3346 27.4331 24.6501C27.6339 24.1333 27.8729 23.3567 27.9381 21.9266C28.0086 20.3802 28.0236 19.9163 28.0236 16.0001C28.0236 12.0839 28.0086 11.6201 27.9381 10.0735C27.8729 8.64353 27.6339 7.86694 27.4331 7.35012C27.167 6.66552 26.8492 6.17694 26.336 5.66368C25.8228 5.15048 25.3341 4.83266 24.6495 4.56659C24.1327 4.36574 23.3561 4.1268 21.9261 4.06154ZM11.111 16C11.111 18.7001 13.2999 20.8889 15.9999 20.8889C18.7 20.8889 20.8888 18.7001 20.8888 16C20.8888 13.3 18.7 11.1112 15.9999 11.1112C13.2999 11.1112 11.111 13.3 11.111 16ZM8.46777 16.0001C8.46777 11.8405 11.8398 8.46859 15.9993 8.46859C20.1589 8.46859 23.5308 11.8405 23.5308 16.0001C23.5308 20.1597 20.1589 23.5316 15.9993 23.5316C11.8398 23.5316 8.46777 20.1597 8.46777 16.0001ZM23.829 9.93083C24.8011 9.93083 25.589 9.14289 25.589 8.17086C25.589 7.19883 24.8011 6.41089 23.829 6.41089C22.857 6.41089 22.069 7.19883 22.069 8.17086C22.069 9.14289 22.857 9.93083 23.829 9.93083Z" fill="#47474F"/>
<mask id="mask0_6946_535" style="mask-type:luminance" maskUnits="userSpaceOnUse" x="1" y="1" width="30" height="30">
<path fill-rule="evenodd" clip-rule="evenodd" d="M9.95263 1.42176C11.5169 1.35038 12.0164 1.3335 15.9996 1.3335C19.9829 1.3335 20.4823 1.35038 22.0467 1.42176C23.6078 1.49296 24.6739 1.74092 25.6069 2.10351C26.5714 2.47826 27.3893 2.97977 28.2046 3.79513C29.0201 4.61055 29.5215 5.42848 29.8963 6.39288C30.2589 7.32585 30.5069 8.39196 30.5781 9.95311C30.6495 11.5175 30.6663 12.0169 30.6663 16.0001C30.6663 19.9834 30.6495 20.4829 30.5781 22.0472C30.5069 23.6083 30.2589 24.6745 29.8963 25.6074C29.5215 26.5718 29.0201 27.3898 28.2046 28.2051C27.3893 29.0206 26.5714 29.522 25.6069 29.8969C24.6739 30.2594 23.6078 30.5074 22.0467 30.5786C20.4823 30.6499 19.9829 30.6668 15.9996 30.6668C12.0164 30.6668 11.5169 30.6499 9.95263 30.5786C8.39147 30.5074 7.32536 30.2594 6.39239 29.8969C5.42799 29.522 4.61 29.0206 3.79464 28.2051C2.97922 27.3898 2.47778 26.5718 2.10296 25.6074C1.74037 24.6745 1.49247 23.6083 1.42121 22.0472C1.34983 20.4829 1.33301 19.9834 1.33301 16.0001C1.33301 12.0169 1.34983 11.5175 1.42121 9.95311C1.49247 8.39196 1.74037 7.32585 2.10296 6.39288C2.47778 5.42848 2.97922 4.61055 3.79464 3.79513C4.61 2.97977 5.42799 2.47826 6.39239 2.10351C7.32536 1.74092 8.39147 1.49296 9.95263 1.42176ZM21.9261 4.06154C20.3796 3.99098 19.9158 3.97607 15.9996 3.97607C12.0834 3.97607 11.6196 3.99098 10.073 4.06154C8.64304 4.1268 7.86639 4.36574 7.34958 4.56659C6.66503 4.83266 6.1764 5.15048 5.66319 5.66374C5.14999 6.17694 4.83211 6.66552 4.56605 7.35012C4.36525 7.86694 4.12632 8.64353 4.06105 10.0735C3.99049 11.6201 3.97559 12.0839 3.97559 16.0001C3.97559 19.9163 3.99049 20.3802 4.06105 21.9267C4.12632 23.3567 4.36525 24.1333 4.56605 24.6501C4.83211 25.3346 5.14999 25.8233 5.66319 26.3365C6.1764 26.8497 6.66503 27.1675 7.34958 27.4336C7.86639 27.6344 8.64304 27.8734 10.073 27.9386C11.6193 28.0092 12.0831 28.0241 15.9996 28.0241C19.9161 28.0241 20.3798 28.0092 21.9261 27.9386C23.3561 27.8734 24.1327 27.6344 24.6495 27.4336C25.3341 27.1675 25.8228 26.8497 26.336 26.3365C26.8492 25.8233 27.167 25.3346 27.4331 24.6501C27.6339 24.1333 27.8729 23.3567 27.9381 21.9266C28.0086 20.3802 28.0236 19.9163 28.0236 16.0001C28.0236 12.0839 28.0086 11.6201 27.9381 10.0735C27.8729 8.64353 27.6339 7.86694 27.4331 7.35012C27.167 6.66552 26.8492 6.17694 26.336 5.66368C25.8228 5.15048 25.3341 4.83266 24.6495 4.56659C24.1327 4.36574 23.3561 4.1268 21.9261 4.06154ZM11.111 16C11.111 18.7001 13.2999 20.8889 15.9999 20.8889C18.7 20.8889 20.8888 18.7001 20.8888 16C20.8888 13.3 18.7 11.1112 15.9999 11.1112C13.2999 11.1112 11.111 13.3 11.111 16ZM8.46777 16.0001C8.46777 11.8405 11.8398 8.46859 15.9993 8.46859C20.1589 8.46859 23.5308 11.8405 23.5308 16.0001C23.5308 20.1597 20.1589 23.5316 15.9993 23.5316C11.8398 23.5316 8.46777 20.1597 8.46777 16.0001ZM23.829 9.93083C24.8011 9.93083 25.589 9.14289 25.589 8.17086C25.589 7.19883 24.8011 6.41089 23.829 6.41089C22.857 6.41089 22.069 7.19883 22.069 8.17086C22.069 9.14289 22.857 9.93083 23.829 9.93083Z" fill="white"/>
</mask>
<g mask="url(#mask0_6946_535)">
</g>
</svg>
