<svg width="32" height="32" viewBox="0 0 32 32" fill="none" xmlns="http://www.w3.org/2000/svg">
<path d="M8.96338 7.30258C9.07998 6.13394 9.48868 5.01341 10.1519 4.04414C10.8151 3.07486 11.7114 2.28799 12.7584 1.75595C13.8055 1.22392 14.9695 0.963814 16.1434 0.999587C17.3173 1.03536 18.4633 1.36586 19.476 1.96066C20.4887 2.55547 21.3355 3.39546 21.9384 4.40332C22.5413 5.41118 22.881 6.55451 22.9263 7.72808C22.9715 8.90165 22.7208 10.0677 22.1972 11.119C21.6834 12.1505 20.9232 13.0389 19.9842 13.7058" stroke="#47474F" stroke-width="2" stroke-linecap="round" stroke-linejoin="round"/>
<path d="M9.91943 4.4668C11.0029 5.58538 12.3003 6.47461 13.7344 7.08161C15.1686 7.68862 16.7101 8.00098 18.2674 8.00013C19.7991 8.00166 21.3155 7.70005 22.7294 7.11313" stroke="#47474F" stroke-width="2" stroke-linecap="round" stroke-linejoin="round"/>
<path d="M14.4312 13C14.0356 13 13.6489 13.1173 13.32 13.3371C12.9911 13.5568 12.7348 13.8692 12.5834 14.2346C12.432 14.6001 12.3924 15.0022 12.4696 15.3902C12.5468 15.7781 12.7372 16.1345 13.0169 16.4142C13.2966 16.6939 13.653 16.8844 14.041 16.9616C14.4289 17.0387 14.8311 16.9991 15.1965 16.8478C15.562 16.6964 15.8743 16.44 16.0941 16.1111C16.3139 15.7822 16.4312 15.3956 16.4312 15C16.4312 14.4696 16.2204 13.9609 15.8454 13.5858C15.4703 13.2107 14.9616 13 14.4312 13Z" stroke="#47474F" stroke-width="2" stroke-linecap="round" stroke-linejoin="round"/>
<path d="M6.43115 9.5625V10.9998C6.43115 12.0607 6.85258 13.0781 7.60273 13.8283C8.35287 14.5784 9.37029 14.9998 10.4312 14.9998H12.3288" stroke="#47474F" stroke-width="2" stroke-linecap="round" stroke-linejoin="round"/>
<path d="M28.9334 30.9998C28.9334 28.622 28.2807 26.2898 27.0463 24.2575C25.817 22.2334 24.0577 20.5841 21.959 19.4878" stroke="#47474F" stroke-width="2" stroke-linecap="round" stroke-linejoin="round"/>
<path d="M2.93359 31.0001C2.93333 28.6226 3.58567 26.2906 4.81953 24.2583C6.04723 22.2361 7.80378 20.5879 9.89937 19.4912" stroke="#47474F" stroke-width="2" stroke-linecap="round" stroke-linejoin="round"/>
</svg>
