<svg width="32" height="32" viewBox="0 0 32 32" fill="none" xmlns="http://www.w3.org/2000/svg">
<g clip-path="url(#clip0_10218_142)">
<path d="M9 31.9976C8.448 31.9976 8 31.5496 8 30.9976C8 30.4456 8.448 29.9976 9 29.9976H19C21.7573 29.9976 24 27.7549 24 24.9976C24 21.9162 21.8907 20.0242 18.48 17.9976H1C0.448 17.9976 0 17.5496 0 16.9976C0 16.4456 0.448 15.9976 1 15.9976H14.9773C11.3333 13.8816 8 11.4602 8 6.99756C8 3.26823 11.568 -0.00244141 15.636 -0.00244141H25C25.552 -0.00244141 26 0.445559 26 0.997559C26 1.54956 25.552 1.99756 25 1.99756H15.636C12.4107 1.99756 10 4.63756 10 6.99756C10 10.9122 13.6387 12.9589 17.4907 15.1256C18.0027 15.4136 18.5147 15.7029 19.0227 15.9976H31.0013C31.5533 15.9976 32.0013 16.4456 32.0013 16.9976C32.0013 17.5496 31.5533 17.9976 31.0013 17.9976H22.088C24.1107 19.5496 26.0013 21.7162 26.0013 24.9976C26.0013 28.8576 22.8613 31.9976 19.0013 31.9976H9Z" fill="#47474F"/>
</g>
<defs>
<clipPath id="clip0_10218_142">
<rect width="32" height="32" fill="white"/>
</clipPath>
</defs>
</svg>
