<svg width="24" height="24" viewBox="0 0 24 24" fill="none" xmlns="http://www.w3.org/2000/svg">
<path d="M18.6003 15.6001L15.0003 6.00007H12.5M16.2 15.6C16.2 16.9255 17.2745 18 18.6 18C19.9255 18 21 16.9255 21 15.6C21 14.2746 19.9255 13.2 18.6 13.2C17.2745 13.2 16.2 14.2746 16.2 15.6ZM16.2 15.6L3 15.6C2.99976 14.8554 3.23045 14.129 3.66028 13.5209C4.09011 12.9128 4.69793 12.453 5.4 12.2048V10.2M9 15.6C9 16.2366 8.74714 16.847 8.29706 17.2971C7.84697 17.7472 7.23652 18 6.6 18C5.96348 18 5.35303 17.7472 4.90294 17.2971C4.45286 16.847 4.2 16.2366 4.2 15.6M4.2 10.2H10.2L12.225 15.6" stroke="#1B1B1F" stroke-width="1.5" stroke-linecap="round" stroke-linejoin="round"/>
</svg>
