<svg width="32" height="32" viewBox="0 0 32 32" fill="none" xmlns="http://www.w3.org/2000/svg">
  <path d="M0 28V4c0-2.5 2-4 4-4h24c2 0 4 1.5 4 4v24c0 2.5-2 4-4 4H4c-2 0-4-1.5-4-4Z" fill="#0B6DFF"/>
  <path d="M28 31v1H4v-1h24Zm3-3V4c0-1.868-1.469-3-3-3H4C2.469 1 1 2.132 1 4v24c0 1.868 1.469 3 3 3v1c-2 0-4-1.5-4-4V4c0-2.5 2-4 4-4h24c2 0 4 1.5 4 4v24c0 2.5-2 4-4 4v-1c1.531 0 3-1.132 3-3Z" fill="#fff"/>
  <path d="M12.775 13.84h-.748l-.021.185c-.056.503-.252.73-.678.872v.667h.37v1.773c0 .816.37 1.163 1.09 1.163.238 0 .455-.035.643-.092v-1.05a.94.94 0 0 1-.377.092c-.168 0-.28-.078-.28-.305v-1.581h.693v-.958h-.692v-.765ZM9.82 16.968c0 .305-.169.49-.441.49-.273 0-.42-.185-.42-.49v-2.362H7.885v2.624c0 .773.447 1.263 1.18 1.263.35 0 .644-.114.874-.362h.014v.32h.944v-3.845H9.819v2.362ZM28 14.606h-1.125l-.461 1.164H26.4l-.468-1.164h-1.238l.888 1.844-.888 2h1.14l.46-1.248h.015l.468 1.248h1.216l-.88-1.943.887-1.9ZM4.957 13.5 4 18.45h1.111l.105-.645h1.076l.105.645h1.146l-.971-4.95H4.957Zm.413 3.376.384-2.312h.014l.377 2.312H5.37ZM15.695 14.557c-1.16 0-1.929.794-1.929 1.971 0 1.178.769 1.972 1.929 1.972 1.16 0 1.922-.787 1.922-1.972 0-1.184-.769-1.971-1.922-1.971Zm0 2.872c-.475 0-.81-.369-.81-.9 0-.533.328-.901.81-.901.482 0 .804.361.804.9 0 .54-.329.901-.804.901ZM22.859 14.564c-1.14 0-1.908.766-1.908 1.971 0 1.206.769 1.958 2.09 1.958.39 0 .831-.071 1.194-.241v-1.085c-.328.234-.747.34-1.132.34-.503 0-.887-.191-1.02-.631h2.446c.259-1.49-.49-2.312-1.67-2.312Zm-.776 1.496c.112-.354.37-.574.748-.574.377 0 .657.198.706.574h-1.454ZM19.978 13.5l-.654 3.886h-.002v.003h-.012l-.63-3.889h-1.145l.97 4.95h1.615l.957-4.95h-1.099Z" fill="#fff"/>
</svg>
