<svg width="24" height="24" viewBox="0 0 24 24" fill="none" xmlns="http://www.w3.org/2000/svg">
<path d="M6 19.5V20.25V19.5ZM6 15.5V14.75V15.5ZM8 17.5H7.25H8ZM13 18.25C13.4142 18.25 13.75 17.9142 13.75 17.5C13.75 17.0858 13.4142 16.75 13 16.75V17.5V18.25ZM20.1318 15.2306L20.7829 14.8585V14.8585L20.1318 15.2306ZM22 18.5V19.25C22.2674 19.25 22.5145 19.1077 22.6487 18.8764C22.7829 18.6452 22.7838 18.36 22.6512 18.1279L22 18.5ZM17.5 17.75C17.0858 17.75 16.75 18.0858 16.75 18.5C16.75 18.9142 17.0858 19.25 17.5 19.25V18.5V17.75ZM2.5 14.6667L1.75 14.6667V14.6667H2.5ZM2.7 15.2667L3.30025 14.817L3.3 14.8167L2.7 15.2667ZM3.44746 17.5154C3.6958 17.8469 4.16586 17.9143 4.49737 17.666C4.82888 17.4176 4.89631 16.9476 4.64796 16.6161L4.04771 17.0657L3.44746 17.5154ZM21 5L21.7211 5.20604C21.7858 4.97975 21.7405 4.73624 21.5988 4.54835C21.457 4.36047 21.2353 4.25 21 4.25V5ZM20.0385 8.36533L20.7596 8.57138V8.57137L20.0385 8.36533ZM14.4826 5V4.25H13.7326V5H14.4826ZM10.784 9.05991L10.4394 8.39374H10.4394L10.784 9.05991ZM8.21597 10.3881L7.87142 9.72195V9.72195L8.21597 10.3881ZM2.50007 11.4309L3.25007 11.4309V11.4309H2.50007ZM5.99995 6.49991V5.74991C5.80105 5.74991 5.61029 5.82892 5.46964 5.96956L5.99995 6.49991ZM4.46956 6.96956C4.17665 7.26244 4.17663 7.73731 4.46951 8.03022C4.76239 8.32312 5.23727 8.32314 5.53017 8.03026L4.99987 7.49991L4.46956 6.96956ZM6 19.5V18.75C5.66848 18.75 5.35054 18.6183 5.11612 18.3839L4.58579 18.9142L4.05546 19.4445C4.57118 19.9603 5.27066 20.25 6 20.25V19.5ZM4.58579 18.9142L5.11612 18.3839C4.8817 18.1495 4.75 17.8315 4.75 17.5H4H3.25C3.25 18.2293 3.53973 18.9288 4.05546 19.4445L4.58579 18.9142ZM4 17.5H4.75C4.75 17.1685 4.8817 16.8505 5.11612 16.6161L4.58579 16.0858L4.05546 15.5555C3.53973 16.0712 3.25 16.7707 3.25 17.5H4ZM4.58579 16.0858L5.11612 16.6161C5.35054 16.3817 5.66848 16.25 6 16.25V15.5V14.75C5.27066 14.75 4.57118 15.0397 4.05546 15.5555L4.58579 16.0858ZM6 15.5V16.25C6.33152 16.25 6.64946 16.3817 6.88388 16.6161L7.41421 16.0858L7.94454 15.5555C7.42882 15.0397 6.72934 14.75 6 14.75V15.5ZM7.41421 16.0858L6.88388 16.6161C7.1183 16.8505 7.25 17.1685 7.25 17.5H8H8.75C8.75 16.7707 8.46027 16.0712 7.94454 15.5555L7.41421 16.0858ZM8 17.5H7.25C7.25 17.8315 7.1183 18.1495 6.88388 18.3839L7.41421 18.9142L7.94454 19.4445C8.46027 18.9288 8.75 18.2293 8.75 17.5H8ZM7.41421 18.9142L6.88388 18.3839C6.64946 18.6183 6.33152 18.75 6 18.75V19.5V20.25C6.72934 20.25 7.42882 19.9603 7.94454 19.4445L7.41421 18.9142ZM8 17.5V18.25H13V17.5V16.75H8V17.5ZM20 12H19.25V14.7344H20H20.75V12H20ZM20.1318 15.2306L19.4806 15.6027L21.3488 18.8721L22 18.5L22.6512 18.1279L20.7829 14.8585L20.1318 15.2306ZM22 18.5V17.75H17.5V18.5V19.25H22V18.5ZM2.7 15.2667L2.09975 15.7163L3.44746 17.5154L4.04771 17.0657L4.64796 16.6161L3.30025 14.817L2.7 15.2667ZM2.5 14.6667H1.75C1.75 15.0453 1.87281 15.4137 2.1 15.7167L2.7 15.2667L3.3 14.8167C3.26754 14.7734 3.25 14.7208 3.25 14.6667H2.5ZM20 14.7344H19.25C19.25 15.039 19.3295 15.3383 19.4806 15.6027L20.1318 15.2306L20.7829 14.8585C20.7614 14.8207 20.75 14.7779 20.75 14.7344H20ZM21 5L20.2789 4.79396L19.3173 8.15929L20.0385 8.36533L20.7596 8.57137L21.7211 5.20604L21 5ZM14.4826 5V5.75H21V5V4.25H14.4826V5ZM14.4826 5H13.7326V11H14.4826H15.2326V5H14.4826ZM20 8.64005H19.25V12H20H20.75V8.64005H20ZM15.4826 12V12.75H20V12V11.25H15.4826V12ZM14.4826 11H13.7326C13.7326 11.9665 14.5161 12.75 15.4826 12.75V12V11.25C15.3445 11.25 15.2326 11.1381 15.2326 11H14.4826ZM20.0385 8.36533L19.3173 8.15929C19.2727 8.31564 19.25 8.47745 19.25 8.64005H20H20.75C20.75 8.61683 20.7532 8.59371 20.7596 8.57138L20.0385 8.36533ZM14.5001 8.94813V8.19813H11.2434V8.94813V9.69813H14.5001V8.94813ZM10.784 9.05991L10.4394 8.39374L7.87142 9.72195L8.21597 10.3881L8.56053 11.0543L11.1285 9.72608L10.784 9.05991ZM7.75657 10.4999V9.74989H3.4311V10.4999V11.2499H7.75657V10.4999ZM3.4311 10.4999V9.74989C2.50269 9.74989 1.75007 10.5025 1.75007 11.4309H2.50007H3.25007C3.25007 11.3309 3.33112 11.2499 3.4311 11.2499V10.4999ZM8.21597 10.3881L7.87142 9.72195C7.83592 9.74031 7.79653 9.74989 7.75657 9.74989V10.4999V11.2499C8.03634 11.2499 8.31203 11.1828 8.56053 11.0543L8.21597 10.3881ZM11.2434 8.94813V8.19813C10.9636 8.19813 10.6879 8.26521 10.4394 8.39374L10.784 9.05991L11.1285 9.72608C11.164 9.70771 11.2034 9.69813 11.2434 9.69813V8.94813ZM5.99995 6.49991L5.46964 5.96956L4.46956 6.96956L4.99987 7.49991L5.53017 8.03026L6.53026 7.03026L5.99995 6.49991ZM5.99995 6.49991V7.24991H14.4998V6.49991V5.74991H5.99995V6.49991ZM13 17H12.25C12.25 18.7949 13.7051 20.25 15.5 20.25V19.5V18.75C14.5335 18.75 13.75 17.9665 13.75 17H13ZM15.5 19.5V20.25C17.2949 20.25 18.75 18.7949 18.75 17H18H17.25C17.25 17.9665 16.4665 18.75 15.5 18.75V19.5ZM18 17H18.75C18.75 15.2051 17.2949 13.75 15.5 13.75V14.5V15.25C16.4665 15.25 17.25 16.0335 17.25 17H18ZM15.5 14.5V13.75C13.7051 13.75 12.25 15.2051 12.25 17H13H13.75C13.75 16.0335 14.5335 15.25 15.5 15.25V14.5ZM2.50007 11.4309L1.75007 11.4309L1.75 14.6667L2.5 14.6667L3.25 14.6667L3.25007 11.4309L2.50007 11.4309Z" fill="#1B1B1F"/>
</svg>
