<svg width="24" height="24" viewBox="0 0 24 24" fill="none" xmlns="http://www.w3.org/2000/svg"><path fill-rule="evenodd" clip-rule="evenodd" d="M12 3a9 9 0 0 0-6.019 15.691 6.75 6.75 0 0 1 2.488-2.697C9.49 15.367 10.802 15.025 12 15c1.2.025 2.508.366 3.531.994a6.749 6.749 0 0 1 2.488 2.697l-.004.004A9 9 0 0 0 12 3Zm0 3c-2.323 0-4.206 1.905-4.206 4.256a4.045 4.045 0 0 0 .203 1.265c.445 1.358 1.594 2.426 2.976 2.825.812.109 1.285.124 2.058 0 1.785-.516 3.175-2.153 3.175-4.09C16.206 7.906 14.323 6 12 6Z" fill="#1B1B1F"/><path d="M13.265 20.912a8.967 8.967 0 0 0 4.75-2.217m-4.75 2.217a9.337 9.337 0 0 1-3.938-.316m3.938.316c1.882-.249 3.598-1.05 4.75-2.217m-4.75 2.217a9.065 9.065 0 0 1-3.938-.316m8.688-1.901.004-.004a6.749 6.749 0 0 0-2.488-2.697C14.508 15.366 13.2 15.024 12 15c-1.198.025-2.51.367-3.531.994a6.75 6.75 0 0 0-2.488 2.697l.048.044m11.986-.04a9 9 0 1 0-11.986.04m0 0a8.986 8.986 0 0 0 3.298 1.861m-3.298-1.861c1.001.898 2.13 1.505 3.298 1.861m-1.533-10.34C7.794 7.906 9.677 6 12 6c2.323 0 4.206 1.905 4.206 4.256 0 1.937-1.39 3.574-3.175 4.09-.773.124-1.246.109-2.058 0-1.382-.4-2.53-1.467-2.976-2.825a4.087 4.087 0 0 1-.203-1.265Z" stroke="#1B1B1F" stroke-width="1.5" stroke-linecap="round" stroke-linejoin="round"/></svg>