<svg width="32" height="32" viewBox="0 0 32 32" fill="none" xmlns="http://www.w3.org/2000/svg">
<g clip-path="url(#clip0_7142_182)">
<path fill-rule="evenodd" clip-rule="evenodd" d="M0 16C0 7.16344 7.16344 0 16 0C24.8365 0 32 7.16344 32 16C32 24.8365 24.8365 32 16 32C7.16344 32 0 24.8365 0 16ZM16 30C12.8339 30 9.91329 28.9491 7.56799 27.1769C8.66225 26.0909 9.94359 25.2259 11.3456 24.6259C12.8261 23.9924 14.4127 23.6667 16.0144 23.6667C17.6161 23.6667 19.2028 23.9924 20.6833 24.6259C22.08 25.2236 23.3569 26.0843 24.4484 27.1645C22.1003 28.9441 19.1735 30 16 30ZM16 5.33333C11.5817 5.33333 8 8.91505 8 13.3333C8 17.7516 11.5817 21.3333 16 21.3333C20.4183 21.3333 24 17.7516 24 13.3333C24 8.91505 20.4183 5.33333 16 5.33333ZM10.5412 10.8396C10.1937 11.599 10 12.4436 10 13.3333C10 16.6471 12.6863 19.3333 16 19.3333C19.3137 19.3333 22 16.6471 22 13.3333C22 13.1854 21.9947 13.0387 21.9841 12.8935C20.8431 13.1852 19.6537 13.3336 18.4572 13.3333C16.8959 13.3336 15.3464 13.0803 13.9008 12.5855C12.673 12.1652 11.536 11.5761 10.5412 10.8396Z" fill="#47474F"/>
</g>
<defs>
<clipPath id="clip0_7142_182">
<rect width="32" height="32" fill="white"/>
</clipPath>
</defs>
</svg>
