<svg width="96" height="32" viewBox="0 0 96 32" fill="none" xmlns="http://www.w3.org/2000/svg">
  <path d="M70.95 4.376v-.001c0 .846-.356 2.447-.58 3.629-.192 1.012-.455 2.38-2.135 2.38-3.457 0-2.982-4.527-5.793-4.527-1.16 0-1.848.894-1.848 2.006 0 .834.496 1.613 1.256 2.19l2.797 2.164c2.335 1.657 3.284 3.86 3.284 5.563 0 3.204-2.715 5.596-5.99 5.596H55c-2.62 0-3.94-.818-4.699-2.741-.2-.578-1.273-3.404-1.273-4.397 0-1.5 1.007-2.658 2.543-2.658 2.957 0 4.249 4.525 6.68 4.525.956 0 1.666-.851 1.666-1.732 0-.657-.413-1.366-1.174-1.943l-2.43-1.972c-2.034-1.587-3.192-3.413-3.192-5.36 0-3.568 2.74-6.803 6.987-6.803h6.98c2.244 0 3.862 2.047 3.862 4.081ZM46.73 15.102c0 1.549.708 3.316.708 4.903 0 1.732-1.34 3.37-3.314 3.37-2.472 0-2.466-2.415-3.827-2.415-1.36 0-1.458 2.709-5.762 2.709-4.303 0-9.058-4.703-9.058-11.052 0-6.349 4.07-12.03 10.385-12.03 3.61 0 4.926 2.263 6.17 2.263 1.618 0 1.64-2.85 4.564-2.85 1.833 0 3.278 1.565 3.278 3.418 0 2.956-3.144 7.403-3.144 11.684Zm-5.952-2.973c0-2.456-1.936-4.446-4.325-4.446-2.388 0-4.324 1.99-4.324 4.446 0 2.456 1.936 4.447 4.325 4.447 2.388 0 4.324-1.991 4.324-4.447Zm52.077 2.974c0 1.548.708 3.316.708 4.903 0 1.732-1.34 3.37-3.314 3.37-2.471 0-2.466-2.415-3.827-2.415-1.36 0-1.459 2.709-5.762 2.709-4.304 0-9.058-4.704-9.058-11.053 0-6.348 4.07-12.03 10.385-12.03 3.61 0 4.926 2.263 6.17 2.263 1.618 0 1.64-2.85 4.564-2.85C94.555 0 96 1.565 96 3.418c0 2.956-3.144 7.403-3.144 11.683v.002Zm-5.952-2.973c0-2.456-1.936-4.447-4.325-4.447-2.388 0-4.324 1.99-4.324 4.447 0 2.455 1.936 4.446 4.324 4.446 2.389 0 4.325-1.99 4.325-4.446ZM24.93 3.464c0 1.509-.901 3.813-2.092 8.704-1.19 4.892-1.878 7.525-1.878 9.948 0 2.422 1.097 3.936 1.097 6.046 0 2.11-1.673 3.838-3.314 3.838h-2.875c-1.86 0-3.265-2.052-3.265-3.838 0-3.086 3.234-4.015 3.234-5.967 0-.818-.558-1.528-1.366-1.528-1.535 0-1.885 2.122-5.354 2.122C4.796 22.789 0 18.512 0 12.025 0 5.54 5.098.588 10.478.588c3.885 0 4.854 2.263 6.427 2.263 1.674 0 1.889-2.85 4.655-2.85 1.697 0 3.369 1.406 3.369 3.463ZM15.84 12.13c0-2.456-1.936-4.446-4.324-4.446s-4.324 1.99-4.324 4.446c0 2.456 1.936 4.447 4.324 4.447s4.324-1.991 4.324-4.447Z" fill="#342620"/>
</svg>
