<svg width="42" height="28" viewBox="0 0 42 28" fill="none" xmlns="http://www.w3.org/2000/svg">
<path d="M33.8569 9.16064V11.2142" stroke="#47474F" stroke-width="2" stroke-linecap="round" stroke-linejoin="round"/>
<path d="M38.1426 20.2501C38.1426 22.9721 35.8401 25.1787 32.9998 25.1787C30.1595 25.1787 27.8569 22.9721 27.8569 20.2501C27.8569 17.5281 30.1595 15.3215 32.9998 15.3215C35.8401 15.3215 38.1426 17.5281 38.1426 20.2501Z" stroke="#47474F" stroke-width="2" stroke-linecap="round" stroke-linejoin="round"/>
<path d="M14.1426 20.2501C14.1426 22.9721 11.8401 25.1787 8.99978 25.1787C6.15946 25.1787 3.85693 22.9721 3.85693 20.2501C3.85693 17.5281 6.15946 15.3215 8.99978 15.3215C11.8401 15.3215 14.1426 17.5281 14.1426 20.2501Z" stroke="#47474F" stroke-width="2" stroke-linecap="round" stroke-linejoin="round"/>
<path d="M14.1431 12.0357H20.1431L21.3836 9.65815C21.6739 9.10157 22.2675 8.75 22.9169 8.75H31.2859" stroke="#47474F" stroke-width="2" stroke-linecap="round" stroke-linejoin="round"/>
<path d="M7.28564 9.57143H11.9999L14.1427 12.0357L17.5713 16.1429V20.25H22.7142L26.1427 13.6786L31.2856 11.625V8.75" stroke="#47474F" stroke-width="2" stroke-linecap="round" stroke-linejoin="round"/>
<path d="M17.5715 16.1428L13.7144 17.7857" stroke="#47474F" stroke-width="2" stroke-linecap="round" stroke-linejoin="round"/>
<path d="M31.2856 8.74997L25.2856 4.64282" stroke="#47474F" stroke-width="2" stroke-linecap="round" stroke-linejoin="round"/>
<path d="M30.4287 15.7322L28.7144 12.8572" stroke="#47474F" stroke-width="2" stroke-linecap="round" stroke-linejoin="round"/>
</svg>
