<svg width="24" height="24" viewBox="0 0 24 24" fill="none" xmlns="http://www.w3.org/2000/svg">
  <path d="M8.08 10h3.775l.58-.857.581-.857h4.355M8.081 10 6.919 8.571H4.887M8.081 10l2.322 2.6m6.968-4.314V10l-2.903 1.143-1.452 3.428h-1.742l-.87-1.971m6.967-4.314-1.996-2.661M10.403 12.6l-2.322 1.362m9-1.153-.871-2.238M21 15.257C21 16.772 19.791 18 18.3 18s-2.7-1.228-2.7-2.743 1.209-2.743 2.7-2.743 2.7 1.228 2.7 2.743Zm-12.6 0C8.4 16.772 7.191 18 5.7 18S3 16.772 3 15.257s1.209-2.743 2.7-2.743 2.7 1.228 2.7 2.743Z" stroke="#1B1B1F" stroke-width="1.5" stroke-linecap="round" stroke-linejoin="round"/>
</svg>
