<svg width="32" height="32" viewBox="0 0 32 32" fill="none" xmlns="http://www.w3.org/2000/svg">
<path d="M30.5005 11.5L29.0005 12L28.0005 13.9999L25.8557 6.8506C25.3481 5.15867 23.7908 4 22.0244 4H9.97661C8.21018 4 6.65289 5.15867 6.1453 6.8506L4.00049 13.9999L3.00049 12L1.50049 11.5" stroke="#47474F" stroke-width="2" stroke-linecap="round" stroke-linejoin="round"/>
<path d="M2.00049 25.957V27.9997C2.00049 28.5301 2.2112 29.0388 2.58627 29.4139C2.96135 29.789 3.47006 29.9997 4.00049 29.9997C4.53092 29.9997 5.03963 29.789 5.4147 29.4139C5.78977 29.0388 6.00049 28.5301 6.00049 27.9997V26.0614" stroke="#47474F" stroke-width="2" stroke-linecap="round" stroke-linejoin="round"/>
<path d="M30.0005 25.957V27.9997C30.0005 28.5301 29.7898 29.0388 29.4147 29.4139C29.0396 29.789 28.5309 29.9997 28.0005 29.9997C27.4701 29.9997 26.9613 29.789 26.5863 29.4139C26.2112 29.0388 26.0005 28.5301 26.0005 27.9997V26.0614" stroke="#47474F" stroke-width="2" stroke-linecap="round" stroke-linejoin="round"/>
<path d="M3.66716 14H16.0005H28.3338C29.0411 14 29.7193 14.3065 30.2194 14.8521C30.7195 15.3976 31.0005 16.1376 31.0005 16.9091V24.5455C31.0005 24.9312 30.86 25.3012 30.61 25.574C30.3599 25.8468 30.0208 26 29.6672 26H2.33382C1.9802 26 1.64106 25.8468 1.39101 25.574C1.14096 25.3012 1.00049 24.9312 1.00049 24.5455V16.9091C1.00049 16.1376 1.28144 15.3976 1.78154 14.8521C2.28163 14.3065 2.95991 14 3.66716 14Z" stroke="#47474F" stroke-width="2" stroke-linecap="round" stroke-linejoin="round"/>
<path d="M1.00049 19H7.50049L9.00049 22" stroke="#47474F" stroke-width="2" stroke-linecap="round" stroke-linejoin="round"/>
<path d="M19.0005 22H13.0005" stroke="#47474F" stroke-width="2" stroke-linecap="round" stroke-linejoin="round"/>
<path d="M31.0005 19H24.5005L23.0005 22" stroke="#47474F" stroke-width="2" stroke-linecap="round" stroke-linejoin="round"/>
</svg>
