<svg width="24" height="24" viewBox="0 0 24 24" fill="none" xmlns="http://www.w3.org/2000/svg">
  <path d="M7.286 9v11.4c0 .16.062.312.172.424.11.113.26.176.417.176h8.25a.583.583 0 0 0 .416-.176.605.605 0 0 0 .173-.424V9m0 3.6h2.947a.584.584 0 0 0 .416-.176.605.605 0 0 0 .173-.424V7.8a4.845 4.845 0 0 0-1.38-3.394A4.672 4.672 0 0 0 15.535 3h-1.179c0 .637-.248 1.247-.69 1.697A2.336 2.336 0 0 1 12 5.4m0 0a2.336 2.336 0 0 1-1.667-.703A2.422 2.422 0 0 1 9.643 3H8.464c-1.25 0-2.45.506-3.333 1.406A4.845 4.845 0 0 0 3.75 7.8V12c0 .16.062.312.173.424.11.113.26.176.416.176h2.947M12 5.4v2.4m2.357 2.4h-1.179" stroke="#1B1B1F" stroke-width="1.5" stroke-linecap="round" stroke-linejoin="round"/>
</svg>
