<svg width="42" height="28" viewBox="0 0 42 28" fill="none" xmlns="http://www.w3.org/2000/svg">
<path d="M14.5 9.9375V25.375C14.5 25.5905 14.5856 25.7972 14.738 25.9495C14.8903 26.1019 15.097 26.1875 15.3125 26.1875H26.6875C26.903 26.1875 27.1097 26.1019 27.262 25.9495C27.4144 25.7972 27.5 25.5905 27.5 25.375V9.9375" stroke="#47474F" stroke-width="2" stroke-linecap="round" stroke-linejoin="round"/>
<path d="M27.5 14.8125H31.5625C31.778 14.8125 31.9847 14.7269 32.137 14.5745C32.2894 14.4222 32.375 14.2155 32.375 14V8.3125C32.375 6.58859 31.6902 4.93529 30.4712 3.71631C29.2522 2.49732 27.5989 1.8125 25.875 1.8125H24.25C24.25 2.67445 23.9076 3.5011 23.2981 4.1106C22.6886 4.72009 21.862 5.0625 21 5.0625C20.138 5.0625 19.3114 4.72009 18.7019 4.1106C18.0924 3.5011 17.75 2.67445 17.75 1.8125H16.125C14.4011 1.8125 12.7478 2.49732 11.5288 3.71631C10.3098 4.93529 9.625 6.58859 9.625 8.3125V14C9.625 14.2155 9.7106 14.4222 9.86298 14.5745C10.0153 14.7269 10.222 14.8125 10.4375 14.8125H14.5" stroke="#47474F" stroke-width="2" stroke-linecap="round" stroke-linejoin="round"/>
<path d="M21 5.0625V8.3125" stroke="#47474F" stroke-width="2" stroke-linecap="round" stroke-linejoin="round"/>
<path d="M24.25 11.5625H22.625" stroke="#47474F" stroke-width="2" stroke-linecap="round" stroke-linejoin="round"/>
</svg>
