<svg width="32" height="32" viewBox="0 0 32 32" fill="none" xmlns="http://www.w3.org/2000/svg">
<path d="M3.00049 5V28.3333C3.00049 29.8061 4.1944 31 5.66716 31H8.04179C9.24628 31 10.2227 30.0236 10.2227 28.8191V19.3304C10.2227 16.1394 12.8095 13.5526 16.0005 13.5526V13.5526C19.1915 13.5526 21.7783 16.1394 21.7783 19.3304V28.8191C21.7783 30.0236 22.7547 31 23.9592 31H26.3338C27.8066 31 29.0005 29.8061 29.0005 28.3333V5" stroke="#47474F" stroke-width="2"/>
<path d="M1.00049 20.0913L12.2732 20.0913" stroke="#47474F" stroke-width="2" stroke-linecap="round"/>
<path d="M1.00049 9L31.0005 9" stroke="#47474F" stroke-width="2" stroke-linecap="round"/>
<path d="M19.728 20.0913L31.0008 20.0913" stroke="#47474F" stroke-width="2" stroke-linecap="round"/>
<rect x="1.00049" y="1" width="30" height="4" rx="1.33333" stroke="#47474F" stroke-width="2"/>
</svg>
