<svg width="72" height="38" viewBox="0 0 72 38" fill="none" xmlns="http://www.w3.org/2000/svg">
<path d="M55.9413 5.2461C55.9413 3.9501 56.4333 3.3501 57.8013 3.3501H59.0373V4.7181H58.0173C57.6933 4.7181 57.5613 4.8621 57.5613 5.1741V5.7501H59.0253V7.1181H57.5613V12.4701H55.9413V7.1181H54.8613V5.7501H55.9413V5.2461Z" fill="white"/>
<path d="M52.4769 7.9341C52.4769 7.2381 52.0449 6.9381 51.4089 6.9381C50.6889 6.9381 50.0529 7.3701 49.7649 7.8501L48.7329 6.7941C49.4049 5.9541 50.4729 5.5701 51.5169 5.5701C53.1849 5.5701 54.1089 6.2781 54.1089 7.9941V12.4701H52.4769V11.2581C52.2969 12.1221 51.6729 12.6021 50.6649 12.6021C49.3689 12.6021 48.6369 11.8221 48.6369 10.6461C48.6369 9.4341 49.4289 8.7381 51.0729 8.4381L52.4769 8.1741V7.9341ZM50.2809 10.5381C50.2809 11.1141 50.6769 11.3421 51.1809 11.3421C51.9969 11.3421 52.4769 10.7181 52.4769 9.5661V9.3621L51.2889 9.5901C50.6049 9.7341 50.2809 10.0341 50.2809 10.5381Z" fill="white"/>
<path d="M44.5715 12.4701C43.4795 12.4701 42.8914 11.8701 42.8914 10.7901V3.3501H44.5235V10.6101C44.5235 10.9581 44.7154 11.1501 45.0634 11.1501H45.5795V12.4701H44.5715Z" fill="white"/>
<path d="M39.0527 12.6381C37.1327 12.6381 35.9807 11.2101 35.9807 9.0261C35.9807 6.8901 37.1807 5.5701 39.0287 5.5701C40.6847 5.5701 41.8847 6.6501 41.8847 8.9301V9.4581H37.6367C37.7087 10.7301 38.1167 11.3061 39.0527 11.3061C39.7127 11.3061 40.1927 11.0061 40.3607 10.1901L41.8247 10.5981C41.4287 12.2781 40.1327 12.6381 39.0527 12.6381ZM37.6487 8.3661H40.1687V8.2221C40.1687 7.4421 39.7967 6.9021 38.9567 6.9021C38.2487 6.9021 37.7687 7.2741 37.6487 8.3661Z" fill="white"/>
<path d="M31.4156 12.6501C29.8796 12.6501 28.6556 11.4741 28.6556 9.09809C28.6556 6.73409 29.8796 5.57009 31.4156 5.57009C32.3036 5.57009 33.0116 6.03809 33.3116 6.86609V3.36209H34.9316V12.4701H33.3116V11.3421C33.0116 12.1821 32.3036 12.6501 31.4156 12.6501ZM31.8596 11.2341C32.8676 11.2341 33.3116 10.3461 33.3116 9.09809C33.3116 7.86209 32.8676 6.97409 31.8596 6.97409C30.8396 6.97409 30.2996 7.77809 30.2996 9.09809C30.2996 10.4301 30.8396 11.2341 31.8596 11.2341Z" fill="white"/>
<path d="M23.5856 8.47408C23.5856 7.49008 23.1656 6.98608 22.3136 6.98608C21.4376 6.98608 20.9216 7.56208 20.9216 8.66608V12.4701H19.3016V5.75008H20.9216V6.93808C21.1376 6.09808 21.8936 5.60608 22.9256 5.60608C24.4856 5.60608 25.2056 6.56608 25.2056 8.16208V12.4701H23.5856V8.47408Z" fill="white"/>
<path d="M12.9629 12.4701V4.0701H18.0749V5.4501H14.7029V7.2381H17.7149V8.6301H14.7029V11.0781H18.4109V12.4701H12.9629Z" fill="white"/>
<path d="M53.0145 25.392H52.9927C49.5775 25.392 47.7634 27.5035 47.7634 30.9172L47.7417 37.6795H50.7732V28.2724H55.1913V37.6795H58.202V30.9172C58.202 27.4827 56.4517 25.392 53.0145 25.392Z" fill="white"/>
<path d="M41.3165 25.392C38.0077 25.392 35.8731 27.7388 35.8731 31.5569C35.8731 35.4396 37.9435 37.9783 41.3589 37.9783C43.2802 37.9783 45.6279 37.3167 46.3116 34.33L43.6 33.5837C43.3012 35.0345 42.4897 35.5244 41.3372 35.5244C39.7499 35.5244 39.0668 34.5522 38.9307 32.3463H46.4181V31.3647C46.4181 27.312 44.2405 25.392 41.3165 25.392ZM43.2357 30.3417H38.9621C39.1762 28.4638 39.9872 27.8239 41.1881 27.8239C42.5974 27.8239 43.2377 28.7626 43.2377 30.1071C43.2377 30.186 43.2367 30.264 43.2357 30.3417Z" fill="white"/>
<path d="M67.9363 22V27.6924C67.4194 26.2249 66.1699 25.392 64.6058 25.392C61.8731 25.392 59.6963 27.461 59.6963 31.6852C59.6963 35.9093 61.8731 38 64.6058 38C66.1699 38 67.4194 37.1541 67.9363 35.6806V37.6795H70.946V22H67.9363ZM65.4384 35.3967C63.6454 35.3967 62.7268 33.989 62.7268 31.6852C62.7268 29.3813 63.6454 27.9737 65.4384 27.9737C67.1673 27.9737 67.936 29.5096 67.936 31.6852C67.936 33.8607 67.1673 35.3967 65.4384 35.3967Z" fill="white"/>
<path d="M33.3962 22.7472L30.0319 34.6924L26.608 22.7472H23.3631L27.9531 37.6796H32.1156L36.6411 22.7472H33.3962Z" fill="white"/>
<path d="M6.92579 37.6867H9.9153L9.91555 31.7074H6.92579V37.6867Z" fill="white"/>
<path d="M12.9053 22.7472H3.9358C2.28473 22.7472 0.946045 24.0843 0.946045 25.734V37.6867H3.9353V37.681H3.9358V32.4541C3.9358 32.3014 3.9437 32.1504 3.95876 32.0014C4.18916 29.757 6.09878 27.9764 8.42079 27.9764C10.7428 27.9764 12.6524 29.7573 12.8826 32.0019C12.8974 32.1507 12.9055 32.3017 12.9055 32.4544V37.6813H12.906V37.687H15.8953V25.734C15.8953 24.0843 14.5564 22.7472 12.9053 22.7472Z" fill="white"/>
</svg>
