<svg width="32" height="32" viewBox="0 0 32 32" fill="none" xmlns="http://www.w3.org/2000/svg">
<path d="M17.3332 30.6668V13.3335C17.3332 11.8607 16.1393 10.6668 14.6665 10.6668H2.6665V4.00016C2.6665 2.5274 3.86041 1.3335 5.33317 1.3335H28.6665C29.1969 1.3335 29.7056 1.53953 30.0807 1.90627C30.4558 2.273 30.6665 2.77041 30.6665 3.28905V28.7113C30.6665 29.2299 30.4558 29.7273 30.0807 30.0941C29.7056 30.4608 29.1969 30.6668 28.6665 30.6668H17.3332Z" stroke="#47474F" stroke-width="2" stroke-linecap="round" stroke-linejoin="round"/>
<path d="M9.3335 10.6667V26.0001" stroke="#47474F" stroke-width="2" stroke-linecap="round" stroke-linejoin="round"/>
<path d="M10.9215 14.6667H7.7455C6.41339 14.6667 5.3335 15.7466 5.3335 17.0787V22.2547C5.3335 23.5869 6.41339 24.6667 7.7455 24.6667H10.9215C12.2536 24.6667 13.3335 23.5869 13.3335 22.2547V17.0787C13.3335 15.7466 12.2536 14.6667 10.9215 14.6667Z" stroke="#47474F" stroke-width="2" stroke-linecap="round" stroke-linejoin="round"/>
<path d="M1.3335 30.6667H17.3335" stroke="#47474F" stroke-width="2" stroke-linecap="round" stroke-linejoin="round"/>
<path d="M24.0002 25.3336C25.4729 25.3336 26.6668 24.1397 26.6668 22.6669C26.6668 21.1942 25.4729 20.0002 24.0002 20.0002C22.5274 20.0002 21.3335 21.1942 21.3335 22.6669C21.3335 24.1397 22.5274 25.3336 24.0002 25.3336Z" stroke="#47474F" stroke-width="2" stroke-linecap="round" stroke-linejoin="round"/>
<path d="M6.6665 5.3335V6.66683" stroke="#47474F" stroke-width="2" stroke-linecap="round" stroke-linejoin="round"/>
<path d="M22.6665 5.3335V6.66683" stroke="#47474F" stroke-width="2" stroke-linecap="round" stroke-linejoin="round"/>
<path d="M18.6665 5.3335V6.66683" stroke="#47474F" stroke-width="2" stroke-linecap="round" stroke-linejoin="round"/>
<path d="M26.6665 5.3335V6.66683" stroke="#47474F" stroke-width="2" stroke-linecap="round" stroke-linejoin="round"/>
</svg>
