<svg width="32" height="32" viewBox="0 0 32 32" fill="none" xmlns="http://www.w3.org/2000/svg">
<path d="M2.06316 4L2.65356 3.19289C2.39051 3.00047 2.05019 2.94831 1.74158 3.05312C1.43297 3.15793 1.1948 3.40655 1.10334 3.71938L2.06316 4ZM27.0959 22.4008L27.9295 22.9532L27.9485 22.9246L27.9655 22.8947L27.0959 22.4008ZM20.8379 8.84231L20.7469 9.83816L20.8379 8.84231ZM1.10334 3.71938C-1.43898 12.415 2.63103 21.0509 8.55358 25.6141C11.5251 27.9035 15.0426 29.2319 18.5218 28.9666C22.0383 28.6983 25.3722 26.8116 27.9295 22.9532L26.2624 21.8483C24.0056 25.2534 21.2017 26.7563 18.3697 26.9723C15.5005 27.1912 12.4591 26.0984 9.77424 24.0298C4.38406 19.8768 0.751772 12.0489 3.02298 4.28062L1.10334 3.71938ZM27.9655 22.8947C28.5461 21.8723 28.8842 20.4806 28.975 19.0096C29.0667 17.5244 28.9117 15.8792 28.4367 14.3151C27.4828 11.174 25.1748 8.23474 20.929 7.84647L20.7469 9.83816C23.9436 10.1305 25.7272 12.2757 26.523 14.8962C26.9229 16.213 27.0572 17.6179 26.9789 18.8864C26.8997 20.169 26.6084 21.2344 26.2264 21.9069L27.9655 22.8947ZM20.929 7.84647C15.343 7.33564 12.0696 7.09974 9.50536 6.51886C7.02309 5.95656 5.22115 5.07109 2.65356 3.19289L1.47276 4.80711C4.20092 6.80276 6.25033 7.83218 9.0635 8.46944C11.7947 9.08813 15.2608 9.33647 20.7469 9.83816L20.929 7.84647Z" fill="#47474F"/>
<path d="M13.3335 14.6667C18.9413 15.7334 23.3753 18.3643 30.6668 25.3334" stroke="#47474F" stroke-width="2" stroke-linecap="round"/>
</svg>
