<svg width="24" height="24" viewBox="0 0 24 24" fill="none" xmlns="http://www.w3.org/2000/svg"><path d="M3.75 20.25H3c0 .414.336.75.75.75v-.75Zm0-3.75H3h.75Zm6.75-1.125-.624-.416a.75.75 0 0 0-.126.416h.75ZM3.328 7.63a.75.75 0 1 0 .845 1.24l-.845-1.24ZM12 2.625l.422-.62a.75.75 0 0 0-.845 0l.423.62Zm7.828 6.245a.75.75 0 0 0 .845-1.24l-.845 1.24Zm.422 10.63h-.75V21a1.5 1.5 0 0 0 1.5-1.5h-.75Zm-16.5-6h.75V12H3v1.5h.75Zm0 0v.75H7.5v-1.5H3.75v.75Zm3.75 0v.75c.131 0 .325.073.5.25.177.175.25.369.25.5h1.5c0-.619-.302-1.175-.688-1.562-.387-.386-.943-.688-1.562-.688v.75ZM9 15h-.75v1.5h1.5V15H9Zm-5.25 5.25h.75V16.5H3v3.75h.75Zm0-3.75h.75v-3H3v3h.75Zm5.25 0v-.75H3.75v1.5H9v-.75Zm0 0v.75h1.5v-1.5H9v.75Zm1.5 0h.75v-1.125h-1.5V16.5h.75Zm0-1.125.624.416c.36-.54.673-.915 1.025-1.161.33-.232.74-.38 1.351-.38v-1.5c-.889 0-1.605.227-2.211.651-.586.41-1.023.973-1.413 1.558l.624.416Zm3-1.875v.75h5.25v-1.5H13.5v.75Zm5.25 0v.75c.131 0 .325.073.5.25.177.175.25.369.25.5H21c0-.619-.302-1.175-.688-1.562-.387-.386-.943-.688-1.562-.688v.75Zm-8.25 3v.75h9.75v-1.5H10.5v.75Zm9.75-1.5h-.75v1.5H21V15h-.75Zm0 1.5h-.75v3H21v-3h-.75ZM3.75 8.25l.423.62 8.25-5.625-.423-.62-.422-.62-8.25 5.625.422.62ZM12 2.625l-.422.62 8.25 5.625.422-.62.422-.62-8.25-5.625-.422.62Zm7.5 17.625v-.75H3.75V21H19.5v-.75Z" fill="#1B1B1F"/></svg>