<svg width="24" height="24" viewBox="0 0 24 24" fill="none" xmlns="http://www.w3.org/2000/svg">
<path d="M9.5 17.5C9.5 18.6046 8.60457 19.5 7.5 19.5C6.39543 19.5 5.5 18.6046 5.5 17.5M9.5 17.5C9.5 16.3955 8.60457 15.5 7.5 15.5C6.39543 15.5 5.5 16.3955 5.5 17.5M9.5 17.5H16M5.5 17.5H4.00431C3.1742 17.5 2.50194 16.8258 2.50432 15.9957L2.5316 6.49569C2.53397 5.66895 3.20485 5 4.03159 5L15 5.00001C15.8284 5.00001 16.5 5.67159 16.5 6.50001V7.00001M20 17.5C20 18.6046 19.1046 19.5 18 19.5C16.8954 19.5 16 18.6046 16 17.5M20 17.5C20 16.3955 19.1046 15.5 18 15.5C16.8954 15.5 16 16.3955 16 17.5M20 17.5L20.5 17.5C21.3284 17.5 22 16.8284 22 16V11.1847C22 11.062 21.985 10.9399 21.9552 10.8209L21.284 8.13621C21.1171 7.46846 20.5171 7.00001 19.8288 7.00001H16.5M16.5 7.00001V16.1771M22 11H16.5M16.5 13L2.5 13" stroke="#1B1B1F" stroke-width="1.5"/>
</svg>
