<svg width="32" height="32" viewBox="0 0 32 32" fill="none" xmlns="http://www.w3.org/2000/svg">
<path d="M22.9493 18.949C21.6309 20.2337 19.8595 20.9474 18.0187 20.9355C16.1779 20.9236 14.4159 20.1871 13.1142 18.8854C11.8126 17.5837 11.076 15.8217 11.0641 13.9809C11.0522 12.1401 11.7659 10.3688 13.0506 9.05036L19.0506 3.05036C20.369 1.76564 22.1404 1.05196 23.9812 1.06387C25.822 1.07577 27.584 1.81231 28.8857 3.11397C30.1873 4.41564 30.9239 6.17765 30.9358 8.01845C30.9477 9.85924 30.234 11.6306 28.9493 12.949L22.9493 18.949Z" stroke="#47474F" stroke-width="2" stroke-linecap="round" stroke-linejoin="round"/>
<path d="M4.24291 15.761L2.24291 17.761C1.45186 18.5576 1.00878 19.6353 1.01075 20.7579C1.01271 21.8806 1.45956 22.9567 2.25339 23.7505C3.04723 24.5443 4.12333 24.9912 5.24599 24.9931C6.36864 24.9951 7.4463 24.552 8.24291 23.761L12.9003 19.1036" stroke="#47474F" stroke-width="2" stroke-linecap="round" stroke-linejoin="round"/>
<path d="M16.239 27.7573L14.239 29.7573C13.4424 30.5483 12.3647 30.9914 11.2421 30.9894C10.1194 30.9875 9.04332 30.5406 8.24948 29.7468C7.45565 28.953 7.00881 27.8769 7.00684 26.7542C7.00536 25.9049 7.25856 25.0814 7.72443 24.3858L8.85444 23.1418" stroke="#47474F" stroke-width="2" stroke-linecap="round" stroke-linejoin="round"/>
<path d="M16.0513 6.05078L25.9499 15.9494" stroke="#47474F" stroke-width="2" stroke-linecap="round" stroke-linejoin="round"/>
</svg>
