<svg width="42" height="28" viewBox="0 0 42 28" fill="none" xmlns="http://www.w3.org/2000/svg">
<mask id="mask0_6661_87" style="mask-type:luminance" maskUnits="userSpaceOnUse" x="0" y="0" width="42" height="28">
<path d="M42 0H0V28H42V0Z" fill="white"/>
</mask>
<g mask="url(#mask0_6661_87)">
<path fill-rule="evenodd" clip-rule="evenodd" d="M36.4812 8.29565H-0.0229492V19.3714H36.4812L41.9998 13.8342L36.4812 8.29565Z" fill="white"/>
<path fill-rule="evenodd" clip-rule="evenodd" d="M10.189 16.3003H11.2585V11.3669H10.189V16.3003Z" fill="#202020"/>
<path fill-rule="evenodd" clip-rule="evenodd" d="M15.1452 16.309L13.42 14.5778L13.4079 14.5899L13.3965 14.5784V16.3023H12.3276V11.3689H13.3965V13.0839L15.116 11.3584H16.6283L14.1758 13.8188L16.6574 16.309H15.1452Z" fill="#202020"/>
<path fill-rule="evenodd" clip-rule="evenodd" d="M25.7586 12.4398H24.3413V16.3001H23.2718V12.4398H21.8325V11.3667H25.7586V12.4398Z" fill="#202020"/>
<path fill-rule="evenodd" clip-rule="evenodd" d="M26.8276 16.3003H27.8966V11.3669H26.8276V16.3003Z" fill="#202020"/>
<path fill-rule="evenodd" clip-rule="evenodd" d="M32.3455 12.4398H30.0472V13.2595H32.3455V14.3326H30.0472V15.2275H32.3455V16.3001H28.9663V11.3667H32.3455V12.4398Z" fill="#202020"/>
<path fill-rule="evenodd" clip-rule="evenodd" d="M6.69527 12.4745C5.9472 12.4745 5.34088 13.0829 5.34088 13.8336C5.34088 14.5842 5.9472 15.1926 6.69527 15.1926C7.44328 15.1926 8.04959 14.5842 8.04959 13.8336C8.04959 13.0829 7.44328 12.4745 6.69527 12.4745ZM6.69527 16.3121C5.331 16.3121 4.2251 15.2024 4.2251 13.8335C4.2251 12.4645 5.331 11.3547 6.69527 11.3547C8.05954 11.3547 9.16544 12.4645 9.16544 13.8335C9.16544 15.2024 8.05954 16.3121 6.69527 16.3121Z" fill="#202020"/>
<path fill-rule="evenodd" clip-rule="evenodd" d="M18.9926 12.4745C18.2446 12.4745 17.6383 13.0829 17.6383 13.8336C17.6383 14.5842 18.2446 15.1926 18.9926 15.1926C19.7406 15.1926 20.3469 14.5842 20.3469 13.8336C20.3469 13.0829 19.7406 12.4745 18.9926 12.4745ZM18.9926 16.3121C17.6283 16.3121 16.5225 15.2024 16.5225 13.8335C16.5225 12.4645 17.6283 11.3547 18.9926 11.3547C20.3569 11.3547 21.4628 12.4645 21.4628 13.8335C21.4628 15.2024 20.3569 16.3121 18.9926 16.3121Z" fill="#202020"/>
</g>
</svg>
