<svg width="42" height="28" viewBox="0 0 42 28" fill="none" xmlns="http://www.w3.org/2000/svg">
<path d="M15 21.7141H26.3036" stroke="#47474F" stroke-width="2"/>
<path d="M3.85693 13.1431H7.2855" stroke="#47474F" stroke-width="2" stroke-linecap="round"/>
<path d="M33.0002 13.2857C33.5525 13.2857 34.0002 12.838 34.0002 12.2857C34.0002 11.7335 33.5525 11.2857 33.0002 11.2857V13.2857ZM25.2859 12.2857L24.4859 12.8857L24.7859 13.2857H25.2859V12.2857ZM22.7145 8.85718L23.5145 8.25718C23.3257 8.00537 23.0293 7.85718 22.7145 7.85718V8.85718ZM15.8574 7.85718C15.3051 7.85718 14.8574 8.30489 14.8574 8.85718C14.8574 9.40946 15.3051 9.85718 15.8574 9.85718V7.85718ZM33.0002 11.2857H25.2859V13.2857H33.0002V11.2857ZM26.0859 11.6857L23.5145 8.25718L21.9145 9.45718L24.4859 12.8857L26.0859 11.6857ZM22.7145 7.85718H15.8574V9.85718H22.7145V7.85718Z" fill="#47474F"/>
<path d="M32.9998 12.2859L32.1998 12.8859C32.2678 12.9766 32.3507 13.055 32.4451 13.1179L32.9998 12.2859ZM38.1426 15.7144H39.1426V15.1792L38.6973 14.8824L38.1426 15.7144ZM38.1426 21.7144V22.7144C38.6949 22.7144 39.1426 22.2667 39.1426 21.7144H38.1426ZM7.2855 22.7144C7.83778 22.7144 8.2855 22.2667 8.2855 21.7144C8.2855 21.1621 7.83778 20.7144 7.2855 20.7144V22.7144ZM33.8569 20.7144C33.3046 20.7144 32.8569 21.1621 32.8569 21.7144C32.8569 22.2667 33.3046 22.7144 33.8569 22.7144V20.7144ZM4.71407 5.42871V4.42871C4.3538 4.42871 4.02138 4.6225 3.84387 4.93601C3.66636 5.24952 3.67122 5.63428 3.85658 5.94321L4.71407 5.42871ZM5.99978 7.57157L6.93313 7.93055C7.04363 7.64323 7.01566 7.32104 6.85728 7.05707L5.99978 7.57157ZM3.85693 13.143L2.92358 12.784C2.87952 12.8986 2.85693 13.0203 2.85693 13.143H3.85693ZM29.1141 8.77157L32.1998 12.8859L33.7998 11.6859L30.7141 7.57157L29.1141 8.77157ZM37.1426 15.7144V21.7144H39.1426V15.7144H37.1426ZM5.57121 22.7144H7.2855V20.7144H5.57121V22.7144ZM38.6973 14.8824L33.5545 11.4538L32.4451 13.1179L37.5879 16.5465L38.6973 14.8824ZM3.85658 5.94321L5.14229 8.08606L6.85728 7.05707L5.57156 4.91422L3.85658 5.94321ZM5.06644 7.21259L2.92358 12.784L4.79027 13.502L6.93313 7.93055L5.06644 7.21259ZM2.85693 20.0001C2.85693 21.4992 4.07215 22.7144 5.57121 22.7144V20.7144C5.17672 20.7144 4.85693 20.3946 4.85693 20.0001H2.85693ZM30.7141 7.57157C29.2302 5.59309 26.9014 4.42871 24.4283 4.42871V6.42871C26.2719 6.42871 28.0079 7.29671 29.1141 8.77157L30.7141 7.57157ZM2.85693 13.143V20.0001H4.85693V13.143H2.85693ZM38.1426 20.7144H33.8569V22.7144H38.1426V20.7144ZM24.4283 4.42871H4.71407V6.42871H24.4283V4.42871Z" fill="#47474F"/>
<path d="M33.8569 21.2854C33.8569 23.4156 32.13 25.1425 29.9998 25.1425C27.8695 25.1425 26.1426 23.4156 26.1426 21.2854C26.1426 19.1551 27.8695 17.4282 29.9998 17.4282C32.13 17.4282 33.8569 19.1551 33.8569 21.2854Z" stroke="#47474F" stroke-width="2"/>
<path d="M14.9999 21.2854C14.9999 23.4156 13.273 25.1425 11.1427 25.1425C9.01255 25.1425 7.28564 23.4156 7.28564 21.2854C7.28564 19.1551 9.01255 17.4282 11.1427 17.4282C13.273 17.4282 14.9999 19.1551 14.9999 21.2854Z" stroke="#47474F" stroke-width="2"/>
</svg>
