<svg width="24" height="24" viewBox="0 0 24 24" fill="none" xmlns="http://www.w3.org/2000/svg">
  <path d="m8.787 10.762-.574-.483.574.483Zm1.451 0-.574.482.574-.482Zm.487.578.574-.482-.574.482Zm.816.332-.071-.747.07.747Zm.761-.073.071.747-.07-.747Zm1.026 1.006.747.074-.747-.074Zm-.074.745-.746-.073.746.074Zm.338.8-.47.584.47-.584Zm.591.477.47-.584-.47.584Zm0 1.421.47.584-.47-.584Zm-.59.477-.471-.584.47.584Zm-.339.8-.746.073.746-.073Zm.074.745.747-.074-.747.074Zm-1.026 1.006.071-.747-.07.747Zm-.761-.073-.071.747.07-.747Zm-.816.332.574.482-.574-.482Zm-.487.578-.574-.482.574.482Zm-1.45 0-.575.483.574-.483Zm-.487-.578-.574.482.574-.482Zm-.816-.332.07.747-.07-.747Zm-.761.073-.071-.747.07.747ZM5.697 18.07l-.746-.074.746.074Zm.074-.745.747.073-.747-.073Zm-.338-.8.471-.584-.47.584Zm-.59-.477-.471.584.47-.584Zm0-1.421-.471-.584.47.584Zm.59-.477.47.584h.001l-.47-.584Zm.338-.8.747-.073-.747.074Zm-.074-.745-.746.074.746-.074Zm1.027-1.006-.072.747.072-.747Zm.76.073.072-.747-.071.747Zm.817-.332.575.483-.575-.483Zm-.139 3.47a.75.75 0 0 0-1 1.118l.5-.56.5-.558Zm.622 1.563.5-.559-.5.559Zm.806-.058-.575-.482.575.482Zm2.533-1.856a.75.75 0 0 0-1.15-.963l.575.482.575.482Zm-1.146-8.92a.75.75 0 0 0 0 1.5v-1.5Zm5.182 1.5a.75.75 0 0 0 0-1.5v1.5Zm-8.523.836a.75.75 0 0 0 1.5 0h-1.5ZM15.187 19.5a.75.75 0 0 0 0 1.5v-1.5Zm-6.4-8.738.574.482a.202.202 0 0 1 .303 0l.574-.482.575-.483a1.702 1.702 0 0 0-2.6 0l.574.483Zm1.451 0-.574.482.486.579.575-.483.574-.482-.486-.579-.575.483Zm.487.578-.575.483c.36.428.909.648 1.462.595l-.071-.746-.071-.747a.2.2 0 0 1-.171-.067l-.574.482Zm.816.332.07.746.762-.072-.07-.747-.072-.746-.761.072.07.747Zm.761-.073.071.747c.138-.013.218.097.209.185l.746.074.747.074c.105-1.066-.804-1.925-1.844-1.826l.071.746Zm1.026 1.006-.746-.074-.074.745.746.075.747.074.074-.746-.747-.074Zm-.074.745-.746-.073c-.056.56.178 1.106.614 1.457l.47-.584.471-.583a.162.162 0 0 1-.062-.143l-.747-.073Zm.338.8-.47.584.59.476.471-.583.47-.584-.59-.476-.47.583Zm.591.477-.47.583a.159.159 0 0 1 0 .255l.47.583.47.584c.83-.668.83-1.92 0-2.59l-.47.585Zm0 1.421-.47-.583-.591.476.47.584.471.584.59-.477-.47-.584Zm-.59.477-.471-.584c-.436.351-.67.897-.614 1.457l.746-.073.747-.075a.162.162 0 0 1 .062-.142l-.47-.583Zm-.339.8-.746.073.074.746.746-.074.747-.074-.074-.745-.747.073Zm.074.745-.746.074c.009.088-.07.198-.209.185l-.07.747-.072.746c1.04.1 1.95-.76 1.844-1.826l-.747.074Zm-1.026 1.006.071-.747-.761-.072-.071.746-.071.747.761.072.071-.746Zm-.761-.073.07-.746a1.7 1.7 0 0 0-1.46.595l.574.483.574.482a.2.2 0 0 1 .17-.067l.072-.747Zm-.816.332-.575-.483-.486.579.574.482.575.483.486-.579-.574-.482Zm-.487.578-.574-.482a.202.202 0 0 1-.302 0l-.575.482-.574.483a1.702 1.702 0 0 0 2.6 0l-.575-.483Zm-1.45 0 .574-.482-.486-.579-.575.483-.574.482.486.579.574-.483Zm-.487-.578.575-.483a1.699 1.699 0 0 0-1.462-.595l.07.746.072.747a.2.2 0 0 1 .17.067l.575-.482Zm-.816-.332-.071-.746-.761.072.07.747.072.746.76-.072-.07-.747Zm-.761.073-.072-.747c-.137.013-.217-.097-.208-.185l-.747-.074-.746-.074c-.106 1.066.804 1.925 1.844 1.826l-.071-.746ZM5.697 18.07l.747.074.074-.745-.747-.075-.746-.074-.074.746.746.074Zm.074-.745.747.073a1.662 1.662 0 0 0-.614-1.457l-.47.584-.472.583a.162.162 0 0 1 .063.142l.746.075Zm-.338-.8.47-.584-.59-.476-.47.583-.471.584.59.476.471-.583Zm-.59-.477.47-.583a.159.159 0 0 1 0-.255l-.47-.583-.471-.584c-.83.668-.83 1.92 0 2.59l.47-.585Zm0-1.421.47.583.59-.476-.47-.584-.47-.583-.591.476.47.584Zm.59-.477.471.584c.435-.351.67-.897.614-1.457l-.747.074-.746.073a.162.162 0 0 1-.063.143l.471.583Zm.338-.8.747-.073-.074-.746-.747.074-.746.074.074.746.746-.075Zm-.074-.745.747-.074c-.009-.088.07-.198.208-.185l.072-.747.07-.746c-1.039-.1-1.949.76-1.843 1.826l.746-.074Zm1.027-1.006-.072.747.762.072.07-.746.072-.747-.761-.072-.071.746Zm.76.073-.07.746a1.699 1.699 0 0 0 1.462-.595L8.3 11.34l-.574-.482a.2.2 0 0 1-.171.067l-.071.747Zm.817-.332.575.483.486-.579-.575-.482-.574-.483-.486.58.574.481Zm-.639 4.029-.5.559 1.122 1.004.5-.559.5-.559-1.122-1.004-.5.559Zm1.122 1.004-.5.559a1.311 1.311 0 0 0 1.88-.135l-.574-.482-.575-.482a.188.188 0 0 1 .27-.019l-.5.559Zm.806-.058.574.482 1.96-2.338-.575-.481-.575-.482-1.96 2.337.576.482Zm9.16-11.296H18v13.962h1.5V5.019h-.75Zm0 13.962H18c0 .272-.23.519-.546.519V21c1.116 0 2.046-.89 2.046-2.02h-.75ZM8.386 5.019h.75c0-.272.23-.519.546-.519V3c-1.115 0-2.046.89-2.046 2.02h.75ZM9.682 3.75v.75h7.772V3H9.682v.75Zm7.772 0v.75c.316 0 .546.247.546.52h1.5c0-1.13-.93-2.02-2.046-2.02v.75Zm-6.477 2.538v.75h5.182v-1.5h-5.182v.75Zm-2.59 1.587h.75V5.019h-1.5v2.856h.75Zm9.067 12.375v-.75h-2.267V21h2.268v-.75Z" fill="#1B1B1F"/>
</svg>
