<svg width="32" height="32" viewBox="0 0 32 32" fill="none" xmlns="http://www.w3.org/2000/svg">
<g clip-path="url(#clip0_10218_115)">
<path d="M5 31.9973C4.448 31.9973 4 31.5493 4 30.9973C4 30.4453 4.448 29.9973 5 29.9973H8V1.99731H5C4.448 1.99731 4 1.54931 4 0.997314C4 0.445314 4.448 -0.00268555 5 -0.00268555H19C22.86 -0.00268555 26 3.13731 26 6.99731C26 9.51065 24.6267 11.8266 22.4893 13.0626C25.8267 14.748 28 18.2093 28 21.9973C28 27.5106 23.5133 31.9973 18 31.9973H5ZM18 29.9973C22.4107 29.9973 26 26.408 26 21.9973C26 17.5866 22.4107 13.9973 18 13.9973H10V29.9973H18ZM19 11.9973C21.7573 11.9973 24 9.75465 24 6.99731C24 4.23998 21.7573 1.99731 19 1.99731H10V11.9973H19Z" fill="#47474F"/>
</g>
<defs>
<clipPath id="clip0_10218_115">
<rect width="32" height="32" fill="white"/>
</clipPath>
</defs>
</svg>
