<svg width="32" height="32" viewBox="0 0 32 32" fill="none" xmlns="http://www.w3.org/2000/svg">
<path d="M9.8323 1.44522C9.74098 1.30827 9.61726 1.19597 9.47212 1.1183C9.32698 1.04064 9.16491 1 9.0003 1C8.83569 1 8.67362 1.04064 8.52848 1.1183C8.38334 1.19597 8.25962 1.30827 8.1683 1.44522L3.0003 9.99989H6.0003L2.13363 15.5039C2.04683 15.6559 2.00142 15.8279 2.00196 16.0029C2.00249 16.1779 2.04894 16.3497 2.13667 16.5012C2.22439 16.6526 2.35033 16.7784 2.50188 16.8659C2.65343 16.9534 2.82529 16.9996 3.0003 16.9999H15.0003C15.1754 16.9998 15.3475 16.9538 15.4992 16.8664C15.6509 16.779 15.777 16.6532 15.8649 16.5017C15.9528 16.3503 15.9994 16.1784 16 16.0033C16.0006 15.8282 15.9552 15.656 15.8683 15.5039L12.0003 9.99989H15.0003L9.8323 1.44522Z" stroke="#47474F" stroke-width="2" stroke-linecap="round" stroke-linejoin="round"/>
<path d="M9 17V23.1093" stroke="#47474F" stroke-width="2" stroke-linecap="round" stroke-linejoin="round"/>
<path d="M25.6831 1.36404C25.6083 1.25211 25.5071 1.16035 25.3884 1.0969C25.2696 1.03344 25.1371 1.00024 25.0025 1.00024C24.8679 1.00024 24.7353 1.03344 24.6166 1.0969C24.4979 1.16035 24.3966 1.25211 24.3218 1.36404L20.0925 8.00004H22.5472L19.1098 12.776C19.0385 12.9004 19.0011 13.0414 19.0015 13.1849C19.0018 13.3283 19.04 13.4691 19.112 13.5931C19.184 13.7171 19.2874 13.82 19.4117 13.8915C19.5361 13.9629 19.6771 14.0003 19.8205 14H30.1805C30.3239 14.0003 30.4649 13.9629 30.5892 13.8915C30.7136 13.82 30.817 13.7171 30.889 13.5931C30.961 13.4691 30.9991 13.3283 30.9995 13.1849C30.9999 13.0414 30.9625 12.9004 30.8911 12.776L27.4565 8.00004H29.9111L25.6831 1.36404Z" stroke="#47474F" stroke-width="2" stroke-linecap="round" stroke-linejoin="round"/>
<path d="M25.0015 14V19.38" stroke="#47474F" stroke-width="2" stroke-linecap="round" stroke-linejoin="round"/>
<path d="M1.07373 23.9998C4.84116 22.6906 8.93645 22.6681 12.718 23.9358C16.4787 25.1965 19.7178 27.6623 21.9341 30.9501" stroke="#47474F" stroke-width="2" stroke-linecap="round" stroke-linejoin="round"/>
<path d="M31 19.0933C30.3414 19.0311 29.6747 19 29 19C23.7021 18.9933 18.6004 20.9955 14.7222 24.6001" stroke="#47474F" stroke-width="2" stroke-linecap="round" stroke-linejoin="round"/>
</svg>
