<svg width="32" height="32" fill="none" xmlns="http://www.w3.org/2000/svg"><path d="M14.02 14.021 22 22" stroke="#47474F" stroke-width="2" stroke-linecap="round" stroke-linejoin="round"/><path fill-rule="evenodd" clip-rule="evenodd" d="M4.121 15.436a1 1 0 0 1 0-1.415l9.9-9.9a1 1 0 0 1 1.414 0l6.128 6.13a1 1 0 0 1 0 1.413l-2.121 2.122a1 1 0 0 1-.597.287l-3.894.432-.447.447-.432 3.894a1 1 0 0 1-.287.597l-2.121 2.12a1 1 0 0 1-1.415 0l-6.128-6.127Zm2.121-.707 4.715 4.714 1.166-1.167.432-3.894a1 1 0 0 1 .287-.596l.943-.943a1 1 0 0 1 .597-.287l3.894-.432 1.166-1.167-4.714-4.714-8.486 8.485Z" fill="#47474F"/><path d="M2 11.9 11.9 2" stroke="#47474F" stroke-width="2" stroke-linecap="round" stroke-linejoin="round"/><circle cx="24.625" cy="24.628" r="3.356" transform="rotate(-45 24.625 24.628)" stroke="#47474F" stroke-width="2"/></svg>