<svg width="32" height="32" viewBox="0 0 32 32" fill="none" xmlns="http://www.w3.org/2000/svg">
<path d="M13.0005 9.00024C15.2096 9.00024 17.0005 7.20938 17.0005 5.00024C17.0005 2.79111 15.2096 1.00024 13.0005 1.00024C10.7913 1.00024 9.00049 2.79111 9.00049 5.00024C9.00049 7.20938 10.7913 9.00024 13.0005 9.00024Z" stroke="#47474F" stroke-width="2" stroke-linecap="round" stroke-linejoin="round"/>
<path d="M27.0005 31.0002H25.0005V25.0002C25.0005 23.9393 24.5791 22.9219 23.8289 22.1717C23.0788 21.4216 22.0614 21.0002 21.0005 21.0002H15.0005C14.4701 21.0002 13.9613 20.7894 13.5863 20.4144C13.2112 20.0393 13.0005 19.5306 13.0005 19.0002V9.4585" stroke="#47474F" stroke-width="2" stroke-linecap="round" stroke-linejoin="round"/>
<path d="M21.0005 15.0002H13.0005C11.4182 15.0002 9.87152 15.4694 8.55593 16.3485C7.24034 17.2275 6.21496 18.477 5.60946 19.9388C5.00395 21.4006 4.84553 23.0091 5.15421 24.561C5.46289 26.1128 6.22482 27.5383 7.34364 28.6571C8.46246 29.7759 9.88792 30.5378 11.4398 30.8465C12.9916 31.1552 14.6002 30.9968 16.062 30.3913C17.5238 29.7858 18.7732 28.7604 19.6522 27.4448C20.5313 26.1292 21.0005 24.5825 21.0005 23.0002V21.5419" stroke="#47474F" stroke-width="2" stroke-linecap="round" stroke-linejoin="round"/>
</svg>
