<svg width="32" height="32" viewBox="0 0 32 32" fill="none" xmlns="http://www.w3.org/2000/svg">
<rect x="1.33301" y="5.3335" width="29.3333" height="25.3333" rx="2.66667" stroke="#47474F" stroke-width="2" stroke-linecap="round" stroke-linejoin="round"/>
<path d="M30.6663 13.3335H1.33301" stroke="#47474F" stroke-width="2" stroke-linecap="round" stroke-linejoin="round"/>
<path d="M25.3332 18.6667H6.6665" stroke="#47474F" stroke-width="2" stroke-linecap="round" stroke-linejoin="round"/>
<path d="M10.6665 18.6667V22.6667C10.6665 24.1395 11.8604 25.3334 13.3332 25.3334H30.6665" stroke="#47474F" stroke-width="2" stroke-linecap="round" stroke-linejoin="round"/>
<path d="M27.9998 5.3335V2.66683C27.9998 1.93045 27.4029 1.3335 26.6665 1.3335H23.9998C23.2635 1.3335 22.6665 1.93045 22.6665 2.66683V5.3335" stroke="#47474F" stroke-width="2" stroke-linecap="round" stroke-linejoin="round"/>
<path d="M18.6663 5.3335V2.66683C18.6663 1.93045 18.0694 1.3335 17.333 1.3335H14.6663C13.93 1.3335 13.333 1.93045 13.333 2.66683V5.3335" stroke="#47474F" stroke-width="2" stroke-linecap="round" stroke-linejoin="round"/>
<path d="M9.33285 5.3335V2.66683C9.33285 1.93045 8.73589 1.3335 7.99951 1.3335H5.33285C4.59647 1.3335 3.99951 1.93045 3.99951 2.66683V5.3335" stroke="#47474F" stroke-width="2" stroke-linecap="round" stroke-linejoin="round"/>
</svg>
