<svg width="141" height="32" viewBox="0 0 141 32" fill="none" xmlns="http://www.w3.org/2000/svg">
  <path d="M104.137 6.784h-.044c-6.83 0-10.458 4.223-10.458 11.05L93.59 31.36h6.063V12.545h8.836v18.814h6.022V17.834c0-6.868-3.501-11.05-10.375-11.05ZM80.74 6.784c-6.617 0-10.886 4.694-10.886 12.33 0 7.765 4.14 12.843 10.972 12.843 3.842 0 8.538-1.324 9.905-7.297l-5.423-1.493c-.598 2.902-2.22 3.882-4.526 3.882-3.174 0-4.54-1.945-4.813-6.356h14.975v-1.964c0-8.105-4.355-11.945-10.203-11.945Zm3.84 9.9h-8.548c.428-3.756 2.05-5.036 4.452-5.036 2.819 0 4.1 1.877 4.1 4.566 0 .158-.003.314-.005.47ZM133.98 0v11.385c-1.033-2.935-3.532-4.601-6.661-4.601-5.465 0-9.819 4.138-9.819 12.586 0 8.449 4.354 12.63 9.819 12.63 3.129 0 5.628-1.692 6.661-4.639v3.998H140V0h-6.02Zm-4.995 26.793c-3.586 0-5.424-2.815-5.424-7.423 0-4.607 1.838-7.423 5.424-7.423 3.458 0 4.995 3.072 4.995 7.423s-1.537 7.423-4.995 7.423ZM64.9 1.494l-6.728 23.89-6.848-23.89h-6.49l9.18 29.865h8.325L71.39 1.494H64.9ZM11.96 31.373h5.979V19.415h-5.98v11.958Z" fill="#fff"/>
  <path d="M23.919 1.494H5.979A5.976 5.976 0 0 0 0 7.468v23.905h5.979V20.908c0-.305.016-.607.046-.905.461-4.489 4.28-8.05 8.925-8.05 4.643 0 8.463 3.562 8.923 8.05.03.298.046.6.046.906v10.454h.001v.01h5.978V7.469c0-3.3-2.677-5.974-5.98-5.974Z" fill="#fff"/>
</svg>
