<svg width="42" height="28" viewBox="0 0 42 28" fill="none" xmlns="http://www.w3.org/2000/svg">
<path d="M6.9375 23.375L10.6875 7.2275C10.9513 5.96133 11.6435 4.82476 12.6473 4.00921C13.6512 3.19366 14.9054 2.74896 16.1987 2.75H25.8012C27.0927 2.75154 28.3443 3.19742 29.3458 4.01275C30.3473 4.82809 31.0378 5.96322 31.3012 7.2275L35.0512 23.375" stroke="#47474F" stroke-width="2" stroke-linecap="round" stroke-linejoin="round"/>
<path d="M7 23.375H10.6875L14.4375 11.1875V23.375C14.4375 23.8723 14.635 24.3492 14.9867 24.7008C15.3383 25.0525 15.8152 25.25 16.3125 25.25H25.6875C26.1848 25.25 26.6617 25.0525 27.0133 24.7008C27.365 24.3492 27.5625 23.8723 27.5625 23.375V11.1875L31.3125 23.375H35" stroke="#47474F" stroke-width="2" stroke-linecap="round" stroke-linejoin="round"/>
<path d="M14.4375 21.5H27.5625" stroke="#47474F" stroke-width="2" stroke-linecap="round" stroke-linejoin="round"/>
<path d="M16.1987 2.75C16.1987 2.75 16.3125 7.4375 21 7.4375C25.6875 7.4375 25.8012 2.75 25.8012 2.75" stroke="#47474F" stroke-width="2" stroke-linecap="round" stroke-linejoin="round"/>
</svg>
