<svg width="42" height="28" viewBox="0 0 42 28" fill="none" xmlns="http://www.w3.org/2000/svg">
<path d="M17.0806 1.96118L7.00146 12.0073L9.80128 14.798L19.8804 4.75183L17.0806 1.96118Z" fill="#101F41"/>
<path d="M15.9609 10.8908C16.7036 11.6308 17.7106 12.0464 18.7606 12.0464C19.8107 12.0464 20.8178 11.6308 21.5605 10.8908L24.9203 7.54206L32.1999 14.7978L34.9998 12.0072L24.9203 1.96069L15.9609 10.8908Z" fill="#3960BF"/>
<path d="M22.6808 12.0072C21.6411 13.0434 20.2311 13.6254 18.761 13.6254C17.2908 13.6254 15.8808 13.0434 14.8412 12.0072L10.9214 15.9141L21.0008 25.9606L22.6808 24.2862L18.761 20.3793L19.8809 19.263L23.8007 23.17L25.4805 21.4955L21.5608 17.5886L22.6808 16.4723L26.6005 20.3793L28.2804 18.7048L24.3606 14.7979L25.4805 13.6816L29.4003 17.5886L31.0802 15.9141L24.9206 9.77466L22.6808 12.0072Z" fill="#101F41"/>
</svg>
