<svg width="32" height="32" fill="none" xmlns="http://www.w3.org/2000/svg"><path d="M6.667 18.667V5.333a2 2 0 0 1 2-2h14.666a2 2 0 0 1 2 2v13.334" stroke="#47474F" stroke-width="2" stroke-linecap="round" stroke-linejoin="round"/><path fill-rule="evenodd" clip-rule="evenodd" d="M3 20.666a3 3 0 0 1 3-3h20a3 3 0 0 1 3 3V24a1 1 0 0 1-1 1H4a1 1 0 0 1-1-1v-3.334Zm3-1a1 1 0 0 0-1 1V23h22v-2.334a1 1 0 0 0-1-1H6Z" fill="#47474F"/><path d="M21.334 24v4.667M25.334 13.333h3.333M3.333 13.333h3.334M10.666 24v4.667M14.666 8h2.667" stroke="#47474F" stroke-width="2" stroke-linecap="round" stroke-linejoin="round"/></svg>