<svg width="24" height="24" viewBox="0 0 24 24" fill="none" xmlns="http://www.w3.org/2000/svg"><path d="M19.5 20.25a.75.75 0 0 0 1.5 0h-1.5Zm.75-9h-.75.75Zm-.22-.53.531-.53-.53.53Zm-7.5-7.5-.53.53.53-.53Zm-1.06 0 .53.53-.53-.53Zm-7.5 7.5-.531-.53.53.53Zm-.163.243-.693-.287.693.287Zm-.057.287h.75-.75Zm-.75 9a.75.75 0 0 0 1.5 0H3Zm6-7.63-.749-.042a.753.753 0 0 0-.001.041H9Zm.823 4.007.749.042.001-.042h-.75Zm-1.407 1.667a.75.75 0 1 0 1.168.942l-1.168-.942Zm1.979-7.326a.75.75 0 1 0-1.172-.936l1.172.936Zm3.855 1.645-.749-.042a.817.817 0 0 0-.001.042h.75Zm.823 4.008.749.042a.73.73 0 0 0 .001-.042h-.75Zm-1.407 1.667a.75.75 0 0 0 1.168.942l-1.168-.942Zm1.974-7.321a.75.75 0 0 0-1.174-.934l1.175.934Zm4.61 9.283H21v-9h-1.5v9h.75Zm0-9H21a1.5 1.5 0 0 0-.114-.574l-.693.287-.693.287h.75Zm-.057-.287.693-.287a1.5 1.5 0 0 0-.325-.487l-.53.53-.531.53.693-.286Zm-.162-.243.53-.53-7.5-7.5-.53.53-.53.53 7.5 7.5.53-.53Zm-7.5-7.5.53-.53c-.14-.14-.304-.25-.487-.326l-.287.693L12 3.75l.53-.53Zm-.244-.163.287-.693A1.5 1.5 0 0 0 12 2.25v1.5l.287-.693ZM12 3v-.75a1.5 1.5 0 0 0-.574.114l.287.693.287.693V3Zm-.287.057-.287-.693a1.501 1.501 0 0 0-.487.325l.53.53.531.53-.287-.692Zm-.244.162-.53-.53-7.5 7.5.53.53.53.53 7.5-7.5-.53-.53Zm-7.5 7.5-.53-.53a1.5 1.5 0 0 0-.325.487l.693.287.693.287-.53-.53Zm-.162.244-.693-.287a1.5 1.5 0 0 0-.114.575h.75l.75-.002-.693-.286Zm-.057.287H3v9h1.5v-9h-.75ZM9 12.62h-.75c0 .8.246 1.58.445 2.225.213.69.378 1.248.378 1.782h1.5c0-.8-.246-1.579-.445-2.224-.212-.69-.378-1.248-.378-1.784H9Zm.823 4.007-.749-.042a2.987 2.987 0 0 1-.658 1.71l.584.47.584.471c.59-.73.935-1.629.988-2.567l-.749-.042ZM9.809 10.5l-.586-.468a4.475 4.475 0 0 0-.972 2.546l.749.041.749.042c.034-.618.26-1.21.646-1.693l-.586-.468Zm4.441 2.113h-.75c0 .801.246 1.58.445 2.225.213.691.378 1.248.378 1.783h1.5c0-.801-.246-1.58-.445-2.224-.213-.691-.378-1.249-.378-1.784h-.75Zm.823 4.008-.749-.042a2.987 2.987 0 0 1-.658 1.709l.584.47.584.472c.59-.732.935-1.63.988-2.567l-.749-.042Zm-.02-6.12-.587-.468a4.475 4.475 0 0 0-.965 2.538l.749.042.749.041a2.975 2.975 0 0 1 .641-1.687l-.587-.467Z" fill="#1B1B1F"/></svg>