<svg width="32" height="32" viewBox="0 0 32 32" fill="none" xmlns="http://www.w3.org/2000/svg">
<path d="M1.39111 10.6282L14.9148 1.66012C15.236 1.44714 15.6134 1.3335 15.9995 1.3335C16.3855 1.3335 16.763 1.44714 17.0842 1.66012L30.6079 10.6282" stroke="#47474F" stroke-width="2" stroke-linecap="round" stroke-linejoin="round"/>
<path d="M11.6665 24.5027C12.3217 23.6908 12.7055 22.6937 12.7638 21.652C12.7638 19.872 11.6665 18.0907 11.6665 16.308C11.7235 15.2767 12.1005 14.2891 12.7448 13.4824" stroke="#47474F" stroke-width="2" stroke-linecap="round" stroke-linejoin="round"/>
<path d="M18.6665 24.5026C19.3217 23.6907 19.7055 22.6936 19.7638 21.6519C19.7638 19.8719 18.6665 18.0906 18.6665 16.3079C18.7233 15.2804 19.0977 14.2962 19.7377 13.4912" stroke="#47474F" stroke-width="2" stroke-linecap="round" stroke-linejoin="round"/>
<path d="M4.6665 30.6667H3.6665C3.6665 31.219 4.11422 31.6667 4.6665 31.6667V30.6667ZM27.3332 30.6667V31.6667C27.8855 31.6667 28.3332 31.219 28.3332 30.6667H27.3332ZM28.3332 8.66675C28.3332 8.11446 27.8855 7.66675 27.3332 7.66675C26.7809 7.66675 26.3332 8.11446 26.3332 8.66675H28.3332ZM3.6665 8.66675V30.6667H5.6665V8.66675H3.6665ZM4.6665 31.6667H27.3332V29.6667H4.6665V31.6667ZM28.3332 30.6667V8.66675H26.3332V30.6667H28.3332Z" fill="#47474F"/>
</svg>
