<svg width="24" height="24" viewBox="0 0 24 24" fill="none" xmlns="http://www.w3.org/2000/svg">
<path d="M15.5 18.5L18.9505 18.5C20.4329 18.5 21.7093 17.4537 22 16M18.2798 8.7968L21.6136 12.2033C21.8205 12.4147 21.7997 12.7585 21.5688 12.9433L19.411 14.6709C19.145 14.8839 18.8143 15 18.4735 15H16.2951C15.8018 15 15.3447 14.7412 15.0909 14.3182C14.4141 13.1902 13.1951 12.5 11.8797 12.5H7.5C5.84315 12.5 4.5 11.1569 4.5 9.5V7M18.2798 8.7968C17.8169 8.32377 17.0986 8.21007 16.5122 8.51698L14.9607 9.32899C14.7461 9.44132 14.5074 9.5 14.2652 9.5H8.44911C8.02831 9.5 7.62686 9.32325 7.34272 9.01287L5.7973 7.32476C5.60788 7.11784 5.34024 7 5.05971 7H4.5M18.2798 8.7968L15.2929 5.79289C15.1054 5.60536 14.851 5.5 14.5858 5.5H12.5M3 7H4.5M19 18.5L16.9998 14.9999M4.5 18.5H11.5C12.3284 18.5 13 17.8284 13 17C13 16.1716 12.3284 15.5 11.5 15.5H4.5C3.67157 15.5 3 16.1716 3 17C3 17.8284 3.67157 18.5 4.5 18.5Z" stroke="#1B1B1F" stroke-width="1.5" stroke-linecap="round"/>
</svg>
