<svg width="24" height="24" viewBox="0 0 24 24" fill="none" xmlns="http://www.w3.org/2000/svg"><path d="m20.124 15.183.613-.431-.613.431ZM5.629 19.92v-.75a.754.754 0 0 1-.754-.754h-1.5a2.254 2.254 0 0 0 2.254 2.254v-.75ZM4.125 7.887h.75a3.762 3.762 0 0 1 3.762-3.762v-1.5a5.262 5.262 0 0 0-5.262 5.262h.75ZM17.662 19.92v-.75H5.629v1.5h12.033v-.75ZM4.124 7.887h-.75v10.529h1.5V7.887h-.75Zm4.512-4.512v.75c1.114 0 2.115.483 2.805 1.254l.558-.5.56-.5a5.251 5.251 0 0 0-3.923-1.754v.75ZM12 4.879l-.589.464 8.124 10.305.589-.465.589-.464-8.124-10.304-.589.464Zm8.124 10.304-.614.432c1.01 1.436-.06 3.555-1.849 3.555v1.5c3.025 0 4.773-3.506 3.076-5.918l-.613.431Zm-2.462 4.737v-.75a2.258 2.258 0 0 1-2.259-2.258h-1.5a3.758 3.758 0 0 0 3.758 3.758v-.75Zm-3.009-3.008h.75a2.258 2.258 0 0 1 2.258-2.258v-1.5a3.758 3.758 0 0 0-3.758 3.758h.75Zm3.008-3.008v.75c.764 0 1.44.378 1.85.96l.613-.43.613-.432a3.755 3.755 0 0 0-3.076-1.599v.75ZM7.133 18.415h-.75a.754.754 0 0 1-.754.754v1.5a2.254 2.254 0 0 0 2.254-2.254h-.75Zm-3.008 0h.75c0-.417.338-.755.754-.755v-1.5a2.254 2.254 0 0 0-2.254 2.255h.75Zm1.504-1.505v.75c.417 0 .754.338.754.755h1.5A2.254 2.254 0 0 0 5.63 16.16v.75Zm7.52-9.024h-.75a3.762 3.762 0 0 1-3.762 3.762v1.5A5.262 5.262 0 0 0 13.9 7.887h-.75ZM8.637 12.4v-.75a3.762 3.762 0 0 1-3.762-3.762h-1.5a5.262 5.262 0 0 0 5.262 5.262v-.75ZM12 4.88l-.558.5c.596.666.957 1.544.957 2.508h1.5a5.246 5.246 0 0 0-1.34-3.508l-.559.5Zm-1.474 3.018h-.75c0 .622-.504 1.125-1.125 1.125v1.5a2.625 2.625 0 0 0 2.625-2.625h-.75ZM8.65 9.772v-.75a1.125 1.125 0 0 1-1.125-1.125h-1.5a2.625 2.625 0 0 0 2.625 2.625v-.75ZM6.776 7.897h.75c0-.621.503-1.125 1.125-1.125v-1.5a2.625 2.625 0 0 0-2.625 2.625h.75ZM8.65 6.022v.75c.621 0 1.125.504 1.125 1.125h1.5A2.625 2.625 0 0 0 8.65 5.272v.75Z" fill="#1B1B1F"/></svg>