<svg xmlns="http://www.w3.org/2000/svg" width="24" height="24" fill="none" viewBox="0 0 24 24"><path stroke="currentColor" stroke-linecap="round" stroke-linejoin="round" stroke-miterlimit="10" stroke-width="1.5" d="m10.895 19.092 5.239-5.239-5.987-5.987-3.462 3.462q-.164.166-.245.385l-.783 2.14m5.238 5.239-5.238-5.239m5.238 5.239-.138.138c-1.37 1.37-3.62 1.343-4.99-.027-.992-.992-1.27-2.453-.748-3.755l.638-1.595m0 0L4.16 12.357c-.827-.827-.861-2.202-.19-3.16.377-.54.771-1.13 1.16-1.703.83-1.222 2.488-1 3.1.346l1.542 3.394m5.613 1.87 4.49-4.49c1.397-1.396 1.507-3.482.25-4.739s-3.343-1.147-4.74.25l-4.49 4.49M17.63 6.37l-4.49 4.49"/></svg>