<svg width="32" height="32" viewBox="0 0 32 32" fill="none" xmlns="http://www.w3.org/2000/svg">
<path d="M7.4348 29.0944C5.3971 30.9805 1.52381 30.1962 1.52381 30.1962C1.52381 30.1962 0.656286 26.2545 2.62561 24.2852C2.91984 23.9672 3.28146 23.7191 3.68399 23.559C4.08652 23.3989 4.51976 23.3308 4.952 23.3598C5.38424 23.3888 5.80452 23.514 6.18207 23.7265C6.55963 23.9389 6.88489 24.2331 7.13404 24.5875C7.48806 24.8368 7.78188 25.162 7.994 25.5395C8.20612 25.917 8.33117 26.3371 8.36 26.7691C8.38883 27.2012 8.32071 27.6342 8.16063 28.0365C8.00056 28.4388 7.75256 28.8003 7.4348 29.0944Z" stroke="#47474F" stroke-width="2" stroke-linecap="round" stroke-linejoin="round"/>
<path d="M28.4038 3.30886L30.3792 1.3335" stroke="#47474F" stroke-width="2" stroke-linecap="round" stroke-linejoin="round"/>
<path d="M28.6669 10.2111L28.4039 3.30863L21.5015 3.04565C20.4811 3.0674 19.4818 3.33973 18.5915 3.83865C17.7012 4.33757 16.9473 5.04776 16.3961 5.90669L8.89209 18.3256L13.3748 22.8144L25.7938 15.3165C26.6554 14.7672 27.3683 14.014 27.8695 13.1235C28.3706 12.233 28.6669 11.3922 28.6669 10.2111Z" stroke="#47474F" stroke-width="2" stroke-linecap="round" stroke-linejoin="round"/>
<path d="M8.89687 18.3317L4.89172 17.3494C4.75312 17.3147 4.62529 17.2462 4.51976 17.1499C4.41423 17.0536 4.3343 16.9326 4.28717 16.7977C4.23973 16.6719 4.22874 16.5352 4.25548 16.4034C4.28221 16.2716 4.34558 16.15 4.43831 16.0526L7.3462 13.1523C7.74045 12.7746 8.2342 12.5171 8.76957 12.41C9.30495 12.3029 9.85975 12.3507 10.3689 12.5477L12.0003 13.1261" stroke="#47474F" stroke-width="2" stroke-linecap="round" stroke-linejoin="round"/>
<path d="M13.3804 22.8223L14.3628 26.8274C14.3974 26.9658 14.4657 27.0935 14.5617 27.199C14.6577 27.3045 14.7784 27.3845 14.9129 27.432C15.0389 27.4799 15.1759 27.4912 15.3081 27.4644C15.4402 27.4377 15.5621 27.374 15.6595 27.2809L18.5644 24.3654C18.9403 23.97 19.1958 23.4758 19.301 22.9404C19.4062 22.4051 19.3567 21.8509 19.1584 21.3427L18.5644 19.8325" stroke="#47474F" stroke-width="2" stroke-linecap="round" stroke-linejoin="round"/>
<path d="M21.5615 12.4177C22.8136 12.4177 23.8286 11.4027 23.8286 10.1506C23.8286 8.89854 22.8136 7.88354 21.5615 7.88354C20.3094 7.88354 19.2944 8.89854 19.2944 10.1506C19.2944 11.4027 20.3094 12.4177 21.5615 12.4177Z" stroke="#47474F" stroke-width="2" stroke-linecap="round" stroke-linejoin="round"/>
</svg>
