<svg width="16" height="17" viewBox="0 0 16 17" fill="none" xmlns="http://www.w3.org/2000/svg">
<path d="M0.499512 12.0335L4.74818 16.4269H11.2508L15.4995 12.0335V5.82021L11.2508 1.42688H4.74818L0.499512 5.82021V12.0335Z" stroke="#D91F0A" stroke-linecap="round" stroke-linejoin="round"/>
<path d="M7.99951 12.3253C7.93321 12.3253 7.86962 12.299 7.82273 12.2521C7.77585 12.2052 7.74951 12.1416 7.74951 12.0753C7.74951 12.009 7.77585 11.9454 7.82273 11.8985C7.86962 11.8517 7.93321 11.8253 7.99951 11.8253" stroke="#D91F0A" stroke-linecap="round" stroke-linejoin="round"/>
<path d="M7.99951 12.3253C8.06582 12.3253 8.1294 12.299 8.17629 12.2521C8.22317 12.2052 8.24951 12.1416 8.24951 12.0753C8.24951 12.009 8.22317 11.9454 8.17629 11.8985C8.1294 11.8517 8.06582 11.8253 7.99951 11.8253" stroke="#D91F0A" stroke-linecap="round" stroke-linejoin="round"/>
<path d="M8 9.42688V3.92688" stroke="#D91F0A" stroke-miterlimit="10" stroke-linecap="round" stroke-linejoin="round"/>
</svg>
