<svg width="151" height="32" viewBox="0 0 151 32" fill="none" xmlns="http://www.w3.org/2000/svg">
  <path fill-rule="evenodd" clip-rule="evenodd" d="M26.19 31.555h8.745V0H26.19v31.555ZM49.926 14.845c-2.588 0-3.658 2-3.658 4.577 0 2.578 1.07 4.667 3.658 4.667s3.659-2.09 3.659-4.667-1.071-4.578-3.659-4.578Zm0 17.155c-8.299 0-12.671-4.311-12.671-12.578 0-8.266 4.372-12.488 12.671-12.488s12.671 4.222 12.671 12.488C62.597 27.69 58.225 32 49.927 32ZM83.568 22.844v7.912c-1.875.8-4.284 1.244-6.157 1.244-8.121 0-12.85-4.49-12.85-12.578 0-8.089 4.729-12.488 12.85-12.488 1.873 0 4.282.444 6.157 1.244v7.911c-1.562-.711-3.525-1.244-5.087-1.244-3.123 0-4.908 1.688-4.908 4.577 0 2.89 1.785 4.667 4.908 4.667 1.562 0 3.525-.533 5.087-1.245ZM102.931 17.955l8.611 13.6h-10.395l-6.336-10.8v10.8h-8.745V0h8.745V15.29l6.068-7.911h10.663l-8.611 10.577Z" fill="#F71414"/>
  <path fill-rule="evenodd" clip-rule="evenodd" d="M124.526 16.49c0-1.868-.937-3.246-2.989-3.246-2.053 0-2.99 1.378-2.99 3.245h5.979Zm8.388 4.888h-14.367c.268 2.489 2.677 3.51 5.934 3.51 2.543 0 5.889-.666 8.433-1.733v6.978c-3.034 1.333-6.559 1.867-9.95 1.867-9.102 0-13.34-4.311-13.34-12.578 0-8.178 4.506-12.488 12.18-12.488 7.228 0 11.11 4.755 11.11 11.955v2.49ZM143.8 15.111v4.045c0 3.555 2.32 4.755 5.8 4.755h.446v7.733c-.803.134-1.695.223-2.498.223-8.209 0-12.493-4.356-12.493-12.534V1.157h8.745v6.222h6.246v7.733H143.8ZM10.262 14.667c-.49 0-1.115.088-1.517.177V24h1.606c2.945 0 4.507-1.822 4.507-4.756 0-2.933-1.651-4.577-4.596-4.577Zm.49 16.888H0V0h8.745v7.244a14.81 14.81 0 0 1 2.856-.31c7.674 0 12.269 4.221 12.269 12.31 0 8.178-4.908 12.311-13.117 12.311Z" fill="#F71414"/>
</svg>
