<svg width="32" height="32" viewBox="0 0 32 32" fill="none" xmlns="http://www.w3.org/2000/svg">
<path d="M10 16.0051H31" stroke="#47474F" stroke-width="2" stroke-linecap="round" stroke-linejoin="round"/>
<path d="M26.0938 11.0989L31.0002 16.0053L26.0938 20.9117" stroke="#47474F" stroke-width="2" stroke-linecap="round" stroke-linejoin="round"/>
<path d="M20.9996 22V28C21.0224 28.5061 20.8439 29.0006 20.5031 29.3754C20.1623 29.7502 19.6869 29.9748 19.1809 30H2.8169C2.31118 29.9744 1.83613 29.7497 1.49559 29.375C1.15506 29.0002 0.976725 28.5059 0.999571 28V4C0.97637 3.49405 1.15458 2.99952 1.49519 2.62468C1.8358 2.24983 2.31105 2.02522 2.8169 2H19.1809C19.6869 2.02522 20.1623 2.24979 20.5031 2.6246C20.8439 2.9994 21.0224 3.49392 20.9996 4V9.8439" stroke="#47474F" stroke-width="2" stroke-linecap="round" stroke-linejoin="round"/>
</svg>
