<svg width="22" height="20" viewBox="0 0 22 20" fill="none" xmlns="http://www.w3.org/2000/svg">
<path fill-rule="evenodd" clip-rule="evenodd" d="M10.992 1.93467C9.54771 0.716897 8.11512 0.00601719 6.6828 0.00601719C4.85824 0.00601719 3.30235 0.586569 2.04223 1.82007C-0.680808 4.48237 -0.680706 8.82255 2.04231 11.486C2.29387 11.7324 3.54282 13.0342 5.43927 15.0232C6.19277 15.8135 6.99897 16.6604 7.80437 17.5072L8.87761 18.6363C8.93988 18.6983 8.98157 18.7422 9.04231 18.8084L9.04847 18.8151C9.13474 18.9097 9.1927 18.9733 9.23885 19.0231C9.83474 19.6658 10.2596 19.9834 10.9926 20C11.7052 20 12.1385 19.6786 12.746 19.0225C12.7918 18.973 12.8496 18.9096 12.9352 18.8156L12.9423 18.8078C13.0028 18.7418 13.0445 18.6979 13.0773 18.6657C13.1267 18.6152 13.1657 18.5754 13.2046 18.5356C13.3487 18.3883 13.4927 18.2409 14.1697 17.548L16.5355 15.1268C18.5603 13.0548 19.9387 11.6446 19.963 11.6204C22.68 8.96259 22.68 4.62223 19.9567 1.95998C18.6187 0.650724 17.084 0 15.2778 0C13.8775 0 12.3939 0.740322 10.992 1.93467ZM11.0677 17.9181C11.0409 17.9477 11.0158 17.9749 10.9923 18C10.9686 17.9748 10.9433 17.9473 10.9163 17.9175C10.878 17.8752 10.8285 17.8198 10.7365 17.7167L10.7208 17.6991C10.6313 17.5994 10.5624 17.5253 10.4914 17.4541C10.489 17.4515 10.4868 17.4491 10.4847 17.4467C10.4639 17.4234 10.4427 17.4006 10.2157 17.1564L9.40844 16.2883C8.57307 15.3904 7.73685 14.4924 6.93491 13.6325C4.94311 11.4969 3.66847 10.1386 3.37566 9.84534C1.5416 8.01138 1.5416 5.06486 3.37538 3.2322C4.21344 2.39341 5.22796 2.00638 6.526 2.00638C7.51567 2.00638 8.80385 2.78061 10.1767 4.13484L11.0131 4.9599L11.8369 4.12118C13.117 2.81805 14.476 2 15.4339 2C16.6779 2 17.6775 2.43329 18.6248 3.38097C20.4584 5.21342 20.4584 8.15999 18.6249 9.99358C18.5782 10.0409 17.3422 11.3337 15.0393 13.7429L11.4741 17.4731C11.4213 17.5257 11.3524 17.5999 11.263 17.6996L11.2452 17.7196C11.1546 17.8213 11.1056 17.8762 11.0677 17.9181Z" fill="#1B1B1F"/>
</svg>
