<svg width="32" height="32" viewBox="0 0 32 32" fill="none" xmlns="http://www.w3.org/2000/svg">
<path d="M25.001 22.6668C25.001 21.9305 25.5979 21.3335 26.3343 21.3335H29.001C29.7374 21.3335 30.3343 21.9305 30.3343 22.6668V29.3335C30.3343 30.0699 29.7374 30.6668 29.001 30.6668H26.3343C25.5979 30.6668 25.001 30.0699 25.001 29.3335V22.6668Z" stroke="#47474F" stroke-width="2" stroke-linecap="round" stroke-linejoin="round"/>
<path d="M1.66699 22.6668C1.66699 21.9305 2.26395 21.3335 3.00033 21.3335H5.66699C6.40337 21.3335 7.00033 21.9305 7.00033 22.6668V29.3335C7.00033 30.0699 6.40337 30.6668 5.66699 30.6668H3.00033C2.26395 30.6668 1.66699 30.0699 1.66699 29.3335V22.6668Z" stroke="#47474F" stroke-width="2" stroke-linecap="round" stroke-linejoin="round"/>
<path d="M25.001 22.6668C25.001 21.9305 25.5979 21.3335 26.3343 21.3335H29.001C29.7374 21.3335 30.3343 21.9305 30.3343 22.6668V29.3335C30.3343 30.0699 29.7374 30.6668 29.001 30.6668H26.3343C25.5979 30.6668 25.001 30.0699 25.001 29.3335V22.6668Z" stroke="#47474F" stroke-width="2" stroke-linecap="round" stroke-linejoin="round"/>
<path d="M13.3335 2.5L18.6668 2.5" stroke="#47474F" stroke-width="2" stroke-linecap="round" stroke-linejoin="round"/>
<path d="M25.3337 6H16.0003H6.66699" stroke="#47474F" stroke-width="2" stroke-linecap="round" stroke-linejoin="round"/>
<path d="M1.66699 22.6668C1.66699 21.9305 2.26395 21.3335 3.00033 21.3335H5.66699C6.40337 21.3335 7.00033 21.9305 7.00033 22.6668V29.3335C7.00033 30.0699 6.40337 30.6668 5.66699 30.6668H3.00033C2.26395 30.6668 1.66699 30.0699 1.66699 29.3335V22.6668Z" stroke="#47474F" stroke-width="2" stroke-linecap="round" stroke-linejoin="round"/>
<path d="M13.3335 29.5H18.6668" stroke="#47474F" stroke-width="2" stroke-linecap="round" stroke-linejoin="round"/>
<path d="M25.0008 26H7.00049" stroke="#47474F" stroke-width="2" stroke-linecap="round" stroke-linejoin="round"/>
</svg>
