<svg width="24" height="24" viewBox="0 0 24 24" fill="none" xmlns="http://www.w3.org/2000/svg"><path d="M7.333 17.455h9.273M12 6.545v10.91M6 6.545h12M10.667 20h2.666M10.667 4h2.666M4.727 14.91h1.88c.4 0 .726.325.726.726v3.637a.727.727 0 0 1-.727.727H4.727A.727.727 0 0 1 4 19.273v-3.637c0-.401.326-.727.727-.727Zm12.606 0h1.94c.401 0 .727.325.727.726v3.637a.727.727 0 0 1-.727.727h-1.94a.727.727 0 0 1-.727-.727v-3.637c0-.401.326-.727.727-.727Z" stroke="#1B1B1F" stroke-width="1.5" stroke-linecap="round" stroke-linejoin="round"/></svg>