<svg width="32" height="32" viewBox="0 0 32 32" fill="none" xmlns="http://www.w3.org/2000/svg">
<path d="M15.4223 1.35612C15.4763 1.24897 15.559 1.15892 15.6612 1.09599C15.7634 1.03307 15.881 0.999756 16.001 0.999756C16.121 0.999756 16.2386 1.03307 16.3408 1.09599C16.443 1.15892 16.5257 1.24897 16.5797 1.35612L17.925 4.06812C17.9715 4.16109 18.0398 4.24142 18.1241 4.30225C18.2084 4.36308 18.3061 4.40261 18.409 4.41746L21.4277 4.85346C21.5456 4.87002 21.6565 4.91908 21.7481 4.99514C21.8398 5.07121 21.9084 5.17127 21.9463 5.28412C21.9835 5.39654 21.9881 5.5172 21.9596 5.63212C21.931 5.74705 21.8705 5.85152 21.785 5.93346L19.601 8.05879C19.5272 8.12995 19.4719 8.21802 19.4399 8.31536C19.4078 8.4127 19.4 8.5164 19.417 8.61746L19.9343 11.6135C19.9539 11.7307 19.9399 11.851 19.8942 11.9607C19.8484 12.0703 19.7727 12.1649 19.6757 12.2335C19.5779 12.3032 19.4627 12.3445 19.3429 12.3528C19.2231 12.361 19.1034 12.3359 18.997 12.2801L16.3023 10.8748C16.2095 10.8255 16.1061 10.7998 16.001 10.7998C15.8959 10.7998 15.7925 10.8255 15.6997 10.8748L13.0117 12.2801C12.9053 12.3359 12.7855 12.361 12.6657 12.3528C12.5459 12.3445 12.4307 12.3032 12.333 12.2335C12.236 12.1649 12.1602 12.0703 12.1145 11.9607C12.0687 11.851 12.0548 11.7307 12.0743 11.6135L12.5917 8.61746C12.6087 8.5164 12.6008 8.4127 12.5688 8.31536C12.5367 8.21802 12.4814 8.12995 12.4077 8.05879L10.217 5.93346C10.1315 5.85152 10.071 5.74705 10.0424 5.63212C10.0139 5.5172 10.0185 5.39654 10.0557 5.28412C10.0936 5.17127 10.1622 5.07121 10.2538 4.99514C10.3454 4.91908 10.4564 4.87002 10.5743 4.85346L13.593 4.41746C13.6959 4.40261 13.7936 4.36308 13.8779 4.30225C13.9622 4.24142 14.0305 4.16109 14.077 4.06812L15.4223 1.35612Z" stroke="#47474F" stroke-width="2" stroke-linecap="round" stroke-linejoin="round"/>
<path d="M6.97931 2.99195C6.85929 2.99161 6.74156 3.02474 6.63933 3.08763C6.53711 3.15052 6.45445 3.24067 6.40064 3.34795L5.05397 6.05995C5.00735 6.15308 4.93884 6.23352 4.85431 6.29436C4.76978 6.3552 4.67176 6.39464 4.56864 6.40928L1.55131 6.84528C1.4334 6.86184 1.32243 6.9109 1.23082 6.98696C1.13922 7.06303 1.07059 7.16309 1.03264 7.27595C0.995594 7.38828 0.990955 7.50878 1.01925 7.62362C1.04755 7.73847 1.10765 7.84302 1.19264 7.92528L3.38464 10.0466C3.45835 10.1178 3.51353 10.2059 3.54537 10.3033C3.57721 10.4006 3.58474 10.5043 3.56731 10.6053L3.05131 13.5999C3.03137 13.7172 3.04495 13.8378 3.09047 13.9477C3.13599 14.0576 3.21161 14.1524 3.30864 14.2213C3.4069 14.2905 3.52233 14.3314 3.64228 14.3394C3.76223 14.3474 3.88206 14.3222 3.98864 14.2666L6.67531 12.8666C6.76855 12.818 6.87215 12.7926 6.97731 12.7926C7.08246 12.7926 7.18606 12.818 7.27931 12.8666L8.39161 13.4466" stroke="#47474F" stroke-width="2" stroke-linecap="round" stroke-linejoin="round"/>
<path d="M25.0218 2.99195C25.1418 2.99161 25.2595 3.02474 25.3617 3.08763C25.464 3.15052 25.5466 3.24067 25.6004 3.34795L26.9471 6.05461C26.9937 6.14775 27.0622 6.22818 27.1468 6.28903C27.2313 6.34987 27.3293 6.3893 27.4324 6.40395L30.4498 6.83995C30.5677 6.85651 30.6786 6.90557 30.7702 6.98163C30.8618 7.05769 30.9305 7.15776 30.9684 7.27061C31.0055 7.38294 31.0101 7.50344 30.9818 7.61829C30.9535 7.73314 30.8934 7.83769 30.8084 7.91995L28.6164 10.0466C28.5427 10.1178 28.4875 10.2059 28.4557 10.3033C28.4239 10.4006 28.4163 10.5043 28.4338 10.6053L28.9498 13.5999C28.9697 13.7172 28.9561 13.8378 28.9106 13.9477C28.8651 14.0576 28.7894 14.1524 28.6924 14.2213C28.5942 14.2905 28.4787 14.3314 28.3588 14.3394C28.2388 14.3474 28.119 14.3222 28.0124 14.2666L25.3258 12.8653C25.2325 12.8167 25.1289 12.7913 25.0238 12.7913C24.9186 12.7913 24.815 12.8167 24.7218 12.8653L23.5967 13.4532" stroke="#47474F" stroke-width="2" stroke-linecap="round" stroke-linejoin="round"/>
<path d="M4.00049 18.6667H28.0005" stroke="#47474F" stroke-width="2" stroke-linecap="round" stroke-linejoin="round"/>
<path d="M4.00049 29.3335H28.0005" stroke="#47474F" stroke-width="2" stroke-linecap="round" stroke-linejoin="round"/>
<path d="M4.00049 24H22.6672" stroke="#47474F" stroke-width="2" stroke-linecap="round" stroke-linejoin="round"/>
</svg>
