<svg width="32" height="32" viewBox="0 0 32 32" fill="none" xmlns="http://www.w3.org/2000/svg">
<path d="M15.9995 20C19.8655 20 22.9995 16.866 22.9995 13C22.9995 9.13401 19.8655 6 15.9995 6C12.1335 6 8.99951 9.13401 8.99951 13C8.99951 16.866 12.1335 20 15.9995 20Z" stroke="#47474F" stroke-width="2" stroke-linecap="round" stroke-linejoin="round"/>
<path d="M15.9995 31C24.2838 31 30.9995 24.2843 30.9995 16C30.9995 7.71573 24.2838 1 15.9995 1C7.71524 1 0.999512 7.71573 0.999512 16C0.999512 24.2843 7.71524 31 15.9995 31Z" stroke="#47474F" stroke-width="2" stroke-linecap="round" stroke-linejoin="round"/>
<path d="M6.78223 27.8344C7.98994 26.6191 9.42605 25.6546 11.0079 24.9965C12.5898 24.3383 14.2862 23.9995 15.9996 23.9995C17.7129 23.9995 19.4093 24.3383 20.9912 24.9965C22.549 25.6446 23.9654 26.5898 25.1616 27.7791" stroke="#47474F" stroke-width="2" stroke-linecap="round" stroke-linejoin="round"/>
<path d="M9.96729 9.44531C11.051 10.5698 12.3505 11.4642 13.7878 12.0749C15.4672 12.7508 16.4581 12.9673 18.3326 13C19.9144 13.0004 21.4796 12.6783 22.9326 12.0533" stroke="#47474F" stroke-width="2" stroke-linecap="round" stroke-linejoin="round"/>
</svg>
