<svg width="32" height="32" viewBox="0 0 32 32" fill="none" xmlns="http://www.w3.org/2000/svg">
<path d="M3.71143 28.0002L28.7114 4.00024" stroke="#47474F" stroke-width="2" stroke-linecap="round" stroke-linejoin="round"/>
<path d="M26.3336 11.8401C27.8197 12.9248 29.1929 14.1564 30.4323 15.5161C30.7991 15.9233 31.0021 16.452 31.0021 17.0001C31.0021 17.5482 30.7991 18.0768 30.4323 18.4841C27.011 22.2494 21.467 26.0921 16.0003 26.0001C14.645 26.0102 13.2962 25.8133 12.0005 25.4163" stroke="#47474F" stroke-width="2" stroke-linecap="round" stroke-linejoin="round"/>
<path d="M5.03941 21.6817C3.79506 20.7154 2.63531 19.6449 1.57275 18.4817C1.20592 18.0744 1.00293 17.5458 1.00293 16.9977C1.00293 16.4496 1.20592 15.9209 1.57275 15.5137C5.06741 11.6697 10.6261 7.91101 16.0007 8.00034C17.0342 7.98875 18.0651 8.10304 19.0705 8.34056" stroke="#47474F" stroke-width="2" stroke-linecap="round" stroke-linejoin="round"/>
<path d="M16.0003 12.0002C15.3436 12.0001 14.6934 12.1293 14.0867 12.3805C13.4799 12.6317 12.9287 13 12.4644 13.4643C12 13.9286 11.6317 14.4799 11.3805 15.0866C11.1353 15.6789 11.0063 16.3126 11.0005 16.9533" stroke="#47474F" stroke-width="2" stroke-linecap="round" stroke-linejoin="round"/>
<path d="M16.0005 22.0003C16.6572 22.0003 17.3075 21.8709 17.9142 21.6195C18.5209 21.3682 19.0722 20.9998 19.5365 20.5353C20.0008 20.0709 20.3691 19.5196 20.6203 18.9128C20.8673 18.316 20.9964 17.6771 21.0004 17.0315" stroke="#47474F" stroke-width="2" stroke-linecap="round" stroke-linejoin="round"/>
</svg>
