<svg width="82" height="33" viewBox="0 0 82 33" fill="none" xmlns="http://www.w3.org/2000/svg">
<g clip-path="url(#clip0_15399_35358)">
<path fill-rule="evenodd" clip-rule="evenodd" d="M18.5815 0.222749H23.3778C23.7062 0.219178 23.976 0.469808 23.9815 0.783642V30.6071C23.978 30.7562 23.9122 30.8977 23.7988 31.0001C23.6853 31.1025 23.5337 31.1572 23.3778 31.152H19.2858C18.9367 31.143 18.6238 30.9437 18.4808 30.6392L17.9777 29.3732C16.0394 30.9886 13.5565 31.8819 10.9845 31.8892C4.93046 31.8892 0 26.9533 0 20.8796C0 14.806 4.93046 9.87011 10.9845 9.87011C13.5589 9.88023 16.0427 10.7795 17.9777 12.4021V0.767616C17.9812 0.618552 18.047 0.477031 18.1605 0.374654C18.2739 0.272277 18.4255 0.21757 18.5815 0.222749ZM6.02053 20.8957C6.02053 23.9405 8.70377 26.4084 12.0075 26.4084C15.3113 26.4084 17.9945 23.9405 17.9945 20.8957C17.9945 17.8508 15.3113 15.3829 12.0075 15.3829C8.70377 15.3829 6.02053 17.8508 6.02053 20.8957Z" fill="white"/>
<path fill-rule="evenodd" clip-rule="evenodd" d="M36.2204 12.396C38.1529 10.7701 40.6383 9.8707 43.2136 9.86523C49.2677 9.86523 54.1982 14.8146 54.1982 20.8852C54.1982 26.9558 49.2677 31.8892 43.2136 31.8892C40.6392 31.879 38.1555 30.9802 36.2204 29.3584L35.7173 30.6238C35.5692 30.9239 35.2594 31.1211 34.9124 31.1363H30.8204C30.6645 31.1415 30.5129 31.0868 30.3994 30.9845C30.286 30.8822 30.2202 30.7407 30.2167 30.5917V0.767341C30.2202 0.618351 30.286 0.476902 30.3994 0.374577C30.5129 0.272252 30.6645 0.217573 30.8204 0.222749H35.6167C35.7726 0.217573 35.9243 0.272252 36.0377 0.374577C36.1511 0.476902 36.2169 0.618351 36.2204 0.767341V12.396ZM36.2204 20.8692C36.2204 23.9125 38.9037 26.3792 42.2074 26.3792C45.5112 26.3792 48.1944 23.9125 48.1944 20.8692C48.1944 17.8259 45.5112 15.3592 42.2074 15.3592C38.9037 15.3592 36.2204 17.8259 36.2204 20.8692Z" fill="white"/>
<path fill-rule="evenodd" clip-rule="evenodd" d="M76.6491 10.6581H81.0932C81.2492 10.6529 81.4008 10.7077 81.5142 10.8101C81.6276 10.9125 81.6935 11.0541 81.6969 11.2032V30.6831C81.6935 30.8322 81.6276 30.9738 81.5142 31.0762C81.4008 31.1786 81.2492 31.2334 81.0932 31.2282H77.0013C76.6521 31.2192 76.3392 31.0198 76.1963 30.7151L75.6932 29.4485C73.7549 31.0647 71.2719 31.9584 68.7 31.9657C62.6459 31.9657 57.7155 27.0276 57.7155 20.9512C57.7155 14.8747 62.6459 9.93665 68.7 9.93665C71.273 9.93813 73.758 10.8326 75.6932 12.4538L75.9447 11.1872C76.0284 10.8795 76.3166 10.663 76.6491 10.6581ZM69.723 26.4504C73.0099 26.4504 75.6932 23.9974 75.71 20.9672V20.9031C75.6932 17.8729 73.0267 15.4199 69.723 15.4199C66.4192 15.4199 63.736 17.8889 63.736 20.9351C63.736 23.9814 66.436 26.4504 69.723 26.4504Z" fill="white"/>
</g>
<defs>
<clipPath id="clip0_15399_35358">
<rect width="81.697" height="32" fill="white" transform="translate(0 0.0732422)"/>
</clipPath>
</defs>
</svg>
