<svg width="82" height="32" viewBox="0 0 82 32" fill="none" xmlns="http://www.w3.org/2000/svg">
  <g clip-path="url(#a)" fill-rule="evenodd" clip-rule="evenodd" fill="#fff">
    <path d="M18.581.15h4.797a.585.585 0 0 1 .604.56v29.824a.547.547 0 0 1-.183.393.6.6 0 0 1-.421.152h-4.092a.91.91 0 0 1-.805-.513l-.503-1.266c-1.939 1.615-4.422 2.509-6.994 2.516C4.93 31.816 0 26.88 0 20.806c0-6.073 4.93-11.01 10.985-11.01 2.574.011 5.058.91 6.993 2.533V.694c.003-.149.069-.29.182-.393a.6.6 0 0 1 .421-.151ZM6.021 20.822c0 3.045 2.683 5.513 5.987 5.513 3.303 0 5.986-2.468 5.986-5.513 0-3.044-2.683-5.512-5.986-5.512-3.304 0-5.987 2.468-5.987 5.512ZM36.22 12.323c1.933-1.626 4.418-2.526 6.994-2.531 6.054 0 10.984 4.95 10.984 11.02 0 6.07-4.93 11.004-10.984 11.004-2.575-.01-5.058-.909-6.994-2.53l-.503 1.264a.94.94 0 0 1-.805.513H30.82a.6.6 0 0 1-.42-.152.547.547 0 0 1-.183-.393V.694a.547.547 0 0 1 .182-.393.6.6 0 0 1 .421-.151h4.797a.6.6 0 0 1 .42.151c.114.103.18.244.183.393v11.629Zm0 8.473c0 3.043 2.684 5.51 5.987 5.51 3.304 0 5.987-2.467 5.987-5.51 0-3.043-2.683-5.51-5.987-5.51-3.303 0-5.987 2.467-5.987 5.51ZM76.65 10.585h4.443a.599.599 0 0 1 .421.152c.114.102.18.244.183.393v19.48a.547.547 0 0 1-.183.393.599.599 0 0 1-.42.152H77a.91.91 0 0 1-.805-.513l-.503-1.267c-1.938 1.616-4.421 2.51-6.993 2.517-6.054 0-10.985-4.938-10.985-11.014 0-6.077 4.93-11.015 10.985-11.015 2.573.002 5.058.896 6.993 2.517l.252-1.266a.734.734 0 0 1 .704-.53Zm-6.927 15.792c3.287 0 5.97-2.453 5.987-5.483v-.064c-.017-3.03-2.683-5.483-5.987-5.483-3.304 0-5.987 2.469-5.987 5.515s2.7 5.515 5.987 5.515Z"/>
  </g>
  <defs>
    <clipPath id="a">
      <path fill="#fff" d="M0 0h81.697v32H0z"/>
    </clipPath>
  </defs>
</svg>
