<svg width="24" height="24" viewBox="0 0 24 24" fill="none" xmlns="http://www.w3.org/2000/svg">
  <path d="m8.25 15.75 7.5-7.5M5.106 18.894c-.863-.862-.291-2.674-.73-3.736C3.921 14.063 2.25 13.172 2.25 12s1.67-2.063 2.126-3.158c.439-1.06-.133-2.874.73-3.736.862-.863 2.675-.291 3.736-.73C9.942 3.921 10.828 2.25 12 2.25s2.063 1.67 3.158 2.126c1.062.439 2.874-.133 3.736.73.863.862.291 2.674.73 3.736.455 1.1 2.126 1.986 2.126 3.158s-1.67 2.063-2.126 3.158c-.439 1.062.133 2.874-.73 3.736-.862.863-2.674.291-3.736.73-1.095.455-1.986 2.126-3.158 2.126s-2.063-1.67-3.158-2.126c-1.06-.439-2.874.133-3.736-.73ZM10.5 9a1.5 1.5 0 1 1-3 0 1.5 1.5 0 0 1 3 0Zm6 6a1.5 1.5 0 1 1-3 0 1.5 1.5 0 0 1 3 0Z" stroke="#1B1B1F" stroke-width="1.5" stroke-linecap="round" stroke-linejoin="round"/>
</svg>
