<svg width="32" height="32" viewBox="0 0 32 32" fill="none" xmlns="http://www.w3.org/2000/svg">
<path d="M29.5003 15.9997C29.5106 15.0219 29.2126 14.0658 28.6488 13.2669C28.0849 12.468 27.2837 11.8669 26.359 11.5491C26.7994 10.6672 26.9576 9.67104 26.8121 8.69609C26.6665 7.72113 26.2244 6.81462 25.5457 6.09974C24.8837 5.40201 24.0106 4.94148 23.0609 4.78919C22.1113 4.6369 21.1379 4.80132 20.291 5.25707C20.0295 4.32018 19.4685 3.49463 18.6938 2.9065C17.919 2.31838 16.973 2 16.0003 2C15.0276 2 14.0817 2.31838 13.3069 2.9065C12.5321 3.49463 11.9712 4.32018 11.7097 5.25707C10.8625 4.80144 9.88895 4.63709 8.93914 4.78937C7.98933 4.94165 7.11596 5.4021 6.45367 6.09974C5.77518 6.81477 5.33326 7.72135 5.18799 8.6963C5.04271 9.67125 5.20111 10.6673 5.64167 11.5491C4.72268 11.8757 3.92734 12.4788 3.36489 13.2756C2.80245 14.0724 2.50049 15.0238 2.50049 15.9991C2.50049 16.9744 2.80245 17.9258 3.36489 18.7226C3.92734 19.5194 4.72268 20.1225 5.64167 20.4491C5.20111 21.3309 5.04271 22.3269 5.18799 23.3018C5.33326 24.2768 5.77518 25.1834 6.45367 25.8984C7.1158 26.5963 7.98909 27.057 8.93891 27.2095C9.88873 27.362 10.8623 27.1979 11.7097 26.7424C11.9712 27.6793 12.5321 28.5048 13.3069 29.093C14.0817 29.6811 15.0276 29.9995 16.0003 29.9995C16.973 29.9995 17.919 29.6811 18.6938 29.093C19.4685 28.5048 20.0295 27.6793 20.291 26.7424C21.1381 27.198 22.1115 27.3622 23.0612 27.2097C24.0108 27.0571 24.8839 26.5963 25.5457 25.8984C26.2244 25.1835 26.6665 24.277 26.8121 23.3021C26.9576 22.3271 26.7994 21.331 26.359 20.4491C27.2836 20.1315 28.0848 19.5307 28.6486 18.732C29.2125 17.9333 29.5105 16.9774 29.5003 15.9997V15.9997Z" stroke="#47474F" stroke-width="2" stroke-linecap="round" stroke-linejoin="round"/>
<path d="M11.5005 21L21.5005 11" stroke="#47474F" stroke-width="2" stroke-linecap="round" stroke-linejoin="round"/>
<path d="M12.5005 14C13.6051 14 14.5005 13.1046 14.5005 12C14.5005 10.8954 13.6051 10 12.5005 10C11.3959 10 10.5005 10.8954 10.5005 12C10.5005 13.1046 11.3959 14 12.5005 14Z" stroke="#47474F" stroke-width="2" stroke-linecap="round" stroke-linejoin="round"/>
<path d="M20.5005 22C21.6051 22 22.5005 21.1046 22.5005 20C22.5005 18.8954 21.6051 18 20.5005 18C19.3959 18 18.5005 18.8954 18.5005 20C18.5005 21.1046 19.3959 22 20.5005 22Z" stroke="#47474F" stroke-width="2" stroke-linecap="round" stroke-linejoin="round"/>
</svg>
