<svg xmlns="http://www.w3.org/2000/svg" width="24" height="24" fill="none"><path fill="#1b1b1f" d="m16.125 12 .398.636a.75.75 0 0 0 0-1.272zm-6-3.75.398-.636a.75.75 0 0 0-1.148.636zm0 7.5h-.75a.75.75 0 0 0 1.148.636zM21 12h-.75A8.25 8.25 0 0 1 12 20.25v1.5c5.385 0 9.75-4.365 9.75-9.75zm-9 9v-.75A8.25 8.25 0 0 1 3.75 12h-1.5c0 5.385 4.365 9.75 9.75 9.75zm-9-9h.75A8.25 8.25 0 0 1 12 3.75v-1.5c-5.385 0-9.75 4.365-9.75 9.75zm9-9v.75A8.25 8.25 0 0 1 20.25 12h1.5c0-5.385-4.365-9.75-9.75-9.75zm4.125 9 .398-.636-6-3.75-.398.636-.398.636 6 3.75zm-6-3.75h-.75v7.5h1.5v-7.5zm0 7.5.398.636 6-3.75-.398-.636-.398-.636-6 3.75z"/></svg>