<svg width="24" height="24" viewBox="0 0 24 24" fill="none" xmlns="http://www.w3.org/2000/svg"><path d="M20.25 20.21a3.107 3.107 0 0 1-1.774-.235c-.571-.253-1.093-.671-1.526-1.225a3.564 3.564 0 0 1-1.121 1.077c-.426.251-.888.38-1.354.38-.466 0-.928-.129-1.354-.38A3.564 3.564 0 0 1 12 18.75a3.564 3.564 0 0 1-1.121 1.077c-.426.251-.888.38-1.354.38-.466 0-.928-.129-1.354-.38A3.564 3.564 0 0 1 7.05 18.75c-.433.554-.955.973-1.526 1.225a3.107 3.107 0 0 1-1.774.234M9 13.5h11.25L18 15.75H6L3.75 13.5H9Zm0 0v-2.25m0 0H4.5C6.75 9.75 8.25 8.25 9 6V3.75m0 7.5 8.25-.75C15.75 7.5 13.5 6 9 3.75m0 7.5v-7.5" stroke="#1B1B1F" stroke-width="1.5" stroke-linecap="round" stroke-linejoin="round"/></svg>