<svg width="32" height="32" viewBox="0 0 32 32" fill="none" xmlns="http://www.w3.org/2000/svg">
<path d="M27.9335 14.6031C27.9335 21.9318 21.9789 27.8729 14.6335 27.8729C7.28811 27.8729 1.3335 21.9318 1.3335 14.6031C1.3335 7.27436 7.28811 1.33325 14.6335 1.33325C21.9789 1.33325 27.9335 7.27436 27.9335 14.6031Z" stroke="#47474F" stroke-width="2" stroke-linecap="round" stroke-linejoin="round"/>
<path d="M20.4894 11.5341C20.2265 11.2599 19.9103 11.0417 19.5601 10.8925C19.2098 10.7434 18.8327 10.6665 18.4516 10.6665C18.0705 10.6665 17.6934 10.7434 17.3431 10.8925C16.9929 11.0417 16.6767 11.2599 16.4138 11.5341L14.6672 13.3289L12.9205 11.5341C12.6576 11.2599 12.3414 11.0417 11.9912 10.8925C11.6409 10.7434 11.2638 10.6665 10.8827 10.6665C10.5016 10.6665 10.1245 10.7434 9.77426 10.8925C9.42398 11.0417 9.10782 11.2599 8.84494 11.5341C8.30292 12.0984 8.00049 12.8484 8.00049 13.6285C8.00049 14.4086 8.30292 15.1587 8.84494 15.7229L14.0464 21.069C14.1265 21.1525 14.2228 21.219 14.3295 21.2644C14.4362 21.3098 14.5511 21.3332 14.6672 21.3332C14.7832 21.3332 14.8981 21.3098 15.0048 21.2644C15.1115 21.219 15.2078 21.1525 15.2879 21.069L20.4894 15.7229C21.0314 15.1587 21.3338 14.4086 21.3338 13.6285C21.3338 12.8484 21.0314 12.0984 20.4894 11.5341Z" stroke="#47474F" stroke-width="2" stroke-linecap="round" stroke-linejoin="round"/>
<path d="M23.2466 24.7151L29.334 30.6665" stroke="#47474F" stroke-width="2" stroke-linecap="round" stroke-linejoin="round"/>
</svg>
