<svg width="32" height="32" viewBox="0 0 32 32" fill="none" xmlns="http://www.w3.org/2000/svg">
<path d="M21.3912 4.92133L23.3605 8H29.0005C29.5309 8 30.0396 8.21071 30.4147 8.58579C30.7898 8.96086 31.0005 9.46957 31.0005 10V26C31.0005 26.5304 30.7898 27.0391 30.4147 27.4142C30.0396 27.7893 29.5309 28 29.0005 28H3.00049C2.47006 28 1.96135 27.7893 1.58627 27.4142C1.2112 27.0391 1.00049 26.5304 1.00049 26V10C1.00049 9.46957 1.2112 8.96086 1.58627 8.58579C1.96135 8.21071 2.47006 8 3.00049 8H8.64049L10.6112 4.92133C10.7921 4.63886 11.0411 4.40643 11.3354 4.24543C11.6297 4.08443 11.9597 4.00003 12.2952 4H19.7058C20.0415 3.99981 20.3718 4.0841 20.6663 4.24511C20.9609 4.40612 21.2101 4.63867 21.3912 4.92133Z" stroke="#47474F" stroke-width="2" stroke-linecap="round" stroke-linejoin="round"/>
<path d="M16.0003 22.6667C18.9458 22.6667 21.3337 20.2789 21.3337 17.3333C21.3337 14.3878 18.9458 12 16.0003 12C13.0548 12 10.667 14.3878 10.667 17.3333C10.667 20.2789 13.0548 22.6667 16.0003 22.6667Z" stroke="#47474F" stroke-width="2" stroke-linecap="round" stroke-linejoin="round"/>
<path d="M5.3335 8C5.3335 7.21895 5.3335 6.78105 5.3335 6" stroke="#47474F" stroke-width="2" stroke-linecap="round" stroke-linejoin="round"/>
</svg>
