<svg width="32" height="32" viewBox="0 0 32 32" fill="none" xmlns="http://www.w3.org/2000/svg">
<path d="M14.0071 2.48828C15.0736 1.19736 17.0521 1.19736 18.1187 2.48828L19.5863 4.26469C20.1506 4.94763 21.0171 5.30579 21.8989 5.22049L24.1957 4.9983C25.8666 4.83666 27.2695 6.24057 27.1066 7.91135L26.886 10.1736C26.7996 11.0596 27.1611 11.9303 27.8495 12.4947L29.6099 13.9377C30.9114 15.0046 30.9114 16.9954 29.6099 18.0623L27.8495 19.5053C27.1611 20.0697 26.7996 20.9404 26.886 21.8264L27.1066 24.0887C27.2695 25.7594 25.8666 27.1633 24.1957 27.0017L21.8989 26.7795C21.0171 26.6942 20.1506 27.0524 19.5863 27.7353L18.1187 29.5117C17.0521 30.8026 15.0736 30.8026 14.0071 29.5117L12.5394 27.7353C11.9752 27.0524 11.1086 26.6942 10.2268 26.7795L7.92999 27.0017C6.2591 27.1633 4.85624 25.7594 5.01914 24.0887L5.23971 21.8264C5.32609 20.9404 4.96465 20.0697 4.27618 19.5053L2.51582 18.0623C1.21434 16.9954 1.21434 15.0046 2.51582 13.9377L4.27618 12.4947C4.96465 11.9303 5.32609 11.0596 5.23971 10.1736L5.01914 7.91134C4.85624 6.24057 6.2591 4.83666 7.92999 4.9983L10.2268 5.22049C11.1086 5.30579 11.9752 4.94763 12.5394 4.26469L14.0071 2.48828Z" stroke="#47474F" stroke-width="2"/>
<path d="M11 16.1196L14.0508 19.1585C14.6242 19.7297 15.5701 19.6624 16.057 19.0159L21.3395 12" stroke="#47474F" stroke-width="2" stroke-linecap="round"/>
</svg>
