<svg width="24" height="24" viewBox="0 0 24 24" fill="none" xmlns="http://www.w3.org/2000/svg"><path d="M8.25 12.75 10.5 15l5.25-5.25M5.636 18.364c-.796-.796-.268-2.469-.673-3.449C4.543 13.905 3 13.082 3 12s1.542-1.904 1.963-2.915c.405-.98-.123-2.653.673-3.449.796-.796 2.47-.268 3.449-.673C10.1 4.543 10.918 3 12 3s1.904 1.542 2.915 1.963c.98.405 2.653-.123 3.449.673.796.796.268 2.469.673 3.449C19.457 10.1 21 10.918 21 12s-1.542 1.904-1.963 2.915c-.405.98.123 2.653-.673 3.449-.796.796-2.469.268-3.449.673C13.905 19.457 13.082 21 12 21s-1.904-1.542-2.915-1.963c-.98-.405-2.653.123-3.449-.673Z" stroke="#1B1B1F" stroke-width="1.5" stroke-linecap="round" stroke-linejoin="round"/></svg>