<svg width="32" height="32" viewBox="0 0 32 32" fill="none" xmlns="http://www.w3.org/2000/svg">
<path d="M8.99902 1V31" stroke="#47474F" stroke-width="2" stroke-linecap="round" stroke-linejoin="round"/>
<path d="M12.999 1V10C12.9959 11.0599 12.5734 12.0755 11.824 12.8249C11.0745 13.5744 10.0589 13.9968 8.99902 14C7.93913 13.9968 6.92355 13.5744 6.17409 12.8249C5.42463 12.0755 5.00219 11.0599 4.99902 10V1" stroke="#47474F" stroke-width="2" stroke-linecap="round" stroke-linejoin="round"/>
<path d="M20.9976 31.0005V2.00448C20.9989 1.78807 21.0699 1.57786 21.2 1.40493C21.3301 1.232 21.5124 1.10553 21.72 1.04422C21.9275 0.982917 22.1493 0.990032 22.3525 1.06451C22.5557 1.139 22.7295 1.27689 22.8482 1.45781C26.5522 7.24048 26.7842 13.2565 26.9989 19.0005C27.009 19.2658 26.9642 19.5304 26.8673 19.7776C26.7703 20.0249 26.6234 20.2494 26.4356 20.4372C26.2478 20.6249 26.0233 20.7719 25.7761 20.8688C25.5288 20.9658 25.2642 21.0106 24.9989 21.0005H21.4061" stroke="#47474F" stroke-width="2" stroke-linecap="round" stroke-linejoin="round"/>
</svg>
