<svg width="24" height="24" viewBox="0 0 24 24" fill="none" xmlns="http://www.w3.org/2000/svg">
  <path d="M17.1 6.9a1.138 1.138 0 0 1 0-1.61l1.208-1.207a1.138 1.138 0 1 1 1.609 1.61L18.71 6.9a1.138 1.138 0 0 1-1.61 0Zm0 0-2.815 2.815m-7.24 5.634 1.608 1.608m4.055-.714a1.138 1.138 0 0 1 .94-1.252 2.284 2.284 0 0 0 1.258-.63c1.112-1.11.835-3.19-.62-4.645-1.457-1.455-3.535-1.733-4.645-.622a2.285 2.285 0 0 0-.63 1.258 1.138 1.138 0 0 1-1.252.941 3.592 3.592 0 0 0-3.02.947c-1.554 1.555-1.243 4.388.698 6.326 1.94 1.937 4.772 2.25 6.327.695a3.596 3.596 0 0 0 .944-3.018Zm-1.24-2.573a1.138 1.138 0 1 0 0-2.275 1.138 1.138 0 0 0 0 2.275Z" stroke="#1B1B1F" stroke-width="1.5" stroke-linecap="round" stroke-linejoin="round"/>
</svg>
