<svg width="24" height="24" viewBox="0 0 24 24" fill="none" xmlns="http://www.w3.org/2000/svg">
  <path d="M13.5 22.125a.75.75 0 0 0 1.5 0h-1.5Zm.75-5.625H15a.75.75 0 0 0-.347-.633l-.403.633Zm-8.194 5.341a.75.75 0 0 0 1.388.568l-1.388-.568ZM12 9l.53-.53a.75.75 0 0 0-1.23.26L12 9Zm6 4.5h.75a.75.75 0 0 0-.75-.75v.75Zm-.75 8.625a.75.75 0 0 0 1.5 0h-1.5ZM6.75 13.5l-.295.69a.75.75 0 0 0 .984-.395L6.75 13.5ZM9 8.25l.69.295a.75.75 0 0 0-.395-.984L9 8.25ZM6.375 7.125l.295-.69a.75.75 0 0 0-.984.395l.689.295Zm-2.25 5.25-.69-.295a.75.75 0 0 0 .395.984l.295-.689Zm10.125 9.75H15V16.5h-1.5v5.625h.75Zm0-5.625.403-.633-4.125-2.625-.403.633-.403.633 4.125 2.625.403-.633Zm-4.125-2.625-.694-.284-3.375 8.25.694.284.694.284 3.375-8.25-.694-.284Zm0 0 .7.27L12.7 9.268 12 9l-.7-.27-1.875 4.876.7.269ZM12 9l-.53.53c.55.551 1.054 1.1 1.552 1.634.492.527.98 1.041 1.476 1.487.988.89 2.1 1.599 3.502 1.599v-1.5c-.849 0-1.611-.415-2.498-1.214-.442-.397-.891-.868-1.383-1.395-.487-.521-1.014-1.097-1.589-1.671L12 9Zm6 4.5h-.75v8.625h1.5V13.5H18Zm-11.25 0 .69.295 2.25-5.25L9 8.25l-.69-.295-2.25 5.25.69.295ZM9 8.25l.295-.69L6.67 6.437l-.295.689-.295.69 2.625 1.124L9 8.25ZM6.375 7.125l-.69-.295-2.25 5.25.69.295.69.295 2.25-5.25-.69-.295Zm-2.25 5.25-.295.69 2.625 1.124.295-.689.295-.69-2.625-1.124-.295.689ZM16.5 4.5h-.75a1.5 1.5 0 0 1-1.5 1.5v1.5a3 3 0 0 0 3-3h-.75Zm-2.25 2.25V6a1.5 1.5 0 0 1-1.5-1.5h-1.5a3 3 0 0 0 3 3v-.75ZM12 4.5h.75a1.5 1.5 0 0 1 1.5-1.5V1.5a3 3 0 0 0-3 3H12Zm2.25-2.25V3a1.5 1.5 0 0 1 1.5 1.5h1.5a3 3 0 0 0-3-3v.75Z" fill="#1B1B1F"/>
</svg>
