<svg width="32" height="32" viewBox="0 0 32 32" fill="none" xmlns="http://www.w3.org/2000/svg">
<path d="M7.13686 1.20809C7.45074 1.36379 7.71821 1.59923 7.91249 1.89081L9.57516 4.38948L11.0418 2.98548C11.2659 2.76203 11.5399 2.59496 11.8411 2.498C12.1424 2.40103 12.4623 2.37694 12.7747 2.4277C13.0871 2.47846 13.383 2.60263 13.638 2.78999C13.893 2.97735 14.1 3.22257 14.2418 3.50548L17.0005 9.02281H1.00049L4.45916 2.10548C4.61582 1.79208 4.85208 1.52533 5.14426 1.33195C5.43644 1.13857 5.7743 1.02535 6.124 1.00361C6.4737 0.981871 6.82298 1.05238 7.13686 1.20809Z" stroke="#47474F" stroke-width="2" stroke-linecap="round" stroke-linejoin="round"/>
<path d="M27.0005 4L23.0005 15H31.0005L27.0005 4Z" stroke="#47474F" stroke-width="2" stroke-linecap="round" stroke-linejoin="round"/>
<path d="M27.0005 15V19" stroke="#47474F" stroke-width="2" stroke-linecap="round" stroke-linejoin="round"/>
<path d="M5.00049 16L1.00049 27H9.00049L5.00049 16Z" stroke="#47474F" stroke-width="2" stroke-linecap="round" stroke-linejoin="round"/>
<path d="M5.00049 27V31" stroke="#47474F" stroke-width="2" stroke-linecap="round" stroke-linejoin="round"/>
<path d="M26.0005 26.2666C26.7887 27.0217 27.3714 27.9651 27.6938 29.0079" stroke="#47474F" stroke-width="2" stroke-linecap="round" stroke-linejoin="round"/>
<path d="M20.0005 23.7976C20.3205 23.8749 20.6525 23.9429 20.9992 24.0003C21.6818 24.1108 22.3539 24.2785 23.0085 24.5016" stroke="#47474F" stroke-width="2" stroke-linecap="round" stroke-linejoin="round"/>
<path d="M14.2671 19.5562C14.6978 20.4136 15.2858 21.1825 16.0004 21.8228" stroke="#47474F" stroke-width="2" stroke-linecap="round" stroke-linejoin="round"/>
<path d="M13.0006 13C12.9981 13.7793 13.0368 14.5581 13.1166 15.3333" stroke="#47474F" stroke-width="2" stroke-linecap="round" stroke-linejoin="round"/>
</svg>
