<svg width="32" height="32" viewBox="0 0 32 32" fill="none" xmlns="http://www.w3.org/2000/svg">
<path d="M11.0005 24L7.00049 27V21H3.00049C2.47006 21 1.96135 20.7893 1.58627 20.4142C1.2112 20.0391 1.00049 19.5304 1.00049 19V3C1.00049 2.46957 1.2112 1.96086 1.58627 1.58579C1.96135 1.21071 2.47006 1 3.00049 1H25.0005C25.5309 1 26.0396 1.21071 26.4147 1.58579C26.7898 1.96086 27.0005 2.46957 27.0005 3V8.95313" stroke="#47474F" stroke-width="2" stroke-linecap="round" stroke-linejoin="round"/>
<path d="M7.00049 7H21.0005" stroke="#47474F" stroke-width="2" stroke-linecap="round" stroke-linejoin="round"/>
<path d="M7.00049 13H11.0005" stroke="#47474F" stroke-width="2" stroke-linecap="round" stroke-linejoin="round"/>
<path d="M31.0005 25H27.0005V31L21.0005 25H15.0005V13H31.0005V25Z" stroke="#47474F" stroke-width="2" stroke-linecap="round" stroke-linejoin="round"/>
<path d="M26.0005 20H20.0005" stroke="#47474F" stroke-width="2" stroke-linecap="round" stroke-linejoin="round"/>
</svg>
