<svg width="32" height="32" viewBox="0 0 32 32" fill="none" xmlns="http://www.w3.org/2000/svg">
<path d="M16.0005 30.9976C24.2848 30.9976 31.0005 24.2818 31.0005 15.9976C31.0005 7.71329 24.2848 0.997559 16.0005 0.997559C7.71622 0.997559 1.00049 7.71329 1.00049 15.9976C1.00049 24.2818 7.71622 30.9976 16.0005 30.9976Z" stroke="#47474F" stroke-width="2" stroke-linecap="round" stroke-linejoin="round"/>
<path d="M17.7785 8L10.7719 16.1576C10.7173 16.2223 10.6822 16.3013 10.671 16.3852C10.6597 16.4691 10.6726 16.5545 10.7082 16.6314C10.7438 16.7082 10.8007 16.7732 10.872 16.8189C10.9434 16.8645 11.0263 16.8888 11.1109 16.8889H14.2225V24L21.2291 15.8436C21.2836 15.7787 21.3185 15.6997 21.3297 15.6158C21.341 15.5318 21.328 15.4464 21.2924 15.3696C21.2569 15.2927 21.2001 15.2276 21.1289 15.1818C21.0576 15.136 20.9748 15.1115 20.8901 15.1111H17.7785V8Z" stroke="#47474F" stroke-width="2" stroke-linecap="round" stroke-linejoin="round"/>
</svg>
