<svg width="32" height="32" viewBox="0 0 32 32" fill="none" xmlns="http://www.w3.org/2000/svg">
<path d="M11.5559 2.6665H4.44477C3.46293 2.6665 2.66699 3.46244 2.66699 4.44428V11.5554C2.66699 12.5372 3.46293 13.3332 4.44477 13.3332H11.5559C12.5377 13.3332 13.3337 12.5372 13.3337 11.5554V4.44428C13.3337 3.46244 12.5377 2.6665 11.5559 2.6665Z" stroke="#47474F" stroke-width="2" stroke-linecap="round" stroke-linejoin="round"/>
<path d="M11.5559 18.6665H4.44477C3.46293 18.6665 2.66699 19.4624 2.66699 20.4443V27.5554C2.66699 28.5372 3.46293 29.3332 4.44477 29.3332H11.5559C12.5377 29.3332 13.3337 28.5372 13.3337 27.5554V20.4443C13.3337 19.4624 12.5377 18.6665 11.5559 18.6665Z" stroke="#47474F" stroke-width="2" stroke-linecap="round" stroke-linejoin="round"/>
<path d="M27.5559 2.6665H20.4448C19.4629 2.6665 18.667 3.46244 18.667 4.44428V11.5554C18.667 12.5372 19.4629 13.3332 20.4448 13.3332H27.5559C28.5377 13.3332 29.3337 12.5372 29.3337 11.5554V4.44428C29.3337 3.46244 28.5377 2.6665 27.5559 2.6665Z" stroke="#47474F" stroke-width="2" stroke-linecap="round" stroke-linejoin="round"/>
<path d="M27.5559 18.6665H20.4448C19.4629 18.6665 18.667 19.4624 18.667 20.4443V27.5554C18.667 28.5372 19.4629 29.3332 20.4448 29.3332H27.5559C28.5377 29.3332 29.3337 28.5372 29.3337 27.5554V20.4443C29.3337 19.4624 28.5377 18.6665 27.5559 18.6665Z" stroke="#47474F" stroke-width="2" stroke-linecap="round" stroke-linejoin="round"/>
</svg>
