<svg width="200" height="200" viewBox="0 0 200 200" fill="none" xmlns="http://www.w3.org/2000/svg">
<g filter="url(#filter0_g_33627_3591)">
<path d="M27.2959 155.553C50.8104 124.984 99.5067 62.4995 102.328 59.6777L141.127 72.5038L172.551 176.074C105.086 155.809 46.8557 153.843 27.2959 155.553Z" fill="#BE3830"/>
</g>
<g filter="url(#filter1_g_33627_3591)">
<path d="M123.12 33.4992C123.12 28.6895 127.535 24.8427 131.66 25.4829C135.785 26.1233 136.587 29.9721 136.587 33.1786C136.587 37.1008 134.292 39.7424 131.576 40.5843C131.878 40.8132 132.142 41.0894 132.374 41.3997C132.649 41.7675 132.982 42.2317 133.329 42.8288C133.63 43.3498 133.918 43.8282 134.137 44.3908C134.225 44.6158 134.701 45.4475 134.325 45.8243C133.63 46.5201 123.874 43.4982 123.586 43.3023C123.417 43.1872 123.988 42.7118 124.563 41.8356C124.827 41.4326 125.426 40.7551 125.845 40.553C126.054 40.4524 126.418 40.2503 126.786 40.0701C124.668 38.85 123.12 36.3664 123.12 33.4992Z" fill="#BE3830"/>
</g>
<g filter="url(#filter2_g_33627_3591)">
<path d="M147.121 75.5154C148.752 75.7957 149.786 75.7107 153.235 76.1356C157.137 76.6164 160.062 76.9417 163.841 76.4576C165.158 76.3708 166.657 76.3952 168.234 75.9639C169.625 75.5838 171.27 75.1608 172.541 74.1168C173.512 73.3184 174.934 72.2759 174.934 70.779C174.934 68.6174 175.103 66.7637 174.259 64.9383C173.564 63.4342 172.508 62.3124 169.444 59.2499C167.235 57.0417 166.29 56.1327 165.266 55.446C164.157 54.7022 162.989 54.0362 161.948 53.4164C160.699 52.6727 159.309 51.6388 157.843 51.0609C156.466 50.5177 154.515 49.9156 152.992 49.1323C151.69 48.4634 150.692 47.7951 149.663 47.3577C148.646 46.9252 147.582 46.5157 145.257 46.4932C139.668 46.439 138.068 46.1452 136.69 45.9918C135.014 45.8052 133.477 45.5698 131.8 44.944C130.681 44.5262 129.593 44.2737 128.33 43.8329C126.959 43.3542 125.458 42.8628 124.329 42.3054C123.232 41.7639 122.179 41.2071 121.005 40.4657C119.937 39.7915 118.761 39.2793 117.734 38.7472C116.54 38.1283 115.555 37.5733 114.471 36.8168C113.443 36.0991 112.849 34.9993 111.333 34.1589C110.264 33.5661 109.158 33.1631 107.989 33.0128C106.321 32.7982 104.418 32.637 102.606 32.2423C99.1916 31.4985 97.7123 31.2621 96.1363 31.0366C93.3323 30.6354 91.739 30.1941 90.1275 30.2396C87.3058 30.3191 85.7829 30.22 84.3346 30.5905C83.0145 30.9281 81.5007 31.2755 80.0746 32.1495C77.838 33.5202 76.4644 34.3767 76.0091 35.4889C75.5821 36.5318 75.2707 37.6684 75.1692 38.919C75.0506 40.3801 75.1806 42.1118 75.6955 43.69C76.2539 45.4014 76.6863 46.757 77.4542 47.5419C78.306 48.4126 79.6322 49.5932 80.7156 50.4433C81.8132 51.3046 82.9367 52.3584 84.8865 53.312C86.8291 54.2621 87.9668 55.0153 88.8779 55.659C89.9188 56.3944 91.2019 56.9126 92.3652 57.4473C93.5562 57.9949 94.6569 58.5547 95.8492 58.9247C97.8219 59.5368 99.4272 59.9878 100.57 60.4932C101.924 61.0922 103.58 61.7632 105.991 62.712C107.68 63.3768 109.23 64.1992 110.736 64.7733C112.496 65.4439 114.533 66.3985 116.711 67.356C119.16 68.4325 121.669 69.0289 126.064 70.7225C127.722 71.3617 128.918 71.8915 130.284 72.0418C131.864 72.2156 133.086 72.3571 134.224 72.6688C135.717 73.0776 137.026 73.5333 138.663 73.9125C140.432 74.3225 142.12 74.681 143.341 74.8473C144.623 75.0219 145.773 75.2837 147.121 75.5154Z" fill="#131B2D"/>
</g>
<g filter="url(#filter3_g_33627_3591)">
<path d="M114.72 22.5087C119.028 19.1339 125.619 17.2552 136.884 18.2792C141.621 18.7099 145.215 20.2269 147.81 22.5614C150.399 24.8916 151.831 27.8915 152.507 31.0097C153.839 37.1576 152.306 44.0601 150.564 48.5019L146.84 47.0409C148.431 42.9827 149.698 36.9344 148.598 31.8573C148.057 29.3634 146.965 27.1819 145.134 25.5341C143.307 23.8905 140.584 22.632 136.521 22.2626C125.786 21.2867 120.378 23.1585 117.187 25.6581C115.564 26.9288 114.398 28.4496 113.374 30.1093C112.858 30.9454 112.39 31.7984 111.907 32.6806C111.433 33.5474 110.938 34.4541 110.406 35.3183L107 33.2216C107.468 32.461 107.911 31.6493 108.397 30.7607C108.876 29.8872 109.392 28.9468 109.97 28.0097C111.134 26.1227 112.592 24.1753 114.72 22.5087Z" fill="#131B2D"/>
</g>
<g filter="url(#filter4_g_33627_3591)">
<path d="M165.338 20.0785C165.63 22.8737 160.964 25.5705 158.41 26.4273C157.778 26.6396 157.086 26.3182 157.251 25.6716C157.986 22.7907 164.969 16.5514 165.338 20.0785Z" fill="#131B2D"/>
<path d="M168.366 29.301C167.323 31.4632 161.331 32.129 158.656 31.7977C158.013 31.7181 157.633 31.1188 158.118 30.6887C160.346 28.7113 169.68 26.5777 168.366 29.301Z" fill="#131B2D"/>
<path d="M164.742 37.9568C163.408 39.1984 160.135 37.4687 158.458 36.2825C157.896 35.8845 157.814 35.1603 158.495 35.0586C160.776 34.7181 166.428 36.388 164.742 37.9568Z" fill="#131B2D"/>
</g>
<g filter="url(#filter5_g_33627_3591)">
<path d="M128.733 37.9883C129.694 37.9888 129.694 39.5906 128.412 39.2705C127.645 39.0792 128.305 37.9883 128.733 37.9883ZM124.961 33.8047C124.438 31.1864 127.299 30.2244 128.004 33.0449C128.309 34.2611 127.88 36.4658 127.244 36.4658C125.722 36.4657 125.295 35.4714 124.961 33.8047ZM130.175 33.457C130.846 30.9292 133.791 31.7541 133.068 34.1387C132.623 35.6036 132.044 36.6456 130.631 36.3525C129.813 36.1822 129.886 34.5469 130.175 33.457Z" fill="#1B263E"/>
</g>
<path d="M86.1636 33.6494C86.5154 33.2246 87.1522 33.1652 87.5776 33.5166L87.6479 33.5791L87.6401 33.5869C89.142 34.8042 90.283 35.803 91.0151 36.5869C91.6277 37.2424 92.3251 37.7843 93.1089 38.2197C94.0012 38.7155 94.8728 39.238 95.7261 39.7822C96.5998 40.3395 97.4373 40.9562 98.2339 41.626C98.9651 42.2409 99.7327 42.8052 100.531 43.3213C101.329 43.8372 102.162 44.3006 103.023 44.7119C103.951 45.1555 104.851 45.6486 105.726 46.1807C106.598 46.7107 107.454 47.281 108.289 47.8916C108.992 48.4063 109.772 48.7651 110.632 48.9697C111.699 49.2234 112.709 49.602 113.664 50.1025C114.489 50.5356 115.35 50.8888 116.242 51.165C117.263 51.4814 118.245 51.9088 119.179 52.4463C119.987 52.911 120.832 53.2835 121.71 53.5557C122.654 53.8478 123.599 54.1309 124.546 54.4072C125.483 54.6805 126.431 54.9273 127.382 55.1494C128.449 55.3986 129.464 55.8094 130.429 56.3682C131.175 56.8003 131.975 57.037 132.835 57.0869C133.964 57.1519 135.049 57.4002 136.078 57.8291C136.937 58.1872 137.824 58.4519 138.734 58.626C139.792 58.8286 140.815 59.1611 141.804 59.6182C142.586 59.9798 143.412 60.1617 144.289 60.1572C145.404 60.1512 146.49 60.3014 147.539 60.6104C148.474 60.8861 149.419 61.1315 150.367 61.3525C151.311 61.5727 152.261 61.7612 153.218 61.915C154.252 62.0813 155.275 62.3297 156.281 62.665C157.132 62.9486 158 63.092 158.89 63.0869C159.877 63.081 160.861 63.0543 161.835 63.0088C162.338 62.9853 162.766 62.9739 163.109 62.9775C163.429 62.981 163.747 62.9952 163.992 63.0479L164.039 63.0635L164.265 63.1182C164.815 63.1553 165.23 63.631 165.195 64.1807C165.159 64.7317 164.683 65.1541 164.132 65.1182L164.031 65.1104L163.937 65.1025L163.843 65.0791L163.554 65.001H163.539C163.515 64.9979 163.479 64.9963 163.437 64.9932C163.351 64.9868 163.237 64.9791 163.093 64.9775C162.804 64.9744 162.414 64.9862 161.929 65.0088C160.928 65.0555 159.92 65.0808 158.906 65.0869C157.794 65.0936 156.707 64.9162 155.648 64.5635C154.743 64.2619 153.824 64.0404 152.898 63.8916C151.896 63.7305 150.902 63.5284 149.914 63.2979C148.928 63.068 147.948 62.811 146.976 62.5244C146.12 62.272 145.23 62.1525 144.304 62.1572C143.137 62.1635 142.021 61.9172 140.968 61.4307C140.125 61.0407 139.254 60.7664 138.359 60.5947C137.313 60.3946 136.29 60.0839 135.304 59.6729C134.489 59.3335 133.631 59.1394 132.726 59.0869C131.552 59.0193 130.447 58.6842 129.429 58.0947C128.632 57.633 127.798 57.3058 126.929 57.1025C125.943 56.8724 124.962 56.6121 123.992 56.3291C123.032 56.0492 122.072 55.7578 121.117 55.4619C120.095 55.1455 119.114 54.7184 118.179 54.1807C117.372 53.7167 116.526 53.3511 115.648 53.0791C114.64 52.7668 113.667 52.3658 112.734 51.876C111.931 51.4547 111.079 51.1311 110.171 50.915C109.055 50.6496 108.029 50.1817 107.109 49.5088C106.32 48.9312 105.51 48.3918 104.687 47.8916C103.869 47.3942 103.025 46.9317 102.156 46.5166C101.219 46.0689 100.314 45.5629 99.4448 45.001C98.5763 44.4393 97.7397 43.8256 96.9448 43.1572C96.2156 42.5442 95.4544 41.9793 94.6558 41.4697C93.8359 40.9468 92.9907 40.4466 92.1323 39.9697C91.1664 39.4327 90.301 38.7621 89.5464 37.9541C88.9104 37.2732 87.866 36.3362 86.3823 35.1338L86.3745 35.126L86.2964 35.0635C85.8715 34.7116 85.8122 34.0749 86.1636 33.6494Z" fill="#BE3830"/>
<g filter="url(#filter6_g_33627_3591)">
<path d="M28.2578 155.232C25.9657 155.805 25.1907 157.362 25.0326 158.605C24.9425 159.314 25.3864 159.937 25.9943 160.313C66.1353 185.121 138.95 182.815 171.404 178.433C171.961 178.357 172.492 178.16 172.859 177.735C174.149 176.242 172.633 175.172 171.589 174.792C98.8013 150.422 32.1057 154.27 28.2578 155.232Z" fill="#131B2D"/>
</g>
<path d="M107.74 76.0693C108.065 76.0029 108.38 76.2123 108.447 76.5365C108.513 76.8598 108.307 77.1759 107.984 77.2439L107.885 77.2627L107.865 77.2684L107.84 77.2731C106.728 77.4207 105.865 77.5239 105.254 77.581C104.734 77.6297 104.244 77.7744 103.783 78.0204C103.262 78.2987 102.755 78.5917 102.262 78.894C101.755 79.2042 101.242 79.5095 100.726 79.8126C100.257 80.0885 99.8269 80.4188 99.4396 80.8036C99.0567 81.1844 98.734 81.6085 98.4705 82.0762C98.1865 82.5805 97.9222 83.0951 97.6793 83.6126C97.4408 84.1209 97.2299 84.6513 97.0446 85.2034C96.8905 85.6625 96.8765 86.121 97.0083 86.5908C97.1624 87.1382 97.3214 87.6713 97.4805 88.1871C97.5866 88.1262 97.6955 88.0665 97.806 88.0117C98.3731 87.7308 98.9647 87.5169 99.5789 87.3686C100.121 87.2376 100.664 87.0649 101.208 86.8503C101.899 86.5773 102.614 86.5412 103.325 86.7469C103.931 86.9226 104.512 87.1361 105.067 87.3873C105.736 87.69 106.22 88.19 106.478 88.8705C106.701 89.4557 106.834 90.0759 106.881 90.7255C106.909 91.1123 106.85 91.488 106.676 91.8269C106.502 92.1653 106.233 92.4304 105.903 92.6314C105.333 92.9779 104.728 93.1986 104.095 93.2867C103.457 93.3752 102.812 93.3215 102.167 93.1308C101.581 92.9577 101.001 92.7615 100.429 92.5391C99.8059 92.2968 99.2434 91.9485 98.7445 91.5041C98.2974 91.1059 97.8582 90.7103 97.4286 90.3165C97.3097 90.2075 97.202 90.0905 97.0996 89.9706C97.0933 89.9768 97.0875 89.9846 97.0813 89.9909C96.6613 90.4128 96.2268 90.833 95.7803 91.2513C95.3989 91.6088 95.1078 92.0255 94.9012 92.5032C94.6638 93.0522 94.4337 93.5998 94.2135 94.1457C93.9888 94.7026 93.7512 95.2625 93.5048 95.8224C93.298 96.2924 93.206 96.782 93.2271 97.2965C93.2326 97.4308 93.2487 97.5632 93.2594 97.6944C93.7426 97.4662 94.2341 97.2351 94.7324 96.9976C95.3789 96.6894 96.0728 96.5718 96.7926 96.6445C97.5474 96.7212 98.1922 97.0397 98.6939 97.5975C99.1463 98.1011 99.4805 98.676 99.6971 99.3116C99.8249 99.687 99.8537 100.081 99.712 100.461C99.5712 100.838 99.2929 101.121 98.9551 101.33C98.3627 101.698 97.728 101.919 97.0563 101.982C96.4195 102.043 95.7775 102.007 95.1344 101.871C94.4452 101.725 93.8336 101.412 93.3096 100.942C92.8395 100.52 92.5201 100.013 92.3432 99.4309C92.2308 99.4816 92.1201 99.5392 92.0066 99.5898C91.5358 99.7999 91.1383 100.1 90.805 100.488C90.4349 100.918 90.1066 101.373 89.818 101.852C89.5418 102.31 89.3372 102.798 89.2029 103.318C89.0755 103.811 89.0545 104.308 89.1396 104.819C89.1876 105.107 89.23 105.324 89.2697 105.475C89.2761 105.499 89.2846 105.522 89.2903 105.541L89.5806 105.693L89.5577 106.08L89.5527 106.18C89.5352 106.511 89.2521 106.767 88.9212 106.749C88.7225 106.738 88.5607 106.624 88.4601 106.468L88.4297 106.453L88.3501 106.346C88.276 106.251 88.2301 106.142 88.1998 106.064C88.1666 105.978 88.133 105.884 88.1065 105.783C88.0531 105.581 88.0055 105.323 87.9547 105.018C87.842 104.343 87.8693 103.672 88.0394 103.015C88.2027 102.384 88.4522 101.788 88.788 101.231C89.1117 100.694 89.4796 100.184 89.8928 99.7033C90.342 99.1809 90.8864 98.7782 91.5176 98.4964C91.7134 98.4091 91.9074 98.3155 92.1001 98.2278C92.0646 97.939 92.0409 97.6437 92.0286 97.3447C92.0001 96.6477 92.1295 95.9748 92.4102 95.3369C92.6512 94.7894 92.8822 94.2439 93.1017 93.6999C93.3258 93.1442 93.5589 92.5844 93.8003 92.026C94.0725 91.397 94.4612 90.8452 94.9624 90.3756C95.3989 89.9666 95.8242 89.5547 96.2341 89.1429C96.3111 89.0656 96.3886 88.9891 96.4692 88.9165C96.4329 88.8247 96.3909 88.7334 96.3612 88.6376C96.1888 88.0817 96.0224 87.506 95.8562 86.9155C95.6593 86.2147 95.6745 85.5126 95.9055 84.8238C96.1054 84.2282 96.3354 83.653 96.5947 83.1004C96.8501 82.5564 97.1262 82.0195 97.4242 81.4902C97.7426 80.9248 98.136 80.4109 98.5979 79.9519C99.0558 79.4971 99.561 79.1035 100.116 78.7769C100.626 78.4772 101.134 78.1759 101.635 77.8693C102.148 77.5551 102.675 77.2529 103.215 76.9642C103.817 76.6429 104.464 76.4481 105.143 76.3847C105.724 76.3303 106.557 76.2334 107.646 76.0891L107.74 76.0693ZM96.6698 97.8383C96.1648 97.7873 95.6963 97.8669 95.2525 98.078C94.7063 98.3383 94.1656 98.5934 93.6374 98.8426C93.5717 98.8736 93.5045 98.9018 93.4384 98.9327L93.5356 99.243C93.6539 99.5417 93.8405 99.8114 94.1086 100.052C94.4759 100.381 94.8987 100.594 95.3823 100.696C95.9106 100.808 96.4293 100.838 96.9401 100.79C97.4169 100.745 97.8777 100.59 98.3222 100.314C98.5027 100.202 98.5668 100.104 98.5902 100.042C98.6124 99.9817 98.6237 99.8786 98.5618 99.6969C98.3982 99.2172 98.1467 98.7871 97.8016 98.4027C97.5057 98.0734 97.1392 97.8857 96.6698 97.8383ZM102.99 87.8995C102.538 87.7687 102.098 87.7867 101.65 87.9632C101.056 88.1978 100.457 88.3909 99.8577 88.5357C99.331 88.663 98.8232 88.848 98.3363 89.0893C98.2414 89.1363 98.1529 89.1933 98.0622 89.246C98.1191 89.3089 98.1763 89.3747 98.2405 89.4336C98.6659 89.8235 99.1014 90.2148 99.5444 90.6093C99.9363 90.9583 100.377 91.2304 100.867 91.4209C101.407 91.6311 101.957 91.8165 102.51 91.98C103.004 92.1256 103.475 92.162 103.93 92.0989C104.389 92.0349 104.837 91.874 105.277 91.6068C105.45 91.5015 105.551 91.3906 105.608 91.2797C105.665 91.1684 105.699 91.0189 105.685 90.8123C105.646 90.2727 105.533 89.7663 105.354 89.2962C105.212 88.9223 104.961 88.656 104.573 88.48C104.071 88.2533 103.544 88.0599 102.99 87.8995Z" fill="#131B2D"/>
<path d="M129.162 82.7719C129.397 82.5406 129.774 82.5425 130.007 82.7766L130.024 82.8013C130.982 83.3861 131.709 83.9591 132.116 84.5428C132.453 85.0252 132.799 85.5013 133.158 85.9653C133.557 86.4807 133.883 87.0424 134.131 87.651C134.383 88.2706 134.531 88.9156 134.57 89.5829C134.607 90.1964 134.622 90.8072 134.622 91.4139C134.622 92.0176 134.609 92.6246 134.581 93.2339C134.55 93.8895 134.429 94.5318 134.222 95.1549C134.016 95.7742 133.738 96.36 133.382 96.9076C133.146 97.2708 132.958 97.6589 132.802 98.0668C133.212 98.4394 133.538 98.8811 133.77 99.3952C134.004 99.9124 134.285 100.413 134.61 100.893C135.023 101.504 135.226 102.188 135.212 102.926C135.199 103.612 135.062 104.272 134.803 104.9C134.543 105.529 134.169 106.089 133.691 106.573C133.272 106.996 132.87 107.341 132.517 107.481L132.463 107.506L132.402 107.516L132.316 107.529C132.117 107.68 131.843 107.702 131.624 107.553C131.35 107.367 131.277 106.994 131.464 106.72L131.521 106.64L131.661 106.433L131.909 106.388L132.089 106.353C132.195 106.302 132.44 106.132 132.841 105.727C133.209 105.355 133.491 104.926 133.692 104.44C133.893 103.953 134 103.442 134.011 102.902C134.02 102.411 133.89 101.97 133.616 101.565C133.254 101.029 132.938 100.471 132.676 99.8906C132.567 99.6514 132.434 99.4336 132.273 99.2389C132.066 99.5685 131.817 99.869 131.509 100.128C130.978 100.572 130.374 100.898 129.706 101.097C128.996 101.309 128.283 101.294 127.585 101.054C127.008 100.856 126.439 100.662 125.882 100.466C125.172 100.218 124.652 99.7413 124.383 99.0509C124.242 98.688 124.205 98.3022 124.332 97.9246C124.456 97.555 124.715 97.2608 125.03 97.027C125.644 96.5724 126.342 96.3702 127.1 96.4321C127.669 96.4787 128.239 96.4645 128.803 96.3907C129.534 96.2957 130.234 96.4272 130.882 96.7784C131.198 96.9499 131.505 97.1343 131.803 97.3284C131.966 96.9553 132.151 96.5947 132.373 96.253C132.674 95.7909 132.914 95.2963 133.087 94.7739C133.259 94.2557 133.356 93.7222 133.382 93.1774C133.409 92.5867 133.424 91.9985 133.424 91.4138C133.424 90.8312 133.408 90.2434 133.373 89.6534C133.341 89.1176 133.223 88.6009 133.02 88.103C132.813 87.5951 132.543 87.1285 132.212 86.7008C131.84 86.2208 131.479 85.7277 131.131 85.2287C130.863 84.8442 130.294 84.3595 129.343 83.7847L129.28 83.7476L129.227 83.6924L129.157 83.6219C128.924 83.3862 128.926 83.0049 129.162 82.7719ZM128.959 97.5803C128.31 97.6651 127.655 97.6817 127.001 97.6282C126.537 97.5905 126.128 97.7082 125.746 97.9908C125.565 98.1248 125.496 98.2339 125.471 98.306C125.45 98.3701 125.443 98.4666 125.502 98.6181C125.634 98.9553 125.872 99.1905 126.277 99.3322C126.833 99.527 127.399 99.7224 127.976 99.92C128.434 100.077 128.892 100.088 129.364 99.9469C129.877 99.7935 130.335 99.5453 130.739 99.207C130.993 98.9936 131.187 98.7437 131.338 98.4625C131.007 98.2383 130.666 98.0235 130.309 97.8301C129.883 97.5996 129.439 97.518 128.959 97.5803Z" fill="#131B2D"/>
<g filter="url(#filter7_g_33627_3591)">
<path d="M94.4065 117.813C94.646 117.719 94.8951 117.93 94.839 118.181C92.9663 126.561 90.9366 134.473 89.1722 142.571C89.1486 142.679 89.0698 142.768 88.9653 142.805C86.9741 143.517 86.4544 143.931 82.7701 143.453C82.6296 143.435 82.5157 143.323 82.4949 143.182C81.6102 137.212 82.024 133.872 80.9216 130.279C80.901 130.212 80.8462 130.161 80.778 130.144C80.6736 130.119 80.5672 130.179 80.5369 130.283C79.4329 134.049 78.4028 137.836 77.3652 141.621C77.3122 141.815 77.0958 141.912 76.916 141.823C74.6129 140.681 72.3274 139.503 70.0349 138.339C69.9231 138.282 69.8547 138.165 69.8603 138.04C70.2404 129.476 70.5419 120.909 70.9173 112.344C70.9284 112.092 71.2133 111.952 71.418 112.1C73.173 113.363 74.6586 114.581 76.5249 115.649C76.6302 115.709 76.6935 115.824 76.6875 115.945C76.4832 120.033 76.2635 123.857 76.0143 127.946C76.0098 128.021 76.0844 128.098 76.1563 128.12C76.2897 128.162 76.4034 128.075 76.4392 127.94C77.3526 124.493 78.2779 121.048 79.3357 117.642C79.3981 117.441 79.6351 117.355 79.8118 117.469C81.2693 118.41 81.8406 118.805 84.7658 119.729C84.8915 119.769 84.9819 119.882 84.9908 120.013C85.1913 122.993 85.4333 126.654 85.8093 130.258C85.8194 130.355 85.8943 130.433 85.9909 130.446C85.9946 130.447 85.9983 130.447 86.002 130.448C86.1141 130.463 86.2187 130.388 86.239 130.276C86.8747 126.794 86.9191 123.361 87.6177 119.892C87.6431 119.766 87.7437 119.667 87.8702 119.643C90.551 119.124 92.1164 118.707 94.4065 117.813Z" fill="white"/>
<path d="M109.039 145.604C109.044 145.839 108.799 145.998 108.586 145.898C106.793 145.059 105.009 144.201 103.217 143.36C103.111 143.311 103.04 143.207 103.033 143.089C102.97 142.004 102.9 140.918 102.827 139.833C102.818 139.7 102.727 139.586 102.599 139.549C101.309 139.177 100.008 138.875 98.6781 138.691C98.5317 138.671 98.3915 138.755 98.3388 138.893C98.0313 139.701 97.7133 140.503 97.3902 141.304C97.3463 141.413 97.2463 141.489 97.1299 141.503C95.2745 141.724 93.4413 142.119 91.6114 142.496C91.3742 142.545 91.1719 142.322 91.2431 142.09C93.8024 133.763 96.4728 126.009 98.7829 117.595C98.8203 117.459 98.9454 117.363 99.0865 117.36C103.889 117.271 105.12 117.98 108.073 119.939C108.16 119.997 108.215 120.094 108.217 120.198C108.428 128.669 108.887 137.131 109.039 145.604ZM102.286 135.167C102.486 135.206 102.672 135.05 102.668 134.846C102.615 131.914 102.649 128.529 102.649 125.632C102.649 125.589 102.617 125.549 102.574 125.548C102.525 125.545 102.481 125.573 102.468 125.619C101.699 128.386 100.743 131.602 99.9057 134.38C99.8497 134.566 99.9706 134.758 100.162 134.789C100.872 134.904 101.58 135.03 102.286 135.167Z" fill="white"/>
<path d="M125.591 136.768C125.49 136.842 125.438 136.964 125.458 137.087C125.937 139.94 126.437 142.8 127.26 145.576C127.318 145.771 127.184 145.971 126.982 145.991C124.802 146.214 122.637 146.601 120.474 146.952C120.299 146.98 120.133 146.859 120.109 146.682C119.715 143.871 119.495 141.028 119.153 138.21C119.135 138.059 119.013 137.943 118.863 137.93C118.758 137.921 118.647 137.912 118.55 137.903C118.382 137.889 118.232 138.006 118.207 138.172C118.015 139.433 117.256 144.435 116.866 147.281C116.847 147.423 116.736 147.534 116.595 147.552C114.401 147.837 112.782 147.656 110.739 146.789C110.608 146.733 110.532 146.596 110.551 146.455C111.567 138.885 111.438 130.878 112.45 123.305C112.476 123.109 113.503 123.205 113.694 123.254C119.544 124.736 123.668 118.676 128.246 122.517C131.071 126.154 129.375 134.006 125.591 136.768ZM119.84 134.226C122.363 134.423 123.284 128.378 120.658 128.453C120.385 128.458 119.756 128.403 119.336 128.381C119.177 128.373 119.042 128.489 119.024 128.648C118.848 130.193 118.858 132.224 118.686 133.782C118.666 133.963 118.797 134.127 118.979 134.145C119.272 134.173 119.608 134.207 119.84 134.226Z" fill="white"/>
<path d="M136.607 141.417C136.432 141.396 136.267 141.517 136.244 141.693C135.973 143.806 135.756 146.537 135.486 148.671C135.459 148.882 135.236 149.006 135.048 148.905C133.322 147.978 132.185 146.334 129.214 146.148C129.762 142.092 129.926 139.208 130.444 135.036C130.734 132.702 131.163 129.716 131.474 127.414C131.747 125.392 131.845 122.034 132.195 122.081C142.179 120.5 148.097 126.701 147.17 133.563C146.473 138.716 144.267 142.346 136.607 141.417ZM138.25 129.664C138.059 129.612 137.879 129.761 137.872 129.959C137.794 132.256 137.195 134.818 136.889 136.923C136.866 137.082 136.971 137.235 137.128 137.268C142.114 138.332 142.548 130.836 138.25 129.664Z" fill="white"/>
</g>
<defs>
<filter id="filter0_g_33627_3591" x="26.7829" y="59.1647" width="146.281" height="117.423" filterUnits="userSpaceOnUse" color-interpolation-filters="sRGB">
<feFlood flood-opacity="0" result="BackgroundImageFix"/>
<feBlend mode="normal" in="SourceGraphic" in2="BackgroundImageFix" result="shape"/>
<feTurbulence type="fractalNoise" baseFrequency="0.2222222238779068 0.2222222238779068" numOctaves="3" seed="861" />
<feDisplacementMap in="shape" scale="1.0260862112045288" xChannelSelector="R" yChannelSelector="G" result="displacedImage" width="100%" height="100%" />
<feMerge result="effect1_texture_33627_3591">
<feMergeNode in="displacedImage"/>
</feMerge>
</filter>
<filter id="filter1_g_33627_3591" x="122.62" y="24.9131" width="14.4674" height="21.5151" filterUnits="userSpaceOnUse" color-interpolation-filters="sRGB">
<feFlood flood-opacity="0" result="BackgroundImageFix"/>
<feBlend mode="normal" in="SourceGraphic" in2="BackgroundImageFix" result="shape"/>
<feTurbulence type="fractalNoise" baseFrequency="0.2222222238779068 0.2222222238779068" numOctaves="3" seed="903" />
<feDisplacementMap in="shape" scale="1" xChannelSelector="R" yChannelSelector="G" result="displacedImage" width="100%" height="100%" />
<feMerge result="effect1_texture_33627_3591">
<feMergeNode in="displacedImage"/>
</feMerge>
</filter>
<filter id="filter2_g_33627_3591" x="74.6284" y="29.7363" width="100.819" height="47.46" filterUnits="userSpaceOnUse" color-interpolation-filters="sRGB">
<feFlood flood-opacity="0" result="BackgroundImageFix"/>
<feBlend mode="normal" in="SourceGraphic" in2="BackgroundImageFix" result="shape"/>
<feTurbulence type="fractalNoise" baseFrequency="0.2232142835855484 0.2232142835855484" numOctaves="3" seed="8521" />
<feDisplacementMap in="shape" scale="1" xChannelSelector="R" yChannelSelector="G" result="displacedImage" width="100%" height="100%" />
<feMerge result="effect1_texture_33627_3591">
<feMergeNode in="displacedImage"/>
</feMerge>
</filter>
<filter id="filter3_g_33627_3591" x="106.64" y="17.64" width="46.732" height="31.222" filterUnits="userSpaceOnUse" color-interpolation-filters="sRGB">
<feFlood flood-opacity="0" result="BackgroundImageFix"/>
<feBlend mode="normal" in="SourceGraphic" in2="BackgroundImageFix" result="shape"/>
<feTurbulence type="fractalNoise" baseFrequency="0.2222222238779068 0.2222222238779068" numOctaves="3" seed="1367" />
<feDisplacementMap in="shape" scale="0.72000002861022949" xChannelSelector="R" yChannelSelector="G" result="displacedImage" width="100%" height="100%" />
<feMerge result="effect1_texture_33627_3591">
<feMergeNode in="displacedImage"/>
</feMerge>
</filter>
<filter id="filter4_g_33627_3591" x="156.726" y="18.5269" width="12.2656" height="20.3594" filterUnits="userSpaceOnUse" color-interpolation-filters="sRGB">
<feFlood flood-opacity="0" result="BackgroundImageFix"/>
<feBlend mode="normal" in="SourceGraphic" in2="BackgroundImageFix" result="shape"/>
<feTurbulence type="fractalNoise" baseFrequency="0.2222222238779068 0.2222222238779068" numOctaves="3" seed="1657" />
<feDisplacementMap in="shape" scale="1" xChannelSelector="R" yChannelSelector="G" result="displacedImage" width="100%" height="100%" />
<feMerge result="effect1_texture_33627_3591">
<feMergeNode in="displacedImage"/>
</feMerge>
</filter>
<filter id="filter5_g_33627_3591" x="124.827" y="31.2644" width="8.42456" height="8.11911" filterUnits="userSpaceOnUse" color-interpolation-filters="sRGB">
<feFlood flood-opacity="0" result="BackgroundImageFix"/>
<feBlend mode="normal" in="SourceGraphic" in2="BackgroundImageFix" result="shape"/>
<feTurbulence type="fractalNoise" baseFrequency="0.2222222238779068 0.2222222238779068" numOctaves="3" seed="3293" />
<feDisplacementMap in="shape" scale="0.14108686149120331" xChannelSelector="R" yChannelSelector="G" result="displacedImage" width="100%" height="100%" />
<feMerge result="effect1_texture_33627_3591">
<feMergeNode in="displacedImage"/>
</feMerge>
</filter>
<filter id="filter6_g_33627_3591" x="24.521" y="153.926" width="149.334" height="27.7729" filterUnits="userSpaceOnUse" color-interpolation-filters="sRGB">
<feFlood flood-opacity="0" result="BackgroundImageFix"/>
<feBlend mode="normal" in="SourceGraphic" in2="BackgroundImageFix" result="shape"/>
<feTurbulence type="fractalNoise" baseFrequency="0.2222222238779068 0.2222222238779068" numOctaves="3" seed="5376" />
<feDisplacementMap in="shape" scale="1" xChannelSelector="R" yChannelSelector="G" result="displacedImage" width="100%" height="100%" />
<feMerge result="effect1_texture_33627_3591">
<feMergeNode in="displacedImage"/>
</feMerge>
</filter>
<filter id="filter7_g_33627_3591" x="69.36" y="111.54" width="78.405" height="37.9014" filterUnits="userSpaceOnUse" color-interpolation-filters="sRGB">
<feFlood flood-opacity="0" result="BackgroundImageFix"/>
<feBlend mode="normal" in="SourceGraphic" in2="BackgroundImageFix" result="shape"/>
<feTurbulence type="fractalNoise" baseFrequency="0.2222222238779068 0.2222222238779068" numOctaves="3" seed="4905" />
<feDisplacementMap in="shape" scale="1" xChannelSelector="R" yChannelSelector="G" result="displacedImage" width="100%" height="100%" />
<feMerge result="effect1_texture_33627_3591">
<feMergeNode in="displacedImage"/>
</feMerge>
</filter>
</defs>
</svg>
