<svg width="24" height="24" viewBox="0 0 24 24" fill="none" xmlns="http://www.w3.org/2000/svg"><path fill-rule="evenodd" clip-rule="evenodd" d="M6.023 15.462a18.572 18.572 0 0 1-2.256-8.11.97.97 0 0 1 .512-.89l7.242-3.95a1 1 0 0 1 .958 0l7.242 3.95a.97.97 0 0 1 .512.89 18.573 18.573 0 0 1-2.256 8.11c-1.348 2.451-3.227 4.5-5.468 5.968a.929.929 0 0 1-1.018 0c-2.241-1.468-4.12-3.517-5.468-5.968Zm3.645-3.92c-.188-.187-.447-.311-.704-.245a.865.865 0 0 0-.668.667c-.065.257.06.516.247.704l1.957 1.957c.375.375 1.125.375 1.5 0l4.26-4.97c.155-.18.255-.414.204-.648-.08-.363-.29-.595-.63-.697-.282-.085-.569.07-.759.294l-3.482 4.116a.488.488 0 0 1-.718.03l-1.207-1.207Z" fill="#1B1B1F"/></svg>