<svg xmlns="http://www.w3.org/2000/svg" width="32" height="32" fill="none" viewBox="0 0 32 32"><path fill="#47474F" fill-rule="evenodd" d="M2.001 8.124c.193 4.814 1.511 9.506 3.84 13.645 2.332 4.142 5.596 7.592 9.493 10.039a1.25 1.25 0 0 0 1.332 0c3.897-2.447 7.162-5.897 9.492-10.039 2.33-4.14 3.648-8.83 3.841-13.645a1.317 1.317 0 0 0-.701-1.211L16.623.156a1.323 1.323 0 0 0-1.246 0L2.702 6.913a1.317 1.317 0 0 0-.701 1.211Zm21.954 4.8a1.36 1.36 0 0 0 0-1.909 1.326 1.326 0 0 0-1.889 0l-7.193 7.27-3.08-2.334a1.326 1.326 0 0 0-1.869.27 1.359 1.359 0 0 0 .267 1.889l4.006 3.036c.532.403 1.276.35 1.746-.125l8.012-8.097Z" clip-rule="evenodd"/></svg>