<svg width="32" height="32" viewBox="0 0 32 32" fill="none" xmlns="http://www.w3.org/2000/svg">
<path d="M12.0005 24.9612C13.7965 23.5304 16.0103 22.7247 18.3058 22.6665H30.9341" stroke="#47474F" stroke-width="2" stroke-linecap="round" stroke-linejoin="round"/>
<path d="M29.3841 9.68C29.581 9.61118 29.7585 9.49617 29.9018 9.34463C30.0451 9.19308 30.15 9.0094 30.2077 8.80898C30.2655 8.60855 30.2743 8.39722 30.2335 8.19267C30.1928 7.98813 30.1036 7.79632 29.9735 7.63333C28.2877 5.52721 25.9906 3.99535 23.3984 3.24861C20.8061 2.50188 18.0461 2.57698 15.4983 3.46359C12.9505 4.35019 10.7401 6.0047 9.17143 8.19939C7.60274 10.3941 6.75286 13.021 6.73878 15.7187C6.7379 15.9273 6.78706 16.1331 6.88212 16.3189C6.97719 16.5046 7.1154 16.6649 7.28516 16.7862C7.45493 16.9075 7.6513 16.9864 7.85782 17.0161C8.06434 17.0459 8.27499 17.0258 8.47211 16.9573L29.3841 9.68Z" stroke="#47474F" stroke-width="2" stroke-linecap="round" stroke-linejoin="round"/>
<path d="M18.9282 13.3184L22.6669 22.6663" stroke="#47474F" stroke-width="2" stroke-linecap="round" stroke-linejoin="round"/>
<path d="M1.00049 29.6665C2.0864 29.8009 3.18863 29.6911 4.22668 29.3451C5.26473 28.9991 6.2124 28.4256 7.00049 27.6665C7.56892 28.2961 8.26315 28.7994 9.03829 29.1439C9.81343 29.4884 10.6522 29.6664 11.5005 29.6664C12.3487 29.6664 13.1875 29.4884 13.9627 29.1439C14.7378 28.7994 15.4321 28.2961 16.0005 27.6665C16.5689 28.2961 17.2631 28.7994 18.0383 29.1439C18.8134 29.4884 19.6522 29.6664 20.5005 29.6664C21.3487 29.6664 22.1875 29.4884 22.9627 29.1439C23.7378 28.7994 24.4321 28.2961 25.0005 27.6665C25.7886 28.4256 26.7362 28.9991 27.7743 29.3451C28.8048 29.6886 29.8985 29.7993 30.9768 29.6694" stroke="#47474F" stroke-width="2" stroke-linecap="round" stroke-linejoin="round"/>
<path d="M15.4987 3.46359L14.6421 1" stroke="#47474F" stroke-width="2" stroke-linecap="round" stroke-linejoin="round"/>
</svg>
