<svg width="32" height="32" viewBox="0 0 32 32" fill="none" xmlns="http://www.w3.org/2000/svg">
<path d="M16 31C24.2843 31 31 24.2843 31 16C31 7.71573 24.2843 1 16 1C7.71573 1 1 7.71573 1 16C1 24.2843 7.71573 31 16 31Z" stroke="#47474F" stroke-width="2" stroke-linecap="round" stroke-linejoin="round"/>
<path d="M25 14.0005C24.7933 13.4154 24.4103 12.9088 23.9037 12.5505C23.3971 12.1922 22.7918 11.9998 22.1713 11.9998C21.5508 11.9998 20.9456 12.1922 20.439 12.5505C19.9402 12.9033 19.5612 13.3999 19.3523 13.9736" stroke="#47474F" stroke-width="2" stroke-linecap="round" stroke-linejoin="round"/>
<path d="M7.0004 14.0005C7.2071 13.4154 7.59013 12.9088 8.09672 12.5505C8.60332 12.1922 9.20856 11.9998 9.82907 11.9998C10.4496 11.9998 11.0548 12.1922 11.5614 12.5505C12.0509 12.8968 12.4251 13.3814 12.6362 13.9416" stroke="#47474F" stroke-width="2" stroke-linecap="round" stroke-linejoin="round"/>
<path d="M7.93115 20C8.67591 21.503 9.82577 22.7681 11.2511 23.6525C12.6764 24.5369 14.3204 25.0056 15.9978 25.0056C17.6752 25.0056 19.3193 24.5369 20.7446 23.6525C22.1604 22.7739 23.3044 21.5198 24.0496 20.0299" stroke="#47474F" stroke-width="2" stroke-linecap="round" stroke-linejoin="round"/>
</svg>
