<svg width="32" height="32" viewBox="0 0 32 32" fill="none" xmlns="http://www.w3.org/2000/svg">
<path d="M16 29.0002C18.2091 29.0002 20 27.2094 20 25.0002C20 22.7911 18.2091 21.0002 16 21.0002C13.7909 21.0002 12 22.7911 12 25.0002C12 27.2094 13.7909 29.0002 16 29.0002Z" stroke="#47474F" stroke-width="2" stroke-linecap="round" stroke-linejoin="round"/>
<path d="M8.95117 17.9041C10.8241 16.0447 13.3565 15.0007 15.9966 15.0007C18.6367 15.0007 21.1692 16.0447 23.042 17.9041" stroke="#47474F" stroke-width="2" stroke-linecap="round" stroke-linejoin="round"/>
<path d="M4.70947 13.663C7.70774 10.6775 11.767 9.00073 15.9991 9.00073C20.2313 9.00073 24.2905 10.6775 27.2888 13.663" stroke="#47474F" stroke-width="2" stroke-linecap="round" stroke-linejoin="round"/>
<path d="M1.0415 8.86931C5.10892 5.09781 10.4516 3.00146 15.9999 3.00146C21.5482 3.00146 26.8909 5.09781 30.9583 8.86931" stroke="#47474F" stroke-width="2" stroke-linecap="round" stroke-linejoin="round"/>
</svg>
