<svg width="42" height="28" viewBox="0 0 42 28" fill="none" xmlns="http://www.w3.org/2000/svg">
<path d="M33.0004 23.4285L36.1189 17.1915C36.2614 16.9066 36.0542 16.5713 35.7356 16.5713H6.26506C5.94647 16.5713 5.73926 16.9066 5.88174 17.1915L9.00021 23.4285" stroke="#47474F" stroke-width="2" stroke-linecap="round" stroke-linejoin="round"/>
<path d="M3.85693 25.0734C5.09799 25.2415 6.35768 25.1041 7.54403 24.6713C8.73038 24.2384 9.81344 23.5211 10.7141 22.5715C11.3637 23.3591 12.1571 23.9887 13.043 24.4197C13.9289 24.8506 14.8875 25.0733 15.857 25.0733C16.8264 25.0733 17.7851 24.8506 18.6709 24.4197C19.5568 23.9887 20.3502 23.3591 20.9999 22.5715C21.6495 23.3591 22.4429 23.9887 23.3288 24.4197C24.2147 24.8506 25.1733 25.0733 26.1428 25.0733C27.1122 25.0733 28.0708 24.8506 28.9567 24.4197C29.8426 23.9887 30.636 23.3591 31.2856 22.5715C32.1863 23.5211 33.2694 24.2384 34.4557 24.6713C35.627 25.0986 36.8698 25.238 38.0956 25.0796" stroke="#47474F" stroke-width="2" stroke-linecap="round" stroke-linejoin="round"/>
<path d="M10.7324 3.73267L12.4283 5.42858L14.1242 3.73267" stroke="#47474F" stroke-width="2" stroke-linecap="round" stroke-linejoin="round"/>
<path d="M5.59229 8.87769L7.28582 10.5712L8.97935 8.87769" stroke="#47474F" stroke-width="2" stroke-linecap="round" stroke-linejoin="round"/>
<path d="M21 2.85693L33.0001 13.1427H21V2.85693Z" stroke="#47474F" stroke-width="2" stroke-linecap="round" stroke-linejoin="round"/>
<path d="M21 16.5714V13.1428" stroke="#47474F" stroke-width="2" stroke-linecap="round" stroke-linejoin="round"/>
</svg>
