<svg width="32" height="32" viewBox="0 0 32 32" fill="none" xmlns="http://www.w3.org/2000/svg">
<path d="M1.00049 11L16.0005 1L30.9645 10.976" stroke="#47474F" stroke-width="2" stroke-linecap="round" stroke-linejoin="round"/>
<path d="M3.00049 25H29.0005V31H3.00049" stroke="#47474F" stroke-width="2" stroke-linecap="round" stroke-linejoin="round"/>
<path d="M7.00049 19H3.00049V25H11.0005V23C11.0005 21.9391 10.5791 20.9217 9.82892 20.1716C9.07877 19.4214 8.06135 19 7.00049 19Z" stroke="#47474F" stroke-width="2" stroke-linecap="round" stroke-linejoin="round"/>
<path d="M25.0005 19H18.7085C17.5941 19 16.5018 19.3104 15.5539 19.8963C14.606 20.4823 13.8401 21.3206 13.3418 22.3173L12.0005 25H29.0005V23C29.0005 21.9391 28.5791 20.9217 27.8289 20.1716C27.0788 19.4214 26.0614 19 25.0005 19Z" stroke="#47474F" stroke-width="2" stroke-linecap="round" stroke-linejoin="round"/>
<path d="M3.00049 31V17" stroke="#47474F" stroke-width="2" stroke-linecap="round" stroke-linejoin="round"/>
</svg>
