<svg width="32" height="32" viewBox="0 0 32 32" fill="none" xmlns="http://www.w3.org/2000/svg">
<path d="M1.59961 16.0697H4.46098C4.82718 16.0697 5.18521 16.0474 5.48993 16.0057C5.79466 15.9639 6.03244 15.9046 6.17331 15.8351L9.38778 14.2811C9.4612 14.2456 9.58531 14.2155 9.74371 14.1948C9.90211 14.1741 10.0873 14.1638 10.2749 14.1652C10.4625 14.1666 10.6436 14.1797 10.7942 14.2027C10.9449 14.2257 11.058 14.2576 11.1186 14.2941L16.9715 18.0361C17.0321 18.0726 17.1453 18.1045 17.2959 18.1275C17.4466 18.1505 17.6276 18.1636 17.8152 18.165C18.0028 18.1664 18.188 18.156 18.3464 18.1353C18.5048 18.1146 18.6289 18.0846 18.7023 18.049L21.9106 16.3042C22.0515 16.2347 22.2893 16.1754 22.594 16.1336C22.8987 16.0919 23.2568 16.0696 23.6229 16.0697H29.8729M24.275 10L30.3996 16.1651L24.275 22.3302" stroke="#47474F" stroke-width="2" stroke-linecap="round" stroke-linejoin="round"/>
</svg>
