<svg width="42" height="28" viewBox="0 0 42 28" fill="none" xmlns="http://www.w3.org/2000/svg">
<path d="M9.89551 20.5001H15.7715C16.4501 20.4995 17.121 20.3573 17.7415 20.0825C18.3619 19.8077 18.9182 19.4064 19.3746 18.9043L21.134 16.9695L21.9086 17.3562C22.4491 17.6258 22.9037 18.0407 23.2216 18.5543C23.5394 19.0679 23.7079 19.6599 23.708 20.2639V26.1876" stroke="#47474F" stroke-width="2" stroke-linecap="round" stroke-linejoin="round"/>
<path d="M26.958 26.1875V20.2638C26.9618 19.0642 26.6316 17.8872 26.0044 16.8645C25.3772 15.8418 24.4778 15.0139 23.4068 14.4734L26.5355 11.0306C26.7472 10.7976 26.8868 10.5082 26.9371 10.1974C26.9875 9.88666 26.9465 9.56796 26.8191 9.28005C26.6918 8.99215 26.4835 8.74745 26.2197 8.57568C25.9558 8.40391 25.6478 8.31248 25.333 8.3125H15.583C15.152 8.3125 14.7387 8.4837 14.4339 8.78845C14.1292 9.0932 13.958 9.50652 13.958 9.9375C13.958 10.3685 14.1292 10.7818 14.4339 11.0865C14.7387 11.3913 15.152 11.5625 15.583 11.5625H21.6594L16.9729 16.7181C16.8206 16.8856 16.6349 17.0195 16.4278 17.1111C16.2208 17.2027 15.9968 17.25 15.7704 17.25H9.89551" stroke="#47474F" stroke-width="2" stroke-linecap="round" stroke-linejoin="round"/>
<path d="M30.2081 7.5C31.7786 7.5 33.0518 6.22681 33.0518 4.65625C33.0518 3.08569 31.7786 1.8125 30.2081 1.8125C28.6375 1.8125 27.3643 3.08569 27.3643 4.65625C27.3643 6.22681 28.6375 7.5 30.2081 7.5Z" stroke="#47474F" stroke-width="2" stroke-linecap="round" stroke-linejoin="round"/>
<path d="M30.208 24.5625C30.208 24.9935 30.0368 25.4068 29.732 25.7115C29.4273 26.0163 29.014 26.1875 28.583 26.1875H20.458" stroke="#47474F" stroke-width="2" stroke-linecap="round" stroke-linejoin="round"/>
<path d="M11.5205 23.75C11.0895 23.75 10.6762 23.5788 10.3714 23.274C10.0667 22.9693 9.89551 22.556 9.89551 22.125V14" stroke="#47474F" stroke-width="2" stroke-linecap="round" stroke-linejoin="round"/>
<path d="M13.1455 17.25V20.5" stroke="#47474F" stroke-width="2" stroke-linecap="round" stroke-linejoin="round"/>
<path d="M23.708 22.9375H26.958" stroke="#47474F" stroke-width="2" stroke-linecap="round" stroke-linejoin="round"/>
</svg>
