<svg width="24" height="24" viewBox="0 0 24 24" fill="none" xmlns="http://www.w3.org/2000/svg">
  <path d="M19.125 19.875a.75.75 0 0 0-1.5 0h1.5Zm-14.25 0a.75.75 0 0 0 0-1.5v1.5Zm6.375.375a.75.75 0 0 0 0 1.5v-1.5Zm.75-6v-.75a.75.75 0 0 0-.53.22l.53.53ZM4.5 12A.75.75 0 0 0 3 12h1.5Zm3.375 2.25V15a.75.75 0 0 0 .505-.195l-.505-.555ZM12 10.5l.505.555A.75.75 0 0 0 12 9.75v.75Zm-4.5 0-.416.624a.75.75 0 0 0 .416.126v-.75Zm0-2.625v-.75a.75.75 0 0 0-.416.126l.416.624Zm8.25 2.25.53.53a.75.75 0 0 0 .22-.53h-.75Zm-2.25 2.25-.53-.53a.75.75 0 0 0 .08 1.13l.45-.6Zm6.75-7.125h-.75a1.5 1.5 0 0 1-1.5 1.5v1.5a3 3 0 0 0 3-3h-.75ZM18 7.5v-.75a1.5 1.5 0 0 1-1.5-1.5H15a3 3 0 0 0 3 3V7.5Zm-2.25-2.25h.75a1.5 1.5 0 0 1 1.5-1.5v-1.5a3 3 0 0 0-3 3h.75ZM18 3v.75a1.5 1.5 0 0 1 1.5 1.5H21a3 3 0 0 0-3-3V3Zm-.75 18v.75c.49 0 .996-.123 1.374-.5.378-.379.501-.884.501-1.375h-1.5a.827.827 0 0 1-.032.255c-.014.043-.027.056-.03.058-.002.003-.015.016-.058.03a.827.827 0 0 1-.255.032V21Zm-13.5-3H3c0 .49.123.996.5 1.374.379.378.884.501 1.375.501v-1.5a.827.827 0 0 1-.255-.032c-.043-.014-.056-.027-.058-.03-.003-.002-.016-.015-.03-.058A.825.825 0 0 1 4.5 18h-.75Zm7.5 3v.75h2.25v-1.5h-2.25V21Zm2.25-5.25h.75c0-.211-.072-.39-.121-.492a2.272 2.272 0 0 0-.197-.332 4.719 4.719 0 0 0-.511-.597 4.719 4.719 0 0 0-.597-.51c-.1-.072-.213-.142-.332-.198A1.163 1.163 0 0 0 12 13.5V15c-.118 0-.178-.037-.148-.023a.821.821 0 0 1 .109.068c.114.08.257.202.4.345.142.142.264.285.344.399.04.058.06.094.068.11.014.03-.023-.031-.023-.149h.75Zm-1.5-1.5-.53-.53c-.377.376-1 .997-1.701 1.524-.737.553-1.408.881-1.894.881v1.5c1.014 0 2.03-.61 2.794-1.181.798-.599 1.488-1.29 1.861-1.664l-.53-.53Zm-8.25 2.625H3V18h1.5v-1.125h-.75Zm4.125 0v-.75H6v1.5h1.875v-.75Zm-1.875 0v-.75H3.75v1.5H6v-.75Zm0 0h.75V14.25h-1.5v2.625H6ZM3.75 12H3v2.25h1.5V12h-.75Zm0 2.25H3v2.625h1.5V14.25h-.75Zm2.25 0v-.75H3.75V15H6v-.75Zm0 0V15h1.875v-1.5H6v.75Zm1.875 0 .505.555 4.124-3.75L12 10.5l-.505-.555-4.124 3.75.504.555ZM12 10.5v-.75H7.5v1.5H12v-.75Zm-4.5 0 .416-.624c-.426-.284-.51-.547-.51-.688 0-.142.084-.405.51-.689L7.5 7.875l-.416-.624c-.699.466-1.178 1.141-1.178 1.936 0 .796.48 1.471 1.178 1.937L7.5 10.5Zm0-2.625v.75h5.25v-1.5H7.5v.75Zm5.25 0v.75c.13 0 .347.048.632.178.275.126.566.305.833.51.268.206.489.422.635.607.172.22.15.283.15.205h1.5c0-.453-.256-.859-.47-1.131a5.166 5.166 0 0 0-.9-.87 5.904 5.904 0 0 0-1.125-.685c-.383-.175-.823-.314-1.255-.314v.75Zm3 2.25-.53-.53-2.25 2.25.53.53.53.53 2.25-2.25-.53-.53Zm-2.25 2.25-.45.6a5.992 5.992 0 0 1 1.499 1.621c.342.556.451.978.451 1.154h1.5c0-.574-.266-1.277-.674-1.94a7.49 7.49 0 0 0-1.876-2.035l-.45.6Zm0 8.625v.75h2.25v-1.5H13.5V21Zm2.25 0v.75h1.5v-1.5h-1.5V21Zm-2.25 0h.75v-2.25h-1.5V21h.75Zm0-2.25h.75v-3h-1.5v3h.75Zm2.25-3H15v3h1.5v-3h-.75Zm0 3H15V21h1.5v-2.25h-.75Zm-2.25 0v.75h2.25V18H13.5v.75Z" fill="#1B1B1F"/>
</svg>
