<svg width="32" height="32" viewBox="0 0 32 32" fill="none" xmlns="http://www.w3.org/2000/svg">
<path d="M26.6668 10.6668V3.3335C26.6668 2.80306 26.4615 2.29436 26.0961 1.91928C25.7306 1.54421 25.2349 1.3335 24.7181 1.3335H3.28221C2.76538 1.3335 2.26972 1.54421 1.90426 1.91928C1.53881 2.29436 1.3335 2.80306 1.3335 3.3335V19.3335C1.3335 19.8639 1.53881 20.3726 1.90426 20.7477C2.26972 21.1228 2.76538 21.3335 3.28221 21.3335H10.6147" stroke="#47474F" stroke-width="2" stroke-linecap="round" stroke-linejoin="round"/>
<path d="M1.3335 6.66699H26.6668" stroke="#47474F" stroke-width="2" stroke-linecap="round" stroke-linejoin="round"/>
<path d="M5.3335 12H12.0002" stroke="#47474F" stroke-width="2" stroke-linecap="round" stroke-linejoin="round"/>
<path d="M5.3335 16H9.3335" stroke="#47474F" stroke-width="2" stroke-linecap="round" stroke-linejoin="round"/>
<path d="M25.9998 20L22.6665 24.6667L20.6665 22.6667" stroke="#47474F" stroke-width="2" stroke-linecap="round" stroke-linejoin="round"/>
<path d="M30.6665 22.0003V16.0003C30.6665 15.2639 30.0696 14.667 29.3332 14.667H22.6665H15.9998C15.2635 14.667 14.6665 15.2639 14.6665 16.0003V22.0003C14.6665 25.2299 16.6084 28.1428 19.5896 29.3849L22.1537 30.4533C22.4819 30.5901 22.8511 30.5901 23.1793 30.4533L25.7434 29.3849C28.7246 28.1428 30.6665 25.2299 30.6665 22.0003Z" stroke="#47474F" stroke-width="2" stroke-linejoin="round"/>
</svg>
