<svg width="32" height="32" viewBox="0 0 32 32" fill="none" xmlns="http://www.w3.org/2000/svg">
<g clip-path="url(#clip0_6802_457)">
<path d="M20.9995 27H28.9995L30.9995 31H18.9995L20.9995 27Z" stroke="#47474F" stroke-width="2" stroke-linecap="round" stroke-linejoin="round"/>
<path d="M12.9995 21C12.9995 19.4087 12.3674 17.8826 11.2422 16.7574C10.1169 15.6321 8.59081 15 6.99951 15C5.40821 15 3.88209 15.6321 2.75687 16.7574C1.63165 17.8826 0.999512 19.4087 0.999512 21V29C0.999512 29.5304 1.21023 30.0391 1.5853 30.4142C1.96037 30.7893 2.46908 31 2.99951 31H10.9995C11.5299 31 12.0387 30.7893 12.4137 30.4142C12.7888 30.0391 12.9995 29.5304 12.9995 29V21Z" stroke="#47474F" stroke-width="2" stroke-linecap="round" stroke-linejoin="round"/>
<path d="M6.99951 15V10C6.99951 8.67392 7.5263 7.40215 8.46398 6.46447C9.40166 5.52678 10.6734 5 11.9995 5C13.3256 5 14.5974 5.52678 15.535 6.46447C16.4727 7.40215 16.9995 8.67392 16.9995 10V19C16.9995 19.5304 17.2102 20.0391 17.5853 20.4142C17.9604 20.7893 18.4691 21 18.9995 21C19.5299 21 20.0387 20.7893 20.4137 20.4142C20.7888 20.0391 20.9995 19.5304 20.9995 19V3C20.9995 2.46957 21.2102 1.96086 21.5853 1.58579C21.9604 1.21071 22.4691 1 22.9995 1C23.5299 1 24.0387 1.21071 24.4137 1.58579C24.7888 1.96086 24.9995 2.46957 24.9995 3V27" stroke="#47474F" stroke-width="2" stroke-linecap="round" stroke-linejoin="round"/>
<path d="M0.999512 27H12.9995" stroke="#47474F" stroke-width="2" stroke-linecap="round" stroke-linejoin="round"/>
<path d="M6.99951 20.5C7.0984 20.5 7.19507 20.5293 7.2773 20.5843C7.35952 20.6392 7.42361 20.7173 7.46145 20.8087C7.49929 20.9 7.5092 21.0006 7.4899 21.0975C7.47061 21.1945 7.42299 21.2836 7.35306 21.3536C7.28314 21.4235 7.19405 21.4711 7.09706 21.4904C7.00007 21.5097 6.89953 21.4998 6.80817 21.4619C6.71681 21.4241 6.63872 21.36 6.58378 21.2778C6.52884 21.1956 6.49951 21.0989 6.49951 21C6.49951 20.8674 6.55219 20.7402 6.64596 20.6464C6.73973 20.5527 6.8669 20.5 6.99951 20.5Z" stroke="#47474F" stroke-width="2" stroke-linecap="round" stroke-linejoin="round"/>
</g>
<defs>
<clipPath id="clip0_6802_457">
<rect width="32" height="32" fill="white"/>
</clipPath>
</defs>
</svg>
