<svg width="32" height="32" viewBox="0 0 32 32" fill="none" xmlns="http://www.w3.org/2000/svg">
<path d="M11.5401 7.69488C11.2432 7.61273 10.9313 7.60028 10.6288 7.65851C10.3263 7.71673 10.0413 7.84405 9.79608 8.03054C9.55087 8.21703 9.35205 8.45765 9.21514 8.73363C9.07823 9.0096 9.00692 9.31348 9.00678 9.62155V19.1696C8.98424 21.5208 9.8461 23.7946 11.4214 25.5402C13.5949 27.9171 16.3009 29.7449 19.3174 30.8736C19.7621 31.0366 20.2501 31.0366 20.6948 30.8736C23.7121 29.7457 26.4187 27.9178 28.5921 25.5402C30.1675 23.7946 31.0293 21.5208 31.0068 19.1696V9.62155C31.0069 9.31274 30.9356 9.00809 30.7983 8.73147C30.661 8.45485 30.4615 8.21378 30.2155 8.02715C29.9694 7.84053 29.6835 7.71341 29.3801 7.65576C29.0767 7.59811 28.7641 7.61151 28.4668 7.69488C22.935 9.2735 17.0719 9.2735 11.5401 7.69488V7.69488Z" stroke="#47474F" stroke-width="2" stroke-linecap="round" stroke-linejoin="round"/>
<path d="M4.14043 19.6708C3.88576 19.4188 3.6431 19.1681 3.4151 18.9201C1.83975 17.1746 0.977897 14.9007 1.00043 12.5495V3.00014C0.999993 2.69059 1.07142 2.38515 1.20908 2.10789C1.34675 1.83063 1.54689 1.58911 1.79376 1.40234C2.04063 1.21557 2.32748 1.08866 2.63173 1.03159C2.93598 0.974526 3.24933 0.988864 3.5471 1.07348C9.07662 2.65217 14.9376 2.65217 20.4671 1.07348C20.764 0.991324 21.0759 0.978874 21.3784 1.0371C21.6809 1.09532 21.9659 1.22264 22.2111 1.40913C22.4563 1.59562 22.6552 1.83624 22.7921 2.11222C22.929 2.3882 23.0003 2.69207 23.0004 3.00014V5.3335" stroke="#47474F" stroke-width="2" stroke-linecap="round" stroke-linejoin="round"/>
<path d="M16.0005 21.073C16.0194 22.1074 16.4385 23.0955 17.1714 23.8284C17.9215 24.5785 18.939 25 19.9998 25C21.0607 25 22.0781 24.5785 22.8283 23.8284C23.5612 23.0955 23.9803 22.1074 23.9992 21.073" stroke="#47474F" stroke-width="2" stroke-linecap="round" stroke-linejoin="round"/>
<path d="M13 14.9689C13.0081 14.4498 13.2179 13.9537 13.5855 13.586C13.9606 13.211 14.4693 13.0002 14.9998 13.0002C15.5302 13.0002 16.0389 13.211 16.414 13.586C16.7817 13.9537 16.9914 14.4498 16.9995 14.9689" stroke="#47474F" stroke-width="2" stroke-linecap="round" stroke-linejoin="round"/>
<path d="M23.0005 14.9502C23.0133 14.4379 23.2224 13.9493 23.5856 13.586C23.9607 13.211 24.4694 13.0002 24.9999 13.0002C25.5303 13.0002 26.039 13.211 26.4141 13.586C26.7773 13.9493 26.9864 14.4379 26.9992 14.9502" stroke="#47474F" stroke-width="2" stroke-linecap="round" stroke-linejoin="round"/>
</svg>
