<svg width="32" height="32" fill="none" xmlns="http://www.w3.org/2000/svg"><path d="M29.667 19H1.5M1.333 21.333v-5.128c0-.544.3-1.154.667-1.538a1.91 1.91 0 0 1 1.383-.601h14.666L20.888 8l8.252 6.058a3.753 3.753 0 0 1 1.465 2.372 3.883 3.883 0 0 1-.54 2.77l-1.303 2.133" stroke="#47474F" stroke-width="2" stroke-linecap="round" stroke-linejoin="round"/><path d="M19.333 11H7.441a2 2 0 0 0-1.898 1.367L5 14M14 6h3l1.658 4.146M30.413 27.049A7.35 7.35 0 0 1 24.998 25a6.062 6.062 0 0 1-9 0 6.062 6.062 0 0 1-9 0 7.349 7.349 0 0 1-5.416 2.049" stroke="#47474F" stroke-width="2" stroke-linecap="round" stroke-linejoin="round"/></svg>