<svg width="24" height="24" viewBox="0 0 24 24" fill="none" xmlns="http://www.w3.org/2000/svg"><path d="M20.25 20.21a3.108 3.108 0 0 1-1.774-.235c-.571-.253-1.093-.671-1.526-1.225a3.564 3.564 0 0 1-1.121 1.077c-.426.251-.888.38-1.354.38-.466 0-.928-.129-1.354-.38A3.564 3.564 0 0 1 12 18.75a3.564 3.564 0 0 1-1.121 1.077c-.426.251-.888.38-1.354.38-.466 0-.928-.129-1.354-.38A3.564 3.564 0 0 1 7.05 18.75c-.433.554-.955.972-1.526 1.225a3.108 3.108 0 0 1-1.774.234m0-5.96L6 15.75 17.25 13.5l3-4.5m-16.5 5.25 12.75-3L20.25 9m-16.5 5.25v-4.5c.556.147.603-.05 1.5 0 1.719.095 4.552.3 6 0L13.5 6m6.75 3L18 7.5 13.5 6m0 0-.75-.75L10.5 6" stroke="#1B1B1F" stroke-width="1.5" stroke-linecap="round" stroke-linejoin="round"/></svg>