<svg width="32" height="32" viewBox="0 0 32 32" fill="none" xmlns="http://www.w3.org/2000/svg">
<path d="M30.7137 15.249L29.4257 3.5492C29.3687 3.03204 29.1047 2.55912 28.6916 2.23448C28.2785 1.90984 27.7502 1.76007 27.223 1.81811L6.01777 4.15271C5.49053 4.21076 5.00749 4.47187 4.67493 4.87861C4.34237 5.28534 4.18753 5.80438 4.24447 6.32154L4.49118 8.56248" stroke="#47474F" stroke-width="2" stroke-linecap="round" stroke-linejoin="round"/>
<path d="M25.1022 12.0088H3.89899C2.85053 12.0088 2.00059 12.8531 2.00059 13.8946L2.00049 28.113C2.00049 29.1545 2.85043 29.9988 3.89889 29.9988H25.1021C26.1505 29.9988 27.0005 29.1545 27.0005 28.113L27.0006 13.8946C27.0006 12.8531 26.1506 12.0088 25.1022 12.0088Z" stroke="#47474F" stroke-width="2.02629" stroke-linecap="round" stroke-linejoin="round"/>
<path d="M2.00049 25H27.0005" stroke="#47474F" stroke-width="2" stroke-linecap="round" stroke-linejoin="round"/>
<path d="M7.00049 17H10.3341" stroke="#47474F" stroke-width="2" stroke-linecap="round" stroke-linejoin="round"/>
<path d="M9.88525 8.82324L12.8672 8.49494" stroke="#47474F" stroke-width="2" stroke-linecap="round" stroke-linejoin="round"/>
</svg>
