<svg width="72" height="38" viewBox="0 0 72 38" fill="none" xmlns="http://www.w3.org/2000/svg">
<path d="M56.3197 4.04585C56.3197 2.74985 56.8092 2.14985 58.1703 2.14985H59.4V3.51785H58.3852C58.0628 3.51785 57.9315 3.66185 57.9315 3.97385V4.54985H59.3881V5.91785H57.9315V11.2698H56.3197V5.91785H55.2451V4.54985H56.3197V4.04585Z" fill="#7A2822"/>
<path d="M51.6901 11.4499C49.7201 11.4499 48.5859 9.99786 48.5859 7.89786C48.5859 5.78586 49.7201 4.36986 51.6901 4.36986C53.6601 4.36986 54.7824 5.78586 54.7824 7.89786C54.7824 9.99786 53.6601 11.4499 51.6901 11.4499ZM51.6901 10.0699C52.6572 10.0699 53.1467 9.34986 53.1467 7.89786C53.1467 6.45786 52.6572 5.74986 51.6901 5.74986C50.7111 5.74986 50.2216 6.45786 50.2216 7.89786C50.2216 9.34986 50.7708 10.0699 51.6901 10.0699Z" fill="#7A2822"/>
<path d="M44.3388 11.2699C42.8344 11.2699 42.4404 10.7779 42.4404 9.42185V5.92986H41.3898V4.54986H42.4404V2.82186H44.0523V4.54986H45.5089V5.92986H44.0523V9.25385C44.0523 9.72185 44.2194 9.88985 44.6373 9.88985H45.5089V11.2699H44.3388Z" fill="#7A2822"/>
<path d="M37.1679 11.2699V4.54987H38.7797V5.73786C38.9469 4.92186 39.4125 4.51387 40.308 4.51387H40.905V6.08587H40.1767C39.1499 6.08587 38.7797 6.55386 38.7797 7.92186V11.2699H37.1679Z" fill="#7A2822"/>
<path d="M34.1476 6.73386C34.1476 6.03786 33.7178 5.73786 33.085 5.73786C32.3687 5.73786 31.7359 6.16986 31.4493 6.64986L30.4226 5.59386C31.0912 4.75386 32.1538 4.36986 33.1925 4.36986C34.8521 4.36986 35.7714 5.07786 35.7714 6.79386V11.2699H34.1476V10.0579C33.9685 10.9219 33.3477 11.4019 32.3448 11.4019C31.0553 11.4019 30.327 10.6219 30.327 9.44586C30.327 8.23386 31.115 7.53786 32.7507 7.23786L34.1476 6.97386V6.73386ZM31.9627 9.33786C31.9627 9.91386 32.3567 10.1419 32.8582 10.1419C33.6701 10.1419 34.1476 9.51786 34.1476 8.36586V8.16186L32.9656 8.38986C32.2851 8.53386 31.9627 8.83386 31.9627 9.33786Z" fill="#7A2822"/>
<path d="M26.8962 11.4499C26.0127 11.4499 25.2963 10.9699 24.9979 10.1539V13.8499H23.386V4.54986H24.9979V5.66586C25.3083 4.82586 26.0127 4.36986 26.8962 4.36986C28.4125 4.36986 29.6303 5.53386 29.6303 7.89786C29.6303 10.2739 28.4125 11.4499 26.8962 11.4499ZM26.4545 10.0339C27.4693 10.0339 28.0066 9.22986 28.0066 7.89786C28.0066 6.57786 27.4693 5.77386 26.4545 5.77386C25.4516 5.77386 25.0098 6.66186 25.0098 7.89786C25.0098 9.14586 25.4516 10.0339 26.4545 10.0339Z" fill="#7A2822"/>
<path d="M12.6 11.2698L15.2028 2.86984H17.5549L20.086 11.2698H18.3309L17.6981 8.96584H15.0237L14.3671 11.2698H12.6ZM15.4177 7.57384H17.3161L16.3729 4.18984L15.4177 7.57384Z" fill="#7A2822"/>
<path d="M53.0684 25.392H53.0467C49.6314 25.392 47.8174 27.5035 47.8174 30.9172L47.7957 37.6795H50.8271V28.2724H55.2452V37.6795H58.256V30.9172C58.256 27.4827 56.5056 25.392 53.0684 25.392Z" fill="#7A2822"/>
<path d="M41.3704 25.392C38.0616 25.392 35.927 27.7388 35.927 31.5569C35.927 35.4396 37.9974 37.9783 41.4129 37.9783C43.3341 37.9783 45.6818 37.3167 46.3656 34.33L43.6539 33.5837C43.3551 35.0345 42.5437 35.5244 41.3912 35.5244C39.8038 35.5244 39.1208 34.5522 38.9847 32.3463H46.472V31.3647C46.472 27.312 44.2945 25.392 41.3704 25.392ZM43.2897 30.3417H39.0161C39.2302 28.4638 40.0411 27.8239 41.242 27.8239C42.6513 27.8239 43.2916 28.7626 43.2916 30.1071C43.2916 30.186 43.2907 30.264 43.2897 30.3417Z" fill="#7A2822"/>
<path d="M67.9902 22V27.6924C67.4734 26.2249 66.2239 25.392 64.6597 25.392C61.927 25.392 59.7502 27.461 59.7502 31.6852C59.7502 35.9093 61.927 38 64.6597 38C66.2239 38 67.4734 37.1541 67.9902 35.6806V37.6795H71V22H67.9902ZM65.4924 35.3967C63.6993 35.3967 62.7807 33.989 62.7807 31.6852C62.7807 29.3813 63.6993 27.9737 65.4924 27.9737C67.2213 27.9737 67.99 29.5096 67.99 31.6852C67.99 33.8607 67.2213 35.3967 65.4924 35.3967Z" fill="#7A2822"/>
<path d="M33.4502 22.7472L30.0858 34.6924L26.6619 22.7472H23.4171L28.007 37.6796H32.1695L36.695 22.7472H33.4502Z" fill="#7A2822"/>
<path d="M6.97975 37.6867H9.96925L9.9695 31.7074H6.97975V37.6867Z" fill="#7A2822"/>
<path d="M12.9593 22.7472H3.98975C2.33868 22.7472 1 24.0843 1 25.734V37.6867H3.98926V37.681H3.98975V32.4541C3.98975 32.3014 3.99765 32.1504 4.01272 32.0014C4.24312 29.757 6.15273 27.9764 8.47475 27.9764C10.7968 27.9764 12.7064 29.7573 12.9365 32.0019C12.9514 32.1507 12.9595 32.3017 12.9595 32.4544V37.6813H12.96V37.687H15.9493V25.734C15.9493 24.0843 14.6103 22.7472 12.9593 22.7472Z" fill="#7A2822"/>
</svg>
