<svg width="32" height="33" viewBox="0 0 32 33" fill="none" xmlns="http://www.w3.org/2000/svg">
<g clip-path="url(#clip0_15001_5912)">
<path fill-rule="evenodd" clip-rule="evenodd" d="M27.9004 4.17284C25.0112 1.22447 20.5054 0.103731 16 0.0732422C11.4944 0.103731 6.98893 1.22459 4.09984 4.17284C1.1511 7.06241 0.0304888 11.5678 0 16.0734C0.0307298 20.5789 1.15146 25.0845 4.09984 27.9736C6.98869 30.9221 11.4944 32.0428 16 32.0734C20.5056 32.0428 25.011 30.9221 27.9004 27.9736C30.8488 25.0843 31.9695 20.5788 32 16.0732C31.9695 11.5676 30.8488 7.06193 27.9004 4.17284Z" fill="#F71414"/>
<path fill-rule="evenodd" clip-rule="evenodd" d="M17.6529 18.2503C17.2887 18.6189 16.7209 18.7591 16.1529 18.7631C15.8972 18.7613 15.6425 18.7299 15.4055 18.6645V14.8603C15.6425 14.7949 15.8972 14.7636 16.1529 14.7619C16.7209 14.7657 17.2887 14.9058 17.6529 15.2745C18.0245 15.6357 18.1659 16.1991 18.1697 16.7624C18.1659 17.3258 18.0247 17.8892 17.6529 18.2503ZM20.7154 12.7249C19.7273 11.7245 18.1861 11.3445 16.645 11.334C16.2281 11.3369 15.8115 11.3675 15.4055 11.4295V8.54382H11.7648V22.1909H16.645C18.1861 22.1804 19.7272 21.8002 20.7154 20.7999C21.724 19.8197 22.1073 18.2911 22.1177 16.7624C22.1073 15.2337 21.724 13.705 20.7154 12.7249Z" fill="white"/>
</g>
<defs>
<clipPath id="clip0_15001_5912">
<rect width="32" height="32" fill="white" transform="translate(0 0.0732422)"/>
</clipPath>
</defs>
</svg>
