<svg width="32" height="32" viewBox="0 0 32 32" fill="none" xmlns="http://www.w3.org/2000/svg">
  <g clip-path="url(#a)" fill-rule="evenodd" clip-rule="evenodd">
    <path d="M27.9 4.1C25.011 1.15 20.505.03 16 0 11.494.03 6.989 1.151 4.1 4.1 1.15 6.99.03 11.495 0 16c.03 4.506 1.151 9.011 4.1 11.9C6.989 30.85 11.494 31.97 16 32c4.506-.03 9.011-1.151 11.9-4.1 2.949-2.889 4.07-7.394 4.1-11.9-.03-4.506-1.151-9.011-4.1-11.9Z" fill="#F71414"/>
    <path d="M17.653 18.177c-.364.369-.932.509-1.5.513a2.909 2.909 0 0 1-.747-.099v-3.804a2.9 2.9 0 0 1 .747-.098c.568.004 1.136.144 1.5.512.372.361.513.925.517 1.488-.004.564-.145 1.127-.517 1.488Zm3.062-5.525c-.988-1-2.529-1.38-4.07-1.391a8.617 8.617 0 0 0-1.24.095V8.471h-3.64v13.647h4.88c1.541-.01 3.082-.39 4.07-1.391 1.009-.98 1.392-2.509 1.403-4.038-.01-1.528-.394-3.057-1.403-4.037Z" fill="#fff"/>
  </g>
  <defs>
    <clipPath id="a">
      <path fill="#fff" d="M0 0h32v32H0z"/>
    </clipPath>
  </defs>
</svg>
