<svg width="32" height="32" viewBox="0 0 32 32" fill="none" xmlns="http://www.w3.org/2000/svg">
<path fill-rule="evenodd" clip-rule="evenodd" d="M0.87868 0.87868C1.44129 0.316071 2.20435 0 3 0H29C29.7956 0 30.5587 0.316071 31.1213 0.87868C31.6839 1.44129 32 2.20435 32 3V23C32 23.7956 31.6839 24.5587 31.1213 25.1213C30.5587 25.6839 29.7956 26 29 26H15.3333L7.6 31.8C7.29699 32.0272 6.89157 32.0639 6.55279 31.8944C6.214 31.7251 6 31.3788 6 31V26H3C2.20435 26 1.44129 25.6839 0.87868 25.1213C0.316071 24.5587 0 23.7956 0 23V3C0 2.20435 0.316071 1.44129 0.87868 0.87868ZM10.1697 7.00131C9.42581 7.00131 8.69683 7.20977 8.06543 7.60307C7.43403 7.99636 6.92548 8.55872 6.59748 9.22639C6.35396 9.72208 6.55839 10.3213 7.05408 10.5649C7.54977 10.8084 8.14904 10.6039 8.39256 10.1083C8.55573 9.77611 8.80872 9.49633 9.12284 9.30067C9.43696 9.10501 9.79961 9.00131 10.1697 9.00131C10.5397 9.00131 10.9024 9.10501 11.2165 9.30067C11.5306 9.49633 11.7836 9.77611 11.9468 10.1083C12.1903 10.6039 12.7896 10.8084 13.2853 10.5649C13.7809 10.3213 13.9855 9.72208 13.7419 9.22639C13.4139 8.55872 12.9053 7.99636 12.2739 7.60307C11.6425 7.20977 10.9136 7.00131 10.1697 7.00131ZM22.1619 7.00131C21.418 7.00131 20.6891 7.20977 20.0576 7.60307C19.4263 7.99636 18.9176 8.55872 18.5896 9.22639C18.3461 9.72208 18.5505 10.3213 19.0463 10.5649C19.542 10.8084 20.1412 10.6039 20.3848 10.1083C20.5479 9.77611 20.8009 9.49633 21.1151 9.30067C21.4292 9.10501 21.7919 9.00131 22.1619 9.00131C22.532 9.00131 22.8947 9.10501 23.2087 9.30067C23.5228 9.49633 23.7759 9.77611 23.9391 10.1083C24.1825 10.6039 24.7817 10.8084 25.2775 10.5649C25.7732 10.3213 25.9776 9.72208 25.7341 9.22639C25.4061 8.55872 24.8975 7.99636 24.2661 7.60307C23.6347 7.20977 22.9057 7.00131 22.1619 7.00131ZM13.0172 18.9007C13.2061 18.3817 13.78 18.1141 14.2989 18.3031C15.6837 18.8071 17.2737 18.8064 18.7524 18.2808C20.2309 17.7552 21.4647 16.752 22.2205 15.4869C22.5037 15.0128 23.1177 14.8581 23.5919 15.1415C24.066 15.4247 24.2207 16.0387 23.9373 16.5128C22.932 18.1953 21.3185 19.4912 19.4223 20.1653C17.526 20.8393 15.4567 20.8528 13.6149 20.1824C13.0959 19.9935 12.8283 19.4196 13.0172 18.9007Z" fill="#47474F"/>
</svg>
