<svg width="32" height="32" viewBox="0 0 32 32" fill="none" xmlns="http://www.w3.org/2000/svg">
<path d="M1.00049 30.0173C2.0864 30.1517 3.18863 30.0419 4.22668 29.6959C5.26473 29.3499 6.2124 28.7764 7.00049 28.0173C7.56892 28.6469 8.26315 29.1503 9.03829 29.4948C9.81343 29.8392 10.6522 30.0172 11.5005 30.0172C12.3487 30.0172 13.1875 29.8392 13.9627 29.4948C14.7378 29.1503 15.4321 28.6469 16.0005 28.0173C16.5689 28.6469 17.2631 29.1503 18.0383 29.4948C18.8134 29.8392 19.6522 30.0172 20.5005 30.0172C21.3487 30.0172 22.1875 29.8392 22.9627 29.4948C23.7378 29.1503 24.4321 28.6469 25.0005 28.0173C25.7886 28.7764 26.7363 29.3499 27.7743 29.6959C28.7959 30.0364 29.8796 30.1482 30.9487 30.0236" stroke="#47474F" stroke-width="2" stroke-linecap="round" stroke-linejoin="round"/>
<path d="M29.0093 26.028C29.8087 25.2925 30.4561 24.4074 30.9147 23.4227C30.9822 23.2704 31.0106 23.1037 30.9973 22.9376C30.984 22.7716 30.9295 22.6115 30.8386 22.4718C30.7478 22.3322 30.6234 22.2175 30.477 22.1382C30.3305 22.0588 30.1666 22.0173 30 22.0173H2.00001C1.83343 22.0173 1.66947 22.0588 1.52302 22.1382C1.37657 22.2175 1.25226 22.3322 1.1614 22.4718C1.07053 22.6115 1.01598 22.7716 1.0027 22.9376C0.989414 23.1037 1.01782 23.2704 1.08534 23.4227C1.63282 24.5859 2.43386 25.6116 3.42942 26.4244" stroke="#47474F" stroke-width="2" stroke-linecap="round" stroke-linejoin="round"/>
<path d="M15.0005 22.0167V16.9167" stroke="#47474F" stroke-width="2" stroke-linecap="round" stroke-linejoin="round"/>
<path d="M14.6805 1.71716C14.8885 2.00516 15.0004 2.3514 15.0003 2.70665L14.9976 16.9986L3.86694 17.0147C3.68643 17.015 3.50919 16.9666 3.354 16.8744C3.19882 16.7822 3.07148 16.6497 2.98549 16.491C2.89951 16.3323 2.85809 16.1533 2.86562 15.9729C2.87315 15.7926 2.92935 15.6176 3.02827 15.4667L11.9549 1.69865C12.1668 1.4135 12.4632 1.2024 12.8019 1.09536C13.1407 0.988315 13.5045 0.990786 13.8418 1.10242C14.179 1.21405 14.4725 1.42916 14.6805 1.71716Z" stroke="#47474F" stroke-width="2" stroke-linecap="round" stroke-linejoin="round"/>
<path d="M20.8418 6.88136C20.725 6.69951 20.5524 6.56041 20.3499 6.48489C20.1473 6.40938 19.9258 6.40151 19.7184 6.46248C19.5111 6.52344 19.329 6.64995 19.1996 6.82306C19.0702 6.99617 19.0003 7.20655 19.0005 7.42269V18.0174H26.1685C26.348 18.017 26.5241 17.9684 26.6784 17.8767C26.8327 17.7849 26.9595 17.6534 27.0455 17.4958C27.1315 17.3382 27.1736 17.1604 27.1673 16.981C27.161 16.8016 27.1066 16.6272 27.0098 16.476L20.8418 6.88136Z" stroke="#47474F" stroke-width="2" stroke-linecap="round" stroke-linejoin="round"/>
</svg>
