<svg width="32" height="32" viewBox="0 0 32 32" fill="none" xmlns="http://www.w3.org/2000/svg">
<path d="M6.66716 10.6665L4.00049 16.9998" stroke="#47474F" stroke-width="2" stroke-linecap="round" stroke-linejoin="round"/>
<path d="M2.00049 25.957V27.9997C2.00049 28.5301 2.2112 29.0388 2.58627 29.4139C2.96135 29.789 3.47006 29.9997 4.00049 29.9997C4.53092 29.9997 5.03963 29.789 5.4147 29.4139C5.78977 29.0388 6.00049 28.5301 6.00049 27.9997V26.1722" stroke="#47474F" stroke-width="2" stroke-linecap="round" stroke-linejoin="round"/>
<path d="M30.0005 25.957V27.9997C30.0005 28.5301 29.7898 29.0388 29.4147 29.4139C29.0396 29.789 28.5309 29.9997 28.0005 29.9997C27.4701 29.9997 26.9613 29.789 26.5863 29.4139C26.2112 29.0388 26.0005 28.5301 26.0005 27.9997V26.1178" stroke="#47474F" stroke-width="2" stroke-linecap="round" stroke-linejoin="round"/>
<path d="M3.66716 17H28.3338C29.0411 17 29.7193 17.281 30.2194 17.781C30.7195 18.2811 31.0005 18.9594 31.0005 19.6667V24.6667C31.0005 25.0203 30.86 25.3594 30.61 25.6095C30.3599 25.8595 30.0208 26 29.6672 26H2.33382C1.9802 26 1.64106 25.8595 1.39101 25.6095C1.14096 25.3594 1.00049 25.0203 1.00049 24.6667V19.6667C1.00049 18.9594 1.28144 18.2811 1.78154 17.781C2.28163 17.281 2.95991 17 3.66716 17V17Z" stroke="#47474F" stroke-width="2" stroke-linecap="round" stroke-linejoin="round"/>
<path d="M16.667 5.6665C16.667 7.32336 18.0101 8.6665 19.667 8.6665C21.3238 8.6665 22.667 7.32336 22.667 5.6665C22.667 4.00965 21.3238 2.6665 19.667 2.6665C18.0101 2.6665 16.667 4.00965 16.667 5.6665Z" stroke="#47474F" stroke-width="2" stroke-linecap="round" stroke-linejoin="round"/>
<path d="M16.667 5.6665L9.33366 5.6665L9.33366 7.63711" stroke="#47474F" stroke-width="2" stroke-linecap="round" stroke-linejoin="round"/>
<path d="M19.0005 22H13.0005" stroke="#47474F" stroke-width="2" stroke-linecap="round" stroke-linejoin="round"/>
<path d="M31.0005 21.5H27.0005L26.0005 22.5" stroke="#47474F" stroke-width="2" stroke-linecap="round" stroke-linejoin="round"/>
<path d="M1.00049 21.5H5.00088L6.00049 22.5" stroke="#47474F" stroke-width="2" stroke-linecap="round" stroke-linejoin="round"/>
<path d="M12.3345 5.6665L12.3345 7.80868" stroke="#47474F" stroke-width="2" stroke-linecap="round" stroke-linejoin="round"/>
<path d="M28.0002 16.9998L25.3335 10.6665" stroke="#47474F" stroke-width="2" stroke-linecap="round" stroke-linejoin="round"/>
</svg>
