<svg width="32" height="32" viewBox="0 0 32 32" fill="none" xmlns="http://www.w3.org/2000/svg">
<path d="M28.4948 22.4476L21.8388 28.883C21.4672 29.242 21.0261 29.5267 20.5406 29.7209C20.0552 29.9151 19.5349 30.0149 19.0095 30.0146H6.3335C5.27263 30.0146 4.25521 29.6073 3.50507 28.8821C2.75492 28.157 2.3335 27.1735 2.3335 26.148V4.88132C2.3335 3.85581 2.75492 2.87231 3.50507 2.14717C4.25521 1.42203 5.27263 1.01465 6.3335 1.01465H25.6668C26.7277 1.01465 27.7451 1.42203 28.4953 2.14717C29.2454 2.87231 29.6668 3.85581 29.6668 4.88132V19.7138C29.6666 20.7393 29.245 21.7226 28.4948 22.4476Z" stroke="#47474F" stroke-width="2" stroke-linecap="round" stroke-linejoin="round"/>
<path d="M20 29.6666V25.3333C20 24.2724 20.4214 23.255 21.1716 22.5048C21.9217 21.7547 22.9391 21.3333 24 21.3333H29.1458" stroke="#47474F" stroke-width="2" stroke-linecap="round" stroke-linejoin="round"/>
<path d="M8 25.3333H13.3333" stroke="#47474F" stroke-width="2" stroke-linecap="round" stroke-linejoin="round"/>
<path d="M8 18.6665H18.6667" stroke="#47474F" stroke-width="2" stroke-linecap="round" stroke-linejoin="round"/>
<path d="M8 1.33459V11.6679L12 8.66792L16 11.6666V1.33325" stroke="#47474F" stroke-width="2" stroke-linecap="round" stroke-linejoin="round"/>
</svg>
