<svg width="72" height="38" viewBox="0 0 72 38" fill="none" xmlns="http://www.w3.org/2000/svg">
<path d="M55.8691 12.4701L53.6971 5.75009H55.4011L56.8891 10.8021L58.3771 5.75009H60.0931L57.9331 12.4701H55.8691Z" fill="#7A2822"/>
<path d="M51.4208 7.9341C51.4208 7.2381 50.9888 6.9381 50.3528 6.9381C49.6328 6.9381 48.9968 7.3701 48.7088 7.8501L47.6768 6.7941C48.3488 5.9541 49.4168 5.5701 50.4608 5.5701C52.1288 5.5701 53.0528 6.2781 53.0528 7.9941V12.4701H51.4208V11.2581C51.2408 12.1221 50.6168 12.6021 49.6088 12.6021C48.3128 12.6021 47.5808 11.8221 47.5808 10.6461C47.5808 9.4341 48.3728 8.7381 50.0168 8.4381L51.4208 8.1741V7.9341ZM49.2248 10.5381C49.2248 11.1141 49.6208 11.3421 50.1248 11.3421C50.9408 11.3421 51.4208 10.7181 51.4208 9.5661V9.3621L50.2328 9.5901C49.5488 9.7341 49.2248 10.0341 49.2248 10.5381Z" fill="#7A2822"/>
<path d="M43.5153 12.4701C42.4233 12.4701 41.8353 11.8701 41.8353 10.7901V3.3501H43.4673V10.6101C43.4673 10.9581 43.6593 11.1501 44.0073 11.1501H44.5233V12.4701H43.5153Z" fill="#7A2822"/>
<path d="M37.9965 12.6381C36.0765 12.6381 34.9245 11.2101 34.9245 9.0261C34.9245 6.8901 36.1245 5.5701 37.9725 5.5701C39.6285 5.5701 40.8285 6.6501 40.8285 8.9301V9.4581H36.5805C36.6525 10.7301 37.0605 11.3061 37.9965 11.3061C38.6565 11.3061 39.1365 11.0061 39.3045 10.1901L40.7685 10.5981C40.3725 12.2781 39.0765 12.6381 37.9965 12.6381ZM36.5925 8.3661H39.1125V8.2221C39.1125 7.4421 38.7405 6.9021 37.9005 6.9021C37.1925 6.9021 36.7125 7.2741 36.5925 8.3661Z" fill="#7A2822"/>
<path d="M30.3595 12.6501C28.8235 12.6501 27.5995 11.4741 27.5995 9.09809C27.5995 6.73409 28.8235 5.57009 30.3595 5.57009C31.2475 5.57009 31.9555 6.03809 32.2555 6.86609V3.36209H33.8755V12.4701H32.2555V11.3421C31.9555 12.1821 31.2475 12.6501 30.3595 12.6501ZM30.8035 11.2341C31.8115 11.2341 32.2555 10.3461 32.2555 9.09809C32.2555 7.86209 31.8115 6.97409 30.8035 6.97409C29.7835 6.97409 29.2435 7.77809 29.2435 9.09809C29.2435 10.4301 29.7835 11.2341 30.8035 11.2341Z" fill="#7A2822"/>
<path d="M22.5295 8.47408C22.5295 7.49008 22.1095 6.98608 21.2575 6.98608C20.3815 6.98608 19.8655 7.56208 19.8655 8.66608V12.4701H18.2455V5.75008H19.8655V6.93808C20.0815 6.09808 20.8375 5.60608 21.8695 5.60608C23.4295 5.60608 24.1495 6.56608 24.1495 8.16208V12.4701H22.5295V8.47408Z" fill="#7A2822"/>
<path d="M11.9067 12.4701V4.0701H17.0187V5.4501H13.6467V7.2381H16.6587V8.6301H13.6467V11.0781H17.3547V12.4701H11.9067Z" fill="#7A2822"/>
<path d="M53.0684 25.392H53.0467C49.6314 25.392 47.8174 27.5035 47.8174 30.9172L47.7957 37.6795H50.8271V28.2724H55.2452V37.6795H58.256V30.9172C58.256 27.4827 56.5056 25.392 53.0684 25.392Z" fill="#7A2822"/>
<path d="M41.3704 25.392C38.0616 25.392 35.927 27.7388 35.927 31.5569C35.927 35.4396 37.9974 37.9783 41.4129 37.9783C43.3341 37.9783 45.6818 37.3167 46.3656 34.33L43.6539 33.5837C43.3551 35.0345 42.5437 35.5244 41.3912 35.5244C39.8038 35.5244 39.1208 34.5522 38.9847 32.3463H46.472V31.3647C46.472 27.312 44.2945 25.392 41.3704 25.392ZM43.2897 30.3417H39.0161C39.2302 28.4638 40.0411 27.8239 41.242 27.8239C42.6513 27.8239 43.2916 28.7626 43.2916 30.1071C43.2916 30.186 43.2907 30.264 43.2897 30.3417Z" fill="#7A2822"/>
<path d="M67.9902 22V27.6924C67.4734 26.2249 66.2239 25.392 64.6597 25.392C61.927 25.392 59.7502 27.461 59.7502 31.6852C59.7502 35.9093 61.927 38 64.6597 38C66.2239 38 67.4734 37.1541 67.9902 35.6806V37.6795H71V22H67.9902ZM65.4924 35.3967C63.6993 35.3967 62.7807 33.989 62.7807 31.6852C62.7807 29.3813 63.6993 27.9737 65.4924 27.9737C67.2213 27.9737 67.99 29.5096 67.99 31.6852C67.99 33.8607 67.2213 35.3967 65.4924 35.3967Z" fill="#7A2822"/>
<path d="M33.4502 22.7472L30.0858 34.6924L26.6619 22.7472H23.4171L28.007 37.6796H32.1695L36.695 22.7472H33.4502Z" fill="#7A2822"/>
<path d="M6.97975 37.6867H9.96925L9.9695 31.7074H6.97975V37.6867Z" fill="#7A2822"/>
<path d="M12.9593 22.7472H3.98975C2.33868 22.7472 1 24.0843 1 25.734V37.6867H3.98926V37.681H3.98975V32.4541C3.98975 32.3014 3.99765 32.1504 4.01272 32.0014C4.24312 29.757 6.15273 27.9764 8.47475 27.9764C10.7968 27.9764 12.7064 29.7573 12.9365 32.0019C12.9514 32.1507 12.9595 32.3017 12.9595 32.4544V37.6813H12.96V37.687H15.9493V25.734C15.9493 24.0843 14.6103 22.7472 12.9593 22.7472Z" fill="#7A2822"/>
</svg>
