<svg width="32" height="32" viewBox="0 0 32 32" fill="none" xmlns="http://www.w3.org/2000/svg">
<path d="M29.6667 1H2.33333C1.59695 1 1 1.59695 1 2.33333V29.6667C1 30.403 1.59695 31 2.33333 31H29.6667C30.403 31 31 30.403 31 29.6667V2.33333C31 1.59695 30.403 1 29.6667 1Z" stroke="#47474F" stroke-width="2" stroke-linecap="round" stroke-linejoin="round"/>
<path d="M8 31V14C8 13.7348 8.10536 13.4804 8.29289 13.2929C8.48043 13.1054 8.73478 13 9 13H23C23.2652 13 23.5196 13.1054 23.7071 13.2929C23.8946 13.4804 24 13.7348 24 14V30.9468" stroke="#47474F" stroke-width="2" stroke-linecap="round" stroke-linejoin="round"/>
<path d="M16 13V31" stroke="#47474F" stroke-width="2" stroke-linecap="round" stroke-linejoin="round"/>
<path d="M18.688 5.36157L20.6667 7.99991L22.6455 5.36157" stroke="#47474F" stroke-width="2" stroke-linecap="round" stroke-linejoin="round"/>
<path d="M9.39078 7.92407L11.3338 5.33335L13.2769 7.92407" stroke="#47474F" stroke-width="2" stroke-linecap="round" stroke-linejoin="round"/>
</svg>
