<svg width="56" height="56" viewBox="0 0 56 56" fill="none" xmlns="http://www.w3.org/2000/svg">
<path d="M16 20C20.4183 20 24 16.4183 24 12C24 7.58172 20.4183 4 16 4C11.5817 4 8 7.58172 8 12C8 16.4183 11.5817 20 16 20Z" stroke="#47474F" stroke-width="2" stroke-linecap="round" stroke-linejoin="round"/>
<path d="M53 50L38.6479 26.5805C38.3296 26.1001 37.8992 25.705 37.394 25.4296C36.8888 25.1542 36.3242 25.0068 35.7493 25.0002C35.1744 24.9937 34.6066 25.1282 34.0953 25.392C33.584 25.6558 33.1447 26.041 32.8156 26.514L23.4234 39.9781L17.6016 35.2928C17.2195 34.9856 16.7778 34.7615 16.3046 34.6348C15.8314 34.5082 15.3372 34.4817 14.8533 34.5572C14.3694 34.6326 13.9064 34.8082 13.4939 35.0729C13.0813 35.3376 12.7282 35.6856 12.457 36.0947L3 50Z" stroke="#47474F" stroke-width="2" stroke-linecap="round" stroke-linejoin="round"/>
</svg>
