<svg width="42" height="29" viewBox="0 0 42 29" fill="none" xmlns="http://www.w3.org/2000/svg">
<path d="M33.9996 23L29.7386 18.4268C29.3644 18.042 29.1174 17.5459 29.0326 17.0086C28.9478 16.4714 29.0295 15.9203 29.2661 15.4335C29.4447 15.066 29.7057 14.7474 30.0276 14.5039C30.3494 14.2605 30.7229 14.0993 31.1172 14.0335C31.5116 13.9677 31.9154 13.9992 32.2956 14.1255C32.6758 14.2517 33.0213 14.4691 33.3037 14.7597L33.9996 15.4755L34.6963 14.7597C34.9787 14.4691 35.3242 14.2517 35.7044 14.1255C36.0846 13.9992 36.4884 13.9677 36.8828 14.0335C37.2771 14.0993 37.6506 14.2605 37.9724 14.5039C38.2943 14.7474 38.5553 15.066 38.7339 15.4335C38.9705 15.9203 39.0522 16.4714 38.9674 17.0086C38.8826 17.5459 38.6356 18.042 38.2614 18.4268L33.9996 23Z" stroke="#47474F" stroke-width="2" stroke-linecap="round" stroke-linejoin="round"/>
<path d="M22 21C23.8597 21.6877 25 22.6154 25 23.6361C25 25.7587 20.0749 27.4785 14 27.4785C7.92507 27.4785 3 25.7587 3 23.6361C3 22.6157 4.1405 21.688 6.00088 21" stroke="#47474F" stroke-width="2" stroke-linecap="round" stroke-linejoin="round"/>
<path fill-rule="evenodd" clip-rule="evenodd" d="M13.9694 23C14.5756 23 14.9181 22.4709 15.8945 21.435C17.115 20.1402 18.2918 18.9336 19.1463 18.0272C21.6691 15.3511 22.661 14.3356 23.3649 13.5433C25.2357 11.4378 25.4784 8.51229 24.2097 6.29142C22.6101 3.49159 20.2247 3 18.9421 3C17.6594 3 16.7421 3.49159 15.1221 4.75703L13.9989 5.8084L12.9063 4.75703C11.1489 3.25488 9.87646 3 9.0594 3C8.37843 3 5.53391 3.00043 3.70086 6.29142C2.36337 8.6927 3.0623 11.6507 4.76628 13.5433C5.07139 13.8822 6.32884 15.1998 8.51094 17.572C9.3895 18.5272 10.6326 19.8407 11.5478 20.8382C12.0663 21.4034 13.3631 23 13.9694 23Z" stroke="#47474F" stroke-width="2" stroke-linecap="round" stroke-linejoin="round"/>
</svg>
