<svg width="42" height="28" viewBox="0 0 42 28" fill="none" xmlns="http://www.w3.org/2000/svg">
<g clip-path="url(#clip0_7235_193)">
<path d="M29.125 9.9375H31.5625C31.9935 9.9375 32.4068 9.7663 32.7115 9.46155C33.0163 9.1568 33.1875 8.74348 33.1875 8.3125V5.37667C33.1875 5.04557 33.0863 4.72237 32.8975 4.45035C32.7088 4.17833 32.4414 3.97047 32.1313 3.85458C30.2896 3.16667 26.6875 1.8255 26.6864 1.8125H25.0614C25.0614 2.88994 24.6334 3.92325 23.8715 4.68512C23.1097 5.44699 22.0764 5.875 20.9989 5.875C19.9215 5.875 18.8882 5.44699 18.1263 4.68512C17.3644 3.92325 16.9364 2.88994 16.9364 1.8125H15.3114C15.3125 1.8255 11.7104 3.16667 9.86875 3.85458C9.55859 3.97047 9.29123 4.17833 9.10246 4.45035C8.9137 4.72237 8.81253 5.04557 8.8125 5.37667V8.3125C8.8125 8.74348 8.9837 9.1568 9.28845 9.46155C9.5932 9.7663 10.0065 9.9375 10.4375 9.9375H12.875V23.3438C12.875 24.098 13.1746 24.8213 13.7079 25.3546C14.2412 25.8879 14.9645 26.1875 15.7188 26.1875C16.473 26.1875 17.1963 25.8879 17.7296 25.3546C18.2629 24.8213 18.5625 24.098 18.5625 23.3438V19.6875C18.5625 19.041 18.8193 18.421 19.2764 17.9639C19.7335 17.5068 20.3535 17.25 21 17.25C21.6465 17.25 22.2665 17.5068 22.7236 17.9639C23.1807 18.421 23.4375 19.041 23.4375 19.6875V23.3438C23.4375 24.098 23.7371 24.8213 24.2704 25.3546C24.8037 25.8879 25.527 26.1875 26.2813 26.1875C27.0355 26.1875 27.7588 25.8879 28.2921 25.3546C28.8254 24.8213 29.125 24.098 29.125 23.3438V9.9375Z" stroke="#47474F" stroke-width="2" stroke-linecap="round" stroke-linejoin="round"/>
<path d="M21 13.1875C21.1077 13.1875 21.2111 13.2303 21.2873 13.3065C21.3634 13.3827 21.4063 13.486 21.4063 13.5938" stroke="#47474F" stroke-width="2" stroke-linecap="round" stroke-linejoin="round"/>
<path d="M20.5938 13.5938C20.5938 13.486 20.6366 13.3827 20.7127 13.3065C20.7889 13.2303 20.8923 13.1875 21 13.1875" stroke="#47474F" stroke-width="2" stroke-linecap="round" stroke-linejoin="round"/>
<path d="M21 14C20.8923 14 20.7889 13.9572 20.7127 13.881C20.6366 13.8048 20.5938 13.7015 20.5938 13.5938" stroke="#47474F" stroke-width="2" stroke-linecap="round" stroke-linejoin="round"/>
<path d="M21.4063 13.5938C21.4063 13.7015 21.3634 13.8048 21.2873 13.881C21.2111 13.9572 21.1077 14 21 14" stroke="#47474F" stroke-width="2" stroke-linecap="round" stroke-linejoin="round"/>
<path d="M21 9.125C21.1077 9.125 21.2111 9.1678 21.2873 9.24399C21.3634 9.32017 21.4063 9.42351 21.4063 9.53125" stroke="#47474F" stroke-width="2" stroke-linecap="round" stroke-linejoin="round"/>
<path d="M20.5938 9.53125C20.5938 9.42351 20.6366 9.32017 20.7127 9.24399C20.7889 9.1678 20.8923 9.125 21 9.125" stroke="#47474F" stroke-width="2" stroke-linecap="round" stroke-linejoin="round"/>
<path d="M21 9.9375C20.8923 9.9375 20.7889 9.8947 20.7127 9.81851C20.6366 9.74233 20.5938 9.63899 20.5938 9.53125" stroke="#47474F" stroke-width="2" stroke-linecap="round" stroke-linejoin="round"/>
<path d="M21.4063 9.53125C21.4063 9.63899 21.3634 9.74233 21.2873 9.81851C21.2111 9.8947 21.1077 9.9375 21 9.9375" stroke="#47474F" stroke-width="2" stroke-linecap="round" stroke-linejoin="round"/>
</g>
<defs>
<clipPath id="clip0_7235_193">
<rect width="26" height="26" fill="white" transform="translate(8 1)"/>
</clipPath>
</defs>
</svg>
