<svg width="32" height="32" viewBox="0 0 32 32" fill="none" xmlns="http://www.w3.org/2000/svg">
<path d="M1 12.8638L3 15.8304L5.91899 13.8626" stroke="#47474F" stroke-width="2" stroke-linecap="round" stroke-linejoin="round"/>
<path d="M3.00146 15.8319C3.04327 12.4406 4.31469 9.17984 6.57949 6.65538C8.8443 4.13092 11.9485 2.51441 15.3153 2.10621C18.6822 1.698 22.0827 2.52585 24.8852 4.43594C27.6877 6.34603 29.7015 9.20849 30.5525 12.4915C31.4035 15.7745 31.0338 19.2548 29.5122 22.2858C27.9905 25.3167 25.4204 27.6923 22.2792 28.9711C19.138 30.2499 15.6394 30.3449 12.4335 29.2386C9.25671 28.1423 6.58129 25.9403 4.89443 23.0362" stroke="#47474F" stroke-width="2" stroke-linecap="round" stroke-linejoin="round"/>
<path d="M12.6665 16.6665H21.3332" stroke="#47474F" stroke-width="2" stroke-linecap="round" stroke-linejoin="round"/>
<path d="M10.6587 14.6675C11.1892 14.6675 11.7058 14.8774 12.0809 15.2524C12.456 15.6275 12.6667 16.1362 12.6667 16.6666C12.6667 17.1971 12.456 17.7058 12.0809 18.0809C11.7196 18.4421 11.2344 18.6509 10.7251 18.6658" stroke="#47474F" stroke-width="2" stroke-linecap="round" stroke-linejoin="round"/>
<path d="M23.2876 14.6672C22.7738 14.679 22.2835 14.8883 21.9193 15.2525C21.5442 15.6276 21.3335 16.1363 21.3335 16.6667C21.3335 17.1971 21.5442 17.7058 21.9193 18.0809C22.2835 18.4452 22.7738 18.6544 23.2876 18.6662" stroke="#47474F" stroke-width="2" stroke-linecap="round" stroke-linejoin="round"/>
</svg>
