<svg width="32" height="32" viewBox="0 0 32 32" fill="none" xmlns="http://www.w3.org/2000/svg">
<path d="M19.6672 1H2.33382C1.59744 1 1.00049 1.59695 1.00049 2.33333V29.6667C1.00049 30.403 1.59744 31 2.33382 31H19.6672C20.4035 31 21.0005 30.403 21.0005 29.6667V2.33333C21.0005 1.59695 20.4035 1 19.6672 1Z" stroke="#47474F" stroke-width="2" stroke-linecap="round" stroke-linejoin="round"/>
<path d="M17.0005 7C17.0005 6.46957 16.7898 5.96086 16.4147 5.58579C16.0396 5.21071 15.5309 5 15.0005 5H7.00049C6.47006 5 5.96135 5.21071 5.58627 5.58579C5.2112 5.96086 5.00049 6.46957 5.00049 7C5.00049 7.53043 5.2112 8.03914 5.58627 8.41421C5.96135 8.78929 6.47006 9 7.00049 9H15.0005C15.5309 9 16.0396 8.78929 16.4147 8.41421C16.7898 8.03914 17.0005 7.53043 17.0005 7Z" stroke="#47474F" stroke-width="2" stroke-linecap="round" stroke-linejoin="round"/>
<path d="M1.00049 13H21.0005" stroke="#47474F" stroke-width="2" stroke-linecap="round" stroke-linejoin="round"/>
<path d="M21.0005 7H23.0005C23.5309 7 24.0396 7.21071 24.4147 7.58579C24.7898 7.96086 25.0005 8.46957 25.0005 9V29C25.0005 29.5304 25.2112 30.0391 25.5863 30.4142C25.9613 30.7893 26.4701 31 27.0005 31C27.5309 31 28.0396 30.7893 28.4147 30.4142C28.7898 30.0391 29.0005 29.5304 29.0005 29V17C29.0003 15.6951 29.3863 14.4193 30.1098 13.3333L30.95 12.0755" stroke="#47474F" stroke-width="2" stroke-linecap="round" stroke-linejoin="round"/>
<path d="M29.0005 17H31.0005" stroke="#47474F" stroke-width="2" stroke-linecap="round" stroke-linejoin="round"/>
</svg>
