<svg width="32" height="32" viewBox="0 0 32 32" fill="none" xmlns="http://www.w3.org/2000/svg">
<path d="M5.24571 30.8207C4.6139 29.664 1.0232 22.8156 1.0001 16.5287C0.985776 12.6842 2.55239 8.99167 5.35531 6.26341C8.15823 3.53514 11.9679 1.99465 15.9461 1.98081C19.9243 1.96697 23.7453 3.48092 26.5685 6.18961C29.3917 8.8983 30.9858 12.5798 31.0001 16.4244C31.0238 22.8609 27.311 29.918 26.8212 30.8207" stroke="#47474F" stroke-width="2" stroke-linecap="round" stroke-linejoin="round"/>
<path d="M8.11456 19.0586L5.96477 19.9658C5.28632 20.2521 4.96841 21.0341 5.25469 21.7126L8.49444 29.3904C8.78072 30.0688 9.56279 30.3867 10.2412 30.1005L12.391 29.1933C13.0695 28.907 13.3874 28.125 13.1011 27.4465L9.86136 19.7687C9.57508 19.0903 8.79301 18.7724 8.11456 19.0586Z" stroke="#47474F" stroke-width="2" stroke-linecap="round" stroke-linejoin="round"/>
<path d="M19.6086 29.1951L21.7584 30.1022C22.4368 30.3885 23.2189 30.0706 23.5052 29.3922L26.7449 21.7144C27.0312 21.0359 26.7133 20.2538 26.0348 19.9676L23.8851 19.0604C23.2066 18.7742 22.4245 19.0921 22.1383 19.7705L18.8985 27.4483C18.6122 28.1268 18.9301 28.9088 19.6086 29.1951Z" stroke="#47474F" stroke-width="2" stroke-linecap="round" stroke-linejoin="round"/>
</svg>
