<svg width="32" height="32" viewBox="0 0 32 32" fill="none" xmlns="http://www.w3.org/2000/svg">
<path d="M22.0005 30H25.0005C25.5309 30 26.0396 29.7893 26.4147 29.4142C26.7898 29.0391 27.0005 28.5304 27.0005 28V18" stroke="#47474F" stroke-width="2" stroke-linecap="round" stroke-linejoin="round"/>
<path d="M10.0005 30H7.00049C6.47006 30 5.96135 29.7893 5.58627 29.4142C5.2112 29.0391 5.00049 28.5304 5.00049 28V18" stroke="#47474F" stroke-width="2" stroke-linecap="round" stroke-linejoin="round"/>
<path d="M1.00049 16.1719L14.5858 2.58526C14.7716 2.39941 14.9921 2.25198 15.2348 2.15139C15.4776 2.0508 15.7377 1.99902 16.0005 1.99902C16.2632 1.99902 16.5234 2.0508 16.7662 2.15139C17.0089 2.25198 17.2294 2.39941 17.4152 2.58526L30.8298 15.9999" stroke="#47474F" stroke-width="2" stroke-linecap="round" stroke-linejoin="round"/>
<path d="M16.0005 16C17.6573 16 19.0005 14.6569 19.0005 13C19.0005 11.3431 17.6573 10 16.0005 10C14.3436 10 13.0005 11.3431 13.0005 13C13.0005 14.6569 14.3436 16 16.0005 16Z" stroke="#47474F" stroke-width="2" stroke-linecap="round" stroke-linejoin="round"/>
<path d="M16.0005 18C14.6744 18 13.4026 18.5268 12.465 19.4645C11.5273 20.4021 11.0005 21.6739 11.0005 23V24H13.0005L14.0005 30H18.0005L19.0005 24H21.0005V23C21.0005 21.6739 20.4737 20.4021 19.536 19.4645C18.5983 18.5268 17.3266 18 16.0005 18Z" stroke="#47474F" stroke-width="2" stroke-linecap="round" stroke-linejoin="round"/>
</svg>
