<svg width="24" height="24" viewBox="0 0 24 24" fill="none" xmlns="http://www.w3.org/2000/svg"><path d="M20.25 20.25v-9a.75.75 0 0 0-.22-.53l-7.5-7.5a.749.749 0 0 0-1.06 0l-7.5 7.5a.75.75 0 0 0-.22.53v9M13.875 9a1.875 1.875 0 1 1-3.75 0 1.875 1.875 0 0 1 3.75 0ZM12 12.75a2.94 2.94 0 0 0-2.121.915A3.192 3.192 0 0 0 9 15.875v.625h1.2l.6 3.75h2.4l.6-3.75H15v-.625c0-.829-.316-1.624-.879-2.21A2.94 2.94 0 0 0 12 12.75Z" stroke="#1B1B1F" stroke-width="1.5" stroke-linecap="round" stroke-linejoin="round"/></svg>