<svg width="42" height="28" viewBox="0 0 42 28" fill="none" xmlns="http://www.w3.org/2000/svg">
<path d="M10.7144 13.1429L23.5715 2.85718L36.4287 13.1429" stroke="#47474F" stroke-width="2" stroke-linecap="round" stroke-linejoin="round"/>
<path d="M13.2856 25.1428V11.0857" stroke="#47474F" stroke-width="2" stroke-linecap="round" stroke-linejoin="round"/>
<path d="M13.2855 23.4285C13.2855 22.4817 12.518 21.7142 11.5712 21.7142H10.7141C10.7141 19.8207 9.17905 18.2856 7.2855 18.2856C5.39195 18.2856 3.85693 19.8207 3.85693 21.7142C3.85693 23.6078 5.39195 25.1428 7.2855 25.1428H38.1427" stroke="#47474F" stroke-width="2" stroke-linecap="round" stroke-linejoin="round"/>
<path d="M33.8572 25.1428V6.28564H30.4287V8.34279" stroke="#47474F" stroke-width="2" stroke-linecap="round" stroke-linejoin="round"/>
<path d="M26.1429 24.2856V19.1428C26.1429 18.6694 25.7591 18.2856 25.2857 18.2856H21.8571C21.3838 18.2856 21 18.6694 21 19.1428V24.2856" stroke="#47474F" stroke-width="2" stroke-linecap="round" stroke-linejoin="round"/>
<path d="M21 12.9286V10.7858C21 10.1941 21.4934 9.71436 22.102 9.71436H25.0408C25.6495 9.71436 26.1429 10.1941 26.1429 10.7858V12.9286C26.1429 13.5204 25.6495 14.0001 25.0408 14.0001H22.102C21.4934 14.0001 21 13.5204 21 12.9286Z" stroke="#47474F" stroke-width="2" stroke-linecap="round" stroke-linejoin="round"/>
</svg>
