<svg width="24" height="24" viewBox="0 0 24 24" fill="none" xmlns="http://www.w3.org/2000/svg"><path d="M7.333 17.455h9.273M12 6.545v10.91M7.333 6.545h9.273M10.666 20h2.667M10.667 4h2.666M4.727 4h1.88c.4 0 .726.326.726.727v3.637a.727.727 0 0 1-.727.727H4.727A.727.727 0 0 1 4 8.364V4.727C4 4.326 4.326 4 4.727 4Zm0 10.91h1.88c.4 0 .726.325.726.726v3.637a.727.727 0 0 1-.727.727H4.727A.727.727 0 0 1 4 19.273v-3.637c0-.401.326-.727.727-.727ZM17.333 4h1.94c.401 0 .727.326.727.727v3.637a.727.727 0 0 1-.727.727h-1.94a.727.727 0 0 1-.727-.727V4.727c0-.401.326-.727.727-.727Zm0 10.91h1.94c.401 0 .727.325.727.726v3.637a.727.727 0 0 1-.727.727h-1.94a.727.727 0 0 1-.727-.727v-3.637c0-.401.326-.727.727-.727Z" stroke="#1B1B1F" stroke-width="1.5" stroke-linecap="round" stroke-linejoin="round"/></svg>