<svg width="24" height="24" viewBox="0 0 24 24" fill="none" xmlns="http://www.w3.org/2000/svg"><path d="M7.188 17.625h9.562M12 6.375v11.25M7.189 6.375h9.562M10.625 20.25h2.75m-2.75-16.5h2.75m-8.875 0h1.938a.75.75 0 0 1 .75.75v3.75a.75.75 0 0 1-.75.75H4.5a.75.75 0 0 1-.75-.75V4.5a.75.75 0 0 1 .75-.75ZM4.5 15h1.938a.75.75 0 0 1 .75.75v3.75a.75.75 0 0 1-.75.75H4.5a.75.75 0 0 1-.75-.75v-3.75A.75.75 0 0 1 4.5 15Zm13-11.25h2a.75.75 0 0 1 .75.75v3.75a.75.75 0 0 1-.75.75h-2a.75.75 0 0 1-.75-.75V4.5a.75.75 0 0 1 .75-.75Zm0 11.25h2a.75.75 0 0 1 .75.75v3.75a.75.75 0 0 1-.75.75h-2a.75.75 0 0 1-.75-.75v-3.75a.75.75 0 0 1 .75-.75Z" stroke="#1B1B1F" stroke-width="1.5" stroke-linecap="round" stroke-linejoin="round"/></svg>