<svg width="32" height="32" viewBox="0 0 32 32" fill="none" xmlns="http://www.w3.org/2000/svg">
<path d="M1.3335 2.66683C1.3335 1.93045 1.93045 1.3335 2.66683 1.3335H5.3335C6.06988 1.3335 6.66683 1.93045 6.66683 2.66683V9.3335C6.66683 10.0699 6.06988 10.6668 5.3335 10.6668H2.66683C1.93045 10.6668 1.3335 10.0699 1.3335 9.3335V2.66683Z" stroke="#47474F" stroke-width="2" stroke-linecap="round" stroke-linejoin="round"/>
<path d="M1.3335 22.6668C1.3335 21.9304 1.93045 21.3335 2.66683 21.3335H5.3335C6.06988 21.3335 6.66683 21.9304 6.66683 22.6668V29.3335C6.66683 30.0699 6.06988 30.6668 5.3335 30.6668H2.66683C1.93045 30.6668 1.3335 30.0699 1.3335 29.3335V22.6668Z" stroke="#47474F" stroke-width="2" stroke-linecap="round" stroke-linejoin="round"/>
<path d="M25.3335 2.66683C25.3335 1.93045 25.9304 1.3335 26.6668 1.3335H29.3335C30.0699 1.3335 30.6668 1.93045 30.6668 2.66683V9.3335C30.6668 10.0699 30.0699 10.6668 29.3335 10.6668H26.6668C25.9304 10.6668 25.3335 10.0699 25.3335 9.3335V2.66683Z" stroke="#47474F" stroke-width="2" stroke-linecap="round" stroke-linejoin="round"/>
<path d="M25.3335 22.6668C25.3335 21.9304 25.9304 21.3335 26.6668 21.3335H29.3335C30.0699 21.3335 30.6668 21.9304 30.6668 22.6668V29.3335C30.6668 30.0699 30.0699 30.6668 29.3335 30.6668H26.6668C25.9304 30.6668 25.3335 30.0699 25.3335 29.3335V22.6668Z" stroke="#47474F" stroke-width="2" stroke-linecap="round" stroke-linejoin="round"/>
<path d="M25.3337 26H6.66699" stroke="#47474F" stroke-width="2" stroke-linecap="round" stroke-linejoin="round"/>
<path d="M13.3335 2.6665L18.6668 2.6665" stroke="#47474F" stroke-width="2" stroke-linecap="round" stroke-linejoin="round"/>
<path d="M13.3335 29.3335H18.6668" stroke="#47474F" stroke-width="2" stroke-linecap="round" stroke-linejoin="round"/>
<path d="M16.001 6V26" stroke="#47474F" stroke-width="2" stroke-linecap="round" stroke-linejoin="round"/>
<path d="M25.3337 6L6.66699 6" stroke="#47474F" stroke-width="2" stroke-linecap="round" stroke-linejoin="round"/>
</svg>
