<svg width="24" height="24" viewBox="0 0 24 24" fill="none" xmlns="http://www.w3.org/2000/svg">
  <path d="M13.929 9.713h1.928m-8.357 0h2.571M8.786 8.438v2.55m4.99 2.55 3.383 3.809a2.267 2.267 0 0 0 2.63.401 2.24 2.24 0 0 0 .979-.992c.212-.426.28-.907.198-1.374L19.65 8.677m-9.426 4.86-3.384 3.81a2.267 2.267 0 0 1-2.63.401 2.24 2.24 0 0 1-.979-.992 2.215 2.215 0 0 1-.198-1.374L4.35 8.677a4.136 4.136 0 0 1 1.425-2.454 4.2 4.2 0 0 1 2.681-.973h7.08c1.11 0 2.172.437 2.956 1.214a4.126 4.126 0 0 1 1.224 2.93c0 1.099-.44 2.153-1.224 2.93a4.197 4.197 0 0 1-2.955 1.214h-5.311Z" stroke="#1B1B1F" stroke-width="1.5" stroke-linecap="round" stroke-linejoin="round"/>
</svg>
