<svg width="32" height="32" viewBox="0 0 32 32" fill="none" xmlns="http://www.w3.org/2000/svg">
<path d="M10.0003 20.0002L12.2309 18.3256C12.4586 18.155 12.7187 18.0327 12.9952 17.966C13.2718 17.8994 13.559 17.8897 13.8394 17.9378C14.1197 17.9858 14.3874 18.0905 14.626 18.2454C14.8645 18.4004 15.069 18.6023 15.2269 18.8389C15.4558 19.1827 15.5779 19.5865 15.5779 19.9996C15.5779 20.4126 15.4558 20.8164 15.2269 21.1602L13.0336 24.4496C12.3596 25.4599 11.3949 26.2419 10.2669 26.6922L7.04248 27.9833" stroke="#47474F" stroke-width="2" stroke-linecap="round" stroke-linejoin="round"/>
<path d="M1.00049 31.0001V24.2308C1.00049 23.4181 1.1656 22.6138 1.48582 21.8668L3.05515 18.2055C3.66207 16.789 4.7907 15.6604 6.20716 15.0535L10.9062 13.0405" stroke="#47474F" stroke-width="2" stroke-linecap="round" stroke-linejoin="round"/>
<path d="M11.0005 26.34V28C11.0005 28.7957 11.3166 29.5587 11.8792 30.1213C12.4418 30.6839 13.2048 31 14.0005 31H28.0005C28.7961 31 29.5592 30.6839 30.1218 30.1213C30.6844 29.5587 31.0005 28.7957 31.0005 28V4C31.0005 3.20435 30.6844 2.44129 30.1218 1.87868C29.5592 1.31607 28.7961 1 28.0005 1H25.0005C25.0005 2.06087 24.5791 3.07828 23.8289 3.82843C23.0788 4.57857 22.0614 5 21.0005 5C19.9396 5 18.9222 4.57857 18.1721 3.82843C17.4219 3.07828 17.0005 2.06087 17.0005 1H14.0005C13.2048 1 12.4418 1.31607 11.8792 1.87868C11.3166 2.44129 11.0005 3.20435 11.0005 4V19.2493" stroke="#47474F" stroke-width="2" stroke-linecap="round" stroke-linejoin="round"/>
<path d="M16.3818 12.6999L18.2272 13.7705L25.966 9.9834" stroke="#47474F" stroke-width="2" stroke-linecap="round" stroke-linejoin="round"/>
<path d="M22.7592 11.5533L18.3818 9" stroke="#47474F" stroke-width="2" stroke-linecap="round" stroke-linejoin="round"/>
<path d="M31.0005 25H27.0005" stroke="#47474F" stroke-width="2" stroke-linecap="round" stroke-linejoin="round"/>
<path d="M23.0005 25H20.0005" stroke="#47474F" stroke-width="2" stroke-linecap="round" stroke-linejoin="round"/>
</svg>
