<svg width="32" height="32" viewBox="0 0 32 32" fill="none" xmlns="http://www.w3.org/2000/svg">
<path d="M13.3338 10.6667L8.00049 15.5001L13.3338 21.3334" stroke="#47474F" stroke-width="2" stroke-miterlimit="10" stroke-linecap="round" stroke-linejoin="round"/>
<path d="M16.0005 1C7.71622 0.999999 1.00049 7.71573 1.00049 16C1.00049 24.2843 7.71622 31 16.0005 31C24.2848 31 31.0005 24.2843 31.0005 16C31.0005 7.71573 24.2848 1 16.0005 1Z" stroke="#47474F" stroke-width="2" stroke-miterlimit="10" stroke-linecap="round"/>
<path d="M8.00049 10.6667L8.00049 21.3334" stroke="#47474F" stroke-width="2" stroke-miterlimit="10" stroke-linecap="round" stroke-linejoin="round"/>
<path d="M17.3335 10.6667L17.3335 21.3334" stroke="#47474F" stroke-width="2" stroke-miterlimit="10" stroke-linecap="round" stroke-linejoin="round"/>
<path d="M17.3335 10.6667L20.0002 10.6667C21.4729 10.6667 22.6668 11.8607 22.6668 13.3334C22.6668 14.8062 21.4729 16.0001 20.0002 16.0001H17.3335" stroke="#47474F" stroke-width="2" stroke-miterlimit="10" stroke-linecap="round" stroke-linejoin="round"/>
<path d="M17.3335 16L22.6668 21.3333" stroke="#47474F" stroke-width="2" stroke-miterlimit="10" stroke-linecap="round" stroke-linejoin="round"/>
</svg>
