<svg width="32" height="32" viewBox="0 0 32 32" fill="none" xmlns="http://www.w3.org/2000/svg">
<path d="M16 31C24.2843 31 31 24.2843 31 16C31 7.71573 24.2843 1 16 1C7.71573 1 1 7.71573 1 16C1 24.2843 7.71573 31 16 31Z" stroke="#47474F" stroke-width="2" stroke-linecap="round" stroke-linejoin="round"/>
<path d="M15.9978 25.0056C17.6752 25.0056 19.3193 24.5369 20.7446 23.6525C22.1604 22.7739 23.3044 21.5198 24.0496 20.0299L7.93115 20C8.67591 21.503 9.82577 22.7681 11.2511 23.6525C12.6764 24.5369 14.3204 25.0056 15.9978 25.0056Z" stroke="#47474F" stroke-width="2" stroke-linecap="round" stroke-linejoin="round"/>
<path d="M25 14.0005C24.7933 13.4154 24.4103 12.9088 23.9037 12.5505C23.3971 12.1922 22.7918 11.9998 22.1713 11.9998C21.5508 11.9998 20.9456 12.1922 20.439 12.5505C19.943 12.9014 19.5654 13.3943 19.3558 13.964" stroke="#47474F" stroke-width="2" stroke-linecap="round" stroke-linejoin="round"/>
<path d="M7.00005 14.0005C7.20675 13.4154 7.58978 12.9088 8.09637 12.5505C8.60297 12.1922 9.20821 11.9998 9.82872 11.9998C10.4492 11.9998 11.0545 12.1922 11.5611 12.5505C12.0589 12.9026 12.4374 13.3979 12.6465 13.9702" stroke="#47474F" stroke-width="2" stroke-linecap="round" stroke-linejoin="round"/>
</svg>
