<svg width="24" height="24" viewBox="0 0 24 24" fill="none" xmlns="http://www.w3.org/2000/svg">
  <path d="M6.22 9.595a.75.75 0 1 0 1.06 1.06l-1.06-1.06Zm3 1.06a.75.75 0 1 0 1.06-1.06l-1.06 1.06Zm4.5-1.06a.75.75 0 1 0 1.06 1.06l-1.06-1.06Zm3 1.06a.75.75 0 1 0 1.06-1.06l-1.06 1.06ZM7.125 14.25v-.75a.75.75 0 0 0-.683 1.06l.683-.31Zm9.75 0 .683.31a.75.75 0 0 0-.683-1.06v.75ZM21 12h-.75A8.25 8.25 0 0 1 12 20.25v1.5c5.385 0 9.75-4.365 9.75-9.75H21Zm-9 9v-.75A8.25 8.25 0 0 1 3.75 12h-1.5c0 5.385 4.365 9.75 9.75 9.75V21Zm-9-9h.75A8.25 8.25 0 0 1 12 3.75v-1.5c-5.385 0-9.75 4.365-9.75 9.75H3Zm9-9v.75A8.25 8.25 0 0 1 20.25 12h1.5c0-5.385-4.365-9.75-9.75-9.75V3Zm-5.25 7.125.53.53c.203-.202.556-.342.97-.342.414 0 .767.14.97.342l.53-.53.53-.53c-.547-.548-1.319-.783-2.03-.783-.711 0-1.483.235-2.03.783l.53.53Zm7.5 0 .53.53c.203-.202.556-.342.97-.342.414 0 .767.14.97.342l.53-.53.53-.53c-.547-.548-1.319-.783-2.03-.783-.711 0-1.483.235-2.03.783l.53.53ZM7.125 14.25V15h9.75v-1.5h-9.75v.75Zm0 0-.683.31c2.142 4.711 8.974 4.711 11.116 0l-.683-.31-.683-.31c-1.608 3.539-6.776 3.539-8.384 0l-.683.31Z" fill="#1B1B1F"/>
</svg>
