<svg width="42" height="28" viewBox="0 0 42 28" fill="none" xmlns="http://www.w3.org/2000/svg">
<path d="M11.25 18.0625C12.5962 18.0625 13.6875 16.2437 13.6875 14C13.6875 11.7563 12.5962 9.9375 11.25 9.9375C9.90381 9.9375 8.8125 11.7563 8.8125 14C8.8125 16.2437 9.90381 18.0625 11.25 18.0625Z" stroke="#47474F" stroke-width="2" stroke-linecap="round" stroke-linejoin="round"/>
<path d="M16.9375 9.9375C18.2837 9.9375 19.375 8.11866 19.375 5.875C19.375 3.63134 18.2837 1.8125 16.9375 1.8125C15.5913 1.8125 14.5 3.63134 14.5 5.875C14.5 8.11866 15.5913 9.9375 16.9375 9.9375Z" stroke="#47474F" stroke-width="2" stroke-linecap="round" stroke-linejoin="round"/>
<path d="M30.75 17.25C32.0962 17.25 33.1875 15.4312 33.1875 13.1875C33.1875 10.9438 32.0962 9.125 30.75 9.125C29.4038 9.125 28.3125 10.9438 28.3125 13.1875C28.3125 15.4312 29.4038 17.25 30.75 17.25Z" stroke="#47474F" stroke-width="2" stroke-linecap="round" stroke-linejoin="round"/>
<path d="M25.0625 9.9375C26.4087 9.9375 27.5 8.11866 27.5 5.875C27.5 3.63134 26.4087 1.8125 25.0625 1.8125C23.7163 1.8125 22.625 3.63134 22.625 5.875C22.625 8.11866 23.7163 9.9375 25.0625 9.9375Z" stroke="#47474F" stroke-width="2" stroke-linecap="round" stroke-linejoin="round"/>
<path d="M25.6843 17.9574C25.4787 17.797 25.3146 17.5896 25.2056 17.3527C25.0967 17.1158 25.0461 16.8562 25.0582 16.5957C25.0582 16.5437 25.0582 16.4873 25.0582 16.4375C25.0582 15.3601 24.6302 14.3267 23.8683 13.5649C23.1064 12.803 22.0731 12.375 20.9957 12.375C19.9182 12.375 18.8849 12.803 18.123 13.5649C17.3612 14.3267 16.9332 15.3601 16.9332 16.4375C16.9332 16.4906 16.9332 16.5458 16.9332 16.5957C16.9458 16.8562 16.8954 17.116 16.7865 17.353C16.6775 17.5901 16.513 17.7974 16.307 17.9574C15.7679 18.3398 15.3243 18.8415 15.0109 19.4235C14.6974 20.0054 14.5226 20.6519 14.5 21.3125C14.5 24.0046 17.4098 26.1875 21 26.1875C24.5902 26.1875 27.5 24.0046 27.5 21.3125C27.4764 20.6512 27.3002 20.0042 26.9853 19.4222C26.6703 18.8402 26.2251 18.3389 25.6843 17.9574Z" stroke="#47474F" stroke-width="2" stroke-linecap="round" stroke-linejoin="round"/>
</svg>
