<svg width="24" height="24" viewBox="0 0 24 24" fill="none" xmlns="http://www.w3.org/2000/svg"><path d="M19.875 12a1.875 1.875 0 1 0 0-3.75 1.875 1.875 0 0 0 0 3.75ZM4.125 12a1.875 1.875 0 1 0 0-3.75 1.875 1.875 0 0 0 0 3.75ZM8.625 7.5a1.875 1.875 0 1 0 0-3.75 1.875 1.875 0 0 0 0 3.75ZM15.375 7.5a1.875 1.875 0 1 0 0-3.75 1.875 1.875 0 0 0 0 3.75ZM12 9.75a3.375 3.375 0 0 0-3.241 2.438 4.077 4.077 0 0 1-1.938 2.428 3 3 0 0 0 2.6 5.401 6.796 6.796 0 0 1 5.156 0 3 3 0 0 0 2.6-5.401 4.074 4.074 0 0 1-1.936-2.428A3.375 3.375 0 0 0 12 9.75Z" stroke="#1B1B1F" stroke-width="1.5" stroke-linecap="round" stroke-linejoin="round"/></svg>