<svg width="32" height="32" viewBox="0 0 32 32" fill="none" xmlns="http://www.w3.org/2000/svg">
<path d="M21.9756 19.72C21.8728 18.8661 21.5746 18.0474 21.1043 17.3274C20.634 16.6073 20.0041 16.0053 19.2636 15.568C18.2818 14.9784 17.1582 14.667 16.013 14.667C14.8678 14.667 13.7441 14.9784 12.7623 15.568C12.0218 16.0053 11.3919 16.6073 10.9216 17.3274C10.4513 18.0474 10.1532 18.8661 10.0503 19.72C9.98608 20.1814 9.81194 20.6206 9.54255 21.0007C9.27316 21.3807 8.91639 21.6905 8.5023 21.904C7.54075 22.4018 6.786 23.2234 6.37127 24.2236C5.95655 25.2238 5.90851 26.3384 6.23563 27.3706C6.48853 28.1244 6.92601 28.8029 7.50821 29.3444C8.09042 29.8858 8.79885 30.273 9.56896 30.4706C10.3571 30.6917 11.1859 30.7264 11.9898 30.5721C12.7937 30.4177 13.5507 30.0785 14.201 29.5813C14.7219 29.1849 15.3584 28.9702 16.013 28.9702C16.6675 28.9702 17.3041 29.1849 17.825 29.5813C18.4752 30.0785 19.2322 30.4177 20.0361 30.5721C20.84 30.7264 21.6688 30.6917 22.457 30.4706C23.2271 30.273 23.9355 29.8858 24.5177 29.3444C25.0999 28.8029 25.5374 28.1244 25.7903 27.3706C26.1174 26.3384 26.0694 25.2238 25.6547 24.2236C25.2399 23.2234 24.4852 22.4018 23.5236 21.904C23.1095 21.6905 22.7528 21.3807 22.4834 21.0007C22.214 20.6206 22.0399 20.1814 21.9756 19.72V19.72Z" stroke="#47474F" stroke-width="2" stroke-linecap="round" stroke-linejoin="round"/>
<path d="M11.0132 11.6665C12.67 11.6665 14.0132 9.87564 14.0132 7.6665C14.0132 5.45736 12.67 3.6665 11.0132 3.6665C9.35633 3.6665 8.01318 5.45736 8.01318 7.6665C8.01318 9.87564 9.35633 11.6665 11.0132 11.6665Z" stroke="#47474F" stroke-width="2" stroke-linecap="round" stroke-linejoin="round"/>
<path d="M4 19.6665C5.65685 19.6665 7 17.8756 7 15.6665C7 13.4574 5.65685 11.6665 4 11.6665C2.34315 11.6665 1 13.4574 1 15.6665C1 17.8756 2.34315 19.6665 4 19.6665Z" stroke="#47474F" stroke-width="2" stroke-linecap="round" stroke-linejoin="round"/>
<path d="M21.0132 11.6665C22.67 11.6665 24.0132 9.87564 24.0132 7.6665C24.0132 5.45736 22.67 3.6665 21.0132 3.6665C19.3563 3.6665 18.0132 5.45736 18.0132 7.6665C18.0132 9.87564 19.3563 11.6665 21.0132 11.6665Z" stroke="#47474F" stroke-width="2" stroke-linecap="round" stroke-linejoin="round"/>
<path d="M28 19.6665C29.6569 19.6665 31 17.8756 31 15.6665C31 13.4574 29.6569 11.6665 28 11.6665C26.3431 11.6665 25 13.4574 25 15.6665C25 17.8756 26.3431 19.6665 28 19.6665Z" stroke="#47474F" stroke-width="2" stroke-linecap="round" stroke-linejoin="round"/>
<path d="M4.01318 11.6665V9.6665" stroke="#47474F" stroke-width="2" stroke-linecap="round" stroke-linejoin="round"/>
<path d="M11.0132 3.6665V1.6665" stroke="#47474F" stroke-width="2" stroke-linecap="round" stroke-linejoin="round"/>
<path d="M21.0132 3.6665V1.6665" stroke="#47474F" stroke-width="2" stroke-linecap="round" stroke-linejoin="round"/>
<path d="M28.0132 11.6665V9.6665" stroke="#47474F" stroke-width="2" stroke-linecap="round" stroke-linejoin="round"/>
</svg>
