<svg width="32" height="32" viewBox="0 0 32 32" fill="none" xmlns="http://www.w3.org/2000/svg">
<path d="M29.3337 9.33325L18.8673 19.9186C18.6836 20.1044 18.4656 20.2519 18.2255 20.3525C17.9855 20.4531 17.7283 20.5048 17.4685 20.5048C17.2087 20.5048 16.9514 20.4531 16.7114 20.3525C16.4714 20.2519 16.2534 20.1044 16.0697 19.9186L11.9459 15.7479C11.7623 15.5621 11.5442 15.4146 11.3042 15.314C11.0642 15.2135 10.8069 15.1617 10.5471 15.1617C10.2873 15.1617 10.0301 15.2135 9.79008 15.314C9.55007 15.4146 9.33202 15.5621 9.14837 15.7479L2.66699 21.4861" stroke="#47474F" stroke-width="2" stroke-linecap="round" stroke-linejoin="round"/>
<path d="M2.66699 2V30" stroke="#47474F" stroke-width="2" stroke-linecap="round" stroke-linejoin="round"/>
<path d="M29.3337 15.9999V9.33325H22.667" stroke="#47474F" stroke-width="2" stroke-linecap="round" stroke-linejoin="round"/>
</svg>
