<svg width="32" height="32" viewBox="0 0 32 32" fill="none" xmlns="http://www.w3.org/2000/svg">
<path d="M2.08299 27.0648L12.7403 30.6168C13.6087 30.9059 14.5499 30.8885 15.407 30.5675L29.319 25.3501C29.8089 25.167 30.211 24.8049 30.4443 24.3368C30.6099 24.0087 30.6853 23.6425 30.6625 23.2757C30.6398 22.9089 30.5199 22.5547 30.3151 22.2496C30.1103 21.9445 29.8279 21.6994 29.497 21.5394C29.1662 21.3795 28.7987 21.3105 28.4323 21.3395L18.7125 22.2453" stroke="#47474F" stroke-width="2" stroke-linecap="round" stroke-linejoin="round"/>
<path d="M2.16939 18.1973L6.87339 17.4133C7.7281 17.2721 8.60327 17.3175 9.43873 17.5467L17.3561 19.7067C17.5895 19.7702 17.8075 19.8807 17.9967 20.0315C18.1859 20.1823 18.3423 20.37 18.4564 20.5834C18.5705 20.7967 18.6399 21.0311 18.6602 21.2721C18.6806 21.5132 18.6515 21.7559 18.5747 21.9853C18.457 22.3395 18.2307 22.6477 17.9279 22.866C17.6252 23.0842 17.2613 23.2016 16.8881 23.2013H9.21859" stroke="#47474F" stroke-width="2" stroke-linecap="round" stroke-linejoin="round"/>
<path d="M27.9995 17.3332V4.64452C27.9848 4.10616 27.7478 3.59546 27.3408 3.22467C26.9338 2.85388 26.39 2.65336 25.829 2.66717H7.50198C6.94118 2.65371 6.39774 2.8544 5.99103 3.22515C5.58432 3.5959 5.3476 4.1064 5.33285 4.64452V13.4738" stroke="#47474F" stroke-width="2" stroke-linecap="round" stroke-linejoin="round"/>
<path d="M20.6665 2.6665V9.45451L16.6665 7.33317L12.6665 9.45451V2.6665" stroke="#47474F" stroke-width="2" stroke-linecap="round" stroke-linejoin="round"/>
</svg>
