<svg width="32" height="32" viewBox="0 0 32 32" fill="none" xmlns="http://www.w3.org/2000/svg">
<path fill-rule="evenodd" clip-rule="evenodd" d="M9.42331 27.1275C9.67163 26.9288 9.99961 26.8601 10.3068 26.9424L15.4398 28.3177C15.7469 28.4001 15.9966 28.6236 16.1123 28.9197C16.2281 29.2159 16.1961 29.5495 16.0261 29.8183C15.1498 31.204 13.4379 31.8771 11.8494 31.4513C10.2608 31.0257 9.11481 29.5869 9.04874 27.9487C9.03594 27.6309 9.17499 27.326 9.42331 27.1275Z" fill="#47474F"/>
<path fill-rule="evenodd" clip-rule="evenodd" d="M20.8477 1.76981C20.9906 1.23634 20.6741 0.688007 20.1406 0.545064C19.6071 0.402123 19.0587 0.718706 18.9158 1.25217L18.3861 3.22924C12.8233 2.28501 7.31638 5.90489 5.85083 11.3744C4.76037 15.444 3.58773 17.9225 2.71666 19.3609C2.28133 20.0799 1.92135 20.5389 1.68435 20.8075C1.56581 20.9419 1.47778 21.0288 1.42617 21.0771C1.40034 21.1012 1.38357 21.1157 1.37659 21.1216L1.37427 21.1236C1.07914 21.3557 0.938684 21.7343 1.01172 22.1035C1.08569 22.4773 1.36574 22.7767 1.73389 22.8753L24.9161 29.0869C25.3246 29.1964 25.7579 29.0371 25.9981 28.6888C26.2277 28.356 26.2333 27.9196 26.0173 27.5821L26.0147 27.5771C26.0026 27.5519 25.9719 27.4835 25.9347 27.3604C25.8602 27.1139 25.7594 26.6495 25.7279 25.8813C25.6647 24.3396 25.8822 21.6177 27.1011 17.0684C28.5763 11.5629 25.645 5.71259 20.3182 3.74597L20.8477 1.76981Z" fill="#47474F"/>
</svg>
