<svg width="24" height="24" viewBox="0 0 24 24" fill="none" xmlns="http://www.w3.org/2000/svg"><path d="M5.246 9.75A6.749 6.749 0 0 1 12 3a6.754 6.754 0 0 1 6.753 6.75c0 3.358.779 5.306 1.398 6.375a.75.75 0 0 1-.648 1.125H4.496a.75.75 0 0 1-.645-1.125c.618-1.069 1.395-3.018 1.395-6.375Z" fill="#1B1B1F"/><path d="M5.246 9.75A6.749 6.749 0 0 1 12 3a6.754 6.754 0 0 1 6.753 6.75c0 3.358.779 5.306 1.398 6.375a.75.75 0 0 1-.648 1.125H4.496a.75.75 0 0 1-.645-1.125c.618-1.069 1.395-3.018 1.395-6.375ZM14.25 20.16c-1.5 1.125-3 1.125-4.5 0h4.5Z" stroke="#1B1B1F" stroke-width="1.5" stroke-linecap="round" stroke-linejoin="round"/></svg>