<svg width="42" height="33" viewBox="0 0 42 33" fill="none" xmlns="http://www.w3.org/2000/svg">
<path d="M13.4899 14.7971C13.0514 14.7971 12.5463 14.9461 12.2484 15.3006V12.7968C12.2484 12.7916 12.2473 12.7864 12.2453 12.7816C12.2433 12.7768 12.2404 12.7724 12.2367 12.7687C12.233 12.765 12.2287 12.7621 12.2238 12.7601C12.219 12.7581 12.2139 12.7571 12.2086 12.7571H11.0516C11.0463 12.757 11.0411 12.758 11.0363 12.76C11.0314 12.7619 11.027 12.7649 11.0233 12.7686C11.0196 12.7723 11.0167 12.7767 11.0147 12.7815C11.0128 12.7864 11.0118 12.7916 11.0118 12.7968V19.4676C11.0118 19.4781 11.016 19.4882 11.0235 19.4956C11.0309 19.5031 11.041 19.5073 11.0516 19.5073H12.2121C12.2226 19.5073 12.2328 19.5031 12.2402 19.4956C12.2477 19.4882 12.2518 19.4781 12.2518 19.4676V16.8128C12.2469 16.3008 12.5423 15.898 13.1095 15.8985C13.7054 15.8985 13.9581 16.3186 13.9581 16.8311V19.4676C13.9581 19.4728 13.9592 19.4779 13.9612 19.4828C13.9632 19.4876 13.9661 19.492 13.9698 19.4956C13.9735 19.4993 13.9778 19.5023 13.9827 19.5043C13.9875 19.5063 13.9926 19.5073 13.9979 19.5073H15.1584C15.1689 19.5073 15.179 19.5031 15.1865 19.4956C15.1939 19.4882 15.1981 19.4781 15.1981 19.4676V16.6166C15.1981 15.61 14.6573 14.7971 13.4899 14.7971Z" fill="white"/>
<path d="M17.0726 12.6449C16.9706 12.6418 16.8691 12.6593 16.7739 12.6961C16.6787 12.7329 16.5919 12.7885 16.5185 12.8594C16.4452 12.9303 16.3867 13.0152 16.3466 13.109C16.3066 13.2029 16.2857 13.3038 16.2852 13.4058C16.2848 13.5079 16.3047 13.609 16.3439 13.7032C16.3832 13.7974 16.4408 13.8828 16.5136 13.9544C16.5863 14.0259 16.6726 14.0822 16.7674 14.1199C16.8622 14.1576 16.9637 14.176 17.0657 14.1739C17.1737 14.1746 17.2805 14.1523 17.3792 14.1085C17.4779 14.0646 17.566 14.0002 17.6378 13.9195C17.7096 13.8389 17.7633 13.7438 17.7954 13.6407C17.8275 13.5376 17.8373 13.4289 17.824 13.3217C17.8005 13.1377 17.7117 12.9681 17.5739 12.8439C17.436 12.7197 17.2582 12.6491 17.0726 12.6449Z" fill="white"/>
<path d="M17.652 14.9198H16.4915C16.4696 14.9198 16.4518 14.9375 16.4518 14.9595V19.4676C16.4518 19.4895 16.4696 19.5073 16.4915 19.5073H17.652C17.674 19.5073 17.6918 19.4895 17.6918 19.4676V14.9595C17.6918 14.9375 17.674 14.9198 17.652 14.9198Z" fill="white"/>
<path d="M21.5542 14.7971C20.8739 14.7971 20.3703 15.095 20.1637 15.4218V12.7968C20.1637 12.7916 20.1627 12.7864 20.1607 12.7816C20.1587 12.7768 20.1558 12.7724 20.1521 12.7687C20.1484 12.765 20.144 12.7621 20.1392 12.7601C20.1344 12.7581 20.1292 12.7571 20.124 12.7571H18.9818C18.9766 12.7571 18.9715 12.7581 18.9666 12.7601C18.9618 12.7621 18.9574 12.765 18.9538 12.7687C18.9501 12.7724 18.9471 12.7768 18.9451 12.7816C18.9431 12.7864 18.9421 12.7916 18.9421 12.7968V19.4676C18.9421 19.4781 18.9463 19.4882 18.9538 19.4956C18.9612 19.5031 18.9713 19.5073 18.9818 19.5073H20.1051C20.1157 19.5073 20.1258 19.5031 20.1332 19.4956C20.1407 19.4882 20.1449 19.4781 20.1449 19.4676V18.9476C20.3872 19.3394 20.8724 19.619 21.506 19.619C22.8116 19.619 23.6692 18.5841 23.6692 17.1951C23.6692 15.8335 22.897 14.7971 21.5542 14.7971ZM21.2855 18.5215C20.6608 18.5215 20.129 18.0364 20.129 17.2066C20.129 16.3678 20.6608 15.901 21.2855 15.901C21.9197 15.901 22.4232 16.3678 22.4232 17.2066C22.4232 18.0453 21.9202 18.5215 21.2855 18.5215Z" fill="white"/>
<path d="M31.3069 18.4455C31.1957 18.4632 31.0833 18.472 30.9707 18.4719C30.6167 18.4719 30.43 18.3413 30.43 17.9405V16.0202H31.3134C31.3239 16.0202 31.334 16.016 31.3415 16.0085C31.3489 16.0011 31.3531 15.991 31.3531 15.9805V14.9595C31.3531 14.9489 31.3489 14.9388 31.3415 14.9314C31.334 14.9239 31.3239 14.9197 31.3134 14.9197H30.4304V13.5889C30.4304 13.5783 30.4263 13.5682 30.4188 13.5608C30.4114 13.5533 30.4013 13.5491 30.3907 13.5491H29.2441C29.2335 13.5491 29.2234 13.5533 29.216 13.5608C29.2085 13.5682 29.2044 13.5783 29.2044 13.5889V14.9197H28.4098C28.3993 14.9197 28.3892 14.9239 28.3817 14.9314C28.3743 14.9388 28.3701 14.9489 28.3701 14.9595V15.9805C28.3701 15.991 28.3743 16.0011 28.3817 16.0085C28.3892 16.016 28.3993 16.0202 28.4098 16.0202H29.1999V18.1555C29.1999 19.0415 29.7595 19.5728 30.6544 19.5728C30.9916 19.5728 31.2086 19.5167 31.3273 19.4735C31.3351 19.4706 31.3417 19.4653 31.3464 19.4585C31.3511 19.4517 31.3537 19.4436 31.3536 19.4353V18.4848C31.3536 18.479 31.3524 18.4732 31.3499 18.4679C31.3475 18.4627 31.3439 18.458 31.3395 18.4542C31.335 18.4505 31.3298 18.4478 31.3242 18.4463C31.3185 18.4448 31.3127 18.4445 31.3069 18.4455Z" fill="white"/>
<path d="M41.9602 12.7571H40.8056C40.8004 12.7571 40.7952 12.7581 40.7904 12.7601C40.7856 12.7621 40.7812 12.765 40.7775 12.7687C40.7738 12.7724 40.7709 12.7768 40.7689 12.7816C40.7669 12.7864 40.7659 12.7916 40.7659 12.7968V15.3791C40.6353 15.1368 40.2623 14.8105 39.4703 14.8105C38.1741 14.8105 37.2693 15.8643 37.2693 17.2066C37.2693 18.597 38.202 19.6215 39.5075 19.6215C40.1228 19.6215 40.5891 19.3419 40.7942 18.9784V19.47C40.7942 19.4753 40.7952 19.4804 40.7972 19.4852C40.7992 19.4901 40.8021 19.4944 40.8058 19.4981C40.8095 19.5018 40.8139 19.5047 40.8187 19.5067C40.8235 19.5087 40.8287 19.5098 40.8339 19.5098H41.9577C41.9629 19.5098 41.9681 19.5087 41.9729 19.5067C41.9777 19.5047 41.9821 19.5018 41.9858 19.4981C41.9895 19.4944 41.9924 19.4901 41.9944 19.4852C41.9964 19.4804 41.9974 19.4753 41.9974 19.47V12.7968C41.9974 12.7867 41.9936 12.7769 41.9867 12.7695C41.9798 12.7622 41.9703 12.7577 41.9602 12.7571ZM39.6565 18.5215C39.004 18.5215 38.5183 18.0249 38.5183 17.2041C38.5183 16.3832 39.0218 15.908 39.656 15.908C40.2901 15.908 40.7981 16.3743 40.7981 17.1951C40.7991 18.0249 40.2906 18.5215 39.6565 18.5215Z" fill="white"/>
<path d="M34.252 14.7802C33.0775 14.7802 31.9959 15.7312 31.9959 17.1951C31.9959 18.7425 33.1053 19.6468 34.3642 19.6468C35.3033 19.6468 35.9647 19.188 36.2945 18.5767C36.297 18.5718 36.2986 18.5664 36.2989 18.5609C36.2993 18.5554 36.2985 18.5499 36.2967 18.5447C36.2948 18.5396 36.2919 18.5348 36.2881 18.5308C36.2843 18.5268 36.2797 18.5237 36.2746 18.5216L35.345 18.1178C35.3363 18.1139 35.3265 18.1133 35.3174 18.1161C35.3083 18.1188 35.3004 18.1247 35.2953 18.1327C35.118 18.4068 34.8255 18.5841 34.3731 18.5841C33.7574 18.5841 33.2449 18.1461 33.2166 17.5413H36.4613C36.4713 17.5414 36.481 17.5378 36.4884 17.531C36.4958 17.5243 36.5003 17.515 36.5011 17.505C36.506 17.4385 36.5174 17.296 36.5174 17.1574C36.5179 15.6845 35.6693 14.7802 34.252 14.7802ZM33.2454 16.6916C33.2732 16.272 33.6278 15.7873 34.2709 15.7873C34.9795 15.7873 35.2779 16.2342 35.2963 16.6916H33.2454Z" fill="white"/>
<path d="M26.6275 16.7154L25.9745 16.5759C25.7227 16.5292 25.5554 16.4026 25.5554 16.1786C25.5554 15.9174 25.8161 15.7217 26.1423 15.7217C26.5893 15.7217 26.7973 15.975 26.8708 16.2183C26.8725 16.2232 26.875 16.2278 26.8784 16.2316C26.8818 16.2355 26.8859 16.2387 26.8905 16.241C26.8951 16.2434 26.9002 16.2447 26.9053 16.2451C26.9104 16.2455 26.9156 16.2448 26.9205 16.2432L27.8447 15.8851C27.8543 15.8815 27.8621 15.8743 27.8665 15.865C27.8708 15.8558 27.8714 15.8451 27.868 15.8355C27.7041 15.3572 27.219 14.7807 26.1299 14.7807C25.1412 14.7807 24.4142 15.461 24.4142 16.2819C24.4142 16.9275 24.8149 17.4737 25.7009 17.6724L26.3067 17.8119C26.6613 17.8864 26.8033 18.0364 26.8033 18.2415C26.8033 18.4843 26.6076 18.6983 26.1975 18.6983C25.678 18.6983 25.4079 18.3885 25.3627 18.0418C25.362 18.0362 25.3602 18.0307 25.3572 18.0259C25.3542 18.021 25.3503 18.0169 25.3455 18.0137C25.3408 18.0105 25.3355 18.0084 25.3298 18.0076C25.3242 18.0067 25.3185 18.007 25.313 18.0086L24.3317 18.2236C24.322 18.2256 24.3135 18.2313 24.3077 18.2394C24.302 18.2475 24.2996 18.2575 24.3009 18.2673C24.3744 18.7937 24.8591 19.6483 26.2079 19.6483C27.4107 19.6483 27.9887 18.8841 27.9887 18.1382C27.9912 17.4653 27.5318 16.9021 26.6275 16.7154Z" fill="white"/>
<path d="M10.2415 18.0875L9.22598 17.7488C9.21591 17.746 9.20513 17.7471 9.19588 17.752C9.18664 17.7569 9.17963 17.7652 9.17632 17.7751C9.0626 18.1228 8.74577 18.5096 8.13347 18.5096C7.49982 18.5096 6.95903 18.0433 6.95903 17.2135C6.95903 16.3837 7.48989 15.9268 8.12602 15.9268C8.6539 15.9268 8.94094 16.2153 9.08296 16.5386C9.08683 16.548 9.09416 16.5555 9.10341 16.5595C9.11266 16.5636 9.12312 16.5639 9.13262 16.5605L10.173 16.2014C10.1828 16.198 10.1909 16.1909 10.1955 16.1817C10.2002 16.1724 10.201 16.1617 10.1978 16.1518C9.94455 15.4412 9.25429 14.7812 8.09822 14.7812C6.76486 14.7812 5.72102 15.7972 5.72102 17.2145C5.72102 18.6223 6.78373 19.6478 8.13546 19.6478C9.33772 19.6478 10.0518 18.8895 10.2708 18.1372C10.2724 18.132 10.2729 18.1265 10.2722 18.1211C10.2715 18.1158 10.2698 18.1106 10.267 18.1059C10.2643 18.1013 10.2606 18.0972 10.2562 18.094C10.2518 18.0909 10.2468 18.0886 10.2415 18.0875Z" fill="white"/>
<path d="M3.16529 15.6358L2.23864 15.4575C1.75149 15.3642 1.51759 15.0742 1.51759 14.7087C1.51759 14.2687 1.92976 13.8645 2.55696 13.8645C3.29887 13.8645 3.61918 14.3069 3.72992 14.662C3.73151 14.6673 3.73414 14.6723 3.73764 14.6766C3.74115 14.6809 3.74548 14.6844 3.75037 14.6871C3.75526 14.6897 3.76062 14.6913 3.76614 14.6919C3.77166 14.6924 3.77724 14.6919 3.78256 14.6903L4.86216 14.3541C4.87233 14.351 4.88096 14.3441 4.8863 14.3349C4.89164 14.3257 4.8933 14.3148 4.89096 14.3044C4.69232 13.5799 4.05817 12.7238 2.54753 12.7238C1.29313 12.7238 0.235381 13.6221 0.235381 14.802C0.235381 15.8037 0.918696 16.487 1.97644 16.7025L2.90309 16.8897C3.41806 16.993 3.70708 17.2925 3.70708 17.6773C3.70708 18.1456 3.32321 18.4917 2.63095 18.4917C1.75298 18.4917 1.29611 17.9733 1.1958 17.3684C1.19495 17.3626 1.19287 17.357 1.1897 17.352C1.18654 17.3471 1.18235 17.3428 1.17743 17.3396C1.1725 17.3363 1.16694 17.3342 1.16112 17.3333C1.1553 17.3323 1.14935 17.3326 1.14365 17.3342L0.0322742 17.6356C0.0215693 17.6381 0.0122784 17.6447 0.00642029 17.654C0.0005622 17.6633 -0.00138971 17.6745 0.000988737 17.6853C0.15394 18.6045 0.936077 19.6448 2.62301 19.6448C4.16742 19.6448 5.01958 18.6149 5.01958 17.5944C5.01908 16.6558 4.37301 15.8697 3.16529 15.6358Z" fill="white"/>
</svg>
