<svg width="32" height="32" viewBox="0 0 32 32" fill="none" xmlns="http://www.w3.org/2000/svg">
<path d="M9.00049 22.9988L23.0005 8.99878" stroke="#47474F" stroke-width="2" stroke-linecap="round" stroke-linejoin="round"/>
<path d="M10.3139 16.0282C9.4752 15.9799 8.63579 16.1093 7.85064 16.408C7.06549 16.7067 6.35232 17.168 5.75786 17.7615L2.75786 20.7615C1.63263 21.8867 1.00049 23.4129 1.00049 25.0042C1.00049 25.7921 1.15568 26.5723 1.45721 27.3003C1.75874 28.0283 2.2007 28.6897 2.75786 29.2468C3.31501 29.804 3.97645 30.246 4.70441 30.5475C5.43237 30.849 6.21259 31.0042 7.00052 31.0042C8.59183 31.0042 10.118 30.3721 11.2432 29.2468L14.2432 26.2469C14.8367 25.6524 15.298 24.9392 15.5967 24.1541C15.8915 23.3792 16.0214 22.5514 15.9783 21.7237" stroke="#47474F" stroke-width="2" stroke-linecap="round" stroke-linejoin="round"/>
<path d="M16.0311 10.3053C15.9822 9.46716 16.1107 8.62813 16.4082 7.84304C16.7058 7.05796 17.1657 6.3445 17.7578 5.74931L20.7578 2.74931C21.883 1.62409 23.4092 0.991943 25.0005 0.991943C26.5918 0.991943 28.1179 1.62409 29.2431 2.74931C30.3684 3.87454 31.0005 5.40067 31.0005 6.99198C31.0005 8.58329 30.3684 10.1094 29.2431 11.2346L26.2431 14.2346C25.6486 14.8281 24.9355 15.2893 24.1503 15.588C23.5316 15.8234 22.8792 15.9537 22.2201 15.9748" stroke="#47474F" stroke-width="2" stroke-linecap="round" stroke-linejoin="round"/>
</svg>
