<svg width="42" height="28" viewBox="0 0 42 28" fill="none" xmlns="http://www.w3.org/2000/svg">
<path d="M37.5711 3H38.5711C38.5711 2.44772 38.1234 2 37.5711 2V3ZM32.4283 3V2C32.1284 2 31.8443 2.13463 31.6543 2.36676L32.4283 3ZM24.7141 12.4285V13.4285C25.014 13.4285 25.2981 13.2939 25.488 13.0617L24.7141 12.4285ZM19.1427 12.4285L18.2852 12.943C18.4659 13.2442 18.7914 13.4285 19.1427 13.4285V12.4285ZM18.7145 9.77117C18.4303 9.29759 17.8161 9.14402 17.3425 9.42817C16.8689 9.71232 16.7153 10.3266 16.9995 10.8002L18.7145 9.77117ZM37.5711 18.8571V19.8571C38.1234 19.8571 38.5711 19.4094 38.5711 18.8571H37.5711ZM33.2854 18.8571L32.3716 19.2633C32.5321 19.6244 32.8903 19.8571 33.2854 19.8571V18.8571ZM31.5712 15L31.5712 14C31.2326 14 30.9171 14.1713 30.7327 14.4551C30.5482 14.7389 30.5199 15.0968 30.6574 15.4061L31.5712 15ZM9.99984 12.4286C9.99984 12.9809 10.4476 13.4286 10.9998 13.4286C11.5521 13.4286 11.9998 12.9809 11.9998 12.4286H9.99984ZM21.895 5.24152L20.972 5.62649L20.972 5.62649L21.895 5.24152ZM24.714 12H25.714V11.7998L25.637 11.6151L24.714 12ZM23.714 18.4285C23.714 18.9808 24.1617 19.4285 24.714 19.4285C25.2663 19.4285 25.714 18.9808 25.714 18.4285H23.714ZM13.5713 13.4285C14.1236 13.4285 14.5713 12.9808 14.5713 12.4285C14.5713 11.8762 14.1236 11.4285 13.5713 11.4285V13.4285ZM6.90734 15.6651L6.13268 16.2974L6.90734 15.6651ZM8.3885 19.0608C8.73775 19.4886 9.3677 19.5523 9.79553 19.2031C10.2234 18.8538 10.2871 18.2239 9.93782 17.7961L8.3885 19.0608ZM8.42855 19.4285H25.5713V17.4285H8.42855V19.4285ZM8.42855 26.2856H25.5713V24.2856H8.42855V26.2856ZM25.5713 26.2856C28.0171 26.2856 29.9998 24.3028 29.9998 21.857H27.9998C27.9998 23.1983 26.9125 24.2856 25.5713 24.2856V26.2856ZM4 21.857C4 24.3028 5.98273 26.2856 8.42855 26.2856V24.2856C7.0873 24.2856 6 23.1983 6 21.857H4ZM25.5713 19.4285C26.9125 19.4285 27.9998 20.5158 27.9998 21.857H29.9998C29.9998 19.4112 28.0171 17.4285 25.5713 17.4285V19.4285ZM8.42855 17.4285C5.98273 17.4285 4 19.4112 4 21.857H6C6 20.5158 7.0873 19.4285 8.42855 19.4285V17.4285ZM37.5711 2H32.4283V4H37.5711V2ZM31.6543 2.36676L23.9401 11.7953L25.488 13.0617L33.2023 3.63324L31.6543 2.36676ZM36.5711 3V14.9999H38.5711V3H36.5711ZM24.7141 11.4285H19.1427V13.4285H24.7141V11.4285ZM20.0002 11.914L18.7145 9.77117L16.9995 10.8002L18.2852 12.943L20.0002 11.914ZM36.5711 14.9999V18.8571H38.5711V14.9999H36.5711ZM37.5711 17.8571H33.2854V19.8571H37.5711V17.8571ZM34.1993 18.451L32.485 14.5939L30.6574 15.4061L32.3716 19.2633L34.1993 18.451ZM31.5712 16L37.5711 15.9999L37.5711 13.9999L31.5712 14L31.5712 16ZM11.9998 12.4286V5.57149H9.99984V12.4286H11.9998ZM20.972 5.62649L23.7911 12.385L25.637 11.6151L22.8179 4.85656L20.972 5.62649ZM23.714 12V18.4285H25.714V12H23.714ZM21.1039 5.71436C21.0462 5.71436 20.9942 5.6797 20.972 5.62649L22.8179 4.85656C22.5294 4.16485 21.8534 3.71436 21.1039 3.71436V5.71436ZM11.9998 5.57149C11.9998 5.65039 11.9359 5.71436 11.857 5.71436V3.71436C10.8313 3.71436 9.99984 4.54582 9.99984 5.57149H11.9998ZM7.71419 15.123V12.857H5.71419V15.123H7.71419ZM7.14276 13.4285H13.5713V11.4285H7.14276V13.4285ZM6.13268 16.2974L8.3885 19.0608L9.93782 17.7961L7.682 15.0327L6.13268 16.2974ZM7.71419 12.857C7.71419 13.1726 7.45836 13.4285 7.14276 13.4285V11.4285C6.35379 11.4285 5.71419 12.0681 5.71419 12.857H7.71419ZM5.71419 15.123C5.71419 15.551 5.86202 15.9659 6.13268 16.2974L7.682 15.0327C7.70282 15.0582 7.71419 15.0901 7.71419 15.123H5.71419ZM11.857 5.71436H21.1039V3.71436H11.857V5.71436Z" fill="#47474F"/>
</svg>
