<svg width="32" height="32" viewBox="0 0 32 32" fill="none" xmlns="http://www.w3.org/2000/svg">
<path d="M24.6666 12.3333H28.9999C29.5304 12.3333 30.0391 12.544 30.4141 12.919C30.7892 13.2941 30.9999 13.8028 30.9999 14.3333V18.3333C30.9999 18.8637 30.7892 19.3724 30.4141 19.7475C30.0391 20.1225 29.5304 20.3333 28.9999 20.3333H16.707" stroke="#47474F" stroke-width="2" stroke-linecap="round" stroke-linejoin="round"/>
<path d="M7 20.3333H5V12.3333H14.9405" stroke="#47474F" stroke-width="2" stroke-linecap="round" stroke-linejoin="round"/>
<path d="M1 12.3333V20.3333" stroke="#47474F" stroke-width="2" stroke-linecap="round" stroke-linejoin="round"/>
<path d="M1 31L31 1" stroke="#47474F" stroke-width="2" stroke-linecap="round" stroke-linejoin="round"/>
<path d="M1 7.00005C1 6.46962 1.21071 5.96091 1.58579 5.58584C1.96086 5.21077 2.46957 5.00005 3 5.00005C4.06087 5.00005 5.07828 4.57863 5.82843 3.82848C6.54035 3.11656 6.9562 2.16392 6.99673 1.16187" stroke="#47474F" stroke-width="2" stroke-linecap="round" stroke-linejoin="round"/>
</svg>
