<svg width="24" height="24" viewBox="0 0 24 24" fill="none" xmlns="http://www.w3.org/2000/svg"><path d="M8.625 6.75a1.125 1.125 0 1 0 0-2.25 1.125 1.125 0 0 0 0 2.25ZM15.375 6.75a1.125 1.125 0 1 0 0-2.25 1.125 1.125 0 0 0 0 2.25ZM8.625 13.125a1.125 1.125 0 1 0 0-2.25 1.125 1.125 0 0 0 0 2.25ZM15.375 13.125a1.125 1.125 0 1 0 0-2.25 1.125 1.125 0 0 0 0 2.25ZM8.625 19.5a1.125 1.125 0 1 0 0-2.25 1.125 1.125 0 0 0 0 2.25ZM15.375 19.5a1.125 1.125 0 1 0 0-2.25 1.125 1.125 0 0 0 0 2.25Z" fill="#1B1B1F"/></svg>