<svg width="32" height="32" viewBox="0 0 32 32" fill="none" xmlns="http://www.w3.org/2000/svg">
<path d="M29.9694 29C29.9694 29.5304 29.7587 30.0391 29.3836 30.4142C29.0086 30.7893 28.4999 31 27.9694 31H4.03076C3.50033 31 2.99162 30.7893 2.61655 30.4142C2.24148 30.0391 2.03076 29.5304 2.03076 29V3C2.03076 2.46957 2.24148 1.96086 2.61655 1.58579C2.99162 1.21071 3.50033 1 4.03076 1H24.0308C24.5524 1.00005 25.0533 1.20387 25.4268 1.568L29.3668 5.412C29.5577 5.59842 29.7093 5.82116 29.8128 6.06709C29.9163 6.31302 29.9696 6.57718 29.9694 6.844V29Z" stroke="#47474F" stroke-width="2" stroke-linecap="round" stroke-linejoin="round"/>
<path d="M11.0308 13C12.6876 13 14.0308 11.6569 14.0308 10C14.0308 8.34315 12.6876 7 11.0308 7C9.37391 7 8.03076 8.34315 8.03076 10C8.03076 11.6569 9.37391 13 11.0308 13Z" stroke="#47474F" stroke-width="2" stroke-linecap="round" stroke-linejoin="round"/>
<path d="M25.3337 25.3333L19.8509 16.416C19.7293 16.2331 19.5649 16.0827 19.3719 15.9778C19.1789 15.8729 18.9632 15.8168 18.7436 15.8143C18.524 15.8118 18.3071 15.863 18.1118 15.9635C17.9164 16.0639 17.7486 16.2106 17.6229 16.3907L14.0349 21.5173L11.8109 19.7333C11.6649 19.6164 11.4962 19.531 11.3154 19.4828C11.1347 19.4346 10.9459 19.4245 10.761 19.4532C10.5762 19.482 10.3993 19.5488 10.2417 19.6496C10.0841 19.7504 9.9492 19.8829 9.84559 20.0387L6.66699 25.3333" stroke="#47474F" stroke-width="2" stroke-linecap="round" stroke-linejoin="round"/>
</svg>
