<svg width="24" height="24" viewBox="0 0 24 24" fill="none" xmlns="http://www.w3.org/2000/svg"><path d="M13.28 14.844a.75.75 0 1 0 1.06 1.062l-1.06-1.062Zm2.939-1.875.53.531-.53-.53Zm1.06 0 .53-.53-.53.53Zm3.19 4.254a.75.75 0 0 0 1.061-1.06l-1.06 1.06Zm-18-1.939a.75.75 0 0 0 1.061 1.061l-1.06-1.06Zm5.625-4.565.53.53h.001l-.53-.53Zm1.062 0-.531.53.53-.53Zm8.249 9.311a.75.75 0 0 0 1.06-1.06l-1.06 1.06ZM3.75 4.5v.75h16.5v-1.5H3.75v.75Zm16.5 0v.75h1.5a1.5 1.5 0 0 0-1.5-1.5v.75Zm.75.75h-.75v13.5h1.5V5.25H21Zm0 13.5h-.75v1.5a1.5 1.5 0 0 0 1.5-1.5H21Zm-.75.75v-.75H3.75v1.5h16.5v-.75Zm-16.5 0v-.75h-1.5a1.5 1.5 0 0 0 1.5 1.5v-.75ZM3 18.75h.75V5.25h-1.5v13.5H3Zm0-13.5h.75v-1.5a1.5 1.5 0 0 0-1.5 1.5H3Zm12.75 4.125H15a.375.375 0 0 1-.375.375v1.5c1.036 0 1.875-.84 1.875-1.875h-.75ZM14.625 10.5v-.75a.375.375 0 0 1-.375-.375h-1.5c0 1.036.84 1.875 1.875 1.875v-.75ZM13.5 9.375h.75c0-.207.168-.375.375-.375V7.5c-1.036 0-1.875.84-1.875 1.875h.75Zm1.125-1.125V9c.207 0 .375.168.375.375h1.5c0-1.036-.84-1.875-1.875-1.875v.75Zm-.815 7.125.53.53L16.75 13.5l-.53-.53-.53-.531-2.409 2.405.53.531Zm2.409-2.406.53.53V12a1.5 1.5 0 0 0-1.06.44l.53.53Zm.53-.22v.75l.53-.53.53-.53a1.5 1.5 0 0 0-1.06-.44v.75Zm.53.22-.53.53 3.72 3.724.531-.53.53-.53-3.72-3.724-.53.53ZM3 15.815l.53.53 5.095-5.095-.53-.53-.531-.53-5.094 5.094.53.53Zm5.094-5.096.531.53-.287-.692-.287-.693a1.501 1.501 0 0 0-.487.325l.53.53Zm.244-.162.287.692v-1.5a1.5 1.5 0 0 0-.574.115l.287.693Zm.287-.058v.75l.287-.692.287-.693a1.5 1.5 0 0 0-.574-.115v.75Zm.287.058-.287.692.53-.53.531-.53c-.14-.14-.304-.25-.487-.325l-.287.693Zm.244.162-.53.53 8.779 8.781.53-.53.53-.53-8.779-8.78-.53.53Z" fill="#1B1B1F"/></svg>