<svg width="32" height="32" viewBox="0 0 32 32" fill="none" xmlns="http://www.w3.org/2000/svg">
<path d="M1.00098 22.2133L9.49831 31H22.5036L31.001 22.2133V9.78667L22.5036 1H9.49831L1.00098 9.78667V22.2133Z" stroke="#47474F" stroke-width="2" stroke-linecap="round" stroke-linejoin="round"/>
<path d="M16.001 22.7974C15.8684 22.7974 15.7412 22.7447 15.6474 22.6509C15.5537 22.5571 15.501 22.43 15.501 22.2974C15.501 22.1648 15.5537 22.0376 15.6474 21.9438C15.7412 21.85 15.8684 21.7974 16.001 21.7974" stroke="#47474F" stroke-width="2" stroke-linecap="round" stroke-linejoin="round"/>
<path d="M16.001 22.7974C16.1336 22.7974 16.2608 22.7447 16.3545 22.6509C16.4483 22.5571 16.501 22.43 16.501 22.2974C16.501 22.1648 16.4483 22.0376 16.3545 21.9438C16.2608 21.85 16.1336 21.7974 16.001 21.7974" stroke="#47474F" stroke-width="2" stroke-linecap="round" stroke-linejoin="round"/>
<path d="M16.001 17.7974V6.79736" stroke="#47474F" stroke-width="2" stroke-miterlimit="10" stroke-linecap="round" stroke-linejoin="round"/>
</svg>
