<svg width="24" height="24" viewBox="0 0 24 24" fill="none" xmlns="http://www.w3.org/2000/svg">
  <path d="M16.846 8.04h.75-.75ZM12 15.96l-.383.645c.236.14.53.14.766 0L12 15.96ZM12 3v-.75V3Zm6.5 11.102a.75.75 0 1 0-.538 1.4l.269-.7.269-.7Zm-12.462 1.4a.75.75 0 0 0-.538-1.4l.27.7.268.7Zm7.347-7.462h-.75c0 .41-.312.69-.635.69v1.5c1.206 0 2.135-1.009 2.135-2.19h-.75ZM12 9.48v-.75c-.323 0-.635-.281-.635-.69h-1.5c0 1.181.929 2.19 2.135 2.19v-.75Zm-1.385-1.44h.75c0-.41.312-.69.635-.69v-1.5c-1.206 0-2.135 1.008-2.135 2.19h.75ZM12 6.6v.75c.323 0 .635.28.635.69h1.5c0-1.182-.929-2.19-2.135-2.19v.75Zm4.846 1.44h-.75c0 2.268-1.09 4.077-2.231 5.349a11.684 11.684 0 0 1-1.565 1.447 9.667 9.667 0 0 1-.645.455l-.032.02a.26.26 0 0 0-.007.005l.384.644c.383.645.383.645.384.644l.002-.001.005-.003.014-.009a4.146 4.146 0 0 0 .22-.141 11.2 11.2 0 0 0 .589-.424 13.19 13.19 0 0 0 1.767-1.635c1.282-1.428 2.615-3.579 2.615-6.351h-.75ZM12 15.96l.384-.645a.26.26 0 0 0-.007-.003l-.032-.02a9.667 9.667 0 0 1-.645-.455 11.684 11.684 0 0 1-1.565-1.448c-1.142-1.272-2.231-3.081-2.231-5.349h-1.5c0 2.772 1.333 4.923 2.615 6.35a13.187 13.187 0 0 0 1.767 1.636 11.2 11.2 0 0 0 .809.566l.014.008.005.003.002.001.384-.644ZM7.154 8.04h.75c0-1.147.438-2.242 1.21-3.044l-.54-.52-.541-.52a5.894 5.894 0 0 0-1.63 4.084h.75Zm1.42-3.564.54.52A4.004 4.004 0 0 1 12 3.75v-1.5c-1.494 0-2.92.617-3.967 1.706l.54.52ZM12 3v.75c1.077 0 2.116.445 2.886 1.246l.54-.52.541-.52A5.504 5.504 0 0 0 12 2.25V3Zm3.427 1.476-.54.52a4.394 4.394 0 0 1 1.21 3.044h1.5a5.894 5.894 0 0 0-1.63-4.084l-.54.52Zm2.804 10.327-.269.7c.801.307 1.4.66 1.786 1.014.385.354.502.653.502.883h1.5c0-.79-.415-1.462-.987-1.988-.573-.526-1.358-.962-2.263-1.31l-.27.7ZM21 17.4h-.75c0 .224-.11.514-.473.856-.363.344-.93.688-1.692.993-1.52.608-3.67 1.001-6.085 1.001v1.5c2.556 0 4.905-.413 6.643-1.108.866-.347 1.618-.778 2.165-1.296.549-.519.942-1.176.942-1.946H21ZM12 21v-.75c-2.414 0-4.566-.393-6.085-1-.763-.306-1.329-.65-1.692-.994-.362-.342-.473-.632-.473-.856h-1.5c0 .77.393 1.427.942 1.946.547.518 1.299.95 2.165 1.296 1.738.695 4.087 1.108 6.643 1.108V21Zm-9-3.6h.75c0-.23.117-.53.502-.883.386-.355.985-.707 1.786-1.014l-.269-.7-.269-.7c-.905.347-1.69.784-2.263 1.309-.572.526-.987 1.197-.987 1.988H3Z" fill="#1B1B1F"/>
</svg>
