<svg width="24" height="24" viewBox="0 0 24 24" fill="none" xmlns="http://www.w3.org/2000/svg">
  <path d="M17.25 7.5H18h-.75ZM12 15.75l-.372.651a.75.75 0 0 0 .744 0L12 15.75Zm0-13.5V1.5v.75Zm7.01 11.59a.75.75 0 0 0-.52 1.408l.52-1.407Zm-13.5 1.408a.75.75 0 1 0-.52-1.407l.52 1.407ZM13.5 7.5h-.75a.75.75 0 0 1-.75.75v1.5a2.25 2.25 0 0 0 2.25-2.25h-.75ZM12 9v-.75a.75.75 0 0 1-.75-.75h-1.5A2.25 2.25 0 0 0 12 9.75V9Zm-1.5-1.5h.75a.75.75 0 0 1 .75-.75v-1.5A2.25 2.25 0 0 0 9.75 7.5h.75ZM12 6v.75a.75.75 0 0 1 .75.75h1.5A2.25 2.25 0 0 0 12 5.25V6Zm5.25 1.5h-.75c0 2.363-1.18 4.25-2.423 5.582a12.54 12.54 0 0 1-2.257 1.898 6.61 6.61 0 0 1-.185.115l-.007.004h-.001l.373.651c.372.651.372.651.373.65h.002a.184.184 0 0 0 .005-.003l.015-.01a4.855 4.855 0 0 0 .236-.145 14.042 14.042 0 0 0 2.542-2.136C16.556 12.623 18 10.386 18 7.5h-.75ZM12 15.75c.372-.651.372-.651.373-.65v-.001l-.008-.004a3.786 3.786 0 0 1-.185-.115 12.54 12.54 0 0 1-2.257-1.898C8.681 11.751 7.5 9.862 7.5 7.5H6c0 2.887 1.444 5.124 2.827 6.605a14.04 14.04 0 0 0 2.542 2.137 7.875 7.875 0 0 0 .236.146l.015.009a.184.184 0 0 0 .005.003h.002l.373-.65ZM6.75 7.5h.75a4.5 4.5 0 0 1 1.318-3.182l-.53-.53-.53-.53A6 6 0 0 0 6 7.5h.75Zm1.538-3.712.53.53A4.5 4.5 0 0 1 12 3V1.5a6 6 0 0 0-4.243 1.757l.53.53ZM12 2.25V3a4.5 4.5 0 0 1 3.182 1.318l.53-.53.53-.53A6 6 0 0 0 12 1.5v.75Zm3.712 1.538-.53.53A4.5 4.5 0 0 1 16.5 7.5H18a6 6 0 0 0-1.757-4.243l-.53.53Zm3.038 10.756-.26.704c.874.323 1.532.693 1.957 1.069.426.376.553.694.553.933h1.5c0-.823-.449-1.518-1.06-2.058-.613-.54-1.456-.991-2.43-1.351l-.26.703Zm3 2.706H21c0 .234-.12.54-.52.905-.401.364-1.023.727-1.855 1.047-1.658.638-4 1.048-6.625 1.048v1.5c2.76 0 5.293-.429 7.164-1.148.932-.359 1.738-.805 2.324-1.337.587-.534 1.012-1.213 1.012-2.015h-.75ZM12 21v-.75c-2.625 0-4.967-.41-6.625-1.048-.832-.32-1.454-.683-1.854-1.047-.4-.364-.521-.671-.521-.905H1.5c0 .802.425 1.482 1.012 2.015.586.532 1.392.978 2.324 1.337C6.706 21.32 9.24 21.75 12 21.75V21Zm-9.75-3.75H3c0-.24.127-.557.553-.933.425-.376 1.083-.746 1.957-1.069l-.26-.704-.26-.703c-.974.36-1.817.81-2.43 1.351-.611.54-1.06 1.235-1.06 2.058h.75Z" fill="#1B1B1F"/>
</svg>
