<svg width="42" height="28" viewBox="0 0 42 28" fill="none" xmlns="http://www.w3.org/2000/svg"><path d="M31.04 8.915v-.001c0 .37-.155 1.07-.253 1.588-.084.443-.2 1.041-.934 1.041-1.513 0-1.305-1.98-2.535-1.98-.508 0-.808.39-.808.877 0 .365.217.706.55.958l1.223.947c1.022.725 1.437 1.689 1.437 2.434 0 1.402-1.188 2.448-2.62 2.448h-3.038c-1.146 0-1.724-.358-2.056-1.2-.087-.252-.557-1.488-.557-1.923 0-.656.44-1.163 1.113-1.163 1.293 0 1.859 1.98 2.923 1.98.418 0 .728-.372.728-.758 0-.287-.18-.597-.513-.85l-1.064-.863c-.89-.694-1.396-1.493-1.396-2.345 0-1.56 1.199-2.976 3.057-2.976h3.053c.982 0 1.69.896 1.69 1.786Zm-10.595 4.692c0 .678.31 1.45.31 2.145 0 .758-.587 1.475-1.45 1.475-1.082 0-1.08-1.057-1.675-1.057s-.638 1.185-2.52 1.185c-1.883 0-3.963-2.058-3.963-4.835 0-2.778 1.78-5.263 4.543-5.263 1.58 0 2.155.99 2.699.99.708 0 .718-1.247 1.997-1.247.802 0 1.434.685 1.434 1.495 0 1.294-1.375 3.24-1.375 5.112Zm-2.604-1.3c0-1.075-.847-1.946-1.892-1.946s-1.892.871-1.892 1.945c0 1.075.847 1.946 1.892 1.946s1.892-.871 1.892-1.946Zm22.784 1.3c0 .678.31 1.451.31 2.146 0 .757-.587 1.474-1.45 1.474-1.082 0-1.08-1.057-1.675-1.057s-.638 1.185-2.52 1.185c-1.884 0-3.964-2.057-3.964-4.835 0-2.777 1.781-5.263 4.544-5.263 1.58 0 2.155.99 2.699.99.708 0 .717-1.247 1.997-1.247C41.368 7 42 7.685 42 8.495c0 1.294-1.375 3.24-1.375 5.112Zm-2.604-1.3c0-1.075-.848-1.946-1.892-1.946-1.045 0-1.892.871-1.892 1.946 0 1.074.847 1.945 1.892 1.945 1.044 0 1.892-.87 1.892-1.945ZM10.906 8.516c0 .66-.394 1.668-.915 3.807-.52 2.14-.821 3.293-.821 4.353 0 1.06.48 1.722.48 2.645S8.917 21 8.2 21H6.942c-.814 0-1.429-.898-1.429-1.68 0-1.35 1.415-1.756 1.415-2.61 0-.357-.244-.668-.597-.668-.672 0-.825.928-2.343.928C2.098 16.97 0 15.1 0 12.261c0-2.838 2.23-5.004 4.584-5.004 1.7 0 2.124.99 2.812.99C8.128 8.247 8.222 7 9.433 7a1.5 1.5 0 0 1 1.473 1.516Zm-3.975 3.79c0-1.074-.847-1.945-1.892-1.945s-1.892.871-1.892 1.945c0 1.075.847 1.946 1.892 1.946s1.892-.871 1.892-1.946Z" fill="#342620"/></svg>