<svg width="42" height="28" viewBox="0 0 42 28" fill="none" xmlns="http://www.w3.org/2000/svg">
<path d="M21.7431 20.3256C21.6953 19.9122 21.8081 19.4962 22.058 19.1634C22.3079 18.8306 22.676 18.6064 23.0864 18.537C23.7648 18.4336 24.3933 18.119 24.8826 17.6379C26.4697 16.0519 26.0742 13.0814 23.9953 11.0046C21.9164 8.92786 18.9481 8.53028 17.3621 10.1174C16.8809 10.6066 16.5663 11.2352 16.4629 11.9135C16.3935 12.3239 16.1693 12.692 15.8365 12.9419C15.5038 13.1919 15.0878 13.3046 14.6743 13.2569C13.9001 13.1383 13.109 13.1985 12.3617 13.4329C11.6144 13.6672 10.9306 14.0695 10.3627 14.6089C8.14179 16.8297 8.58595 20.8749 11.3582 23.6417C14.1305 26.4085 18.1735 26.8549 20.3943 24.634C20.9327 24.0662 21.334 23.3828 21.5678 22.6361C21.8016 21.8893 21.8615 21.0991 21.7431 20.3256Z" stroke="#47474F" stroke-width="2" stroke-linecap="round" stroke-linejoin="round"/>
<path d="M29.7406 2.96204L28.017 4.68561C27.3824 5.32021 27.3824 6.3491 28.017 6.98371C28.6516 7.61831 29.6805 7.61831 30.3151 6.98371L32.0387 5.26013C32.6733 4.62553 32.6733 3.59664 32.0387 2.96204C31.404 2.32743 30.3752 2.32743 29.7406 2.96204Z" stroke="#47474F" stroke-width="2" stroke-linecap="round" stroke-linejoin="round"/>
<path d="M28.017 6.98315L23.9956 11.0045" stroke="#47474F" stroke-width="2" stroke-linecap="round" stroke-linejoin="round"/>
<path d="M28.5908 1.8125L29.7402 2.96192" stroke="#47474F" stroke-width="2" stroke-linecap="round" stroke-linejoin="round"/>
<path d="M32.0381 5.25977L33.1875 6.40918" stroke="#47474F" stroke-width="2" stroke-linecap="round" stroke-linejoin="round"/>
<path d="M30.3145 6.98315L31.4639 8.13257" stroke="#47474F" stroke-width="2" stroke-linecap="round" stroke-linejoin="round"/>
<path d="M26.8672 3.53613L28.0167 4.68555" stroke="#47474F" stroke-width="2" stroke-linecap="round" stroke-linejoin="round"/>
<path d="M19.9731 16.6521C20.8706 16.6521 21.5981 15.9246 21.5981 15.0271C21.5981 14.1296 20.8706 13.4021 19.9731 13.4021C19.0756 13.4021 18.3481 14.1296 18.3481 15.0271C18.3481 15.9246 19.0756 16.6521 19.9731 16.6521Z" stroke="#47474F" stroke-width="2" stroke-linecap="round" stroke-linejoin="round"/>
<path d="M13.6538 19.0483L15.9516 21.3461" stroke="#47474F" stroke-width="2" stroke-linecap="round" stroke-linejoin="round"/>
<path d="M18.2831 6.69724L15.3343 3.16665C15.0112 2.76291 14.6066 2.43186 14.1469 2.19511C13.6871 1.95836 13.1827 1.82125 12.6664 1.79271C12.15 1.76418 11.6335 1.84487 11.1505 2.02952C10.6675 2.21417 10.2289 2.49862 9.86328 2.8643C9.49767 3.22998 9.21331 3.66867 9.02876 4.15171C8.84422 4.63476 8.76363 5.1513 8.79227 5.6676C8.82092 6.18391 8.95814 6.68836 9.19498 7.14803C9.43183 7.6077 9.76297 8.01224 10.1668 8.33524L12.8751 10.6092" stroke="#47474F" stroke-width="2" stroke-linecap="round" stroke-linejoin="round"/>
<path d="M25.6455 21.3071L27.511 22.8693L26.9694 23.4109C26.6645 23.7158 26.4933 24.1292 26.4933 24.5603C26.4933 24.9914 26.6645 25.4049 26.9694 25.7097C27.2742 26.0146 27.6877 26.1859 28.1188 26.1859C28.5499 26.1859 28.9633 26.0146 29.2682 25.7097L32.7154 22.2626C33.0202 21.9577 33.1915 21.5443 33.1915 21.1132C33.1915 20.6821 33.0202 20.2686 32.7154 19.9637C32.4105 19.6589 31.9971 19.4876 31.5659 19.4876C31.1348 19.4876 30.7214 19.6589 30.4165 19.9637L29.8348 20.5466L28.4351 18.875" stroke="#47474F" stroke-width="2" stroke-linecap="round" stroke-linejoin="round"/>
</svg>
