<svg width="24" height="24" viewBox="0 0 24 24" fill="none" xmlns="http://www.w3.org/2000/svg">
<path d="M21.75 18.75H11.25L5.25 23.25V18.75H2.25C1.85218 18.75 1.47064 18.592 1.18934 18.3107C0.908035 18.0294 0.75 17.6478 0.75 17.25V2.25C0.75 1.85218 0.908035 1.47064 1.18934 1.18934C1.47064 0.908035 1.85218 0.75 2.25 0.75H21.75C22.1478 0.75 22.5294 0.908035 22.8107 1.18934C23.092 1.47064 23.25 1.85218 23.25 2.25V17.25C23.25 17.6478 23.092 18.0294 22.8107 18.3107C22.5294 18.592 22.1478 18.75 21.75 18.75Z" stroke="#3F3F46" stroke-width="1.5" stroke-linecap="round" stroke-linejoin="round"/>
<path d="M9.6222 7.22804C9.43774 6.86274 9.15643 6.55494 8.8088 6.33841C8.45424 6.11756 8.04487 6.00049 7.62714 6.00049C7.20941 6.00049 6.80005 6.11756 6.44548 6.33841C6.09785 6.55494 5.81654 6.86274 5.63208 7.22804" stroke="#3F3F46" stroke-width="1.5" stroke-linecap="round" stroke-linejoin="round"/>
<path d="M14.6265 7.22737C14.8109 6.86236 15.0921 6.55481 15.4395 6.33841C15.7941 6.11756 16.2035 6.00049 16.6212 6.00049C17.0389 6.00049 17.4483 6.11756 17.8029 6.33841C18.1503 6.55481 18.4314 6.86236 18.6159 7.22737" stroke="#3F3F46" stroke-width="1.5" stroke-linecap="round" stroke-linejoin="round"/>
<path d="M15.9753 12.7686C14.9195 13.7219 13.5472 14.2501 12.1239 14.2501C10.7006 14.2501 9.32834 13.7219 8.27246 12.7686" stroke="#3F3F46" stroke-width="1.5" stroke-linecap="round" stroke-linejoin="round"/>
</svg>
