<svg width="32" height="32" viewBox="0 0 32 32" fill="none" xmlns="http://www.w3.org/2000/svg">
<path d="M8.00098 17.6307L11.2676 22.2667C11.3916 22.4518 11.5579 22.6046 11.7528 22.7124C11.9477 22.8203 12.1655 22.88 12.3881 22.8866C12.6108 22.8933 12.8318 22.8467 13.0328 22.7507C13.2338 22.6547 13.4089 22.512 13.5436 22.3347L24.001 9.104" stroke="#47474F" stroke-width="2" stroke-linecap="round" stroke-linejoin="round"/>
<path d="M1.00098 15.9985C1.00098 19.9768 2.58133 23.7921 5.39437 26.6051C8.20742 29.4182 12.0227 30.9985 16.001 30.9985C19.9792 30.9985 23.7945 29.4182 26.6076 26.6051C29.4206 23.7921 31.001 19.9768 31.001 15.9985C31.001 12.0203 29.4206 8.20498 26.6076 5.39193C23.7945 2.57889 19.9792 0.998535 16.001 0.998535C12.0227 0.998535 8.20742 2.57889 5.39437 5.39193C2.58133 8.20498 1.00098 12.0203 1.00098 15.9985Z" stroke="#47474F" stroke-width="2" stroke-linecap="round" stroke-linejoin="round"/>
</svg>
