<svg width="32" height="32" viewBox="0 0 32 32" fill="none" xmlns="http://www.w3.org/2000/svg">
<path d="M28.0867 16.867C27.9193 16.0589 27.4624 15.3313 26.7942 14.8084C26.126 14.2855 25.2879 13.9998 24.423 14H7.57794C6.71309 13.9998 5.875 14.2855 5.20679 14.8084C4.53858 15.3313 4.08172 16.0589 3.91423 16.867L2.07117 25.7559C1.96435 26.2712 1.97876 26.8027 2.11335 27.3121C2.24794 27.8215 2.49937 28.2961 2.84957 28.702C3.19977 29.1078 3.64003 29.4347 4.13871 29.6591C4.63738 29.8835 5.18208 30 5.73364 30H26.2673C26.8189 30 27.3636 29.8835 27.8623 29.6591C28.3609 29.4347 28.8012 29.1078 29.1514 28.702C29.5016 28.2961 29.753 27.8215 29.8876 27.3121C30.0222 26.8027 30.0366 26.2712 29.9298 25.7559L28.0867 16.867Z" stroke="#47474F" stroke-width="2" stroke-linecap="round" stroke-linejoin="round"/>
<path d="M22.0005 30V7C22.0005 5.67392 21.3683 4.40215 20.2431 3.46447C19.1179 2.52678 17.5918 2 16.0005 2C14.4092 2 12.8831 2.52678 11.7578 3.46447C10.6326 4.40215 10.0005 5.67392 10.0005 7V30" stroke="#47474F" stroke-width="2" stroke-linecap="round" stroke-linejoin="round"/>
</svg>
