<svg width="24" height="24" viewBox="0 0 24 24" fill="none" xmlns="http://www.w3.org/2000/svg"><path d="M18.75 7.5H21a.75.75 0 0 1 .75.75v7.5a.75.75 0 0 1-.75.75h-2.25m-13.5 0H3a.75.75 0 0 1-.75-.75v-7.5A.75.75 0 0 1 3 7.5h2.25M9 12h6m6.75 0h1.5M.75 12h1.5M6 5.25h2.25A.75.75 0 0 1 9 6v12a.75.75 0 0 1-.75.75H6a.75.75 0 0 1-.75-.75V6A.75.75 0 0 1 6 5.25Zm9.75 0H18a.75.75 0 0 1 .75.75v12a.75.75 0 0 1-.75.75h-2.25A.75.75 0 0 1 15 18V6a.75.75 0 0 1 .75-.75Z" stroke="#1B1B1F" stroke-width="1.5" stroke-linecap="round" stroke-linejoin="round"/></svg>