<svg width="32" height="32" viewBox="0 0 32 32" fill="none" xmlns="http://www.w3.org/2000/svg">
<path d="M21.7584 1.58557C21.3835 1.96063 21.1729 2.46924 21.1729 2.99957C21.1729 3.5299 21.3835 4.03852 21.7584 4.41357L27.5864 10.2416C27.7721 10.4273 27.9926 10.5747 28.2352 10.6753C28.4779 10.7759 28.738 10.8277 29.0006 10.8277C29.2633 10.8278 29.5234 10.7761 29.7661 10.6757C30.0088 10.5752 30.2293 10.4279 30.4151 10.2422C30.6009 10.0565 30.7483 9.83609 30.8488 9.59344C30.9494 9.35079 31.0012 9.09071 31.0013 8.82804C31.0013 8.56538 30.9496 8.30527 30.8492 8.06258C30.7487 7.81988 30.6014 7.59935 30.4158 7.41357L24.5864 1.58557C24.2114 1.21063 23.7028 1 23.1724 1C22.6421 1 22.1335 1.21063 21.7584 1.58557Z" stroke="#47474F" stroke-width="2" stroke-linecap="round" stroke-linejoin="round"/>
<path d="M16.1004 1.58361C15.9145 1.76934 15.7671 1.98987 15.6665 2.23261C15.5659 2.47534 15.5142 2.73552 15.5142 2.99827C15.5142 3.26102 15.5659 3.5212 15.6665 3.76393C15.7671 4.00667 15.9145 4.2272 16.1004 4.41294L27.5871 15.8996C27.7731 16.0853 27.9939 16.2325 28.2368 16.3329C28.4798 16.4332 28.7401 16.4848 29.003 16.4845C29.2658 16.4843 29.526 16.4323 29.7688 16.3314C30.0115 16.2306 30.232 16.083 30.4177 15.8969C30.6034 15.7109 30.7507 15.4901 30.851 15.2472C30.9514 15.0042 31.0029 14.7439 31.0027 14.4811C31.0024 14.2182 30.9504 13.958 30.8496 13.7152C30.7487 13.4725 30.6011 13.252 30.4151 13.0663L18.9337 1.58361C18.7479 1.39715 18.5271 1.24921 18.284 1.14827C18.0409 1.04732 17.7803 0.995361 17.5171 0.995361C17.2538 0.995361 16.9932 1.04732 16.7501 1.14827C16.507 1.24921 16.2862 1.39715 16.1004 1.58361Z" stroke="#47474F" stroke-width="2" stroke-linecap="round" stroke-linejoin="round"/>
<path d="M1.58655 21.7574C1.77228 21.5715 1.99282 21.4241 2.23555 21.3235C2.47829 21.2229 2.73846 21.1711 3.00122 21.1711C3.26397 21.1711 3.52414 21.2229 3.76688 21.3235C4.00961 21.4241 4.23015 21.5715 4.41588 21.7574L10.2439 27.5854C10.6082 27.9626 10.8098 28.4678 10.8052 28.9922C10.8007 29.5166 10.5903 30.0182 10.2195 30.389C9.8487 30.7598 9.34708 30.9702 8.82268 30.9747C8.29829 30.9793 7.79309 30.7777 7.41588 30.4134L1.58655 24.5854C1.21161 24.2103 1.00098 23.7017 1.00098 23.1714C1.00098 22.6411 1.21161 22.1324 1.58655 21.7574Z" stroke="#47474F" stroke-width="2" stroke-linecap="round" stroke-linejoin="round"/>
<path d="M1.58598 16.0985C1.96104 15.7236 2.46966 15.5129 2.99998 15.5129C3.53031 15.5129 4.03893 15.7236 4.41398 16.0985L15.9007 27.5852C16.2758 27.9609 16.4864 28.4703 16.486 29.0013C16.4857 29.5322 16.2744 30.0413 15.8987 30.4165C15.5229 30.7917 15.0135 31.0023 14.4826 31.0019C13.9516 31.0015 13.4425 30.7902 13.0673 30.4145L1.58598 18.9332C1.39933 18.7473 1.25122 18.5265 1.15016 18.2833C1.0491 18.04 0.99707 17.7792 0.99707 17.5158C0.99707 17.2525 1.0491 16.9917 1.15016 16.7484C1.25122 16.5052 1.39933 16.2843 1.58598 16.0985Z" stroke="#47474F" stroke-width="2" stroke-linecap="round" stroke-linejoin="round"/>
<path d="M20.4293 8.74219L8.74316 20.4283L11.5716 23.2567L23.2577 11.5706L20.4293 8.74219Z" stroke="#47474F" stroke-width="2" stroke-linecap="round" stroke-linejoin="round"/>
</svg>
