<svg width="32" height="32" viewBox="0 0 32 32" fill="none" xmlns="http://www.w3.org/2000/svg"><path d="M11 22a2 2 0 1 1-4 0 2 2 0 0 1 4 0ZM27 22a2 2 0 1 1-4 0 2 2 0 0 1 4 0ZM11 22h12" stroke="#1B1B1F" stroke-width="2" stroke-linecap="round" stroke-linejoin="round"/><path d="M27 22h2a2 2 0 0 0 2-2v-4.79a4 4 0 0 0-.667-2.218L27 7h-9.941a4 4 0 0 0-3.255 1.675L10 14H5.388a4 4 0 0 0-3.945 3.343L1 20a2 2 0 0 0 2 2h4M10 14h20.81M23 7v7M27 7h3" stroke="#1B1B1F" stroke-width="2" stroke-linecap="round" stroke-linejoin="round"/></svg>