<svg width="24" height="24" viewBox="0 0 24 24" fill="none" xmlns="http://www.w3.org/2000/svg">
  <path d="M15.412 13.626a.75.75 0 0 1 .711-.065l4.421 1.981a.75.75 0 0 1 .45.778 4.531 4.531 0 0 1-4.494 3.93A12.75 12.75 0 0 1 3.75 7.5a4.53 4.53 0 0 1 3.93-4.494.75.75 0 0 1 .778.45L10.44 7.88a.75.75 0 0 1-.062.706l-2.003 2.382a.743.743 0 0 0-.05.732c.774 1.587 2.415 3.208 4.007 3.976a.743.743 0 0 0 .734-.055l2.347-1.996Z" stroke="#1B1B1F" stroke-width="1.5" stroke-linecap="round" stroke-linejoin="round"/>
</svg>
