<svg width="24" height="24" viewBox="0 0 24 24" fill="none" xmlns="http://www.w3.org/2000/svg"><path d="M18.663 11.994c.877 0 1.587-.762 1.587-1.703 0-.94-.71-1.703-1.587-1.703-.876 0-1.586.762-1.586 1.703 0 .94.71 1.703 1.586 1.703ZM5.337 11.994c.876 0 1.586-.762 1.586-1.703 0-.94-.71-1.703-1.586-1.703-.877 0-1.587.762-1.587 1.703 0 .94.71 1.703 1.587 1.703ZM9.144 7.906c.877 0 1.587-.762 1.587-1.703 0-.94-.71-1.703-1.587-1.703-.876 0-1.586.763-1.586 1.703 0 .94.71 1.703 1.586 1.703ZM14.856 7.906c.876 0 1.586-.762 1.586-1.703 0-.94-.71-1.703-1.586-1.703-.877 0-1.587.763-1.587 1.703 0 .94.71 1.703 1.587 1.703ZM12 9.95a2.73 2.73 0 0 0-1.716.616c-.494.4-.855.96-1.027 1.598-.254.94-.843 1.732-1.64 2.206A2.685 2.685 0 0 0 6.4 15.927a2.91 2.91 0 0 0 .126 2.03 2.615 2.615 0 0 0 1.399 1.37 2.378 2.378 0 0 0 1.893-.05 5.387 5.387 0 0 1 4.364 0c.601.279 1.28.297 1.893.05a2.615 2.615 0 0 0 1.4-1.37 2.91 2.91 0 0 0 .125-2.03 2.685 2.685 0 0 0-1.219-1.557c-.796-.474-1.384-1.267-1.638-2.205a3.079 3.079 0 0 0-1.027-1.6A2.73 2.73 0 0 0 12 9.95Z" stroke="#1B1B1F" stroke-width="1.5" stroke-linecap="round" stroke-linejoin="round"/></svg>