<svg width="32" height="32" viewBox="0 0 32 32" fill="none" xmlns="http://www.w3.org/2000/svg">
  <path fill-rule="evenodd" clip-rule="evenodd" d="M27.798 11.773H0v8.454h27.798L32 16l-4.202-4.227Z" fill="#fff"/>
  <path fill-rule="evenodd" clip-rule="evenodd" d="M7.776 17.883h.815v-3.766h-.815v3.766ZM11.55 17.89l-1.313-1.322-.01.01-.008-.01v1.317h-.814v-3.767h.814v1.31l1.31-1.318h1.15l-1.867 1.879 1.89 1.9h-1.151ZM19.371 14.97h-1.079v2.946h-.814V14.97h-1.096v-.82h2.99v.82ZM20.447 17.883h.814v-3.766h-.814v3.766ZM24.648 14.936h-1.75v.626h1.75v.82h-1.75v.682h1.75v.819h-2.573v-3.766h2.573v.82ZM5.116 14.963c-.57 0-1.031.464-1.031 1.037s.461 1.038 1.031 1.038c.57 0 1.031-.465 1.031-1.038s-.461-1.037-1.031-1.037Zm0 2.93A1.887 1.887 0 0 1 3.235 16c0-1.045.842-1.892 1.881-1.892 1.039 0 1.881.847 1.881 1.892a1.887 1.887 0 0 1-1.881 1.892Z" fill="#202020"/>
  <path fill-rule="evenodd" clip-rule="evenodd" d="M14.48 14.963c-.57 0-1.031.464-1.031 1.037s.462 1.038 1.031 1.038c.57 0 1.032-.465 1.032-1.038s-.462-1.037-1.032-1.037Zm0 2.93A1.887 1.887 0 0 1 12.6 16c0-1.045.841-1.892 1.88-1.892 1.04 0 1.881.847 1.881 1.892a1.887 1.887 0 0 1-1.88 1.892Z" fill="#202020"/>
</svg>
