<svg width="34" height="33" viewBox="0 0 34 33" fill="none" xmlns="http://www.w3.org/2000/svg">
<path fill-rule="evenodd" clip-rule="evenodd" d="M7.22274 32.1465H17.8002C20.1427 32.1465 22.3981 31.1502 23.9682 29.4252L30.8695 21.9997C33.9587 18.6083 33.9534 13.5737 30.8757 10.3068L23.9484 2.78195C22.3702 1.10617 20.152 0.146484 17.8613 0.146484H7.26414C3.25825 0.146484 0 3.43116 0 7.46956V24.8652C0 28.8806 3.24067 32.1465 7.22274 32.1465ZM14.4283 21.9651C11.2458 21.9651 8.65642 19.3547 8.65642 16.1463C8.65642 12.938 11.2458 10.3276 14.4283 10.3276C17.6109 10.3276 20.2002 12.938 20.2002 16.1463C20.2002 19.3547 17.6109 21.9651 14.4283 21.9651ZM14.4291 13.2372C12.8372 13.2372 11.5431 14.5418 11.5431 16.1466C11.5431 17.7513 12.8372 19.0559 14.4291 19.0559C16.0208 19.0559 17.315 17.7513 17.315 16.1466C17.315 14.5418 16.0208 13.2372 14.4291 13.2372Z" fill="black"/>
</svg>
