<svg width="32" height="32" viewBox="0 0 32 32" fill="none" xmlns="http://www.w3.org/2000/svg">
  <path fill-rule="evenodd" clip-rule="evenodd" d="M27.798 12H0v8h27.798L32 16l-4.202-4Z" fill="#202020"/>
  <path fill-rule="evenodd" clip-rule="evenodd" d="M7.776 17.782h.815v-3.563h-.815v3.563ZM11.55 17.788l-1.313-1.25-.01.008-.008-.008v1.245h-.814V14.22h.814v1.239l1.31-1.247h1.15l-1.867 1.777 1.89 1.8h-1.151ZM19.632 14.993h-1.079v2.789h-.814v-2.789h-1.096v-.775h2.99v.775ZM20.447 17.782h.814v-3.563h-.814v3.563ZM24.648 14.993h-1.75v.592h1.75v.776h-1.75v.646h1.75v.775h-2.573v-3.564h2.573v.775ZM5.116 15.018c-.57 0-1.031.44-1.031.982s.461.982 1.031.982c.57 0 1.031-.44 1.031-.982s-.461-.982-1.031-.982Zm0 2.772c-1.039 0-1.881-.801-1.881-1.79s.842-1.79 1.881-1.79c1.039 0 1.881.801 1.881 1.79s-.842 1.79-1.881 1.79Z" fill="#fff"/>
  <path fill-rule="evenodd" clip-rule="evenodd" d="M14.48 15.018c-.57 0-1.031.44-1.031.982s.462.982 1.031.982c.57 0 1.032-.44 1.032-.982s-.462-.982-1.032-.982Zm0 2.772c-1.039 0-1.88-.801-1.88-1.79s.841-1.79 1.88-1.79c1.04 0 1.881.801 1.881 1.79s-.842 1.79-1.88 1.79Z" fill="#fff"/>
</svg>
