<svg width="32" height="32" viewBox="0 0 32 32" fill="none" xmlns="http://www.w3.org/2000/svg">
<g clip-path="url(#clip0_10782_198)">
<path d="M21.8408 17.3464C14.9741 19.6531 12.4541 22.3331 10.7208 28.9864L12.6541 28.9731C10.9075 22.3064 8.38746 19.6264 1.53412 17.3197L1.52079 19.2131C8.37412 16.8931 10.8941 14.2131 12.6275 7.55974H10.6808C12.4141 14.2131 14.9341 16.8931 21.7875 19.1997V17.2931L21.8408 17.3464ZM22.4675 19.2397C23.3741 18.9331 23.3741 17.6397 22.4675 17.3331C16.2408 15.2264 14.2141 13.0664 12.6408 7.06641C12.3741 6.06641 10.9608 6.06641 10.6941 7.06641C9.12079 13.0664 7.09412 15.2264 0.867457 17.3197C-0.052543 17.6131 -0.052543 18.9064 0.854124 19.2131C7.06746 21.3064 9.09412 23.4664 10.6675 29.4664C10.9208 30.4531 12.3341 30.4531 12.6008 29.4531C14.1608 23.4397 16.1875 21.2797 22.4141 19.1864L22.4675 19.2397Z" fill="#47474F"/>
<path d="M30.0938 6.97313C26.0805 8.30646 24.5472 9.93313 23.5338 13.8131H25.4672C24.4405 9.9198 22.9072 8.30646 18.9072 6.9598L18.8938 8.85313C22.8938 7.50646 24.4138 5.8798 25.4405 1.9998L23.4938 1.98646C24.5072 5.86646 26.0272 7.4798 30.0405 8.82646V6.9198L30.0938 6.97313ZM30.7205 8.86646C31.6272 8.5598 31.6272 7.26646 30.7205 6.9598C27.3472 5.82646 26.3072 4.7198 25.4538 1.49313C25.1872 0.49313 23.7738 0.49313 23.5072 1.4798C22.6538 4.70646 21.6138 5.7998 18.2405 6.93313C17.3205 7.22646 17.3205 8.5198 18.2272 8.82646C21.5872 9.94646 22.6272 11.0531 23.4805 14.2798C23.7338 15.2665 25.1472 15.2665 25.4138 14.2798C26.2538 11.0398 27.2938 9.94646 30.6672 8.81313L30.7205 8.86646Z" fill="#47474F"/>
<path d="M30.5872 25.1196C27.5339 26.1196 26.3339 27.3596 25.5605 30.2663L27.4805 30.253C26.6939 27.333 25.4939 26.093 22.4539 25.093V26.9863C25.4939 25.973 26.6939 24.733 27.4672 21.8263L25.5339 21.813C26.3072 24.7196 27.5072 25.9596 30.5472 26.9596V25.053L30.5872 25.1196ZM31.2005 27.013C32.1072 26.7063 32.1072 25.413 31.2005 25.1063C28.7872 24.3063 28.0805 23.5863 27.4805 21.333C27.2139 20.333 25.8005 20.333 25.5472 21.3196C24.9339 23.5596 24.2405 24.293 21.8272 25.0796C20.9072 25.373 20.9072 26.6663 21.8272 26.973C24.2272 27.7596 24.9339 28.4796 25.5339 30.733C25.7872 31.7196 27.2005 31.7196 27.4539 30.7196C28.0539 28.4663 28.7472 27.733 31.1605 26.9463L31.2005 27.013Z" fill="#47474F"/>
</g>
<defs>
<clipPath id="clip0_10782_198">
<rect width="32" height="32" fill="white"/>
</clipPath>
</defs>
</svg>
