<svg xmlns="http://www.w3.org/2000/svg" width="32" height="32" fill="none" viewBox="0 0 32 32"><g stroke="#47474F" stroke-linecap="round" stroke-linejoin="round" stroke-width="2" clip-path="url(#a)"><path d="M22.262 17.854c-6.651 2.24-8.843 4.736-10.465 10.951-1.62-6.213-3.813-8.71-10.463-10.95 6.65-2.24 8.842-4.737 10.463-10.953 1.622 6.216 3.814 8.711 10.465 10.952ZM30.512 7.487c-3.752 1.258-4.988 2.66-5.903 6.153-.915-3.492-2.152-4.893-5.903-6.153 3.751-1.26 4.987-2.662 5.903-6.154.915 3.494 2.15 4.894 5.903 6.154ZM30.999 25.638c-2.776.912-3.692 1.928-4.368 4.459-.678-2.53-1.594-3.547-4.37-4.459 2.776-.912 3.692-1.928 4.37-4.458.676 2.53 1.592 3.546 4.368 4.458Z"/></g><defs><clipPath id="a"><path fill="#fff" d="M0 0h32v32H0z"/></clipPath></defs></svg>