<svg width="32" height="32" viewBox="0 0 32 32" fill="none" xmlns="http://www.w3.org/2000/svg">
<path d="M11.0024 31.0002H19.0024" stroke="#47474F" stroke-width="2" stroke-linecap="round" stroke-linejoin="round"/>
<path d="M15.0024 31.0002V18.0002" stroke="#47474F" stroke-width="2" stroke-linecap="round" stroke-linejoin="round"/>
<path d="M9.00244 7.00024L6.55444 2.10558C6.38827 1.77334 6.13284 1.49395 5.8168 1.29871C5.50076 1.10348 5.13659 1.00013 4.76511 1.00024L1.104 1.00024" stroke="#47474F" stroke-width="2" stroke-linecap="round" stroke-linejoin="round"/>
<path d="M24.951 7.00011C25.0906 7.0004 25.2286 7.02983 25.3562 7.08652C25.4837 7.14322 25.5981 7.22592 25.6918 7.32934C25.7856 7.43276 25.8567 7.55462 25.9007 7.68712C25.9446 7.81961 25.9604 7.95983 25.947 8.09878C25.6739 10.812 24.4028 13.3271 22.3802 15.1562C20.3577 16.9853 17.728 17.9981 15.001 17.9981C12.2741 17.9981 9.64432 16.9853 7.62181 15.1562C5.59929 13.3271 4.32819 10.812 4.05503 8.09878C4.04147 7.95972 4.05711 7.81936 4.10097 7.68671C4.14483 7.55405 4.21593 7.43203 4.3097 7.32846C4.40348 7.22489 4.51787 7.14206 4.64553 7.08529C4.77319 7.02851 4.91131 6.99905 5.05103 6.99878L24.951 7.00011Z" stroke="#47474F" stroke-width="2" stroke-linecap="round" stroke-linejoin="round"/>
<path d="M21.1039 7.00823C20.8955 5.99688 21.0053 4.94582 21.4181 3.99935C21.8309 3.05287 22.5266 2.25738 23.4096 1.72208C24.2926 1.18678 25.3197 0.93791 26.3498 1.00964C27.3799 1.08138 28.3625 1.4702 29.1628 2.12272C29.9631 2.77524 30.5418 3.65948 30.8194 4.65404C31.0971 5.6486 31.0601 6.70473 30.7136 7.67743C30.367 8.65013 29.7279 9.49172 28.8839 10.0867C28.0399 10.6816 27.0325 11.0007 25.9999 11.0002" stroke="#47474F" stroke-width="2" stroke-linecap="round" stroke-linejoin="round"/>
</svg>
