<svg width="32" height="32" viewBox="0 0 32 32" fill="none" xmlns="http://www.w3.org/2000/svg">
<path d="M19.6672 1H2.33382C1.59744 1 1.00049 1.59695 1.00049 2.33333V29.6667C1.00049 30.403 1.59744 31 2.33382 31H19.6672C20.4035 31 21.0005 30.403 21.0005 29.6667V2.33333C21.0005 1.59695 20.4035 1 19.6672 1Z" stroke="#47474F" stroke-width="2" stroke-linecap="round" stroke-linejoin="round"/>
<path d="M14.6672 20.4444C14.6672 21.3874 14.316 22.2917 13.6908 22.9585C13.0657 23.6253 12.2179 23.9999 11.3338 23.9999C10.4498 23.9999 9.60192 23.6253 8.9768 22.9585C8.35168 22.2917 8.00049 21.3874 8.00049 20.4444C8.00049 18.4805 11.3338 13.3333 11.3338 13.3333C11.3338 13.3333 14.6672 18.4805 14.6672 20.4444Z" stroke="#47474F" stroke-width="2" stroke-linecap="round" stroke-linejoin="round"/>
<path d="M31.0002 12L30.1095 13.3333C29.386 14.4193 29 15.6951 29.0002 17V29C29.0002 29.5304 28.7894 30.0391 28.4144 30.4142C28.0393 30.7893 27.5306 31 27.0002 31C26.4697 31 25.961 30.7893 25.5859 30.4142C25.2109 30.0391 25.0002 29.5304 25.0002 29V9C25.0002 8.46957 24.7894 7.96086 24.4144 7.58579C24.0393 7.21071 23.5306 7 23.0002 7H21.0002H1.3335" stroke="#47474F" stroke-width="2" stroke-linecap="round" stroke-linejoin="round"/>
<path d="M29.0005 17H31.0005" stroke="#47474F" stroke-width="2" stroke-linecap="round" stroke-linejoin="round"/>
</svg>
