<svg width="24" height="24" viewBox="0 0 24 24" fill="none" xmlns="http://www.w3.org/2000/svg"><path d="M21 15.75a.75.75 0 0 0 1.5 0H21Zm.75-3.188h.75-.75Zm-.534-.718.215-.718a.598.598 0 0 0-.019-.005l-.196.723ZM4.5 9A.75.75 0 0 0 6 9H4.5Zm-.75-5.25a.75.75 0 0 0 0 1.5v-1.5ZM15 5.25a.75.75 0 0 0 0-1.5v1.5Zm-11.25 3a.75.75 0 0 0 0 1.5v-1.5ZM6.375 9v-.75V9Zm7.125 8.25h-.75c0 .414.336.75.75.75v-.75Zm3.776.75a.75.75 0 1 0 0-1.5V18Zm-.776-7.235a.75.75 0 0 0 1.5 0h-1.5ZM18 6.75a.75.75 0 0 0-1.5 0H18Zm4.5 10.875h-.75c0 1.035-.84 1.875-1.875 1.875V21a3.375 3.375 0 0 0 3.375-3.375h-.75Zm-2.625 2.625v-.75A1.875 1.875 0 0 1 18 17.625h-1.5A3.375 3.375 0 0 0 19.875 21v-.75Zm-2.625-2.625H18c0-1.035.84-1.875 1.875-1.875v-1.5a3.375 3.375 0 0 0-3.375 3.375h.75ZM19.875 15v.75c1.035 0 1.875.84 1.875 1.875h1.5a3.375 3.375 0 0 0-3.375-3.375V15ZM10.5 16.125h-.75A3.375 3.375 0 0 1 6.375 19.5V21a4.875 4.875 0 0 0 4.875-4.875h-.75ZM6.375 20.25v-.75A3.375 3.375 0 0 1 3 16.125H1.5A4.875 4.875 0 0 0 6.375 21v-.75ZM2.25 16.125H3a3.375 3.375 0 0 1 3.375-3.375v-1.5A4.875 4.875 0 0 0 1.5 16.125h.75ZM6.375 12v.75a3.375 3.375 0 0 1 3.375 3.375h1.5a4.875 4.875 0 0 0-4.875-4.875V12ZM7.5 16.125h-.75a.375.375 0 0 1-.375.375V18c1.036 0 1.875-.84 1.875-1.875H7.5ZM6.375 17.25v-.75A.375.375 0 0 1 6 16.125H4.5C4.5 17.16 5.34 18 6.375 18v-.75ZM5.25 16.125H6c0-.207.168-.375.375-.375v-1.5c-1.036 0-1.875.84-1.875 1.875h.75ZM6.375 15v.75c.207 0 .375.168.375.375h1.5c0-1.036-.84-1.875-1.875-1.875V15Zm15.375.75h.75v-3.188H21v3.188h.75Zm0-3.188h.75a1.5 1.5 0 0 0-.297-.895l-.601.448-.602.448h.75Zm-.148-.447.601-.448a1.5 1.5 0 0 0-.772-.541l-.215.718-.216.719.602-.448Zm-.386-.27.196-.724-7.715-2.095-.197.724-.197.724 7.716 2.094.197-.724ZM13.5 9.75h.75V4.5h-1.5v5.25h.75Zm0-5.25v-.75H5.25v1.5h8.25V4.5Zm-8.25 0H4.5V9H6V4.5h-.75Zm-1.5 0v.75h1.5v-1.5h-1.5v.75Zm9.75 0v.75H15v-1.5h-1.5v.75ZM3.75 9v.75h2.625v-1.5H3.75V9Zm2.625 0v.75c1.69 0 3.312.672 4.508 1.867l.53-.53.53-.53A7.875 7.875 0 0 0 6.376 8.25V9Zm5.038 2.087-.53.53a6.375 6.375 0 0 1 1.867 4.508h1.5c0-2.089-.83-4.092-2.306-5.569l-.53.53Zm2.087 5.038h-.75v1.125h1.5v-1.125h-.75Zm0 1.125V18h3.776v-1.5H13.5v.75Zm0-7.5h-.75v7.5h1.5v-7.5h-.75Zm3.75 1.015H18V6.75h-1.5v4.015h.75Z" fill="#1B1B1F"/></svg>