<svg width="24" height="24" viewBox="0 0 24 24" fill="none" xmlns="http://www.w3.org/2000/svg">
  <path d="M21.028 15.214V12.18a.71.71 0 0 0-.515-.684L13.083 9.5m0 0v-5m0 5v7.143m0-12.143H5.14m7.944 0h1.445m-9.39 0v4.286m0-4.286H3.695m0 4.286h2.528a6.9 6.9 0 0 1 4.852 1.987 6.748 6.748 0 0 1 2.01 4.798v1.072m0 0h3.636m-.026-6.176V6.643M21.75 17c0 1.38-1.132 2.5-2.528 2.5-1.396 0-2.528-1.12-2.528-2.5s1.132-2.5 2.528-2.5c1.396 0 2.528 1.12 2.528 2.5Zm-11.556-1.429c0 2.17-1.778 3.929-3.972 3.929S2.25 17.741 2.25 15.571s1.778-3.928 3.972-3.928 3.972 1.759 3.972 3.928Z" stroke="#1B1B1F" stroke-width="1.5" stroke-linecap="round" stroke-linejoin="round"/>
</svg>
