<svg width="32" height="32" viewBox="0 0 32 32" fill="none" xmlns="http://www.w3.org/2000/svg">
<path d="M17.0005 13.0761C17.0001 11.5799 16.5802 10.1138 15.7883 8.84434C14.9965 7.57485 13.8646 6.55286 12.5211 5.89443C11.1775 5.236 9.67631 4.96753 8.18787 5.11951C6.69942 5.27149 5.28343 5.83783 4.10071 6.7542C2.91799 7.67057 2.01595 8.90025 1.49704 10.3036C0.978131 11.7069 0.863155 13.2276 1.16517 14.693C1.46718 16.1584 2.17408 17.5097 3.20557 18.5935C4.23707 19.6772 5.55182 20.4501 7.00049 20.8241V29.0054C7.00049 29.5359 7.2112 30.0446 7.58628 30.4196C7.96135 30.7947 8.47006 31.0054 9.00049 31.0054C9.53092 31.0054 10.0396 30.7947 10.4147 30.4196C10.7898 30.0446 11.0005 29.5359 11.0005 29.0054V20.8241C12.7181 20.3806 14.2395 19.3788 15.3257 17.9763C16.4118 16.5738 17.0009 14.85 17.0005 13.0761V13.0761Z" stroke="#47474F" stroke-width="2" stroke-linecap="round" stroke-linejoin="round"/>
<path d="M12.9888 6.14009C14.5201 5.259 16.3 4.90961 18.0508 5.14642C19.8016 5.38324 21.4247 6.19294 22.6669 7.44918C23.9092 8.70542 24.7006 10.3375 24.9178 12.0909C25.135 13.8442 24.7656 15.6201 23.8674 17.1414L30.4141 23.6828C30.7784 24.06 30.98 24.5652 30.9755 25.0896C30.9709 25.6139 30.7606 26.1156 30.3897 26.4864C30.0189 26.8572 29.5173 27.0675 28.9929 27.0721C28.4685 27.0767 27.9633 26.8751 27.5861 26.5108L21.0434 19.9694C20.1531 20.4949 19.1692 20.842 18.1466 20.9913H18.089" stroke="#47474F" stroke-width="2" stroke-linecap="round" stroke-linejoin="round"/>
<path d="M9.00049 14.0759C10.1051 14.0759 11.0005 13.1805 11.0005 12.0759C11.0005 10.9714 10.1051 10.0759 9.00049 10.0759C7.89592 10.0759 7.00049 10.9714 7.00049 12.0759C7.00049 13.1805 7.89592 14.0759 9.00049 14.0759Z" stroke="#47474F" stroke-width="2" stroke-linecap="round" stroke-linejoin="round"/>
<path d="M9.00049 9.875V4C9.00049 3.20435 9.31656 2.44129 9.87917 1.87868C10.4418 1.31607 11.2048 1 12.0005 1C12.7961 1 13.5592 1.31607 14.1218 1.87868C14.6844 2.44129 15.0005 3.20435 15.0005 4V5.02083" stroke="#47474F" stroke-width="2" stroke-linecap="round" stroke-linejoin="round"/>
</svg>
