<svg width="24" height="24" viewBox="0 0 24 24" fill="none" xmlns="http://www.w3.org/2000/svg"><path d="m13.739 8.474 1.788 1.788m-3.577 4.172c1.291.553 2.084.735 2.735.648.073-.01.146-.023.218-.04.64-.146 2.193-1.73 3.207-2.7l.12-.114c.77-.77 1.154-1.155 1.247-1.94.094-.785-.107-1.113-.508-1.77a10.49 10.49 0 0 0-1.547-1.94 10.495 10.495 0 0 0-1.94-1.547c-.657-.401-.985-.602-1.77-.508-.785.093-1.17.478-1.94 1.247l-.114.12c-.97 1.014-2.501 2.62-2.648 3.26-.017.071-.03.144-.04.218-.087.65.043 1.39.596 2.682L4.5 17.116V19.5h2.384v-1.49h1.49v-1.59h1.49l2.086-1.986Z" stroke="#1B1B1F" stroke-width="1.5" stroke-linecap="round" stroke-linejoin="round"/></svg>