<svg width="32" height="32" viewBox="0 0 32 32" fill="none" xmlns="http://www.w3.org/2000/svg">
<path d="M4.84559 16.9948L5.42061 15.4677L4.07805 11.9016C3.98165 11.6443 3.97491 11.3615 4.05894 11.0998C4.14297 10.8382 4.31273 10.6135 4.54011 10.4629L7.69501 8.37696L8.67947 4.69381C8.7506 4.42819 8.9093 4.19519 9.12923 4.03349C9.34916 3.87179 9.6171 3.79112 9.88855 3.80486L13.6518 3.9985L16.586 1.60069C16.7977 1.42779 17.0616 1.3335 17.3336 1.3335C17.6057 1.3335 17.8695 1.42779 18.0813 1.60069L21.0154 3.9985L24.7787 3.80876C25.0502 3.79502 25.3181 3.87569 25.538 4.03739C25.758 4.19909 25.9167 4.43209 25.9878 4.6977L26.9722 8.38086L30.1271 10.4668C30.3547 10.6172 30.5246 10.8419 30.6087 11.1036C30.6927 11.3653 30.6858 11.6483 30.5892 11.9055L29.2479 15.4716L30.5892 19.0365C30.6859 19.2939 30.6928 19.5771 30.6088 19.839C30.5248 20.1009 30.3548 20.3258 30.1271 20.4765L26.9722 22.5559L25.9826 26.2404C25.912 26.5064 25.7534 26.7398 25.5334 26.9018C25.3134 27.0638 25.0452 27.1445 24.7736 27.1306L21.0103 26.9409L18.1105 29.3054" stroke="#47474F" stroke-width="2" stroke-linecap="round" stroke-linejoin="round"/>
<path d="M1.66357 24.4951L4.9905 29.4855" stroke="#47474F" stroke-width="2" stroke-linecap="round" stroke-linejoin="round"/>
<path d="M22.3875 22.4961L4.00081 28.0001L2.66748 26.0001L14.8781 10.6667L22.3875 22.4961Z" stroke="#47474F" stroke-width="2" stroke-linecap="round" stroke-linejoin="round"/>
<path d="M14.001 9.3335L23.3343 24.0002" stroke="#47474F" stroke-width="2" stroke-linecap="round" stroke-linejoin="round"/>
<path d="M8.00049 27.0882L9.16849 28.8829C9.36161 29.1995 9.61741 29.4733 9.92019 29.6874C10.223 29.9016 10.5663 30.0516 10.9292 30.1283C11.292 30.205 11.6667 30.2067 12.0302 30.1333C12.3938 30.0599 12.7385 29.913 13.0432 29.7015C13.6661 29.2533 14.0941 28.5838 14.2396 27.8303C14.3851 27.0768 14.2371 26.2962 13.8258 25.6482" stroke="#47474F" stroke-width="2" stroke-linecap="round" stroke-linejoin="round"/>
</svg>
