<svg width="24" height="24" viewBox="0 0 24 24" fill="none" xmlns="http://www.w3.org/2000/svg">
<path fill-rule="evenodd" clip-rule="evenodd" d="M0 12C0 5.37258 5.37258 0 12 0C18.6274 0 24 5.37258 24 12C24 18.6274 18.6274 24 12 24C5.37258 24 0 18.6274 0 12ZM12 6.75C12.4142 6.75 12.75 7.08579 12.75 7.5V11.25H16.5C16.9142 11.25 17.25 11.5858 17.25 12C17.25 12.4142 16.9142 12.75 16.5 12.75H12.75V16.5C12.75 16.9142 12.4142 17.25 12 17.25C11.5858 17.25 11.25 16.9142 11.25 16.5V12.75H7.5C7.08579 12.75 6.75 12.4142 6.75 12C6.75 11.5858 7.08579 11.25 7.5 11.25H11.25V7.5C11.25 7.08579 11.5858 6.75 12 6.75Z" fill="#3F3F46"/>
</svg>
