<svg width="42" height="28" viewBox="0 0 42 28" fill="none" xmlns="http://www.w3.org/2000/svg">
<path d="M14.8892 6.34424V8.78982L15.7452 9.76805" stroke="#47474F" stroke-width="2" stroke-linecap="round" stroke-linejoin="round"/>
<path d="M20.0249 8.05588C20.0249 10.8923 17.7255 13.1916 14.8892 13.1916C12.0528 13.1916 9.75342 10.8923 9.75342 8.05588C9.75342 5.21951 12.0528 2.92017 14.8892 2.92017C17.7255 2.92017 20.0249 5.21951 20.0249 8.05588Z" stroke="#47474F" stroke-width="2" stroke-linecap="round" stroke-linejoin="round"/>
<path d="M32.8642 12.3357H27.7285" stroke="#47474F" stroke-width="2" stroke-linecap="round" stroke-linejoin="round"/>
<path d="M33.7202 21.7509H38V16.2173C38 15.9311 37.857 15.6639 37.6188 15.5051L32.8643 12.3354L29.7828 8.22684C28.4896 6.50257 26.4601 5.48779 24.3047 5.48779H22.5928" stroke="#47474F" stroke-width="2" stroke-linecap="round" stroke-linejoin="round"/>
<path d="M26.0166 21.751H14.8892" stroke="#47474F" stroke-width="2" stroke-linecap="round" stroke-linejoin="round"/>
<path d="M33.7202 21.3232C33.7202 23.4505 31.9957 25.175 29.8684 25.175C27.7411 25.175 26.0166 23.4505 26.0166 21.3232C26.0166 19.1959 27.7411 17.4714 29.8684 17.4714C31.9957 17.4714 33.7202 19.1959 33.7202 21.3232Z" stroke="#47474F" stroke-width="2" stroke-linecap="round"/>
<path d="M14.8891 21.3232C14.8891 23.4505 13.1646 25.175 11.0374 25.175C8.91005 25.175 7.18555 23.4505 7.18555 21.3232C7.18555 19.1959 8.91005 17.4714 11.0374 17.4714C13.1646 17.4714 14.8891 19.1959 14.8891 21.3232Z" stroke="#47474F" stroke-width="2" stroke-linecap="round"/>
<path d="M7.18553 21.7509H5.47363C4.52817 21.7509 3.76172 20.9845 3.76172 20.039V13.1914L5.9016 7.62768L4.61768 5.48779H7.18553" stroke="#47474F" stroke-width="2" stroke-linecap="round" stroke-linejoin="round"/>
</svg>
