<svg width="24" height="24" viewBox="0 0 24 24" fill="none" xmlns="http://www.w3.org/2000/svg"><path d="m14.25 6.75.624-.416A.75.75 0 0 0 14.25 6v.75Zm-9.375 10.5a.75.75 0 0 0 0-1.5v1.5Zm14.25-1.5a.75.75 0 0 0 0 1.5v-1.5Zm-9.75 0a.75.75 0 0 0 0 1.5v-1.5Zm5.25 1.5a.75.75 0 0 0 0-1.5v1.5ZM12 6a.75.75 0 0 0 0 1.5V6Zm0 4.5a.75.75 0 0 0 0 1.5v-1.5Zm-9 3a.75.75 0 0 0-1.5 0H3Zm3.667-6.492a.75.75 0 0 0-1.5 0h1.5Zm-.75 1.834h-.75a.75.75 0 0 0 .186.494l.564-.494Zm.078 1.228a.75.75 0 1 0 1.129-.988l-.565.494-.564.494ZM19.5 11.25V12c1.3 0 1.5.6 1.5.75h1.5c0-1.35-1.3-2.25-3-2.25v.75Zm2.25 1.5H21V15h1.5v-2.25h-.75Zm0 2.25H21c0 .131-.073.325-.25.5-.175.177-.369.25-.5.25v1.5c.619 0 1.175-.302 1.562-.688.386-.387.688-.943.688-1.562h-.75Zm-4.5-3.75V12h2.25v-1.5h-2.25v.75Zm-3-4.5-.624.416 3 4.5.624-.416.624-.416-3-4.5-.624.416ZM2.25 15H1.5c0 .619.302 1.175.688 1.562.387.386.943.688 1.562.688v-1.5c-.131 0-.325-.073-.5-.25-.177-.175-.25-.369-.25-.5h-.75Zm1.5 1.5v.75h1.125v-1.5H3.75v.75Zm16.5 0v-.75h-1.125v1.5h1.125v-.75Zm-10.875 0v.75h5.25v-1.5h-5.25v.75Zm9.375.375H18c0 .621-.504 1.125-1.125 1.125v1.5a2.625 2.625 0 0 0 2.625-2.625h-.75Zm-1.875 1.875V18a1.125 1.125 0 0 1-1.125-1.125h-1.5a2.625 2.625 0 0 0 2.625 2.625v-.75ZM15 16.875h.75c0-.621.504-1.125 1.125-1.125v-1.5a2.625 2.625 0 0 0-2.625 2.625H15ZM16.875 15v.75c.621 0 1.125.504 1.125 1.125h1.5a2.625 2.625 0 0 0-2.625-2.625V15ZM9 16.875h-.75c0 .621-.504 1.125-1.125 1.125v1.5a2.625 2.625 0 0 0 2.625-2.625H9ZM7.125 18.75V18A1.125 1.125 0 0 1 6 16.875H4.5A2.625 2.625 0 0 0 7.125 19.5v-.75ZM5.25 16.875H6c0-.621.504-1.125 1.125-1.125v-1.5A2.625 2.625 0 0 0 4.5 16.875h.75ZM7.125 15v.75c.621 0 1.125.504 1.125 1.125h1.5a2.625 2.625 0 0 0-2.625-2.625V15Zm7.125-8.25V6H12v1.5h2.25v-.75ZM12 11.25V12h5.25v-1.5H12v.75ZM2.25 13.5H1.5V15H3v-1.5h-.75Zm3.667-6.492h-.75v1.834h1.5V7.008h-.75Zm0 1.834-.564.494.642.734.564-.494.565-.494-.642-.734-.565.494Zm4.037-.49h-.75a3.102 3.102 0 0 1-3.102 3.102v1.5a4.602 4.602 0 0 0 4.602-4.602h-.75Zm-3.852 3.852v-.75A3.102 3.102 0 0 1 3 8.352H1.5a4.602 4.602 0 0 0 4.602 4.602v-.75ZM2.25 8.352H3A3.102 3.102 0 0 1 6.102 5.25v-1.5A4.602 4.602 0 0 0 1.5 8.352h.75ZM6.102 4.5v.75a3.102 3.102 0 0 1 3.102 3.102h1.5A4.602 4.602 0 0 0 6.102 3.75v.75Z" fill="#1B1B1F"/></svg>