<svg width="24" height="24" viewBox="0 0 24 24" fill="none" xmlns="http://www.w3.org/2000/svg">
  <path d="m19.5 4.5-.182.728.09.022h.092V4.5Zm-15 0v.75h.092l.09-.022L4.5 4.5Zm-.53.22.53.53-.53-.53ZM12 21.75l-.197.724.197.053.197-.053L12 21.75Zm3.75-11.625h.75a.75.75 0 0 0-.75-.75v.75Zm0 5.625v.75a.75.75 0 0 0 .75-.75h-.75Zm-7.5 0H7.5a.75.75 0 0 0 .75.75v-.75Zm0-5.625v-.75a.75.75 0 0 0-.75.75h.75Zm3 1.875a.75.75 0 0 0 0 1.5V12Zm1.5 1.5a.75.75 0 0 0 0-1.5v1.5ZM9.009 9.864a.75.75 0 0 0 1.482-.228l-1.482.228Zm11.241.636H21V5.25h-1.5v5.25h.75Zm0-5.25H21a1.5 1.5 0 0 0-.44-1.06l-.53.53-.53.53h.75Zm-.22-.53.53-.53a1.5 1.5 0 0 0-1.06-.44v1.5l.53-.53Zm-.53-.22.182-.728C16.656 3.016 14.338 2.625 12 2.625s-4.655.39-7.682 1.147L4.5 4.5l.182.728C7.655 4.484 9.838 4.125 12 4.125s4.345.36 7.318 1.103L19.5 4.5Zm-15 0v-.75a1.5 1.5 0 0 0-1.06.44l.53.53.53.53V4.5Zm-.53.22-.53-.53A1.5 1.5 0 0 0 3 5.25h1.5l-.53-.53Zm-.22.53H3v5.25h1.5V5.25h-.75Zm0 5.25H3c0 4.767 2.2 7.78 4.4 9.58a13.785 13.785 0 0 0 3 1.86 12.125 12.125 0 0 0 1.286.499l.081.024.024.007a.14.14 0 0 0 .007.002l.003.001c.001 0 .002 0 .199-.723l.198-.724-.013-.003-.056-.017a10.602 10.602 0 0 1-1.107-.43 12.289 12.289 0 0 1-2.672-1.657C6.426 17.345 4.5 14.733 4.5 10.5h-.75ZM12 21.75c.197.724.198.723.198.723h.004a.14.14 0 0 0 .007-.003l.024-.006a8.065 8.065 0 0 0 .37-.12A13.783 13.783 0 0 0 16.6 20.08C18.8 18.28 21 15.266 21 10.5h-1.5c0 4.233-1.926 6.845-3.85 8.42a12.29 12.29 0 0 1-2.671 1.655 10.602 10.602 0 0 1-1.108.43l-.056.018-.012.003H11.8h.001l.198.724Zm3.75-11.625H15v5.625h1.5v-5.625h-.75Zm0 5.625V15h-7.5v1.5h7.5v-.75Zm-7.5 0H9v-5.625H7.5v5.625h.75Zm3-3v.75h1.5V12h-1.5v.75Zm-3-2.625v.75h6v-1.5h-6v.75Zm6 0v.75h1.5v-1.5h-1.5v.75Zm0 0 .742.106c.207-1.448-.039-2.631-.612-3.484-.575-.854-1.449-1.324-2.353-1.356-.904-.032-1.796.375-2.388 1.177-.592.802-.84 1.93-.63 3.296l.741-.114.741-.114c-.165-1.072.055-1.771.355-2.177.298-.405.719-.583 1.127-.569.408.015.846.225 1.162.695.318.472.54 1.257.373 2.434l.742.106Z" fill="#1B1B1F"/>
</svg>
