<svg width="32" height="32" viewBox="0 0 32 32" fill="none" xmlns="http://www.w3.org/2000/svg">
<path d="M3.00053 5.23045V15.3824C3.00056 18.5913 3.97296 21.7248 5.78954 24.37C7.60613 27.0151 10.1816 29.0477 13.1765 30.1998L14.5645 30.7331C15.4889 31.0886 16.5122 31.0886 17.4365 30.7331L18.8245 30.1998C21.8194 29.0477 24.3949 27.0151 26.2115 24.37C28.0281 21.7248 29.0005 18.5913 29.0005 15.3824V5.23045C29.0031 4.84842 28.8952 4.4738 28.6899 4.15163C28.4846 3.82946 28.1906 3.57347 27.8432 3.41445C24.1096 1.78483 20.0741 0.961993 16.0005 0.99978C11.927 0.961993 7.89142 1.78483 4.15787 3.41445C3.8105 3.57347 3.51648 3.82946 3.31116 4.15163C3.10585 4.4738 2.99798 4.84842 3.00053 5.23045Z" stroke="#47474F" stroke-width="2" stroke-linecap="round" stroke-linejoin="round"/>
<path d="M20.0005 13H12.0005C10.8959 13 10.0005 13.8954 10.0005 15V21C10.0005 22.1046 10.8959 23 12.0005 23H20.0005C21.1051 23 22.0005 22.1046 22.0005 21V15C22.0005 13.8954 21.1051 13 20.0005 13Z" stroke="#47474F" stroke-width="2" stroke-linecap="round" stroke-linejoin="round"/>
<path d="M14.5005 18H17.5005" stroke="#47474F" stroke-width="2" stroke-linecap="round" stroke-linejoin="round"/>
<path d="M12.0005 13V11C12.0005 9.93913 12.4219 8.92172 13.1721 8.17157C13.9222 7.42143 14.9396 7 16.0005 7C17.0614 7 18.0788 7.42143 18.8289 8.17157C19.5791 8.92172 20.0005 9.93913 20.0005 11V13" stroke="#47474F" stroke-width="2" stroke-linecap="round" stroke-linejoin="round"/>
</svg>
