<svg width="24" height="24" viewBox="0 0 24 24" fill="none" xmlns="http://www.w3.org/2000/svg">
<g clip-path="url(#clip0_8909_63192)">
<path fill-rule="evenodd" clip-rule="evenodd" d="M0.65901 0.65901C1.08097 0.237053 1.65326 0 2.25 0H21.75C22.3467 0 22.919 0.237053 23.341 0.65901C23.7629 1.08097 24 1.65326 24 2.25V17.25C24 17.8467 23.7629 18.419 23.341 18.841C22.919 19.2629 22.3467 19.5 21.75 19.5H11.5L5.7 23.85C5.47274 24.0204 5.16868 24.0479 4.91459 23.9208C4.6605 23.7938 4.5 23.5341 4.5 23.25V19.5H2.25C1.65326 19.5 1.08097 19.2629 0.65901 18.841C0.237053 18.419 0 17.8467 0 17.25V2.25C0 1.65326 0.237053 1.08097 0.65901 0.65901ZM7.62726 5.25098C7.06936 5.25098 6.52262 5.40733 6.04907 5.7023C5.57552 5.99727 5.19411 6.41904 4.94811 6.91979C4.76547 7.29156 4.91879 7.741 5.29056 7.92364C5.66233 8.10628 6.11178 7.95296 6.29442 7.58119C6.4168 7.33208 6.60654 7.12225 6.84213 6.9755C7.07772 6.82876 7.34971 6.75098 7.62726 6.75098C7.90481 6.75098 8.17681 6.82876 8.41239 6.9755C8.64798 7.12225 8.83773 7.33208 8.96011 7.58119C9.14275 7.95296 9.59219 8.10628 9.96396 7.92364C10.3357 7.741 10.4891 7.29156 10.3064 6.91979C10.0604 6.41904 9.67901 5.99727 9.20546 5.7023C8.7319 5.40733 8.18517 5.25098 7.62726 5.25098ZM16.6214 5.25098C16.0635 5.25098 15.5168 5.40733 15.0432 5.7023C14.5697 5.99727 14.1882 6.41904 13.9422 6.91979C13.7596 7.29156 13.9129 7.741 14.2847 7.92364C14.6565 8.10628 15.1059 7.95296 15.2886 7.58119C15.4109 7.33208 15.6007 7.12225 15.8363 6.9755C16.0719 6.82876 16.3439 6.75098 16.6214 6.75098C16.899 6.75098 17.171 6.82876 17.4065 6.9755C17.6421 7.12225 17.8319 7.33208 17.9543 7.58119C18.1369 7.95296 18.5863 8.10628 18.9581 7.92364C19.3299 7.741 19.4832 7.29156 19.3006 6.91979C19.0546 6.41904 18.6731 5.99727 18.1996 5.7023C17.726 5.40733 17.1793 5.25098 16.6214 5.25098ZM9.76292 14.1755C9.9046 13.7863 10.335 13.5856 10.7242 13.7273C11.7628 14.1053 12.9553 14.1048 14.0643 13.7106C15.1732 13.3164 16.0985 12.564 16.6654 11.6152C16.8778 11.2596 17.3383 11.1436 17.6939 11.3561C18.0495 11.5685 18.1655 12.029 17.953 12.3846C17.199 13.6465 15.9889 14.6184 14.5667 15.124C13.1445 15.6295 11.5925 15.6396 10.2112 15.1368C9.82193 14.9951 9.62125 14.5647 9.76292 14.1755Z" fill="#3F3F46"/>
</g>
<defs>
<clipPath id="clip0_8909_63192">
<rect width="24" height="24" fill="white"/>
</clipPath>
</defs>
</svg>
