<svg width="156" height="32" viewBox="0 0 156 32" fill="none" xmlns="http://www.w3.org/2000/svg">
  <path d="M56.958 2.179h-4.853l-.137 1.18c-.363 3.222-1.633 4.675-4.4 5.583v4.267h2.404v11.348c0 5.22 2.404 7.444 7.077 7.444 1.542 0 2.948-.227 4.174-.59v-6.718c-.907.409-1.77.59-2.45.59-1.09 0-1.815-.499-1.815-1.951V13.209h4.492V7.081h-4.492V2.179ZM37.774 22.196c0 1.952-1.089 3.132-2.858 3.132-1.768 0-2.72-1.18-2.72-3.132V7.08H25.21v16.794c0 4.948 2.903 8.08 7.666 8.08 2.268 0 4.174-.727 5.67-2.315h.091v2.042h6.124V7.081h-6.986v15.115ZM155.791 7.081h-7.303l-2.995 7.444h-.09l-3.039-7.444h-8.031l5.762 11.801-5.762 12.8h7.395l2.994-7.988h.091l3.04 7.988h7.892l-5.715-12.437 5.761-12.164ZM6.215 0 0 31.682h7.213l.68-4.13h6.985l.68 4.13h7.44L16.694 0H6.215Zm2.676 21.606 2.495-14.797h.09l2.45 14.797H8.892ZM75.916 6.763c-7.53 0-12.52 5.084-12.52 12.619 0 7.534 4.989 12.618 12.52 12.618 7.53 0 12.475-5.038 12.475-12.618S83.401 6.763 75.916 6.763Zm0 18.383c-3.085 0-5.262-2.36-5.262-5.764 0-3.405 2.133-5.765 5.262-5.765 3.129 0 5.216 2.315 5.216 5.765 0 3.45-2.132 5.764-5.216 5.764ZM122.417 6.809c-7.394 0-12.384 4.902-12.384 12.618s4.991 12.528 13.564 12.528c2.541 0 5.399-.455 7.758-1.543v-6.945c-2.132 1.498-4.854 2.18-7.35 2.18-3.265 0-5.761-1.226-6.623-4.04h15.878c1.679-9.532-3.176-14.798-10.843-14.798Zm-5.036 9.577c.727-2.27 2.404-3.676 4.854-3.676s4.265 1.27 4.582 3.676h-9.436ZM103.72 0l-4.25 24.874h-.01l-.003.016-.077-.002L95.294 0h-7.438l6.306 31.682h10.479L110.855 0h-7.135Z" fill="#fff"/>
</svg>
