<svg width="35" height="19" viewBox="0 0 35 19" fill="none" xmlns="http://www.w3.org/2000/svg">
<path fill-rule="evenodd" clip-rule="evenodd" d="M2.50075 18.7676H16.9082H18.2812H32.9026C34.0067 18.7676 34.9034 17.8719 34.9034 16.7669V2.76833C34.9034 1.66381 34.0071 0.767578 32.9026 0.767578H18.909C17.8044 0.767578 16.9082 1.66381 16.9082 2.76833V6.78261C15.0106 3.21175 11.3187 0.767578 6.92787 0.767578H2.50075C1.39623 0.767578 0.5 1.66381 0.5 2.76833V16.7669C0.5 17.8719 1.39663 18.7676 2.50075 18.7676ZM2 16.7669V2.76833C2 2.49223 2.22466 2.26758 2.50075 2.26758H6.92787C12.4817 2.26758 16.7812 6.7859 16.7812 12.3397V17.2676H2.50075C2.22466 17.2676 2 17.043 2 16.7669ZM33.4033 16.7669C33.4033 17.043 33.1787 17.2676 32.9026 17.2676H18.4082V2.76833C18.4082 2.49223 18.6329 2.26758 18.909 2.26758H32.9026C33.1787 2.26758 33.4033 2.49223 33.4033 2.76833V16.7669Z" fill="#9CA3AF"/>
</svg>
