<svg width="24" height="24" viewBox="0 0 24 24" fill="none" xmlns="http://www.w3.org/2000/svg">
  <path d="M19.15 12.55v6.6a1.1 1.1 0 0 1-1.1 1.1H5.95a1.1 1.1 0 0 1-1.1-1.1v-6.6m13.859-8.8H5.29a.55.55 0 0 0-.537.43L3.75 8.7a1.65 1.65 0 1 0 3.3 0 1.65 1.65 0 0 0 3.3 0 1.65 1.65 0 1 0 3.3 0 1.65 1.65 0 0 0 3.3 0 1.65 1.65 0 1 0 3.3 0l-1.005-4.52a.55.55 0 0 0-.536-.43ZM16.95 15.3a2.2 2.2 0 1 0-4.4 0v4.95h4.4V15.3ZM9.8 14H7.6a.55.55 0 0 0-.55.55v2.2c0 .304.246.55.55.55h2.2a.55.55 0 0 0 .55-.55v-2.2A.55.55 0 0 0 9.8 14Z" stroke="#1B1B1F" stroke-width="1.5" stroke-linecap="round" stroke-linejoin="round"/>
</svg>
