<svg width="42" height="28" viewBox="0 0 42 28" fill="none" xmlns="http://www.w3.org/2000/svg">
<path d="M31.9688 14.8438V24.9688C31.9688 25.4162 31.7911 25.8455 31.4746 26.162C31.1581 26.4785 30.7289 26.6562 30.2812 26.6562H11.7188C11.2712 26.6562 10.842 26.4785 10.5255 26.162C10.209 25.8455 10.0312 25.4162 10.0312 24.9688V14.8438" stroke="#47474F" stroke-width="2" stroke-linecap="round" stroke-linejoin="round"/>
<path d="M31.2915 1.34375H10.7085C10.5165 1.34372 10.3301 1.40911 10.1802 1.52915C10.0303 1.64919 9.92581 1.81672 9.88387 2.00413L8.34375 8.9375C8.34375 9.60883 8.61043 10.2527 9.08514 10.7274C9.55984 11.2021 10.2037 11.4688 10.875 11.4688C11.5463 11.4688 12.1902 11.2021 12.6649 10.7274C13.1396 10.2527 13.4062 9.60883 13.4062 8.9375C13.4062 9.60883 13.6729 10.2527 14.1476 10.7274C14.6223 11.2021 15.2662 11.4688 15.9375 11.4688C16.6088 11.4688 17.2527 11.2021 17.7274 10.7274C18.2021 10.2527 18.4688 9.60883 18.4688 8.9375C18.4688 9.60883 18.7354 10.2527 19.2101 10.7274C19.6848 11.2021 20.3287 11.4688 21 11.4688C21.6713 11.4688 22.3152 11.2021 22.7899 10.7274C23.2646 10.2527 23.5312 9.60883 23.5312 8.9375C23.5313 9.60883 23.7979 10.2527 24.2726 10.7274C24.7473 11.2021 25.3912 11.4687 26.0625 11.4688C26.7338 11.4687 27.3777 11.2021 27.8524 10.7274C28.3271 10.2527 28.5937 9.60883 28.5938 8.9375C28.5938 9.60883 28.8604 10.2527 29.3351 10.7274C29.8098 11.2021 30.4537 11.4688 31.125 11.4688C31.7963 11.4688 32.4402 11.2021 32.9149 10.7274C33.3896 10.2527 33.6562 9.60883 33.6562 8.9375L32.115 2.00413C32.0735 1.81671 31.9692 1.6491 31.8195 1.52901C31.6697 1.40892 31.4835 1.34356 31.2915 1.34375Z" stroke="#47474F" stroke-width="2" stroke-linecap="round" stroke-linejoin="round"/>
<path d="M28.5938 19.0625C28.5937 18.1674 28.2382 17.3089 27.6052 16.676C26.9723 16.0431 26.1138 15.6875 25.2188 15.6875C24.3235 15.6875 23.4652 16.0431 22.8323 16.676C22.1993 17.3089 21.8438 18.1674 21.8438 19.0625V26.6562H28.5938V19.0625Z" stroke="#47474F" stroke-width="2" stroke-linecap="round" stroke-linejoin="round"/>
<path d="M17.625 18.2188H14.25C13.784 18.2188 13.4062 18.5965 13.4062 19.0625V22.4375C13.4062 22.9035 13.784 23.2812 14.25 23.2812H17.625C18.091 23.2812 18.4688 22.9035 18.4688 22.4375V19.0625C18.4688 18.5965 18.091 18.2188 17.625 18.2188Z" stroke="#47474F" stroke-width="2" stroke-linecap="round" stroke-linejoin="round"/>
<path d="M25.7188 20.75C25.8176 20.75 25.9143 20.7793 25.9965 20.8343C26.0788 20.8892 26.1428 20.9673 26.1807 21.0587C26.2185 21.15 26.2284 21.2506 26.2091 21.3475C26.1898 21.4445 26.1422 21.5336 26.0723 21.6036C26.0024 21.6735 25.9132 21.7211 25.8162 21.7404C25.7192 21.7597 25.6187 21.7498 25.5273 21.7119C25.4359 21.6741 25.3579 21.61 25.3029 21.5278C25.248 21.4456 25.2188 21.3489 25.2188 21.25C25.2188 21.1174 25.2714 20.9902 25.3652 20.8964C25.459 20.8027 25.5861 20.75 25.7188 20.75Z" stroke="#47474F" stroke-width="2" stroke-linecap="round" stroke-linejoin="round"/>
</svg>
