<svg width="32" height="32" viewBox="0 0 32 32" fill="none" xmlns="http://www.w3.org/2000/svg">
<path d="M29.6667 3.50024H2.33333C1.59695 3.50024 1 4.0972 1 4.83358V22.1669C1 22.9033 1.59695 23.5002 2.33333 23.5002H29.6667C30.403 23.5002 31 22.9033 31 22.1669V4.83358C31 4.0972 30.403 3.50024 29.6667 3.50024Z" stroke="#47474F" stroke-width="2" stroke-linecap="round" stroke-linejoin="round"/>
<path d="M10 28.5002H22" stroke="#47474F" stroke-width="2" stroke-linecap="round" stroke-linejoin="round"/>
<path d="M16 23.5002V28.5002" stroke="#47474F" stroke-width="2" stroke-linecap="round" stroke-linejoin="round"/>
<path d="M29.6667 3.50024H2.33333C1.59695 3.50024 1 4.0972 1 4.83358V22.1669C1 22.9033 1.59695 23.5002 2.33333 23.5002H29.6667C30.403 23.5002 31 22.9033 31 22.1669V4.83358C31 4.0972 30.403 3.50024 29.6667 3.50024Z" stroke="#47474F" stroke-width="2" stroke-linecap="round" stroke-linejoin="round"/>
<path d="M10 28.5002H22" stroke="#47474F" stroke-width="2" stroke-linecap="round" stroke-linejoin="round"/>
<path d="M16 23.5002V28.5002" stroke="#47474F" stroke-width="2" stroke-linecap="round" stroke-linejoin="round"/>
</svg>
