<svg width="32" height="32" viewBox="0 0 32 32" fill="none" xmlns="http://www.w3.org/2000/svg">
<path d="M26.9995 1H4.99951C2.79037 1 0.999512 2.79086 0.999512 5V11C0.999512 13.2091 2.79037 15 4.99951 15H26.9995C29.2087 15 30.9995 13.2091 30.9995 11V5C30.9995 2.79086 29.2087 1 26.9995 1Z" stroke="#47474F" stroke-width="2" stroke-linecap="round" stroke-linejoin="round"/>
<path d="M6.99951 5H24.9995" stroke="#47474F" stroke-width="2" stroke-linecap="round" stroke-linejoin="round"/>
<path d="M4.99951 15V13C4.99951 12.4696 5.21023 11.9609 5.5853 11.5858C5.96037 11.2107 6.46908 11 6.99951 11H24.9995C25.5299 11 26.0387 11.2107 26.4137 11.5858C26.7888 11.9609 26.9995 12.4696 26.9995 13V15" stroke="#47474F" stroke-width="2" stroke-linecap="round" stroke-linejoin="round"/>
<path d="M5.17132 29.9796C5.92121 29.2295 6.34247 28.2123 6.34247 27.1516C6.34247 26.091 5.92121 25.0738 5.17132 24.3236C4.79982 23.9522 4.50512 23.5112 4.30406 23.0259C4.103 22.5405 3.99951 22.0203 3.99951 21.495C3.99951 20.9696 4.103 20.4494 4.30406 19.9641C4.50113 19.4884 4.78817 19.0553 5.14933 18.6885" stroke="#47474F" stroke-width="2" stroke-linecap="round" stroke-linejoin="round"/>
<path d="M15.8383 29.9801C16.5882 29.23 17.0095 28.2127 17.0095 27.1521C17.0095 26.0914 16.5882 25.0742 15.8383 24.3241C15.4668 23.9526 15.1721 23.5116 14.9711 23.0263C14.77 22.5409 14.6665 22.0207 14.6665 21.4954C14.6665 20.9701 14.77 20.4499 14.9711 19.9645C15.1679 19.4894 15.4544 19.0569 15.8148 18.6904" stroke="#47474F" stroke-width="2" stroke-linecap="round" stroke-linejoin="round"/>
<path d="M26.5048 29.9801C27.2547 29.23 27.676 28.2128 27.676 27.1521C27.676 26.0915 27.2547 25.0742 26.5048 24.3241C26.1333 23.9527 25.8386 23.5117 25.6376 23.0264C25.4365 22.541 25.333 22.0208 25.333 21.4955C25.333 20.9701 25.4365 20.4499 25.6376 19.9646C25.8349 19.4882 26.1224 19.0546 26.4843 18.6875" stroke="#47474F" stroke-width="2" stroke-linecap="round" stroke-linejoin="round"/>
</svg>
