<svg width="48" height="33" viewBox="0 0 48 33" fill="none" xmlns="http://www.w3.org/2000/svg">
<path fill-rule="evenodd" clip-rule="evenodd" d="M1.61891 26.2166V5.93005C1.61891 5.52994 1.94204 5.20437 2.33916 5.20437H8.70686C16.6951 5.20437 23.194 11.7522 23.194 19.8007V26.9421H2.33916C1.94204 26.9421 1.61891 26.6167 1.61891 26.2166ZM46.3811 26.2166C46.3811 26.6167 46.0579 26.9421 45.6608 26.9421H24.8129V5.93005C24.8129 5.52994 25.1361 5.20437 25.5332 5.20437H45.6608C46.0579 5.20437 46.3811 5.52994 46.3811 5.93005V26.2166ZM45.6608 3.57324H25.5332C24.2434 3.57324 23.194 4.63048 23.194 5.93005V12.7146C20.5782 7.30776 15.0676 3.57324 8.70688 3.57324H2.33918C1.04932 3.57324 0 4.63048 0 5.93005V26.2166C0 27.516 1.04932 28.5732 2.33918 28.5732H45.6608C46.9507 28.5732 48 27.516 48 26.2166V5.93005C48 4.63048 46.9507 3.57324 45.6608 3.57324Z" fill="white"/>
<path fill-rule="evenodd" clip-rule="evenodd" d="M46.3811 26.2166V5.93002C46.3811 5.52991 46.058 5.20435 45.6609 5.20435H25.5331C25.136 5.20435 24.8129 5.52991 24.8129 5.93002V26.9421H45.6609C46.058 26.9421 46.3811 26.6167 46.3811 26.2166Z" fill="#06BEFB"/>
<path fill-rule="evenodd" clip-rule="evenodd" d="M8.70697 5.20435H2.33912C1.942 5.20435 1.61902 5.52991 1.61902 5.93002V26.2166C1.61902 26.6167 1.942 26.9422 2.33912 26.9422H23.1941V19.8007C23.1941 11.7522 16.6952 5.20435 8.70697 5.20435Z" fill="#0063FB"/>
</svg>
