<svg width="48" height="25" viewBox="0 0 48 25" fill="none" xmlns="http://www.w3.org/2000/svg">
  <path fill-rule="evenodd" clip-rule="evenodd" d="M1.619 22.643V2.357c0-.4.323-.726.72-.726h6.368c7.988 0 14.487 6.548 14.487 14.596v7.142H2.339a.724.724 0 0 1-.72-.726Zm44.762 0c0 .4-.323.726-.72.726H24.813V2.357c0-.4.323-.726.72-.726h20.128c.397 0 .72.326.72.726v20.286ZM45.661 0H25.533a2.35 2.35 0 0 0-2.339 2.357V9.14C20.578 3.735 15.068 0 8.707 0H2.339A2.35 2.35 0 0 0 0 2.357v20.286A2.35 2.35 0 0 0 2.34 25h43.32A2.35 2.35 0 0 0 48 22.643V2.357A2.35 2.35 0 0 0 45.66 0Z" fill="#fff"/>
  <path fill-rule="evenodd" clip-rule="evenodd" d="M46.381 22.643V2.357c0-.4-.323-.726-.72-.726H25.533a.724.724 0 0 0-.72.726v21.012H45.66c.397 0 .72-.326.72-.726Z" fill="#06BEFB"/>
  <path fill-rule="evenodd" clip-rule="evenodd" d="M8.707 1.631H2.339a.724.724 0 0 0-.72.726v20.286c0 .4.323.726.72.726h20.855v-7.142c0-8.048-6.499-14.596-14.487-14.596Z" fill="#0063FB"/>
</svg>
