<svg width="32" height="32" viewBox="0 0 32 32" fill="none" xmlns="http://www.w3.org/2000/svg">
<path d="M16.0002 8.00008C17.4729 8.00008 18.6668 6.80617 18.6668 5.33341C18.6668 3.86066 17.4729 2.66675 16.0002 2.66675C14.5274 2.66675 13.3335 3.86066 13.3335 5.33341C13.3335 6.80617 14.5274 8.00008 16.0002 8.00008Z" stroke="#47474F" stroke-width="2" stroke-linecap="round" stroke-linejoin="round"/>
<path d="M21 18.6669V16.0002C21 14.6742 20.4732 13.4024 19.5355 12.4647C18.5979 11.527 17.3261 11.0002 16 11.0002C14.6739 11.0002 13.4021 11.527 12.4645 12.4647C11.5268 13.4024 11 14.6742 11 16.0002V18.6669H13L14 26.6669H18L19 18.6669H21Z" stroke="#47474F" stroke-width="2" stroke-linecap="round" stroke-linejoin="round"/>
<path d="M6.66667 10.6668C8.13943 10.6668 9.33333 9.47292 9.33333 8.00016C9.33333 6.5274 8.13943 5.3335 6.66667 5.3335C5.19391 5.3335 4 6.5274 4 8.00016C4 9.47292 5.19391 10.6668 6.66667 10.6668Z" stroke="#47474F" stroke-width="2" stroke-linecap="round" stroke-linejoin="round"/>
<path d="M5.2613 13.0569C4.47644 13.1747 3.73085 13.4775 3.08609 13.9403C2.44133 14.4031 1.9159 15.0126 1.55318 15.7185C1.19046 16.4244 1.00084 17.2065 1 18.0001V18.6668H3L4 25.3335H8L8.50133 21.9921" stroke="#47474F" stroke-width="2" stroke-linecap="round" stroke-linejoin="round"/>
<path d="M25.3332 10.6668C26.8059 10.6668 27.9998 9.47292 27.9998 8.00016C27.9998 6.5274 26.8059 5.3335 25.3332 5.3335C23.8604 5.3335 22.6665 6.5274 22.6665 8.00016C22.6665 9.47292 23.8604 10.6668 25.3332 10.6668Z" stroke="#47474F" stroke-width="2" stroke-linecap="round" stroke-linejoin="round"/>
<path d="M26.7386 13.0569C27.5234 13.1747 28.269 13.4775 28.9138 13.9403C29.5585 14.4031 30.084 15.0126 30.4467 15.7185C30.8094 16.4244 30.999 17.2065 30.9999 18.0001V18.6668H28.9999L27.9999 25.3335H23.9999L23.4985 21.9921" stroke="#47474F" stroke-width="2" stroke-linecap="round" stroke-linejoin="round"/>
<path d="M5.3335 30.6667H26.6668" stroke="#47474F" stroke-width="2" stroke-linecap="round" stroke-linejoin="round"/>
</svg>
