<svg width="24" height="24" viewBox="0 0 24 24" fill="none" xmlns="http://www.w3.org/2000/svg"><path d="M7.5 18.75a3 3 0 1 0 0-6 3 3 0 0 0 0 6Zm0 0A5.625 5.625 0 0 0 3 21m4.5-2.25A5.626 5.626 0 0 1 12 21a5.627 5.627 0 0 1 4.5-2.25M7.5 9a3 3 0 1 0 0-6 3 3 0 0 0 0 6Zm0 0A5.625 5.625 0 0 0 3 11.25M7.5 9a5.625 5.625 0 0 1 4.5 2.25A5.626 5.626 0 0 1 16.5 9m0 9.75a3 3 0 1 0 0-6 3 3 0 0 0 0 6Zm0 0A5.625 5.625 0 0 1 21 21M16.5 9a3 3 0 1 0 0-6 3 3 0 0 0 0 6Zm0 0a5.625 5.625 0 0 1 4.5 2.25" stroke="#1B1B1F" stroke-width="1.5" stroke-linecap="round" stroke-linejoin="round"/></svg>