<svg width="24" height="24" viewBox="0 0 24 24" fill="none" xmlns="http://www.w3.org/2000/svg">
  <path d="M7.875 18.188a2.75 2.75 0 1 0 0-5.5 2.75 2.75 0 0 0 0 5.5Zm0 0A5.156 5.156 0 0 0 3.75 20.25m4.125-2.063A5.156 5.156 0 0 1 12 20.25a5.155 5.155 0 0 1 4.125-2.063m0 0a2.75 2.75 0 1 0 0-5.5 2.75 2.75 0 0 0 0 5.5Zm0 0a5.156 5.156 0 0 1 4.125 2.063M12 9.25a2.75 2.75 0 1 0 0-5.5 2.75 2.75 0 0 0 0 5.5Zm0 0a5.156 5.156 0 0 0-3.438 1.313M12 9.25a5.156 5.156 0 0 1 3.438 1.313" stroke="#1B1B1F" stroke-width="1.5" stroke-linecap="round" stroke-linejoin="round"/>
</svg>
