<svg width="42" height="28" viewBox="0 0 42 28" fill="none" xmlns="http://www.w3.org/2000/svg">
<path d="M31.5625 20.7708C31.9935 20.7708 32.4068 20.5995 32.7115 20.2948C33.0163 19.9901 33.1875 19.5767 33.1875 19.1458V14.2708C33.1874 13.751 32.9809 13.2526 32.6133 12.8852L29.9375 10.2083H12.0625L9.38667 12.8841C9.20455 13.0662 9.0601 13.2823 8.96158 13.5203C8.86306 13.7582 8.8124 14.0132 8.8125 14.2708V19.1458C8.8125 19.5767 8.98371 19.9901 9.28845 20.2948C9.5932 20.5995 10.0065 20.7708 10.4375 20.7708H31.5625Z" stroke="#47474F" stroke-width="2" stroke-linecap="round" stroke-linejoin="round"/>
<path d="M12.0625 10.2083L13.9291 5.22492C14.0976 4.77888 14.398 4.39478 14.7903 4.12381C15.1826 3.85285 15.6482 3.70789 16.125 3.70825H25.875C26.3518 3.70804 26.8173 3.85306 27.2096 4.12401C27.6019 4.39495 27.9023 4.77897 28.0709 5.22492L29.9375 10.2083H12.0625Z" stroke="#47474F" stroke-width="2" stroke-linecap="round" stroke-linejoin="round"/>
<path d="M12.0625 10.2095L10.4375 8.58447H8.8125" stroke="#47474F" stroke-width="2" stroke-linecap="round" stroke-linejoin="round"/>
<path d="M29.9375 10.2095L31.5625 8.58447H33.1875" stroke="#47474F" stroke-width="2" stroke-linecap="round" stroke-linejoin="round"/>
<path d="M10.4375 20.7708V22.3958C10.4375 22.8267 10.6087 23.2401 10.9135 23.5448C11.2182 23.8495 11.6315 24.0208 12.0625 24.0208C12.4935 24.0208 12.9068 23.8495 13.2115 23.5448C13.5163 23.2401 13.6875 22.8267 13.6875 22.3958V20.7708H10.4375Z" stroke="#47474F" stroke-width="2" stroke-linecap="round" stroke-linejoin="round"/>
<path d="M31.5625 20.7708V22.3958C31.5625 22.8267 31.3913 23.2401 31.0865 23.5448C30.7818 23.8495 30.3685 24.0208 29.9375 24.0208C29.5065 24.0208 29.0932 23.8495 28.7885 23.5448C28.4837 23.2401 28.3125 22.8267 28.3125 22.3958V20.7708H31.5625Z" stroke="#47474F" stroke-width="2" stroke-linecap="round" stroke-linejoin="round"/>
<path d="M33.0111 13.4583H28.3127L26.3486 16.7321C26.2042 16.9726 26 17.1717 25.7559 17.3099C25.5117 17.4481 25.236 17.5207 24.9554 17.5208H17.046C16.765 17.521 16.4887 17.4484 16.2442 17.3099C15.9996 17.1715 15.7951 16.9721 15.6507 16.731L13.6877 13.4583H8.98926" stroke="#47474F" stroke-width="2" stroke-linecap="round" stroke-linejoin="round"/>
<path d="M26.3486 16.7083H33.1877" stroke="#47474F" stroke-width="2" stroke-linecap="round" stroke-linejoin="round"/>
<path d="M15.6516 16.7083H8.8125" stroke="#47474F" stroke-width="2" stroke-linecap="round" stroke-linejoin="round"/>
<path d="M28.3125 13.4583H13.6875" stroke="#47474F" stroke-width="2" stroke-linecap="round" stroke-linejoin="round"/>
</svg>
