<svg width="32" height="32" viewBox="0 0 32 32" fill="none" xmlns="http://www.w3.org/2000/svg">
<path d="M5.00049 12L1.00049 23H9.00049L5.00049 12Z" stroke="#47474F" stroke-width="2" stroke-linecap="round" stroke-linejoin="round"/>
<path d="M5.00049 23V29.6667" stroke="#47474F" stroke-width="2" stroke-linecap="round" stroke-linejoin="round"/>
<path d="M29.0005 29.9998V15.5205" stroke="#47474F" stroke-width="2.04169" stroke-linecap="round" stroke-linejoin="round"/>
<path d="M13.0005 29.9998V15.5205" stroke="#47474F" stroke-width="2.04169" stroke-linecap="round" stroke-linejoin="round"/>
<path d="M18.0005 30V22.8889C18.0005 22.398 18.3985 22 18.8894 22H23.1116C23.6025 22 24.0005 22.398 24.0005 22.8889V30" stroke="#47474F" stroke-width="2" stroke-linecap="round"/>
<path d="M11.0005 17L20.4452 9.44423C20.7698 9.18452 21.2311 9.18452 21.5558 9.44423L31.0005 17" stroke="#47474F" stroke-width="2" stroke-linecap="round"/>
<path d="M19.0005 15H23.0005" stroke="#47474F" stroke-width="2" stroke-linecap="round"/>
<path d="M2.00049 30H29.0005" stroke="#47474F" stroke-width="2" stroke-linecap="round"/>
<path d="M13.5223 8.99922C14.4254 9.01899 15.2991 8.66138 15.9513 8.00498C16.6035 7.34858 16.9809 6.44709 17.0005 5.49863C16.9618 4.61315 16.619 3.77237 16.0354 3.13188C15.4519 2.4914 14.6673 2.09458 13.8266 2.01487C12.986 1.93515 12.1463 2.17793 11.463 2.69827C10.7796 3.21862 10.2989 3.98131 10.1098 4.84519C9.81705 4.70119 9.49799 4.6257 9.17471 4.62395C8.61054 4.61243 8.06501 4.8361 7.65752 5.24602C7.25003 5.65593 7.01378 6.2187 7.00049 6.81112C7.01355 7.4037 7.2497 7.9667 7.65721 8.37682C8.06473 8.78694 8.61039 9.01074 9.17471 8.99922H13.5223Z" stroke="#47474F" stroke-width="2" stroke-linecap="round" stroke-linejoin="round"/>
</svg>
