<svg width="32" height="32" viewBox="0 0 32 32" fill="none" xmlns="http://www.w3.org/2000/svg">
<path d="M21.3999 4H27.3338C27.8642 4 28.3729 4.21071 28.748 4.58579C29.1231 4.96086 29.3338 5.46957 29.3338 6V26C29.3338 26.5304 29.1231 27.0391 28.748 27.4142C28.3729 27.7893 27.8642 28 27.3338 28H21.3999" stroke="#47474F" stroke-width="2" stroke-linecap="round" stroke-linejoin="round"/>
<path d="M16.138 30.6565L3.56655 28.98C3.31688 28.947 3.08837 28.8309 2.92309 28.6532C2.7578 28.4755 2.66686 28.248 2.66699 28.0126V5.20709C2.6668 4.98318 2.74894 4.76599 2.89971 4.59182C3.05047 4.41765 3.26072 4.29705 3.49531 4.25018L16.0667 1.35467C16.2195 1.32414 16.3777 1.3259 16.5297 1.35982C16.6817 1.39374 16.8236 1.45897 16.9451 1.55071C17.0665 1.64246 17.1645 1.75841 17.2317 1.89006C17.299 2.02171 17.3338 2.16574 17.3337 2.31158V29.6892C17.3336 29.8292 17.3012 29.9676 17.2389 30.095C17.1765 30.2223 17.0856 30.3357 16.9722 30.4274C16.8589 30.5191 16.7257 30.587 16.5818 30.6266C16.4378 30.6661 16.2865 30.6763 16.138 30.6565Z" stroke="#47474F" stroke-width="2" stroke-linecap="round" stroke-linejoin="round"/>
<path d="M11.3335 16H13.3335" stroke="#47474F" stroke-width="2" stroke-linecap="round" stroke-linejoin="round"/>
</svg>
