<svg width="24" height="25" viewBox="0 0 24 25" fill="none" xmlns="http://www.w3.org/2000/svg">
<g id="BankIdent">
<path id="Vector" d="M4.7548 16.9854C3.14087 14.1477 2.20745 10.9424 2.02943 7.64718C2.00047 7.11118 2.29883 6.61542 2.77361 6.36499L11.3335 1.84988C11.7506 1.62987 12.2494 1.62987 12.6665 1.84988L21.2264 6.36499C21.7012 6.61542 21.9995 7.11118 21.9706 7.64718C21.7926 10.9424 20.8591 14.1477 19.2452 16.9854C17.6296 19.826 15.3851 22.2051 12.7091 23.9219C12.2767 24.1994 11.7233 24.1994 11.2909 23.9219C8.61491 22.2051 6.37038 19.826 4.7548 16.9854Z" stroke="#71717A" stroke-width="1.5" stroke-linecap="round" stroke-linejoin="round"/>
<path id="Vector 36" d="M8 13.4269L10.5 15.9269L16.5 9.92688" stroke="#71717A" stroke-width="1.5" stroke-linecap="round" stroke-linejoin="round"/>
</g>
</svg>
