<svg xmlns="http://www.w3.org/2000/svg" width="32" height="32" fill="none" viewBox="0 0 32 32"><g clip-path="url(#a)"><path stroke="#47474F" stroke-linecap="round" stroke-linejoin="round" stroke-width="2" d="M1.333 19.912V13.07c0-.519.238-1.016.661-1.383a2.444 2.444 0 0 1 1.596-.572h6.498M8.103 22.845h22.564m-3.13-17.271v-.652l.558-2.438a.886.886 0 0 0-.107-.591 1.083 1.083 0 0 0-.477-.433 1.309 1.309 0 0 0-1.312.112l-5.04 3.272a2.61 2.61 0 0 1-1.398.404h-6.514a2.513 2.513 0 0 0-1.479.455 1.946 1.946 0 0 0-.792 1.174L8.479 18.531a20.468 20.468 0 0 0-.256 6.7c.155 1.493.953 2.881 2.235 3.889 1.282 1.007 2.954 1.559 4.685 1.546h8.378c1.733.013 3.408-.541 4.69-1.551 1.283-1.01 2.079-2.401 2.23-3.897.297-2.2.23-4.425-.195-6.61L27.538 5.575Z"/></g><defs><clipPath id="a"><path fill="#fff" d="M0 0h32v32H0z"/></clipPath></defs></svg>