<svg width="35" height="19" viewBox="0 0 35 19" fill="none" xmlns="http://www.w3.org/2000/svg">
<path fill-rule="evenodd" clip-rule="evenodd" d="M2.50075 18.7676H16.9082H18.5H32.9026C34.0067 18.7676 34.9034 17.8719 34.9034 16.7669V2.76833C34.9034 1.66381 34.0071 0.767578 32.9026 0.767578H18.909C17.8044 0.767578 16.9082 1.66381 16.9082 2.76833V6.48615C14.8954 3.06665 11.1757 0.767578 6.92787 0.767578H2.50075C1.39623 0.767578 0.5 1.66381 0.5 2.76833V16.7669C0.5 17.8719 1.39663 18.7676 2.50075 18.7676ZM18.5 17.2676V12.3397C18.5 11.8447 18.4688 11.3569 18.4082 10.8781V2.76833C18.4082 2.49223 18.6329 2.26758 18.909 2.26758H32.9026C33.1787 2.26758 33.4033 2.49223 33.4033 2.76833V16.7669C33.4033 17.043 33.1787 17.2676 32.9026 17.2676H18.5ZM16.9082 10.9772C16.2411 6.06544 12.0197 2.26758 6.92787 2.26758H2.50075C2.22466 2.26758 2 2.49223 2 2.76833V16.7669C2 17.043 2.22466 17.2676 2.50075 17.2676H16.9082V10.9772Z" fill="white"/>
<path d="M33.4033 16.7669C33.4033 17.043 33.1787 17.2676 32.9026 17.2676H18.4082V2.76833C18.4082 2.49223 18.6329 2.26758 18.909 2.26758H32.9026C33.1787 2.26758 33.4033 2.49223 33.4033 2.76833V16.7669Z" fill="#06BEFB"/>
<path d="M2 16.7669V2.76833C2 2.49223 2.22466 2.26758 2.50075 2.26758H6.92787C12.4817 2.26758 17 6.7859 17 12.3397V17.2676H2.50075C2.22466 17.2676 2 17.043 2 16.7669V16.7669Z" fill="#0063FB"/>
</svg>
