<svg width="42" height="28" viewBox="0 0 42 28" fill="none" xmlns="http://www.w3.org/2000/svg">
<path d="M21 2.75C18.775 2.75 16.5999 3.4098 14.7498 4.64597C12.8998 5.88213 11.4578 7.63914 10.6064 9.69481C9.75487 11.7505 9.53209 14.0125 9.96617 16.1948C10.4003 18.3771 11.4717 20.3816 13.0451 21.955C14.6184 23.5283 16.623 24.5998 18.8052 25.0338C20.9875 25.4679 23.2495 25.2451 25.3052 24.3936C27.3609 23.5422 29.1179 22.1002 30.354 20.2502C31.5902 18.4001 32.25 16.225 32.25 14C32.25 12.5226 31.959 11.0597 31.3937 9.69481C30.8283 8.3299 29.9996 7.08971 28.955 6.04505C27.9103 5.00039 26.6701 4.17172 25.3052 3.60636C23.9403 3.04099 22.4774 2.75 21 2.75Z" stroke="#47474F" stroke-width="2" stroke-linecap="round" stroke-linejoin="round"/>
<path d="M17.8954 18.754L15.9854 12.854L21.0004 9.20801L26.0154 12.854L24.1054 18.754H17.8954Z" stroke="#47474F" stroke-width="2" stroke-linecap="round" stroke-linejoin="round"/>
<path d="M25.3012 3.60107L21.0002 6.50007L16.6992 3.60107" stroke="#47474F" stroke-width="2" stroke-linecap="round" stroke-linejoin="round"/>
<path d="M23.5986 24.948L25.7376 20.582L30.6216 19.832" stroke="#47474F" stroke-width="2" stroke-linecap="round" stroke-linejoin="round"/>
<path d="M32.2141 14.909L28.7871 11.496L29.5221 6.65698" stroke="#47474F" stroke-width="2" stroke-linecap="round" stroke-linejoin="round"/>
<path d="M21 6.5V9.208" stroke="#47474F" stroke-width="2" stroke-linecap="round" stroke-linejoin="round"/>
<path d="M26.0146 12.8541L28.7866 11.4961" stroke="#47474F" stroke-width="2" stroke-linecap="round" stroke-linejoin="round"/>
<path d="M9.78613 14.909L13.2131 11.496L12.4781 6.65698" stroke="#47474F" stroke-width="2" stroke-linecap="round" stroke-linejoin="round"/>
<path d="M15.9849 12.8541L13.2129 11.4961" stroke="#47474F" stroke-width="2" stroke-linecap="round" stroke-linejoin="round"/>
<path d="M24.1055 18.7539L25.7385 20.5819" stroke="#47474F" stroke-width="2" stroke-linecap="round" stroke-linejoin="round"/>
<path d="M18.4009 24.948L16.2619 20.582L11.3779 19.832" stroke="#47474F" stroke-width="2" stroke-linecap="round" stroke-linejoin="round"/>
<path d="M17.8947 18.7539L16.2617 20.5819" stroke="#47474F" stroke-width="2" stroke-linecap="round" stroke-linejoin="round"/>
</svg>
