<svg width="32" height="32" viewBox="0 0 32 32" fill="none" xmlns="http://www.w3.org/2000/svg">
<path d="M14.0617 3.25071C14.3064 3.52231 14.6054 3.73947 14.9394 3.88811C15.2733 4.03676 15.6348 4.11357 16.0004 4.11357C16.3659 4.11357 16.7274 4.03676 17.0614 3.88811C17.3954 3.73947 17.6944 3.52231 17.939 3.25071L19.2004 1.86671C19.5619 1.46663 20.0383 1.18824 20.5644 1.06973C21.0904 0.951219 21.6402 0.998409 22.1383 1.20482C22.6365 1.41123 23.0585 1.76675 23.3465 2.22258C23.6346 2.67841 23.7745 3.2122 23.747 3.75071L23.6524 5.61738C23.6341 5.98152 23.6922 6.34546 23.8231 6.68576C23.954 7.02605 24.1548 7.33515 24.4124 7.59316C24.67 7.85116 24.9788 8.05233 25.3189 8.18373C25.659 8.31512 26.0229 8.37382 26.387 8.35605L28.2537 8.26138C28.7919 8.23485 29.3251 8.3754 29.7802 8.66376C30.2354 8.95213 30.5902 9.3742 30.7961 9.87213C31.002 10.3701 31.0489 10.9195 30.9303 11.4451C30.8117 11.9707 30.5335 12.4468 30.1337 12.808L28.7444 14.0614C28.4731 14.3064 28.2563 14.6056 28.1079 14.9397C27.9594 15.2737 27.8828 15.6352 27.8828 16.0007C27.8828 16.3662 27.9594 16.7277 28.1079 17.0618C28.2563 17.3958 28.4731 17.695 28.7444 17.94L30.1337 19.1934C30.5338 19.5549 30.8122 20.0313 30.9307 20.5574C31.0492 21.0834 31.002 21.6332 30.7956 22.1313C30.5892 22.6295 30.2337 23.0515 29.7779 23.3395C29.322 23.6276 28.7882 23.7675 28.2497 23.74L26.383 23.6454C26.0181 23.6266 25.6533 23.6847 25.3122 23.8158C24.9711 23.9469 24.6613 24.1482 24.4029 24.4066C24.1445 24.665 23.9432 24.9747 23.8121 25.3158C23.681 25.6569 23.6229 26.0218 23.6417 26.3867L23.7364 28.2534C23.7603 28.7892 23.6186 29.3193 23.3307 29.7718C23.0428 30.2243 22.6225 30.5772 22.127 30.7826C21.6316 30.9879 21.0849 31.0358 20.5613 30.9196C20.0377 30.8035 19.5625 30.529 19.2004 30.1334L17.9457 28.7454C17.7008 28.4741 17.4017 28.2573 17.0678 28.1089C16.7338 27.9605 16.3725 27.8838 16.007 27.8838C15.6416 27.8838 15.2802 27.9605 14.9463 28.1089C14.6124 28.2573 14.3133 28.4741 14.0684 28.7454L12.8084 30.1334C12.4468 30.5308 11.9714 30.8071 11.4471 30.9245C10.9228 31.0419 10.375 30.9948 9.87844 30.7895C9.38188 30.5842 8.96071 30.2308 8.67234 29.7775C8.38397 29.3241 8.24244 28.7928 8.26705 28.256L8.36305 26.3894C8.38182 26.0244 8.32377 25.6596 8.19264 25.3185C8.06152 24.9774 7.86025 24.6676 7.60185 24.4092C7.34345 24.1508 7.03368 23.9496 6.69258 23.8184C6.35149 23.6873 5.98666 23.6293 5.62171 23.648L3.75505 23.7427C3.21676 23.7708 2.68297 23.6316 2.22696 23.3442C1.77096 23.0568 1.41509 22.6353 1.20822 22.1375C1.00135 21.6398 0.953624 21.0902 1.07159 20.5643C1.18955 20.0383 1.46742 19.5618 1.86705 19.2L3.25505 17.9467C3.52631 17.7017 3.74315 17.4025 3.89157 17.0684C4.03998 16.7344 4.11667 16.3729 4.11667 16.0074C4.11667 15.6418 4.03998 15.2804 3.89157 14.9463C3.74315 14.6123 3.52631 14.3131 3.25505 14.068L1.86705 12.808C1.46871 12.4467 1.19169 11.9712 1.07385 11.4464C0.956006 10.9217 1.00309 10.3734 1.20868 9.87644C1.41426 9.37948 1.7683 8.95814 2.22241 8.67002C2.67652 8.38189 3.20853 8.24104 3.74571 8.26671L5.61238 8.36138C5.97802 8.3806 6.34361 8.3227 6.68542 8.19143C7.02722 8.06016 7.33759 7.85847 7.59636 7.59944C7.85514 7.34041 8.05654 7.02984 8.18747 6.68791C8.31841 6.34598 8.37596 5.98033 8.35638 5.61471L8.26705 3.74671C8.24185 3.20973 8.38296 2.67806 8.67111 2.22423C8.95925 1.77041 9.38041 1.41655 9.8771 1.21093C10.3738 1.00531 10.9218 0.957953 11.4464 1.07532C11.971 1.19268 12.4467 1.46905 12.8084 1.86671L14.0617 3.25071Z" stroke="#47474F" stroke-width="2" stroke-linecap="round" stroke-linejoin="round"/>
<path d="M16.0003 21.3337C18.9458 21.3337 21.3337 18.9458 21.3337 16.0003C21.3337 13.0548 18.9458 10.667 16.0003 10.667C13.0548 10.667 10.667 13.0548 10.667 16.0003C10.667 18.9458 13.0548 21.3337 16.0003 21.3337Z" stroke="#47474F" stroke-width="2" stroke-linecap="round" stroke-linejoin="round"/>
</svg>
