<svg width="24" height="24" viewBox="0 0 24 24" fill="none" xmlns="http://www.w3.org/2000/svg"><path d="M12 15.75a3.75 3.75 0 1 0 0-7.5 3.75 3.75 0 0 0 0 7.5Z" stroke="#1B1B1F" stroke-width="1.5" stroke-linecap="round" stroke-linejoin="round"/><path d="M3.884 16.696a9.295 9.295 0 0 1-.944-2.277l1.573-1.97a7.645 7.645 0 0 1 0-.903L2.941 9.577A9.321 9.321 0 0 1 3.883 7.3l2.504-.28c.2-.226.413-.44.639-.64l.28-2.502a9.294 9.294 0 0 1 2.275-.937l1.969 1.573c.3-.018.603-.018.904 0l1.968-1.572a9.32 9.32 0 0 1 2.279.942l.28 2.504c.226.2.44.413.64.639l2.502.28c.415.715.732 1.48.944 2.278l-1.573 1.969c.018.3.018.602 0 .903l1.573 1.97a9.321 9.321 0 0 1-.938 2.277l-2.504.282c-.2.225-.413.438-.639.638l-.28 2.503a9.296 9.296 0 0 1-2.278.944l-1.969-1.573a7.653 7.653 0 0 1-.903 0l-1.97 1.572a9.32 9.32 0 0 1-2.277-.937l-.282-2.504a7.6 7.6 0 0 1-.638-.639l-2.505-.293Z" stroke="#1B1B1F" stroke-width="1.5" stroke-linecap="round" stroke-linejoin="round"/></svg>