<svg width="24" height="24" viewBox="0 0 24 24" fill="none" xmlns="http://www.w3.org/2000/svg"><path d="M9.106 19.865a.75.75 0 0 0 1.288.77l-.644-.385-.644-.385Zm10.5.77a.75.75 0 0 0 1.288-.77l-.644.385-.644.385ZM19.5 8.25a.75.75 0 0 0 1.5 0h-1.5Zm-12 5.25a.75.75 0 0 0 0-1.5v1.5Zm-1.125 5.25a.75.75 0 0 0 0-1.5v1.5ZM18.5 13.891h-.75c0 1.437-1.209 2.642-2.75 2.642v1.5c2.325 0 4.25-1.832 4.25-4.142h-.75ZM15 17.283v-.75c-1.541 0-2.75-1.205-2.75-2.642h-1.5c0 2.31 1.925 4.142 4.25 4.142v-.75Zm-3.5-3.392h.75c0-1.436 1.209-2.641 2.75-2.641v-1.5c-2.325 0-4.25 1.832-4.25 4.141h.75ZM15 10.5v.75c1.541 0 2.75 1.205 2.75 2.641h1.5c0-2.309-1.925-4.141-4.25-4.141v.75Zm-5.25 9.75.644.385A5.318 5.318 0 0 1 15 18.033v-1.5a6.818 6.818 0 0 0-5.894 3.332l.644.385ZM15 17.283v.75a5.318 5.318 0 0 1 4.606 2.602l.644-.385.644-.385A6.818 6.818 0 0 0 15 16.533v.75ZM3.75 8.25h.75c0-.393.001-.625.019-.784.018-.166.04-.09-.051.002-.092.092-.168.07-.002.05.16-.017.39-.018.784-.018V6c-.357 0-.688-.001-.95.028-.257.029-.613.1-.893.38-.28.279-.35.635-.379.892-.03.262-.028.593-.028.95h.75Zm1.5-1.5v.75h3.375V6H5.25v.75Zm3.375 0v.75h6.75V6h-6.75v.75Zm6.75 0v.75h3.375V6h-3.375v.75Zm3.375 0v.75c.393 0 .625.001.784.019.166.018.09.04-.002-.051-.092-.092-.07-.168-.05-.002.017.16.018.39.018.784H21c0-.357.001-.688-.028-.95-.029-.257-.1-.613-.38-.893-.279-.28-.635-.35-.892-.379-.262-.03-.593-.028-.95-.028v.75ZM5.25 18v-.75a8.33 8.33 0 0 1-.784-.019c-.166-.018-.09-.04.002.051.092.092.07.168.05.002A8.358 8.358 0 0 1 4.5 16.5H3c0 .357-.001.688.028.95.029.257.1.613.38.893.279.28.635.35.892.379.262.03.593.028.95.028V18Zm-1.5-1.5h.75V9H3v7.5h.75Zm0-7.5h.75v-.75H3V9h.75Zm0 0H3c0 1.295.435 2.433 1.25 3.25.817.815 1.954 1.25 3.25 1.25V12c-.955 0-1.692-.315-2.188-.812C4.815 10.692 4.5 9.955 4.5 9h-.75Zm4.875-2.25h.75V4.875h-1.5V6.75h.75Zm0-1.875h.75c0-.127.016-.208.032-.255.014-.043.027-.056.03-.058.002-.003.015-.016.058-.03A.825.825 0 0 1 9.75 4.5V3c-.49 0-.996.123-1.374.5-.378.379-.501.884-.501 1.375h.75ZM9.75 3.75v.75h4.5V3h-4.5v.75Zm4.5 0v.75c.127 0 .208.016.255.032.043.014.056.027.058.03.002.002.016.015.03.058a.827.827 0 0 1 .032.255h1.5c0-.49-.123-.996-.5-1.374C15.245 3.123 14.74 3 14.25 3v.75Zm1.125 1.125h-.75V6.75h1.5V4.875h-.75ZM6.375 18v-.75H5.25v1.5h1.125V18Z" fill="#1B1B1F"/></svg>