<svg width="32" height="32" viewBox="0 0 32 32" fill="none" xmlns="http://www.w3.org/2000/svg">
<path d="M1.31035 13.276C0.910416 13.6569 0.894978 14.2899 1.27586 14.6898C1.65675 15.0896 2.28972 15.1051 2.68965 14.7243L3 14.4287V29.0002C3 30.4728 4.19391 31.6668 5.66667 31.6668H10.6667C11.4031 31.6668 12 31.0698 12 30.3335V24.6667C12 22 14.2756 20.6667 16 20.6667C17.7244 20.6667 20 22 20 24.6667V30.3335C20 31.0698 20.5969 31.6668 21.3333 31.6668H26.3333C27.8061 31.6668 29 30.4728 29 29.0002V14.4287L29.3104 14.7243C29.7103 15.1051 30.3432 15.0896 30.7241 14.6898C31.1051 14.2899 31.0896 13.6569 30.6896 13.276L17.788 1.61598C16.7727 0.698318 15.2273 0.698318 14.212 1.61598L1.31035 13.276Z" fill="#47474F"/>
</svg>
