<svg width="32" height="32" viewBox="0 0 32 32" fill="none" xmlns="http://www.w3.org/2000/svg">
<path d="M30.0625 16.7188V8M30.0625 8H21.3438M30.0625 8L19.808 18.2545C19.628 18.4346 19.4144 18.5774 19.1792 18.6749C18.9441 18.7723 18.692 18.8225 18.4375 18.8225C18.183 18.8225 17.9309 18.7723 17.6958 18.6749C17.4606 18.5774 17.247 18.4346 17.067 18.2545L13.0267 14.2142C12.8468 14.0342 12.6331 13.8913 12.398 13.7939C12.1628 13.6964 11.9108 13.6463 11.6562 13.6463C11.4017 13.6463 11.1497 13.6964 10.9145 13.7939C10.6794 13.8913 10.4657 14.0342 10.2858 14.2142L1 23.5" stroke="#47474F" stroke-width="2" stroke-linecap="round" stroke-linejoin="round"/>
</svg>
