<svg width="24" height="24" viewBox="0 0 24 24" fill="none" xmlns="http://www.w3.org/2000/svg">
<path d="M9.50008 17.5C9.50008 18.6046 8.60465 19.5 7.50008 19.5C6.39551 19.5 5.50008 18.6046 5.50008 17.5M9.50008 17.5C9.50008 16.3955 8.60465 15.5 7.50008 15.5C6.39551 15.5 5.50008 16.3955 5.50008 17.5M9.50008 17.5L14.0001 17.5M5.50008 17.5H4.00439C3.17428 17.5 2.50202 16.8258 2.5044 15.9957L2.53168 6.49569C2.53405 5.66895 3.20493 5 4.03168 5L17.2975 5.00001C17.7427 5.00001 18.1649 5.19775 18.4499 5.53974L18.8996 6.07946C19.5352 6.84213 18.9928 8.00001 18.0001 8.00001M20.0001 17.5C20.0001 18.6046 19.1047 19.5 18.0001 19.5C16.8955 19.5 16.0001 18.6046 16.0001 17.5M20.0001 17.5C20.0001 16.3955 19.1047 15.5 18.0001 15.5C16.8955 15.5 16.0001 16.3955 16.0001 17.5M20.0001 17.5L20.5001 17.5C21.3285 17.5 22.0001 16.8284 22.0001 16V13.0703C22.0001 12.7029 21.8653 12.3483 21.6212 12.0738L18.0001 8.00001M16.0001 17.5L14.0001 17.5M14.0001 17.5V9.50001C14.0001 8.67159 14.6717 8.00001 15.5001 8.00001H18.0001M21.8874 12.5H14.0003M6.50008 12.5H10.0001C10.5524 12.5 11.0001 12.0523 11.0001 11.5V9.00003C11.0001 8.44775 10.5524 8.00003 10.0001 8.00003H6.50008C5.9478 8.00003 5.50008 8.44775 5.50008 9.00003V11.5C5.50008 12.0523 5.9478 12.5 6.50008 12.5Z" stroke="#1B1B1F" stroke-width="1.5"/>
</svg>
