<svg width="32" height="32" viewBox="0 0 32 32" fill="none" xmlns="http://www.w3.org/2000/svg">
<path d="M30.3996 14.7812V23.5M30.3996 23.5H21.7596M30.3996 23.5L20.2377 13.2455C20.0594 13.0654 19.8477 12.9226 19.6146 12.8251C19.3816 12.7277 19.1318 12.6775 18.8796 12.6775C18.6274 12.6775 18.3776 12.7277 18.1446 12.8251C17.9115 12.9226 17.6998 13.0654 17.5215 13.2455L13.5177 17.2858C13.3394 17.4658 13.1277 17.6087 12.8946 17.7061C12.6616 17.8036 12.4119 17.8537 12.1596 17.8537C11.9074 17.8537 11.6576 17.8036 11.4246 17.7061C11.1915 17.6087 10.9798 17.4658 10.8015 17.2858L1.59961 8" stroke="#47474F" stroke-width="2" stroke-linecap="round" stroke-linejoin="round"/>
</svg>
