<svg width="32" height="32" viewBox="0 0 32 32" fill="none" xmlns="http://www.w3.org/2000/svg">
<path d="M14.6672 26.6667H8.00049C7.47006 26.6667 6.96135 26.456 6.58627 26.0809C6.2112 25.7058 6.00049 25.1971 6.00049 24.6667V8.04688" stroke="#47474F" stroke-width="2" stroke-linecap="round" stroke-linejoin="round"/>
<path d="M2.00049 10.6669L13.7085 2.42694C14.0696 2.12132 14.5274 1.95361 15.0005 1.95361C15.4736 1.95361 15.9314 2.12132 16.2925 2.42694L26.5945 10.6092" stroke="#47474F" stroke-width="2" stroke-linecap="round" stroke-linejoin="round"/>
<path d="M24.0003 16C25.4148 16 26.7714 16.5795 27.7716 17.6109C28.7718 18.6423 29.3337 20.0412 29.3337 21.4999C29.3337 23.8477 26.1479 28.4053 24.7008 30.3144C24.6176 30.4241 24.5113 30.5129 24.39 30.5739C24.2686 30.6349 24.1354 30.6667 24.0003 30.6667C23.8653 30.6667 23.732 30.6349 23.6107 30.5739C23.4893 30.5129 23.383 30.4241 23.2999 30.3144C21.8528 28.4053 18.667 23.8477 18.667 21.4999C18.667 20.0412 19.2289 18.6423 20.2291 17.6109C21.2293 16.5795 22.5858 16 24.0003 16V16Z" stroke="#47474F" stroke-width="2" stroke-linecap="round" stroke-linejoin="round"/>
<path d="M23.3335 21.3335H24.6668" stroke="#47474F" stroke-width="2" stroke-linecap="round" stroke-linejoin="round"/>
<path d="M10.667 14.6667V10.6667H14.667V14.6667H10.667Z" stroke="#47474F" stroke-width="2" stroke-linecap="round" stroke-linejoin="round"/>
</svg>
