<svg width="42" height="28" viewBox="0 0 42 28" fill="none" xmlns="http://www.w3.org/2000/svg">
<path d="M25.6667 1H17.3333C15.4924 1 14 2.55208 14 4.46667V23.5333C14 25.4479 15.4924 27 17.3333 27H25.6667C27.5076 27 29 25.4479 29 23.5333V4.46667C29 2.55208 27.5076 1 25.6667 1Z" stroke="#47474F" stroke-width="2" stroke-linecap="round" stroke-linejoin="round"/>
<path d="M19 6C19 5.44772 18.5523 5 18 5C17.4477 5 17 5.44772 17 6C17 6.55228 17.4477 7 18 7C18.5523 7 19 6.55228 19 6Z" fill="#47474F"/>
<path d="M19 9.375C19 8.82272 18.5523 8.375 18 8.375C17.4477 8.375 17 8.82272 17 9.375C17 9.92728 17.4477 10.375 18 10.375C18.5523 10.375 19 9.92728 19 9.375Z" fill="#47474F"/>
<path d="M19 12.75C19 12.1977 18.5523 11.75 18 11.75C17.4477 11.75 17 12.1977 17 12.75C17 13.3023 17.4477 13.75 18 13.75C18.5523 13.75 19 13.3023 19 12.75Z" fill="#47474F"/>
<path d="M19 22.875C19 22.3227 18.5523 21.875 18 21.875C17.4477 21.875 17 22.3227 17 22.875C17 23.4273 17.4477 23.875 18 23.875C18.5523 23.875 19 23.4273 19 22.875Z" fill="#47474F"/>
<path d="M22.5 6C22.5 5.44772 22.0523 5 21.5 5C20.9477 5 20.5 5.44772 20.5 6C20.5 6.55228 20.9477 7 21.5 7C22.0523 7 22.5 6.55228 22.5 6Z" fill="#47474F"/>
<path d="M22.5 9.375C22.5 8.82272 22.0523 8.375 21.5 8.375C20.9477 8.375 20.5 8.82272 20.5 9.375C20.5 9.92728 20.9477 10.375 21.5 10.375C22.0523 10.375 22.5 9.92728 22.5 9.375Z" fill="#47474F"/>
<path d="M22.5 12.75C22.5 12.1977 22.0523 11.75 21.5 11.75C20.9477 11.75 20.5 12.1977 20.5 12.75C20.5 13.3023 20.9477 13.75 21.5 13.75C22.0523 13.75 22.5 13.3023 22.5 12.75Z" fill="#47474F"/>
<path d="M22.5 22.875C22.5 22.3227 22.0523 21.875 21.5 21.875C20.9477 21.875 20.5 22.3227 20.5 22.875C20.5 23.4273 20.9477 23.875 21.5 23.875C22.0523 23.875 22.5 23.4273 22.5 22.875Z" fill="#47474F"/>
<path d="M26 6C26 5.44772 25.5523 5 25 5C24.4477 5 24 5.44772 24 6C24 6.55228 24.4477 7 25 7C25.5523 7 26 6.55228 26 6Z" fill="#47474F"/>
<path d="M26 9.375C26 8.82272 25.5523 8.375 25 8.375C24.4477 8.375 24 8.82272 24 9.375C24 9.92728 24.4477 10.375 25 10.375C25.5523 10.375 26 9.92728 26 9.375Z" fill="#47474F"/>
<path d="M26 22.875C26 22.3227 25.5523 21.875 25 21.875C24.4477 21.875 24 22.3227 24 22.875C24 23.4273 24.4477 23.875 25 23.875C25.5523 23.875 26 23.4273 26 22.875Z" fill="#47474F"/>
</svg>
