<svg width="42" height="28" viewBox="0 0 42 28" fill="none" xmlns="http://www.w3.org/2000/svg">
<path d="M9.92285 12.375H32.077" stroke="#47474F" stroke-width="2" stroke-linecap="round" stroke-linejoin="round"/>
<path d="M10.5103 20.5H31.4901" stroke="#47474F" stroke-width="2" stroke-linecap="round" stroke-linejoin="round"/>
<path d="M32.3404 17.25H26.3929C26.2524 17.25 26.1177 17.1942 26.0183 17.0948C25.919 16.9955 25.8632 16.8607 25.8632 16.7202V16.1548C25.8632 16.0143 25.8074 15.8795 25.708 15.7802C25.6087 15.6808 25.4739 15.625 25.3334 15.625H23.1408C23.0003 15.625 22.8655 15.6808 22.7662 15.7802C22.6668 15.8795 22.611 16.0143 22.611 16.1548V16.7202C22.611 16.8604 22.5555 16.9948 22.4566 17.0941C22.3577 17.1934 22.2236 17.2494 22.0834 17.25H19.9005C19.76 17.25 19.6253 17.1942 19.5259 17.0948C19.4266 16.9955 19.3708 16.8607 19.3708 16.7202V16.1548C19.3708 16.0852 19.3571 16.0163 19.3304 15.952C19.3038 15.8878 19.2648 15.8294 19.2156 15.7802C19.1664 15.731 19.108 15.6919 19.0437 15.6653C18.9795 15.6387 18.9106 15.625 18.841 15.625H16.6462C16.5766 15.625 16.5077 15.6387 16.4435 15.6653C16.3792 15.6919 16.3208 15.731 16.2716 15.7802C16.2224 15.8294 16.1834 15.8878 16.1568 15.952C16.1301 16.0163 16.1164 16.0852 16.1164 16.1548V16.7202C16.1164 16.7901 16.1026 16.8592 16.0758 16.9237C16.049 16.9882 16.0097 17.0468 15.9601 17.096C15.9106 17.1452 15.8518 17.1842 15.7872 17.2106C15.7225 17.237 15.6533 17.2504 15.5834 17.25H9.65869" stroke="#47474F" stroke-width="2" stroke-linecap="round" stroke-linejoin="round"/>
<path d="M23.4375 1.8125V3.275C23.4375 3.82171 23.5753 4.3596 23.8384 4.83887C24.1014 5.31815 24.4811 5.72333 24.9423 6.01692L29.3644 8.83358C30.2872 9.42072 31.0468 10.2312 31.5731 11.19C32.0993 12.1487 32.3752 13.2248 32.375 14.3185V16.4375C32.375 19.0234 31.3478 21.5033 29.5193 23.3318C27.6908 25.1603 25.2109 26.1875 22.625 26.1875H19.375C16.7891 26.1875 14.3092 25.1603 12.4807 23.3318C10.6522 21.5033 9.625 19.0234 9.625 16.4375V14.3185C9.62502 13.225 9.90093 12.1491 10.4272 11.1906C10.9534 10.232 11.713 9.4217 12.6356 8.83467L17.0578 6.018C17.5191 5.72432 17.8989 5.31897 18.1619 4.83948C18.4249 4.36 18.5627 3.82189 18.5625 3.275V1.8125" stroke="#47474F" stroke-width="2" stroke-linecap="round" stroke-linejoin="round"/>
<path d="M16.125 1.8125H25.875" stroke="#47474F" stroke-width="2" stroke-linecap="round" stroke-linejoin="round"/>
</svg>
