<svg width="24" height="24" viewBox="0 0 24 24" fill="none" xmlns="http://www.w3.org/2000/svg">
  <path d="M3.966 10.9h16.068M4.392 16.4h15.216m.617-2.2H15.91a.399.399 0 0 1-.272-.105.347.347 0 0 1-.112-.254v-.382a.347.347 0 0 0-.113-.254.398.398 0 0 0-.271-.105h-1.59c-.103 0-.2.038-.272.105a.347.347 0 0 0-.113.254v.382c0 .095-.04.186-.112.254a.398.398 0 0 1-.27.105h-1.584a.399.399 0 0 1-.271-.105.347.347 0 0 1-.113-.254v-.382a.337.337 0 0 0-.03-.138.36.36 0 0 0-.082-.116.39.39 0 0 0-.272-.105H8.842a.408.408 0 0 0-.272.105.337.337 0 0 0-.113.254v.382a.339.339 0 0 1-.113.255.388.388 0 0 1-.273.104H3.774m9.994-10.45v.99c0 .37.1.734.29 1.059.191.324.467.598.801.797l3.208 1.907a4.54 4.54 0 0 1 1.601 1.595c.382.649.582 1.377.582 2.118v1.434c0 1.75-.745 3.43-2.071 4.667-1.326 1.238-3.125 1.933-5 1.933H10.82c-1.875 0-3.674-.695-5-1.933S3.75 15.4 3.75 13.65v-1.434c0-.74.2-1.469.582-2.118a4.54 4.54 0 0 1 1.602-1.595L9.14 6.597a2.27 2.27 0 0 0 .8-.798c.191-.325.291-.689.291-1.059v-.99m-1.768 0h7.072" stroke="#1B1B1F" stroke-width="1.5" stroke-linecap="round" stroke-linejoin="round"/>
</svg>
