<svg width="24" height="24" viewBox="0 0 24 24" fill="none" xmlns="http://www.w3.org/2000/svg">
  <path d="m3.75 13.875 2.25-.75 4.5.75c.85 0 1.218 1.096 1.105 1.722M3.75 18.375l6.75 1.875L18.375 18c1.875-.75 1.5-3.375 0-3l-6.77.597M6.75 16.5h3.75c.65 0 1.02-.424 1.105-.903m4.881-9.141-.024 2.076m-4.726.296c.437 1.075.803 1.645 1.248 1.977.05.037.103.073.156.106.477.29 2.387.293 3.597.332l.142.004c.938.01 1.407.015 1.947-.38.54-.397.622-.703.785-1.315a8.229 8.229 0 0 0 .263-2.022 8.23 8.23 0 0 0-.216-2.027c-.149-.616-.223-.923-.754-1.33-.53-.408-1-.413-1.937-.423l-.142.001c-1.21.013-3.122.036-3.605.317a2.051 2.051 0 0 0-.158.102c-.453.323-.831.824-1.293 1.89l-6.175-.066-1.469 1.369 1.437 1.4.918-.856.898.875.98-.913.897.875 2.481.084Z" stroke="#1B1B1F" stroke-width="1.5" stroke-linecap="round" stroke-linejoin="round"/>
</svg>
