<svg width="24" height="24" viewBox="0 0 24 24" fill="none" xmlns="http://www.w3.org/2000/svg"><path d="M11.563 2.383a.784.784 0 0 0-.288.355L8.967 8.325l-5.992.488a.793.793 0 0 0-.449 1.39l4.566 3.937-1.395 5.882a.788.788 0 0 0 1.174.86l4.692-2.886V2.383Z" fill="#1B1B1F"/><path d="m12 17.727.393-.639a.75.75 0 0 0-.785 0l.393.64Zm5.13 3.155-.392.639.003.002.39-.641Zm1.174-.86-.73.173.002.005.728-.178Zm-1.395-5.886-.49-.568a.75.75 0 0 0-.24.74l.73-.172Zm4.566-3.938.49.568.005-.004-.495-.564Zm-.45-1.385.071-.747-.01-.001-.06.748Zm-5.99-.488-.694.286a.75.75 0 0 0 .633.462l.06-.748Zm-2.309-5.587-.694.283.001.003.693-.286Zm-1.451 0 .693.286.001-.003-.694-.283ZM8.967 8.325l.06.748a.75.75 0 0 0 .633-.462l-.693-.286Zm-5.992.488-.06-.748H2.91l.065.748Zm-.449 1.39-.49.568.49-.568Zm4.566 3.937.73.173a.75.75 0 0 0-.24-.74l-.49.567Zm-1.395 5.882.728.178.002-.005-.73-.173Zm1.174.86.389.641.003-.002-.392-.64Zm4.692-2.886.393.639.357-.22v-.419h-.75Zm.438-.269-.393.64 5.13 3.154.393-.64.392-.638-5.13-3.155-.393.64Zm5.13 3.155-.39.641c.26.158.561.235.865.222l-.033-.75-.032-.749a.037.037 0 0 1-.021-.005l-.39.64Zm.442.113.033.75c.303-.013.596-.116.842-.296l-.444-.605-.443-.605a.037.037 0 0 1-.02.007l.032.75Zm.431-.15.444.604c.245-.18.431-.428.536-.713l-.705-.257-.705-.257a.037.037 0 0 1-.013.017l.444.605Zm.275-.366.705.257c.104-.286.12-.596.049-.891l-.729.177-.728.178a.037.037 0 0 1-.002.022l.705.257Zm.025-.457.73-.173-1.395-5.886-.73.173-.73.173 1.396 5.886.73-.173Zm-1.395-5.886.49.568 4.566-3.938-.49-.568-.49-.568-4.566 3.938.49.568Zm4.566-3.938.495.564c.226-.2.39-.46.47-.75l-.724-.2-.723-.198a.044.044 0 0 1-.013.02l.495.564Zm.241-.385.723.198c.08-.29.073-.598-.02-.885l-.713.232-.713.23a.043.043 0 0 1 0 .026l.723.199Zm-.01-.455.714-.232a1.544 1.544 0 0 0-.503-.728l-.47.585-.468.586a.044.044 0 0 1 .014.02l.713-.231Zm-.258-.375.469-.585a1.543 1.543 0 0 0-.82-.332l-.071.747-.07.746c.008.001.016.004.023.01l.469-.586Zm-.422-.17.06-.748-5.99-.487-.062.747-.06.748 5.991.487.06-.747Zm-5.992-.488.693-.286L13.42 2.45l-.693.287-.693.286 2.308 5.587.693-.286Zm-2.308-5.587.694-.284a1.533 1.533 0 0 0-.564-.693l-.418.622-.419.623c.006.003.01.009.013.015l.694-.283Zm-.288-.355.418-.622c-.253-.17-.55-.261-.855-.261V3c.006 0 .013.002.018.006l.419-.623ZM12 2.25V1.5c-.304 0-.602.09-.855.26l.418.623.419.623A.034.034 0 0 1 12 3v-.75Zm-.437.133-.418-.622c-.253.17-.45.411-.564.693l.694.284.694.283a.033.033 0 0 1 .013-.015l-.419-.623Zm-.288.355-.693-.287L8.274 8.04l.693.286.693.286 2.308-5.587-.693-.286ZM8.967 8.325l-.061-.747-5.992.487.061.748.061.747 5.992-.487-.061-.748Zm-5.992.488-.065-.748c-.303.027-.59.142-.827.331l.467.586.468.587a.043.043 0 0 1 .023-.01l-.066-.746Zm-.425.17-.467-.587a1.543 1.543 0 0 0-.507.732l.714.23.714.231a.043.043 0 0 1 .014-.02l-.468-.587Zm-.26.376-.714-.23c-.093.288-.1.598-.017.89l.722-.203.722-.202a.043.043 0 0 1 0-.025l-.713-.23Zm-.01.457-.721.203c.081.292.247.553.477.752l.49-.568.49-.568a.043.043 0 0 1-.013-.02l-.722.201Zm.246.387-.49.568 4.566 3.937.49-.568.49-.568-4.566-3.937-.49.568Zm4.566 3.937-.73-.173-1.395 5.882.73.173.73.173 1.395-5.882-.73-.173Zm-1.395 5.882-.729-.177c-.072.295-.055.605.05.89l.704-.256.705-.257a.037.037 0 0 1-.002-.022l-.728-.178Zm.025.457-.705.257c.105.285.291.534.536.713l.444-.605.443-.605a.037.037 0 0 1-.013-.017l-.705.257Zm.275.365-.444.605c.246.18.539.283.842.296l.033-.75.032-.749a.037.037 0 0 1-.02-.007l-.443.605Zm.43.151-.032.75c.304.013.605-.064.865-.222l-.39-.641-.389-.641a.037.037 0 0 1-.02.005l-.033.75Zm.444-.113.392.639 5.13-3.155-.393-.639-.392-.639-5.13 3.155.393.639Zm4.692-2.886h.75V2.383h-1.5v15.613h.75Zm-4.692 2.886.392.639 4.693-2.886-.393-.639-.392-.639-4.693 2.886.393.639Z" fill="#1B1B1F"/></svg>