<svg width="32" height="32" viewBox="0 0 32 32" fill="none" xmlns="http://www.w3.org/2000/svg">
<path d="M28.5006 31V9C28.5006 6.87827 27.6577 4.84344 26.1574 3.34315C24.6571 1.84285 22.6223 1 20.5006 1C18.3788 1 16.344 1.84285 14.8437 3.34315C13.3892 4.79767 12.5526 6.75461 12.5029 8.80608" stroke="#47474F" stroke-width="2" stroke-linecap="round" stroke-linejoin="round"/>
<path d="M6.50049 15C6.50049 13.4087 7.13263 11.8826 8.25785 10.7574C9.38307 9.63214 10.9092 9 12.5005 9C14.0918 9 15.6179 9.63214 16.7431 10.7574C17.8683 11.8826 18.5005 13.4087 18.5005 15H6.50049Z" stroke="#47474F" stroke-width="2" stroke-linecap="round" stroke-linejoin="round"/>
<path d="M7.50049 19L6.50049 22" stroke="#47474F" stroke-width="2" stroke-linecap="round" stroke-linejoin="round"/>
<path d="M4.50049 28L3.50049 31" stroke="#47474F" stroke-width="2" stroke-linecap="round" stroke-linejoin="round"/>
<path d="M17.5005 19L18.5005 22" stroke="#47474F" stroke-width="2" stroke-linecap="round" stroke-linejoin="round"/>
<path d="M20.5005 28L21.5005 31" stroke="#47474F" stroke-width="2" stroke-linecap="round" stroke-linejoin="round"/>
<path d="M12.5005 19V22" stroke="#47474F" stroke-width="2" stroke-linecap="round" stroke-linejoin="round"/>
<path d="M12.5005 31V28" stroke="#47474F" stroke-width="2" stroke-linecap="round" stroke-linejoin="round"/>
</svg>
