<svg width="42" height="28" viewBox="0 0 42 28" fill="none" xmlns="http://www.w3.org/2000/svg">
<path d="M15 13H23" stroke="#47474F" stroke-width="2" stroke-linecap="round" stroke-linejoin="round"/>
<path d="M15 5H35C37.2091 5 39 6.79086 39 9V9C39 11.2091 37.2091 13 35 13H34" stroke="#47474F" stroke-width="2" stroke-linecap="round" stroke-linejoin="round"/>
<path d="M14 2H7.5C5.84315 2 4.5 3.34315 4.5 5V8L2.29289 10.2071C2.10536 10.3946 2 10.649 2 10.9142V15C2 15.5523 2.44772 16 3 16H14C14.5523 16 15 15.5523 15 15V3C15 2.44772 14.5523 2 14 2Z" stroke="#47474F" stroke-width="2" stroke-linecap="round"/>
<path d="M11.5 6H8" stroke="#47474F" stroke-width="2" stroke-linecap="round"/>
<path d="M18 23L15 26" stroke="#47474F" stroke-width="2" stroke-linecap="round"/>
<path d="M17 19L16 20" stroke="#47474F" stroke-width="2" stroke-linecap="round"/>
<path d="M21.5 9H15" stroke="#47474F" stroke-width="2" stroke-linecap="round"/>
<circle cx="28.5" cy="18.5" r="7.5" stroke="#47474F" stroke-width="2" stroke-linecap="round" stroke-linejoin="round"/>
<path d="M32 19C32 16.7909 30.2091 15 28 15" stroke="#47474F" stroke-width="2" stroke-linecap="round" stroke-linejoin="round"/>
<path d="M19 4V5" stroke="#47474F" stroke-width="2" stroke-linecap="round" stroke-linejoin="round"/>
<path d="M19 13V14" stroke="#47474F" stroke-width="2" stroke-linecap="round" stroke-linejoin="round"/>
<path d="M24 4V5" stroke="#47474F" stroke-width="2" stroke-linecap="round" stroke-linejoin="round"/>
<path d="M29 4V5" stroke="#47474F" stroke-width="2" stroke-linecap="round" stroke-linejoin="round"/>
<path d="M34 4V5" stroke="#47474F" stroke-width="2" stroke-linecap="round" stroke-linejoin="round"/>
<path d="M38.6059 12.5804L38.1063 11.9998" stroke="#47474F" stroke-width="2" stroke-linecap="round" stroke-linejoin="round"/>
<path d="M38.106 5.84868L38.6107 5.26455" stroke="#47474F" stroke-width="2" stroke-linecap="round" stroke-linejoin="round"/>
<path d="M40 9L39 9" stroke="#47474F" stroke-width="2" stroke-linecap="round" stroke-linejoin="round"/>
</svg>
