<svg width="32" height="32" viewBox="0 0 32 32" fill="none" xmlns="http://www.w3.org/2000/svg">
<path d="M11.7374 23.4212L8.00049 27.0002V21.0002H3.89794C3.3947 21.0002 2.91208 20.8003 2.55624 20.4444C2.2004 20.0886 2.00049 19.606 2.00049 19.1027V3.89745C2.00049 3.39421 2.2004 2.91159 2.55624 2.55575C2.91208 2.19991 3.3947 2 3.89794 2H25.103C25.6063 2 26.0889 2.19991 26.4447 2.55575C26.8006 2.91159 27.0005 3.39421 27.0005 3.89745V9.54532" stroke="#47474F" stroke-width="2" stroke-linecap="round" stroke-linejoin="round"/>
<path d="M6.66699 6.6665H21.3337" stroke="#47474F" stroke-width="2" stroke-linecap="round" stroke-linejoin="round"/>
<path d="M6.66699 12H13.3337" stroke="#47474F" stroke-width="2" stroke-linecap="round" stroke-linejoin="round"/>
<path d="M22.6668 25.6667C25.6123 25.6667 28.0002 23.2789 28.0002 20.3333C28.0002 17.3878 25.6123 15 22.6668 15C19.7213 15 17.3335 17.3878 17.3335 20.3333C17.3335 23.2789 19.7213 25.6667 22.6668 25.6667Z" stroke="#47474F" stroke-width="2" stroke-linecap="round" stroke-linejoin="round"/>
<path d="M29.3338 29.6667C28.6894 28.8611 27.7287 28.1875 26.5545 27.7178C25.3802 27.2481 24.0366 27 22.6672 27C21.2978 27 19.9541 27.2481 18.7799 27.7178C17.6056 28.1875 16.6449 28.8611 16.0005 29.6667" stroke="#47474F" stroke-width="2" stroke-linecap="round" stroke-linejoin="round"/>
</svg>
