<svg width="16" height="17" viewBox="0 0 16 17" fill="none" xmlns="http://www.w3.org/2000/svg">
<path d="M3.99951 9.74197L5.63284 12.06C5.6948 12.1525 5.77796 12.2289 5.87541 12.2828C5.97286 12.3368 6.08177 12.3666 6.19309 12.37C6.30441 12.3733 6.41491 12.35 6.51541 12.302C6.6159 12.254 6.70348 12.1827 6.77084 12.094L11.9995 5.47864" stroke="#059E6F" stroke-linecap="round" stroke-linejoin="round"/>
<path d="M0.499512 8.9259C0.499512 10.915 1.28969 12.8227 2.69621 14.2292C4.10273 15.6357 6.01039 16.4259 7.99951 16.4259C9.98864 16.4259 11.8963 15.6357 13.3028 14.2292C14.7093 12.8227 15.4995 10.915 15.4995 8.9259C15.4995 6.93678 14.7093 5.02913 13.3028 3.6226C11.8963 2.21608 9.98864 1.4259 7.99951 1.4259C6.01039 1.4259 4.10273 2.21608 2.69621 3.6226C1.28969 5.02913 0.499512 6.93678 0.499512 8.9259Z" stroke="#059E6F" stroke-linecap="round" stroke-linejoin="round"/>
</svg>
