<svg width="32" height="32" viewBox="0 0 32 32" fill="none" xmlns="http://www.w3.org/2000/svg">
<path d="M23.5003 12.0002C23.7244 11.9979 23.9463 12.0454 24.1498 12.1394C24.3533 12.2335 24.5333 12.3715 24.6769 12.5437C24.8205 12.7158 24.924 12.9178 24.9799 13.1348C25.0358 13.3519 25.0428 13.5787 25.0003 13.7988C24.5494 15.846 23.413 17.6778 21.7791 18.9909C20.1452 20.3041 18.1118 21.02 16.0156 21.02C13.9194 21.02 11.8861 20.3041 10.2522 18.9909C8.61827 17.6778 7.48182 15.846 7.03095 13.7988C6.98788 13.5784 6.99453 13.3512 7.05041 13.1337C7.10629 12.9163 7.20999 12.714 7.35396 12.5416C7.49793 12.3693 7.67853 12.2313 7.88261 12.1376C8.08668 12.0439 8.30909 11.997 8.53362 12.0002H23.5003Z" stroke="#47474F" stroke-width="2" stroke-linecap="round" stroke-linejoin="round"/>
<path d="M26.001 30.9999L21.645 19.1025" stroke="#47474F" stroke-width="2" stroke-linecap="round" stroke-linejoin="round"/>
<path d="M6.00049 30.9999L10.3565 19.1025" stroke="#47474F" stroke-width="2" stroke-linecap="round" stroke-linejoin="round"/>
<path d="M24.5359 27H7.46387" stroke="#47474F" stroke-width="2" stroke-linecap="round" stroke-linejoin="round"/>
<path d="M23.3492 8.19053L23.5652 7.90253C23.8955 7.47013 24.0462 6.92693 23.9858 6.38616C23.9255 5.84539 23.6587 5.34879 23.2412 4.99986C22.8242 4.65056 22.5579 4.1539 22.4978 3.61323C22.4377 3.07257 22.5884 2.52955 22.9185 2.09719L23.7177 1.03125" stroke="#47474F" stroke-width="2" stroke-linecap="round" stroke-linejoin="round"/>
<path d="M15.5313 8.19067L15.7473 7.90267C16.0777 7.47027 16.2283 6.92707 16.168 6.38631C16.1076 5.84554 15.8409 5.34893 15.4233 5.00001C15.0063 4.65071 14.74 4.15404 14.6799 3.61338C14.6198 3.07272 14.7705 2.5297 15.1007 2.09734L15.8992 1.03223" stroke="#47474F" stroke-width="2" stroke-linecap="round" stroke-linejoin="round"/>
<path d="M7.53134 8.19049L7.74734 7.90249C8.07765 7.47009 8.22833 6.92689 8.16797 6.38612C8.10761 5.84535 7.84087 5.34874 7.42334 4.99982C7.00631 4.65052 6.74004 4.15385 6.67994 3.61319C6.61983 3.07253 6.77053 2.52951 7.10068 2.09715L7.90106 1.02954" stroke="#47474F" stroke-width="2" stroke-linecap="round" stroke-linejoin="round"/>
</svg>
