<svg width="24" height="24" viewBox="0 0 24 24" fill="none" xmlns="http://www.w3.org/2000/svg"><path d="m18.75 21.75-2.94-7.74M5.25 21.75l2.94-7.74m9.57 5.138H6.239M16.96 6.909l.146-.187a1.338 1.338 0 0 0-.219-1.889 1.34 1.34 0 0 1-.218-1.889l.54-.693M11.683 6.91l.146-.187a1.338 1.338 0 0 0-.219-1.889 1.339 1.339 0 0 1-.218-1.889l.54-.692M6.284 6.909l.146-.187a1.339 1.339 0 0 0-.22-1.889 1.34 1.34 0 0 1-.218-1.889l.541-.694m10.53 7.138c.15-.001.3.03.438.09.137.062.258.152.355.264a.95.95 0 0 1 .218.817 5.96 5.96 0 0 1-2.174 3.378 6.356 6.356 0 0 1-3.89 1.32 6.356 6.356 0 0 1-3.89-1.32 5.96 5.96 0 0 1-2.174-3.378.947.947 0 0 1 .218-.818c.097-.113.22-.202.357-.263.138-.061.288-.092.44-.09h10.101Z" stroke="#1B1B1F" stroke-width="1.5" stroke-linecap="round" stroke-linejoin="round"/></svg>