<svg width="32" height="32" viewBox="0 0 32 32" fill="none" xmlns="http://www.w3.org/2000/svg">
<path d="M22.6668 16V29.3333H5.3335V24.8169V16" stroke="#47474F" stroke-width="2" stroke-linecap="round" stroke-linejoin="round"/>
<path d="M22.667 29.3334H30.0003V5.33341C30.0003 3.86066 28.8064 2.66675 27.3337 2.66675H25.3337C23.8609 2.66675 22.667 3.86066 22.667 5.33341V12.0001" stroke="#47474F" stroke-width="2" stroke-linecap="round" stroke-linejoin="round"/>
<path d="M18.5341 28.8167L9.46741 21.4501" stroke="#47474F" stroke-width="2" stroke-linecap="round" stroke-linejoin="round"/>
<path d="M18.6668 29.3333V21.3333H9.3335V29.3333" stroke="#47474F" stroke-width="2" stroke-linecap="round" stroke-linejoin="round"/>
<path d="M22.667 9.33325H30.0003" stroke="#47474F" stroke-width="2" stroke-linecap="round" stroke-linejoin="round"/>
<path d="M22.667 21.3333H30.0003" stroke="#47474F" stroke-width="2" stroke-linecap="round" stroke-linejoin="round"/>
<path d="M22.667 25.3333H30.0003" stroke="#47474F" stroke-width="2" stroke-linecap="round" stroke-linejoin="round"/>
<path d="M2.66699 17.3333L14.0003 9.33325L25.3337 17.3333" stroke="#47474F" stroke-width="2" stroke-linecap="round" stroke-linejoin="round"/>
<path d="M12.0005 15.9167L14.0005 14.6667L16.0005 15.9167" stroke="#47474F" stroke-width="2" stroke-linecap="round" stroke-linejoin="round"/>
<path d="M2.66699 8L4.66699 9.41667L6.66699 8" stroke="#47474F" stroke-width="2" stroke-linecap="round" stroke-linejoin="round"/>
<path d="M8.00049 2.66675L10.0005 4.08341L12.0005 2.66675" stroke="#47474F" stroke-width="2" stroke-linecap="round" stroke-linejoin="round"/>
</svg>
