<svg width="32" height="32" viewBox="0 0 32 32" fill="none" xmlns="http://www.w3.org/2000/svg">
<path d="M1.00049 21C1.00049 18.7909 2.79135 17 5.00049 17H27.0005C29.2096 17 31.0005 18.7909 31.0005 21V24.6667C31.0005 25.403 30.4035 26 29.6672 26H2.33382C1.59744 26 1.00049 25.403 1.00049 24.6667V21Z" stroke="#47474F" stroke-width="2"/>
<path d="M5.00049 21H8.00049L7.00049 23" stroke="#47474F" stroke-width="2" stroke-linecap="round" stroke-linejoin="round"/>
<path d="M27.0005 21H24.0005L25.0005 23" stroke="#47474F" stroke-width="2" stroke-linecap="round" stroke-linejoin="round"/>
<path d="M2.00049 26V28C2.00049 29.1046 2.89592 30 4.00049 30V30C5.10506 30 6.00049 29.1046 6.00049 28V26" stroke="#47474F" stroke-width="2"/>
<path d="M26.0005 26V28C26.0005 29.1046 26.8959 30 28.0005 30V30C29.1051 30 30.0005 29.1046 30.0005 28V26" stroke="#47474F" stroke-width="2"/>
<path d="M4.00049 17L6.50049 10.5" stroke="#47474F" stroke-width="2" stroke-linecap="round"/>
<path d="M28.0005 17L25.5005 10.5" stroke="#47474F" stroke-width="2" stroke-linecap="round"/>
<path d="M14.821 2.23748C15.3211 1.28872 16.6798 1.28872 17.18 2.23748L17.925 3.65084C18.1328 4.045 18.5237 4.30931 18.9669 4.35529L20.3994 4.50391C21.582 4.6266 22.0248 6.11872 21.1005 6.86663L20.2979 7.51609C19.9028 7.83578 19.7238 8.35226 19.8364 8.84786L20.0853 9.94391C20.3334 11.0366 19.2048 11.9295 18.1986 11.4366L16.587 10.6473C16.217 10.466 15.784 10.466 15.414 10.6473L13.8024 11.4366C12.7961 11.9295 11.6676 11.0366 11.9157 9.94391L12.1646 8.84786C12.2771 8.35226 12.0982 7.83578 11.7031 7.51609L10.9004 6.86662C9.97617 6.11872 10.4189 4.6266 11.6016 4.50391L13.0341 4.35529C13.4772 4.30931 13.8682 4.045 14.076 3.65084L14.821 2.23748Z" stroke="#47474F" stroke-width="2"/>
</svg>
