<svg width="37" height="32" viewBox="0 0 37 32" fill="none" xmlns="http://www.w3.org/2000/svg">
  <g clip-path="url(#a)">
    <path fill-rule="evenodd" clip-rule="evenodd" d="m32.686 14.59 2.292-1.995c.544-.54-.382-.19-.93-.732-.546-.542-.437-.967-.984-.428l-.378-.77v-.027c-.636-2.718-1.741-5.462-2.965-7.327H6.35C5.132 5.169 4.032 7.9 3.393 10.615l-.056.759c-.547-.54-.255.008-.803.55-.547.542-1.994-.206-1.447.333l2.298 2.28v.385H0v12.916h5.085v-1.87H31.04v2.063h5.1V14.67h-3.454v-.08Z" fill="#002C5D"/>
    <path fill-rule="evenodd" clip-rule="evenodd" d="M27.485 2H8.655c-.969 0-1.809.532-2.255 1.31h23.34A2.595 2.595 0 0 0 27.486 2ZM28.855 20.814H7.22v-.136c0-2.818 1.167-3.447 10.624-3.447 3.64 0 6.106.12 7.765.417 2.654.476 3.247 1.405 3.247 3.03v.136Zm3.826-10.198-.027-.002H3.423c-1.843 0-3.54 1.757-3.417 4.294L1.908 25.97h5.346v-1.428h21.633v1.428h5.298l1.931-10.912c.286-2.856-1.996-4.425-3.435-4.443Z" fill="#E9EEF4"/>
    <path fill-rule="evenodd" clip-rule="evenodd" d="M33.936 14.605c0 1.068-.898 1.933-2.005 1.933-1.104 0-2.002-.865-2.002-1.933 0-1.066.898-1.93 2.002-1.93 1.107 0 2.005.864 2.005 1.93Z" fill="#fff"/>
    <path clip-rule="evenodd" d="M33.936 14.605c0 1.068-.898 1.933-2.005 1.933-1.104 0-2.002-.865-2.002-1.933 0-1.066.898-1.93 2.002-1.93 1.107 0 2.005.864 2.005 1.93Z" stroke="#C1C1C1" stroke-width="1.881"/>
    <path fill-rule="evenodd" clip-rule="evenodd" d="M5.975 14.605a1.943 1.943 0 0 1-1.953 1.933 1.942 1.942 0 0 1-1.951-1.933c0-1.066.875-1.93 1.95-1.93 1.08 0 1.954.864 1.954 1.93Z" fill="#fff"/>
    <path clip-rule="evenodd" d="M5.975 14.605a1.943 1.943 0 0 1-1.953 1.933 1.942 1.942 0 0 1-1.951-1.933c0-1.066.875-1.93 1.95-1.93 1.08 0 1.954.864 1.954 1.93Z" stroke="#C1C1C1" stroke-width="1.881"/>
    <path fill-rule="evenodd" clip-rule="evenodd" d="M24.847 10.614h-.944l-3.386-7.303h.944l3.386 7.303ZM29.364 10.614h-3.138l-3.45-7.303h3.14l3.448 7.303Z" fill="#2E527A"/>
    <path fill-rule="evenodd" clip-rule="evenodd" d="M35.039 29.716h-2.886c-.602 0-1.094-.508-1.094-1.129v-1.589c0-.62 5.074-.62 5.074 0v1.59c0 .62-.492 1.128-1.094 1.128Z" fill="#002C5D"/>
    <mask id="b" style="mask-type:alpha" maskUnits="userSpaceOnUse" x="0" y="26" width="6" height="4">
      <path d="M0 29.865v-3.332h5.057v3.332H0Z" fill="#fff"/>
    </mask>
    <g mask="url(#b)">
      <path fill-rule="evenodd" clip-rule="evenodd" d="M3.98 29.865H1.095C.493 29.865 0 29.334 0 28.684l.011-1.664c0-.65 5.064-.65 5.064 0v1.664c0 .65-.493 1.181-1.095 1.181Z" fill="#002C5D"/>
    </g>
  </g>
  <defs>
    <clipPath id="a">
      <path fill="#fff" d="M0 2h36.202v28H0z"/>
    </clipPath>
  </defs>
</svg>
