<svg width="32" height="33" viewBox="0 0 32 33" fill="none" xmlns="http://www.w3.org/2000/svg">
<g clip-path="url(#clip0_15001_5916)">
<path fill-rule="evenodd" clip-rule="evenodd" d="M28.8919 15.3149L30.9175 13.533C31.3989 13.0513 30.58 13.3632 30.0963 12.8794C29.6129 12.3953 29.7095 12.0155 29.2258 12.4969L28.8919 11.8091V11.7853C28.3299 9.35843 27.3529 6.90854 26.2715 5.24341H5.61237C4.53589 6.90253 3.56356 9.34197 2.99922 11.7652L2.94962 12.4423C2.46594 11.9609 2.72383 12.4499 2.24015 12.934C1.75646 13.4178 0.476899 12.7498 0.960585 13.2313L2.99191 15.2661V15.6104H0V27.1427H4.49439V25.4732H27.4367V27.3146H31.9457V15.3873H28.8919V15.3149Z" fill="#002C5D"/>
<path fill-rule="evenodd" clip-rule="evenodd" d="M24.295 4.073H15.8409H7.65053C6.7942 4.073 6.05178 4.54778 5.6571 5.24344H26.2887C25.8961 4.54778 25.1516 4.073 24.295 4.073Z" fill="#E9EEF4"/>
<path fill-rule="evenodd" clip-rule="evenodd" d="M25.5058 20.8711H6.38139V20.7497C6.38139 18.2341 7.41253 17.6721 15.772 17.6721C18.9896 17.6721 21.1688 17.7785 22.6358 18.0443C24.9818 18.469 25.5058 19.2987 25.5058 20.7497V20.8711ZM28.8876 11.7656C28.8806 11.7656 28.8709 11.7645 28.8639 11.7645H28.8351H15.8221H3.0257C1.39666 11.7645 -0.10372 13.3324 0.0056307 15.5979L1.68687 25.4754H6.38374H6.41193V24.2003H25.534V25.4754H30.2168L31.9241 15.7329C32.1765 13.183 30.1596 11.7824 28.8876 11.7656Z" fill="#E9EEF4"/>
<path fill-rule="evenodd" clip-rule="evenodd" d="M29.9965 15.3274C29.9965 16.2809 29.2031 17.0529 28.2249 17.0529C27.2485 17.0529 26.4551 16.2809 26.4551 15.3274C26.4551 14.3757 27.2485 13.6038 28.2249 13.6038C29.2031 13.6038 29.9965 14.3757 29.9965 15.3274Z" fill="white"/>
<path fill-rule="evenodd" clip-rule="evenodd" d="M29.9965 15.3274C29.9965 16.2809 29.2031 17.0529 28.2249 17.0529C27.2485 17.0529 26.4551 16.2809 26.4551 15.3274C26.4551 14.3757 27.2485 13.6038 28.2249 13.6038C29.2031 13.6038 29.9965 14.3757 29.9965 15.3274Z" stroke="#C1C1C1" stroke-width="1.88148"/>
<path fill-rule="evenodd" clip-rule="evenodd" d="M5.2817 15.3274C5.2817 16.2809 4.50843 17.0529 3.55503 17.0529C2.60374 17.0529 1.8302 16.2809 1.8302 15.3274C1.8302 14.3757 2.60374 13.6038 3.55503 13.6038C4.50843 13.6038 5.2817 14.3757 5.2817 15.3274Z" fill="white"/>
<path fill-rule="evenodd" clip-rule="evenodd" d="M5.2817 15.3274C5.2817 16.2809 4.50843 17.0529 3.55503 17.0529C2.60374 17.0529 1.8302 16.2809 1.8302 15.3274C1.8302 14.3757 2.60374 13.6038 3.55503 13.6038C4.50843 13.6038 5.2817 14.3757 5.2817 15.3274Z" stroke="#C1C1C1" stroke-width="1.88148"/>
<path fill-rule="evenodd" clip-rule="evenodd" d="M21.9627 11.7645H21.1288L18.1359 5.24341H18.97L21.9627 11.7645Z" fill="#2E527A"/>
<path fill-rule="evenodd" clip-rule="evenodd" d="M25.9559 11.7645H23.1814L20.1324 5.24341H22.9069L25.9559 11.7645Z" fill="#2E527A"/>
<path fill-rule="evenodd" clip-rule="evenodd" d="M30.9714 28.8196H28.4209C27.8888 28.8196 27.4534 28.366 27.4534 27.8117V26.3928C27.4534 25.8385 31.9389 25.8385 31.9389 26.3928V27.8117C31.9389 28.366 31.5035 28.8196 30.9714 28.8196Z" fill="#002C5D"/>
<mask id="mask0_15001_5916" style="mask-type:alpha" maskUnits="userSpaceOnUse" x="0" y="25" width="5" height="4">
<path d="M0 28.9528V25.9771H4.46995V28.9528H0Z" fill="white"/>
</mask>
<g mask="url(#mask0_15001_5916)">
<path fill-rule="evenodd" clip-rule="evenodd" d="M3.51806 28.9528H0.967507C0.435404 28.9528 0 28.478 0 27.8977L0.00987782 26.4123C0.00987782 25.832 4.48557 25.832 4.48557 26.4123V27.8977C4.48557 28.478 4.05017 28.9528 3.51806 28.9528Z" fill="#002C5D"/>
</g>
</g>
<defs>
<clipPath id="clip0_15001_5916">
<rect width="32" height="25" fill="white" transform="translate(0 4.073)"/>
</clipPath>
</defs>
</svg>
