<svg width="24" height="24" viewBox="0 0 24 24" fill="none" xmlns="http://www.w3.org/2000/svg">
  <path d="M12 7.846a4.154 4.154 0 1 0 0 8.307 4.154 4.154 0 0 0 0-8.307Zm0 6.923a2.77 2.77 0 1 1 0-5.538 2.77 2.77 0 0 1 0 5.538ZM16.154 3H7.846A4.851 4.851 0 0 0 3 7.846v8.308A4.852 4.852 0 0 0 7.846 21h8.308A4.852 4.852 0 0 0 21 16.154V7.846A4.852 4.852 0 0 0 16.154 3Zm3.461 13.154a3.461 3.461 0 0 1-3.461 3.461H7.846a3.461 3.461 0 0 1-3.461-3.461V7.846a3.462 3.462 0 0 1 3.461-3.461h8.308a3.461 3.461 0 0 1 3.461 3.461v8.308ZM17.54 7.5a1.038 1.038 0 1 1-2.076 0 1.038 1.038 0 0 1 2.075 0Z" fill="#1B1B1F"/>
</svg>
