<svg width="32" height="32" viewBox="0 0 32 32" fill="none" xmlns="http://www.w3.org/2000/svg">
<path d="M16 31C24.2843 31 31 24.2843 31 16C31 7.71573 24.2843 1 16 1C7.71573 1 1 7.71573 1 16C1 24.2843 7.71573 31 16 31Z" stroke="#47474F" stroke-width="2" stroke-miterlimit="10"/>
<path d="M11.4689 12.1303C11.5478 12.0446 11.6615 12.0012 11.8131 12.0012H12.5003C12.6508 12.0012 12.7655 12.0446 12.8445 12.1303C12.9234 12.2172 12.9624 12.3429 12.9624 12.5074V19.4927C12.9624 19.6584 12.9224 19.7841 12.8434 19.8698C12.7645 19.9567 12.6498 20.0001 12.4993 20.0001H11.5752C11.3363 20.0001 11.1511 19.8858 11.0216 19.6618L9.50185 16.9354C8.9472 15.9595 8.5199 15.1562 8.21784 14.5243C8.25994 15.4499 8.28099 16.4817 8.28099 17.6233V19.4927C8.28099 19.6584 8.24099 19.7841 8.16206 19.8698C8.08207 19.9567 7.96735 20.0001 7.81685 20.0001H7.12959C6.97803 20.0001 6.86332 19.9567 6.78438 19.871C6.70545 19.7841 6.6665 19.6584 6.6665 19.4939V12.5086C6.6665 12.3429 6.70545 12.2172 6.78438 12.1315C6.86332 12.0446 6.97803 12.0012 7.12854 12.0012H8.09259C8.21573 12.0012 8.31993 12.0275 8.40518 12.0812C8.49148 12.1326 8.56831 12.2183 8.63672 12.3395L10.3101 15.3356C10.8227 16.2452 11.1837 16.9091 11.3879 17.3296C11.3605 16.6166 11.3458 15.6955 11.3458 14.57V12.5086C11.3458 12.3429 11.3858 12.2172 11.4647 12.1315L11.4689 12.1303Z" fill="#47474F"/>
<path fill-rule="evenodd" clip-rule="evenodd" d="M20.0465 16.5022C20.2854 16.8279 20.4043 17.2427 20.4043 17.7455C20.4043 18.4517 20.1991 19.0024 19.7886 19.4024C19.3781 19.8 18.8277 19.9989 18.1362 19.9989H14.7999C14.6494 19.9989 14.5347 19.9554 14.4558 19.8697C14.3768 19.7829 14.3379 19.6572 14.3379 19.4926V12.5074C14.3379 12.3417 14.3768 12.216 14.4558 12.1303C14.5347 12.0434 14.6494 12 14.7999 12H17.9205C18.5709 12 19.1045 12.1828 19.5202 12.5462C19.9391 12.9119 20.1475 13.4192 20.1475 14.0728C20.1475 14.5071 20.0486 14.8727 19.8507 15.1653C19.6507 15.4589 19.3771 15.668 19.0298 15.7972C19.4666 15.9389 19.8054 16.1743 20.0454 16.5011L20.0465 16.5022ZM15.9902 15.1424H17.4995C17.8363 15.1424 18.091 15.0624 18.2699 14.9024C18.4488 14.739 18.5361 14.5162 18.5361 14.2305C18.5361 13.6672 18.1941 13.3849 17.51 13.3849H15.9902V15.1424ZM18.7414 17.5878C18.7414 17.918 18.6393 18.1717 18.4341 18.3488C18.2288 18.5236 17.9236 18.6128 17.5205 18.6128H15.9902V16.5514H17.5205C17.9236 16.5514 18.2288 16.6451 18.4341 16.8279C18.6393 17.0119 18.7414 17.2655 18.7414 17.5878Z" fill="#47474F"/>
<path d="M26.5489 12.1291C26.6279 12.216 26.6668 12.3417 26.6668 12.5062V13.025C26.6668 13.1907 26.6279 13.3164 26.5489 13.4021C26.47 13.4889 26.3553 13.5324 26.2048 13.5324H23.0853V15.3241H25.948C26.0995 15.3241 26.2142 15.3675 26.2932 15.4544C26.3721 15.5401 26.411 15.6669 26.411 15.8315V16.3502C26.411 16.5148 26.3721 16.6405 26.2932 16.7273C26.2142 16.8142 26.0995 16.8564 25.949 16.8564H23.0863V19.4915C23.0863 19.6572 23.0463 19.7829 22.9674 19.8686C22.8884 19.9554 22.7737 19.9989 22.6232 19.9989H21.8844C21.7339 19.9989 21.6192 19.9554 21.5402 19.8697C21.4613 19.7829 21.4224 19.6572 21.4224 19.4926V12.5074C21.4224 12.3417 21.4613 12.216 21.5402 12.1303C21.6192 12.0434 21.7339 12 21.8844 12H26.2058C26.3574 12 26.4721 12.0434 26.551 12.1291H26.5489Z" fill="#47474F"/>
</svg>
