<svg width="24" height="24" viewBox="0 0 24 24" fill="none" xmlns="http://www.w3.org/2000/svg"><path d="M14.341 8.611a.75.75 0 1 0 1.386-.572l-1.386.572Zm-1.615-5.873-.694.283.001.003.693-.286Zm-.288-.355.418-.622-.418.622Zm-.875 0-.418-.622.418.622Zm-.288.355.693.286.001-.003-.694-.283ZM8.967 8.325l.06.748a.75.75 0 0 0 .633-.462l-.693-.286Zm-5.992.488-.06-.748H2.91l.065.748Zm-.425.17.468.586-.468-.587Zm-.26.376.714.23-.714-.23Zm.236.844-.49.568.49-.568Zm4.566 3.937.73.173a.75.75 0 0 0-.24-.74l-.49.567Zm-1.395 5.882.728.178.002-.005-.73-.173Zm1.174.86.389.641h.001l-.39-.641Zm3.27-1.117a.75.75 0 1 0-.782-1.28l.782 1.28Zm4.643-4.274a.75.75 0 0 0-1.068 1.054l1.068-1.054Zm1.054 2.134-.533.527a.75.75 0 0 0 1.126-.067l-.593-.46Zm3.504-3.29a.75.75 0 0 0-1.184-.92l1.184.92Zm-4.308-6.01.693-.286L13.42 2.45l-.693.287-.693.286 2.308 5.587.693-.286Zm-2.308-5.587.694-.284a1.533 1.533 0 0 0-.564-.693l-.418.622-.419.623c.006.003.01.009.013.015l.694-.283Zm-.288-.355.418-.622c-.253-.17-.55-.261-.855-.261V3c.006 0 .013.002.018.006l.419-.623ZM12 2.25V1.5c-.304 0-.602.09-.855.26l.418.623.419.623A.034.034 0 0 1 12 3v-.75Zm-.437.133-.418-.622c-.253.17-.45.411-.564.693l.694.284.694.283a.033.033 0 0 1 .013-.015l-.419-.623Zm-.288.355-.693-.287L8.274 8.04l.693.286.693.286 2.308-5.587-.693-.286ZM8.967 8.325l-.061-.747-5.992.487.061.748.061.747 5.992-.487-.061-.748Zm-5.992.488-.065-.748c-.303.027-.59.142-.827.331l.467.586.468.587a.043.043 0 0 1 .023-.01l-.066-.746Zm-.425.17-.467-.587a1.543 1.543 0 0 0-.507.732l.714.23.714.231a.043.043 0 0 1 .014-.02l-.468-.587Zm-.26.376-.714-.23c-.093.288-.1.598-.017.89l.722-.203.722-.202a.043.043 0 0 1 0-.025l-.713-.23Zm-.01.457-.721.203c.081.292.247.553.477.752l.49-.568.49-.568a.043.043 0 0 1-.013-.02l-.722.201Zm.246.387-.49.568 4.566 3.937.49-.568.49-.568-4.566-3.937-.49.568Zm4.566 3.937-.73-.173-1.395 5.882.73.173.73.173 1.395-5.882-.73-.173Zm-1.395 5.882-.729-.177c-.072.295-.055.605.05.89l.704-.256.705-.257a.037.037 0 0 1-.002-.022l-.728-.178Zm.025.457-.705.257c.105.285.291.534.536.713l.444-.605.443-.605a.037.037 0 0 1-.013-.017l-.705.257Zm.275.365-.444.605c.246.18.539.283.842.296l.033-.75.032-.749a.037.037 0 0 1-.02-.007l-.443.605Zm.43.151-.032.75c.304.013.605-.064.865-.222l-.39-.641-.389-.641a.037.037 0 0 1-.02.005l-.033.75Zm.444-.113.39.64 2.88-1.757-.391-.64-.39-.64-2.88 1.757.39.64ZM21.75 15.75H21a4.5 4.5 0 0 1-4.5 4.5v1.5a6 6 0 0 0 6-6h-.75ZM16.5 21v-.75a4.5 4.5 0 0 1-4.5-4.5h-1.5a6 6 0 0 0 6 6V21Zm-5.25-5.25H12a4.5 4.5 0 0 1 4.5-4.5v-1.5a6 6 0 0 0-6 6h.75Zm5.25-5.25v.75a4.5 4.5 0 0 1 4.5 4.5h1.5a6 6 0 0 0-6-6v.75Zm-2.25 5.518-.534.527 1.589 1.607.533-.527.534-.527-1.588-1.607-.534.527Zm1.588 1.607.593.46 2.911-3.75-.592-.46-.592-.46-2.912 3.75.592.46Z" fill="#1B1B1F"/></svg>