<svg width="32" height="32" viewBox="0 0 32 32" fill="none" xmlns="http://www.w3.org/2000/svg">
<path d="M5.5 12C6.32843 12 7 11.3284 7 10.5C7 9.67157 6.32843 9 5.5 9C4.67157 9 4 9.67157 4 10.5C4 11.3284 4.67157 12 5.5 12Z" fill="#47474F"/>
<path d="M22.5 19C23.3284 19 24 18.3284 24 17.5C24 16.6716 23.3284 16 22.5 16C21.6716 16 21 16.6716 21 17.5C21 18.3284 21.6716 19 22.5 19Z" fill="#47474F"/>
<path d="M3 23C1.34533 23 0 21.6547 0 20V8C0 6.34533 1.34533 5 3 5H25C26.6547 5 28 6.34533 28 8V20C28 21.6547 26.6547 23 25 23H3ZM3 7C2.448 7 2 7.448 2 8V20C2 20.552 2.448 21 3 21H25C25.552 21 26 20.552 26 20V8C26 7.448 25.552 7 25 7H3Z" fill="#47474F"/>
<path d="M14 19C11.2427 19 9 16.7573 9 14C9 11.2427 11.2427 9 14 9C16.7573 9 19 11.2427 19 14C19 16.7573 16.7573 19 14 19ZM14 11C12.3453 11 11 12.3453 11 14C11 15.6547 12.3453 17 14 17C15.6547 17 17 15.6547 17 14C17 12.3453 15.6547 11 14 11Z" fill="#47474F"/>
<path d="M7 27C6.448 27 6 26.552 6 26C6 25.448 6.448 25 7 25H29C29.552 25 30 24.552 30 24V12C30 11.448 30.448 11 31 11C31.552 11 32 11.448 32 12V24C32 25.6547 30.6547 27 29 27H7Z" fill="#47474F"/>
</svg>
