<svg width="42" height="28" viewBox="0 0 42 28" fill="none" xmlns="http://www.w3.org/2000/svg">
<path d="M16.2859 14.1428H11.8781C11.2907 14.1591 10.7091 14.0167 10.1897 13.7292C9.67027 13.4417 9.23058 13.019 8.91314 12.5019L3.85742 3.85718H7.19938L11.8781 7.28573H34.7144C36.6079 7.28573 38.1429 8.82074 38.1429 10.7143C38.1429 12.6078 36.6079 14.1428 34.7144 14.1428H26.143" stroke="#47474F" stroke-width="2" stroke-linecap="round" stroke-linejoin="round"/>
<path d="M18.0614 12.4285L15.8574 14.1427L18.0614 15.857H26.143V12.4285H18.0614Z" stroke="#47474F" stroke-width="2" stroke-linecap="round" stroke-linejoin="round"/>
<path d="M10.7148 10.7144H4.71484" stroke="#47474F" stroke-width="2" stroke-linecap="round" stroke-linejoin="round"/>
<path d="M29.5717 26.1425C29.1473 26.1426 28.7295 26.0376 28.3554 25.8369C27.9814 25.6362 27.6628 25.3459 27.4282 24.9921C27.1936 24.6383 27.0503 24.2319 27.011 23.8092C26.9717 23.3865 27.0376 22.9606 27.2029 22.5696C27.3683 22.1786 27.6279 21.8346 27.9585 21.5684C28.2891 21.3021 28.6805 21.1218 29.0977 21.0436C29.5149 20.9655 29.9449 20.9918 30.3494 21.1204C30.754 21.2489 31.1204 21.4756 31.4161 21.7802C31.5898 21.1664 31.9312 20.6133 32.4021 20.183C32.873 19.7526 33.4546 19.4622 34.0815 19.3444C34.7083 19.2266 35.3556 19.286 35.9506 19.5159C36.5455 19.7459 37.0645 20.1373 37.4492 20.6462C37.8339 21.155 38.0689 21.7611 38.128 22.3963C38.1871 23.0314 38.0678 23.6705 37.7836 24.2416C37.4994 24.8127 37.0616 25.2932 36.5193 25.629C35.977 25.9648 35.3518 26.1426 34.714 26.1425H29.5717Z" stroke="#47474F" stroke-width="2" stroke-linecap="round" stroke-linejoin="round"/>
<path d="M9.00024 18.4285C8.41362 18.4276 7.84436 18.6275 7.387 18.9948C6.92964 19.3622 6.61169 19.8749 6.48597 20.4479C6.21796 20.2583 5.89987 20.1521 5.57169 20.1427C5.11704 20.1427 4.68101 20.3234 4.35952 20.6448C4.03803 20.9663 3.85742 21.4024 3.85742 21.857C3.85742 22.3117 4.03803 22.7477 4.35952 23.0692C4.68101 23.3907 5.11704 23.5713 5.57169 23.5713H9.00024C9.68222 23.5713 10.3363 23.3004 10.8185 22.8181C11.3008 22.3359 11.5717 21.6819 11.5717 20.9999C11.5717 20.3179 11.3008 19.6639 10.8185 19.1816C10.3363 18.6994 9.68222 18.4285 9.00024 18.4285Z" stroke="#47474F" stroke-width="2" stroke-linecap="round" stroke-linejoin="round"/>
</svg>
