<svg width="32" height="32" viewBox="0 0 32 32" fill="none" xmlns="http://www.w3.org/2000/svg">
<path d="M25.3332 12.6667H6.6665V6H25.3332V12.6667Z" stroke="#47474F" stroke-width="2" stroke-linecap="round" stroke-linejoin="round"/>
<path d="M6.6665 18.6667H14.6665" stroke="#47474F" stroke-width="2" stroke-linecap="round" stroke-linejoin="round"/>
<path d="M6.6665 24H12.6665" stroke="#47474F" stroke-width="2" stroke-linecap="round" stroke-linejoin="round"/>
<path d="M12.6667 30.6666H4.66667C3.19391 30.6666 2 29.4727 2 27.9999V3.99992C2 2.52716 3.19391 1.33325 4.66667 1.33325H27.3333C28.8061 1.33325 30 2.52716 30 3.99992V12.6666" stroke="#47474F" stroke-width="2" stroke-linecap="round" stroke-linejoin="round"/>
<path d="M24.0002 30.6666C27.6821 30.6666 30.6668 27.6818 30.6668 23.9999C30.6668 20.318 27.6821 17.3333 24.0002 17.3333C20.3183 17.3333 17.3335 20.318 17.3335 23.9999C17.3335 27.6818 20.3183 30.6666 24.0002 30.6666Z" stroke="#47474F" stroke-width="2" stroke-linecap="round" stroke-linejoin="round"/>
<path d="M24 21.3333V26.6666" stroke="#47474F" stroke-width="2" stroke-linecap="round" stroke-linejoin="round"/>
<path d="M21.3335 24H26.6668" stroke="#47474F" stroke-width="2" stroke-linecap="round" stroke-linejoin="round"/>
</svg>
