<svg width="32" height="32" viewBox="0 0 32 32" fill="none" xmlns="http://www.w3.org/2000/svg">
<path d="M16.0258 16.8414C9.95625 17.4837 4.41757 12.7189 4.6006 6.45876C4.60236 6.19505 4.70836 5.94275 4.89545 5.7569C5.08255 5.57105 5.33556 5.46675 5.59927 5.46676C7.85028 5.44181 10.0557 6.08903 11.9343 7.32282" stroke="#47474F" stroke-width="2" stroke-linecap="round" stroke-linejoin="round"/>
<path d="M19.9206 7.44116C21.8308 6.14194 24.0905 5.45334 26.4006 5.46649C26.6639 5.46684 26.9165 5.57134 27.1031 5.75719C27.2897 5.94303 27.3952 6.19514 27.3966 6.45849C27.4361 7.84501 27.2015 9.22568 26.7064 10.5214C26.2113 11.8171 25.4653 13.0023 24.5113 14.0092C23.381 15.0593 22.0388 15.855 20.5751 16.3428C19.1642 16.8131 17.6719 16.9866 16.1919 16.8534" stroke="#47474F" stroke-width="2" stroke-linecap="round" stroke-linejoin="round"/>
<path d="M25.9998 19.5415C25.955 22.2836 21.495 24.4998 16.0001 24.4998C10.5053 24.4998 6.04526 22.2889 6.00049 19.5415" stroke="#47474F" stroke-width="2" stroke-linecap="round" stroke-linejoin="round"/>
<path d="M2.24556 15.5C1.44503 16.6815 1.01091 18.0729 0.997559 19.5C0.997559 25.0227 7.71356 29.496 15.9976 29.496C24.2816 29.496 30.9976 25.0187 30.9976 19.496C30.9837 18.081 30.556 16.7013 29.7677 15.5268" stroke="#47474F" stroke-width="2" stroke-linecap="round" stroke-linejoin="round"/>
<path d="M16.0254 16.8413C13.6172 14.8931 12.1391 11.9368 12.0254 8.84131C12.1011 6.06091 13.3149 3.35321 15.3401 1.44664C15.5232 1.26708 15.7695 1.1665 16.0261 1.1665C16.2826 1.1665 16.5289 1.26708 16.7121 1.44664C18.7363 3.3538 19.9494 6.0612 20.0254 8.84131C19.9117 11.9368 18.4336 14.8931 16.0254 16.8413Z" stroke="#47474F" stroke-width="2" stroke-linecap="round" stroke-linejoin="round"/>
</svg>
