<svg width="32" height="32" viewBox="0 0 32 32" fill="none" xmlns="http://www.w3.org/2000/svg">
<path d="M5.6665 30.9723L16.9998 12.9723C17.1569 12.7679 17.3588 12.6023 17.5899 12.4884C17.8211 12.3744 18.0754 12.3152 18.3332 12.3152C18.5909 12.3152 18.8452 12.3744 19.0764 12.4884C19.3076 12.6023 19.5095 12.7679 19.6665 12.9723L30.9998 30.9723H5.6665Z" stroke="#47474F" stroke-width="2" stroke-linecap="round" stroke-linejoin="round"/>
<path d="M5.66666 30.9719L1 30.9719L6 21.9719L8.9 25.8373" stroke="#47474F" stroke-width="2" stroke-linecap="round" stroke-linejoin="round"/>
<path d="M11.6001 21.5496L14.7308 24.1802C14.986 24.3963 15.3132 24.5085 15.6473 24.4947C15.9815 24.4809 16.2982 24.342 16.5348 24.1056L17.3908 23.2482C17.6408 22.9983 17.9799 22.8578 18.3334 22.8578C18.687 22.8578 19.0261 22.9983 19.2761 23.2482L20.1321 24.1056C20.3686 24.342 20.6854 24.4809 21.0195 24.4947C21.3537 24.5085 21.6808 24.3963 21.9361 24.1802L25.0668 21.5496" stroke="#47474F" stroke-width="2" stroke-linecap="round" stroke-linejoin="round"/>
<path d="M18 12.3519V1.97192" stroke="#47474F" stroke-width="2" stroke-linecap="round" stroke-linejoin="round"/>
<path d="M18 1.97192H27.5907C27.7216 1.97259 27.8495 2.01058 27.9596 2.08143C28.0697 2.15228 28.1572 2.25305 28.212 2.37192C28.2684 2.49082 28.2905 2.62314 28.2756 2.75391C28.2608 2.88469 28.2096 3.0087 28.128 3.11192L26.612 5.03459C26.5143 5.15941 26.4611 5.31338 26.4611 5.47192C26.4611 5.63046 26.5143 5.78443 26.612 5.90926L28.1333 7.83459C28.215 7.93809 28.2661 8.06232 28.2809 8.19329C28.2957 8.32427 28.2737 8.45679 28.2173 8.57592C28.1627 8.69489 28.0751 8.79576 27.9651 8.86663C27.855 8.9375 27.7269 8.97542 27.596 8.97592H18" stroke="#47474F" stroke-width="2" stroke-linecap="round" stroke-linejoin="round"/>
</svg>
