<svg width="32" height="32" viewBox="0 0 32 32" fill="none" xmlns="http://www.w3.org/2000/svg">
<path d="M5.85673 21.6821C3.5307 17.5924 2.21432 12.9574 2.02194 8.20093C2.00169 7.70034 2.27891 7.23774 2.72204 7.004L15.3779 0.328365C15.7672 0.123025 16.2328 0.123025 16.6221 0.328365L29.278 7.004C29.7211 7.23774 29.9983 7.70034 29.9781 8.20093C29.7857 12.9574 28.4693 17.5924 26.1433 21.6821C23.8158 25.7745 20.5558 29.1827 16.6648 31.6004C16.2575 31.8535 15.7425 31.8535 15.3352 31.6004C11.4442 29.1827 8.18423 25.7745 5.85673 21.6821Z" fill="#47474F"/>
<path d="M11 17.0002L15 20.0002L23 12.0002" stroke="white" stroke-width="2.66667" stroke-linecap="round" stroke-linejoin="round"/>
</svg>
