<svg width="32" height="32" viewBox="0 0 32 32" fill="none" xmlns="http://www.w3.org/2000/svg">
<path d="M16 31C24.2843 31 31 24.2843 31 16C31 7.71573 24.2843 1 16 1C7.71573 1 1 7.71573 1 16C1 24.2843 7.71573 31 16 31Z" stroke="#47474F" stroke-width="2" stroke-linecap="round" stroke-linejoin="round"/>
<path d="M19.3569 12.0383C19.5666 12.6071 19.9439 13.0994 20.4394 13.4499C20.946 13.8082 21.5512 14.0006 22.1717 14.0006C22.7922 14.0006 23.3975 13.8082 23.9041 13.4499C24.3995 13.0994 24.7768 12.6071 24.9865 12.0383" stroke="#47474F" stroke-width="2" stroke-linecap="round" stroke-linejoin="round"/>
<path d="M7.01514 12.0415C7.22507 12.609 7.60187 13.1001 8.09645 13.45C8.60305 13.8083 9.20829 14.0007 9.82879 14.0007C10.4493 14.0007 11.0545 13.8083 11.5611 13.45C12.0557 13.1001 12.4325 12.609 12.6425 12.0415" stroke="#47474F" stroke-width="2" stroke-linecap="round" stroke-linejoin="round"/>
<path d="M7.98389 23.5678C8.72966 22.1105 9.85907 20.8835 11.2513 20.0196C12.6766 19.1351 14.3206 18.6665 15.998 18.6665C17.6754 18.6665 19.3195 19.1351 20.7448 20.0196C22.137 20.8835 23.2664 22.1105 24.0122 23.5678" stroke="#47474F" stroke-width="2" stroke-linecap="round" stroke-linejoin="round"/>
</svg>
