<svg width="32" height="32" viewBox="0 0 32 32" fill="none" xmlns="http://www.w3.org/2000/svg"><path d="M26.103 18.227 9.143 9.96l-.008-3.276L6.457 5.2a1.467 1.467 0 0 0-2.112 1.228l-.393 6.985a2.933 2.933 0 0 0 1.62 2.786l4.824 2.4-5.948 4.478a1.466 1.466 0 0 0 .23 2.48L7.188 26.8a1.468 1.468 0 0 0 1.24.03l9.84-4.33 4.586 2.28a3.66 3.66 0 0 0 3.256-6.553h-.006Z" stroke="#1B1B1F" stroke-width="2" stroke-linecap="round" stroke-linejoin="round"/><path d="m21.701 16.08-1.2-6.557a1.467 1.467 0 0 0-.788-1.046l-2.469-1.225a1.467 1.467 0 0 0-2.115 1.315v4.31" stroke="#1B1B1F" stroke-width="2" stroke-linecap="round" stroke-linejoin="round"/></svg>