<svg width="24" height="24" viewBox="0 0 24 24" fill="none" xmlns="http://www.w3.org/2000/svg">
  <path d="M20.25 20.25H12m3.873-9.575-.816-4.117a.888.888 0 0 0-.184-.386.983.983 0 0 0-.351-.27l-1.68-.77a1.068 1.068 0 0 0-.966.045.956.956 0 0 0-.345.334.866.866 0 0 0-.126.447v2.706m7.46 3.358-11.53-5.19-.005-2.056-1.82-.931a1.067 1.067 0 0 0-.941.03.965.965 0 0 0-.348.313.872.872 0 0 0-.147.428L3.807 9a1.73 1.73 0 0 0 .267 1.026c.196.31.486.562.834.722l3.28 1.507-4.044 2.811a.937.937 0 0 0-.31.363.858.858 0 0 0 .09.89c.096.13.225.234.377.304l1.705.78a1.064 1.064 0 0 0 .843.019l6.69-2.718 3.117 1.431c.59.271 1.274.314 1.9.12a2.438 2.438 0 0 0 1.434-1.155c.294-.545.34-1.176.13-1.754a2.364 2.364 0 0 0-1.25-1.325h-.005Z" stroke="#1B1B1F" stroke-width="1.5" stroke-linecap="round" stroke-linejoin="round"/>
</svg>
