<svg width="24" height="24" viewBox="0 0 24 24" fill="none" xmlns="http://www.w3.org/2000/svg"><path d="M3.75 21h16.5m-4.025-10.446-.89-4.49a.968.968 0 0 0-.2-.422 1.072 1.072 0 0 0-.384-.294l-1.832-.84a1.165 1.165 0 0 0-1.054.049c-.157.09-.287.215-.377.364a.945.945 0 0 0-.137.488V8.36m8.138 3.663L6.912 6.364 6.906 4.12 4.92 3.103a1.164 1.164 0 0 0-1.027.033c-.155.083-.285.2-.38.342a.951.951 0 0 0-.16.466l-.29 4.784c-.024.392.077.78.29 1.12.214.339.53.612.91.787l3.578 1.644-4.41 3.067c-.148.103-.265.24-.339.396a.936.936 0 0 0 .098.971c.104.141.246.255.411.331l1.86.851a1.161 1.161 0 0 0 .92.02l7.297-2.964 3.401 1.561a2.92 2.92 0 0 0 2.072.131 2.66 2.66 0 0 0 1.566-1.26c.32-.595.37-1.283.142-1.913-.23-.63-.72-1.15-1.365-1.446h-.005Z" stroke="#1B1B1F" stroke-width="1.5" stroke-linecap="round" stroke-linejoin="round"/></svg>