<svg xmlns="http://www.w3.org/2000/svg" width="24" height="24" fill="none" viewBox="0 0 24 24"><path fill="currentColor" d="m14.25 6 .624-.416-.223-.334h-.401zm-12 8.25H3zm8.25-9a.75.75 0 0 0 0 1.5zm2 4.5a.75.75 0 0 0 0 1.5zM3 13.25a.75.75 0 0 0-1.5 0zm-.482-3.527-.624-.416zm6.964 0 .624-.416zM6.416 5.124l-.624.416zm-.832 0-.624-.416zM19.5 10.5v.75c1.3 0 1.5.6 1.5.75h1.5c0-1.35-1.3-2.25-3-2.25zm2.25 1.5H21v2.25h1.5V12zm0 2.25H21c0 .131-.073.325-.25.5-.175.177-.369.25-.5.25v1.5c.619 0 1.175-.302 1.562-.688.386-.387.688-.943.688-1.562zm-4.5-3.75v.75h2.25v-1.5h-2.25zm-3-4.5-.624.416 3 4.5.624-.416.624-.416-3-4.5zm-12 8.25H1.5c0 .619.302 1.175.688 1.562.387.386.943.688 1.562.688V15c-.131 0-.325-.073-.5-.25-.177-.175-.25-.369-.25-.5zm1.5 1.5v.75h1.125V15H3.75zm16.5 0V15h-1.125v1.5h1.125zm-10.875 0v.75h5.25V15h-5.25zm9.375.375H18c0 .621-.504 1.125-1.125 1.125v1.5a2.625 2.625 0 0 0 2.625-2.625zM16.875 18v-.75a1.125 1.125 0 0 1-1.125-1.125h-1.5a2.625 2.625 0 0 0 2.625 2.625zM15 16.125h.75c0-.621.504-1.125 1.125-1.125v-1.5a2.625 2.625 0 0 0-2.625 2.625zm1.875-1.875V15c.621 0 1.125.504 1.125 1.125h1.5a2.625 2.625 0 0 0-2.625-2.625zM9 16.125h-.75c0 .621-.504 1.125-1.125 1.125v1.5a2.625 2.625 0 0 0 2.625-2.625zM7.125 18v-.75A1.125 1.125 0 0 1 6 16.125H4.5a2.625 2.625 0 0 0 2.625 2.625zM5.25 16.125H6C6 15.504 6.504 15 7.125 15v-1.5A2.625 2.625 0 0 0 4.5 16.125zm1.875-1.875V15c.621 0 1.125.504 1.125 1.125h1.5A2.625 2.625 0 0 0 7.125 13.5zM14.25 6v-.75H10.5v1.5h3.75zm-1.75 4.5v.75h4.75v-1.5H12.5zM2.25 13.25H1.5v1H3v-1zm4.166-8.126-.624.416 3.066 4.599.624-.416.624-.416L7.04 4.708zm2.65 5.376v-.75H2.934v1.5h6.132zm-6.548-.777.624.416L6.208 5.54l-.624-.416-.624-.416-3.066 4.599zm.416.777v-.75c.2 0 .319.223.208.389l-.624-.416-.624-.416a1.25 1.25 0 0 0 1.04 1.943zm6.548-.777-.624.416a.25.25 0 0 1 .208-.389v1.5a1.25 1.25 0 0 0 1.04-1.943zM6.416 5.124l.624-.416a1.25 1.25 0 0 0-2.08 0l.624.416.624.416a.25.25 0 0 1-.416 0z"/></svg>