<svg width="24" height="24" viewBox="0 0 24 24" fill="none" xmlns="http://www.w3.org/2000/svg"><path d="m15 12-4.5-3v6l4.5-3Z" stroke="#1B1B1F" stroke-width="1.5" stroke-linecap="round" stroke-linejoin="round"/><path d="M2.25 12c0 2.804.288 4.448.507 5.294a1.5 1.5 0 0 0 .9 1.027C6.798 19.533 12 19.5 12 19.5s5.201.032 8.344-1.18a1.5 1.5 0 0 0 .903-1.027c.219-.844.507-2.49.507-5.294 0-2.804-.288-4.448-.507-5.294a1.501 1.501 0 0 0-.903-1.031C17.2 4.467 12 4.5 12 4.5s-5.201-.033-8.344 1.18a1.5 1.5 0 0 0-.903 1.03c-.215.84-.503 2.486-.503 5.29Z" stroke="#1B1B1F" stroke-width="1.5" stroke-linecap="round" stroke-linejoin="round"/></svg>