<svg width="32" height="32" viewBox="0 0 32 32" fill="none" xmlns="http://www.w3.org/2000/svg">
<path d="M13.3335 29C13.5029 29.5769 13.8545 30.0835 14.3358 30.4438C14.8172 30.8041 15.4022 30.9989 16.0035 30.9989C16.6048 30.9989 17.1898 30.8041 17.6712 30.4438C18.1525 30.0835 18.5041 29.5769 18.6735 29" stroke="#47474F" stroke-width="2" stroke-linecap="round" stroke-linejoin="round"/>
<path d="M16.0005 4V1" stroke="#47474F" stroke-width="2" stroke-linecap="round" stroke-linejoin="round"/>
<path d="M16.0005 4C18.6527 4 21.1962 5.07029 23.0716 6.97542C24.9469 8.88055 26.0005 11.4645 26.0005 14.1587C26.0005 23.7025 28.0005 25.3333 28.0005 25.3333H4.00049C4.00049 25.3333 6.00049 22.7381 6.00049 14.1587C6.00049 11.4645 7.05406 8.88055 8.92942 6.97542C10.8048 5.07029 13.3483 4 16.0005 4V4Z" stroke="#47474F" stroke-width="2" stroke-linecap="round" stroke-linejoin="round"/>
</svg>
