<svg width="32" height="32" viewBox="0 0 32 32" fill="none" xmlns="http://www.w3.org/2000/svg">
<path d="M15.9199 1.33347C19.1302 1.31591 22.2575 2.3521 24.8221 4.28305C27.3867 6.21401 29.2469 8.93307 30.1174 12.0231C30.9878 15.1131 30.8204 18.4033 29.6409 21.389C28.4613 24.3747 26.3347 26.8909 23.5873 28.5516C20.84 30.2123 17.6237 30.9258 14.4318 30.5825C11.24 30.2392 8.24889 28.8581 5.91751 26.6512C3.58613 24.4443 2.04322 21.5335 1.5255 18.3652C1.00778 15.197 1.54384 11.9464 3.05145 9.11213L3.3335 8.66659" stroke="#47474F" stroke-width="2" stroke-linecap="round" stroke-linejoin="round"/>
<path d="M7.78834 8.40404C7.22573 8.96665 6.46267 9.28272 5.66701 9.28272C4.87136 9.28272 4.10829 8.96665 3.54568 8.40404C2.98306 7.84143 2.66699 7.07836 2.66699 6.28271C2.66699 5.48705 2.98306 4.72398 3.54568 4.16137L5.66701 2.04004L9.90968 6.28271L7.78834 8.40404Z" stroke="#47474F" stroke-width="2" stroke-linecap="round" stroke-linejoin="round"/>
<path d="M6.37402 2.74659L7.78869 1.33325" stroke="#47474F" stroke-width="2" stroke-linecap="round" stroke-linejoin="round"/>
<path d="M9.20312 5.57604L10.6165 4.16138" stroke="#47474F" stroke-width="2" stroke-linecap="round" stroke-linejoin="round"/>
<path d="M20 17.3333C20 18.3941 19.5786 19.4115 18.8284 20.1617C18.0783 20.9118 17.0609 21.3333 16 21.3333C14.9391 21.3333 13.9217 20.9118 13.1716 20.1617C12.4214 19.4115 12 18.3941 12 17.3333C12 15.1239 16 9.33325 16 9.33325C16 9.33325 20 15.1239 20 17.3333Z" stroke="#47474F" stroke-width="2" stroke-linecap="round" stroke-linejoin="round"/>
</svg>
