<svg xmlns="http://www.w3.org/2000/svg" width="32" height="32" fill="none" viewBox="0 0 32 32"><g clip-path="url(#a)"><path fill="#47474F" d="M16 24.8v1-1Zm0-11.733v1-1Zm-5.867 5.866h1-1Zm-.48-1.037a1 1 0 1 0 1.483-1.341l-1.484 1.34ZM1.332 7.2l-.747-.664A1 1 0 0 0 .592 7.87l.741-.67Zm5.215-5.867v-1a1 1 0 0 0-.747.336l.747.664Zm5.253 13.185a1 1 0 1 0 1.801-.87l-1.8.87Zm9.063 2.037a1 1 0 1 0 1.484 1.34l-1.484-1.34ZM30.667 7.2l.742.67a1 1 0 0 0 .005-1.334l-.747.664Zm-5.215-5.867.747-.664a1 1 0 0 0-.747-.336v1ZM18.398 13.65a1 1 0 0 0 1.801.87l-1.801-.87Zm-.768-5.45a1 1 0 1 0 0-2v2Zm-3.26-2a1 1 0 1 0 0 2v-2ZM15 30.668a1 1 0 1 0 2 0h-2Zm2-1.956a1 1 0 0 0-2 0h2Zm6.585-.78a1 1 0 0 0 1.414-1.413l-1.414 1.414Zm.032-2.795a1 1 0 1 0-1.414 1.414l1.414-1.414ZM7 26.518a1 1 0 1 0 1.415 1.414L7 26.518Zm2.797.032a1 1 0 1 0-1.415-1.414l1.415 1.414Zm15.98-7.639a1 1 0 0 0 0 2v-2Zm1.956 2a1 1 0 1 0 0-2v2Zm-23.467-2a1 1 0 1 0 0 2v-2Zm1.955 2a1 1 0 1 0 0-2v2ZM16 25.8c.902 0 1.795-.178 2.628-.523l-.765-1.848c-.59.245-1.224.37-1.863.37v2Zm2.628-.523a6.867 6.867 0 0 0 2.228-1.488l-1.415-1.415c-.451.452-.988.81-1.578 1.056l.765 1.847Zm2.228-1.488a6.864 6.864 0 0 0 1.488-2.228l-1.848-.765a4.867 4.867 0 0 1-1.055 1.579l1.415 1.414Zm1.488-2.228a6.866 6.866 0 0 0 .523-2.628h-2c0 .64-.126 1.272-.37 1.863l1.847.765Zm.523-2.628c0-.901-.178-1.794-.523-2.628l-1.848.766c.245.59.37 1.223.37 1.862h2Zm-.523-2.628a6.864 6.864 0 0 0-1.488-2.227l-1.415 1.414c.452.452.81.988 1.055 1.579l1.848-.766Zm-1.488-2.227a6.867 6.867 0 0 0-2.228-1.489l-.765 1.848c.59.245 1.127.603 1.578 1.055l1.415-1.414Zm-2.228-1.489A6.866 6.866 0 0 0 16 12.067v2c.64 0 1.272.126 1.863.37l.765-1.848ZM16 12.067a6.866 6.866 0 0 0-4.855 2.01l1.414 1.415A4.867 4.867 0 0 1 16 14.067v-2Zm-4.855 2.01a6.867 6.867 0 0 0-2.011 4.856h2c0-1.29.512-2.528 1.425-3.441l-1.414-1.414Zm-2.011 4.856c0 1.821.723 3.568 2.01 4.856l1.415-1.415a4.867 4.867 0 0 1-1.425-3.44h-2Zm2.01 4.856A6.866 6.866 0 0 0 16 25.799v-2a4.867 4.867 0 0 1-3.441-1.424l-1.414 1.414Zm4.863-5.36c.135 0 .265.054.361.15l-1.414 1.414c.28.279.658.436 1.053.436v-2Zm.361.15c.096.095.15.225.15.36h-2c0 .396.157.774.436 1.054l1.414-1.415Zm.15.36a.511.511 0 0 1-.15.362l-1.414-1.414c-.28.28-.436.658-.436 1.053h2Zm-.15.362a.511.511 0 0 1-.361.15v-2c-.395 0-.774.157-1.053.436l1.414 1.414Zm-.361 1.128c.395 0 .773-.157 1.052-.436l-1.414-1.415a.51.51 0 0 1 .362-.15v2Zm1.052-.436c.28-.28.437-.658.437-1.053h-2a.51.51 0 0 1 .15-.362l1.413 1.415Zm.437-1.053c0-.395-.157-.774-.436-1.053l-1.415 1.414a.511.511 0 0 1-.15-.361h2Zm-.436-1.053a1.488 1.488 0 0 0-1.053-.436v2a.511.511 0 0 1-.362-.15l1.415-1.414Zm-5.924-1.332L2.076 6.529.591 7.87l9.06 10.026 1.484-1.341Zm-9.055-8.69 5.215-5.867L5.8.668.586 6.537l1.495 1.328Zm3.567-6.097 6.153 12.75 1.801-.87L7.45.899l-1.801.87Zm16.7 16.128 9.06-10.026-1.483-1.34-9.06 10.025 1.483 1.34Zm9.066-11.36L26.2.669l-1.494 1.329 5.214 5.866 1.495-1.328ZM24.551.899l-6.153 12.75 1.801.87 6.154-12.751-1.802-.87ZM6.548 2.333h18.904v-2H6.548v2ZM17.63 6.2h-3.26v2h3.26v-2ZM17 30.667V28.71h-2v1.956h2ZM25 26.517l-1.382-1.381-1.414 1.414 1.382 1.382 1.414-1.414ZM8.416 27.933l1.382-1.382-1.415-1.414-1.381 1.382 1.414 1.414Zm17.362-7.021h1.956v-2h-1.956v2Zm-21.511 0h1.955v-2H4.267v2Z"/></g><defs><clipPath id="a"><path fill="#fff" d="M0 0h32v32H0z"/></clipPath></defs></svg>