<svg width="42" height="28" viewBox="0 0 42 28" fill="none" xmlns="http://www.w3.org/2000/svg">
<path d="M16.9993 12.2904L15.8639 11.1594C14.9462 11.5992 13.9148 11.7437 12.9116 11.573C11.9083 11.4024 10.9827 10.9249 10.2621 10.2064C9.54147 9.48792 9.06127 8.5637 8.88762 7.56099C8.71397 6.55829 8.85541 5.52641 9.29247 4.60742L10.8362 6.14684C10.9877 6.30197 11.1684 6.42552 11.368 6.51035C11.5675 6.59518 11.7819 6.6396 11.9987 6.64104C12.2156 6.64248 12.4305 6.60091 12.6312 6.51873C12.8319 6.43656 13.0142 6.31541 13.1678 6.1623C13.3213 6.00919 13.443 5.82716 13.5257 5.62673C13.6084 5.4263 13.6506 5.21146 13.6498 4.99462C13.6489 4.77779 13.6051 4.56328 13.5209 4.36349C13.4366 4.1637 13.3135 3.9826 13.1588 3.83067L11.6162 2.29234C12.5336 1.85357 13.5644 1.70984 14.5669 1.88092C15.5693 2.05199 16.4942 2.52947 17.2141 3.24767C17.9341 3.96587 18.4139 4.8895 18.5874 5.89153C18.761 6.89356 18.6198 7.92475 18.1833 8.84325L19.2342 9.89084" stroke="#47474F" stroke-width="2" stroke-linecap="round" stroke-linejoin="round"/>
<path d="M24.5958 15.2307L26.1363 16.7669C27.0538 16.3275 28.0848 16.1833 29.0876 16.354C30.0905 16.5246 31.0158 17.0018 31.7362 17.7199C32.4567 18.438 32.937 19.3618 33.111 20.364C33.2849 21.3663 33.1441 22.3978 32.7078 23.3167L31.164 21.7784C30.8558 21.4757 30.4406 21.3068 30.0085 21.3085C29.5765 21.3101 29.1626 21.4822 28.8567 21.7872C28.5508 22.0923 28.3776 22.5057 28.3747 22.9377C28.3718 23.3698 28.5395 23.7855 28.8414 24.0945L30.384 25.6329C29.4667 26.0714 28.4361 26.215 27.4338 26.044C26.4316 25.8729 25.5069 25.3955 24.787 24.6775C24.0671 23.9595 23.5873 23.0361 23.4136 22.0343C23.2399 21.0325 23.3808 20.0015 23.8169 19.083L22.2764 17.5469" stroke="#47474F" stroke-width="2" stroke-linecap="round" stroke-linejoin="round"/>
<path d="M9.5655 25.4833C9.3394 25.2585 9.15996 24.9912 9.03752 24.6968C8.91508 24.4024 8.85205 24.0867 8.85205 23.7678C8.85205 23.449 8.91508 23.1333 9.03752 22.8389C9.15996 22.5445 9.3394 22.2772 9.5655 22.0523L14.6518 16.9758C14.8041 16.824 15.0103 16.7388 15.2254 16.7388C15.4404 16.7388 15.6467 16.824 15.799 16.9758L18.0935 19.2628C18.1687 19.3378 18.2284 19.427 18.2691 19.5251C18.3098 19.6233 18.3308 19.7285 18.3308 19.8348C18.3308 19.941 18.3098 20.0462 18.2691 20.1444C18.2284 20.2425 18.1687 20.3317 18.0935 20.4068L13.0062 25.4833C12.5492 25.9381 11.9306 26.1935 11.2858 26.1935C10.6411 26.1935 10.0225 25.9381 9.5655 25.4833Z" stroke="#47474F" stroke-width="2" stroke-linecap="round" stroke-linejoin="round"/>
<path d="M25.9681 2.28704L32.7075 9.0037C32.8581 9.1536 32.9777 9.33178 33.0592 9.52801C33.1408 9.72424 33.1828 9.93464 33.1828 10.1472C33.1828 10.3597 33.1408 10.5701 33.0592 10.7663C32.9777 10.9625 32.8581 11.1407 32.7075 11.2906L30.4141 13.5797C30.1095 13.8834 29.6969 14.0539 29.2668 14.0539C28.8367 14.0539 28.4242 13.8834 28.1196 13.5797L21.3801 6.86304C21.2295 6.71315 21.11 6.53497 21.0284 6.33873C20.9468 6.1425 20.9048 5.93209 20.9048 5.71958C20.9048 5.50707 20.9468 5.29666 21.0284 5.10042C21.11 4.90419 21.2295 4.72601 21.3801 4.57612L23.6736 2.2892C23.9779 1.98527 24.3903 1.81437 24.8204 1.81397C25.2505 1.81356 25.6632 1.98368 25.9681 2.28704Z" stroke="#47474F" stroke-width="2" stroke-linecap="round" stroke-linejoin="round"/>
<path d="M24.821 10.2917L16.8379 18.0116" stroke="#47474F" stroke-width="2" stroke-linecap="round" stroke-linejoin="round"/>
</svg>
