<svg width="42" height="28" viewBox="0 0 42 28" fill="none" xmlns="http://www.w3.org/2000/svg">
<path d="M23.024 19.1772H19.6907C19.2305 19.1772 18.8574 18.8041 18.8574 18.3439V15.0106C18.8574 14.5503 19.2305 14.1772 19.6907 14.1772H23.024C23.4843 14.1772 23.8574 14.5503 23.8574 15.0106V18.3439C23.8574 18.8041 23.4843 19.1772 23.024 19.1772Z" stroke="#47474F" stroke-width="2" stroke-linecap="round" stroke-linejoin="round"/>
<path d="M34.0002 11.5972C34.0002 14.447 31.6721 16.7572 28.8002 16.7572H23.8574" stroke="#47474F" stroke-width="2" stroke-linecap="square" stroke-linejoin="round"/>
<path d="M8 11.5972C8 14.447 10.3281 16.7572 13.2 16.7572H18.4" stroke="#47474F" stroke-width="2" stroke-linecap="square" stroke-linejoin="round"/>
<path d="M9.73333 25.3572C8.77604 25.3572 8 24.5871 8 23.6372V9.01713C8 8.06719 8.77604 7.29712 9.73333 7.29712H32.2667C33.224 7.29712 34 8.06719 34 9.01713V23.6372C34 24.5871 33.224 25.3572 32.2667 25.3572H9.73333Z" stroke="#47474F" stroke-width="2" stroke-linecap="round" stroke-linejoin="round"/>
<path d="M15.8574 7.29719V5.57719C15.8574 4.62725 16.6334 3.85718 17.5907 3.85718H24.524C25.4813 3.85718 26.2574 4.62725 26.2574 5.57719V7.29719" stroke="#47474F" stroke-width="2" stroke-linejoin="round"/>
</svg>
