<svg width="32" height="32" viewBox="0 0 32 32" fill="none" xmlns="http://www.w3.org/2000/svg">
<path d="M27.0005 1H5.00049C3.89592 1 3.00049 1.89543 3.00049 3V29C3.00049 30.1046 3.89592 31 5.00049 31H27.0005C28.1051 31 29.0005 30.1046 29.0005 29V3C29.0005 1.89543 28.1051 1 27.0005 1Z" stroke="#47474F" stroke-width="2" stroke-linecap="round" stroke-linejoin="round"/>
<path d="M7.00049 5H11.0005" stroke="#47474F" stroke-width="2" stroke-linecap="round" stroke-linejoin="round"/>
<path d="M25.3335 4.2666V5.59993" stroke="#47474F" stroke-width="2" stroke-linecap="round" stroke-linejoin="round"/>
<path d="M21.3335 4.2666V5.59993" stroke="#47474F" stroke-width="2" stroke-linecap="round" stroke-linejoin="round"/>
<path d="M3.00049 9H29.0005" stroke="#47474F" stroke-width="2" stroke-linecap="round" stroke-linejoin="round"/>
<path d="M16.0005 27C19.8665 27 23.0005 23.866 23.0005 20C23.0005 16.134 19.8665 13 16.0005 13C12.1345 13 9.00049 16.134 9.00049 20C9.00049 23.866 12.1345 27 16.0005 27Z" stroke="#47474F" stroke-width="2" stroke-linecap="round" stroke-linejoin="round"/>
<path d="M13.0005 20.0001C13.0005 19.2044 13.3166 18.4414 13.8792 17.8788C14.4245 17.3334 15.1582 17.0197 15.9273 17.001" stroke="#47474F" stroke-width="2" stroke-linecap="round" stroke-linejoin="round"/>
</svg>
