<svg width="32" height="32" viewBox="0 0 32 32" fill="none" xmlns="http://www.w3.org/2000/svg">
<path d="M12.0005 21C9.87876 21 7.84393 20.1571 6.34363 18.6569C4.84334 17.1566 4.00049 15.1217 4.00049 13V9C4.00049 8.46957 4.2112 7.96086 4.58627 7.58579C4.96135 7.21071 5.47006 7 6.00049 7H18.0005C18.5309 7 19.0396 7.21071 19.4147 7.58579C19.7898 7.96086 20.0005 8.46957 20.0005 9V13C20.0005 15.1217 19.1576 17.1566 17.6573 18.6569C16.1571 20.1571 14.1222 21 12.0005 21Z" stroke="#47474F" stroke-width="2" stroke-linecap="round" stroke-linejoin="round"/>
<path d="M8.00049 7V1" stroke="#47474F" stroke-width="2" stroke-linecap="round" stroke-linejoin="round"/>
<path d="M16.0005 7V1" stroke="#47474F" stroke-width="2" stroke-linecap="round" stroke-linejoin="round"/>
<path d="M28.0005 31V25C28.0005 23.9391 27.5791 22.9217 26.8289 22.1716C26.0788 21.4214 25.0614 21 24.0005 21C22.9396 21 21.9222 21.4214 21.1721 22.1716C20.4219 22.9217 20.0005 23.9391 20.0005 25C20.0005 26.0609 19.5791 27.0783 18.8289 27.8284C18.0788 28.5786 17.0614 29 16.0005 29C14.9396 29 13.9222 28.5786 13.1721 27.8284C12.4219 27.0783 12.0005 26.0609 12.0005 25V21.0469" stroke="#47474F" stroke-width="2" stroke-linecap="round" stroke-linejoin="round"/>
<path d="M10.0005 11H14.0005" stroke="#47474F" stroke-width="2" stroke-linecap="round" stroke-linejoin="round"/>
</svg>
