<svg width="16" height="16" viewBox="0 0 16 16" fill="none" xmlns="http://www.w3.org/2000/svg">
<g id="16/Alert-error">
<path id="Hexagon" d="M4.1005 0.585787C4.47558 0.210714 4.98429 9.00472e-08 5.51472 8.25009e-08L10.4853 1.17859e-08C11.0157 4.2395e-09 11.5244 0.210714 11.8995 0.585787L15.4142 4.1005C15.7893 4.47558 16 4.98429 16 5.51472V10.4853C16 11.0157 15.7893 11.5244 15.4142 11.8995L11.8995 15.4142C11.5244 15.7893 11.0157 16 10.4853 16H5.51472C4.98429 16 4.47558 15.7893 4.10051 15.4142L0.585787 11.8995C0.210714 11.5244 4.64141e-09 11.0157 1.29032e-08 10.4853L9.03222e-08 5.51472C9.85839e-08 4.98429 0.210714 4.47558 0.585787 4.10051L4.1005 0.585787Z" fill="#D91F0A"/>
<g id="Icon">
<path fill-rule="evenodd" clip-rule="evenodd" d="M8 3.25C8.41421 3.25 8.75 3.58579 8.75 4V9C8.75 9.41421 8.41421 9.75 8 9.75C7.58579 9.75 7.25 9.41421 7.25 9V4C7.25 3.58579 7.58579 3.25 8 3.25Z" fill="white"/>
<path d="M8.79995 11.8C8.79995 12.2418 8.44178 12.6 7.99995 12.6C7.55812 12.6 7.19995 12.2418 7.19995 11.8C7.19995 11.3582 7.55812 11 7.99995 11C8.44178 11 8.79995 11.3582 8.79995 11.8Z" fill="white"/>
</g>
</g>
</svg>
