<svg width="42" height="28" viewBox="0 0 42 28" fill="none" xmlns="http://www.w3.org/2000/svg">
<path d="M28.0002 9.5H26.1621C25.7546 9.51171 25.3512 9.40942 24.9908 9.20304C24.6305 8.99665 24.3255 8.69315 24.1053 8.32188L21 2H23.3183L26.564 4.5088H38.4906C39.8635 4.5088 40.9786 5.61768 40.9862 6.99052C40.9939 8.3742 39.8743 9.5 38.4906 9.5H35.0002" stroke="#47474F" stroke-width="2" stroke-linecap="round" stroke-linejoin="round"/>
<path d="M29.5 8L28 9.5L29.5 11H35V8H29.5Z" stroke="#47474F" stroke-width="2" stroke-linecap="round" stroke-linejoin="round"/>
<path d="M41 27L1 27" stroke="#47474F" stroke-width="2" stroke-linecap="round" stroke-linejoin="round"/>
<path d="M3 27L3.00001 4C3.00001 2.89543 3.89544 2 5.00001 2L15 2C16.1046 2 17 2.89543 17 4V27" stroke="#47474F" stroke-width="2" stroke-linecap="round" stroke-linejoin="round"/>
<path d="M17 16L23 16C24.1046 16 25 16.8954 25 18V27" stroke="#47474F" stroke-width="2" stroke-linecap="round" stroke-linejoin="round"/>
<path d="M8 22H12" stroke="#47474F" stroke-width="2" stroke-linecap="round" stroke-linejoin="round"/>
<path d="M8 17H12" stroke="#47474F" stroke-width="2" stroke-linecap="round" stroke-linejoin="round"/>
<path d="M8 12H12" stroke="#47474F" stroke-width="2" stroke-linecap="round" stroke-linejoin="round"/>
<path d="M8 7H12" stroke="#47474F" stroke-width="2" stroke-linecap="round" stroke-linejoin="round"/>
<path d="M22.5 22H25" stroke="#47474F" stroke-width="2" stroke-linecap="round" stroke-linejoin="round"/>
<path d="M35.0347 18.0278L37.4998 20L39.965 18.0278" stroke="#47474F" stroke-width="2" stroke-linecap="round" stroke-linejoin="round"/>
<path d="M35.0518 22.0413L37.5002 24L39.9486 22.0413" stroke="#47474F" stroke-width="2" stroke-linecap="round" stroke-linejoin="round"/>
<path d="M37.5 26.5L37.5 16" stroke="#47474F" stroke-width="2" stroke-linecap="round" stroke-linejoin="round"/>
</svg>
