<svg width="24" height="24" viewBox="0 0 24 24" fill="none" xmlns="http://www.w3.org/2000/svg"><path d="M15.56 8.824h3.249c1.921 0 1.921-3.839 0-3.839H9.202L7.281 3.75H6l1.921 3.838c.32.618.961 1.236 1.281 1.236h1.875m4.483 0v1.301h-3.202l-1.281-1.301m4.483 0V7.5h-3.202l-1.281 1.324M20.25 20.25V18m-16.5 2.25V18m0-3v-2.25m0 2.25H7.5c.75 0 1.5.75 1.5 1.5V18m-5.25-3v3M9 18H3.75M9 18h1.5m0 0v-1.125C11.25 15.75 12 15 13.5 15h5.25c.75 0 1.5.75 1.5 1.5V18m-9.75 0h9.75" stroke="#1B1B1F" stroke-width="1.5" stroke-linecap="round" stroke-linejoin="round"/></svg>