<svg width="32" height="32" viewBox="0 0 32 32" fill="none" xmlns="http://www.w3.org/2000/svg">
<path d="M19.9005 7.33354L7.87921 19.3589C7.33282 19.9248 7.03056 20.6826 7.03752 21.4692C7.04448 22.2558 7.3601 23.0082 7.91641 23.5643C8.47273 24.1205 9.22521 24.4359 10.0118 24.4426C10.7984 24.4493 11.5562 24.1468 12.1219 23.6002L24.1419 11.5735C24.7149 11.0201 25.172 10.358 25.4865 9.62597C25.8009 8.89394 25.9665 8.10662 25.9734 7.30995C25.9803 6.51327 25.8285 5.7232 25.5268 4.98582C25.2251 4.24844 24.7796 3.57853 24.2162 3.01517C23.6529 2.45182 22.983 2.0063 22.2456 1.70461C21.5082 1.40293 20.7181 1.25112 19.9215 1.25804C19.1248 1.26496 18.3375 1.43048 17.6054 1.74493C16.8734 2.05939 16.2114 2.51648 15.6579 3.08954L3.63654 15.1095C1.94871 16.7974 1.00049 19.0866 1.00049 21.4735C1.00049 23.8605 1.94871 26.1497 3.63654 27.8375C5.32438 29.5254 7.61358 30.4736 10.0005 30.4736C12.3875 30.4736 14.6767 29.5254 16.3645 27.8375L30.8314 13.3694" stroke="#47474F" stroke-width="2" stroke-linecap="round" stroke-linejoin="round"/>
</svg>
