<svg xmlns="http://www.w3.org/2000/svg" width="24" height="24" fill="none" viewBox="0 0 24 24"><path fill="currentColor" d="m21.75 15.417-.007.146a1.5 1.5 0 0 1-.431.914l-4.835 4.834a1.5 1.5 0 0 1-.914.432l-.146.007H8.583a1.5 1.5 0 0 1-1.06-.439l-4.835-4.834a1.5 1.5 0 0 1-.431-.914l-.007-.146V8.583a1.5 1.5 0 0 1 .438-1.06l4.834-4.835a1.5 1.5 0 0 1 1.061-.438h6.834l.146.007a1.5 1.5 0 0 1 .914.431l4.834 4.834a1.5 1.5 0 0 1 .439 1.061z"/><path fill="#fff" d="M11.25 16.5v-.75a.75.75 0 0 1 1.5 0v.75a.75.75 0 0 1-1.5 0m0-3.75V7.5a.75.75 0 0 1 1.5 0v5.25a.75.75 0 0 1-1.5 0"/></svg>
