<svg width="144" height="33" viewBox="0 0 144 33" fill="none" xmlns="http://www.w3.org/2000/svg">
<path d="M15.7911 14.0247C15.6681 13.7553 15.5164 13.5 15.3388 13.2632C15.2724 13.1729 15.1862 13.0991 15.0866 13.0476C14.9871 12.9961 14.8771 12.9682 14.765 12.9663C14.393 12.9663 14.1389 13.2361 14.1389 13.6116C14.143 13.736 14.1769 13.8575 14.2376 13.9662L14.3563 14.2037C14.3755 14.243 14.3747 14.2832 14.3406 14.3006C14.3322 14.3054 14.3229 14.3084 14.3133 14.3093C14.3037 14.3103 14.294 14.3093 14.2848 14.3064C14.2756 14.3034 14.2671 14.2986 14.2599 14.2922C14.2527 14.2858 14.2468 14.278 14.2428 14.2692C14.2105 14.2159 14.1101 14.0561 14.1101 14.0561C14.0341 13.9284 13.9178 13.8295 13.7795 13.7752C13.6412 13.7209 13.4887 13.7142 13.3462 13.7561C13.2036 13.7981 13.0791 13.8863 12.9922 14.0069C12.9054 14.1275 12.8611 14.2735 12.8665 14.422C12.8673 14.5265 12.8914 14.6294 12.9372 14.7233C12.9556 14.76 12.9896 14.8342 13.008 14.87C13.0263 14.9058 13.0272 14.9504 12.9931 14.9713C12.9848 14.9755 12.9758 14.978 12.9665 14.9787C12.9572 14.9794 12.9479 14.9783 12.939 14.9754C12.9302 14.9725 12.922 14.9678 12.9149 14.9617C12.9079 14.9556 12.9021 14.9482 12.898 14.9399C12.8718 14.8997 12.8194 14.8202 12.7914 14.7818C12.7131 14.6746 12.6025 14.5953 12.4757 14.5556C12.349 14.516 12.2129 14.518 12.0874 14.5616C11.962 14.6051 11.8538 14.6877 11.7788 14.7973C11.7039 14.9069 11.6661 15.0377 11.671 15.1704C11.6811 15.3082 11.7175 15.4428 11.7784 15.5669C12.0535 16.1782 12.188 16.772 12.188 17.6863C12.188 19.8442 10.5008 21.5925 8.46085 21.5925C5.75982 21.5925 4.75468 19.5141 4.56256 18.8958C4.55131 18.8607 4.52669 18.8313 4.49401 18.8142C4.46134 18.797 4.42323 18.7934 4.3879 18.8041L0.370847 20.0398C0.335448 20.0509 0.305742 20.0753 0.287987 20.1079C0.270232 20.1405 0.265813 20.1787 0.275661 20.2145C1.16291 23.0744 3.99231 26.0732 8.41893 26.0732C12.0867 26.0732 15.1335 23.6159 16.2513 20.2992C16.9473 18.2321 16.7325 15.9276 15.7911 14.0247Z" fill="white"/>
<path d="M8.33222 13.4631C8.25498 13.4633 8.17942 13.4406 8.11511 13.3978C8.0508 13.355 8.00064 13.2941 7.97096 13.2228C7.94128 13.1515 7.93342 13.0729 7.94839 12.9972C7.96335 12.9214 8.00046 12.8517 8.05501 12.7971C8.10957 12.7424 8.17912 12.7051 8.25487 12.69C8.33061 12.6749 8.40914 12.6825 8.48052 12.7121C8.5519 12.7416 8.61292 12.7916 8.65585 12.8558C8.69878 12.92 8.72169 12.9955 8.7217 13.0728C8.7217 13.1762 8.68069 13.2753 8.60767 13.3485C8.53466 13.4217 8.43559 13.4629 8.33222 13.4631Z" fill="white"/>
<path d="M8.33222 10.1211C8.25498 10.1213 8.17942 10.0986 8.11511 10.0558C8.0508 10.013 8.00064 9.95208 7.97096 9.88076C7.94128 9.80945 7.93342 9.73094 7.94839 9.65516C7.96335 9.57938 8.00046 9.50975 8.05501 9.45507C8.10957 9.40039 8.17912 9.36312 8.25487 9.34799C8.33061 9.33286 8.40914 9.34054 8.48052 9.37006C8.5519 9.39958 8.61292 9.44961 8.65585 9.51382C8.69878 9.57803 8.72169 9.65353 8.7217 9.73078C8.7217 9.83415 8.68069 9.93331 8.60767 10.0065C8.53466 10.0797 8.43559 10.1209 8.33222 10.1211Z" fill="white"/>
<path d="M8.33225 11.7917C8.25497 11.7919 8.17938 11.7691 8.11505 11.7263C8.05072 11.6834 8.00056 11.6225 7.9709 11.5511C7.94125 11.4798 7.93345 11.4012 7.94848 11.3254C7.96351 11.2496 8.00071 11.18 8.05535 11.1253C8.11 11.0707 8.17963 11.0335 8.25543 11.0184C8.33124 11.0034 8.40979 11.0112 8.48116 11.0409C8.55252 11.0705 8.61348 11.1207 8.6563 11.185C8.69913 11.2493 8.7219 11.3249 8.72173 11.4022C8.72173 11.5055 8.68069 11.6046 8.60765 11.6776C8.53461 11.7507 8.43554 11.7917 8.33225 11.7917Z" fill="white"/>
<path d="M11.4021 13.6763C11.3122 13.5851 11.214 13.5027 11.1087 13.43C10.8902 13.2745 10.6585 13.1386 10.4161 13.0239C10.2765 12.9533 10.1302 12.8966 9.97951 12.8545C9.84308 12.8044 9.6936 12.8025 9.55597 12.8493C9.4517 12.892 9.36732 12.9724 9.31959 13.0745C9.27187 13.1766 9.26429 13.2929 9.29836 13.4003C9.34988 13.5846 9.49921 13.6623 9.65902 13.7348C9.86581 13.8304 10.0667 13.9383 10.2607 14.0579C10.431 14.1627 10.5751 14.2596 10.748 14.3827C10.9523 14.5286 11.2117 14.553 11.3942 14.3906C11.4432 14.3451 11.4824 14.2901 11.5094 14.229C11.5365 14.1679 11.5508 14.1019 11.5515 14.0351C11.5523 13.9683 11.5394 13.902 11.5137 13.8403C11.488 13.7786 11.45 13.7228 11.4021 13.6763Z" fill="white"/>
<path d="M12.7972 12.7017C12.5513 12.4436 12.2663 12.2259 11.9527 12.0564C11.8617 12.0049 11.7638 11.9667 11.6619 11.9428C11.5723 11.9199 11.478 11.9226 11.3898 11.9507C11.3016 11.9789 11.2232 12.0312 11.1633 12.1018C11.1001 12.1784 11.0623 12.2727 11.0551 12.3718C11.0479 12.4708 11.0716 12.5696 11.1231 12.6546C11.2099 12.7849 11.3248 12.8941 11.4593 12.9742C11.6611 13.1209 11.8017 13.2362 11.9903 13.3916C12.1125 13.4955 12.2173 13.6073 12.3859 13.63C12.4935 13.6446 12.603 13.6253 12.6992 13.575C12.7954 13.5246 12.8736 13.4456 12.9229 13.3488C12.9714 13.2412 12.9854 13.1212 12.9629 13.0053C12.9403 12.8894 12.8825 12.7834 12.7972 12.7017Z" fill="white"/>
<path d="M10.3552 11.28C10.2317 11.2241 10.1034 11.1794 9.97185 11.1464C9.84105 11.1084 9.70319 11.1015 9.56927 11.1263C9.50106 11.1435 9.43795 11.1767 9.38519 11.2233C9.33242 11.2698 9.29152 11.3282 9.2659 11.3937C9.24027 11.4593 9.23066 11.5299 9.23786 11.5999C9.24506 11.6699 9.26886 11.7371 9.30729 11.7961C9.3754 11.8898 9.47433 11.9566 9.58673 11.9847C9.68629 12.0196 9.76139 12.0467 9.87753 12.0895C9.96482 12.1254 10.0547 12.1546 10.1465 12.1768C10.2181 12.1904 10.292 12.1866 10.3619 12.1658C10.4318 12.145 10.4957 12.1077 10.5482 12.0572C10.7962 11.817 10.7124 11.4328 10.3552 11.28Z" fill="white"/>
<path d="M9.94926 9.50203C9.87529 9.48125 9.79959 9.46723 9.72309 9.46011C9.61652 9.44715 9.50872 9.47087 9.41744 9.52735C9.35189 9.57139 9.2999 9.63281 9.26729 9.70473C9.23468 9.77665 9.22273 9.85623 9.23279 9.93456C9.24286 10.0129 9.27453 10.0869 9.32426 10.1482C9.37399 10.2095 9.43982 10.2558 9.51437 10.2819C9.60833 10.3175 9.70581 10.3429 9.80517 10.3578C9.90869 10.3689 10.0127 10.3425 10.0986 10.2836C10.1844 10.2247 10.2463 10.137 10.2732 10.0365C10.2878 9.98008 10.2909 9.92136 10.2824 9.86374C10.274 9.80613 10.254 9.75079 10.2239 9.70099C10.1937 9.65119 10.1538 9.60793 10.1067 9.57376C10.0595 9.5396 10.006 9.5152 9.94926 9.50203Z" fill="white"/>
<path d="M12.0369 10.2024C11.9303 10.1326 11.8168 10.0741 11.6981 10.0277C11.5696 9.97484 11.4339 9.94129 11.2955 9.92816C11.1836 9.92058 11.0726 9.95203 10.9813 10.0171C10.89 10.0823 10.8241 10.177 10.7949 10.2853C10.7656 10.3935 10.7748 10.5086 10.8209 10.6108C10.8669 10.7131 10.947 10.7962 11.0475 10.846L11.3505 10.9988C11.4613 11.064 11.5783 11.1178 11.6999 11.1595C11.7744 11.1795 11.8526 11.182 11.9284 11.1669C12.0041 11.1517 12.0753 11.1193 12.1365 11.0721C12.4264 10.8503 12.3653 10.4067 12.0369 10.2024Z" fill="white"/>
<path d="M14.2479 11.8284C14.139 11.6942 14.019 11.5694 13.889 11.4555C13.7707 11.3472 13.6423 11.2504 13.5056 11.1665C13.3706 11.0765 13.2064 11.0412 13.0463 11.0678C12.9584 11.0843 12.8766 11.1241 12.8094 11.1831C12.7422 11.2421 12.692 11.318 12.6643 11.403C12.6365 11.488 12.6321 11.5789 12.6515 11.6662C12.671 11.7535 12.7135 11.8339 12.7747 11.8991C12.8708 12.0004 12.9581 12.0686 13.0629 12.1611C13.1947 12.2773 13.3249 12.3925 13.4445 12.5183C13.4941 12.5773 13.5549 12.6259 13.6234 12.6613C13.6919 12.6967 13.7667 12.7181 13.8436 12.7244C13.9416 12.7273 14.0385 12.7024 14.1229 12.6525C14.2073 12.6025 14.2758 12.5297 14.3204 12.4423C14.3704 12.3443 14.3902 12.2336 14.3773 12.1244C14.3644 12.0151 14.3194 11.9121 14.2479 11.8284Z" fill="white"/>
<path d="M0.871161 12.1218C0.993695 12.3909 1.14507 12.646 1.32264 12.8824C1.38908 12.9729 1.47549 13.0468 1.57515 13.0985C1.67481 13.1501 1.78503 13.1781 1.89726 13.1802C2.26927 13.1802 2.52252 12.9095 2.52252 12.534C2.51782 12.4094 2.48307 12.2877 2.42122 12.1794C2.39066 12.12 2.33389 12.0048 2.30333 11.9419C2.28324 11.9026 2.28412 11.8633 2.31818 11.845C2.32658 11.8402 2.33587 11.8372 2.34547 11.8363C2.35508 11.8353 2.36478 11.8363 2.37397 11.8393C2.38316 11.8422 2.39163 11.847 2.39887 11.8534C2.4061 11.8598 2.41192 11.8676 2.41598 11.8764C2.44829 11.9305 2.54872 12.0904 2.54872 12.0904C2.64245 12.2355 2.78818 12.3392 2.95598 12.3802C3.12379 12.4212 3.30094 12.3964 3.45104 12.3109C3.60114 12.2254 3.71281 12.0857 3.76312 11.9204C3.81342 11.7552 3.79854 11.5769 3.72152 11.4223C3.70406 11.3856 3.67 11.3123 3.65166 11.2756C3.63332 11.2389 3.63158 11.1953 3.66564 11.1743C3.67406 11.1701 3.68323 11.1676 3.69263 11.167C3.70202 11.1663 3.71144 11.1675 3.72037 11.1705C3.72929 11.1735 3.73753 11.1783 3.74462 11.1845C3.75171 11.1906 3.75752 11.1982 3.7617 11.2066C3.78702 11.2459 3.84029 11.3254 3.86736 11.3638C3.94552 11.4714 4.05623 11.5511 4.18314 11.591C4.31006 11.6309 4.44643 11.6289 4.57213 11.5854C4.69783 11.5418 4.80619 11.459 4.88119 11.3491C4.95619 11.2392 4.99387 11.1081 4.98864 10.9752C4.97859 10.8374 4.94212 10.7028 4.88123 10.5787C4.60615 9.96743 4.47167 9.37448 4.47167 8.45929C4.47167 6.30143 6.15883 4.55313 8.19792 4.55313C10.8998 4.55313 11.9041 6.63152 12.0971 7.2498C12.1084 7.28498 12.1329 7.31435 12.1656 7.33165C12.1982 7.34895 12.2363 7.35279 12.2717 7.34237L16.2888 6.10581C16.3242 6.09471 16.3538 6.07025 16.3714 6.03764C16.389 6.00502 16.3932 5.96682 16.3831 5.93116C15.4959 3.07119 12.6665 0.0732422 8.24072 0.0732422C4.57297 0.0732422 1.52524 2.52976 0.407453 5.84645C-0.285926 7.91436 -0.0702275 10.2163 0.871161 12.1218Z" fill="white"/>
<path d="M8.33068 16.0245C8.40789 16.0245 8.48336 16.0474 8.54755 16.0903C8.61174 16.1332 8.66178 16.1941 8.69132 16.2655C8.72087 16.3368 8.7286 16.4153 8.71353 16.491C8.69847 16.5667 8.66129 16.6363 8.6067 16.6909C8.55211 16.7454 8.48256 16.7826 8.40684 16.7977C8.33111 16.8128 8.25263 16.805 8.1813 16.7755C8.10997 16.7459 8.04901 16.6959 8.00611 16.6317C7.96322 16.5675 7.94033 16.492 7.94033 16.4148C7.94033 16.3113 7.98145 16.212 8.05466 16.1388C8.12786 16.0656 8.22715 16.0245 8.33068 16.0245Z" fill="white"/>
<path d="M8.33068 14.3557C8.40788 14.3557 8.48336 14.3786 8.54755 14.4215C8.61174 14.4644 8.66177 14.5253 8.69132 14.5966C8.72086 14.668 8.72859 14.7465 8.71353 14.8222C8.69847 14.8979 8.66129 14.9675 8.6067 15.022C8.55211 15.0766 8.48256 15.1138 8.40683 15.1289C8.33111 15.1439 8.25263 15.1362 8.1813 15.1067C8.10997 15.0771 8.04901 15.0271 8.00611 14.9629C7.96322 14.8987 7.94033 14.8232 7.94033 14.746C7.94021 14.6947 7.95023 14.6439 7.96981 14.5965C7.98939 14.5491 8.01813 14.506 8.0544 14.4697C8.09067 14.4335 8.13375 14.4047 8.18116 14.3852C8.22858 14.3656 8.27939 14.3556 8.33068 14.3557Z" fill="white"/>
<path d="M5.25768 12.4694C5.34792 12.5601 5.44612 12.6425 5.5511 12.7156C5.76941 12.8718 6.00149 13.0077 6.24448 13.1217C6.38411 13.1924 6.53036 13.2491 6.68112 13.2911C6.81777 13.3417 6.96767 13.3435 7.10553 13.2964C7.21041 13.2544 7.29562 13.1745 7.34418 13.0725C7.39274 12.9706 7.40107 12.854 7.36751 12.7462C7.31512 12.5611 7.16579 12.4842 7.00598 12.4109C6.79903 12.3155 6.59809 12.2076 6.40429 12.0878C6.23487 11.983 6.08991 11.886 5.91788 11.7629C5.71266 11.6171 5.45417 11.5926 5.27078 11.755C5.22157 11.8002 5.18206 11.8549 5.15463 11.9158C5.12719 11.9768 5.11242 12.0426 5.11119 12.1094C5.10997 12.1762 5.12232 12.2425 5.1475 12.3044C5.17268 12.3663 5.21017 12.4224 5.25768 12.4694Z" fill="white"/>
<path d="M3.86198 13.4449C4.10828 13.7035 4.39314 13.9223 4.70643 14.0937C4.79805 14.1446 4.89618 14.1828 4.99811 14.2072C5.08772 14.2298 5.18186 14.2268 5.26985 14.1985C5.35783 14.1703 5.43614 14.1179 5.49587 14.0474C5.55902 13.971 5.59682 13.8768 5.60401 13.7779C5.61121 13.679 5.58746 13.5803 5.53604 13.4955C5.44971 13.3646 5.33474 13.255 5.19983 13.175C4.99811 13.0283 4.85838 12.9174 4.66976 12.7576C4.54663 12.6546 4.44271 12.5419 4.27417 12.5192C4.16654 12.5046 4.05705 12.5239 3.96084 12.5742C3.86462 12.6246 3.78644 12.7036 3.7371 12.8004C3.68949 12.9077 3.67593 13.027 3.69826 13.1423C3.72059 13.2575 3.77774 13.3631 3.86198 13.4449Z" fill="white"/>
<path d="M6.30732 14.8665C6.43147 14.9217 6.55999 14.9664 6.69156 15.0002C6.82219 15.0374 6.95958 15.0442 7.09327 15.0202C7.16136 15.0028 7.22434 14.9695 7.27699 14.9229C7.32964 14.8764 7.37045 14.818 7.39605 14.7525C7.42165 14.6871 7.43131 14.6165 7.42421 14.5466C7.41712 14.4766 7.39348 14.4094 7.35525 14.3504C7.28665 14.2566 7.18754 14.1896 7.07493 14.1609L6.78413 14.0561C6.69709 14.0203 6.60747 13.9911 6.51603 13.9688C6.44425 13.9554 6.3703 13.9592 6.3003 13.98C6.2303 14.0008 6.16625 14.038 6.11345 14.0884C5.86719 14.3286 5.95015 14.7137 6.30732 14.8665Z" fill="white"/>
<path d="M6.70981 16.6436C6.78337 16.6649 6.85883 16.6789 6.93512 16.6855C7.04196 16.6986 7.15006 16.6748 7.24164 16.6183C7.30717 16.5742 7.35912 16.5127 7.39167 16.4407C7.42422 16.3688 7.43608 16.2891 7.42592 16.2108C7.41577 16.1325 7.384 16.0585 7.33417 15.9972C7.28435 15.9359 7.21844 15.8897 7.14383 15.8638C7.04981 15.8284 6.95235 15.8029 6.85303 15.7878C6.7459 15.7821 6.64043 15.8161 6.55675 15.8832C6.47306 15.9504 6.41702 16.046 6.39931 16.1518C6.38161 16.2576 6.40347 16.3662 6.46074 16.4569C6.51801 16.5476 6.60667 16.6141 6.70981 16.6436Z" fill="white"/>
<path d="M4.62642 15.9433C4.73343 16.0129 4.84725 16.0714 4.96612 16.1179C5.0945 16.1702 5.22983 16.2035 5.36783 16.2166C5.47979 16.2244 5.591 16.1932 5.68248 16.1281C5.77395 16.0631 5.84001 15.9683 5.86939 15.86C5.89876 15.7516 5.88963 15.6365 5.84355 15.5341C5.79746 15.4318 5.71729 15.3486 5.61671 15.2988L5.31281 15.1416C5.20214 15.0765 5.08509 15.023 4.9635 14.9818C4.88892 14.9617 4.81069 14.9591 4.73493 14.9742C4.65918 14.9894 4.58797 15.0219 4.52687 15.0691C4.23781 15.2962 4.29807 15.7389 4.62642 15.9433Z" fill="white"/>
<path d="M2.4136 14.3172C2.52195 14.4516 2.64174 14.5764 2.77164 14.6901C2.88962 14.7985 3.0177 14.8952 3.15413 14.9792C3.28956 15.0691 3.45388 15.1046 3.61435 15.0787C3.70233 15.0624 3.78427 15.0226 3.85155 14.9636C3.91883 14.9046 3.96896 14.8286 3.99667 14.7435C4.02438 14.6584 4.02864 14.5674 4.00899 14.4801C3.98935 14.3928 3.94654 14.3124 3.88506 14.2474C3.7936 14.1551 3.69741 14.0677 3.59688 13.9854C3.46502 13.8692 3.33927 13.7548 3.21526 13.6291C3.166 13.5698 3.1054 13.521 3.03702 13.4854C2.96864 13.4499 2.89386 13.4284 2.81705 13.4221C2.71889 13.4191 2.62189 13.444 2.53733 13.4939C2.45277 13.5439 2.38412 13.6168 2.33937 13.7042C2.2898 13.8023 2.2704 13.9128 2.28361 14.022C2.29682 14.1311 2.34205 14.2338 2.4136 14.3172Z" fill="white"/>
<path d="M46.1403 8.99722C44.5989 8.99722 42.8279 9.52118 41.7791 10.7682V1.95514C41.7791 1.91809 41.7644 1.88255 41.7382 1.85634C41.712 1.83014 41.6765 1.81542 41.6394 1.81542H37.5577C37.5394 1.8153 37.5211 1.81884 37.5041 1.82582C37.4871 1.8328 37.4717 1.84309 37.4587 1.85609C37.4457 1.86908 37.4354 1.88453 37.4284 1.90154C37.4214 1.91854 37.4179 1.93676 37.418 1.95514V25.4174C37.4179 25.4358 37.4214 25.454 37.4284 25.471C37.4354 25.488 37.4457 25.5034 37.4587 25.5164C37.4717 25.5294 37.4871 25.5397 37.5041 25.5467C37.5211 25.5537 37.5394 25.5572 37.5577 25.5571H41.6394C41.6765 25.5571 41.712 25.5424 41.7382 25.5162C41.7644 25.49 41.7791 25.4544 41.7791 25.4174V16.0803C41.7626 14.2796 42.8017 12.8641 44.7954 12.8649C46.8913 12.8649 47.7803 14.3425 47.7803 16.1458V25.4174C47.7801 25.4358 47.7837 25.454 47.7907 25.471C47.7976 25.488 47.8079 25.5034 47.8209 25.5164C47.8339 25.5294 47.8494 25.5397 47.8664 25.5467C47.8834 25.5537 47.9016 25.5572 47.92 25.5571H52.0017C52.0387 25.5571 52.0743 25.5424 52.1005 25.5162C52.1267 25.49 52.1414 25.4544 52.1414 25.4174V15.3922C52.1414 11.8502 50.2394 8.99722 46.1403 8.99722Z" fill="white"/>
<path d="M58.0818 1.42248C57.725 1.42248 57.3718 1.49299 57.0424 1.62996C56.7129 1.76694 56.4139 1.96767 56.1623 2.22063C55.9107 2.47359 55.7116 2.77377 55.5764 3.10394C55.4413 3.4341 55.3727 3.78772 55.3746 4.14448C55.3746 5.58712 56.5885 6.8001 58.0643 6.8001C58.444 6.80274 58.82 6.7243 59.167 6.57004C59.514 6.41577 59.8241 6.18922 60.0765 5.90553C60.329 5.62184 60.5179 5.28753 60.6309 4.92496C60.7438 4.56239 60.778 4.17989 60.7313 3.80303C60.5566 2.47303 59.4222 1.43121 58.0818 1.42248Z" fill="white"/>
<path d="M60.1172 9.42341H56.0355C55.9584 9.42341 55.8958 9.48597 55.8958 9.56314V25.4174C55.8958 25.4946 55.9584 25.5571 56.0355 25.5571H60.1172C60.1944 25.5571 60.2569 25.4946 60.2569 25.4174V9.56314C60.2569 9.48597 60.1944 9.42341 60.1172 9.42341Z" fill="white"/>
<path d="M73.1965 8.99722C70.8028 8.99722 69.0318 10.0451 68.3061 11.1944V1.95514C68.3061 1.93672 68.3025 1.91848 68.2954 1.90147C68.2883 1.88446 68.278 1.86902 68.2649 1.85603C68.2518 1.84305 68.2363 1.83277 68.2193 1.8258C68.2022 1.81883 68.184 1.8153 68.1655 1.81542H64.1485C64.1301 1.8153 64.1119 1.81884 64.0949 1.82582C64.0779 1.8328 64.0624 1.84309 64.0494 1.85609C64.0364 1.86908 64.0261 1.88453 64.0191 1.90154C64.0122 1.91854 64.0086 1.93676 64.0087 1.95514V25.4174C64.0086 25.4358 64.0122 25.454 64.0191 25.471C64.0261 25.488 64.0364 25.5034 64.0494 25.5164C64.0624 25.5294 64.0779 25.5397 64.0949 25.5467C64.1119 25.5537 64.1301 25.5572 64.1485 25.5571H68.0983C68.1167 25.5572 68.135 25.5537 68.152 25.5467C68.1691 25.5397 68.1846 25.5295 68.1977 25.5165C68.2107 25.5035 68.2211 25.4881 68.2282 25.471C68.2352 25.454 68.2389 25.4358 68.2389 25.4174V23.5896C69.0912 24.9668 70.7967 25.9475 73.0262 25.9475C77.617 25.9475 80.6342 22.3076 80.6342 17.4217C80.6403 12.637 77.9183 8.99722 73.1965 8.99722ZM72.2778 22.0823C70.0806 22.0823 68.2092 20.376 68.2092 17.454C68.2092 14.5032 70.0806 12.8623 72.2778 12.8623C74.5081 12.8623 76.2783 14.5032 76.2783 17.454C76.2783 20.4048 74.5081 22.0823 72.2778 22.0823Z" fill="white"/>
<path d="M106.757 21.823C106.367 21.8858 105.972 21.9174 105.576 21.9173C104.33 21.9173 103.674 21.4588 103.674 20.0485V13.2929H106.777C106.796 13.293 106.814 13.2894 106.831 13.2825C106.848 13.2755 106.863 13.2652 106.876 13.2522C106.89 13.2393 106.9 13.2238 106.907 13.2068C106.914 13.1898 106.918 13.1715 106.918 13.1531V9.5631C106.917 9.52597 106.903 9.49043 106.876 9.46425C106.85 9.43807 106.814 9.42338 106.777 9.42338H103.671V4.74351C103.671 4.70637 103.656 4.67074 103.63 4.6444C103.604 4.61806 103.568 4.60315 103.531 4.60291H99.4984C99.4612 4.60291 99.4256 4.61761 99.3992 4.64379C99.3729 4.66996 99.358 4.7055 99.3578 4.74264L99.3516 9.42338H96.5642C96.527 9.42338 96.4914 9.43807 96.465 9.46425C96.4387 9.49043 96.4238 9.52597 96.4236 9.5631V13.1531C96.4236 13.1715 96.4272 13.1898 96.4343 13.2068C96.4414 13.2238 96.4517 13.2393 96.4648 13.2522C96.4779 13.2652 96.4934 13.2755 96.5104 13.2825C96.5275 13.2894 96.5457 13.293 96.5642 13.2929H99.3429V20.803C99.3429 23.9188 101.31 25.7876 104.458 25.7876C105.644 25.7876 106.407 25.5903 106.825 25.4313C106.852 25.4208 106.876 25.4024 106.892 25.3784C106.909 25.3544 106.918 25.326 106.918 25.2969V21.9618C106.918 21.9417 106.913 21.9218 106.905 21.9035C106.896 21.8852 106.884 21.8689 106.869 21.8558C106.854 21.8426 106.836 21.8328 106.817 21.8272C106.797 21.8215 106.777 21.8201 106.757 21.823Z" fill="white"/>
<path d="M143.192 1.81632H139.132C139.114 1.81621 139.096 1.81974 139.079 1.82672C139.062 1.8337 139.046 1.84399 139.033 1.85699C139.02 1.86999 139.01 1.88544 139.003 1.90244C138.996 1.91945 138.992 1.93767 138.993 1.95605V11.0302C138.533 10.1779 137.222 9.03044 134.434 9.03044C129.877 9.03044 126.695 12.7357 126.695 17.4575C126.695 22.3479 129.974 25.951 134.565 25.951C136.73 25.951 138.369 24.9668 139.09 23.6883L139.099 25.4183C139.099 25.4552 139.114 25.4905 139.14 25.5165C139.167 25.5425 139.202 25.5571 139.239 25.5571H143.192C143.229 25.5571 143.265 25.5424 143.291 25.5162C143.317 25.49 143.332 25.4545 143.332 25.4174V1.95518C143.332 1.91827 143.317 1.88295 143.291 1.85694C143.264 1.83092 143.229 1.81632 143.192 1.81632ZM135.09 22.0824C132.795 22.0824 131.09 20.3437 131.09 17.454C131.09 14.5644 132.861 12.8955 135.09 12.8955C137.319 12.8955 139.107 14.5356 139.107 17.4217C139.104 20.3437 137.315 22.0824 135.086 22.0824H135.09Z" fill="white"/>
<path d="M116.682 8.93178C112.551 8.93178 108.747 12.2764 108.747 17.4252C108.747 22.8684 112.65 26.0497 117.076 26.0497C120.38 26.0497 122.705 24.435 123.865 22.2859C123.874 22.2687 123.88 22.2499 123.881 22.2305C123.882 22.2111 123.88 22.1917 123.873 22.1734C123.867 22.1551 123.857 22.1384 123.843 22.1242C123.83 22.11 123.814 22.0988 123.796 22.0911L120.527 20.6703C120.496 20.6566 120.461 20.6544 120.429 20.6642C120.397 20.674 120.37 20.6951 120.352 20.7236C119.728 21.6842 118.7 22.3112 117.108 22.3112C114.943 22.3112 113.14 20.7699 113.041 18.6382H124.453C124.488 18.6385 124.522 18.6255 124.548 18.6016C124.574 18.5778 124.59 18.545 124.593 18.5098C124.61 18.2767 124.649 17.7754 124.649 17.2942C124.651 12.1131 121.667 8.93178 116.682 8.93178ZM113.141 15.656C113.24 14.1802 114.486 12.4755 116.749 12.4755C119.24 12.4755 120.29 14.0474 120.355 15.656H113.141Z" fill="white"/>
<path d="M90.6228 15.7398L88.327 15.2473C87.4415 15.0831 86.8511 14.636 86.8511 13.8501C86.8511 12.9314 87.7698 12.2432 88.9173 12.2432C90.4892 12.2432 91.2201 13.1331 91.4795 13.9898C91.4852 14.0079 91.4946 14.0247 91.5071 14.0391C91.5197 14.0535 91.535 14.0651 91.5522 14.0733C91.5694 14.0815 91.5881 14.0861 91.6071 14.0867C91.6262 14.0874 91.6451 14.0841 91.6629 14.0771L94.9114 12.8178C94.9453 12.8052 94.9728 12.7799 94.9883 12.7473C95.0038 12.7147 95.006 12.6774 94.9944 12.6432C94.418 10.9613 92.7117 8.93353 88.8815 8.93353C85.4059 8.93353 82.8481 11.3272 82.8481 14.2133C82.8481 16.476 84.2584 18.405 87.3734 19.0967L89.505 19.5883C90.7512 19.8503 91.2428 20.3743 91.2428 21.0991C91.2428 21.9523 90.5547 22.7059 89.1112 22.7059C87.2834 22.7059 86.3342 21.6161 86.1752 20.3961C86.1728 20.377 86.1664 20.3587 86.1564 20.3422C86.1464 20.3258 86.1331 20.3116 86.1173 20.3007C86.1015 20.2897 86.0835 20.2822 86.0646 20.2786C86.0457 20.2751 86.0263 20.2755 86.0076 20.28L82.5468 21.0397C82.5125 21.0467 82.4821 21.0665 82.4619 21.095C82.4416 21.1235 82.4329 21.1587 82.4376 21.1934C82.6996 23.0439 84.4007 26.0514 89.1443 26.0514C93.3745 26.0514 95.4075 23.3617 95.4075 20.7384C95.4118 18.3727 93.805 16.3948 90.6228 15.7398Z" fill="white"/>
<path d="M34.8479 20.5638L31.2762 19.3726C31.2583 19.3666 31.2393 19.3643 31.2205 19.3657C31.2016 19.3672 31.1833 19.3724 31.1664 19.381C31.1496 19.3896 31.1346 19.4015 31.1225 19.4159C31.1103 19.4304 31.1011 19.4471 31.0955 19.4652C30.6937 20.6799 29.5803 22.0492 27.4329 22.0492C25.2026 22.0492 23.3006 20.4092 23.3006 17.4907C23.3006 14.5722 25.1703 12.9654 27.3971 12.9654C29.2537 12.9654 30.2641 13.9793 30.7627 15.1163C30.7767 15.1489 30.8024 15.175 30.8348 15.1894C30.8672 15.2038 30.9038 15.2054 30.9374 15.194L34.5964 13.9312C34.6307 13.9191 34.659 13.8941 34.6753 13.8615C34.6916 13.829 34.6946 13.7913 34.6837 13.7566C33.793 11.2582 31.3583 8.93612 27.2993 8.93612C22.6107 8.93612 18.9377 12.5104 18.9377 17.4942C18.9377 22.4457 22.6762 26.0523 27.4312 26.0523C31.6578 26.0523 34.1711 23.3844 34.937 20.7375C34.9478 20.7027 34.9445 20.665 34.9278 20.6325C34.9112 20.6 34.8825 20.5754 34.8479 20.5638Z" fill="white"/>
</svg>
