<svg width="42" height="28" viewBox="0 0 42 28" fill="none" xmlns="http://www.w3.org/2000/svg">
<path d="M31.3092 17.2381C34.6624 17.2381 37.3806 14.5198 37.3806 11.1666C37.3806 7.81349 34.6624 5.09521 31.3092 5.09521C27.956 5.09521 25.2378 7.81349 25.2378 11.1666C25.2378 14.5198 27.956 17.2381 31.3092 17.2381Z" stroke="#47474F" stroke-width="2" stroke-linecap="round" stroke-linejoin="round"/>
<path d="M28.4761 11.5713C28.4761 9.783 29.9258 8.33325 31.7142 8.33325" stroke="#47474F" stroke-width="2" stroke-linecap="round" stroke-linejoin="round"/>
<path d="M25.2379 10.762C22.0735 10.9702 19.5713 13.603 19.5713 16.8201C19.5713 20.1733 22.2895 22.8915 25.6427 22.8915C28.778 22.8915 31.3583 20.5149 31.6803 17.4649" stroke="#47474F" stroke-width="2" stroke-linecap="round" stroke-linejoin="round"/>
<path d="M17.143 22.0953H7.42866C6.98158 22.0953 6.61914 21.7328 6.61914 21.2857V6.71431C6.61914 6.26722 6.98157 5.90479 7.42866 5.90479H23.6192" stroke="#47474F" stroke-width="2" stroke-linecap="round" stroke-linejoin="round"/>
<path d="M10.6666 18.8572H9.85693" stroke="#47474F" stroke-width="2" stroke-linecap="round" stroke-linejoin="round"/>
<path d="M10.6666 9.14282H9.85693" stroke="#47474F" stroke-width="2" stroke-linecap="round" stroke-linejoin="round"/>
<path d="M16.3332 16.2556C16.0621 16.3672 15.7661 16.4287 15.4562 16.4287C14.1522 16.4287 13.0952 15.3414 13.0952 14.0001C13.0952 12.6588 14.1522 11.5715 15.4562 11.5715C15.7661 11.5715 16.0621 11.633 16.3332 11.7446" stroke="#47474F" stroke-width="2" stroke-linecap="round" stroke-linejoin="round"/>
</svg>
