<svg width="32" height="32" viewBox="0 0 32 32" fill="none" xmlns="http://www.w3.org/2000/svg">
<path d="M29.2836 2.71586C28.8395 2.27366 28.3122 1.92383 27.7321 1.68658C27.1521 1.44933 26.5308 1.32936 25.9041 1.3336C25.2774 1.33785 24.6578 1.46622 24.081 1.7113C23.5042 1.95638 22.9817 2.31331 22.5436 2.76149L3.64049 21.6649L1.33301 30.6668L10.3348 28.358L29.2379 9.4546C29.6862 9.01673 30.0433 8.49435 30.2884 7.91765C30.5336 7.34095 30.662 6.72138 30.6662 6.09474C30.6705 5.46811 30.5505 4.84685 30.3131 4.26688C30.0758 3.68692 29.7259 3.15975 29.2836 2.71586V2.71586Z" stroke="#47474F" stroke-width="2" stroke-linecap="round" stroke-linejoin="round"/>
</svg>
