<svg width="32" height="32" viewBox="0 0 32 32" fill="none" xmlns="http://www.w3.org/2000/svg">
<path d="M7.00049 26.8652V28.9506C7.00049 29.481 7.2112 29.9897 7.58627 30.3648C7.96135 30.7399 8.47006 30.9506 9.00049 30.9506C9.53092 30.9506 10.0396 30.7399 10.4147 30.3648C10.7898 29.9897 11.0005 29.481 11.0005 28.9506V27.078" stroke="#47474F" stroke-width="2" stroke-linecap="round" stroke-linejoin="round"/>
<path d="M25.0005 26.8652V28.9506C25.0005 29.481 24.7898 29.9897 24.4147 30.3648C24.0396 30.7399 23.5309 30.9506 23.0005 30.9506C22.4701 30.9506 21.9613 30.7399 21.5863 30.3648C21.2112 29.9897 21.0005 29.481 21.0005 28.9506V27.0624" stroke="#47474F" stroke-width="2" stroke-linecap="round" stroke-linejoin="round"/>
<path d="M1.00049 13.9502V9.9502C1.00049 9.41976 1.2112 8.91105 1.58627 8.53598C1.96135 8.16091 2.47006 7.9502 3.00049 7.9502H4.93799" stroke="#47474F" stroke-width="2" stroke-linecap="round" stroke-linejoin="round"/>
<path d="M31.0005 13.9502V9.9502C31.0005 9.41976 30.7898 8.91105 30.4147 8.53598C30.0396 8.16091 29.5309 7.9502 29.0005 7.9502H27.0786" stroke="#47474F" stroke-width="2" stroke-linecap="round" stroke-linejoin="round"/>
<path d="M24.3338 1.9502H7.66716C6.1944 1.9502 5.00049 3.09818 5.00049 4.5143V24.3861C5.00049 25.8022 6.1944 26.9502 7.66716 26.9502H24.3338C25.8066 26.9502 27.0005 25.8022 27.0005 24.3861V4.5143C27.0005 3.09818 25.8066 1.9502 24.3338 1.9502Z" stroke="#47474F" stroke-width="2" stroke-linecap="round" stroke-linejoin="round"/>
<path d="M27.0005 19.9502H5.00049" stroke="#47474F" stroke-width="2" stroke-linecap="round" stroke-linejoin="round"/>
<path d="M19.0005 23.9502H23.0005" stroke="#47474F" stroke-width="2" stroke-linecap="round" stroke-linejoin="round"/>
<path d="M9.00049 23.9502H13.0005" stroke="#47474F" stroke-width="2" stroke-linecap="round" stroke-linejoin="round"/>
<path d="M13.0005 5.9502H19.0005" stroke="#47474F" stroke-width="2" stroke-linecap="round" stroke-linejoin="round"/>
</svg>
