<svg width="32" height="32" viewBox="0 0 32 32" fill="none" xmlns="http://www.w3.org/2000/svg">
<path d="M15.296 4.00016L16.0813 3.38105C16.0684 3.3647 16.055 3.34876 16.0411 3.33325L15.296 4.00016ZM29.6986 22.2691L30.5166 21.6939C30.5061 21.679 30.4952 21.6643 30.484 21.65L29.6986 22.2691ZM3.99967 29.6668C3.0792 29.6668 2.33301 28.9206 2.33301 28.0002H0.333008C0.333008 30.0252 1.97463 31.6668 3.99967 31.6668V29.6668ZM2.33301 9.3335C2.33301 5.4675 5.46701 2.3335 9.33301 2.3335V0.333496C4.36245 0.333496 0.333008 4.36293 0.333008 9.3335H2.33301ZM25.333 29.6668H3.99967V31.6668H25.333V29.6668ZM0.333008 9.3335V28.0002H2.33301V9.3335H0.333008ZM9.33301 2.3335C11.4061 2.3335 13.2676 3.2334 14.5508 4.66708L16.0411 3.33325C14.3946 1.4936 11.9986 0.333496 9.33301 0.333496V2.3335ZM14.5107 4.61927L28.9133 22.8882L30.484 21.65L16.0813 3.38105L14.5107 4.61927ZM28.8807 22.8443C30.8227 25.606 28.7749 29.6668 25.333 29.6668V31.6668C30.4239 31.6668 33.3739 25.7569 30.5166 21.6939L28.8807 22.8443Z" fill="#47474F"/>
<path d="M28.8805 22.8444C29.1982 23.2962 29.822 23.4049 30.2737 23.0872C30.7255 22.7695 30.8342 22.1457 30.5165 21.694L28.8805 22.8444ZM25.3328 29.6669C22.9396 29.6669 20.9995 27.7268 20.9995 25.3336H18.9995C18.9995 28.8314 21.835 31.6669 25.3328 31.6669V29.6669ZM20.9995 25.3336C20.9995 22.9403 22.9396 21.0002 25.3328 21.0002V19.0002C21.835 19.0002 18.9995 21.8358 18.9995 25.3336H20.9995ZM25.3328 21.0002C26.7986 21.0002 28.0947 21.7271 28.8805 22.8444L30.5165 21.694C29.3722 20.0668 27.4772 19.0002 25.3328 19.0002V21.0002Z" fill="#47474F"/>
<path d="M6.66634 28.0002C6.66634 29.4729 5.47243 30.6668 3.99967 30.6668C2.52692 30.6668 1.33301 29.4729 1.33301 28.0002C1.33301 26.5274 2.52692 25.3335 3.99967 25.3335C5.47243 25.3335 6.66634 26.5274 6.66634 28.0002Z" stroke="#47474F" stroke-width="2" stroke-linecap="round"/>
<path d="M16.0411 3.33333C15.6728 2.9218 15.0406 2.88678 14.629 3.25511C14.2175 3.62344 14.1825 4.25563 14.5508 4.66716L16.0411 3.33333ZM16.333 9.33358C16.333 13.1996 13.199 16.3336 9.33301 16.3336V18.3336C14.3036 18.3336 18.333 14.3041 18.333 9.33358H16.333ZM9.33301 16.3336C5.46701 16.3336 2.33301 13.1996 2.33301 9.33358H0.333008C0.333008 14.3041 4.36245 18.3336 9.33301 18.3336V16.3336ZM14.5508 4.66716C15.6598 5.90625 16.333 7.54011 16.333 9.33358H18.333C18.333 7.02915 17.4656 4.92494 16.0411 3.33333L14.5508 4.66716Z" fill="#47474F"/>
<path d="M13.333 9.3335C13.333 11.5426 11.5421 13.3335 9.33301 13.3335C7.12387 13.3335 5.33301 11.5426 5.33301 9.3335C5.33301 7.12436 7.12387 5.3335 9.33301 5.3335C11.5421 5.3335 13.333 7.12436 13.333 9.3335Z" stroke="#47474F" stroke-width="2" stroke-linecap="round"/>
</svg>
