<svg width="24" height="24" viewBox="0 0 24 24" fill="none" xmlns="http://www.w3.org/2000/svg">
<path d="M0.98276 9.95695C0.682812 10.2426 0.671233 10.7174 0.956898 11.0173C1.24256 11.3172 1.71729 11.3288 2.01724 11.0432L2.25 10.8215V21.7501C2.25 22.8546 3.14543 23.7501 4.25 23.7501H8C8.55229 23.7501 9 23.3023 9 22.7501V18.5C9 16.5 10.7067 15.5 12 15.5C13.2933 15.5 15 16.5 15 18.5V22.7501C15 23.3023 15.4477 23.7501 16 23.7501H19.75C20.8546 23.7501 21.75 22.8546 21.75 21.7501V10.8215L21.9828 11.0432C22.2827 11.3288 22.7574 11.3172 23.0431 11.0173C23.3288 10.7174 23.3172 10.2426 23.0172 9.95695L13.341 1.21195C12.5795 0.5237 11.4205 0.5237 10.659 1.21195L0.98276 9.95695Z" fill="#3F3F46"/>
</svg>
