<svg width="32" height="32" viewBox="0 0 32 32" fill="none" xmlns="http://www.w3.org/2000/svg">
<path d="M1.86645 4.99084C1.65829 4.61836 1.5747 4.18907 1.62792 3.76569C1.68114 3.34232 1.86838 2.94707 2.16226 2.63769C2.45614 2.32832 2.84126 2.12105 3.26134 2.04617C3.68143 1.97129 4.11445 2.03273 4.49712 2.22151L29.8491 15.1002C30.0136 15.1838 30.1517 15.3114 30.2482 15.4687C30.3447 15.626 30.3958 15.807 30.3958 15.9915C30.3958 16.1761 30.3447 16.357 30.2482 16.5143C30.1517 16.6716 30.0136 16.7992 29.8491 16.8828L4.49712 29.7788C4.11445 29.9676 3.68143 30.0291 3.26134 29.9542C2.84126 29.8793 2.45614 29.672 2.16226 29.3627C1.86838 29.0533 1.68114 28.658 1.62792 28.2347C1.5747 27.8113 1.65829 27.382 1.86645 27.0095L8.61046 15.9908L1.86645 4.99084Z" stroke="#47474F" stroke-width="1.9375" stroke-linecap="round" stroke-linejoin="round"/>
<path d="M30.396 15.9907H8.604" stroke="#47474F" stroke-width="1.9375" stroke-linecap="round" stroke-linejoin="round"/>
</svg>
