<svg width="24" height="24" viewBox="0 0 24 24" fill="none" xmlns="http://www.w3.org/2000/svg">
<path fill-rule="evenodd" clip-rule="evenodd" d="M6 10C6 8.89488 6.29877 7.85955 6.81995 6.97036C6.82647 6.95861 6.83332 6.947 6.84052 6.93555C7.8868 5.17775 9.80586 4 12 4C15.3137 4 18 6.68629 18 10C18 13.3137 15.3137 16 12 16C8.68629 16 6 13.3137 6 10ZM7.5 10C7.5 9.50612 7.57956 9.03083 7.72657 8.58623C8.42714 9.16434 9.2088 9.63977 10.0482 9.99646C11.2189 10.4939 12.4783 10.7502 13.7503 10.75C14.6792 10.7502 15.6011 10.6138 16.4868 10.3469C16.3097 12.6701 14.3686 14.5 12 14.5C9.51472 14.5 7.5 12.4853 7.5 10ZM13.7503 9.24998C14.6339 9.25024 15.51 9.10365 16.343 8.81755C15.8238 6.90589 14.0761 5.5 12 5.5C10.5584 5.5 9.27514 6.17788 8.45156 7.23226C9.09807 7.80844 9.83532 8.27619 10.6348 8.61593C11.62 9.03456 12.6799 9.25022 13.7503 9.24998Z" fill="#3F3F46"/>
<path fill-rule="evenodd" clip-rule="evenodd" d="M12 1.5C6.20101 1.5 1.5 6.20101 1.5 12C1.5 15.1364 2.87514 17.9516 5.05538 19.8756C5.91855 19.1139 6.90237 18.4984 7.9681 18.055C9.24581 17.5234 10.616 17.2498 11.9999 17.2498C13.3838 17.2498 14.754 17.5234 16.0317 18.055C17.0975 18.4984 18.0813 19.114 18.9445 19.8757C21.1248 17.9517 22.5 15.1364 22.5 12C22.5 6.20101 17.799 1.5 12 1.5ZM17.7228 20.8048C17.0397 20.2416 16.276 19.7813 15.4555 19.4399C14.3604 18.9843 13.186 18.7498 11.9999 18.7498C10.8138 18.7498 9.6394 18.9843 8.54429 19.4399C7.72391 19.7813 6.96016 20.2416 6.27709 20.8048C7.92332 21.877 9.8889 22.5 12 22.5C14.1111 22.5 16.0766 21.877 17.7228 20.8048ZM0 12C0 5.37258 5.37258 0 12 0C18.6274 0 24 5.37258 24 12C24 18.6274 18.6274 24 12 24C5.37258 24 0 18.6274 0 12Z" fill="#3F3F46"/>
</svg>
