<svg width="48" height="19" viewBox="0 0 48 19" fill="none" xmlns="http://www.w3.org/2000/svg">
  <g clip-path="url(#a)" fill-rule="evenodd" clip-rule="evenodd" fill="#fff">
    <path d="M10.917.088h2.818a.344.344 0 0 1 .355.33V17.94a.321.321 0 0 1-.107.23.352.352 0 0 1-.248.09h-2.404a.535.535 0 0 1-.473-.301l-.295-.744a6.451 6.451 0 0 1-4.11 1.478c-3.556 0-6.453-2.9-6.453-6.469 0-3.568 2.897-6.468 6.454-6.468a6.44 6.44 0 0 1 4.109 1.488V.408a.32.32 0 0 1 .107-.23.352.352 0 0 1 .247-.09Zm-7.38 12.146c0 1.789 1.577 3.239 3.518 3.239 1.94 0 3.517-1.45 3.517-3.24 0-1.788-1.576-3.238-3.517-3.238-1.941 0-3.518 1.45-3.518 3.239ZM21.28 7.24a6.409 6.409 0 0 1 4.11-1.487c3.557 0 6.453 2.908 6.453 6.475 0 3.566-2.896 6.465-6.453 6.465a6.441 6.441 0 0 1-4.11-1.487l-.295.744a.552.552 0 0 1-.473.3h-2.404a.352.352 0 0 1-.247-.088.32.32 0 0 1-.108-.231V.408a.321.321 0 0 1 .108-.231.352.352 0 0 1 .247-.09h2.818c.092-.002.18.03.248.09a.32.32 0 0 1 .107.23V7.24Zm0 4.978c0 1.788 1.577 3.238 3.518 3.238 1.942 0 3.518-1.45 3.518-3.238s-1.576-3.237-3.518-3.237c-1.94 0-3.517 1.45-3.517 3.237ZM45.034 6.22h2.611c.092-.004.181.028.248.088.066.06.105.144.107.231v11.446a.322.322 0 0 1-.107.23.352.352 0 0 1-.248.09h-2.404a.535.535 0 0 1-.473-.302l-.295-.744a6.449 6.449 0 0 1-4.11 1.479c-3.556 0-6.453-2.901-6.453-6.471 0-3.57 2.897-6.472 6.454-6.472 1.512.001 2.972.527 4.109 1.48l.147-.745a.431.431 0 0 1 .414-.31Zm-4.07 9.278c1.932 0 3.509-1.442 3.519-3.222v-.038c-.01-1.78-1.577-3.221-3.518-3.221-1.941 0-3.518 1.45-3.518 3.24 0 1.79 1.587 3.24 3.518 3.24Z"/>
  </g>
  <defs>
    <clipPath id="a">
      <path fill="#fff" d="M0 0h48v18.801H0z"/>
    </clipPath>
  </defs>
</svg>
