<svg width="48" height="33" viewBox="0 0 48 33" fill="none" xmlns="http://www.w3.org/2000/svg">
<g clip-path="url(#clip0_15001_5910)">
<path fill-rule="evenodd" clip-rule="evenodd" d="M10.9173 6.66109H13.7353C13.9283 6.65899 14.0868 6.80624 14.09 6.99063V24.513C14.088 24.6006 14.0493 24.6838 13.9827 24.7439C13.916 24.8041 13.8269 24.8362 13.7353 24.8332H11.3311C11.126 24.8279 10.9422 24.7108 10.8582 24.5319L10.5626 23.788C9.42375 24.7372 7.96493 25.262 6.45382 25.2663C2.89683 25.2663 0 22.3663 0 18.7978C0 15.2293 2.89683 12.3293 6.45382 12.3293C7.96638 12.3352 9.42568 12.8636 10.5626 13.8169V6.98122C10.5646 6.89364 10.6033 6.81049 10.67 6.75034C10.7366 6.69019 10.8257 6.65804 10.9173 6.66109ZM3.53728 18.8072C3.53728 20.5961 5.11379 22.0461 7.05486 22.0461C8.99594 22.0461 10.5724 20.5961 10.5724 18.8072C10.5724 17.0182 8.99594 15.5682 7.05486 15.5682C5.11379 15.5682 3.53728 17.0182 3.53728 18.8072Z" fill="#00098A"/>
<path fill-rule="evenodd" clip-rule="evenodd" d="M21.2808 13.8133C22.4163 12.8581 23.8765 12.3296 25.3896 12.3264C28.9466 12.3264 31.8434 15.2343 31.8434 18.801C31.8434 22.3677 28.9466 25.2663 25.3896 25.2663C23.8771 25.2603 22.4178 24.7322 21.2808 23.7794L20.9853 24.5228C20.8982 24.6991 20.7162 24.815 20.5123 24.824H18.1081C18.0165 24.827 17.9274 24.7949 17.8608 24.7348C17.7941 24.6746 17.7555 24.5915 17.7534 24.504V6.98105C17.7555 6.89352 17.7941 6.81041 17.8608 6.75029C17.9274 6.69017 18.0165 6.65805 18.1081 6.66109H20.9261C21.0178 6.65805 21.1068 6.69017 21.1735 6.75029C21.2401 6.81041 21.2788 6.89352 21.2808 6.98105V13.8133ZM21.2808 18.7916C21.2808 20.5797 22.8574 22.029 24.7984 22.029C26.7395 22.029 28.316 20.5797 28.316 18.7916C28.316 17.0036 26.7395 15.5543 24.7984 15.5543C22.8574 15.5543 21.2808 17.0036 21.2808 18.7916Z" fill="#00098A"/>
<path fill-rule="evenodd" clip-rule="evenodd" d="M45.0343 12.7922H47.6453C47.737 12.7891 47.826 12.8213 47.8927 12.8815C47.9593 12.9416 47.998 13.0248 48.0001 13.1125V24.5576C47.998 24.6452 47.9593 24.7284 47.8927 24.7886C47.826 24.8487 47.737 24.8809 47.6453 24.8779H45.2412C45.036 24.8726 44.8522 24.7554 44.7682 24.5764L44.4726 23.8322C43.3338 24.7818 41.875 25.3069 40.3639 25.3112C36.8069 25.3112 33.91 22.4098 33.91 18.8397C33.91 15.2696 36.8069 12.3683 40.3639 12.3683C41.8756 12.3692 43.3356 12.8947 44.4726 13.8472L44.6204 13.103C44.6696 12.9223 44.8389 12.7951 45.0343 12.7922ZM40.9649 22.0707C42.8961 22.0707 44.4726 20.6295 44.4825 18.8491V18.8115C44.4726 17.0311 42.906 15.5899 40.9649 15.5899C39.0238 15.5899 37.4473 17.0405 37.4473 18.8303C37.4473 20.6201 39.0337 22.0707 40.9649 22.0707Z" fill="#00098A"/>
</g>
<defs>
<clipPath id="clip0_15001_5910">
<rect width="48" height="18.8012" fill="white" transform="translate(0 6.57324)"/>
</clipPath>
</defs>
</svg>
