<svg width="32" height="32" viewBox="0 0 32 32" fill="none" xmlns="http://www.w3.org/2000/svg">
<path d="M12.1027 24.9227L7.79503 27.9997V21.8458H3.48734C2.91611 21.8458 2.36827 21.6297 1.96434 21.245C1.56042 20.8603 1.3335 20.3386 1.3335 19.7945V3.38429C1.3335 2.84026 1.56042 2.3185 1.96434 1.93381C2.36827 1.54912 2.91611 1.33301 3.48734 1.33301H28.513C29.0842 1.33301 29.6321 1.54912 30.036 1.93381C30.4399 2.3185 30.6668 2.84026 30.6668 3.38429V9.49967" stroke="#47474F" stroke-width="2" stroke-linecap="round" stroke-linejoin="round"/>
<path d="M7.99121 14.2666C9.25202 14.9338 10.6023 15.4161 12.0005 15.6986" stroke="#47474F" stroke-width="2" stroke-linecap="round" stroke-linejoin="round"/>
<path d="M10.667 6.6665V8.6665" stroke="#47474F" stroke-width="2" stroke-linecap="round" stroke-linejoin="round"/>
<path d="M21.3335 6.6665V8.6665" stroke="#47474F" stroke-width="2" stroke-linecap="round" stroke-linejoin="round"/>
<path d="M30.6668 25.7775C30.6668 26.5138 30.0699 27.1108 29.3335 27.1108H27.3335V30.6663L22.3335 27.1108H18.6668C17.9304 27.1108 17.3335 26.5138 17.3335 25.7775V18.6663C17.3335 17.93 17.9304 17.333 18.6668 17.333H29.3335C30.0699 17.333 30.6668 17.93 30.6668 18.6663V25.7775Z" stroke="#47474F" stroke-width="2" stroke-linecap="round" stroke-linejoin="round"/>
</svg>
