<svg width="32" height="32" viewBox="0 0 32 32" fill="none" xmlns="http://www.w3.org/2000/svg">
<path d="M10 16.0002C13.0376 16.0002 15.5 13.5378 15.5 10.5002C15.5 7.46268 13.0376 5.00024 10 5.00024C6.96243 5.00024 4.5 7.46268 4.5 10.5002C4.5 13.5378 6.96243 16.0002 10 16.0002Z" stroke="#47474F" stroke-width="2" stroke-linecap="round" stroke-linejoin="round"/>
<path d="M1 27.0002C1 24.6133 1.94821 22.3241 3.63604 20.6363C5.32387 18.9485 7.61305 18.0002 10 18.0002C12.3869 18.0002 14.6761 18.9485 16.364 20.6363C18.0407 22.313 18.9875 24.5833 18.9999 26.9533" stroke="#47474F" stroke-width="2" stroke-linecap="round" stroke-linejoin="round"/>
<path d="M23.6353 18.0002C26.1205 18.0002 28.1353 15.9855 28.1353 13.5002C28.1353 11.015 26.1205 9.00024 23.6353 9.00024C21.15 9.00024 19.1353 11.015 19.1353 13.5002C19.1353 15.9855 21.15 18.0002 23.6353 18.0002Z" stroke="#47474F" stroke-width="2" stroke-linecap="round" stroke-linejoin="round"/>
<path d="M21.0845 20.0908C22.1979 19.6805 23.394 19.5451 24.571 19.6963C25.748 19.8474 26.8711 20.2806 27.8447 20.959C28.8183 21.6374 29.6137 22.541 30.1631 23.5928C30.7061 24.6323 30.9931 25.7862 31.0003 26.9585" stroke="#47474F" stroke-width="2" stroke-linecap="round" stroke-linejoin="round"/>
</svg>
