<svg width="32" height="32" viewBox="0 0 32 32" fill="none" xmlns="http://www.w3.org/2000/svg">
<g clip-path="url(#clip0_10218_87)">
<path d="M1 31.9971C0.448 31.9971 0 31.5491 0 30.9971C0 30.4451 0.448 29.9971 1 29.9971H31C31.552 29.9971 32 30.4451 32 30.9971C32 31.5491 31.552 31.9971 31 31.9971H1Z" fill="#47474F"/>
<path d="M16 25.9997C10.4867 25.9997 6 21.5131 6 15.9997V1.99707H5C4.448 1.99707 4 1.54907 4 0.99707C4 0.44507 4.448 -0.00292969 5 -0.00292969H9C9.552 -0.00292969 10 0.44507 10 0.99707C10 1.54907 9.552 1.99707 9 1.99707H8V15.9997C8 20.4104 11.5893 23.9997 16 23.9997C20.4107 23.9997 24 20.4104 24 15.9997V1.99707H23C22.448 1.99707 22 1.54907 22 0.99707C22 0.44507 22.448 -0.00292969 23 -0.00292969H27C27.552 -0.00292969 28 0.44507 28 0.99707C28 1.54907 27.552 1.99707 27 1.99707H26V15.9997C26 21.5131 21.5133 25.9997 16 25.9997Z" fill="#47474F"/>
</g>
<defs>
<clipPath id="clip0_10218_87">
<rect width="32" height="32" fill="white"/>
</clipPath>
</defs>
</svg>
