<svg width="24" height="24" viewBox="0 0 24 24" fill="none" xmlns="http://www.w3.org/2000/svg">
<path d="M4 17.5L4.00005 16.75H4V17.5ZM4 5L4 4.25H4V5ZM18.0528 5.00001L18.0528 5.75001H18.0528V5.00001ZM19.4759 6.02567L20.1874 5.7885V5.7885L19.4759 6.02567ZM20.423 8.86716L19.7115 9.10433V9.10433L20.423 8.86716ZM22 18.25C22.4142 18.25 22.75 17.9142 22.75 17.5C22.75 17.0858 22.4142 16.75 22 16.75V17.5V18.25ZM17.4999 9L16.7499 9.00001V9.00001L17.4999 9ZM12.9999 9.00002L13.7499 9.00001L12.9999 9.00002ZM18.2499 19.5C18.2499 19.9142 18.5857 20.25 18.9999 20.25C19.4141 20.25 19.7499 19.9142 19.7499 19.5H18.9999H18.2499ZM9 17.5001H8.25C8.25 18.1904 7.69036 18.7501 7 18.7501V19.5001V20.2501C8.51878 20.2501 9.75 19.0189 9.75 17.5001H9ZM7 19.5001V18.7501C6.30964 18.7501 5.75 18.1904 5.75 17.5001H5H4.25C4.25 19.0189 5.48122 20.2501 7 20.2501V19.5001ZM5 17.5001H5.75C5.75 16.8097 6.30964 16.2501 7 16.2501V15.5001V14.7501C5.48122 14.7501 4.25 15.9813 4.25 17.5001H5ZM7 15.5001V16.2501C7.69036 16.2501 8.25 16.8097 8.25 17.5001H9H9.75C9.75 15.9813 8.51878 14.7501 7 14.7501V15.5001ZM5 17.5001L5.00005 16.7501L4.00005 16.75L4 17.5L3.99995 18.25L4.99995 18.2501L5 17.5001ZM2.5 16H3.25V6.5H2.5H1.75V16H2.5ZM4 5L4 5.75L18.0528 5.75001L18.0528 5.00001L18.0528 4.25001L4 4.25L4 5ZM19.4759 6.02567L18.7643 6.26284L19.7115 9.10433L20.423 8.86716L21.1345 8.62999L20.1874 5.7885L19.4759 6.02567ZM20.5 9.3415H19.75V17.5H20.5H21.25V9.3415H20.5ZM22 17.5V16.75H20.5V17.5V18.25H22V17.5ZM20.5 17.5L20.5 16.75L9 16.7501L9 17.5001L9 18.2501L20.5 18.25L20.5 17.5ZM20.423 8.86716L19.7115 9.10433C19.737 9.18081 19.75 9.26089 19.75 9.3415H20.5H21.25C21.25 9.09967 21.211 8.85942 21.1345 8.62999L20.423 8.86716ZM18.0528 5.00001V5.75001C18.3757 5.75001 18.6623 5.95658 18.7643 6.26284L19.4759 6.02567L20.1874 5.7885C19.8811 4.86973 19.0213 4.25001 18.0528 4.25001V5.00001ZM2.5 6.5H3.25C3.25 6.08579 3.58579 5.75 4 5.75V5V4.25C2.75736 4.25 1.75 5.25736 1.75 6.5H2.5ZM4 17.5V16.75C3.58579 16.75 3.25 16.4142 3.25 16H2.5H1.75C1.75 17.2427 2.75736 18.25 4 18.25V17.5ZM6 8.00001V8.75001H9.5V8.00001V7.25001H6V8.00001ZM10.5 9.00001H9.75V11.5H10.5H11.25V9.00001H10.5ZM9.5 12.5V11.75H6V12.5V13.25H9.5V12.5ZM5 11.5H5.75V9.00001H5H4.25V11.5H5ZM6 12.5V11.75C5.86193 11.75 5.75 11.6381 5.75 11.5H5H4.25C4.25 12.4665 5.0335 13.25 6 13.25V12.5ZM10.5 11.5H9.75C9.75 11.6381 9.63807 11.75 9.5 11.75V12.5V13.25C10.4665 13.25 11.25 12.4665 11.25 11.5H10.5ZM9.5 8.00001V8.75001C9.63807 8.75001 9.75 8.86194 9.75 9.00001H10.5H11.25C11.25 8.03351 10.4665 7.25001 9.5 7.25001V8.00001ZM6 8.00001V7.25001C5.0335 7.25001 4.25 8.03351 4.25 9.00001H5H5.75C5.75 8.86194 5.86193 8.75001 6 8.75001V8.00001ZM13.9999 8.00001V8.75001H16.4999V8.00001V7.25001H13.9999V8.00001ZM17.4999 9L16.7499 9.00001L16.7499 17.5L17.4999 17.5L18.2499 17.5L18.2499 9L17.4999 9ZM13 17.5L13.75 17.5L13.7499 9.00001L12.9999 9.00002L12.2499 9.00002L12.25 17.5L13 17.5ZM18.9999 19.5H19.7499V17.5H18.9999H18.2499V19.5H18.9999ZM16.4999 8.00001V8.75001C16.6379 8.75001 16.7499 8.86194 16.7499 9.00001L17.4999 9L18.2499 9C18.2499 8.0335 17.4664 7.25001 16.4999 7.25001V8.00001ZM13.9999 8.00001V7.25001C13.0334 7.25001 12.2499 8.03352 12.2499 9.00002L12.9999 9.00002L13.7499 9.00001C13.7499 8.86194 13.8619 8.75001 13.9999 8.75001V8.00001Z" fill="#1B1B1F"/>
</svg>
