<svg width="92" height="32" viewBox="0 0 92 32" fill="none" xmlns="http://www.w3.org/2000/svg">
  <path fill-rule="evenodd" clip-rule="evenodd" d="M2.092 28.983V3.017a.93.93 0 0 1 .93-.93h8.23c10.323 0 18.722 8.382 18.722 18.684v9.141H3.023a.93.93 0 0 1-.93-.928Zm87.816 0a.93.93 0 0 1-.93.93H32.065V3.016a.93.93 0 0 1 .93-.93h55.981a.93.93 0 0 1 .93.93v25.966ZM88.978 0H32.996a3.023 3.023 0 0 0-3.023 3.017V11.7C26.594 4.78 19.472 0 11.252 0h-8.23A3.023 3.023 0 0 0 0 3.017v25.966A3.023 3.023 0 0 0 3.023 32h85.954A3.023 3.023 0 0 0 92 28.983V3.017A3.023 3.023 0 0 0 88.977 0Z" fill="#fff"/>
  <path fill-rule="evenodd" clip-rule="evenodd" d="M11.252 2.088h-8.23a.93.93 0 0 0-.93.929v25.966a.93.93 0 0 0 .93.93h26.952V20.77c0-10.302-8.399-18.683-18.722-18.683Z" fill="#0063FB"/>
  <path fill-rule="evenodd" clip-rule="evenodd" d="M88.977 2.088h-55.98a.93.93 0 0 0-.931.929v26.895h56.911a.93.93 0 0 0 .93-.928V3.017a.93.93 0 0 0-.93-.93Z" fill="#06BEFB"/>
  <path fill-rule="evenodd" clip-rule="evenodd" d="M41.507 10.575h7.538c.328 0 .593.265.593.592v1.856a.593.593 0 0 1-.593.592h-4.833v2.449h3.848c.328 0 .593.265.593.592v1.58a.593.593 0 0 1-.593.592h-3.848v2.005a.592.592 0 0 1-.594.592h-2.11a.592.592 0 0 1-.594-.592v-9.666c0-.327.266-.592.593-.592Zm11.415 0h2.111c.328 0 .593.265.593.592v9.666a.592.592 0 0 1-.593.592h-2.11a.592.592 0 0 1-.594-.592v-9.666c0-.327.265-.592.593-.592Zm27.544 0h-2.111a.592.592 0 0 0-.593.592v4.74l-3.301-4.979a.791.791 0 0 0-.66-.353H72.18a.592.592 0 0 0-.593.592v9.666c0 .327.266.592.593.592h2.112a.592.592 0 0 0 .593-.592v-4.685l3.229 4.92a.79.79 0 0 0 .661.357h1.692a.592.592 0 0 0 .594-.592v-9.666a.592.592 0 0 0-.594-.592Zm-14.828 0h2.112c.328 0 .593.265.593.592v9.666a.592.592 0 0 1-.593.592h-1.692a.79.79 0 0 1-.662-.357l-3.229-4.92v4.685a.592.592 0 0 1-.593.592h-2.111a.592.592 0 0 1-.593-.592v-9.666c0-.327.265-.592.593-.592h1.622c.265 0 .513.133.66.354l3.3 4.978v-4.74c0-.327.266-.592.593-.592Z" fill="#fff"/>
</svg>
