<svg width="32" height="32" viewBox="0 0 32 32" fill="none" xmlns="http://www.w3.org/2000/svg">
<path d="M30.3099 13.4824L30.6805 13.1157C30.8262 12.9713 30.9275 12.7882 30.9723 12.588C31.0172 12.3879 31.0038 12.1791 30.9336 11.9863C30.8635 11.7935 30.7396 11.6249 30.5766 11.5004C30.4136 11.3759 30.2183 11.3007 30.0139 11.2837L21.4272 10.433L16.9725 1.5997C16.8809 1.42076 16.7417 1.27059 16.5702 1.16573C16.3987 1.06086 16.2016 1.00537 16.0005 1.00537C15.7995 1.00537 15.6024 1.06086 15.4309 1.16573C15.2594 1.27059 15.1202 1.42076 15.0285 1.5997L10.5672 10.433L1.98054 11.2837C1.77612 11.3007 1.58086 11.3759 1.41785 11.5004C1.25485 11.6249 1.13095 11.7935 1.0608 11.9863C0.990658 12.1791 0.977216 12.3879 1.02207 12.588C1.06692 12.7882 1.16818 12.9713 1.31387 13.1157L8.38054 20.1197L5.77254 29.637C5.71893 29.8389 5.72479 30.052 5.7894 30.2506C5.85402 30.4492 5.97463 30.6249 6.13675 30.7566C6.29887 30.8883 6.49558 30.9704 6.70322 30.9929C6.91087 31.0155 7.1206 30.9775 7.30721 30.8837L12.1777 28.4712" stroke="#47474F" stroke-width="2" stroke-linecap="round" stroke-linejoin="round"/>
<path d="M23 31C27.4183 31 31 27.4183 31 23C31 18.5817 27.4183 15 23 15C18.5817 15 15 18.5817 15 23C15 27.4183 18.5817 31 23 31Z" stroke="#47474F" stroke-width="2" stroke-linecap="round" stroke-linejoin="round"/>
<path d="M19.1836 23.9467L21.1836 25.9467C21.2852 26.0477 21.4072 26.1258 21.5415 26.1756C21.6758 26.2255 21.8193 26.246 21.9622 26.2358C22.1051 26.2255 22.2441 26.1848 22.3699 26.1163C22.4957 26.0478 22.6054 25.9531 22.6916 25.8387L26.4819 20.7854" stroke="#47474F" stroke-width="2" stroke-linecap="round" stroke-linejoin="round"/>
</svg>
