<svg width="42" height="28" viewBox="0 0 42 28" fill="none" xmlns="http://www.w3.org/2000/svg">
<path d="M14 23H29.1016" stroke="#47474F" stroke-width="2"/>
<path d="M36 23C36 24.6569 34.6569 26 33 26V28C35.7614 28 38 25.7614 38 23H36ZM33 26C31.3431 26 30 24.6569 30 23H28C28 25.7614 30.2386 28 33 28V26ZM30 23C30 21.3431 31.3431 20 33 20V18C30.2386 18 28 20.2386 28 23H30ZM33 20C34.6569 20 36 21.3431 36 23H38C38 20.2386 35.7614 18 33 18V20Z" fill="#47474F"/>
<path d="M14 23C14 25.2091 12.2091 27 10 27C7.79086 27 6 25.2091 6 23C6 20.7909 7.79086 19 10 19C12.2091 19 14 20.7909 14 23Z" stroke="#47474F" stroke-width="2"/>
<path d="M33.5 7L36 13" stroke="#47474F" stroke-width="2"/>
<path d="M6 11.5V8.5C6 7.67157 6.67157 7 7.5 7H11.5C12.3284 7 13 7.67157 13 8.5V11.5C13 12.3284 12.3284 13 11.5 13H7.5C6.67157 13 6 12.3284 6 11.5Z" stroke="#47474F" stroke-width="2"/>
<path d="M5.5 23H3C1.89543 23 1 22.1046 1 21V8C1 4.68629 3.68629 2 7 2H36C37.1046 2 38 2.89543 38 4V7H33.5H29V13H36L41 16V23H37" stroke="#47474F" stroke-width="2" stroke-linejoin="round"/>
</svg>
