<svg width="24" height="24" viewBox="0 0 24 24" fill="none" xmlns="http://www.w3.org/2000/svg"><path d="M15.75 9a.75.75 0 0 0 0-1.5V9ZM9 12.75a.75.75 0 0 0 0 1.5v-1.5Zm6 1.5a.75.75 0 0 0 0-1.5v1.5ZM21 12h-.75A8.25 8.25 0 0 1 12 20.25v1.5c5.385 0 9.75-4.365 9.75-9.75H21Zm-9 9v-.75A8.25 8.25 0 0 1 3.75 12h-1.5c0 5.385 4.365 9.75 9.75 9.75V21Zm-9-9h.75A8.25 8.25 0 0 1 12 3.75v-1.5c-5.385 0-9.75 4.365-9.75 9.75H3Zm9-9v.75A8.25 8.25 0 0 1 20.25 12h1.5c0-5.385-4.365-9.75-9.75-9.75V3Zm0 18h.75v-7.5h-1.5V21H12Zm0-7.5h.75v-3h-1.5v3H12Zm0-3h.75c0-.403.135-.78.373-1.049.226-.254.58-.451 1.127-.451V7.5c-.954 0-1.724.365-2.248.955-.512.576-.752 1.323-.752 2.045H12Zm2.25-2.25V9h1.5V7.5h-1.5v.75ZM9 13.5v.75h3v-1.5H9v.75Zm3 0v.75h3v-1.5h-3v.75Z" fill="#1B1B1F"/></svg>