<svg width="42" height="28" viewBox="0 0 42 28" fill="none" xmlns="http://www.w3.org/2000/svg">
<path d="M33.5667 10.4998C33.0539 10.4998 32.5622 10.7105 32.1996 11.0855C31.837 11.4606 31.6333 11.9693 31.6333 12.4998V14.4998C31.6333 14.765 31.5315 15.0193 31.3502 15.2069C31.1689 15.3944 30.923 15.4998 30.6667 15.4998H11.3333C11.077 15.4998 10.8311 15.3944 10.6498 15.2069C10.4685 15.0193 10.3667 14.765 10.3667 14.4998V12.4998C10.3667 11.9693 10.163 11.4606 9.80041 11.0855C9.43784 10.7105 8.94609 10.4998 8.43333 10.4998C7.92058 10.4998 7.42883 10.7105 7.06626 11.0855C6.70369 11.4606 6.5 11.9693 6.5 12.4998V16.4998C6.5 17.5606 6.90738 18.578 7.63252 19.3282C8.35766 20.0783 9.34116 20.4998 10.3667 20.4998H31.6333C32.6588 20.4998 33.6423 20.0783 34.3675 19.3282C35.0926 18.578 35.5 17.5606 35.5 16.4998V12.4998C35.5 11.9693 35.2963 11.4606 34.9337 11.0855C34.5712 10.7105 34.0794 10.4998 33.5667 10.4998Z" stroke="#47474F" stroke-width="2" stroke-linecap="round" stroke-linejoin="round"/>
<path d="M10.3667 20.5V23.5" stroke="#47474F" stroke-width="2" stroke-linecap="round" stroke-linejoin="round"/>
<path d="M31.6333 20.5V23.5" stroke="#47474F" stroke-width="2" stroke-linecap="round" stroke-linejoin="round"/>
<path d="M8.43311 10.5C8.43311 8.9087 9.04418 7.38258 10.1319 6.25736C11.2196 5.13214 12.6949 4.5 14.2331 4.5H27.7665C29.3047 4.5 30.78 5.13214 31.8677 6.25736C32.9554 7.38258 33.5665 8.9087 33.5665 10.5" stroke="#47474F" stroke-width="2" stroke-linecap="round" stroke-linejoin="round"/>
<path d="M21 15.5V4.5" stroke="#47474F" stroke-width="2" stroke-linecap="round" stroke-linejoin="round"/>
</svg>
