<svg width="32" height="32" viewBox="0 0 32 32" fill="none" xmlns="http://www.w3.org/2000/svg">
<path d="M24.3065 1.33325H2.36052C1.79331 1.33325 1.3335 1.77515 1.3335 2.32026V24.3462C1.3335 24.8914 1.79331 25.3333 2.36052 25.3333H24.3065C24.8737 25.3333 25.3335 24.8914 25.3335 24.3462V2.32026C25.3335 1.77515 24.8737 1.33325 24.3065 1.33325Z" stroke="#47474F" stroke-width="2" stroke-linecap="round" stroke-linejoin="round"/>
<path d="M5.3335 30.6666H29.4002C29.7361 30.6666 30.0583 30.5453 30.2958 30.3293C30.5334 30.1134 30.6668 29.8205 30.6668 29.5151V5.41138" stroke="#47474F" stroke-width="2" stroke-linecap="round" stroke-linejoin="round"/>
<path d="M9.3335 25.3334L16.8708 15.5195C17.0447 15.2712 17.2728 15.0656 17.5379 14.9184C17.8029 14.7712 18.0979 14.6861 18.4006 14.6697C18.7034 14.6533 19.0059 14.7059 19.2853 14.8235C19.5647 14.9412 19.8137 15.1208 20.0135 15.3489L25.2954 21.9524" stroke="#47474F" stroke-width="2" stroke-linecap="round" stroke-linejoin="round"/>
<path d="M9.33317 6.66675C9.86059 6.66675 10.3762 6.82315 10.8147 7.11616C11.2532 7.40918 11.595 7.82566 11.7968 8.31293C11.9987 8.8002 12.0515 9.33637 11.9486 9.85365C11.8457 10.3709 11.5917 10.8461 11.2188 11.219C10.8458 11.592 10.3707 11.8459 9.85341 11.9488C9.33613 12.0517 8.79995 11.9989 8.31268 11.7971C7.82541 11.5953 7.40894 11.2535 7.11592 10.8149C6.8229 10.3764 6.6665 9.86083 6.6665 9.33341C6.6665 8.62617 6.94746 7.94789 7.44755 7.4478C7.94765 6.9477 8.62593 6.66675 9.33317 6.66675Z" stroke="#47474F" stroke-width="2" stroke-linecap="round" stroke-linejoin="round"/>
</svg>
