<svg width="24" height="24" viewBox="0 0 24 24" fill="none" xmlns="http://www.w3.org/2000/svg"><path d="M5.47 11.534a.75.75 0 1 0 1.06 1.061l-1.06-1.06ZM9.594 8.47l.53.53h.001l-.53-.53Zm1.062 0-.531.53.53-.53Zm4.654 4.656-.53.53a.75.75 0 0 0 1.06 0l-.53-.53Zm2.409-2.406.53.531-.53-.53Zm1.06 0 .53-.53-.53.53Zm1.69 2.754a.75.75 0 0 0 1.062-1.06l-1.062 1.06ZM18.75 16.5a.75.75 0 0 0-1.5 0h1.5ZM6 8.25a.75.75 0 0 0 0-1.5v1.5Zm.75-3.75v.75h13.5v-1.5H6.75v.75Zm13.5 0v.75h1.5a1.5 1.5 0 0 0-1.5-1.5v.75Zm.75.75h-.75v10.5h1.5V5.25H21Zm0 10.5h-.75v1.5a1.5 1.5 0 0 0 1.5-1.5H21Zm-.75.75v-.75H6.75v1.5h13.5v-.75Zm-13.5 0v-.75h-1.5a1.5 1.5 0 0 0 1.5 1.5v-.75ZM6 15.75h.75V5.25h-1.5v10.5H6Zm0-10.5h.75v-1.5a1.5 1.5 0 0 0-1.5 1.5H6Zm11.25 2.625h-.75a.375.375 0 0 1-.375.375v1.5C17.16 9.75 18 8.91 18 7.875h-.75ZM16.125 9v-.75a.375.375 0 0 1-.375-.375h-1.5c0 1.036.84 1.875 1.875 1.875V9ZM15 7.875h.75c0-.207.168-.375.375-.375V6c-1.036 0-1.875.84-1.875 1.875H15Zm1.125-1.125v.75c.207 0 .375.168.375.375H18C18 6.839 17.16 6 16.125 6v.75ZM6 12.065l.53.53L10.125 9l-.53-.53-.531-.53-3.594 3.594.53.53Zm3.594-3.596.531.53-.287-.692-.287-.693a1.5 1.5 0 0 0-.487.325l.53.53Zm.244-.162.287.692V7.5a1.5 1.5 0 0 0-.574.115l.287.693Zm.287-.058V9l.287-.692.287-.693a1.5 1.5 0 0 0-.574-.115v.75Zm.287.058-.287.692.53-.53.531-.53c-.14-.14-.304-.25-.487-.325l-.287.693Zm.244.162-.53.53 4.654 4.656.53-.53.53-.53-4.654-4.656-.53.53Zm4.654 4.656.53.53 2.409-2.405-.53-.53-.53-.531-2.409 2.405.53.531Zm2.409-2.406.53.53v-1.5a1.5 1.5 0 0 0-1.06.44l.53.53Zm.53-.22v.75l.53-.53.53-.53a1.5 1.5 0 0 0-1.06-.44v.75Zm.53.22-.53.53 2.22 2.224.531-.53.53-.53-2.22-2.224-.53.53ZM18 16.5h-.75v2.25h1.5V16.5H18Zm0 2.25h-.75l.53.53.53.53a1.5 1.5 0 0 0 .44-1.06H18Zm-.22.53-.53-.53v1.5a1.5 1.5 0 0 0 1.06-.44l-.53-.53Zm-.53.22v-.75H3.75v1.5h13.5v-.75Zm-13.5 0v-.75l-.53.53-.53.53a1.5 1.5 0 0 0 1.06.44v-.75Zm-.53-.22.53-.53h-1.5c0 .398.158.78.44 1.06l.53-.53ZM3 18.75h.75V8.25h-1.5v10.5H3Zm0-10.5h.75l-.53-.53-.53-.53a1.5 1.5 0 0 0-.44 1.06H3Zm.22-.53.53.53v-1.5a1.5 1.5 0 0 0-1.06.44l.53.53Zm.53-.22v.75H6v-1.5H3.75v.75Z" fill="#1B1B1F"/></svg>