<svg width="49" height="33" viewBox="0 0 49 33" fill="none" xmlns="http://www.w3.org/2000/svg">
<path fill-rule="evenodd" clip-rule="evenodd" d="M48.6679 6.90726C48.6519 8.45133 47.3971 9.692 45.8607 9.68285C44.3242 9.67369 43.0841 8.41815 43.0864 6.874C43.0886 5.32985 44.3324 4.07796 45.8688 4.07332C46.6166 4.06756 47.335 4.36496 47.8618 4.8983C48.3886 5.43163 48.6792 6.15586 48.6679 6.90726ZM22.2601 11.6595C17.5909 11.6595 14.1471 15.063 14.1471 19.6218C14.1471 24.1806 17.5909 27.584 22.2601 27.584C26.9449 27.584 30.4041 24.1805 30.4041 19.6218C30.4041 15.063 26.9449 11.6595 22.2601 11.6595V11.6595ZM22.2598 15.4529C24.5401 15.4529 26.262 17.1702 26.262 19.6213C26.262 22.0725 24.5401 23.7898 22.2598 23.7898C19.9794 23.7898 18.2731 22.0724 18.2731 19.6213C18.2731 17.1702 19.9794 15.4529 22.2598 15.4529V15.4529ZM40.0189 11.6585C38.1729 11.6585 36.7302 12.2986 35.784 13.7193V12.0644H31.8593V27.1926H35.9081V18.9494C35.9081 16.7012 37.6536 15.6864 39.7367 15.6864C41.4778 15.6864 42.1286 16.0299 42.1286 16.0299V12.0644C41.4596 11.788 40.7421 11.6499 40.0189 11.6585V11.6585ZM47.9167 12.0647H43.868V27.193H47.9167V12.0647ZM13.0627 12.0644H7.6178V7.98966H3.56904V12.0645H0.668213V15.6865H3.56904V21.5411C3.56904 25.4597 5.47707 27.583 9.20008 27.583C11.0236 27.5929 12.8018 27.0124 14.2715 25.9274L12.5732 22.8763C11.7511 23.3759 10.8289 23.7892 9.86711 23.7892C8.6106 23.7892 7.61781 23.1023 7.61781 21.2132V15.6865H13.0627L13.0627 12.0644Z" fill="#F94F55"/>
</svg>
