<svg width="49" height="24" viewBox="0 0 49 24" fill="none" xmlns="http://www.w3.org/2000/svg">
  <path fill-rule="evenodd" clip-rule="evenodd" d="M48 2.834a2.798 2.798 0 0 1-2.807 2.776 2.798 2.798 0 0 1-2.775-2.81A2.798 2.798 0 0 1 45.201 0a2.771 2.771 0 0 1 1.993.825A2.8 2.8 0 0 1 48 2.834ZM21.592 7.586c-4.67 0-8.113 3.404-8.113 7.963 0 4.558 3.444 7.962 8.113 7.962 4.685 0 8.144-3.404 8.144-7.962 0-4.56-3.46-7.963-8.144-7.963Zm0 3.794c2.28 0 4.002 1.717 4.002 4.168s-1.722 4.168-4.003 4.168c-2.28 0-3.986-1.717-3.986-4.168s1.706-4.168 3.986-4.168ZM39.35 7.585c-1.846 0-3.289.64-4.235 2.061V7.991H31.19V23.12h4.049v-8.243c0-2.248 1.745-3.263 3.828-3.263 1.742 0 2.392.344 2.392.344V7.99a5.36 5.36 0 0 0-2.11-.406Zm7.898.406h-4.05V23.12h4.05V7.99Zm-34.855 0H6.95V3.916H2.9v4.075H0v3.622h2.9v5.855c0 3.919 1.909 6.042 5.632 6.042a8.461 8.461 0 0 0 5.071-1.656l-1.698-3.05c-.822.499-1.744.912-2.706.912-1.257 0-2.25-.687-2.25-2.576v-5.527h5.446V7.991Z" fill="#F94F55"/>
</svg>
