<svg width="32" height="32" viewBox="0 0 32 32" fill="none" xmlns="http://www.w3.org/2000/svg">
<path d="M25.3335 26.667L29.3335 30.667" stroke="#47474F" stroke-width="2" stroke-linecap="round" stroke-linejoin="round"/>
<path d="M20 21.3335L23.5347 30.5268L25.3333 26.6668L29.192 24.8695L20 21.3335Z" stroke="#47474F" stroke-width="2" stroke-linecap="round" stroke-linejoin="round"/>
<path d="M16.2915 25.3333H10.1665V17.9259H6.6665L8.021 13.2622C8.11479 12.8989 8.32497 12.5777 8.61839 12.3491C8.9118 12.1206 9.27177 11.9977 9.6415 12H13.3433C13.3433 12.6758 13.6076 13.324 14.078 13.8018C14.5484 14.2797 15.1864 14.5482 15.8517 14.5482C16.5169 14.5482 17.1549 14.2797 17.6253 13.8018C18.0957 13.324 18.36 12.6758 18.36 12H22.0665C22.4362 11.9977 22.7962 12.1206 23.0896 12.3491C23.383 12.5777 23.5932 12.8989 23.687 13.2622L25.3332 17.9259H21.88" stroke="#47474F" stroke-width="2" stroke-linecap="round" stroke-linejoin="round"/>
<path d="M18.6665 29.3337H4.5711C4.32027 29.333 4.07201 29.283 3.84052 29.1864C3.60903 29.0898 3.39884 28.9485 3.22197 28.7707C3.0451 28.5928 2.905 28.3818 2.8097 28.1498C2.71439 27.9178 2.66573 27.6692 2.66651 27.4184V4.58107C2.66589 4.33033 2.71466 4.08192 2.81004 3.85003C2.90541 3.61814 3.04553 3.40731 3.22239 3.22957C3.39925 3.05184 3.60938 2.91067 3.84079 2.81414C4.07221 2.71762 4.32037 2.66761 4.5711 2.66699H27.4286C27.6793 2.66761 27.9275 2.71762 28.1589 2.81414C28.3903 2.91067 28.6004 3.05184 28.7773 3.22957C28.9541 3.40731 29.0943 3.61814 29.1896 3.85003C29.285 4.08192 29.3338 4.33033 29.3332 4.58107V19.3337" stroke="#47474F" stroke-width="2" stroke-linecap="round" stroke-linejoin="round"/>
<path d="M2.6665 6.66699H29.3332" stroke="#47474F" stroke-width="2" stroke-linecap="round" stroke-linejoin="round"/>
</svg>
