<svg width="24" height="24" viewBox="0 0 24 24" fill="none" xmlns="http://www.w3.org/2000/svg"><path d="M20.25 9.375V6.75A.75.75 0 0 0 19.5 6H3a.75.75 0 0 0-.75.75v12c0 .414.336.75.75.75h8.25M15 9.75V4.5A1.5 1.5 0 0 0 13.5 3H9a1.5 1.5 0 0 0-1.5 1.5v15m12.6.981c-.494-.493-1.913-1.169-1.158-2.493.793-1.39 2.499-.738 3.306 0m-7.881 1.168c2.291-1.507.07-3.781 3.148-3.474 1.61.255 3.11-1.728 3.11-2.838M22.5 16.5a4.5 4.5 0 1 1-9 0 4.5 4.5 0 0 1 9 0Z" stroke="#1B1B1F" stroke-width="1.5" stroke-linecap="round" stroke-linejoin="round"/></svg>