<svg width="42" height="28" viewBox="0 0 42 28" fill="none" xmlns="http://www.w3.org/2000/svg">
<path d="M17.75 2.75H10.75C10.1977 2.75 9.75 3.19772 9.75 3.75V10.75C9.75 11.3023 10.1977 11.75 10.75 11.75H17.75C18.3023 11.75 18.75 11.3023 18.75 10.75V3.75C18.75 3.19772 18.3023 2.75 17.75 2.75Z" stroke="#47474F" stroke-width="2" stroke-linecap="round" stroke-linejoin="round"/>
<path d="M28.25 11.75C30.7353 11.75 32.75 9.73528 32.75 7.25C32.75 4.76472 30.7353 2.75 28.25 2.75C25.7647 2.75 23.75 4.76472 23.75 7.25C23.75 9.73528 25.7647 11.75 28.25 11.75Z" stroke="#47474F" stroke-width="2" stroke-linecap="round" stroke-linejoin="round"/>
<path d="M29.7839 15.9759C29.7091 15.8321 29.5963 15.7115 29.4577 15.6274C29.3191 15.5433 29.1601 15.4988 28.9979 15.4988C28.8358 15.4988 28.6768 15.5433 28.5382 15.6274C28.3996 15.7115 28.2867 15.8321 28.2119 15.9759L23.8749 23.7829C23.7929 23.9322 23.7493 24.0996 23.7481 24.27C23.7469 24.4404 23.788 24.6084 23.8679 24.7589C23.9432 24.9048 24.0568 25.0275 24.1965 25.1138C24.3362 25.2002 24.4967 25.2468 24.6609 25.2489H33.3349C33.4991 25.2468 33.6597 25.2002 33.7994 25.1138C33.9391 25.0275 34.0526 24.9048 34.1279 24.7589C34.2078 24.6084 34.249 24.4404 34.2478 24.27C34.2466 24.0996 34.203 23.9322 34.1209 23.7829L29.7839 15.9759Z" stroke="#47474F" stroke-width="2" stroke-linecap="round" stroke-linejoin="round"/>
<path d="M14.8508 15.0327C14.7778 14.9443 14.6862 14.8731 14.5825 14.8242C14.4787 14.7753 14.3655 14.75 14.2508 14.75C14.1362 14.75 14.0229 14.7753 13.9192 14.8242C13.8155 14.8731 13.7238 14.9443 13.6508 15.0327L9.94083 19.4697C9.8172 19.6183 9.74951 19.8055 9.74951 19.9987C9.74951 20.192 9.8172 20.3792 9.94083 20.5277L13.6488 24.9647C13.7218 25.0532 13.8135 25.1244 13.9172 25.1733C14.0209 25.2221 14.1342 25.2475 14.2488 25.2475C14.3635 25.2475 14.4767 25.2221 14.5805 25.1733C14.6842 25.1244 14.7758 25.0532 14.8488 24.9647L18.5568 20.5277C18.6805 20.3792 18.7482 20.192 18.7482 19.9987C18.7482 19.8055 18.6805 19.6183 18.5568 19.4697L14.8508 15.0327Z" stroke="#47474F" stroke-width="2" stroke-linecap="round" stroke-linejoin="round"/>
</svg>
