<svg width="24" height="24" viewBox="0 0 24 24" fill="none" xmlns="http://www.w3.org/2000/svg">
  <path d="M9.82 12.662a4.422 4.422 0 0 1-1.5-1.076 4.671 4.671 0 0 1-.96-1.616 4.835 4.835 0 0 1 .229-3.72 4.596 4.596 0 0 1 1.15-1.473 4.354 4.354 0 0 1 1.62-.866 4.23 4.23 0 0 1 1.815-.11 4.302 4.302 0 0 1 1.704.664l-1.546 6.463m.227 4.078c.081.637.035 1.284-.136 1.901a4.707 4.707 0 0 1-.856 1.683c-.394.492-.88.894-1.43 1.18a4.246 4.246 0 0 1-3.56.169 4.41 4.41 0 0 1-1.526-1.04 4.659 4.659 0 0 1-.998-1.596 4.83 4.83 0 0 1-.3-1.88l6.119-1.83m3.256-2.243a4.343 4.343 0 0 1 1.64-.827 4.23 4.23 0 0 1 1.82-.066 4.31 4.31 0 0 1 1.69.708c.51.356.945.82 1.275 1.36.33.542.55 1.149.644 1.784a4.846 4.846 0 0 1-.096 1.903c-.157.621-.437 1.2-.82 1.703a4.475 4.475 0 0 1-1.405 1.212l-4.572-4.633m.574-1.488c0 1.18-.914 2.138-2.042 2.138-1.128 0-2.042-.957-2.042-2.138s.914-2.138 2.042-2.138c1.128 0 2.042.957 2.042 2.138Z" stroke="#1B1B1F" stroke-width="1.5" stroke-linecap="round" stroke-linejoin="round"/>
</svg>
