<svg width="32" height="32" viewBox="0 0 32 32" fill="none" xmlns="http://www.w3.org/2000/svg">
<path d="M16.5141 21.2332C17.9691 21.2332 19.1487 20.0536 19.1487 18.5985C19.1487 17.1434 17.9691 15.9639 16.5141 15.9639C15.059 15.9639 13.8794 17.1434 13.8794 18.5985C13.8794 20.0536 15.059 21.2332 16.5141 21.2332Z" stroke="#47474F" stroke-width="2" stroke-linecap="round" stroke-linejoin="round"/>
<path d="M23.5356 9.04834C24.8093 9.98381 25.8828 11.1647 26.6929 12.5215C27.4902 13.8566 28.0165 15.3354 28.2422 16.8735" stroke="#47474F" stroke-width="2" stroke-linecap="round" stroke-linejoin="round"/>
<path d="M4.7749 16.9481C4.99465 15.3833 5.52521 13.8782 6.33535 12.5215C7.14028 11.1734 8.20506 9.99896 9.46771 9.06616" stroke="#47474F" stroke-width="2" stroke-linecap="round" stroke-linejoin="round"/>
<path d="M11.0044 29.0947C12.6348 29.9513 14.4425 30.416 16.284 30.4519C18.1129 30.4875 19.925 30.0992 21.5785 29.3175" stroke="#47474F" stroke-width="2" stroke-linecap="round" stroke-linejoin="round"/>
<path d="M15.6183 16.1216L14.0583 14.7883C13.4485 14.2644 13.0172 13.5634 12.8243 12.7829C12.6315 12.0025 12.6867 11.1813 12.9823 10.4336L16.1343 2.4963C16.2571 2.15531 16.4996 1.87052 16.8166 1.69483C17.1336 1.51915 17.5036 1.46452 17.8579 1.54111C18.2121 1.61769 18.5265 1.82028 18.7427 2.11123C18.9588 2.40217 19.062 2.76169 19.033 3.12297L18.001 16.4256" stroke="#47474F" stroke-width="2" stroke-linecap="round" stroke-linejoin="round"/>
<path d="M14.8162 20.6133L14.4376 22.6333C14.2899 23.4246 13.8983 24.1498 13.3178 24.7074C12.7372 25.265 11.9968 25.627 11.2002 25.7427L2.75491 26.98C2.39879 27.0424 2.03211 26.9739 1.72257 26.7871C1.41304 26.6002 1.18157 26.3077 1.0709 25.9635C0.960225 25.6193 0.977834 25.2467 1.12047 24.9144C1.26311 24.5822 1.52114 24.3128 1.84691 24.156L13.8829 18.396" stroke="#47474F" stroke-width="2" stroke-linecap="round" stroke-linejoin="round"/>
<path d="M19.1074 19.0667L21.046 18.3841C21.8045 18.1167 22.6276 18.093 23.4002 18.3162C24.1729 18.5395 24.8564 18.9986 25.3554 19.6294L30.65 26.3254C30.8815 26.6027 31.0049 26.9544 30.9976 27.3155C30.9902 27.6767 30.8525 28.023 30.6099 28.2906C30.3673 28.5582 30.0361 28.7291 29.6774 28.7718C29.3187 28.8144 28.9567 28.726 28.658 28.5227L17.6514 20.9801" stroke="#47474F" stroke-width="2" stroke-linecap="round" stroke-linejoin="round"/>
</svg>
