<svg width="24" height="24" viewBox="0 0 24 24" fill="none" xmlns="http://www.w3.org/2000/svg">
  <path d="M7.286 11v9.5c0 .133.062.26.172.353.11.094.26.147.417.147H12m4.714-10v9.5c0 .133-.062.26-.172.353a.646.646 0 0 1-.417.147H12m4.714-2h2.947a.646.646 0 0 0 .416-.147.465.465 0 0 0 .173-.353V10c0-1.061-.497-2.078-1.38-2.829C17.984 6.421 16.785 6 15.535 6m0 0c3-4.5-10.072-4.288-7.072 0m7.072 0L12 7.5M15.536 6l-3.552 1.493L8.464 6m0 0c-1.25 0-2.45.421-3.333 1.171C4.247 7.921 3.75 8.94 3.75 10v8.5c0 .133.062.26.173.353.11.094.26.147.416.147h2.947M8.464 6 12 7.5m4.714 9.5L15 16.25m-6 0L7.286 17M12 7.5V21" stroke="#1B1B1F" stroke-width="1.5" stroke-linecap="round"/>
</svg>
