<svg width="24" height="24" viewBox="0 0 24 24" fill="none" xmlns="http://www.w3.org/2000/svg">
<path d="M5.12897 18.75H18.8708C19.0472 18.75 19.2179 18.6879 19.353 18.5746C19.4881 18.4613 19.579 18.304 19.6096 18.1303L21.7377 8.38031C21.7644 8.21987 21.7383 8.05508 21.6632 7.9108C21.5881 7.76652 21.4681 7.65056 21.3214 7.58041C21.1746 7.51026 21.009 7.48973 20.8496 7.52189C20.6901 7.55406 20.5455 7.63719 20.4374 7.75875L16.4999 12L12.6805 3.43594C12.6204 3.30605 12.5244 3.19608 12.4038 3.119C12.2832 3.04193 12.143 3.00098 11.9999 3.00098C11.8568 3.00098 11.7166 3.04193 11.596 3.119C11.4754 3.19608 11.3794 3.30605 11.3193 3.43594L7.4999 12L3.5624 7.75875C3.45456 7.63542 3.3093 7.55079 3.14882 7.5178C2.98834 7.48481 2.82148 7.50528 2.67373 7.57607C2.52598 7.64686 2.40548 7.76408 2.33063 7.90982C2.25579 8.05556 2.23073 8.2218 2.25928 8.38312L4.3874 18.1331C4.41872 18.3067 4.51023 18.4638 4.64586 18.5766C4.78149 18.6894 4.95255 18.7508 5.12897 18.75Z" stroke="#1B1B1F" stroke-width="1.5" stroke-linecap="round" stroke-linejoin="round"/>
</svg>
