<svg width="24" height="24" viewBox="0 0 24 24" fill="none" xmlns="http://www.w3.org/2000/svg"><path d="M20.25 20.21a3.113 3.113 0 0 1-1.774-.235c-.571-.251-1.093-.669-1.526-1.222a3.56 3.56 0 0 1-1.121 1.075c-.426.25-.888.38-1.354.38-.466 0-.928-.13-1.354-.38A3.56 3.56 0 0 1 12 18.753a3.56 3.56 0 0 1-1.121 1.075c-.426.25-.888.38-1.354.38-.466 0-.928-.13-1.354-.38a3.56 3.56 0 0 1-1.121-1.075c-.433.553-.955.97-1.526 1.223a3.113 3.113 0 0 1-1.774.233m1.393-4.485-1.393-2.21h6.536m8.571 2.495 1.393-2.494h-9.964m0 0v-2.638m0 0h8l-8-7.127v7.127Z" stroke="#1B1B1F" stroke-width="1.5" stroke-linecap="round" stroke-linejoin="round"/></svg>