<svg width="32" height="32" viewBox="0 0 32 32" fill="none" xmlns="http://www.w3.org/2000/svg">
<path d="M16 1.3335V30.6668" stroke="#47474F" stroke-width="2" stroke-linecap="round" stroke-linejoin="round"/>
<path d="M8 30.6667H24" stroke="#47474F" stroke-width="2" stroke-linecap="round" stroke-linejoin="round"/>
<path d="M6.68753 18.6361L1.36753 13.3161C1.22515 13.1741 1.11936 12.9996 1.05925 12.8077C0.999137 12.6158 0.986505 12.4121 1.02243 12.2143C1.05836 12.0164 1.14178 11.8302 1.26552 11.6717C1.38927 11.5131 1.54964 11.387 1.73287 11.3041L6.63553 9.1161C6.86506 9.01385 7.12019 8.98357 7.36727 9.02927C7.61435 9.07498 7.84177 9.19451 8.01953 9.3721L10.5529 11.9054C10.7275 12.0799 10.8462 12.3025 10.8937 12.5448C10.9412 12.787 10.9154 13.0379 10.8195 13.2654L8.70887 18.2414C8.62972 18.4288 8.50573 18.5939 8.34781 18.7221C8.18989 18.8503 8.00289 18.9378 7.80324 18.9767C7.6036 19.0157 7.39743 19.0051 7.20288 18.9457C7.00833 18.8863 6.83136 18.78 6.68753 18.6361V18.6361Z" stroke="#47474F" stroke-width="2" stroke-linecap="round" stroke-linejoin="round"/>
<path d="M30.2987 9.57216L25.0387 14.8322C24.8968 14.9744 24.7221 15.0797 24.53 15.1388C24.3379 15.1979 24.1342 15.2089 23.9368 15.171C23.7394 15.1331 23.5544 15.0474 23.3978 14.9214C23.2412 14.7954 23.1179 14.6329 23.0387 14.4482L20.9681 9.62549C20.8714 9.39901 20.8452 9.14869 20.8927 8.90708C20.9403 8.66548 21.0595 8.44378 21.2347 8.27083L23.7441 5.76149C23.9175 5.58657 24.1394 5.46766 24.3812 5.42013C24.6229 5.37259 24.8733 5.39861 25.1001 5.49483L29.9147 7.57349C30.0992 7.65277 30.2615 7.77602 30.3873 7.93248C30.5132 8.08893 30.5988 8.27383 30.6367 8.47102C30.6745 8.6682 30.6635 8.87166 30.6046 9.06361C30.5457 9.25557 30.4407 9.43017 30.2987 9.57216V9.57216Z" stroke="#47474F" stroke-width="2" stroke-linecap="round" stroke-linejoin="round"/>
<path d="M14.6665 4.00024H18.8385C19.3686 4.00036 19.8769 4.21089 20.2518 4.58558L22.4173 6.95085" stroke="#47474F" stroke-width="2" stroke-linecap="round" stroke-linejoin="round"/>
<path d="M17.3334 8.00024H12.832C12.302 8.00036 11.7936 8.21089 11.4187 8.58558L9.35889 10.6612" stroke="#47474F" stroke-width="2" stroke-linecap="round" stroke-linejoin="round"/>
</svg>
