<svg width="32" height="32" viewBox="0 0 32 32" fill="none" xmlns="http://www.w3.org/2000/svg">
<path d="M9.3335 13.3333C11.5426 13.3333 13.3335 11.5424 13.3335 9.33325C13.3335 7.12411 11.5426 5.33325 9.3335 5.33325C7.12436 5.33325 5.3335 7.12411 5.3335 9.33325C5.3335 11.5424 7.12436 13.3333 9.3335 13.3333Z" stroke="#47474F" stroke-width="2" stroke-linecap="round" stroke-linejoin="round"/>
<path d="M9.3335 26.6665C11.5426 26.6665 13.3335 24.8756 13.3335 22.6665C13.3335 20.4574 11.5426 18.6665 9.3335 18.6665C7.12436 18.6665 5.3335 20.4574 5.3335 22.6665C5.3335 24.8756 7.12436 26.6665 9.3335 26.6665Z" stroke="#47474F" stroke-width="2" stroke-linecap="round" stroke-linejoin="round"/>
<path d="M22.6665 13.3333C24.8756 13.3333 26.6665 11.5424 26.6665 9.33325C26.6665 7.12411 24.8756 5.33325 22.6665 5.33325C20.4574 5.33325 18.6665 7.12411 18.6665 9.33325C18.6665 11.5424 20.4574 13.3333 22.6665 13.3333Z" stroke="#47474F" stroke-width="2" stroke-linecap="round" stroke-linejoin="round"/>
<rect x="1.3335" y="1.33325" width="29.3333" height="29.3333" rx="2" stroke="#47474F" stroke-width="2" stroke-linecap="round" stroke-linejoin="round"/>
<path d="M18.6665 26.6666V25.3333" stroke="#47474F" stroke-width="2" stroke-linecap="round" stroke-linejoin="round"/>
<path d="M22.6665 26.6666V25.3333" stroke="#47474F" stroke-width="2" stroke-linecap="round" stroke-linejoin="round"/>
<path d="M26.6665 26.6666V25.3333" stroke="#47474F" stroke-width="2" stroke-linecap="round" stroke-linejoin="round"/>
</svg>
