<svg width="24" height="24" viewBox="0 0 24 24" fill="none" xmlns="http://www.w3.org/2000/svg">
<path fill-rule="evenodd" clip-rule="evenodd" d="M0 12C0 5.37258 5.37258 0 12 0C18.6274 0 24 5.37258 24 12C24 18.6274 18.6274 24 12 24C5.37258 24 0 18.6274 0 12ZM12 22.5C9.62543 22.5 7.43497 21.7118 5.67599 20.3827C6.49669 19.5682 7.45769 18.9194 8.50919 18.4694C9.61955 17.9943 10.8095 17.75 12.0108 17.75C13.2121 17.75 14.4021 17.9943 15.5125 18.4694C16.56 18.9177 17.5177 19.5632 18.3363 20.3734C16.5752 21.7081 14.3801 22.5 12 22.5ZM12 4C8.68629 4 6 6.68629 6 10C6 13.3137 8.68629 16 12 16C15.3137 16 18 13.3137 18 10C18 6.68629 15.3137 4 12 4ZM7.90588 8.1297C7.64526 8.69928 7.5 9.33268 7.5 10C7.5 12.4853 9.51472 14.5 12 14.5C14.4853 14.5 16.5 12.4853 16.5 10C16.5 9.88906 16.496 9.77905 16.4881 9.67012C15.6323 9.88887 14.7403 10.0002 13.8429 10C12.6719 10.0002 11.5098 9.81024 10.4256 9.43911C9.50473 9.12388 8.65203 8.68207 7.90588 8.1297Z" fill="#3F3F46"/>
</svg>
