<svg width="32" height="32" viewBox="0 0 32 32" fill="none" xmlns="http://www.w3.org/2000/svg">
<path fill-rule="evenodd" clip-rule="evenodd" d="M15.6654 5.3335C14.3401 5.33796 9.27122 5.37543 5.7303 5.64041C5.15654 5.7109 3.90635 5.71625 2.79076 6.92518C1.91071 7.84503 1.62512 9.93634 1.62512 9.93634C1.62512 9.93634 1.35679 12.1856 1.3335 14.5312V17.4611C1.35679 19.8067 1.62512 22.056 1.62512 22.056C1.62512 22.056 1.91071 24.1464 2.79076 25.0671C3.90635 26.276 5.37311 26.2377 6.02624 26.3635C8.17288 26.5767 14.7379 26.6552 15.8405 26.6668H16.3858C17.7982 26.6588 22.7774 26.6133 26.2683 26.3519C26.8421 26.2814 28.0922 26.276 29.2078 25.0671C30.0879 24.1464 30.3735 22.056 30.3735 22.056C30.3735 22.056 30.6668 19.6015 30.6668 17.1471V14.8452C30.6668 12.3899 30.3735 9.93634 30.3735 9.93634C30.3735 9.93634 30.0879 7.84503 29.2078 6.92518C28.0922 5.71625 26.8421 5.7109 26.2683 5.64041C22.7274 5.37543 17.6585 5.33796 16.3323 5.3335H15.6654ZM12.9689 11.4136L20.8963 15.691L12.9706 19.9398L12.9689 11.4136Z" fill="#47474F"/>
</svg>
