<svg width="24" height="24" viewBox="0 0 24 24" fill="none" xmlns="http://www.w3.org/2000/svg"><path d="m7.125 16.5.375-2.25m-.328 6c-1.89.008-3.78-1.394-3.364-3.747L6.05 2.25l6.728 1.156-1.408 8.707M7.172 20.25h.037m-.037 0H21.75v-5.287M7.209 20.25a3.624 3.624 0 0 0 1.081-.179m-1.081.179c.278-.005.641-.068 1.081-.179m0 0c1.082-.356 1.997-1.255 2.246-2.797l.835-5.161M8.29 20.07c2.495-.63 7.462-2.831 13.459-5.109m0 0L19.507 8.8l-8.136 3.314" stroke="#1B1B1F" stroke-width="1.5" stroke-linecap="round" stroke-linejoin="round"/></svg>