<svg width="32" height="32" viewBox="0 0 32 32" fill="none" xmlns="http://www.w3.org/2000/svg">
<path d="M2.11426 14.0603L14.5854 1.91949C14.7711 1.73364 14.9917 1.5862 15.2344 1.48562C15.4771 1.38503 15.7373 1.33325 16.0001 1.33325C16.2628 1.33325 16.523 1.38503 16.7657 1.48562C17.0085 1.5862 17.229 1.73364 17.4147 1.91949L29.8859 14.0603" stroke="#47474F" stroke-width="2" stroke-linecap="round" stroke-linejoin="round"/>
<path d="M22.0005 6.17139V4.17139H26.6672V10.4582" stroke="#47474F" stroke-width="2" stroke-linecap="round" stroke-linejoin="round"/>
<path d="M4.00049 12.6665V24.0918V28.8734C4.00049 29.349 4.23036 29.805 4.63953 30.1413C5.0487 30.4776 5.60365 30.6665 6.18231 30.6665H25.8187C26.3973 30.6665 26.9523 30.4776 27.3614 30.1413C27.7706 29.805 28.0005 29.349 28.0005 28.8734V12.6665" stroke="#47474F" stroke-width="2" stroke-linecap="round" stroke-linejoin="round"/>
<path d="M20.0005 30.6667V24C20.0005 21.7909 18.2096 20 16.0005 20V20C13.7913 20 12.0005 21.7909 12.0005 24V30.6667" stroke="#47474F" stroke-width="2"/>
<path d="M12.0005 14.6665H20.0005" stroke="#47474F" stroke-width="2" stroke-linecap="round"/>
<path d="M12.0005 10.6665H20.0005" stroke="#47474F" stroke-width="2" stroke-linecap="round"/>
</svg>
