<svg width="42" height="28" viewBox="0 0 42 28" fill="none" xmlns="http://www.w3.org/2000/svg">
<path d="M9.69843 24.0001C12.8456 24.0001 15.3969 21.463 15.3969 18.3333C15.3969 15.2036 12.8456 12.6665 9.69843 12.6665C6.55127 12.6665 4 15.2036 4 18.3333C4 21.463 6.55127 24.0001 9.69843 24.0001Z" fill="white"/>
<path d="M32.3024 24.0001C35.4496 24.0001 38.0009 21.463 38.0009 18.3333C38.0009 15.2036 35.4496 12.6665 32.3024 12.6665C29.1553 12.6665 26.604 15.2036 26.604 18.3333C26.604 21.463 29.1553 24.0001 32.3024 24.0001Z" fill="white"/>
<path d="M32.302 18.2391C26.6985 18.2391 27.242 18.2391 21.0001 18.2391C14.7582 18.2391 21.0001 18.2391 9.69824 18.2391C9.69824 12.0319 14.7582 7 21.0001 7C27.242 7 32.302 12.0319 32.302 18.2391Z" fill="#FF8752"/>
</svg>
