<svg width="32" height="32" fill="none" xmlns="http://www.w3.org/2000/svg"><path d="M10.666 23.334v-8M14.666 23.334l-4-4 4-4" stroke="#47474F" stroke-width="2" stroke-linecap="round" stroke-linejoin="round"/><path d="M8.93 9.334h14.14c1.267 0 2.359.891 2.613 2.132l2.915 14.267a3 3 0 0 1-2.94 3.6H6.342a3 3 0 0 1-2.94-3.6l2.915-14.267A2.667 2.667 0 0 1 8.93 9.334ZM21.333 9.333l-.974-5.045a2 2 0 0 0-1.964-1.621h-4.79a2 2 0 0 0-1.964 1.62l-.975 5.046" stroke="#47474F" stroke-width="2" stroke-linecap="round" stroke-linejoin="round"/><path d="M21.334 15.334H20A2.667 2.667 0 0 0 17.334 18v2.667A2.667 2.667 0 0 0 20 23.333h1.334V19.6H20.19" stroke="#47474F" stroke-width="2" stroke-linecap="round" stroke-linejoin="round"/></svg>