<svg width="24" height="24" viewBox="0 0 24 24" fill="none" xmlns="http://www.w3.org/2000/svg"><path d="M7.5 11.25v3m0 0v3m0-3 3-3m-3 3 3 3m6-6h-2.25c-.375 0-.75.75-.75 1.5v3c0 .75.375 1.5.75 1.5h2.25v-2.625h-1.125M6.75 21c-2.25 0-3-.75-3-3l1.5-8.25C5.25 9 6.75 7.5 7.5 7.5h9c.75 0 2.25 1.5 2.25 2.25l1.5 8.25c0 2.25-.75 3-3.75 3H6.75Zm3.34-13.5C9.274 7.5 9 7.25 9 6.5l.545-2.75c0-.25.546-.75.819-.75h3.272c.273 0 .819.5.819.75L15 6.5c0 .75-.273 1-1.364 1h-3.545Z" stroke="#1B1B1F" stroke-width="1.5" stroke-linecap="round" stroke-linejoin="round"/></svg>