<svg width="66" height="32" viewBox="0 0 66 32" fill="none" xmlns="http://www.w3.org/2000/svg">
  <path fill-rule="evenodd" clip-rule="evenodd" d="M65.331 3.857c-.021 2.102-1.73 3.79-3.82 3.778-2.092-.012-3.78-1.721-3.777-3.823C57.738 1.71 59.43.006 61.522 0a3.772 3.772 0 0 1 2.712 1.123 3.81 3.81 0 0 1 1.097 2.734Zm-35.943 6.469c-6.355 0-11.042 4.632-11.042 10.837S23.033 32 29.388 32c6.377 0 11.085-4.632 11.085-10.837s-4.708-10.837-11.085-10.837Zm0 5.163c3.104 0 5.447 2.337 5.447 5.673s-2.343 5.674-5.447 5.674-5.426-2.338-5.426-5.674c0-3.336 2.322-5.673 5.426-5.673Zm24.171-5.165c-2.512 0-4.476.871-5.764 2.805v-2.252h-5.341v20.59h5.51v-11.22c0-3.06 2.376-4.44 5.211-4.44 2.37 0 3.256.467 3.256.467v-5.397a7.293 7.293 0 0 0-2.872-.553Zm10.75.553h-5.51v20.59h5.51v-20.59Zm-47.44 0H9.46V5.33h-5.51v5.546H0v4.93h3.948v7.968C3.948 29.11 6.545 32 11.613 32a11.516 11.516 0 0 0 6.902-2.254l-2.311-4.152c-1.12.68-2.375 1.242-3.684 1.242-1.71 0-3.061-.935-3.061-3.506v-7.522h7.41v-4.93Z" fill="#F94F55"/>
</svg>
