<svg width="32" height="32" viewBox="0 0 32 32" fill="none" xmlns="http://www.w3.org/2000/svg"><path d="M24.89 5.653 8.05 14.164l-2.611-1.97-2.8 1.233a1.467 1.467 0 0 0-.299 2.425l5.327 4.533a2.921 2.921 0 0 0 3.2.4l4.826-2.4v7.45a1.447 1.447 0 0 0 2.092 1.314l2.509-1.244a1.466 1.466 0 0 0 .773-.972l2.493-10.45 4.588-2.276a3.66 3.66 0 1 0-3.257-6.554Z" stroke="#1B1B1F" stroke-width="2" stroke-linecap="round" stroke-linejoin="round"/><path d="m20.521 7.867-5.947-3.012a1.466 1.466 0 0 0-1.309 0L10.8 6.072a1.466 1.466 0 0 0-.23 2.479L14 11.157" stroke="#1B1B1F" stroke-width="2" stroke-linecap="round" stroke-linejoin="round"/></svg>