<svg width="24" height="24" viewBox="0 0 24 24" fill="none" xmlns="http://www.w3.org/2000/svg"><path d="m14.77 5.006-3.91-1.908a.994.994 0 0 0-.86 0l-1.622.771a.954.954 0 0 0-.364.306.908.908 0 0 0-.086.898c.065.145.168.27.299.366l2.255 1.652M3.75 21h16.5M17.643 3.93 6.95 9.462 5.293 8.18l-1.778.801a.938.938 0 0 0-.344.303.967.967 0 0 0 .154 1.274l3.382 2.946a1.817 1.817 0 0 0 2.032.26l3.064-1.56v4.842a.959.959 0 0 0 .112.462.934.934 0 0 0 .318.347.904.904 0 0 0 .899.045l1.592-.808a.936.936 0 0 0 .314-.26.965.965 0 0 0 .177-.372l1.583-6.792 2.913-1.48c.273-.138.517-.331.717-.567.2-.235.354-.509.451-.805a2.43 2.43 0 0 0-.122-1.816 2.372 2.372 0 0 0-.554-.734 2.31 2.31 0 0 0-.786-.461 2.273 2.273 0 0 0-1.774.124Z" stroke="#1B1B1F" stroke-width="1.5" stroke-linecap="round"/></svg>