<svg width="32" height="32" viewBox="0 0 32 32" fill="none" xmlns="http://www.w3.org/2000/svg">
<path fill-rule="evenodd" clip-rule="evenodd" d="M15.9593 29.3334C16.7676 29.3334 17.2243 28.6279 18.5262 27.2468C20.1535 25.5203 21.7225 23.9116 22.8618 22.7031C26.2256 19.1349 27.5482 17.7809 28.4867 16.7245C30.9811 13.9172 31.3047 10.0165 29.613 7.05531C27.4804 3.3222 24.2998 2.66675 22.5896 2.66675C20.8793 2.66675 19.6563 3.3222 17.4963 5.00946L15.9987 6.41128L14.5418 5.00946C12.1987 3.00659 10.5021 2.66675 9.41269 2.66675C8.50473 2.66675 4.71204 2.66732 2.26797 7.05531C0.484657 10.257 1.41657 14.2011 3.68854 16.7245C4.09535 17.1764 5.77196 18.9331 8.68141 22.0961C9.85282 23.3697 11.5103 25.121 12.7306 26.451C13.4219 27.2046 15.151 29.3334 15.9593 29.3334Z" stroke="#47474F" stroke-width="2"/>
</svg>
