<svg width="42" height="28" viewBox="0 0 42 28" fill="none" xmlns="http://www.w3.org/2000/svg">
<path d="M8 23.5C8 25.433 9.567 27 11.5 27C13.433 27 15 25.433 15 23.5C15 21.567 13.433 20 11.5 20C9.567 20 8 21.567 8 23.5Z" stroke="#47474F" stroke-width="2" stroke-linecap="round"/>
<path d="M27 23.5C27 25.433 28.567 27 30.5 27C32.433 27 34 25.433 34 23.5C34 21.567 32.433 20 30.5 20C28.567 20 27 21.567 27 23.5Z" stroke="#47474F" stroke-width="2" stroke-linecap="round"/>
<path d="M9 5H37.3162C37.6546 5 37.8953 5.32913 37.7927 5.6516L35.3868 13.2128C34.8587 14.8727 33.317 16 31.5751 16H13.5" stroke="#47474F" stroke-width="2" stroke-linecap="round" stroke-linejoin="round"/>
<path d="M12.5 20L13.5 16L7.26104 1.60239C7.10256 1.23668 6.74205 1 6.34348 1H4" stroke="#47474F" stroke-width="2" stroke-linecap="round" stroke-linejoin="round"/>
<path d="M27 22H15" stroke="#47474F" stroke-width="2" stroke-linecap="round" stroke-linejoin="round"/>
</svg>
