<svg width="32" height="32" viewBox="0 0 32 32" fill="none" xmlns="http://www.w3.org/2000/svg">
<path fill-rule="evenodd" clip-rule="evenodd" d="M4.17372 1.3313C3.42006 1.3313 2.69726 1.63069 2.16434 2.16361C1.63142 2.69653 1.33203 3.41933 1.33203 4.17299V12.0769C1.3323 13.3328 1.83153 14.5374 2.71972 15.4254L17.408 30.1136C17.6504 30.3561 17.954 30.5283 18.2865 30.6118C18.6191 30.6953 18.9682 30.687 19.2965 30.5877C19.6247 30.4883 19.9199 30.3018 20.1505 30.0479C20.381 29.794 20.5383 29.4822 20.6056 29.1459L22.0289 22.0282L29.1466 20.6048C29.4829 20.5376 29.7947 20.3803 30.0486 20.1497C30.3025 19.9192 30.4891 19.624 30.5884 19.2957C30.6877 18.9675 30.696 18.6184 30.6125 18.2858C30.529 17.9533 30.3568 17.6496 30.1144 17.4073L15.426 2.71889C14.538 1.83069 13.3334 1.33157 12.0774 1.3313H4.17372Z" stroke="#47474F" stroke-width="2" stroke-linecap="round" stroke-linejoin="round"/>
<path fill-rule="evenodd" clip-rule="evenodd" d="M6.32666 8.87926C6.32666 7.46882 7.47004 6.32544 8.88048 6.32544C10.2909 6.32544 11.4343 7.46882 11.4343 8.87926C11.4343 10.2897 10.2909 11.4331 8.88048 11.4331C7.47004 11.4331 6.32666 10.2897 6.32666 8.87926Z" stroke="#47474F" stroke-width="2" stroke-linecap="round" stroke-linejoin="round"/>
</svg>
