<svg width="24" height="24" viewBox="0 0 24 24" fill="none" xmlns="http://www.w3.org/2000/svg">
<path d="M11.9216 10.6378L11.4329 10.0689V10.0689L11.9216 10.6378ZM15.3821 7.66484L14.8934 7.09595V7.09595L15.3821 7.66484ZM16.7817 7.36322L16.5706 8.08292V8.08292L16.7817 7.36322ZM18.422 7.8442L18.211 8.5639V8.5639L18.422 7.8442ZM18.5767 10.571L18.6342 11.3188V11.3188L18.5767 10.571ZM17.7417 10.6353L17.6842 9.88746V9.88746L17.7417 10.6353ZM13.127 15.754L13.8767 15.734V15.734L13.127 15.754ZM13.1328 15.9734L12.3831 15.9934V15.9934L13.1328 15.9734ZM9.32849 12.3286L8.79815 12.8589H8.79815L9.32849 12.3286ZM14.7929 5.79289L15.3232 5.26256V5.26256L14.7929 5.79289ZM12 4.75C11.5858 4.75 11.25 5.08579 11.25 5.5C11.25 5.91421 11.5858 6.25 12 6.25V5.5V4.75ZM4.30341 8.56498L3.59117 8.32998L3.59117 8.32998L4.30341 8.56498ZM6.7979 8.76374C6.94357 9.1515 7.37599 9.34776 7.76374 9.2021C8.1515 9.05644 8.34776 8.62401 8.2021 8.23626L7.5 8.5L6.7979 8.76374ZM3.71666 10.3433L3.00442 10.1084L3.71666 10.3433ZM21 16H20.25C20.25 16.9665 19.4665 17.75 18.5 17.75V18.5V19.25C20.2949 19.25 21.75 17.7949 21.75 16H21ZM18.5 18.5V17.75C17.5335 17.75 16.75 16.9665 16.75 16H16H15.25C15.25 17.7949 16.7051 19.25 18.5 19.25V18.5ZM16 16H16.75C16.75 15.0335 17.5335 14.25 18.5 14.25V13.5V12.75C16.7051 12.75 15.25 14.2051 15.25 16H16ZM18.5 13.5V14.25C19.4665 14.25 20.25 15.0335 20.25 16H21H21.75C21.75 14.2051 20.2949 12.75 18.5 12.75V13.5ZM8 16H7.25C7.25 16.9665 6.4665 17.75 5.5 17.75V18.5V19.25C7.29492 19.25 8.75 17.7949 8.75 16H8ZM5.5 18.5V17.75C4.5335 17.75 3.75 16.9665 3.75 16H3H2.25C2.25 17.7949 3.70507 19.25 5.5 19.25V18.5ZM3 16H3.75C3.75 15.0335 4.5335 14.25 5.5 14.25V13.5V12.75C3.70507 12.75 2.25 14.2051 2.25 16H3ZM5.5 13.5V14.25C6.4665 14.25 7.25 15.0335 7.25 16H8H8.75C8.75 14.2051 7.29492 12.75 5.5 12.75V13.5ZM11.9216 10.6378L12.4104 11.2067L15.8709 8.23373L15.3821 7.66484L14.8934 7.09595L11.4329 10.0689L11.9216 10.6378ZM16.7817 7.36322L16.5706 8.08292L18.211 8.5639L18.422 7.8442L18.6331 7.1245L16.9927 6.64352L16.7817 7.36322ZM19.5 9.2836H18.75V9.57397H19.5H20.25V9.2836H19.5ZM18.5767 10.571L18.5192 9.82323L17.6842 9.88746L17.7417 10.6353L17.7992 11.383L18.6342 11.3188L18.5767 10.571ZM13.127 15.754L12.3772 15.774L12.3831 15.9934L13.1328 15.9734L13.8826 15.9534L13.8767 15.734L13.127 15.754ZM12.1332 17.0001V16.2501H11.5V17.0001V17.7501H12.1332V17.0001ZM4.19148 11V11.75H8V11V10.25H4.19148V11ZM8 11V11.75H10.9442V11V10.25H8V11ZM10.5 16.0001H11.25V15.1569H10.5H9.75V16.0001H10.5ZM9.32849 12.3286L9.85883 11.7982L8.53034 10.4697L8 11L7.46966 11.5303L8.79815 12.8589L9.32849 12.3286ZM10.5 15.1569H11.25C11.25 13.8972 10.7496 12.689 9.85883 11.7982L9.32849 12.3286L8.79815 12.8589C9.40761 13.4684 9.75 14.295 9.75 15.1569H10.5ZM11.5 17.0001V16.2501C11.3619 16.2501 11.25 16.1382 11.25 16.0001H10.5H9.75C9.75 16.9666 10.5335 17.7501 11.5 17.7501V17.0001ZM13.1328 15.9734L12.3831 15.9934C12.3869 16.1341 12.2739 16.2501 12.1332 16.2501V17.0001V17.7501C13.118 17.7501 13.9089 16.9378 13.8826 15.9534L13.1328 15.9734ZM17.7417 10.6353L17.6842 9.88746C14.6294 10.1224 12.2954 12.7114 12.3772 15.774L13.127 15.754L13.8767 15.734C13.8162 13.4703 15.5414 11.5567 17.7992 11.383L17.7417 10.6353ZM19.5 9.57397H18.75C18.75 9.7046 18.6494 9.81321 18.5192 9.82323L18.5767 10.571L18.6342 11.3188C19.546 11.2487 20.25 10.4884 20.25 9.57397H19.5ZM18.422 7.8442L18.211 8.5639C18.5305 8.65757 18.75 8.95066 18.75 9.2836H19.5H20.25C20.25 8.28478 19.5915 7.40552 18.6331 7.12449L18.422 7.8442ZM15.3821 7.66484L15.8709 8.23373C16.0635 8.06821 16.3269 8.01145 16.5706 8.08292L16.7817 7.36322L16.9927 6.64352C16.2615 6.42912 15.4714 6.59939 14.8934 7.09595L15.3821 7.66484ZM11.9216 10.6378L11.4329 10.0689C11.2969 10.1858 11.1235 10.25 10.9442 10.25V11V11.75C11.4821 11.75 12.0023 11.5572 12.4104 11.2067L11.9216 10.6378ZM16.3037 7.30365L16.834 6.77332L15.3232 5.26256L14.7929 5.79289L14.2626 6.32322L15.7733 7.83398L16.3037 7.30365ZM14.0858 5.5V4.75H12V5.5V6.25H14.0858V5.5ZM14.7929 5.79289L15.3232 5.26256C14.995 4.93437 14.5499 4.75 14.0858 4.75V5.5V6.25C14.1521 6.25 14.2157 6.27634 14.2626 6.32322L14.7929 5.79289ZM6.63242 13.7706L7.28193 14.1456L8.7966 11.5221L8.14709 11.1471L7.49757 10.7721L5.9829 13.3956L6.63242 13.7706ZM17 14L17.6495 13.625L16.1335 10.9991L15.484 11.3741L14.8344 11.7491L16.3505 14.375L17 14ZM3.71666 10.3433L4.42889 10.5783L5.01564 8.79997L4.30341 8.56498L3.59117 8.32998L3.00442 10.1084L3.71666 10.3433ZM4.30341 8.56498L5.01564 8.79997C5.29508 7.95305 6.48428 7.92887 6.7979 8.76374L7.5 8.5L8.2021 8.23626C7.39073 6.07635 4.3141 6.13889 3.59117 8.32998L4.30341 8.56498ZM4.19148 11V10.25C4.3618 10.25 4.48226 10.4166 4.42889 10.5783L3.71666 10.3433L3.00442 10.1084C2.7376 10.9171 3.33989 11.75 4.19148 11.75V11Z" fill="#1B1B1F"/>
</svg>
