<svg width="24" height="24" viewBox="0 0 24 24" fill="none" xmlns="http://www.w3.org/2000/svg">
  <path d="M15.75 16.5h-6m4.5 0v-8a4 4 0 0 0-4-4h-5.5a1 1 0 0 0-1 1v.6m6 3.65h-7.5M9.75 12h-4.5m14.25 0h-5.25m5.25 0-1.366-2.31a1.368 1.368 0 0 0-.553-.503A1.73 1.73 0 0 0 16.79 9H14.25m5.25 3 1.224.408a1.5 1.5 0 0 1 1.026 1.423V15a1.5 1.5 0 0 1-1.5 1.5h-1.125M3.75 15v.5a1 1 0 0 0 1 1H6m9.75 1.125a1.875 1.875 0 1 0 3.75 0 1.875 1.875 0 0 0-3.75 0Zm-9.75 0a1.875 1.875 0 1 0 3.75 0 1.875 1.875 0 0 0-3.75 0Z" stroke="#1B1B1F" stroke-width="1.5" stroke-linecap="round" stroke-linejoin="round"/>
</svg>
