<svg width="42" height="28" viewBox="0 0 42 28" fill="none" xmlns="http://www.w3.org/2000/svg">
<path d="M31.6166 2H11.3834C10.0671 2 9 3.02441 9 4.28808V23.7119C9 24.9756 10.0671 26 11.3834 26H31.6166C32.9329 26 34 24.9756 34 23.7119V4.28808C34 3.02441 32.9329 2 31.6166 2Z" fill="#0B6DFF"/>
<path d="M30.5 1.5H12.5C10.567 1.5 9 3.067 9 5V23C9 24.933 10.567 26.5 12.5 26.5H30.5C32.433 26.5 34 24.933 34 23V5C34 3.067 32.433 1.5 30.5 1.5Z" stroke="white"/>
<path d="M11.0879 16.0981H12.0487L12.1406 15.54H13.0848L13.1768 16.0981H14.1679L13.3234 11.8574H11.9201L11.0879 16.0981ZM12.2815 14.7364L12.6127 12.7725H12.6248L12.95 14.7364H12.2815ZM15.4819 16.1168C15.7847 16.1168 16.0392 16.0198 16.239 15.808H16.2556V16.0757H17.0814V12.7949H16.1218V14.8118C16.1218 15.0723 15.9781 15.2297 15.7445 15.2297C15.511 15.2297 15.3854 15.0723 15.3854 14.8118V12.7949H14.4479V15.0436C14.4479 15.7037 14.8355 16.1217 15.4715 16.1217M18.7114 16.1279C18.9173 16.1279 19.105 16.0976 19.2687 16.0492V15.1536C19.1452 15.2093 19.028 15.2338 18.9353 15.2338C18.7873 15.2338 18.6883 15.1659 18.6883 14.9683V13.6204H19.2909V12.7946H18.6883V12.1473H18.028L18.0104 12.305C17.9632 12.7354 17.7981 12.9294 17.4386 13.0505V13.6204H17.7511V15.1341C17.7511 15.8306 18.072 16.1274 18.696 16.1274M21.2286 16.1279C22.2279 16.1279 22.8943 15.4555 22.8943 14.4442C22.8943 13.4328 22.2279 12.7604 21.2286 12.7604C20.2293 12.7604 19.5569 13.4388 19.5569 14.4442C19.5569 15.4495 20.223 16.1279 21.2286 16.1279ZM20.5261 14.4439C20.5261 13.9836 20.8109 13.6748 21.2286 13.6748C21.6463 13.6748 21.9251 13.9836 21.9251 14.4439C21.9251 14.9042 21.6403 15.2131 21.2286 15.2131C20.8169 15.2131 20.5261 14.8982 20.5261 14.4439ZM27.5844 16.1176C27.9236 16.1176 28.3052 16.0569 28.6201 15.9117V14.9851C28.3353 15.1849 27.972 15.2759 27.6388 15.2759C27.2028 15.2759 26.8697 15.1125 26.7546 14.7369H28.8745C29.0987 13.4651 28.4506 12.7624 27.427 12.7624C26.4033 12.7624 25.7733 13.4165 25.7733 14.4461C25.7733 15.4758 26.4397 16.1176 27.5844 16.1176ZM26.7652 14.0446C26.8619 13.7417 27.0861 13.5539 27.4132 13.5539C27.7404 13.5539 27.9826 13.7234 28.025 14.0446H26.7652ZM29.0262 16.0981H30.014L30.4155 15.0268H30.4276L30.8354 16.0981H31.8896L31.1216 14.4283L31.8956 12.7951H30.9225L30.5183 13.7995H30.506L30.0958 12.7951H29.026L29.7999 14.3797L29.0262 16.0981Z" fill="white"/>
<path d="M24.9418 11.8574L24.3732 15.183H24.372L24.3715 15.1852L24.3614 15.1849L23.8147 11.8574H22.8262L23.6661 16.0757H25.0622L25.8901 11.8574H24.9418Z" fill="white"/>
</svg>
