<svg width="42" height="28" viewBox="0 0 42 28" fill="none" xmlns="http://www.w3.org/2000/svg">
<path d="M31.3035 1H10.4558C9.09949 1 8 2.0995 8 3.4558V24.3034C8 25.6597 9.09949 26.7592 10.4558 26.7592H31.3035C32.6598 26.7592 33.7593 25.6597 33.7593 24.3034V3.4558C33.7593 2.0995 32.6598 1 31.3035 1Z" fill="#0B6DFF"/>
<path d="M24.3217 11.7371L23.7531 15.0627H23.7519L23.7514 15.0649L23.7413 15.0646L23.1946 11.7371H22.2061L23.046 15.9554H24.4421L25.27 11.7371H24.3217Z" fill="white"/>
<path d="M10.4678 15.9778H11.4286L11.5205 15.4197H12.4647L12.5567 15.9778H13.5478L12.7033 11.7371H11.3L10.4678 15.9778ZM11.6614 14.6161L11.9926 12.6522H12.0047L12.3299 14.6161H11.6614ZM14.8618 15.9965C15.1646 15.9965 15.4191 15.8995 15.6189 15.6877H15.6355V15.9554H16.4613V12.6746H15.5017V14.6915C15.5017 14.952 15.358 15.1094 15.1244 15.1094C14.8909 15.1094 14.7653 14.952 14.7653 14.6915V12.6746H13.8278V14.9233C13.8278 15.5834 14.2154 16.0014 14.8514 16.0014M18.0913 16.0076C18.2972 16.0076 18.4849 15.9773 18.6486 15.9289V15.0333C18.5251 15.089 18.4079 15.1135 18.3152 15.1135C18.1672 15.1135 18.0682 15.0456 18.0682 14.848V13.5001H18.6708V12.6743H18.0682V12.027H17.4079L17.3903 12.1847C17.3431 12.6151 17.178 12.8091 16.8185 12.9302V13.5001H17.131V15.0138C17.131 15.7103 17.4519 16.0071 18.0759 16.0071M20.6085 16.0076C21.6078 16.0076 22.2742 15.3352 22.2742 14.3239C22.2742 13.3125 21.6078 12.6401 20.6085 12.6401C19.6092 12.6401 18.9368 13.3185 18.9368 14.3239C18.9368 15.3292 19.6029 16.0076 20.6085 16.0076ZM19.906 14.3236C19.906 13.8633 20.1908 13.5545 20.6085 13.5545C21.0262 13.5545 21.305 13.8633 21.305 14.3236C21.305 14.7839 21.0202 15.0928 20.6085 15.0928C20.1968 15.0928 19.906 14.7779 19.906 14.3236ZM26.9643 15.9973C27.3035 15.9973 27.6851 15.9366 28 15.7914V14.8648C27.7152 15.0646 27.3519 15.1556 27.0187 15.1556C26.5827 15.1556 26.2496 14.9922 26.1345 14.6166H28.2544C28.4786 13.3448 27.8305 12.6421 26.8069 12.6421C25.7832 12.6421 25.1532 13.2962 25.1532 14.3258C25.1532 15.3555 25.8196 15.9973 26.9643 15.9973ZM26.1451 13.9243C26.2418 13.6214 26.466 13.4336 26.7931 13.4336C27.1203 13.4336 27.3625 13.6031 27.4049 13.9243H26.1451ZM28.4061 15.9778H29.3939L29.7954 14.9065H29.8075L30.2153 15.9778H31.2695L30.5015 14.308L31.2755 12.6748H30.3024L29.8982 13.6792H29.8859L29.4757 12.6748H28.4059L29.1798 14.2594L28.4061 15.9778Z" fill="white"/>
</svg>
