<svg width="186" height="32" viewBox="0 0 186 32" fill="none" xmlns="http://www.w3.org/2000/svg">
  <path d="M104.585 6.783h-.044c-6.86 0-10.503 4.224-10.503 11.05l-.043 13.525h6.088V12.544h8.875v18.814h6.047V17.834c0-6.869-3.516-11.05-10.42-11.05ZM81.088 6.783c-6.646 0-10.933 4.695-10.933 12.33 0 7.636 4.158 12.843 11.02 12.843 3.86 0 8.574-1.323 9.948-7.296l-5.447-1.494c-.6 2.902-2.23 3.882-4.545 3.882-3.189 0-4.56-1.944-4.834-6.357h15.04v-1.963c0-8.106-4.375-11.946-10.25-11.946v.001Zm3.855 9.9H76.36c.43-3.756 2.06-5.036 4.472-5.036 2.831 0 4.116 1.877 4.116 4.566 0 .158-.002.314-.004.47ZM134.557 0v11.384c-1.038-2.935-3.548-4.6-6.689-4.6-5.489 0-9.861 4.138-9.861 12.586S122.379 32 127.868 32c3.141 0 5.651-1.692 6.689-4.638v3.998h6.046V.001h-6.046V0Zm-5.017 26.793c-3.601 0-5.446-2.815-5.446-7.423 0-4.608 1.845-7.423 5.446-7.423s5.017 3.072 5.017 7.423-1.543 7.423-5.017 7.423ZM65.18 1.494l-6.757 23.89-6.878-23.89h-6.518l9.22 29.865h8.36l9.09-29.865H65.18ZM12.01 31.362h.001v.01h6.005V19.415H12.01v11.947Z" fill="#fff"/>
  <path d="M24.022 1.494H6.006C2.688 1.494 0 4.168 0 7.468v23.906h6.005V20.908c0-.305.015-.607.045-.904.464-4.49 4.3-8.051 8.963-8.051 4.664 0 8.5 3.561 8.962 8.05.03.298.046.6.046.905v10.466h6.004V7.468c0-3.3-2.688-5.974-6.005-5.974h.002ZM155.584 24.585V9.948h5.34c1.682 0 2.985.429 3.91 1.286.923.857 1.387 2.067 1.387 3.628s-.467 2.788-1.398 3.68c-.933.892-2.232 1.337-3.899 1.337h-2.291v4.705h-3.049Zm3.049-7.151h2.06c.826 0 1.446-.202 1.86-.607.413-.404.62-1.038.62-1.903 0-.92-.21-1.579-.63-1.976-.421-.398-1.037-.597-1.85-.597h-2.06v5.083ZM167.881 24.585v-11.71h2.838v2.07c.154-.725.445-1.261.873-1.61.427-.348 1.033-.523 1.818-.523h1.051v2.74h-1.282c-.897 0-1.531.237-1.903.71-.371.475-.557 1.304-.557 2.489v5.834h-2.838ZM180.556 24.898c-1.149 0-2.134-.265-2.953-.795-.821-.53-1.444-1.258-1.871-2.184-.428-.927-.641-1.997-.641-3.21 0-1.212.217-2.3.652-3.22.433-.92 1.057-1.638 1.87-2.153.813-.516 1.793-.774 2.942-.774 1.15 0 2.147.258 2.954.774.806.515 1.422 1.234 1.85 2.153.428.92.641 1.993.641 3.22s-.213 2.286-.641 3.22c-.428.934-1.044 1.663-1.85 2.185-.805.523-1.79.783-2.954.783l.001.002Zm0-2.405c1.71 0 2.565-1.26 2.565-3.784 0-2.523-.855-3.742-2.565-3.742s-2.585 1.247-2.585 3.742c0 1.268.231 2.217.694 2.844.464.628 1.093.941 1.892.941h-.001Z" fill="#fff"/>
</svg>
