<svg width="24" height="24" viewBox="0 0 24 24" fill="none" xmlns="http://www.w3.org/2000/svg"><path d="m2.25 10.5-.67-.335a.75.75 0 0 0-.08.335h.75Zm0-5.25a.75.75 0 0 0 0 1.5v-1.5Zm12 .75.624-.416a.75.75 0 0 0-.624-.334V6Zm5.25 4.5v.75c1.3 0 1.5.6 1.5.75h1.5c0-1.35-1.3-2.25-3-2.25v.75Zm2.25 1.5H21v2.25h1.5V12h-.75Zm0 2.25H21c0 .131-.073.325-.25.5-.175.177-.369.25-.5.25v1.5c.619 0 1.175-.302 1.562-.688.386-.387.688-.943.688-1.562h-.75ZM2.25 10.5l.67.335 2.25-4.5L4.5 6l-.67-.335-2.25 4.5.67.335Zm0 0v.75h15v-1.5h-15v.75Zm15 0v.75h2.25v-1.5h-2.25v.75ZM4.5 6v.75h9.75v-1.5H4.5V6Zm9.75 0-.624.416 3 4.5.624-.416.624-.416-3-4.5L14.25 6Zm-12 4.5H1.5v3.75H3V10.5h-.75Zm0 3.75H1.5c0 .619.302 1.175.688 1.562.387.386.943.688 1.562.688V15c-.131 0-.325-.073-.5-.25-.177-.175-.25-.369-.25-.5h-.75Zm1.5 1.5v.75h1.125V15H3.75v.75Zm16.5 0V15h-1.125v1.5h1.125v-.75Zm-10.875 0v.75h5.25V15h-5.25v.75Zm9.375.375H18c0 .621-.504 1.125-1.125 1.125v1.5a2.625 2.625 0 0 0 2.625-2.625h-.75ZM16.875 18v-.75a1.125 1.125 0 0 1-1.125-1.125h-1.5a2.625 2.625 0 0 0 2.625 2.625V18ZM15 16.125h.75c0-.621.504-1.125 1.125-1.125v-1.5a2.625 2.625 0 0 0-2.625 2.625H15Zm1.875-1.875V15c.621 0 1.125.504 1.125 1.125h1.5a2.625 2.625 0 0 0-2.625-2.625v.75ZM9 16.125h-.75c0 .621-.504 1.125-1.125 1.125v1.5a2.625 2.625 0 0 0 2.625-2.625H9ZM7.125 18v-.75A1.125 1.125 0 0 1 6 16.125H4.5a2.625 2.625 0 0 0 2.625 2.625V18ZM5.25 16.125H6C6 15.504 6.504 15 7.125 15v-1.5A2.625 2.625 0 0 0 4.5 16.125h.75Zm1.875-1.875V15c.621 0 1.125.504 1.125 1.125h1.5A2.625 2.625 0 0 0 7.125 13.5v.75ZM4.5 6v-.75H2.25v1.5H4.5V6Zm3.75 0H7.5v4.5H9V6h-.75Z" fill="#1B1B1F"/></svg>