<svg width="32" height="32" viewBox="0 0 32 32" fill="none" xmlns="http://www.w3.org/2000/svg"><path d="M21 22a2 2 0 1 0 4 0 2 2 0 0 0-4 0ZM5 22a2 2 0 1 0 4 0 2 2 0 0 0-4 0ZM21 22H9" stroke="#1B1B1F" stroke-width="2" stroke-linecap="round" stroke-linejoin="round"/><path d="M5 22H3a2 2 0 0 1-2-2v-4.79a4 4 0 0 1 .667-2.218L5 7h9.941a4 4 0 0 1 3.255 1.675L22 14h4.612a4 4 0 0 1 3.945 3.343L31 20a2 2 0 0 1-2 2h-4M22 14H1.19M9 7v7M5 7H2" stroke="#1B1B1F" stroke-width="2" stroke-linecap="round" stroke-linejoin="round"/></svg>