<svg width="42" height="28" viewBox="0 0 42 28" fill="none" xmlns="http://www.w3.org/2000/svg">
<path d="M27.3396 2C24.2134 2 21.6792 4.53425 21.6792 7.66037C21.6792 10.7865 24.2134 13.3207 27.3396 13.3207C30.4657 13.3207 32.9999 10.7865 32.9999 7.66037C32.9999 4.53425 30.4656 2 27.3396 2ZM27.3396 10.572C25.7316 10.572 24.4281 9.26837 24.4281 7.6605C24.4281 6.0525 25.7316 4.749 27.3396 4.749C28.9474 4.749 30.2511 6.0525 30.2511 7.6605C30.2511 9.26837 28.9474 10.572 27.3396 10.572Z" fill="#57DB09"/>
<path d="M17.572 14.6792V22.0092L12.5231 14.6792H9V26.0001H11.7489V17.5461L17.572 26.0001H20.3209V14.6792H17.572Z" fill="#57DB09"/>
<path d="M29.7985 26.0001H33.0001L28.4241 19.4473L32.6877 14.6792H29.5797L24.4281 20.6703V14.6792H21.6792V26.0001H24.4281V23.9159L26.6262 21.4577L29.7985 26.0001Z" fill="#57DB09"/>
<path d="M17.572 2V6.43637H11.7489V2H9V13.3209H11.7489V8.8845H17.572V13.3209H20.3209V2H17.572Z" fill="#57DB09"/>
</svg>
