<svg width="32" height="32" viewBox="0 0 32 32" fill="none" xmlns="http://www.w3.org/2000/svg">
<path d="M22.6668 9.33325L25.3335 9.33325" stroke="#47474F" stroke-width="2" stroke-linecap="round" stroke-linejoin="round"/>
<path d="M22.6668 14.6665L25.3335 14.6665" stroke="#47474F" stroke-width="2" stroke-linecap="round" stroke-linejoin="round"/>
<path d="M22.6668 20L25.3335 20" stroke="#47474F" stroke-width="2" stroke-linecap="round" stroke-linejoin="round"/>
<path d="M2.66683 17.3333L13.3335 17.3333" stroke="#47474F" stroke-width="2" stroke-linecap="round" stroke-linejoin="round"/>
<path d="M6.66683 25.3333L9.3335 25.3333" stroke="#47474F" stroke-width="2" stroke-linecap="round" stroke-linejoin="round"/>
<path d="M6.66683 21.3333L9.3335 21.3333" stroke="#47474F" stroke-width="2" stroke-linecap="round" stroke-linejoin="round"/>
<path d="M22.6668 25.3333L25.3335 25.3333" stroke="#47474F" stroke-width="2" stroke-linecap="round" stroke-linejoin="round"/>
<path d="M24 5.33317L24 2.6665" stroke="#47474F" stroke-width="2" stroke-linecap="round" stroke-linejoin="round"/>
<path d="M29.3332 29.3333V5.99992C29.3332 5.63173 29.0347 5.33325 28.6665 5.33325H19.3332C18.965 5.33325 18.6665 5.63173 18.6665 5.99992V29.3333" stroke="#47474F" stroke-width="2" stroke-linecap="round" stroke-linejoin="round"/>
<path d="M13.3332 29.3333V13.9999C13.3332 13.6317 13.0347 13.3333 12.6665 13.3333H3.33317C2.96498 13.3333 2.6665 13.6317 2.6665 13.9999V29.3333" stroke="#47474F" stroke-width="2" stroke-linecap="round" stroke-linejoin="round"/>
<path d="M2.6665 29.3333H29.3332" stroke="#47474F" stroke-width="2" stroke-linecap="round" stroke-linejoin="round"/>
<path d="M9.33333 4C8.72498 3.99912 8.13464 4.20637 7.66033 4.58732C7.18603 4.96827 6.85631 5.50001 6.72593 6.09422C6.44798 5.89758 6.11811 5.78748 5.77778 5.77778C5.30628 5.77778 4.8541 5.96508 4.5207 6.29848C4.1873 6.63188 4 7.08406 4 7.55556C4 8.02705 4.1873 8.47924 4.5207 8.81263C4.8541 9.14603 5.30628 9.33333 5.77778 9.33333H9.33333C10.0406 9.33333 10.7189 9.05238 11.219 8.55229C11.719 8.05219 12 7.37391 12 6.66667C12 5.95942 11.719 5.28115 11.219 4.78105C10.7189 4.28095 10.0406 4 9.33333 4Z" stroke="#47474F" stroke-width="2" stroke-linecap="round" stroke-linejoin="round"/>
</svg>
