<svg width="20" height="20" viewBox="0 0 20 20" fill="none" xmlns="http://www.w3.org/2000/svg">
<path fill-rule="evenodd" clip-rule="evenodd" d="M4 0C1.79086 0 0 1.79086 0 4V16C0 18.2091 1.79086 20 4 20H16C18.2091 20 20 18.2091 20 16V4C20 1.79086 18.2091 0 16 0H4ZM13.4902 6.34874L8.8938 11.8477L6.6637 9.59139C6.28625 9.2095 5.67068 9.20589 5.28879 9.58334C4.9069 9.96079 4.9033 10.5764 5.28075 10.9582L8.26252 13.9751C8.66558 14.3829 9.33222 14.3551 9.69995 13.9152L14.9821 7.59576C15.3264 7.18377 15.2716 6.57064 14.8596 6.22629C14.4476 5.88193 13.8345 5.93676 13.4902 6.34874Z" fill="#0063FB"/>
</svg>
