<svg width="22" height="20" viewBox="0 0 22 20" fill="none" xmlns="http://www.w3.org/2000/svg">
<path d="M6.6828 0.00601719C8.11512 0.00601719 9.54771 0.716897 10.992 1.93467C12.3939 0.740322 13.8775 0 15.2778 0C17.084 0 18.6187 0.650724 19.9567 1.95998C22.68 4.62223 22.68 8.9626 19.963 11.6204C19.9387 11.6446 18.5603 13.0548 16.5355 15.1268C15.7821 15.8978 15.2447 16.4479 14.1697 17.548C13.3098 18.4281 13.3098 18.4281 13.0773 18.6657C13.0445 18.6979 13.0028 18.7418 12.9423 18.8078C12.8527 18.9062 12.7931 18.9717 12.746 19.0225C12.1385 19.6786 11.7052 20 10.9926 20C10.2596 19.9834 9.83474 19.6658 9.23885 19.0231C9.19161 18.9722 9.132 18.9067 9.04231 18.8084C8.98157 18.7422 8.93988 18.6983 8.87761 18.6363C8.82406 18.5799 8.82406 18.5799 8.58267 18.3259C8.26071 17.9871 8.26071 17.9871 7.80437 17.5072C6.99897 16.6604 6.19277 15.8135 5.43927 15.0232C3.54282 13.0342 2.29387 11.7324 2.04231 11.486C-0.680706 8.82255 -0.680808 4.48237 2.04223 1.82007C3.30235 0.586569 4.85824 0.00601719 6.6828 0.00601719Z" fill="#0063FB"/>
</svg>
