<svg width="32" height="32" viewBox="0 0 32 32" fill="none" xmlns="http://www.w3.org/2000/svg">
<path d="M29 25H15L7 31V25H3C2.46957 25 1.96086 24.7893 1.58579 24.4142C1.21071 24.0391 1 23.5304 1 23V3C1 2.46957 1.21071 1.96086 1.58579 1.58579C1.96086 1.21071 2.46957 1 3 1H29C29.5304 1 30.0391 1.21071 30.4142 1.58579C30.7893 1.96086 31 2.46957 31 3V23C31 23.5304 30.7893 24.0391 30.4142 24.4142C30.0391 24.7893 29.5304 25 29 25Z" stroke="#47474F" stroke-width="2" stroke-linecap="round" stroke-linejoin="round"/>
<path d="M12.8294 9.63747C12.5835 9.1504 12.2084 8.74001 11.7449 8.4513C11.2722 8.15682 10.7263 8.00073 10.1694 8.00073C9.61239 8.00073 9.06657 8.15682 8.59381 8.4513C8.13031 8.74001 7.75523 9.1504 7.50928 9.63747" stroke="#47474F" stroke-width="2" stroke-linecap="round" stroke-linejoin="round"/>
<path d="M19.502 9.63657C19.7479 9.1499 20.1228 8.73983 20.586 8.4513C21.0588 8.15682 21.6046 8.00073 22.1616 8.00073C22.7186 8.00073 23.2644 8.15682 23.7371 8.4513C24.2004 8.73983 24.5753 9.1499 24.8212 9.63657" stroke="#47474F" stroke-width="2" stroke-linecap="round" stroke-linejoin="round"/>
<path d="M21.3003 17.0247C19.8925 18.2958 18.0627 19 16.165 19C14.2673 19 12.4376 18.2958 11.0298 17.0247" stroke="#47474F" stroke-width="2" stroke-linecap="round" stroke-linejoin="round"/>
</svg>
