<svg width="32" height="32" viewBox="0 0 32 32" fill="none" xmlns="http://www.w3.org/2000/svg">
<path d="M1.00049 30.6667H31.0005" stroke="#47474F" stroke-width="2" stroke-linecap="round" stroke-linejoin="round"/>
<path d="M24.0005 30.6666V15.4999C24.0005 14.3033 23.1409 13.3333 22.0805 13.3333H9.92049C8.8601 13.3333 8.00049 14.3033 8.00049 15.4999V30.6666" stroke="#47474F" stroke-width="2" stroke-linecap="round" stroke-linejoin="round"/>
<path d="M29.3337 30.6666V3.99992C29.3337 2.52716 28.1397 1.33325 26.667 1.33325H5.33366C3.8609 1.33325 2.66699 2.52716 2.66699 3.99992V30.6666" stroke="#47474F" stroke-width="2" stroke-linecap="round" stroke-linejoin="round"/>
<path d="M16.0142 30.6667C14.9819 30.6667 13.9919 30.258 13.262 29.5306C11.0602 27.3288 12.2333 24.1988 13.095 22.9091L15.0411 24.8485L16.9873 20C21.3985 24.6545 20.0114 28.2931 18.7664 29.5306C18.0365 30.258 17.0465 30.6667 16.0142 30.6667Z" stroke="#47474F" stroke-width="2" stroke-linecap="round" stroke-linejoin="round"/>
</svg>
