<svg width="24" height="24" viewBox="0 0 24 24" fill="none" xmlns="http://www.w3.org/2000/svg"><path d="M3 20.25h18m-1.5 0v-12a.75.75 0 0 0-.75-.75H5.25a.75.75 0 0 0-.75.75v12M21 4.5v2.25a.75.75 0 0 1-.75.75H3.75A.75.75 0 0 1 3 6.75V4.5a.75.75 0 0 1 .75-.75h16.5a.75.75 0 0 1 .75.75ZM9.946 16.792c.547.512 1.29.799 2.064.799s1.517-.287 2.064-.799c.934-.87 1.974-3.428-1.334-6.701l-1.46 3.41-1.46-1.365c-.646.907-1.525 3.108.126 4.656Z" stroke="#1B1B1F" stroke-width="1.5" stroke-linecap="round" stroke-linejoin="round"/></svg>