<svg width="32" height="32" viewBox="0 0 32 32" fill="none" xmlns="http://www.w3.org/2000/svg">
<g clip-path="url(#clip0_6802_220)">
<path d="M13.9995 17C13.9976 18.2204 13.5496 19.398 12.7398 20.3111C11.9299 21.2241 10.8142 21.8095 9.60273 21.957C8.39126 22.1045 7.16765 21.804 6.16237 21.112C5.1571 20.42 4.43954 19.3843 4.14485 18.2C4.05998 17.8575 3.86288 17.5532 3.58499 17.3357C3.30709 17.1183 2.96439 17.0001 2.61151 17C2.18398 17 1.77396 17.1698 1.47166 17.4721C1.16935 17.7745 0.999512 18.1845 0.999512 18.612V29C0.999512 29.5304 1.21023 30.0391 1.5853 30.4142C1.96037 30.7893 2.46908 31 2.99951 31H28.9995C29.5299 31 30.0387 30.7893 30.4137 30.4142C30.7888 30.0391 30.9995 29.5304 30.9995 29V27.288C30.9996 26.5913 30.8176 25.9067 30.4717 25.3019C30.1259 24.6972 29.628 24.1932 29.0275 23.84L13.9995 17Z" stroke="#47474F" stroke-width="2" stroke-linecap="round" stroke-linejoin="round"/>
<path d="M0.999512 27H30.9995" stroke="#47474F" stroke-width="2" stroke-linecap="round" stroke-linejoin="round"/>
<path d="M16.9995 22L19.4968 19.5027" stroke="#47474F" stroke-width="2" stroke-linecap="round" stroke-linejoin="round"/>
<path d="M20.9995 24L23.6208 21.3787" stroke="#47474F" stroke-width="2" stroke-linecap="round" stroke-linejoin="round"/>
<path d="M17.9995 15C18.0014 13.7796 18.4494 12.602 19.2593 11.6889C20.0691 10.7759 21.1848 10.1905 22.3963 10.043C23.6078 9.89547 24.8314 10.196 25.8367 10.888C26.8419 11.58 27.5595 12.6157 27.8542 13.8C27.9391 14.1425 28.1361 14.4468 28.414 14.6643C28.6919 14.8817 29.0346 14.9999 29.3875 15C29.815 15 30.2251 14.8302 30.5274 14.5279C30.8297 14.2255 30.9995 13.8155 30.9995 13.388V3C30.9995 2.46957 30.7888 1.96086 30.4137 1.58579C30.0387 1.21071 29.5299 1 28.9995 1H2.99951C2.46908 1 1.96037 1.21071 1.5853 1.58579C1.21023 1.96086 0.999512 2.46957 0.999512 3V4.712C0.999474 5.40869 1.1814 6.09331 1.52728 6.69807C1.87316 7.30284 2.371 7.80678 2.97151 8.16L17.9995 15Z" stroke="#47474F" stroke-width="2" stroke-linecap="round" stroke-linejoin="round"/>
<path d="M30.9995 5H0.999512" stroke="#47474F" stroke-width="2" stroke-linecap="round" stroke-linejoin="round"/>
<path d="M14.9998 10L12.5024 12.4973" stroke="#47474F" stroke-width="2" stroke-linecap="round" stroke-linejoin="round"/>
<path d="M10.9998 8L8.37842 10.6213" stroke="#47474F" stroke-width="2" stroke-linecap="round" stroke-linejoin="round"/>
</g>
<defs>
<clipPath id="clip0_6802_220">
<rect width="32" height="32" fill="white"/>
</clipPath>
</defs>
</svg>
